solid OpenSCAD_Model
  facet normal 0 0 -1
    outer loop
      vertex 121.777 56.844 0
      vertex 123.76 55.5679 0
      vertex 123.222 54.9651 0
    endloop
  endfacet
  facet normal 0 0 -1
    outer loop
      vertex 123.112 54.7944 0
      vertex 120.94 55.5026 0
      vertex 121.009 55.5628 0
    endloop
  endfacet
  facet normal 0 0 -1
    outer loop
      vertex 123.222 54.9651 0
      vertex 123.76 55.5679 0
      vertex 123.883 55.4125 0
    endloop
  endfacet
  facet normal 0 0 -1
    outer loop
      vertex 123.112 54.7944 0
      vertex 121.009 55.5628 0
      vertex 123.222 54.9651 0
    endloop
  endfacet
  facet normal 0 0 -1
    outer loop
      vertex 123.883 55.4125 0
      vertex 124.175 55.3587 0
      vertex 124.218 55.225 0
    endloop
  endfacet
  facet normal 0 0 -1
    outer loop
      vertex 124.728 58.9661 0
      vertex 124.411 59.2492 0
      vertex 124.62 59.1185 0
    endloop
  endfacet
  facet normal 0 0 -1
    outer loop
      vertex 123.222 54.9651 0
      vertex 123.883 55.4125 0
      vertex 124.218 55.225 0
    endloop
  endfacet
  facet normal 0 0 -1
    outer loop
      vertex 121.777 56.844 0
      vertex 123.84 57.0879 0
      vertex 123.76 55.5679 0
    endloop
  endfacet
  facet normal -0 0 -1
    outer loop
      vertex 124.765 57.9695 0
      vertex 123.928 57.2164 0
      vertex 124.411 59.2492 0
    endloop
  endfacet
  facet normal 0 -0 -1
    outer loop
      vertex 125.09 57.9278 0
      vertex 125.151 57.4238 0
      vertex 125.034 57.8455 0
    endloop
  endfacet
  facet normal 0 0 -1
    outer loop
      vertex 124.728 58.9661 0
      vertex 124.97 58.3 0
      vertex 124.825 58.1895 0
    endloop
  endfacet
  facet normal 0 0 -1
    outer loop
      vertex 124.595 57.329 0
      vertex 125.151 57.4238 0
      vertex 124.674 57.0332 0
    endloop
  endfacet
  facet normal 0 -0 -1
    outer loop
      vertex 124.868 57.786 0
      vertex 125.151 57.4238 0
      vertex 124.595 57.329 0
    endloop
  endfacet
  facet normal 0 -0 -1
    outer loop
      vertex 125.034 57.8455 0
      vertex 125.151 57.4238 0
      vertex 124.868 57.786 0
    endloop
  endfacet
  facet normal 0 -0 -1
    outer loop
      vertex 124.765 57.9695 0
      vertex 124.868 57.786 0
      vertex 124.388 57.4265 0
    endloop
  endfacet
  facet normal 0 0 -1
    outer loop
      vertex 124.868 57.786 0
      vertex 124.595 57.329 0
      vertex 124.388 57.4265 0
    endloop
  endfacet
  facet normal 0 0 -1
    outer loop
      vertex 123.928 57.2164 0
      vertex 124.765 57.9695 0
      vertex 124.388 57.4265 0
    endloop
  endfacet
  facet normal 0 0 -1
    outer loop
      vertex 124.728 58.9661 0
      vertex 124.973 58.8939 0
      vertex 124.97 58.3 0
    endloop
  endfacet
  facet normal -0 -0 -1
    outer loop
      vertex 124.728 58.9661 0
      vertex 124.825 58.1895 0
      vertex 124.411 59.2492 0
    endloop
  endfacet
  facet normal 0 0 -1
    outer loop
      vertex 124.97 58.3 0
      vertex 124.973 58.8939 0
      vertex 125.045 58.3 0
    endloop
  endfacet
  facet normal 0 0 -1
    outer loop
      vertex 122.386 51.8048 0
      vertex 119.75 55.0004 0
      vertex 119.82 55.0126 0
    endloop
  endfacet
  facet normal 0 0 -1
    outer loop
      vertex 124.62 59.1185 0
      vertex 124.411 59.2492 0
      vertex 124.446 59.2962 0
    endloop
  endfacet
  facet normal -0 0 -1
    outer loop
      vertex 124.825 58.1895 0
      vertex 124.765 57.9695 0
      vertex 124.411 59.2492 0
    endloop
  endfacet
  facet normal 0 0 -1
    outer loop
      vertex 124.446 59.2962 0
      vertex 124.656 59.7432 0
      vertex 124.62 59.1185 0
    endloop
  endfacet
  facet normal 0 0 -1
    outer loop
      vertex 124.411 59.2492 0
      vertex 123.928 57.2164 0
      vertex 121.777 56.844 0
    endloop
  endfacet
  facet normal 0 0 -1
    outer loop
      vertex 116.17 54.8126 0
      vertex 117.026 55.1878 0
      vertex 116.872 52.5206 0
    endloop
  endfacet
  facet normal 0 0 -1
    outer loop
      vertex 121.777 56.844 0
      vertex 123.928 57.2164 0
      vertex 123.84 57.0879 0
    endloop
  endfacet
  facet normal 0 0 -1
    outer loop
      vertex 121.009 55.5628 0
      vertex 121.777 56.844 0
      vertex 123.222 54.9651 0
    endloop
  endfacet
  facet normal 0 0 -1
    outer loop
      vertex 120.94 55.5026 0
      vertex 123.112 54.7944 0
      vertex 123.196 54.3109 0
    endloop
  endfacet
  facet normal 0 0 -1
    outer loop
      vertex 122.386 51.8048 0
      vertex 120.94 55.5026 0
      vertex 123.196 54.3109 0
    endloop
  endfacet
  facet normal 0 0 -1
    outer loop
      vertex 122.386 51.8048 0
      vertex 119.82 55.0126 0
      vertex 120.94 55.5026 0
    endloop
  endfacet
  facet normal 0 0 -1
    outer loop
      vertex 116.872 52.5206 0
      vertex 115.354 54.78 0
      vertex 116.114 54.8 0
    endloop
  endfacet
  facet normal 0 0 -1
    outer loop
      vertex 122.386 51.8048 0
      vertex 116.872 52.5206 0
      vertex 119.75 55.0004 0
    endloop
  endfacet
  facet normal 0 0 -1
    outer loop
      vertex 116.872 52.5206 0
      vertex 117.026 55.1878 0
      vertex 119.75 55.0004 0
    endloop
  endfacet
  facet normal 0 0 -1
    outer loop
      vertex 116.872 52.5206 0
      vertex 116.114 54.8 0
      vertex 116.17 54.8126 0
    endloop
  endfacet
  facet normal -0 -0 -1
    outer loop
      vertex 115.354 54.78 0
      vertex 116.872 52.5206 0
      vertex 115.215 54.8654 0
    endloop
  endfacet
  facet normal 0 0 -1
    outer loop
      vertex 114.758 55.3196 0
      vertex 114.794 55.5498 0
      vertex 114.924 55.4737 0
    endloop
  endfacet
  facet normal 0 0 -1
    outer loop
      vertex 115.215 54.8654 0
      vertex 114.758 55.3196 0
      vertex 114.924 55.4737 0
    endloop
  endfacet
  facet normal -0 -0 -1
    outer loop
      vertex 115.215 54.8654 0
      vertex 116.872 52.5206 0
      vertex 114.758 55.3196 0
    endloop
  endfacet
  facet normal 0 -0 1
    outer loop
      vertex 123.222 54.9651 10
      vertex 123.76 55.5679 10
      vertex 121.777 56.844 10
    endloop
  endfacet
  facet normal 0 0 1
    outer loop
      vertex 121.009 55.5628 10
      vertex 120.94 55.5026 10
      vertex 123.112 54.7944 10
    endloop
  endfacet
  facet normal 0 0 1
    outer loop
      vertex 123.883 55.4125 10
      vertex 123.76 55.5679 10
      vertex 123.222 54.9651 10
    endloop
  endfacet
  facet normal 0 0 1
    outer loop
      vertex 123.222 54.9651 10
      vertex 121.009 55.5628 10
      vertex 123.112 54.7944 10
    endloop
  endfacet
  facet normal 0 0 1
    outer loop
      vertex 124.218 55.225 10
      vertex 124.175 55.3587 10
      vertex 123.883 55.4125 10
    endloop
  endfacet
  facet normal 0 0 1
    outer loop
      vertex 124.62 59.1185 10
      vertex 124.411 59.2492 10
      vertex 124.728 58.9661 10
    endloop
  endfacet
  facet normal 0 0 1
    outer loop
      vertex 124.218 55.225 10
      vertex 123.883 55.4125 10
      vertex 123.222 54.9651 10
    endloop
  endfacet
  facet normal 0 -0 1
    outer loop
      vertex 123.76 55.5679 10
      vertex 123.84 57.0879 10
      vertex 121.777 56.844 10
    endloop
  endfacet
  facet normal 0 0 1
    outer loop
      vertex 124.411 59.2492 10
      vertex 123.928 57.2164 10
      vertex 124.765 57.9695 10
    endloop
  endfacet
  facet normal -0 0 1
    outer loop
      vertex 125.034 57.8455 10
      vertex 125.151 57.4238 10
      vertex 125.09 57.9278 10
    endloop
  endfacet
  facet normal 0 -0 1
    outer loop
      vertex 124.825 58.1895 10
      vertex 124.97 58.3 10
      vertex 124.728 58.9661 10
    endloop
  endfacet
  facet normal 0 -0 1
    outer loop
      vertex 124.674 57.0332 10
      vertex 125.151 57.4238 10
      vertex 124.595 57.329 10
    endloop
  endfacet
  facet normal 0 0 1
    outer loop
      vertex 124.595 57.329 10
      vertex 125.151 57.4238 10
      vertex 124.868 57.786 10
    endloop
  endfacet
  facet normal -0 0 1
    outer loop
      vertex 124.868 57.786 10
      vertex 125.151 57.4238 10
      vertex 125.034 57.8455 10
    endloop
  endfacet
  facet normal 0 0 1
    outer loop
      vertex 124.388 57.4265 10
      vertex 124.868 57.786 10
      vertex 124.765 57.9695 10
    endloop
  endfacet
  facet normal -0 0 1
    outer loop
      vertex 124.388 57.4265 10
      vertex 124.595 57.329 10
      vertex 124.868 57.786 10
    endloop
  endfacet
  facet normal 0 -0 1
    outer loop
      vertex 124.388 57.4265 10
      vertex 124.765 57.9695 10
      vertex 123.928 57.2164 10
    endloop
  endfacet
  facet normal 0 -0 1
    outer loop
      vertex 124.97 58.3 10
      vertex 124.973 58.8939 10
      vertex 124.728 58.9661 10
    endloop
  endfacet
  facet normal 0 0 1
    outer loop
      vertex 124.411 59.2492 10
      vertex 124.825 58.1895 10
      vertex 124.728 58.9661 10
    endloop
  endfacet
  facet normal 0 0 1
    outer loop
      vertex 125.045 58.3 10
      vertex 124.973 58.8939 10
      vertex 124.97 58.3 10
    endloop
  endfacet
  facet normal 0 0 1
    outer loop
      vertex 119.82 55.0126 10
      vertex 119.75 55.0004 10
      vertex 122.386 51.8048 10
    endloop
  endfacet
  facet normal 0 0 1
    outer loop
      vertex 124.446 59.2962 10
      vertex 124.411 59.2492 10
      vertex 124.62 59.1185 10
    endloop
  endfacet
  facet normal 0 0 1
    outer loop
      vertex 124.411 59.2492 10
      vertex 124.765 57.9695 10
      vertex 124.825 58.1895 10
    endloop
  endfacet
  facet normal 0 -0 1
    outer loop
      vertex 124.62 59.1185 10
      vertex 124.656 59.7432 10
      vertex 124.446 59.2962 10
    endloop
  endfacet
  facet normal 0 0 1
    outer loop
      vertex 121.777 56.844 10
      vertex 123.928 57.2164 10
      vertex 124.411 59.2492 10
    endloop
  endfacet
  facet normal 0 -0 1
    outer loop
      vertex 116.872 52.5206 10
      vertex 117.026 55.1878 10
      vertex 116.17 54.8126 10
    endloop
  endfacet
  facet normal 0 -0 1
    outer loop
      vertex 123.84 57.0879 10
      vertex 123.928 57.2164 10
      vertex 121.777 56.844 10
    endloop
  endfacet
  facet normal 0 0 1
    outer loop
      vertex 123.222 54.9651 10
      vertex 121.777 56.844 10
      vertex 121.009 55.5628 10
    endloop
  endfacet
  facet normal 0 0 1
    outer loop
      vertex 123.196 54.3109 10
      vertex 123.112 54.7944 10
      vertex 120.94 55.5026 10
    endloop
  endfacet
  facet normal 0 0 1
    outer loop
      vertex 123.196 54.3109 10
      vertex 120.94 55.5026 10
      vertex 122.386 51.8048 10
    endloop
  endfacet
  facet normal 0 0 1
    outer loop
      vertex 120.94 55.5026 10
      vertex 119.82 55.0126 10
      vertex 122.386 51.8048 10
    endloop
  endfacet
  facet normal 0 0 1
    outer loop
      vertex 116.114 54.8 10
      vertex 115.354 54.78 10
      vertex 116.872 52.5206 10
    endloop
  endfacet
  facet normal 0 0 1
    outer loop
      vertex 119.75 55.0004 10
      vertex 116.872 52.5206 10
      vertex 122.386 51.8048 10
    endloop
  endfacet
  facet normal 0 0 1
    outer loop
      vertex 119.75 55.0004 10
      vertex 117.026 55.1878 10
      vertex 116.872 52.5206 10
    endloop
  endfacet
  facet normal 0 0 1
    outer loop
      vertex 116.17 54.8126 10
      vertex 116.114 54.8 10
      vertex 116.872 52.5206 10
    endloop
  endfacet
  facet normal 0 0 1
    outer loop
      vertex 115.215 54.8654 10
      vertex 116.872 52.5206 10
      vertex 115.354 54.78 10
    endloop
  endfacet
  facet normal 0 0 1
    outer loop
      vertex 114.924 55.4737 10
      vertex 114.794 55.5498 10
      vertex 114.758 55.3196 10
    endloop
  endfacet
  facet normal 0 0 1
    outer loop
      vertex 114.924 55.4737 10
      vertex 114.758 55.3196 10
      vertex 115.215 54.8654 10
    endloop
  endfacet
  facet normal 0 0 1
    outer loop
      vertex 114.758 55.3196 10
      vertex 116.872 52.5206 10
      vertex 115.215 54.8654 10
    endloop
  endfacet
  facet normal 0.985242 0.171169 0
    outer loop
      vertex 123.112 54.7944 0
      vertex 123.196 54.3109 10
      vertex 123.196 54.3109 0
    endloop
  endfacet
  facet normal 0.985242 0.171169 -0
    outer loop
      vertex 123.112 54.7944 0
      vertex 123.112 54.7944 10
      vertex 123.196 54.3109 10
    endloop
  endfacet
  facet normal 0.840586 -0.541678 0
    outer loop
      vertex 123.222 54.9651 0
      vertex 123.112 54.7944 10
      vertex 123.112 54.7944 0
    endloop
  endfacet
  facet normal 0.840586 -0.541678 0
    outer loop
      vertex 123.222 54.9651 0
      vertex 123.222 54.9651 10
      vertex 123.112 54.7944 10
    endloop
  endfacet
  facet normal 0.252489 -0.9676 0
    outer loop
      vertex 124.218 55.225 0
      vertex 123.222 54.9651 10
      vertex 123.222 54.9651 0
    endloop
  endfacet
  facet normal 0.252489 -0.9676 0
    outer loop
      vertex 124.218 55.225 0
      vertex 124.218 55.225 10
      vertex 123.222 54.9651 10
    endloop
  endfacet
  facet normal 0.951977 0.306171 0
    outer loop
      vertex 124.175 55.3587 0
      vertex 124.218 55.225 10
      vertex 124.218 55.225 0
    endloop
  endfacet
  facet normal 0.951977 0.306171 -0
    outer loop
      vertex 124.175 55.3587 0
      vertex 124.175 55.3587 10
      vertex 124.218 55.225 10
    endloop
  endfacet
  facet normal 0.181197 0.983447 0
    outer loop
      vertex 123.883 55.4125 0
      vertex 124.175 55.3587 10
      vertex 124.175 55.3587 0
    endloop
  endfacet
  facet normal 0.181197 0.983447 -0
    outer loop
      vertex 123.883 55.4125 0
      vertex 123.883 55.4125 10
      vertex 124.175 55.3587 10
    endloop
  endfacet
  facet normal 0.784107 0.620625 0
    outer loop
      vertex 123.76 55.5679 0
      vertex 123.883 55.4125 10
      vertex 123.883 55.4125 0
    endloop
  endfacet
  facet normal 0.784107 0.620625 -0
    outer loop
      vertex 123.76 55.5679 0
      vertex 123.76 55.5679 10
      vertex 123.883 55.4125 10
    endloop
  endfacet
  facet normal 0.998618 -0.0525588 0
    outer loop
      vertex 123.84 57.0879 0
      vertex 123.76 55.5679 10
      vertex 123.76 55.5679 0
    endloop
  endfacet
  facet normal 0.998618 -0.0525588 0
    outer loop
      vertex 123.84 57.0879 0
      vertex 123.84 57.0879 10
      vertex 123.76 55.5679 10
    endloop
  endfacet
  facet normal 0.825071 -0.565029 0
    outer loop
      vertex 123.928 57.2164 0
      vertex 123.84 57.0879 10
      vertex 123.84 57.0879 0
    endloop
  endfacet
  facet normal 0.825071 -0.565029 0
    outer loop
      vertex 123.928 57.2164 0
      vertex 123.928 57.2164 10
      vertex 123.84 57.0879 10
    endloop
  endfacet
  facet normal 0.415456 -0.909613 0
    outer loop
      vertex 124.388 57.4265 0
      vertex 123.928 57.2164 10
      vertex 123.928 57.2164 0
    endloop
  endfacet
  facet normal 0.415456 -0.909613 0
    outer loop
      vertex 124.388 57.4265 0
      vertex 124.388 57.4265 10
      vertex 123.928 57.2164 10
    endloop
  endfacet
  facet normal -0.426113 -0.90467 0
    outer loop
      vertex 124.595 57.329 0
      vertex 124.388 57.4265 10
      vertex 124.388 57.4265 0
    endloop
  endfacet
  facet normal -0.426113 -0.90467 0
    outer loop
      vertex 124.595 57.329 0
      vertex 124.595 57.329 10
      vertex 124.388 57.4265 10
    endloop
  endfacet
  facet normal -0.966137 -0.258029 0
    outer loop
      vertex 124.674 57.0332 0
      vertex 124.595 57.329 10
      vertex 124.595 57.329 0
    endloop
  endfacet
  facet normal -0.966137 -0.258029 0
    outer loop
      vertex 124.674 57.0332 0
      vertex 124.674 57.0332 10
      vertex 124.595 57.329 10
    endloop
  endfacet
  facet normal 0.633556 -0.773697 0
    outer loop
      vertex 125.151 57.4238 0
      vertex 124.674 57.0332 10
      vertex 124.674 57.0332 0
    endloop
  endfacet
  facet normal 0.633556 -0.773697 0
    outer loop
      vertex 125.151 57.4238 0
      vertex 125.151 57.4238 10
      vertex 124.674 57.0332 10
    endloop
  endfacet
  facet normal 0.992755 0.120155 0
    outer loop
      vertex 125.09 57.9278 0
      vertex 125.151 57.4238 10
      vertex 125.151 57.4238 0
    endloop
  endfacet
  facet normal 0.992755 0.120155 -0
    outer loop
      vertex 125.09 57.9278 0
      vertex 125.09 57.9278 10
      vertex 125.151 57.4238 10
    endloop
  endfacet
  facet normal -0.826758 0.562557 0
    outer loop
      vertex 125.034 57.8455 0
      vertex 125.09 57.9278 10
      vertex 125.09 57.9278 0
    endloop
  endfacet
  facet normal -0.826758 0.562557 0
    outer loop
      vertex 125.034 57.8455 0
      vertex 125.034 57.8455 10
      vertex 125.09 57.9278 10
    endloop
  endfacet
  facet normal -0.337414 0.941356 0
    outer loop
      vertex 124.868 57.786 0
      vertex 125.034 57.8455 10
      vertex 125.034 57.8455 0
    endloop
  endfacet
  facet normal -0.337414 0.941356 0
    outer loop
      vertex 124.868 57.786 0
      vertex 124.868 57.786 10
      vertex 125.034 57.8455 10
    endloop
  endfacet
  facet normal 0.872019 0.489471 0
    outer loop
      vertex 124.765 57.9695 0
      vertex 124.868 57.786 10
      vertex 124.868 57.786 0
    endloop
  endfacet
  facet normal 0.872019 0.489471 -0
    outer loop
      vertex 124.765 57.9695 0
      vertex 124.765 57.9695 10
      vertex 124.868 57.786 10
    endloop
  endfacet
  facet normal 0.964764 -0.263117 0
    outer loop
      vertex 124.825 58.1895 0
      vertex 124.765 57.9695 10
      vertex 124.765 57.9695 0
    endloop
  endfacet
  facet normal 0.964764 -0.263117 0
    outer loop
      vertex 124.825 58.1895 0
      vertex 124.825 58.1895 10
      vertex 124.765 57.9695 10
    endloop
  endfacet
  facet normal 0.606126 -0.795369 0
    outer loop
      vertex 124.97 58.3 0
      vertex 124.825 58.1895 10
      vertex 124.825 58.1895 0
    endloop
  endfacet
  facet normal 0.606126 -0.795369 0
    outer loop
      vertex 124.97 58.3 0
      vertex 124.97 58.3 10
      vertex 124.825 58.1895 10
    endloop
  endfacet
  facet normal 0 -1 0
    outer loop
      vertex 125.045 58.3 0
      vertex 124.97 58.3 10
      vertex 124.97 58.3 0
    endloop
  endfacet
  facet normal 0 -1 0
    outer loop
      vertex 125.045 58.3 0
      vertex 125.045 58.3 10
      vertex 124.97 58.3 10
    endloop
  endfacet
  facet normal 0.992731 0.120351 0
    outer loop
      vertex 124.973 58.8939 0
      vertex 125.045 58.3 10
      vertex 125.045 58.3 0
    endloop
  endfacet
  facet normal 0.992731 0.120351 -0
    outer loop
      vertex 124.973 58.8939 0
      vertex 124.973 58.8939 10
      vertex 125.045 58.3 10
    endloop
  endfacet
  facet normal 0.282675 0.959216 0
    outer loop
      vertex 124.728 58.9661 0
      vertex 124.973 58.8939 10
      vertex 124.973 58.8939 0
    endloop
  endfacet
  facet normal 0.282675 0.959216 -0
    outer loop
      vertex 124.728 58.9661 0
      vertex 124.728 58.9661 10
      vertex 124.973 58.8939 10
    endloop
  endfacet
  facet normal 0.815898 0.578196 0
    outer loop
      vertex 124.62 59.1185 0
      vertex 124.728 58.9661 10
      vertex 124.728 58.9661 0
    endloop
  endfacet
  facet normal 0.815898 0.578196 -0
    outer loop
      vertex 124.62 59.1185 0
      vertex 124.62 59.1185 10
      vertex 124.728 58.9661 10
    endloop
  endfacet
  facet normal 0.998344 -0.0575322 0
    outer loop
      vertex 124.656 59.7432 0
      vertex 124.62 59.1185 10
      vertex 124.62 59.1185 0
    endloop
  endfacet
  facet normal 0.998344 -0.0575322 0
    outer loop
      vertex 124.656 59.7432 0
      vertex 124.656 59.7432 10
      vertex 124.62 59.1185 10
    endloop
  endfacet
  facet normal -0.905094 0.425212 0
    outer loop
      vertex 124.446 59.2962 0
      vertex 124.656 59.7432 10
      vertex 124.656 59.7432 0
    endloop
  endfacet
  facet normal -0.905094 0.425212 0
    outer loop
      vertex 124.446 59.2962 0
      vertex 124.446 59.2962 10
      vertex 124.656 59.7432 10
    endloop
  endfacet
  facet normal -0.802043 0.597266 0
    outer loop
      vertex 124.411 59.2492 0
      vertex 124.446 59.2962 10
      vertex 124.446 59.2962 0
    endloop
  endfacet
  facet normal -0.802043 0.597266 0
    outer loop
      vertex 124.411 59.2492 0
      vertex 124.411 59.2492 10
      vertex 124.446 59.2962 10
    endloop
  endfacet
  facet normal -0.674307 0.738452 0
    outer loop
      vertex 121.777 56.844 0
      vertex 124.411 59.2492 10
      vertex 124.411 59.2492 0
    endloop
  endfacet
  facet normal -0.674307 0.738452 0
    outer loop
      vertex 121.777 56.844 0
      vertex 121.777 56.844 10
      vertex 124.411 59.2492 10
    endloop
  endfacet
  facet normal -0.857706 0.514141 0
    outer loop
      vertex 121.009 55.5628 0
      vertex 121.777 56.844 10
      vertex 121.777 56.844 0
    endloop
  endfacet
  facet normal -0.857706 0.514141 0
    outer loop
      vertex 121.009 55.5628 0
      vertex 121.009 55.5628 10
      vertex 121.777 56.844 10
    endloop
  endfacet
  facet normal -0.657422 0.753523 0
    outer loop
      vertex 120.94 55.5026 0
      vertex 121.009 55.5628 10
      vertex 121.009 55.5628 0
    endloop
  endfacet
  facet normal -0.657422 0.753523 0
    outer loop
      vertex 120.94 55.5026 0
      vertex 120.94 55.5026 10
      vertex 121.009 55.5628 10
    endloop
  endfacet
  facet normal -0.400819 0.916157 0
    outer loop
      vertex 119.82 55.0126 0
      vertex 120.94 55.5026 10
      vertex 120.94 55.5026 0
    endloop
  endfacet
  facet normal -0.400819 0.916157 0
    outer loop
      vertex 119.82 55.0126 0
      vertex 119.82 55.0126 10
      vertex 120.94 55.5026 10
    endloop
  endfacet
  facet normal -0.171698 0.98515 0
    outer loop
      vertex 119.75 55.0004 0
      vertex 119.82 55.0126 10
      vertex 119.82 55.0126 0
    endloop
  endfacet
  facet normal -0.171698 0.98515 0
    outer loop
      vertex 119.75 55.0004 0
      vertex 119.75 55.0004 10
      vertex 119.82 55.0126 10
    endloop
  endfacet
  facet normal 0.0686337 0.997642 0
    outer loop
      vertex 117.026 55.1878 0
      vertex 119.75 55.0004 10
      vertex 119.75 55.0004 0
    endloop
  endfacet
  facet normal 0.0686337 0.997642 -0
    outer loop
      vertex 117.026 55.1878 0
      vertex 117.026 55.1878 10
      vertex 119.75 55.0004 10
    endloop
  endfacet
  facet normal -0.401447 0.915882 0
    outer loop
      vertex 116.17 54.8126 0
      vertex 117.026 55.1878 10
      vertex 117.026 55.1878 0
    endloop
  endfacet
  facet normal -0.401447 0.915882 0
    outer loop
      vertex 116.17 54.8126 0
      vertex 116.17 54.8126 10
      vertex 117.026 55.1878 10
    endloop
  endfacet
  facet normal -0.219512 0.97561 0
    outer loop
      vertex 116.114 54.8 0
      vertex 116.17 54.8126 10
      vertex 116.17 54.8126 0
    endloop
  endfacet
  facet normal -0.219512 0.97561 0
    outer loop
      vertex 116.114 54.8 0
      vertex 116.114 54.8 10
      vertex 116.17 54.8126 10
    endloop
  endfacet
  facet normal -0.0263067 0.999654 0
    outer loop
      vertex 115.354 54.78 0
      vertex 116.114 54.8 10
      vertex 116.114 54.8 0
    endloop
  endfacet
  facet normal -0.0263067 0.999654 0
    outer loop
      vertex 115.354 54.78 0
      vertex 115.354 54.78 10
      vertex 116.114 54.8 10
    endloop
  endfacet
  facet normal 0.523482 0.852037 0
    outer loop
      vertex 115.215 54.8654 0
      vertex 115.354 54.78 10
      vertex 115.354 54.78 0
    endloop
  endfacet
  facet normal 0.523482 0.852037 -0
    outer loop
      vertex 115.215 54.8654 0
      vertex 115.215 54.8654 10
      vertex 115.354 54.78 10
    endloop
  endfacet
  facet normal 0.902092 0.431545 0
    outer loop
      vertex 114.924 55.4737 0
      vertex 115.215 54.8654 10
      vertex 115.215 54.8654 0
    endloop
  endfacet
  facet normal 0.902092 0.431545 -0
    outer loop
      vertex 114.924 55.4737 0
      vertex 114.924 55.4737 10
      vertex 115.215 54.8654 10
    endloop
  endfacet
  facet normal 0.505191 0.863007 0
    outer loop
      vertex 114.794 55.5498 0
      vertex 114.924 55.4737 10
      vertex 114.924 55.4737 0
    endloop
  endfacet
  facet normal 0.505191 0.863007 -0
    outer loop
      vertex 114.794 55.5498 0
      vertex 114.794 55.5498 10
      vertex 114.924 55.4737 10
    endloop
  endfacet
  facet normal -0.987992 0.154508 0
    outer loop
      vertex 114.758 55.3196 0
      vertex 114.794 55.5498 10
      vertex 114.794 55.5498 0
    endloop
  endfacet
  facet normal -0.987992 0.154508 0
    outer loop
      vertex 114.758 55.3196 0
      vertex 114.758 55.3196 10
      vertex 114.794 55.5498 10
    endloop
  endfacet
  facet normal -0.797977 -0.602688 0
    outer loop
      vertex 116.872 52.5206 0
      vertex 114.758 55.3196 10
      vertex 114.758 55.3196 0
    endloop
  endfacet
  facet normal -0.797977 -0.602688 0
    outer loop
      vertex 116.872 52.5206 0
      vertex 116.872 52.5206 10
      vertex 114.758 55.3196 10
    endloop
  endfacet
  facet normal -0.128735 -0.991679 0
    outer loop
      vertex 122.386 51.8048 0
      vertex 116.872 52.5206 10
      vertex 116.872 52.5206 0
    endloop
  endfacet
  facet normal -0.128735 -0.991679 0
    outer loop
      vertex 122.386 51.8048 0
      vertex 122.386 51.8048 10
      vertex 116.872 52.5206 10
    endloop
  endfacet
  facet normal 0.951533 -0.307546 0
    outer loop
      vertex 123.196 54.3109 0
      vertex 122.386 51.8048 10
      vertex 122.386 51.8048 0
    endloop
  endfacet
  facet normal 0.951533 -0.307546 0
    outer loop
      vertex 123.196 54.3109 0
      vertex 123.196 54.3109 10
      vertex 122.386 51.8048 10
    endloop
  endfacet
endsolid OpenSCAD_Model
