solid OpenSCAD_Model
  facet normal 0 -0 -1
    outer loop
      vertex 40.0144 112.515 0
      vertex 41.7336 111.769 0
      vertex 39.6458 112.335 0
    endloop
  endfacet
  facet normal 0 0 -1
    outer loop
      vertex 40.8436 105.907 0
      vertex 41.0457 104.998 0
      vertex 40.9548 104.907 0
    endloop
  endfacet
  facet normal 0 -0 -1
    outer loop
      vertex 39.6458 112.335 0
      vertex 42.3468 110.265 0
      vertex 38.494 107.508 0
    endloop
  endfacet
  facet normal 0 -0 -1
    outer loop
      vertex 36.3271 112.156 0
      vertex 38.0562 112.61 0
      vertex 35.9316 110.769 0
    endloop
  endfacet
  facet normal -0 0 -1
    outer loop
      vertex 42.0837 107.798 0
      vertex 38.494 107.508 0
      vertex 42.3866 110.111 0
    endloop
  endfacet
  facet normal 0 0 -1
    outer loop
      vertex 40.9284 106.077 0
      vertex 41.3523 106.766 0
      vertex 41.2562 106.224 0
    endloop
  endfacet
  facet normal 0 0 -1
    outer loop
      vertex 41.3983 106.85 0
      vertex 41.964 107.616 0
      vertex 41.7883 107.21 0
    endloop
  endfacet
  facet normal 0 0 -1
    outer loop
      vertex 41.7883 107.21 0
      vertex 41.964 107.616 0
      vertex 41.9499 107.238 0
    endloop
  endfacet
  facet normal 0 0 -1
    outer loop
      vertex 42.6452 108.917 0
      vertex 42.3866 110.111 0
      vertex 42.7243 109.143 0
    endloop
  endfacet
  facet normal 0 0 -1
    outer loop
      vertex 41.9499 107.238 0
      vertex 41.964 107.616 0
      vertex 42.0651 107.187 0
    endloop
  endfacet
  facet normal -0 0 -1
    outer loop
      vertex 42.6452 108.917 0
      vertex 42.0837 107.798 0
      vertex 42.3866 110.111 0
    endloop
  endfacet
  facet normal 0 0 -1
    outer loop
      vertex 42.3468 110.265 0
      vertex 41.7336 111.769 0
      vertex 41.86 111.7 0
    endloop
  endfacet
  facet normal 0 0 -1
    outer loop
      vertex 42.0837 107.798 0
      vertex 43.1572 108.149 0
      vertex 43.1474 107.987 0
    endloop
  endfacet
  facet normal 0 0 -1
    outer loop
      vertex 42.0837 107.798 0
      vertex 42.6452 108.917 0
      vertex 43.1572 108.149 0
    endloop
  endfacet
  facet normal 0 0 -1
    outer loop
      vertex 39.6458 112.335 0
      vertex 41.7336 111.769 0
      vertex 42.3468 110.265 0
    endloop
  endfacet
  facet normal 0 0 -1
    outer loop
      vertex 42.7243 109.143 0
      vertex 42.3866 110.111 0
      vertex 43.2333 109.306 0
    endloop
  endfacet
  facet normal 0 0 -1
    outer loop
      vertex 40.0144 112.515 0
      vertex 41.3807 112.321 0
      vertex 41.7336 111.769 0
    endloop
  endfacet
  facet normal 0 0 -1
    outer loop
      vertex 41.86 111.7 0
      vertex 42.7959 111.7 0
      vertex 42.3468 110.265 0
    endloop
  endfacet
  facet normal 0 -0 -1
    outer loop
      vertex 42.3468 110.265 0
      vertex 42.3866 110.111 0
      vertex 38.494 107.508 0
    endloop
  endfacet
  facet normal 0 0 -1
    outer loop
      vertex 39.4905 112.35 0
      vertex 38.494 107.508 0
      vertex 36.3498 109.573 0
    endloop
  endfacet
  facet normal 0 -0 -1
    outer loop
      vertex 39.4905 112.35 0
      vertex 39.6458 112.335 0
      vertex 38.494 107.508 0
    endloop
  endfacet
  facet normal 0 0 -1
    outer loop
      vertex 36.3271 112.156 0
      vertex 35.9316 110.769 0
      vertex 35.8927 110.829 0
    endloop
  endfacet
  facet normal 0 0 -1
    outer loop
      vertex 38.0562 112.61 0
      vertex 36.3498 109.573 0
      vertex 35.9316 110.769 0
    endloop
  endfacet
  facet normal -0 -0 -1
    outer loop
      vertex 39.1787 112.581 0
      vertex 39.4905 112.35 0
      vertex 38.0562 112.61 0
    endloop
  endfacet
  facet normal 0 0 -1
    outer loop
      vertex 36.3271 112.156 0
      vertex 37.2946 112.691 0
      vertex 37.9726 112.638 0
    endloop
  endfacet
  facet normal 0 0 -1
    outer loop
      vertex 37.9726 112.638 0
      vertex 37.2946 112.691 0
      vertex 37.4079 112.726 0
    endloop
  endfacet
  facet normal 0 -0 -1
    outer loop
      vertex 37.6085 112.899 0
      vertex 37.9726 112.638 0
      vertex 37.4079 112.726 0
    endloop
  endfacet
  facet normal -0 0 -1
    outer loop
      vertex 38.0562 112.61 0
      vertex 36.3271 112.156 0
      vertex 37.9726 112.638 0
    endloop
  endfacet
  facet normal 0 -0 -1
    outer loop
      vertex 38.0562 112.61 0
      vertex 39.4905 112.35 0
      vertex 36.3498 109.573 0
    endloop
  endfacet
  facet normal 0 -0 -1
    outer loop
      vertex 36.796 112.742 0
      vertex 37.2946 112.691 0
      vertex 36.3271 112.156 0
    endloop
  endfacet
  facet normal 0 0 -1
    outer loop
      vertex 42.0837 107.798 0
      vertex 41.964 107.616 0
      vertex 38.494 107.508 0
    endloop
  endfacet
  facet normal 0 0 -1
    outer loop
      vertex 36.1058 112.142 0
      vertex 35.8927 110.829 0
      vertex 35.1292 111.546 0
    endloop
  endfacet
  facet normal 0 0 -1
    outer loop
      vertex 38.494 107.508 0
      vertex 41.964 107.616 0
      vertex 41.3983 106.85 0
    endloop
  endfacet
  facet normal 0 -0 -1
    outer loop
      vertex 35.289 112.698 0
      vertex 35.554 112.675 0
      vertex 35.1292 111.546 0
    endloop
  endfacet
  facet normal 0 0 -1
    outer loop
      vertex 35.1292 111.546 0
      vertex 35.554 112.675 0
      vertex 36.1058 112.142 0
    endloop
  endfacet
  facet normal 0 0 -1
    outer loop
      vertex 38.5394 107.414 0
      vertex 38.494 107.508 0
      vertex 41.3983 106.85 0
    endloop
  endfacet
  facet normal 0 0 -1
    outer loop
      vertex 36.3271 112.156 0
      vertex 35.8927 110.829 0
      vertex 36.1058 112.142 0
    endloop
  endfacet
  facet normal -0 0 -1
    outer loop
      vertex 41.3983 106.85 0
      vertex 41.3523 106.766 0
      vertex 38.5394 107.414 0
    endloop
  endfacet
  facet normal -0 0 -1
    outer loop
      vertex 41.3523 106.766 0
      vertex 39.3333 106.158 0
      vertex 38.5394 107.414 0
    endloop
  endfacet
  facet normal 0 0 -1
    outer loop
      vertex 39.3333 106.158 0
      vertex 38.5749 107.032 0
      vertex 38.5394 107.414 0
    endloop
  endfacet
  facet normal 0 0 -1
    outer loop
      vertex 41.3523 106.766 0
      vertex 40.9284 106.077 0
      vertex 39.3333 106.158 0
    endloop
  endfacet
  facet normal 0 0 -1
    outer loop
      vertex 39.3333 106.158 0
      vertex 39.6485 105.861 0
      vertex 39.5935 105.886 0
    endloop
  endfacet
  facet normal 0 0 -1
    outer loop
      vertex 39.3448 105.977 0
      vertex 39.3333 106.158 0
      vertex 39.5935 105.886 0
    endloop
  endfacet
  facet normal 0 0 -1
    outer loop
      vertex 39.3254 105.948 0
      vertex 39.3448 105.977 0
      vertex 39.5935 105.886 0
    endloop
  endfacet
  facet normal 0 0 -1
    outer loop
      vertex 39.3333 106.158 0
      vertex 40.9284 106.077 0
      vertex 39.6485 105.861 0
    endloop
  endfacet
  facet normal 0 0 -1
    outer loop
      vertex 40.9548 104.907 0
      vertex 39.6485 105.861 0
      vertex 40.8436 105.907 0
    endloop
  endfacet
  facet normal 0 0 -1
    outer loop
      vertex 39.6485 105.861 0
      vertex 40.9284 106.077 0
      vertex 40.8436 105.907 0
    endloop
  endfacet
  facet normal -0 0 1
    outer loop
      vertex 39.6458 112.335 10
      vertex 41.7336 111.769 10
      vertex 40.0144 112.515 10
    endloop
  endfacet
  facet normal 0 -0 1
    outer loop
      vertex 40.9548 104.907 10
      vertex 41.0457 104.998 10
      vertex 40.8436 105.907 10
    endloop
  endfacet
  facet normal 0 0 1
    outer loop
      vertex 38.494 107.508 10
      vertex 42.3468 110.265 10
      vertex 39.6458 112.335 10
    endloop
  endfacet
  facet normal 0 0 1
    outer loop
      vertex 35.9316 110.769 10
      vertex 38.0562 112.61 10
      vertex 36.3271 112.156 10
    endloop
  endfacet
  facet normal 0 0 1
    outer loop
      vertex 42.3866 110.111 10
      vertex 38.494 107.508 10
      vertex 42.0837 107.798 10
    endloop
  endfacet
  facet normal 0 -0 1
    outer loop
      vertex 41.2562 106.224 10
      vertex 41.3523 106.766 10
      vertex 40.9284 106.077 10
    endloop
  endfacet
  facet normal 0 -0 1
    outer loop
      vertex 41.7883 107.21 10
      vertex 41.964 107.616 10
      vertex 41.3983 106.85 10
    endloop
  endfacet
  facet normal 0 -0 1
    outer loop
      vertex 41.9499 107.238 10
      vertex 41.964 107.616 10
      vertex 41.7883 107.21 10
    endloop
  endfacet
  facet normal 0 0 1
    outer loop
      vertex 42.7243 109.143 10
      vertex 42.3866 110.111 10
      vertex 42.6452 108.917 10
    endloop
  endfacet
  facet normal 0 0 1
    outer loop
      vertex 42.0651 107.187 10
      vertex 41.964 107.616 10
      vertex 41.9499 107.238 10
    endloop
  endfacet
  facet normal 0 0 1
    outer loop
      vertex 42.3866 110.111 10
      vertex 42.0837 107.798 10
      vertex 42.6452 108.917 10
    endloop
  endfacet
  facet normal 0 0 1
    outer loop
      vertex 41.86 111.7 10
      vertex 41.7336 111.769 10
      vertex 42.3468 110.265 10
    endloop
  endfacet
  facet normal 0 -0 1
    outer loop
      vertex 43.1474 107.987 10
      vertex 43.1572 108.149 10
      vertex 42.0837 107.798 10
    endloop
  endfacet
  facet normal 0 0 1
    outer loop
      vertex 43.1572 108.149 10
      vertex 42.6452 108.917 10
      vertex 42.0837 107.798 10
    endloop
  endfacet
  facet normal 0 0 1
    outer loop
      vertex 42.3468 110.265 10
      vertex 41.7336 111.769 10
      vertex 39.6458 112.335 10
    endloop
  endfacet
  facet normal 0 0 1
    outer loop
      vertex 43.2333 109.306 10
      vertex 42.3866 110.111 10
      vertex 42.7243 109.143 10
    endloop
  endfacet
  facet normal 0 0 1
    outer loop
      vertex 41.7336 111.769 10
      vertex 41.3807 112.321 10
      vertex 40.0144 112.515 10
    endloop
  endfacet
  facet normal 0 -0 1
    outer loop
      vertex 42.3468 110.265 10
      vertex 42.7959 111.7 10
      vertex 41.86 111.7 10
    endloop
  endfacet
  facet normal 0 0 1
    outer loop
      vertex 38.494 107.508 10
      vertex 42.3866 110.111 10
      vertex 42.3468 110.265 10
    endloop
  endfacet
  facet normal -0 0 1
    outer loop
      vertex 36.3498 109.573 10
      vertex 38.494 107.508 10
      vertex 39.4905 112.35 10
    endloop
  endfacet
  facet normal 0 0 1
    outer loop
      vertex 38.494 107.508 10
      vertex 39.6458 112.335 10
      vertex 39.4905 112.35 10
    endloop
  endfacet
  facet normal -0 0 1
    outer loop
      vertex 35.8927 110.829 10
      vertex 35.9316 110.769 10
      vertex 36.3271 112.156 10
    endloop
  endfacet
  facet normal -0 0 1
    outer loop
      vertex 35.9316 110.769 10
      vertex 36.3498 109.573 10
      vertex 38.0562 112.61 10
    endloop
  endfacet
  facet normal 0 0 1
    outer loop
      vertex 38.0562 112.61 10
      vertex 39.4905 112.35 10
      vertex 39.1787 112.581 10
    endloop
  endfacet
  facet normal 0 0 1
    outer loop
      vertex 37.9726 112.638 10
      vertex 37.2946 112.691 10
      vertex 36.3271 112.156 10
    endloop
  endfacet
  facet normal 0 0 1
    outer loop
      vertex 37.4079 112.726 10
      vertex 37.2946 112.691 10
      vertex 37.9726 112.638 10
    endloop
  endfacet
  facet normal -0 0 1
    outer loop
      vertex 37.4079 112.726 10
      vertex 37.9726 112.638 10
      vertex 37.6085 112.899 10
    endloop
  endfacet
  facet normal 0 0 1
    outer loop
      vertex 37.9726 112.638 10
      vertex 36.3271 112.156 10
      vertex 38.0562 112.61 10
    endloop
  endfacet
  facet normal 0 0 1
    outer loop
      vertex 36.3498 109.573 10
      vertex 39.4905 112.35 10
      vertex 38.0562 112.61 10
    endloop
  endfacet
  facet normal 0 0 1
    outer loop
      vertex 36.3271 112.156 10
      vertex 37.2946 112.691 10
      vertex 36.796 112.742 10
    endloop
  endfacet
  facet normal 0 0 1
    outer loop
      vertex 38.494 107.508 10
      vertex 41.964 107.616 10
      vertex 42.0837 107.798 10
    endloop
  endfacet
  facet normal -0 0 1
    outer loop
      vertex 35.1292 111.546 10
      vertex 35.8927 110.829 10
      vertex 36.1058 112.142 10
    endloop
  endfacet
  facet normal 0 -0 1
    outer loop
      vertex 41.3983 106.85 10
      vertex 41.964 107.616 10
      vertex 38.494 107.508 10
    endloop
  endfacet
  facet normal 0 0 1
    outer loop
      vertex 35.1292 111.546 10
      vertex 35.554 112.675 10
      vertex 35.289 112.698 10
    endloop
  endfacet
  facet normal 0 0 1
    outer loop
      vertex 36.1058 112.142 10
      vertex 35.554 112.675 10
      vertex 35.1292 111.546 10
    endloop
  endfacet
  facet normal 0 0 1
    outer loop
      vertex 41.3983 106.85 10
      vertex 38.494 107.508 10
      vertex 38.5394 107.414 10
    endloop
  endfacet
  facet normal -0 0 1
    outer loop
      vertex 36.1058 112.142 10
      vertex 35.8927 110.829 10
      vertex 36.3271 112.156 10
    endloop
  endfacet
  facet normal 0 0 1
    outer loop
      vertex 38.5394 107.414 10
      vertex 41.3523 106.766 10
      vertex 41.3983 106.85 10
    endloop
  endfacet
  facet normal 0 0 1
    outer loop
      vertex 38.5394 107.414 10
      vertex 39.3333 106.158 10
      vertex 41.3523 106.766 10
    endloop
  endfacet
  facet normal 0 0 1
    outer loop
      vertex 38.5394 107.414 10
      vertex 38.5749 107.032 10
      vertex 39.3333 106.158 10
    endloop
  endfacet
  facet normal -0 0 1
    outer loop
      vertex 39.3333 106.158 10
      vertex 40.9284 106.077 10
      vertex 41.3523 106.766 10
    endloop
  endfacet
  facet normal -0 -0 1
    outer loop
      vertex 39.5935 105.886 10
      vertex 39.6485 105.861 10
      vertex 39.3333 106.158 10
    endloop
  endfacet
  facet normal 0 0 1
    outer loop
      vertex 39.5935 105.886 10
      vertex 39.3333 106.158 10
      vertex 39.3448 105.977 10
    endloop
  endfacet
  facet normal 0 0 1
    outer loop
      vertex 39.5935 105.886 10
      vertex 39.3448 105.977 10
      vertex 39.3254 105.948 10
    endloop
  endfacet
  facet normal 0 -0 1
    outer loop
      vertex 39.6485 105.861 10
      vertex 40.9284 106.077 10
      vertex 39.3333 106.158 10
    endloop
  endfacet
  facet normal 0 0 1
    outer loop
      vertex 40.8436 105.907 10
      vertex 39.6485 105.861 10
      vertex 40.9548 104.907 10
    endloop
  endfacet
  facet normal 0 -0 1
    outer loop
      vertex 40.8436 105.907 10
      vertex 40.9284 106.077 10
      vertex 39.6485 105.861 10
    endloop
  endfacet
  facet normal 0.976164 0.217033 0
    outer loop
      vertex 40.8436 105.907 0
      vertex 41.0457 104.998 10
      vertex 41.0457 104.998 0
    endloop
  endfacet
  facet normal 0.976164 0.217033 -0
    outer loop
      vertex 40.8436 105.907 0
      vertex 40.8436 105.907 10
      vertex 41.0457 104.998 10
    endloop
  endfacet
  facet normal 0.894848 -0.446371 0
    outer loop
      vertex 40.9284 106.077 0
      vertex 40.8436 105.907 10
      vertex 40.8436 105.907 0
    endloop
  endfacet
  facet normal 0.894848 -0.446371 0
    outer loop
      vertex 40.9284 106.077 0
      vertex 40.9284 106.077 10
      vertex 40.8436 105.907 10
    endloop
  endfacet
  facet normal 0.409184 -0.912452 0
    outer loop
      vertex 41.2562 106.224 0
      vertex 40.9284 106.077 10
      vertex 40.9284 106.077 0
    endloop
  endfacet
  facet normal 0.409184 -0.912452 0
    outer loop
      vertex 41.2562 106.224 0
      vertex 41.2562 106.224 10
      vertex 40.9284 106.077 10
    endloop
  endfacet
  facet normal 0.984642 -0.174583 0
    outer loop
      vertex 41.3523 106.766 0
      vertex 41.2562 106.224 10
      vertex 41.2562 106.224 0
    endloop
  endfacet
  facet normal 0.984642 -0.174583 0
    outer loop
      vertex 41.3523 106.766 0
      vertex 41.3523 106.766 10
      vertex 41.2562 106.224 10
    endloop
  endfacet
  facet normal 0.877096 -0.480315 0
    outer loop
      vertex 41.3983 106.85 0
      vertex 41.3523 106.766 10
      vertex 41.3523 106.766 0
    endloop
  endfacet
  facet normal 0.877096 -0.480315 0
    outer loop
      vertex 41.3983 106.85 0
      vertex 41.3983 106.85 10
      vertex 41.3523 106.766 10
    endloop
  endfacet
  facet normal 0.67828 -0.734803 0
    outer loop
      vertex 41.7883 107.21 0
      vertex 41.3983 106.85 10
      vertex 41.3983 106.85 0
    endloop
  endfacet
  facet normal 0.67828 -0.734803 0
    outer loop
      vertex 41.7883 107.21 0
      vertex 41.7883 107.21 10
      vertex 41.3983 106.85 10
    endloop
  endfacet
  facet normal 0.170724 -0.985319 0
    outer loop
      vertex 41.9499 107.238 0
      vertex 41.7883 107.21 10
      vertex 41.7883 107.21 0
    endloop
  endfacet
  facet normal 0.170724 -0.985319 0
    outer loop
      vertex 41.9499 107.238 0
      vertex 41.9499 107.238 10
      vertex 41.7883 107.21 10
    endloop
  endfacet
  facet normal -0.404812 -0.9144 0
    outer loop
      vertex 42.0651 107.187 0
      vertex 41.9499 107.238 10
      vertex 41.9499 107.238 0
    endloop
  endfacet
  facet normal -0.404812 -0.9144 0
    outer loop
      vertex 42.0651 107.187 0
      vertex 42.0651 107.187 10
      vertex 41.9499 107.238 10
    endloop
  endfacet
  facet normal 0.973337 0.229381 0
    outer loop
      vertex 41.964 107.616 0
      vertex 42.0651 107.187 10
      vertex 42.0651 107.187 0
    endloop
  endfacet
  facet normal 0.973337 0.229381 -0
    outer loop
      vertex 41.964 107.616 0
      vertex 41.964 107.616 10
      vertex 42.0651 107.187 10
    endloop
  endfacet
  facet normal 0.835495 -0.549498 0
    outer loop
      vertex 42.0837 107.798 0
      vertex 41.964 107.616 10
      vertex 41.964 107.616 0
    endloop
  endfacet
  facet normal 0.835495 -0.549498 0
    outer loop
      vertex 42.0837 107.798 0
      vertex 42.0837 107.798 10
      vertex 41.964 107.616 10
    endloop
  endfacet
  facet normal 0.174942 -0.984579 0
    outer loop
      vertex 43.1474 107.987 0
      vertex 42.0837 107.798 10
      vertex 42.0837 107.798 0
    endloop
  endfacet
  facet normal 0.174942 -0.984579 0
    outer loop
      vertex 43.1474 107.987 0
      vertex 43.1474 107.987 10
      vertex 42.0837 107.798 10
    endloop
  endfacet
  facet normal 0.998175 -0.0603834 0
    outer loop
      vertex 43.1572 108.149 0
      vertex 43.1474 107.987 10
      vertex 43.1474 107.987 0
    endloop
  endfacet
  facet normal 0.998175 -0.0603834 0
    outer loop
      vertex 43.1572 108.149 0
      vertex 43.1572 108.149 10
      vertex 43.1474 107.987 10
    endloop
  endfacet
  facet normal 0.83205 0.5547 0
    outer loop
      vertex 42.6452 108.917 0
      vertex 43.1572 108.149 10
      vertex 43.1572 108.149 0
    endloop
  endfacet
  facet normal 0.83205 0.5547 -0
    outer loop
      vertex 42.6452 108.917 0
      vertex 42.6452 108.917 10
      vertex 43.1572 108.149 10
    endloop
  endfacet
  facet normal 0.943858 -0.33035 0
    outer loop
      vertex 42.7243 109.143 0
      vertex 42.6452 108.917 10
      vertex 42.6452 108.917 0
    endloop
  endfacet
  facet normal 0.943858 -0.33035 0
    outer loop
      vertex 42.7243 109.143 0
      vertex 42.7243 109.143 10
      vertex 42.6452 108.917 10
    endloop
  endfacet
  facet normal 0.304979 -0.952359 0
    outer loop
      vertex 43.2333 109.306 0
      vertex 42.7243 109.143 10
      vertex 42.7243 109.143 0
    endloop
  endfacet
  facet normal 0.304979 -0.952359 0
    outer loop
      vertex 43.2333 109.306 0
      vertex 43.2333 109.306 10
      vertex 42.7243 109.143 10
    endloop
  endfacet
  facet normal 0.689035 0.724728 0
    outer loop
      vertex 42.3866 110.111 0
      vertex 43.2333 109.306 10
      vertex 43.2333 109.306 0
    endloop
  endfacet
  facet normal 0.689035 0.724728 -0
    outer loop
      vertex 42.3866 110.111 0
      vertex 42.3866 110.111 10
      vertex 43.2333 109.306 10
    endloop
  endfacet
  facet normal 0.968189 0.25022 0
    outer loop
      vertex 42.3468 110.265 0
      vertex 42.3866 110.111 10
      vertex 42.3866 110.111 0
    endloop
  endfacet
  facet normal 0.968189 0.25022 -0
    outer loop
      vertex 42.3468 110.265 0
      vertex 42.3468 110.265 10
      vertex 42.3866 110.111 10
    endloop
  endfacet
  facet normal 0.954354 -0.298676 0
    outer loop
      vertex 42.7959 111.7 0
      vertex 42.3468 110.265 10
      vertex 42.3468 110.265 0
    endloop
  endfacet
  facet normal 0.954354 -0.298676 0
    outer loop
      vertex 42.7959 111.7 0
      vertex 42.7959 111.7 10
      vertex 42.3468 110.265 10
    endloop
  endfacet
  facet normal 0 1 0
    outer loop
      vertex 41.86 111.7 0
      vertex 42.7959 111.7 10
      vertex 42.7959 111.7 0
    endloop
  endfacet
  facet normal 0 1 0
    outer loop
      vertex 41.86 111.7 0
      vertex 41.86 111.7 10
      vertex 42.7959 111.7 10
    endloop
  endfacet
  facet normal 0.479144 0.877736 0
    outer loop
      vertex 41.7336 111.769 0
      vertex 41.86 111.7 10
      vertex 41.86 111.7 0
    endloop
  endfacet
  facet normal 0.479144 0.877736 -0
    outer loop
      vertex 41.7336 111.769 0
      vertex 41.7336 111.769 10
      vertex 41.86 111.7 10
    endloop
  endfacet
  facet normal 0.842535 0.538642 0
    outer loop
      vertex 41.3807 112.321 0
      vertex 41.7336 111.769 10
      vertex 41.7336 111.769 0
    endloop
  endfacet
  facet normal 0.842535 0.538642 -0
    outer loop
      vertex 41.3807 112.321 0
      vertex 41.3807 112.321 10
      vertex 41.7336 111.769 10
    endloop
  endfacet
  facet normal 0.140579 0.990069 0
    outer loop
      vertex 40.0144 112.515 0
      vertex 41.3807 112.321 10
      vertex 41.3807 112.321 0
    endloop
  endfacet
  facet normal 0.140579 0.990069 -0
    outer loop
      vertex 40.0144 112.515 0
      vertex 40.0144 112.515 10
      vertex 41.3807 112.321 10
    endloop
  endfacet
  facet normal -0.438808 0.898581 0
    outer loop
      vertex 39.6458 112.335 0
      vertex 40.0144 112.515 10
      vertex 40.0144 112.515 0
    endloop
  endfacet
  facet normal -0.438808 0.898581 0
    outer loop
      vertex 39.6458 112.335 0
      vertex 39.6458 112.335 10
      vertex 40.0144 112.515 10
    endloop
  endfacet
  facet normal 0.0961398 0.995368 0
    outer loop
      vertex 39.4905 112.35 0
      vertex 39.6458 112.335 10
      vertex 39.6458 112.335 0
    endloop
  endfacet
  facet normal 0.0961398 0.995368 -0
    outer loop
      vertex 39.4905 112.35 0
      vertex 39.4905 112.35 10
      vertex 39.6458 112.335 10
    endloop
  endfacet
  facet normal 0.595289 0.803512 0
    outer loop
      vertex 39.1787 112.581 0
      vertex 39.4905 112.35 10
      vertex 39.4905 112.35 0
    endloop
  endfacet
  facet normal 0.595289 0.803512 -0
    outer loop
      vertex 39.1787 112.581 0
      vertex 39.1787 112.581 10
      vertex 39.4905 112.35 10
    endloop
  endfacet
  facet normal 0.0258266 0.999666 0
    outer loop
      vertex 38.0562 112.61 0
      vertex 39.1787 112.581 10
      vertex 39.1787 112.581 0
    endloop
  endfacet
  facet normal 0.0258266 0.999666 -0
    outer loop
      vertex 38.0562 112.61 0
      vertex 38.0562 112.61 10
      vertex 39.1787 112.581 10
    endloop
  endfacet
  facet normal 0.317589 0.948229 0
    outer loop
      vertex 37.9726 112.638 0
      vertex 38.0562 112.61 10
      vertex 38.0562 112.61 0
    endloop
  endfacet
  facet normal 0.317589 0.948229 -0
    outer loop
      vertex 37.9726 112.638 0
      vertex 37.9726 112.638 10
      vertex 38.0562 112.61 10
    endloop
  endfacet
  facet normal 0.58261 0.812752 0
    outer loop
      vertex 37.6085 112.899 0
      vertex 37.9726 112.638 10
      vertex 37.9726 112.638 0
    endloop
  endfacet
  facet normal 0.58261 0.812752 -0
    outer loop
      vertex 37.6085 112.899 0
      vertex 37.6085 112.899 10
      vertex 37.9726 112.638 10
    endloop
  endfacet
  facet normal -0.653089 0.757281 0
    outer loop
      vertex 37.4079 112.726 0
      vertex 37.6085 112.899 10
      vertex 37.6085 112.899 0
    endloop
  endfacet
  facet normal -0.653089 0.757281 0
    outer loop
      vertex 37.4079 112.726 0
      vertex 37.4079 112.726 10
      vertex 37.6085 112.899 10
    endloop
  endfacet
  facet normal -0.295152 0.95545 0
    outer loop
      vertex 37.2946 112.691 0
      vertex 37.4079 112.726 10
      vertex 37.4079 112.726 0
    endloop
  endfacet
  facet normal -0.295152 0.95545 0
    outer loop
      vertex 37.2946 112.691 0
      vertex 37.2946 112.691 10
      vertex 37.4079 112.726 10
    endloop
  endfacet
  facet normal 0.101755 0.994809 0
    outer loop
      vertex 36.796 112.742 0
      vertex 37.2946 112.691 10
      vertex 37.2946 112.691 0
    endloop
  endfacet
  facet normal 0.101755 0.994809 -0
    outer loop
      vertex 36.796 112.742 0
      vertex 36.796 112.742 10
      vertex 37.2946 112.691 10
    endloop
  endfacet
  facet normal -0.780804 0.624776 0
    outer loop
      vertex 36.3271 112.156 0
      vertex 36.796 112.742 10
      vertex 36.796 112.742 0
    endloop
  endfacet
  facet normal -0.780804 0.624776 0
    outer loop
      vertex 36.3271 112.156 0
      vertex 36.3271 112.156 10
      vertex 36.796 112.742 10
    endloop
  endfacet
  facet normal -0.0631363 0.998005 0
    outer loop
      vertex 36.1058 112.142 0
      vertex 36.3271 112.156 10
      vertex 36.3271 112.156 0
    endloop
  endfacet
  facet normal -0.0631363 0.998005 0
    outer loop
      vertex 36.1058 112.142 0
      vertex 36.1058 112.142 10
      vertex 36.3271 112.156 10
    endloop
  endfacet
  facet normal 0.694748 0.719253 0
    outer loop
      vertex 35.554 112.675 0
      vertex 36.1058 112.142 10
      vertex 36.1058 112.142 0
    endloop
  endfacet
  facet normal 0.694748 0.719253 -0
    outer loop
      vertex 35.554 112.675 0
      vertex 35.554 112.675 10
      vertex 36.1058 112.142 10
    endloop
  endfacet
  facet normal 0.0864674 0.996255 0
    outer loop
      vertex 35.289 112.698 0
      vertex 35.554 112.675 10
      vertex 35.554 112.675 0
    endloop
  endfacet
  facet normal 0.0864674 0.996255 -0
    outer loop
      vertex 35.289 112.698 0
      vertex 35.289 112.698 10
      vertex 35.554 112.675 10
    endloop
  endfacet
  facet normal -0.990516 0.1374 0
    outer loop
      vertex 35.1292 111.546 0
      vertex 35.289 112.698 10
      vertex 35.289 112.698 0
    endloop
  endfacet
  facet normal -0.990516 0.1374 0
    outer loop
      vertex 35.1292 111.546 0
      vertex 35.1292 111.546 10
      vertex 35.289 112.698 10
    endloop
  endfacet
  facet normal -0.68456 -0.728956 0
    outer loop
      vertex 35.8927 110.829 0
      vertex 35.1292 111.546 10
      vertex 35.1292 111.546 0
    endloop
  endfacet
  facet normal -0.68456 -0.728956 0
    outer loop
      vertex 35.8927 110.829 0
      vertex 35.8927 110.829 10
      vertex 35.1292 111.546 10
    endloop
  endfacet
  facet normal -0.839082 -0.544005 0
    outer loop
      vertex 35.9316 110.769 0
      vertex 35.8927 110.829 10
      vertex 35.8927 110.829 0
    endloop
  endfacet
  facet normal -0.839082 -0.544005 0
    outer loop
      vertex 35.9316 110.769 0
      vertex 35.9316 110.769 10
      vertex 35.8927 110.829 10
    endloop
  endfacet
  facet normal -0.943957 -0.330069 0
    outer loop
      vertex 36.3498 109.573 0
      vertex 35.9316 110.769 10
      vertex 35.9316 110.769 0
    endloop
  endfacet
  facet normal -0.943957 -0.330069 0
    outer loop
      vertex 36.3498 109.573 0
      vertex 36.3498 109.573 10
      vertex 35.9316 110.769 10
    endloop
  endfacet
  facet normal -0.693679 -0.720284 0
    outer loop
      vertex 38.494 107.508 0
      vertex 36.3498 109.573 10
      vertex 36.3498 109.573 0
    endloop
  endfacet
  facet normal -0.693679 -0.720284 0
    outer loop
      vertex 38.494 107.508 0
      vertex 38.494 107.508 10
      vertex 36.3498 109.573 10
    endloop
  endfacet
  facet normal -0.900474 -0.43491 0
    outer loop
      vertex 38.5394 107.414 0
      vertex 38.494 107.508 10
      vertex 38.494 107.508 0
    endloop
  endfacet
  facet normal -0.900474 -0.43491 0
    outer loop
      vertex 38.5394 107.414 0
      vertex 38.5394 107.414 10
      vertex 38.494 107.508 10
    endloop
  endfacet
  facet normal -0.99571 -0.0925332 0
    outer loop
      vertex 38.5749 107.032 0
      vertex 38.5394 107.414 10
      vertex 38.5394 107.414 0
    endloop
  endfacet
  facet normal -0.99571 -0.0925332 0
    outer loop
      vertex 38.5749 107.032 0
      vertex 38.5749 107.032 10
      vertex 38.5394 107.414 10
    endloop
  endfacet
  facet normal -0.75529 -0.655391 0
    outer loop
      vertex 39.3333 106.158 0
      vertex 38.5749 107.032 10
      vertex 38.5749 107.032 0
    endloop
  endfacet
  facet normal -0.75529 -0.655391 0
    outer loop
      vertex 39.3333 106.158 0
      vertex 39.3333 106.158 10
      vertex 38.5749 107.032 10
    endloop
  endfacet
  facet normal -0.997988 -0.0634081 0
    outer loop
      vertex 39.3448 105.977 0
      vertex 39.3333 106.158 10
      vertex 39.3333 106.158 0
    endloop
  endfacet
  facet normal -0.997988 -0.0634081 0
    outer loop
      vertex 39.3448 105.977 0
      vertex 39.3448 105.977 10
      vertex 39.3333 106.158 10
    endloop
  endfacet
  facet normal -0.831167 0.556022 0
    outer loop
      vertex 39.3254 105.948 0
      vertex 39.3448 105.977 10
      vertex 39.3448 105.977 0
    endloop
  endfacet
  facet normal -0.831167 0.556022 0
    outer loop
      vertex 39.3254 105.948 0
      vertex 39.3254 105.948 10
      vertex 39.3448 105.977 10
    endloop
  endfacet
  facet normal -0.225311 -0.974287 0
    outer loop
      vertex 39.5935 105.886 0
      vertex 39.3254 105.948 10
      vertex 39.3254 105.948 0
    endloop
  endfacet
  facet normal -0.225311 -0.974287 0
    outer loop
      vertex 39.5935 105.886 0
      vertex 39.5935 105.886 10
      vertex 39.3254 105.948 10
    endloop
  endfacet
  facet normal -0.413803 -0.910366 0
    outer loop
      vertex 39.6485 105.861 0
      vertex 39.5935 105.886 10
      vertex 39.5935 105.886 0
    endloop
  endfacet
  facet normal -0.413803 -0.910366 0
    outer loop
      vertex 39.6485 105.861 0
      vertex 39.6485 105.861 10
      vertex 39.5935 105.886 10
    endloop
  endfacet
  facet normal -0.589773 -0.807569 0
    outer loop
      vertex 40.9548 104.907 0
      vertex 39.6485 105.861 10
      vertex 39.6485 105.861 0
    endloop
  endfacet
  facet normal -0.589773 -0.807569 0
    outer loop
      vertex 40.9548 104.907 0
      vertex 40.9548 104.907 10
      vertex 39.6485 105.861 10
    endloop
  endfacet
  facet normal 0.707495 -0.706718 0
    outer loop
      vertex 41.0457 104.998 0
      vertex 40.9548 104.907 10
      vertex 40.9548 104.907 0
    endloop
  endfacet
  facet normal 0.707495 -0.706718 0
    outer loop
      vertex 41.0457 104.998 0
      vertex 41.0457 104.998 10
      vertex 40.9548 104.907 10
    endloop
  endfacet
endsolid OpenSCAD_Model
