solid OpenSCAD_Model
  facet normal 0 0 -1
    outer loop
      vertex -141.546 -38.5098 10
      vertex -140.232 -38.5079 10
      vertex -140.437 -39.0048 10
    endloop
  endfacet
  facet normal 0 0 -1
    outer loop
      vertex -141.799 -38.9285 10
      vertex -141.546 -38.5098 10
      vertex -140.718 -39.4396 10
    endloop
  endfacet
  facet normal 0 -0 -1
    outer loop
      vertex -141.394 -37.9885 10
      vertex -140.232 -38.5079 10
      vertex -141.546 -38.5098 10
    endloop
  endfacet
  facet normal 0 -0 -1
    outer loop
      vertex -138.03 -39.4116 10
      vertex -134.826 -40.378 10
      vertex -139.281 -40.378 10
    endloop
  endfacet
  facet normal 0 0 -1
    outer loop
      vertex -141.394 -37.9885 10
      vertex -141.344 -37.3645 10
      vertex -140.109 -37.9612 10
    endloop
  endfacet
  facet normal -0 0 -1
    outer loop
      vertex -141.07 -39.8006 10
      vertex -141.492 -40.0877 10
      vertex -141.799 -38.9285 10
    endloop
  endfacet
  facet normal 0 0 -1
    outer loop
      vertex -140.068 -37.3645 10
      vertex -141.344 -37.3645 10
      vertex -141.395 -36.7667 10
    endloop
  endfacet
  facet normal 0 0 -1
    outer loop
      vertex -142.577 -39.4182 10
      vertex -142.146 -39.2346 10
      vertex -141.975 -40.296 10
    endloop
  endfacet
  facet normal 0 0 -1
    outer loop
      vertex -142.148 -35.5445 10
      vertex -142.576 -35.3615 10
      vertex -142.208 -34.4076 10
    endloop
  endfacet
  facet normal 0 0 -1
    outer loop
      vertex -141.801 -35.8494 10
      vertex -142.148 -35.5445 10
      vertex -141.468 -34.6789 10
    endloop
  endfacet
  facet normal 0 0 -1
    outer loop
      vertex -143.086 -34.3172 10
      vertex -143.603 -35.361 10
      vertex -143.963 -34.4067 10
    endloop
  endfacet
  facet normal -0 0 -1
    outer loop
      vertex -140.867 -35.131 10
      vertex -141.801 -35.8494 10
      vertex -141.468 -34.6789 10
    endloop
  endfacet
  facet normal 0 -0 -1
    outer loop
      vertex -144.788 -37.9737 10
      vertex -144.632 -38.49 10
      vertex -146.01 -38.2572 10
    endloop
  endfacet
  facet normal -0 -0 -1
    outer loop
      vertex -144.84 -37.3645 10
      vertex -144.788 -37.9737 10
      vertex -146.099 -37.3645 10
    endloop
  endfacet
  facet normal -0 0 -1
    outer loop
      vertex -144.789 -36.7625 10
      vertex -146.099 -37.3645 10
      vertex -146.01 -36.4769 10
    endloop
  endfacet
  facet normal 0 0 -1
    outer loop
      vertex -144.637 -36.256 10
      vertex -144.789 -36.7625 10
      vertex -146.01 -36.4769 10
    endloop
  endfacet
  facet normal 0 0 -1
    outer loop
      vertex -148.333 -35.8336 10
      vertex -148.419 -35.6429 10
      vertex -147.296 -35.0787 10
    endloop
  endfacet
  facet normal 0 -0 -1
    outer loop
      vertex -145.302 -35.1225 10
      vertex -144.637 -36.256 10
      vertex -145.745 -35.7295 10
    endloop
  endfacet
  facet normal 0 0 -1
    outer loop
      vertex -144.702 -34.6751 10
      vertex -144.035 -35.5426 10
      vertex -144.383 -35.8452 10
    endloop
  endfacet
  facet normal -0 0 -1
    outer loop
      vertex -148.186 -37.2374 10
      vertex -148.492 -37.8308 10
      vertex -148.992 -36.7931 10
    endloop
  endfacet
  facet normal -0 0 -1
    outer loop
      vertex -142.509 -40.421 10
      vertex -143.094 -40.4627 10
      vertex -143.094 -39.4795 10
    endloop
  endfacet
  facet normal 0 0 -1
    outer loop
      vertex -147.988 -38.8435 10
      vertex -146.703 -38.6741 10
      vertex -146.77 -39.1757 10
    endloop
  endfacet
  facet normal 0 0 -1
    outer loop
      vertex -145.3 -39.6341 10
      vertex -144.372 -38.9136 10
      vertex -144.7 -40.0945 10
    endloop
  endfacet
  facet normal 0 0 -1
    outer loop
      vertex -148.186 -37.2374 10
      vertex -147.741 -37.3257 10
      vertex -148.091 -38.1105 10
    endloop
  endfacet
  facet normal 0 0 -1
    outer loop
      vertex -143.965 -40.3706 10
      vertex -143.596 -39.4166 10
      vertex -143.094 -40.4627 10
    endloop
  endfacet
  facet normal 0 0 -1
    outer loop
      vertex -147.082 -37.693 10
      vertex -147.957 -38.5767 10
      vertex -148.091 -38.1105 10
    endloop
  endfacet
  facet normal 0 0 -1
    outer loop
      vertex -143.965 -40.3706 10
      vertex -144.022 -39.228 10
      vertex -143.596 -39.4166 10
    endloop
  endfacet
  facet normal -0 0 -1
    outer loop
      vertex -146.871 -37.9668 10
      vertex -147.957 -38.5767 10
      vertex -147.082 -37.693 10
    endloop
  endfacet
  facet normal 0 0 -1
    outer loop
      vertex -144.7 -40.0945 10
      vertex -144.022 -39.228 10
      vertex -143.965 -40.3706 10
    endloop
  endfacet
  facet normal -0 -0 -1
    outer loop
      vertex -143.094 -39.4795 10
      vertex -143.094 -40.4627 10
      vertex -143.596 -39.4166 10
    endloop
  endfacet
  facet normal 0 -0 -1
    outer loop
      vertex -140.867 -35.131 10
      vertex -140.423 -35.7408 10
      vertex -141.547 -36.2617 10
    endloop
  endfacet
  facet normal 0 0 -1
    outer loop
      vertex -145.744 -39.0137 10
      vertex -144.632 -38.49 10
      vertex -145.3 -39.6341 10
    endloop
  endfacet
  facet normal 0 0 -1
    outer loop
      vertex -144.7 -40.0945 10
      vertex -144.372 -38.9136 10
      vertex -144.022 -39.228 10
    endloop
  endfacet
  facet normal 0 0 -1
    outer loop
      vertex -145.3 -39.6341 10
      vertex -144.632 -38.49 10
      vertex -144.372 -38.9136 10
    endloop
  endfacet
  facet normal -0 0 -1
    outer loop
      vertex -144.632 -38.49 10
      vertex -145.744 -39.0137 10
      vertex -146.01 -38.2572 10
    endloop
  endfacet
  facet normal -0 0 -1
    outer loop
      vertex -144.788 -37.9737 10
      vertex -146.01 -38.2572 10
      vertex -146.099 -37.3645 10
    endloop
  endfacet
  facet normal 0 0 -1
    outer loop
      vertex -144.84 -37.3645 10
      vertex -146.099 -37.3645 10
      vertex -144.789 -36.7625 10
    endloop
  endfacet
  facet normal 0 -0 -1
    outer loop
      vertex -145.745 -35.7295 10
      vertex -144.637 -36.256 10
      vertex -146.01 -36.4769 10
    endloop
  endfacet
  facet normal 0 0 -1
    outer loop
      vertex -145.302 -35.1225 10
      vertex -144.383 -35.8452 10
      vertex -144.637 -36.256 10
    endloop
  endfacet
  facet normal 0 0 -1
    outer loop
      vertex -145.302 -35.1225 10
      vertex -144.702 -34.6751 10
      vertex -144.383 -35.8452 10
    endloop
  endfacet
  facet normal 0 0 -1
    outer loop
      vertex -144.702 -34.6751 10
      vertex -143.963 -34.4067 10
      vertex -144.035 -35.5426 10
    endloop
  endfacet
  facet normal -0 0 -1
    outer loop
      vertex -143.603 -35.361 10
      vertex -144.035 -35.5426 10
      vertex -143.963 -34.4067 10
    endloop
  endfacet
  facet normal 0 0 -1
    outer loop
      vertex -143.086 -35.3005 10
      vertex -143.086 -34.3172 10
      vertex -142.576 -35.3615 10
    endloop
  endfacet
  facet normal 0 0 -1
    outer loop
      vertex -143.603 -35.361 10
      vertex -143.086 -34.3172 10
      vertex -143.086 -35.3005 10
    endloop
  endfacet
  facet normal 0 0 -1
    outer loop
      vertex -142.576 -35.3615 10
      vertex -143.086 -34.3172 10
      vertex -142.208 -34.4076 10
    endloop
  endfacet
  facet normal 0 0 -1
    outer loop
      vertex -142.148 -35.5445 10
      vertex -142.208 -34.4076 10
      vertex -141.468 -34.6789 10
    endloop
  endfacet
  facet normal 0 0 -1
    outer loop
      vertex -140.867 -35.131 10
      vertex -141.547 -36.2617 10
      vertex -141.801 -35.8494 10
    endloop
  endfacet
  facet normal 0 0 -1
    outer loop
      vertex -141.547 -36.2617 10
      vertex -140.157 -36.4853 10
      vertex -141.395 -36.7667 10
    endloop
  endfacet
  facet normal 0 -0 -1
    outer loop
      vertex -140.423 -35.7408 10
      vertex -140.157 -36.4853 10
      vertex -141.547 -36.2617 10
    endloop
  endfacet
  facet normal 0 -0 -1
    outer loop
      vertex -140.157 -36.4853 10
      vertex -140.068 -37.3645 10
      vertex -141.395 -36.7667 10
    endloop
  endfacet
  facet normal -0 0 -1
    outer loop
      vertex -140.068 -37.3645 10
      vertex -140.109 -37.9612 10
      vertex -141.344 -37.3645 10
    endloop
  endfacet
  facet normal 0 0 -1
    outer loop
      vertex -140.109 -37.9612 10
      vertex -140.232 -38.5079 10
      vertex -141.394 -37.9885 10
    endloop
  endfacet
  facet normal -0 0 -1
    outer loop
      vertex -140.437 -39.0048 10
      vertex -140.718 -39.4396 10
      vertex -141.546 -38.5098 10
    endloop
  endfacet
  facet normal -0 0 -1
    outer loop
      vertex -140.718 -39.4396 10
      vertex -141.07 -39.8006 10
      vertex -141.799 -38.9285 10
    endloop
  endfacet
  facet normal 0 -0 -1
    outer loop
      vertex -141.799 -38.9285 10
      vertex -141.492 -40.0877 10
      vertex -142.146 -39.2346 10
    endloop
  endfacet
  facet normal 0 0 -1
    outer loop
      vertex -142.146 -39.2346 10
      vertex -141.492 -40.0877 10
      vertex -141.975 -40.296 10
    endloop
  endfacet
  facet normal 0 0 -1
    outer loop
      vertex -143.094 -39.4795 10
      vertex -142.577 -39.4182 10
      vertex -142.509 -40.421 10
    endloop
  endfacet
  facet normal 0 0 -1
    outer loop
      vertex -142.577 -39.4182 10
      vertex -141.975 -40.296 10
      vertex -142.509 -40.421 10
    endloop
  endfacet
  facet normal 0 -0 -1
    outer loop
      vertex -147.957 -38.5767 10
      vertex -146.703 -38.6741 10
      vertex -147.988 -38.8435 10
    endloop
  endfacet
  facet normal 0 0 -1
    outer loop
      vertex -148.091 -38.1105 10
      vertex -147.373 -37.4776 10
      vertex -147.082 -37.693 10
    endloop
  endfacet
  facet normal 0 0 -1
    outer loop
      vertex -148.091 -38.1105 10
      vertex -147.741 -37.3257 10
      vertex -147.373 -37.4776 10
    endloop
  endfacet
  facet normal 0 0 -1
    outer loop
      vertex -148.305 -36.0761 10
      vertex -147.046 -35.9066 10
      vertex -147.077 -36.228 10
    endloop
  endfacet
  facet normal 0 0 -1
    outer loop
      vertex -146.974 -39.5953 10
      vertex -147.988 -38.8435 10
      vertex -146.77 -39.1757 10
    endloop
  endfacet
  facet normal 0 -0 -1
    outer loop
      vertex -148.081 -39.0617 10
      vertex -147.313 -39.933 10
      vertex -148.235 -39.2315 10
    endloop
  endfacet
  facet normal 0 0 -1
    outer loop
      vertex -148.593 -34.4484 10
      vertex -148.76 -35.4098 10
      vertex -149.013 -35.3532 10
    endloop
  endfacet
  facet normal 0 0 -1
    outer loop
      vertex -148.333 -35.8336 10
      vertex -147.108 -35.4524 10
      vertex -147.046 -35.9066 10
    endloop
  endfacet
  facet normal 0 0 -1
    outer loop
      vertex -147.171 -36.5141 10
      vertex -148.305 -36.0761 10
      vertex -147.077 -36.228 10
    endloop
  endfacet
  facet normal 0 0 -1
    outer loop
      vertex -148.76 -35.4098 10
      vertex -148.593 -34.4484 10
      vertex -148.561 -35.504 10
    endloop
  endfacet
  facet normal 0 0 -1
    outer loop
      vertex -148.561 -35.504 10
      vertex -148.593 -34.4484 10
      vertex -148.041 -34.5748 10
    endloop
  endfacet
  facet normal 0 0 -1
    outer loop
      vertex -149.263 -34.4062 10
      vertex -148.593 -34.4484 10
      vertex -149.013 -35.3532 10
    endloop
  endfacet
  facet normal 0 0 -1
    outer loop
      vertex -149.322 -35.3344 10
      vertex -149.263 -34.4062 10
      vertex -149.013 -35.3532 10
    endloop
  endfacet
  facet normal 0 0 -1
    outer loop
      vertex -150.746 -36.8136 10
      vertex -151.996 -34.4062 10
      vertex -150.746 -35.3344 10
    endloop
  endfacet
  facet normal 0 0 -1
    outer loop
      vertex -151.996 -34.4062 10
      vertex -150.746 -36.8136 10
      vertex -150.746 -37.7375 10
    endloop
  endfacet
  facet normal 0 0 -1
    outer loop
      vertex -149.008 -40.378 10
      vertex -149.114 -39.4498 10
      vertex -148.749 -39.4255 10
    endloop
  endfacet
  facet normal 0 0 -1
    outer loop
      vertex -149.008 -40.378 10
      vertex -150.746 -39.4498 10
      vertex -149.114 -39.4498 10
    endloop
  endfacet
  facet normal -0 0 -1
    outer loop
      vertex -150.746 -37.7375 10
      vertex -151.996 -40.378 10
      vertex -151.996 -34.4062 10
    endloop
  endfacet
  facet normal 0 0 -1
    outer loop
      vertex -150.746 -35.3344 10
      vertex -151.996 -34.4062 10
      vertex -149.263 -34.4062 10
    endloop
  endfacet
  facet normal 0 0 -1
    outer loop
      vertex -149.322 -35.3344 10
      vertex -150.746 -35.3344 10
      vertex -149.263 -34.4062 10
    endloop
  endfacet
  facet normal 0 0 -1
    outer loop
      vertex -148.419 -35.6429 10
      vertex -148.561 -35.504 10
      vertex -148.041 -34.5748 10
    endloop
  endfacet
  facet normal 0 -0 -1
    outer loop
      vertex -147.608 -34.7856 10
      vertex -147.296 -35.0787 10
      vertex -148.419 -35.6429 10
    endloop
  endfacet
  facet normal -0 0 -1
    outer loop
      vertex -147.608 -34.7856 10
      vertex -148.419 -35.6429 10
      vertex -148.041 -34.5748 10
    endloop
  endfacet
  facet normal -0 0 -1
    outer loop
      vertex -147.108 -35.4524 10
      vertex -148.333 -35.8336 10
      vertex -147.296 -35.0787 10
    endloop
  endfacet
  facet normal 0 0 -1
    outer loop
      vertex -148.333 -35.8336 10
      vertex -147.046 -35.9066 10
      vertex -148.305 -36.0761 10
    endloop
  endfacet
  facet normal -0 0 -1
    outer loop
      vertex -147.171 -36.5141 10
      vertex -147.328 -36.7649 10
      vertex -148.331 -36.3014 10
    endloop
  endfacet
  facet normal 0 0 -1
    outer loop
      vertex -147.171 -36.5141 10
      vertex -148.331 -36.3014 10
      vertex -148.305 -36.0761 10
    endloop
  endfacet
  facet normal 0 -0 -1
    outer loop
      vertex -148.331 -36.3014 10
      vertex -147.548 -36.9727 10
      vertex -148.411 -36.4858 10
    endloop
  endfacet
  facet normal -0 0 -1
    outer loop
      vertex -147.328 -36.7649 10
      vertex -147.548 -36.9727 10
      vertex -148.331 -36.3014 10
    endloop
  endfacet
  facet normal -0 0 -1
    outer loop
      vertex -147.548 -36.9727 10
      vertex -147.835 -37.1303 10
      vertex -148.411 -36.4858 10
    endloop
  endfacet
  facet normal 0 0 -1
    outer loop
      vertex -148.411 -36.4858 10
      vertex -147.835 -37.1303 10
      vertex -148.186 -37.2374 10
    endloop
  endfacet
  facet normal 0 0 -1
    outer loop
      vertex -148.544 -36.6292 10
      vertex -148.411 -36.4858 10
      vertex -148.186 -37.2374 10
    endloop
  endfacet
  facet normal 0 0 -1
    outer loop
      vertex -148.736 -36.7317 10
      vertex -148.544 -36.6292 10
      vertex -148.186 -37.2374 10
    endloop
  endfacet
  facet normal 0 0 -1
    outer loop
      vertex -149.313 -36.8136 10
      vertex -148.992 -36.7931 10
      vertex -149.161 -37.7375 10
    endloop
  endfacet
  facet normal 0 0 -1
    outer loop
      vertex -148.992 -36.7931 10
      vertex -148.736 -36.7317 10
      vertex -148.186 -37.2374 10
    endloop
  endfacet
  facet normal 0 0 -1
    outer loop
      vertex -148.749 -39.4255 10
      vertex -148.456 -39.3528 10
      vertex -148.338 -40.3285 10
    endloop
  endfacet
  facet normal 0 0 -1
    outer loop
      vertex -150.746 -37.7375 10
      vertex -150.746 -36.8136 10
      vertex -149.313 -36.8136 10
    endloop
  endfacet
  facet normal 0 0 -1
    outer loop
      vertex -151.996 -40.378 10
      vertex -150.746 -39.4498 10
      vertex -149.008 -40.378 10
    endloop
  endfacet
  facet normal 0 0 -1
    outer loop
      vertex -151.996 -40.378 10
      vertex -150.746 -37.7375 10
      vertex -150.746 -39.4498 10
    endloop
  endfacet
  facet normal 0 0 -1
    outer loop
      vertex -148.492 -37.8308 10
      vertex -149.161 -37.7375 10
      vertex -148.992 -36.7931 10
    endloop
  endfacet
  facet normal 0 0 -1
    outer loop
      vertex -149.161 -37.7375 10
      vertex -150.746 -37.7375 10
      vertex -149.313 -36.8136 10
    endloop
  endfacet
  facet normal 0 0 -1
    outer loop
      vertex -148.091 -38.1105 10
      vertex -148.492 -37.8308 10
      vertex -148.186 -37.2374 10
    endloop
  endfacet
  facet normal 0 0 -1
    outer loop
      vertex -147.957 -38.5767 10
      vertex -146.745 -38.2939 10
      vertex -146.703 -38.6741 10
    endloop
  endfacet
  facet normal 0 -0 -1
    outer loop
      vertex -146.871 -37.9668 10
      vertex -146.745 -38.2939 10
      vertex -147.957 -38.5767 10
    endloop
  endfacet
  facet normal 0 0 -1
    outer loop
      vertex -146.974 -39.5953 10
      vertex -148.081 -39.0617 10
      vertex -147.988 -38.8435 10
    endloop
  endfacet
  facet normal 0 0 -1
    outer loop
      vertex -148.081 -39.0617 10
      vertex -146.974 -39.5953 10
      vertex -147.313 -39.933 10
    endloop
  endfacet
  facet normal 0 0 -1
    outer loop
      vertex -148.235 -39.2315 10
      vertex -147.313 -39.933 10
      vertex -147.773 -40.1802 10
    endloop
  endfacet
  facet normal 0 0 -1
    outer loop
      vertex -148.456 -39.3528 10
      vertex -148.235 -39.2315 10
      vertex -147.773 -40.1802 10
    endloop
  endfacet
  facet normal 0 0 -1
    outer loop
      vertex -148.338 -40.3285 10
      vertex -148.456 -39.3528 10
      vertex -147.773 -40.1802 10
    endloop
  endfacet
  facet normal 0 0 -1
    outer loop
      vertex -149.008 -40.378 10
      vertex -148.749 -39.4255 10
      vertex -148.338 -40.3285 10
    endloop
  endfacet
  facet normal 0 0 -1
    outer loop
      vertex -138.03 -39.4116 10
      vertex -134.826 -39.4116 10
      vertex -134.826 -40.378 10
    endloop
  endfacet
  facet normal -0 -0 -1
    outer loop
      vertex -138.03 -34.4062 10
      vertex -138.03 -39.4116 10
      vertex -139.281 -34.4062 10
    endloop
  endfacet
  facet normal -0 0 -1
    outer loop
      vertex -138.03 -39.4116 10
      vertex -139.281 -40.378 10
      vertex -139.281 -34.4062 10
    endloop
  endfacet
  facet normal 0 -0 1
    outer loop
      vertex -140.437 -39.0048 10.8
      vertex -140.232 -38.5079 10.8
      vertex -141.546 -38.5098 10.8
    endloop
  endfacet
  facet normal 0 0 1
    outer loop
      vertex -140.718 -39.4396 10.8
      vertex -141.546 -38.5098 10.8
      vertex -141.799 -38.9285 10.8
    endloop
  endfacet
  facet normal 0 0 1
    outer loop
      vertex -141.546 -38.5098 10.8
      vertex -140.232 -38.5079 10.8
      vertex -141.394 -37.9885 10.8
    endloop
  endfacet
  facet normal 0 0 1
    outer loop
      vertex -139.281 -40.378 10.8
      vertex -134.826 -40.378 10.8
      vertex -138.03 -39.4116 10.8
    endloop
  endfacet
  facet normal 0 0 1
    outer loop
      vertex -140.109 -37.9612 10.8
      vertex -141.344 -37.3645 10.8
      vertex -141.394 -37.9885 10.8
    endloop
  endfacet
  facet normal 0 0 1
    outer loop
      vertex -141.799 -38.9285 10.8
      vertex -141.492 -40.0877 10.8
      vertex -141.07 -39.8006 10.8
    endloop
  endfacet
  facet normal 0 0 1
    outer loop
      vertex -141.395 -36.7667 10.8
      vertex -141.344 -37.3645 10.8
      vertex -140.068 -37.3645 10.8
    endloop
  endfacet
  facet normal 0 0 1
    outer loop
      vertex -141.975 -40.296 10.8
      vertex -142.146 -39.2346 10.8
      vertex -142.577 -39.4182 10.8
    endloop
  endfacet
  facet normal 0 0 1
    outer loop
      vertex -142.208 -34.4076 10.8
      vertex -142.576 -35.3615 10.8
      vertex -142.148 -35.5445 10.8
    endloop
  endfacet
  facet normal 0 0 1
    outer loop
      vertex -141.468 -34.6789 10.8
      vertex -142.148 -35.5445 10.8
      vertex -141.801 -35.8494 10.8
    endloop
  endfacet
  facet normal -0 0 1
    outer loop
      vertex -143.963 -34.4067 10.8
      vertex -143.603 -35.361 10.8
      vertex -143.086 -34.3172 10.8
    endloop
  endfacet
  facet normal 0 0 1
    outer loop
      vertex -141.468 -34.6789 10.8
      vertex -141.801 -35.8494 10.8
      vertex -140.867 -35.131 10.8
    endloop
  endfacet
  facet normal -0 0 1
    outer loop
      vertex -146.01 -38.2572 10.8
      vertex -144.632 -38.49 10.8
      vertex -144.788 -37.9737 10.8
    endloop
  endfacet
  facet normal -0 0 1
    outer loop
      vertex -146.099 -37.3645 10.8
      vertex -144.788 -37.9737 10.8
      vertex -144.84 -37.3645 10.8
    endloop
  endfacet
  facet normal 0 0 1
    outer loop
      vertex -146.01 -36.4769 10.8
      vertex -146.099 -37.3645 10.8
      vertex -144.789 -36.7625 10.8
    endloop
  endfacet
  facet normal -0 0 1
    outer loop
      vertex -146.01 -36.4769 10.8
      vertex -144.789 -36.7625 10.8
      vertex -144.637 -36.256 10.8
    endloop
  endfacet
  facet normal 0 0 1
    outer loop
      vertex -147.296 -35.0787 10.8
      vertex -148.419 -35.6429 10.8
      vertex -148.333 -35.8336 10.8
    endloop
  endfacet
  facet normal -0 0 1
    outer loop
      vertex -145.745 -35.7295 10.8
      vertex -144.637 -36.256 10.8
      vertex -145.302 -35.1225 10.8
    endloop
  endfacet
  facet normal 0 -0 1
    outer loop
      vertex -144.383 -35.8452 10.8
      vertex -144.035 -35.5426 10.8
      vertex -144.702 -34.6751 10.8
    endloop
  endfacet
  facet normal 0 0 1
    outer loop
      vertex -148.992 -36.7931 10.8
      vertex -148.492 -37.8308 10.8
      vertex -148.186 -37.2374 10.8
    endloop
  endfacet
  facet normal 0 0 1
    outer loop
      vertex -143.094 -39.4795 10.8
      vertex -143.094 -40.4627 10.8
      vertex -142.509 -40.421 10.8
    endloop
  endfacet
  facet normal 0 -0 1
    outer loop
      vertex -146.77 -39.1757 10.8
      vertex -146.703 -38.6741 10.8
      vertex -147.988 -38.8435 10.8
    endloop
  endfacet
  facet normal 0 -0 1
    outer loop
      vertex -144.7 -40.0945 10.8
      vertex -144.372 -38.9136 10.8
      vertex -145.3 -39.6341 10.8
    endloop
  endfacet
  facet normal 0 -0 1
    outer loop
      vertex -148.091 -38.1105 10.8
      vertex -147.741 -37.3257 10.8
      vertex -148.186 -37.2374 10.8
    endloop
  endfacet
  facet normal 0 0 1
    outer loop
      vertex -143.094 -40.4627 10.8
      vertex -143.596 -39.4166 10.8
      vertex -143.965 -40.3706 10.8
    endloop
  endfacet
  facet normal -0 0 1
    outer loop
      vertex -148.091 -38.1105 10.8
      vertex -147.957 -38.5767 10.8
      vertex -147.082 -37.693 10.8
    endloop
  endfacet
  facet normal 0 0 1
    outer loop
      vertex -143.596 -39.4166 10.8
      vertex -144.022 -39.228 10.8
      vertex -143.965 -40.3706 10.8
    endloop
  endfacet
  facet normal 0 0 1
    outer loop
      vertex -147.082 -37.693 10.8
      vertex -147.957 -38.5767 10.8
      vertex -146.871 -37.9668 10.8
    endloop
  endfacet
  facet normal 0 0 1
    outer loop
      vertex -143.965 -40.3706 10.8
      vertex -144.022 -39.228 10.8
      vertex -144.7 -40.0945 10.8
    endloop
  endfacet
  facet normal 0 0 1
    outer loop
      vertex -143.596 -39.4166 10.8
      vertex -143.094 -40.4627 10.8
      vertex -143.094 -39.4795 10.8
    endloop
  endfacet
  facet normal 0 0 1
    outer loop
      vertex -141.547 -36.2617 10.8
      vertex -140.423 -35.7408 10.8
      vertex -140.867 -35.131 10.8
    endloop
  endfacet
  facet normal 0 -0 1
    outer loop
      vertex -145.3 -39.6341 10.8
      vertex -144.632 -38.49 10.8
      vertex -145.744 -39.0137 10.8
    endloop
  endfacet
  facet normal 0 0 1
    outer loop
      vertex -144.022 -39.228 10.8
      vertex -144.372 -38.9136 10.8
      vertex -144.7 -40.0945 10.8
    endloop
  endfacet
  facet normal 0 0 1
    outer loop
      vertex -144.372 -38.9136 10.8
      vertex -144.632 -38.49 10.8
      vertex -145.3 -39.6341 10.8
    endloop
  endfacet
  facet normal 0 0 1
    outer loop
      vertex -146.01 -38.2572 10.8
      vertex -145.744 -39.0137 10.8
      vertex -144.632 -38.49 10.8
    endloop
  endfacet
  facet normal 0 0 1
    outer loop
      vertex -146.099 -37.3645 10.8
      vertex -146.01 -38.2572 10.8
      vertex -144.788 -37.9737 10.8
    endloop
  endfacet
  facet normal 0 0 1
    outer loop
      vertex -144.789 -36.7625 10.8
      vertex -146.099 -37.3645 10.8
      vertex -144.84 -37.3645 10.8
    endloop
  endfacet
  facet normal 0 0 1
    outer loop
      vertex -146.01 -36.4769 10.8
      vertex -144.637 -36.256 10.8
      vertex -145.745 -35.7295 10.8
    endloop
  endfacet
  facet normal 0 -0 1
    outer loop
      vertex -144.637 -36.256 10.8
      vertex -144.383 -35.8452 10.8
      vertex -145.302 -35.1225 10.8
    endloop
  endfacet
  facet normal 0 0 1
    outer loop
      vertex -144.383 -35.8452 10.8
      vertex -144.702 -34.6751 10.8
      vertex -145.302 -35.1225 10.8
    endloop
  endfacet
  facet normal 0 -0 1
    outer loop
      vertex -144.035 -35.5426 10.8
      vertex -143.963 -34.4067 10.8
      vertex -144.702 -34.6751 10.8
    endloop
  endfacet
  facet normal 0 0 1
    outer loop
      vertex -143.963 -34.4067 10.8
      vertex -144.035 -35.5426 10.8
      vertex -143.603 -35.361 10.8
    endloop
  endfacet
  facet normal 0 0 1
    outer loop
      vertex -142.576 -35.3615 10.8
      vertex -143.086 -34.3172 10.8
      vertex -143.086 -35.3005 10.8
    endloop
  endfacet
  facet normal 0 -0 1
    outer loop
      vertex -143.086 -35.3005 10.8
      vertex -143.086 -34.3172 10.8
      vertex -143.603 -35.361 10.8
    endloop
  endfacet
  facet normal 0 0 1
    outer loop
      vertex -142.208 -34.4076 10.8
      vertex -143.086 -34.3172 10.8
      vertex -142.576 -35.3615 10.8
    endloop
  endfacet
  facet normal 0 0 1
    outer loop
      vertex -141.468 -34.6789 10.8
      vertex -142.208 -34.4076 10.8
      vertex -142.148 -35.5445 10.8
    endloop
  endfacet
  facet normal -0 0 1
    outer loop
      vertex -141.801 -35.8494 10.8
      vertex -141.547 -36.2617 10.8
      vertex -140.867 -35.131 10.8
    endloop
  endfacet
  facet normal 0 -0 1
    outer loop
      vertex -141.395 -36.7667 10.8
      vertex -140.157 -36.4853 10.8
      vertex -141.547 -36.2617 10.8
    endloop
  endfacet
  facet normal -0 0 1
    outer loop
      vertex -141.547 -36.2617 10.8
      vertex -140.157 -36.4853 10.8
      vertex -140.423 -35.7408 10.8
    endloop
  endfacet
  facet normal -0 0 1
    outer loop
      vertex -141.395 -36.7667 10.8
      vertex -140.068 -37.3645 10.8
      vertex -140.157 -36.4853 10.8
    endloop
  endfacet
  facet normal -0 0 1
    outer loop
      vertex -141.344 -37.3645 10.8
      vertex -140.109 -37.9612 10.8
      vertex -140.068 -37.3645 10.8
    endloop
  endfacet
  facet normal -0 0 1
    outer loop
      vertex -141.394 -37.9885 10.8
      vertex -140.232 -38.5079 10.8
      vertex -140.109 -37.9612 10.8
    endloop
  endfacet
  facet normal 0 0 1
    outer loop
      vertex -141.546 -38.5098 10.8
      vertex -140.718 -39.4396 10.8
      vertex -140.437 -39.0048 10.8
    endloop
  endfacet
  facet normal 0 0 1
    outer loop
      vertex -141.799 -38.9285 10.8
      vertex -141.07 -39.8006 10.8
      vertex -140.718 -39.4396 10.8
    endloop
  endfacet
  facet normal -0 0 1
    outer loop
      vertex -142.146 -39.2346 10.8
      vertex -141.492 -40.0877 10.8
      vertex -141.799 -38.9285 10.8
    endloop
  endfacet
  facet normal 0 -0 1
    outer loop
      vertex -141.975 -40.296 10.8
      vertex -141.492 -40.0877 10.8
      vertex -142.146 -39.2346 10.8
    endloop
  endfacet
  facet normal 0 0 1
    outer loop
      vertex -142.509 -40.421 10.8
      vertex -142.577 -39.4182 10.8
      vertex -143.094 -39.4795 10.8
    endloop
  endfacet
  facet normal 0 -0 1
    outer loop
      vertex -142.509 -40.421 10.8
      vertex -141.975 -40.296 10.8
      vertex -142.577 -39.4182 10.8
    endloop
  endfacet
  facet normal 0 0 1
    outer loop
      vertex -147.988 -38.8435 10.8
      vertex -146.703 -38.6741 10.8
      vertex -147.957 -38.5767 10.8
    endloop
  endfacet
  facet normal 0 0 1
    outer loop
      vertex -147.082 -37.693 10.8
      vertex -147.373 -37.4776 10.8
      vertex -148.091 -38.1105 10.8
    endloop
  endfacet
  facet normal 0 0 1
    outer loop
      vertex -147.373 -37.4776 10.8
      vertex -147.741 -37.3257 10.8
      vertex -148.091 -38.1105 10.8
    endloop
  endfacet
  facet normal 0 -0 1
    outer loop
      vertex -147.077 -36.228 10.8
      vertex -147.046 -35.9066 10.8
      vertex -148.305 -36.0761 10.8
    endloop
  endfacet
  facet normal 0 0 1
    outer loop
      vertex -146.77 -39.1757 10.8
      vertex -147.988 -38.8435 10.8
      vertex -146.974 -39.5953 10.8
    endloop
  endfacet
  facet normal -0 0 1
    outer loop
      vertex -148.235 -39.2315 10.8
      vertex -147.313 -39.933 10.8
      vertex -148.081 -39.0617 10.8
    endloop
  endfacet
  facet normal -0 0 1
    outer loop
      vertex -149.013 -35.3532 10.8
      vertex -148.76 -35.4098 10.8
      vertex -148.593 -34.4484 10.8
    endloop
  endfacet
  facet normal 0 0 1
    outer loop
      vertex -147.046 -35.9066 10.8
      vertex -147.108 -35.4524 10.8
      vertex -148.333 -35.8336 10.8
    endloop
  endfacet
  facet normal 0 0 1
    outer loop
      vertex -147.077 -36.228 10.8
      vertex -148.305 -36.0761 10.8
      vertex -147.171 -36.5141 10.8
    endloop
  endfacet
  facet normal 0 0 1
    outer loop
      vertex -148.561 -35.504 10.8
      vertex -148.593 -34.4484 10.8
      vertex -148.76 -35.4098 10.8
    endloop
  endfacet
  facet normal 0 0 1
    outer loop
      vertex -148.041 -34.5748 10.8
      vertex -148.593 -34.4484 10.8
      vertex -148.561 -35.504 10.8
    endloop
  endfacet
  facet normal 0 -0 1
    outer loop
      vertex -149.013 -35.3532 10.8
      vertex -148.593 -34.4484 10.8
      vertex -149.263 -34.4062 10.8
    endloop
  endfacet
  facet normal 0 0 1
    outer loop
      vertex -149.013 -35.3532 10.8
      vertex -149.263 -34.4062 10.8
      vertex -149.322 -35.3344 10.8
    endloop
  endfacet
  facet normal 0 0 1
    outer loop
      vertex -150.746 -35.3344 10.8
      vertex -151.996 -34.4062 10.8
      vertex -150.746 -36.8136 10.8
    endloop
  endfacet
  facet normal 0 -0 1
    outer loop
      vertex -150.746 -37.7375 10.8
      vertex -150.746 -36.8136 10.8
      vertex -151.996 -34.4062 10.8
    endloop
  endfacet
  facet normal 0 0 1
    outer loop
      vertex -148.749 -39.4255 10.8
      vertex -149.114 -39.4498 10.8
      vertex -149.008 -40.378 10.8
    endloop
  endfacet
  facet normal 0 0 1
    outer loop
      vertex -149.114 -39.4498 10.8
      vertex -150.746 -39.4498 10.8
      vertex -149.008 -40.378 10.8
    endloop
  endfacet
  facet normal 0 0 1
    outer loop
      vertex -151.996 -34.4062 10.8
      vertex -151.996 -40.378 10.8
      vertex -150.746 -37.7375 10.8
    endloop
  endfacet
  facet normal 0 0 1
    outer loop
      vertex -149.263 -34.4062 10.8
      vertex -151.996 -34.4062 10.8
      vertex -150.746 -35.3344 10.8
    endloop
  endfacet
  facet normal 0 0 1
    outer loop
      vertex -149.263 -34.4062 10.8
      vertex -150.746 -35.3344 10.8
      vertex -149.322 -35.3344 10.8
    endloop
  endfacet
  facet normal 0 0 1
    outer loop
      vertex -148.041 -34.5748 10.8
      vertex -148.561 -35.504 10.8
      vertex -148.419 -35.6429 10.8
    endloop
  endfacet
  facet normal 0 0 1
    outer loop
      vertex -148.419 -35.6429 10.8
      vertex -147.296 -35.0787 10.8
      vertex -147.608 -34.7856 10.8
    endloop
  endfacet
  facet normal 0 0 1
    outer loop
      vertex -148.041 -34.5748 10.8
      vertex -148.419 -35.6429 10.8
      vertex -147.608 -34.7856 10.8
    endloop
  endfacet
  facet normal 0 0 1
    outer loop
      vertex -147.296 -35.0787 10.8
      vertex -148.333 -35.8336 10.8
      vertex -147.108 -35.4524 10.8
    endloop
  endfacet
  facet normal 0 -0 1
    outer loop
      vertex -148.305 -36.0761 10.8
      vertex -147.046 -35.9066 10.8
      vertex -148.333 -35.8336 10.8
    endloop
  endfacet
  facet normal 0 0 1
    outer loop
      vertex -148.331 -36.3014 10.8
      vertex -147.328 -36.7649 10.8
      vertex -147.171 -36.5141 10.8
    endloop
  endfacet
  facet normal 0 0 1
    outer loop
      vertex -148.305 -36.0761 10.8
      vertex -148.331 -36.3014 10.8
      vertex -147.171 -36.5141 10.8
    endloop
  endfacet
  facet normal -0 0 1
    outer loop
      vertex -148.411 -36.4858 10.8
      vertex -147.548 -36.9727 10.8
      vertex -148.331 -36.3014 10.8
    endloop
  endfacet
  facet normal 0 0 1
    outer loop
      vertex -148.331 -36.3014 10.8
      vertex -147.548 -36.9727 10.8
      vertex -147.328 -36.7649 10.8
    endloop
  endfacet
  facet normal 0 0 1
    outer loop
      vertex -148.411 -36.4858 10.8
      vertex -147.835 -37.1303 10.8
      vertex -147.548 -36.9727 10.8
    endloop
  endfacet
  facet normal 0 -0 1
    outer loop
      vertex -148.186 -37.2374 10.8
      vertex -147.835 -37.1303 10.8
      vertex -148.411 -36.4858 10.8
    endloop
  endfacet
  facet normal 0 0 1
    outer loop
      vertex -148.186 -37.2374 10.8
      vertex -148.411 -36.4858 10.8
      vertex -148.544 -36.6292 10.8
    endloop
  endfacet
  facet normal 0 0 1
    outer loop
      vertex -148.186 -37.2374 10.8
      vertex -148.544 -36.6292 10.8
      vertex -148.736 -36.7317 10.8
    endloop
  endfacet
  facet normal 0 -0 1
    outer loop
      vertex -149.161 -37.7375 10.8
      vertex -148.992 -36.7931 10.8
      vertex -149.313 -36.8136 10.8
    endloop
  endfacet
  facet normal 0 0 1
    outer loop
      vertex -148.186 -37.2374 10.8
      vertex -148.736 -36.7317 10.8
      vertex -148.992 -36.7931 10.8
    endloop
  endfacet
  facet normal 0 0 1
    outer loop
      vertex -148.338 -40.3285 10.8
      vertex -148.456 -39.3528 10.8
      vertex -148.749 -39.4255 10.8
    endloop
  endfacet
  facet normal 0 0 1
    outer loop
      vertex -149.313 -36.8136 10.8
      vertex -150.746 -36.8136 10.8
      vertex -150.746 -37.7375 10.8
    endloop
  endfacet
  facet normal 0 0 1
    outer loop
      vertex -149.008 -40.378 10.8
      vertex -150.746 -39.4498 10.8
      vertex -151.996 -40.378 10.8
    endloop
  endfacet
  facet normal 0 -0 1
    outer loop
      vertex -150.746 -39.4498 10.8
      vertex -150.746 -37.7375 10.8
      vertex -151.996 -40.378 10.8
    endloop
  endfacet
  facet normal 0 0 1
    outer loop
      vertex -148.992 -36.7931 10.8
      vertex -149.161 -37.7375 10.8
      vertex -148.492 -37.8308 10.8
    endloop
  endfacet
  facet normal 0 0 1
    outer loop
      vertex -149.313 -36.8136 10.8
      vertex -150.746 -37.7375 10.8
      vertex -149.161 -37.7375 10.8
    endloop
  endfacet
  facet normal 0 0 1
    outer loop
      vertex -148.186 -37.2374 10.8
      vertex -148.492 -37.8308 10.8
      vertex -148.091 -38.1105 10.8
    endloop
  endfacet
  facet normal 0 0 1
    outer loop
      vertex -146.703 -38.6741 10.8
      vertex -146.745 -38.2939 10.8
      vertex -147.957 -38.5767 10.8
    endloop
  endfacet
  facet normal 0 0 1
    outer loop
      vertex -147.957 -38.5767 10.8
      vertex -146.745 -38.2939 10.8
      vertex -146.871 -37.9668 10.8
    endloop
  endfacet
  facet normal 0 0 1
    outer loop
      vertex -147.988 -38.8435 10.8
      vertex -148.081 -39.0617 10.8
      vertex -146.974 -39.5953 10.8
    endloop
  endfacet
  facet normal 0 -0 1
    outer loop
      vertex -147.313 -39.933 10.8
      vertex -146.974 -39.5953 10.8
      vertex -148.081 -39.0617 10.8
    endloop
  endfacet
  facet normal 0 -0 1
    outer loop
      vertex -147.773 -40.1802 10.8
      vertex -147.313 -39.933 10.8
      vertex -148.235 -39.2315 10.8
    endloop
  endfacet
  facet normal 0 0 1
    outer loop
      vertex -147.773 -40.1802 10.8
      vertex -148.235 -39.2315 10.8
      vertex -148.456 -39.3528 10.8
    endloop
  endfacet
  facet normal 0 0 1
    outer loop
      vertex -147.773 -40.1802 10.8
      vertex -148.456 -39.3528 10.8
      vertex -148.338 -40.3285 10.8
    endloop
  endfacet
  facet normal 0 0 1
    outer loop
      vertex -148.338 -40.3285 10.8
      vertex -148.749 -39.4255 10.8
      vertex -149.008 -40.378 10.8
    endloop
  endfacet
  facet normal 0 -0 1
    outer loop
      vertex -134.826 -40.378 10.8
      vertex -134.826 -39.4116 10.8
      vertex -138.03 -39.4116 10.8
    endloop
  endfacet
  facet normal -0 0 1
    outer loop
      vertex -139.281 -34.4062 10.8
      vertex -138.03 -39.4116 10.8
      vertex -138.03 -34.4062 10.8
    endloop
  endfacet
  facet normal 0 0 1
    outer loop
      vertex -139.281 -34.4062 10.8
      vertex -139.281 -40.378 10.8
      vertex -138.03 -39.4116 10.8
    endloop
  endfacet
  facet normal 0.227921 -0.97368 0
    outer loop
      vertex -141.975 -40.296 10
      vertex -142.509 -40.421 10.8
      vertex -142.509 -40.421 10
    endloop
  endfacet
  facet normal 0.227921 -0.97368 0
    outer loop
      vertex -141.975 -40.296 10
      vertex -141.975 -40.296 10.8
      vertex -142.509 -40.421 10.8
    endloop
  endfacet
  facet normal 0.396006 -0.918248 0
    outer loop
      vertex -141.492 -40.0877 10
      vertex -141.975 -40.296 10.8
      vertex -141.975 -40.296 10
    endloop
  endfacet
  facet normal 0.396006 -0.918248 0
    outer loop
      vertex -141.492 -40.0877 10
      vertex -141.492 -40.0877 10.8
      vertex -141.975 -40.296 10.8
    endloop
  endfacet
  facet normal 0.562498 -0.826799 0
    outer loop
      vertex -141.07 -39.8006 10
      vertex -141.492 -40.0877 10.8
      vertex -141.492 -40.0877 10
    endloop
  endfacet
  facet normal 0.562498 -0.826799 0
    outer loop
      vertex -141.07 -39.8006 10
      vertex -141.07 -39.8006 10.8
      vertex -141.492 -40.0877 10.8
    endloop
  endfacet
  facet normal 0.715975 -0.698126 0
    outer loop
      vertex -140.718 -39.4396 10
      vertex -141.07 -39.8006 10.8
      vertex -141.07 -39.8006 10
    endloop
  endfacet
  facet normal 0.715975 -0.698126 0
    outer loop
      vertex -140.718 -39.4396 10
      vertex -140.718 -39.4396 10.8
      vertex -141.07 -39.8006 10.8
    endloop
  endfacet
  facet normal 0.839871 -0.542787 0
    outer loop
      vertex -140.437 -39.0048 10
      vertex -140.718 -39.4396 10.8
      vertex -140.718 -39.4396 10
    endloop
  endfacet
  facet normal 0.839871 -0.542787 0
    outer loop
      vertex -140.437 -39.0048 10
      vertex -140.437 -39.0048 10.8
      vertex -140.718 -39.4396 10.8
    endloop
  endfacet
  facet normal 0.92442 -0.381377 0
    outer loop
      vertex -140.232 -38.5079 10
      vertex -140.437 -39.0048 10.8
      vertex -140.437 -39.0048 10
    endloop
  endfacet
  facet normal 0.92442 -0.381377 0
    outer loop
      vertex -140.232 -38.5079 10
      vertex -140.232 -38.5079 10.8
      vertex -140.437 -39.0048 10.8
    endloop
  endfacet
  facet normal 0.975613 -0.219499 0
    outer loop
      vertex -140.109 -37.9612 10
      vertex -140.232 -38.5079 10.8
      vertex -140.232 -38.5079 10
    endloop
  endfacet
  facet normal 0.975613 -0.219499 0
    outer loop
      vertex -140.109 -37.9612 10
      vertex -140.109 -37.9612 10.8
      vertex -140.232 -38.5079 10.8
    endloop
  endfacet
  facet normal 0.997648 -0.0685496 0
    outer loop
      vertex -140.068 -37.3645 10
      vertex -140.109 -37.9612 10.8
      vertex -140.109 -37.9612 10
    endloop
  endfacet
  facet normal 0.997648 -0.0685496 0
    outer loop
      vertex -140.068 -37.3645 10
      vertex -140.068 -37.3645 10.8
      vertex -140.109 -37.9612 10.8
    endloop
  endfacet
  facet normal 0.994915 0.100714 0
    outer loop
      vertex -140.157 -36.4853 10
      vertex -140.068 -37.3645 10.8
      vertex -140.068 -37.3645 10
    endloop
  endfacet
  facet normal 0.994915 0.100714 -0
    outer loop
      vertex -140.157 -36.4853 10
      vertex -140.157 -36.4853 10.8
      vertex -140.068 -37.3645 10.8
    endloop
  endfacet
  facet normal 0.941699 0.336457 0
    outer loop
      vertex -140.423 -35.7408 10
      vertex -140.157 -36.4853 10.8
      vertex -140.157 -36.4853 10
    endloop
  endfacet
  facet normal 0.941699 0.336457 -0
    outer loop
      vertex -140.423 -35.7408 10
      vertex -140.423 -35.7408 10.8
      vertex -140.157 -36.4853 10.8
    endloop
  endfacet
  facet normal 0.808415 0.588613 0
    outer loop
      vertex -140.867 -35.131 10
      vertex -140.423 -35.7408 10.8
      vertex -140.423 -35.7408 10
    endloop
  endfacet
  facet normal 0.808415 0.588613 -0
    outer loop
      vertex -140.867 -35.131 10
      vertex -140.867 -35.131 10.8
      vertex -140.423 -35.7408 10.8
    endloop
  endfacet
  facet normal 0.601148 0.799138 0
    outer loop
      vertex -141.468 -34.6789 10
      vertex -140.867 -35.131 10.8
      vertex -140.867 -35.131 10
    endloop
  endfacet
  facet normal 0.601148 0.799138 -0
    outer loop
      vertex -141.468 -34.6789 10
      vertex -141.468 -34.6789 10.8
      vertex -140.867 -35.131 10.8
    endloop
  endfacet
  facet normal 0.344217 0.93889 0
    outer loop
      vertex -142.208 -34.4076 10
      vertex -141.468 -34.6789 10.8
      vertex -141.468 -34.6789 10
    endloop
  endfacet
  facet normal 0.344217 0.93889 -0
    outer loop
      vertex -142.208 -34.4076 10
      vertex -142.208 -34.4076 10.8
      vertex -141.468 -34.6789 10.8
    endloop
  endfacet
  facet normal 0.10242 0.994741 0
    outer loop
      vertex -143.086 -34.3172 10
      vertex -142.208 -34.4076 10.8
      vertex -142.208 -34.4076 10
    endloop
  endfacet
  facet normal 0.10242 0.994741 -0
    outer loop
      vertex -143.086 -34.3172 10
      vertex -143.086 -34.3172 10.8
      vertex -142.208 -34.4076 10.8
    endloop
  endfacet
  facet normal -0.101525 0.994833 0
    outer loop
      vertex -143.963 -34.4067 10
      vertex -143.086 -34.3172 10.8
      vertex -143.086 -34.3172 10
    endloop
  endfacet
  facet normal -0.101525 0.994833 0
    outer loop
      vertex -143.963 -34.4067 10
      vertex -143.963 -34.4067 10.8
      vertex -143.086 -34.3172 10.8
    endloop
  endfacet
  facet normal -0.341375 0.939927 0
    outer loop
      vertex -144.702 -34.6751 10
      vertex -143.963 -34.4067 10.8
      vertex -143.963 -34.4067 10
    endloop
  endfacet
  facet normal -0.341375 0.939927 0
    outer loop
      vertex -144.702 -34.6751 10
      vertex -144.702 -34.6751 10.8
      vertex -143.963 -34.4067 10.8
    endloop
  endfacet
  facet normal -0.597774 0.801664 0
    outer loop
      vertex -145.302 -35.1225 10
      vertex -144.702 -34.6751 10.8
      vertex -144.702 -34.6751 10
    endloop
  endfacet
  facet normal -0.597774 0.801664 0
    outer loop
      vertex -145.302 -35.1225 10
      vertex -145.302 -35.1225 10.8
      vertex -144.702 -34.6751 10.8
    endloop
  endfacet
  facet normal -0.807757 0.589516 0
    outer loop
      vertex -145.745 -35.7295 10
      vertex -145.302 -35.1225 10.8
      vertex -145.302 -35.1225 10
    endloop
  endfacet
  facet normal -0.807757 0.589516 0
    outer loop
      vertex -145.745 -35.7295 10
      vertex -145.745 -35.7295 10.8
      vertex -145.302 -35.1225 10.8
    endloop
  endfacet
  facet normal -0.94251 0.334179 0
    outer loop
      vertex -146.01 -36.4769 10
      vertex -145.745 -35.7295 10.8
      vertex -145.745 -35.7295 10
    endloop
  endfacet
  facet normal -0.94251 0.334179 0
    outer loop
      vertex -146.01 -36.4769 10
      vertex -146.01 -36.4769 10.8
      vertex -145.745 -35.7295 10.8
    endloop
  endfacet
  facet normal -0.995011 0.0997701 0
    outer loop
      vertex -146.099 -37.3645 10
      vertex -146.01 -36.4769 10.8
      vertex -146.01 -36.4769 10
    endloop
  endfacet
  facet normal -0.995011 0.0997701 0
    outer loop
      vertex -146.099 -37.3645 10
      vertex -146.099 -37.3645 10.8
      vertex -146.01 -36.4769 10.8
    endloop
  endfacet
  facet normal -0.995067 -0.0992057 0
    outer loop
      vertex -146.01 -38.2572 10
      vertex -146.099 -37.3645 10.8
      vertex -146.099 -37.3645 10
    endloop
  endfacet
  facet normal -0.995067 -0.0992057 0
    outer loop
      vertex -146.01 -38.2572 10
      vertex -146.01 -38.2572 10.8
      vertex -146.099 -37.3645 10.8
    endloop
  endfacet
  facet normal -0.943381 -0.331711 0
    outer loop
      vertex -145.744 -39.0137 10
      vertex -146.01 -38.2572 10.8
      vertex -146.01 -38.2572 10
    endloop
  endfacet
  facet normal -0.943381 -0.331711 0
    outer loop
      vertex -145.744 -39.0137 10
      vertex -145.744 -39.0137 10.8
      vertex -146.01 -38.2572 10.8
    endloop
  endfacet
  facet normal -0.813202 -0.581982 0
    outer loop
      vertex -145.3 -39.6341 10
      vertex -145.744 -39.0137 10.8
      vertex -145.744 -39.0137 10
    endloop
  endfacet
  facet normal -0.813202 -0.581982 0
    outer loop
      vertex -145.3 -39.6341 10
      vertex -145.3 -39.6341 10.8
      vertex -145.744 -39.0137 10.8
    endloop
  endfacet
  facet normal -0.608765 -0.793351 0
    outer loop
      vertex -144.7 -40.0945 10
      vertex -145.3 -39.6341 10.8
      vertex -145.3 -39.6341 10
    endloop
  endfacet
  facet normal -0.608765 -0.793351 0
    outer loop
      vertex -144.7 -40.0945 10
      vertex -144.7 -40.0945 10.8
      vertex -145.3 -39.6341 10.8
    endloop
  endfacet
  facet normal -0.351654 -0.93613 0
    outer loop
      vertex -143.965 -40.3706 10
      vertex -144.7 -40.0945 10.8
      vertex -144.7 -40.0945 10
    endloop
  endfacet
  facet normal -0.351654 -0.93613 0
    outer loop
      vertex -143.965 -40.3706 10
      vertex -143.965 -40.3706 10.8
      vertex -144.7 -40.0945 10.8
    endloop
  endfacet
  facet normal -0.105154 -0.994456 0
    outer loop
      vertex -143.094 -40.4627 10
      vertex -143.965 -40.3706 10.8
      vertex -143.965 -40.3706 10
    endloop
  endfacet
  facet normal -0.105154 -0.994456 0
    outer loop
      vertex -143.094 -40.4627 10
      vertex -143.094 -40.4627 10.8
      vertex -143.965 -40.3706 10.8
    endloop
  endfacet
  facet normal 0.0711016 -0.997469 0
    outer loop
      vertex -142.509 -40.421 10
      vertex -143.094 -40.4627 10.8
      vertex -143.094 -40.4627 10
    endloop
  endfacet
  facet normal 0.0711016 -0.997469 0
    outer loop
      vertex -142.509 -40.421 10
      vertex -142.509 -40.421 10.8
      vertex -143.094 -40.4627 10.8
    endloop
  endfacet
  facet normal 0.404824 0.914395 -0
    outer loop
      vertex -144.022 -39.228 10
      vertex -144.022 -39.228 10.8
      vertex -143.596 -39.4166 10
    endloop
  endfacet
  facet normal 0.404824 0.914395 0
    outer loop
      vertex -143.596 -39.4166 10.8
      vertex -143.596 -39.4166 10
      vertex -144.022 -39.228 10.8
    endloop
  endfacet
  facet normal 0.66826 0.743928 -0
    outer loop
      vertex -144.372 -38.9136 10
      vertex -144.372 -38.9136 10.8
      vertex -144.022 -39.228 10
    endloop
  endfacet
  facet normal 0.66826 0.743928 0
    outer loop
      vertex -144.022 -39.228 10.8
      vertex -144.022 -39.228 10
      vertex -144.372 -38.9136 10.8
    endloop
  endfacet
  facet normal 0.852266 0.523109 -0
    outer loop
      vertex -144.632 -38.49 10
      vertex -144.632 -38.49 10.8
      vertex -144.372 -38.9136 10
    endloop
  endfacet
  facet normal 0.852266 0.523109 0
    outer loop
      vertex -144.372 -38.9136 10.8
      vertex -144.372 -38.9136 10
      vertex -144.632 -38.49 10.8
    endloop
  endfacet
  facet normal 0.957258 0.289235 -0
    outer loop
      vertex -144.788 -37.9737 10
      vertex -144.788 -37.9737 10.8
      vertex -144.632 -38.49 10
    endloop
  endfacet
  facet normal 0.957258 0.289235 0
    outer loop
      vertex -144.632 -38.49 10.8
      vertex -144.632 -38.49 10
      vertex -144.788 -37.9737 10.8
    endloop
  endfacet
  facet normal 0.996377 0.0850486 -0
    outer loop
      vertex -144.84 -37.3645 10
      vertex -144.84 -37.3645 10.8
      vertex -144.788 -37.9737 10
    endloop
  endfacet
  facet normal 0.996377 0.0850486 0
    outer loop
      vertex -144.788 -37.9737 10.8
      vertex -144.788 -37.9737 10
      vertex -144.84 -37.3645 10.8
    endloop
  endfacet
  facet normal 0.996431 -0.0844152 0
    outer loop
      vertex -144.789 -36.7625 10
      vertex -144.789 -36.7625 10.8
      vertex -144.84 -37.3645 10
    endloop
  endfacet
  facet normal 0.996431 -0.0844152 0
    outer loop
      vertex -144.84 -37.3645 10.8
      vertex -144.84 -37.3645 10
      vertex -144.789 -36.7625 10.8
    endloop
  endfacet
  facet normal 0.9578 -0.287435 0
    outer loop
      vertex -144.637 -36.256 10
      vertex -144.637 -36.256 10.8
      vertex -144.789 -36.7625 10
    endloop
  endfacet
  facet normal 0.9578 -0.287435 0
    outer loop
      vertex -144.789 -36.7625 10.8
      vertex -144.789 -36.7625 10
      vertex -144.637 -36.256 10.8
    endloop
  endfacet
  facet normal 0.850547 -0.525898 0
    outer loop
      vertex -144.383 -35.8452 10
      vertex -144.383 -35.8452 10.8
      vertex -144.637 -36.256 10
    endloop
  endfacet
  facet normal 0.850547 -0.525898 0
    outer loop
      vertex -144.637 -36.256 10.8
      vertex -144.637 -36.256 10
      vertex -144.383 -35.8452 10.8
    endloop
  endfacet
  facet normal 0.656168 -0.754615 0
    outer loop
      vertex -144.035 -35.5426 10
      vertex -144.035 -35.5426 10.8
      vertex -144.383 -35.8452 10
    endloop
  endfacet
  facet normal 0.656168 -0.754615 0
    outer loop
      vertex -144.383 -35.8452 10.8
      vertex -144.383 -35.8452 10
      vertex -144.035 -35.5426 10.8
    endloop
  endfacet
  facet normal 0.387523 -0.92186 0
    outer loop
      vertex -143.603 -35.361 10
      vertex -143.603 -35.361 10.8
      vertex -144.035 -35.5426 10
    endloop
  endfacet
  facet normal 0.387523 -0.92186 0
    outer loop
      vertex -144.035 -35.5426 10.8
      vertex -144.035 -35.5426 10
      vertex -143.603 -35.361 10.8
    endloop
  endfacet
  facet normal 0.116228 -0.993223 0
    outer loop
      vertex -143.086 -35.3005 10
      vertex -143.086 -35.3005 10.8
      vertex -143.603 -35.361 10
    endloop
  endfacet
  facet normal 0.116228 -0.993223 0
    outer loop
      vertex -143.603 -35.361 10.8
      vertex -143.603 -35.361 10
      vertex -143.086 -35.3005 10.8
    endloop
  endfacet
  facet normal -0.118761 -0.992923 0
    outer loop
      vertex -142.576 -35.3615 10
      vertex -142.576 -35.3615 10.8
      vertex -143.086 -35.3005 10
    endloop
  endfacet
  facet normal -0.118761 -0.992923 -0
    outer loop
      vertex -143.086 -35.3005 10.8
      vertex -143.086 -35.3005 10
      vertex -142.576 -35.3615 10.8
    endloop
  endfacet
  facet normal -0.393141 -0.919478 0
    outer loop
      vertex -142.148 -35.5445 10
      vertex -142.148 -35.5445 10.8
      vertex -142.576 -35.3615 10
    endloop
  endfacet
  facet normal -0.393141 -0.919478 -0
    outer loop
      vertex -142.576 -35.3615 10.8
      vertex -142.576 -35.3615 10
      vertex -142.148 -35.5445 10.8
    endloop
  endfacet
  facet normal -0.660066 -0.751207 0
    outer loop
      vertex -141.801 -35.8494 10
      vertex -141.801 -35.8494 10.8
      vertex -142.148 -35.5445 10
    endloop
  endfacet
  facet normal -0.660066 -0.751207 -0
    outer loop
      vertex -142.148 -35.5445 10.8
      vertex -142.148 -35.5445 10
      vertex -141.801 -35.8494 10.8
    endloop
  endfacet
  facet normal -0.851403 -0.524512 0
    outer loop
      vertex -141.547 -36.2617 10
      vertex -141.547 -36.2617 10.8
      vertex -141.801 -35.8494 10
    endloop
  endfacet
  facet normal -0.851403 -0.524512 -0
    outer loop
      vertex -141.801 -35.8494 10.8
      vertex -141.801 -35.8494 10
      vertex -141.547 -36.2617 10.8
    endloop
  endfacet
  facet normal -0.957565 -0.288218 0
    outer loop
      vertex -141.395 -36.7667 10
      vertex -141.395 -36.7667 10.8
      vertex -141.547 -36.2617 10
    endloop
  endfacet
  facet normal -0.957565 -0.288218 -0
    outer loop
      vertex -141.547 -36.2617 10.8
      vertex -141.547 -36.2617 10
      vertex -141.395 -36.7667 10.8
    endloop
  endfacet
  facet normal -0.996381 -0.085004 0
    outer loop
      vertex -141.344 -37.3645 10
      vertex -141.344 -37.3645 10.8
      vertex -141.395 -36.7667 10
    endloop
  endfacet
  facet normal -0.996381 -0.085004 -0
    outer loop
      vertex -141.395 -36.7667 10.8
      vertex -141.395 -36.7667 10
      vertex -141.344 -37.3645 10.8
    endloop
  endfacet
  facet normal -0.996805 0.0798722 0
    outer loop
      vertex -141.394 -37.9885 10
      vertex -141.394 -37.9885 10.8
      vertex -141.344 -37.3645 10
    endloop
  endfacet
  facet normal -0.996805 0.0798722 0
    outer loop
      vertex -141.344 -37.3645 10.8
      vertex -141.344 -37.3645 10
      vertex -141.394 -37.9885 10.8
    endloop
  endfacet
  facet normal -0.960023 0.279922 0
    outer loop
      vertex -141.546 -38.5098 10
      vertex -141.546 -38.5098 10.8
      vertex -141.394 -37.9885 10
    endloop
  endfacet
  facet normal -0.960023 0.279922 0
    outer loop
      vertex -141.394 -37.9885 10.8
      vertex -141.394 -37.9885 10
      vertex -141.546 -38.5098 10.8
    endloop
  endfacet
  facet normal -0.855883 0.517169 0
    outer loop
      vertex -141.799 -38.9285 10
      vertex -141.799 -38.9285 10.8
      vertex -141.546 -38.5098 10
    endloop
  endfacet
  facet normal -0.855883 0.517169 0
    outer loop
      vertex -141.546 -38.5098 10.8
      vertex -141.546 -38.5098 10
      vertex -141.799 -38.9285 10.8
    endloop
  endfacet
  facet normal -0.661529 0.74992 0
    outer loop
      vertex -142.146 -39.2346 10
      vertex -142.146 -39.2346 10.8
      vertex -141.799 -38.9285 10
    endloop
  endfacet
  facet normal -0.661529 0.74992 0
    outer loop
      vertex -141.799 -38.9285 10.8
      vertex -141.799 -38.9285 10
      vertex -142.146 -39.2346 10.8
    endloop
  endfacet
  facet normal -0.391909 0.920004 0
    outer loop
      vertex -142.577 -39.4182 10
      vertex -142.577 -39.4182 10.8
      vertex -142.146 -39.2346 10
    endloop
  endfacet
  facet normal -0.391909 0.920004 0
    outer loop
      vertex -142.146 -39.2346 10.8
      vertex -142.146 -39.2346 10
      vertex -142.577 -39.4182 10.8
    endloop
  endfacet
  facet normal -0.117744 0.993044 0
    outer loop
      vertex -143.094 -39.4795 10
      vertex -143.094 -39.4795 10.8
      vertex -142.577 -39.4182 10
    endloop
  endfacet
  facet normal -0.117744 0.993044 0
    outer loop
      vertex -142.577 -39.4182 10.8
      vertex -142.577 -39.4182 10
      vertex -143.094 -39.4795 10.8
    endloop
  endfacet
  facet normal 0.124327 0.992241 -0
    outer loop
      vertex -143.596 -39.4166 10
      vertex -143.596 -39.4166 10.8
      vertex -143.094 -39.4795 10
    endloop
  endfacet
  facet normal 0.124327 0.992241 0
    outer loop
      vertex -143.094 -39.4795 10.8
      vertex -143.094 -39.4795 10
      vertex -143.596 -39.4166 10.8
    endloop
  endfacet
  facet normal 0.253878 -0.967236 0
    outer loop
      vertex -147.773 -40.1802 10
      vertex -148.338 -40.3285 10.8
      vertex -148.338 -40.3285 10
    endloop
  endfacet
  facet normal 0.253878 -0.967236 0
    outer loop
      vertex -147.773 -40.1802 10
      vertex -147.773 -40.1802 10.8
      vertex -148.338 -40.3285 10.8
    endloop
  endfacet
  facet normal 0.473369 -0.880864 0
    outer loop
      vertex -147.313 -39.933 10
      vertex -147.773 -40.1802 10.8
      vertex -147.773 -40.1802 10
    endloop
  endfacet
  facet normal 0.473369 -0.880864 0
    outer loop
      vertex -147.313 -39.933 10
      vertex -147.313 -39.933 10.8
      vertex -147.773 -40.1802 10.8
    endloop
  endfacet
  facet normal 0.705747 -0.708464 0
    outer loop
      vertex -146.974 -39.5953 10
      vertex -147.313 -39.933 10.8
      vertex -147.313 -39.933 10
    endloop
  endfacet
  facet normal 0.705747 -0.708464 0
    outer loop
      vertex -146.974 -39.5953 10
      vertex -146.974 -39.5953 10.8
      vertex -147.313 -39.933 10.8
    endloop
  endfacet
  facet normal 0.899344 -0.437241 0
    outer loop
      vertex -146.77 -39.1757 10
      vertex -146.974 -39.5953 10.8
      vertex -146.974 -39.5953 10
    endloop
  endfacet
  facet normal 0.899344 -0.437241 0
    outer loop
      vertex -146.77 -39.1757 10
      vertex -146.77 -39.1757 10.8
      vertex -146.974 -39.5953 10.8
    endloop
  endfacet
  facet normal 0.991197 -0.132397 0
    outer loop
      vertex -146.703 -38.6741 10
      vertex -146.77 -39.1757 10.8
      vertex -146.77 -39.1757 10
    endloop
  endfacet
  facet normal 0.991197 -0.132397 0
    outer loop
      vertex -146.703 -38.6741 10
      vertex -146.703 -38.6741 10.8
      vertex -146.77 -39.1757 10.8
    endloop
  endfacet
  facet normal 0.993954 0.1098 0
    outer loop
      vertex -146.745 -38.2939 10
      vertex -146.703 -38.6741 10.8
      vertex -146.703 -38.6741 10
    endloop
  endfacet
  facet normal 0.993954 0.1098 -0
    outer loop
      vertex -146.745 -38.2939 10
      vertex -146.745 -38.2939 10.8
      vertex -146.703 -38.6741 10.8
    endloop
  endfacet
  facet normal 0.933162 0.359457 0
    outer loop
      vertex -146.871 -37.9668 10
      vertex -146.745 -38.2939 10.8
      vertex -146.745 -38.2939 10
    endloop
  endfacet
  facet normal 0.933162 0.359457 -0
    outer loop
      vertex -146.871 -37.9668 10
      vertex -146.871 -37.9668 10.8
      vertex -146.745 -38.2939 10.8
    endloop
  endfacet
  facet normal 0.792086 0.61041 0
    outer loop
      vertex -147.082 -37.693 10
      vertex -146.871 -37.9668 10.8
      vertex -146.871 -37.9668 10
    endloop
  endfacet
  facet normal 0.792086 0.61041 -0
    outer loop
      vertex -147.082 -37.693 10
      vertex -147.082 -37.693 10.8
      vertex -146.871 -37.9668 10.8
    endloop
  endfacet
  facet normal 0.59495 0.803763 0
    outer loop
      vertex -147.373 -37.4776 10
      vertex -147.082 -37.693 10.8
      vertex -147.082 -37.693 10
    endloop
  endfacet
  facet normal 0.59495 0.803763 -0
    outer loop
      vertex -147.373 -37.4776 10
      vertex -147.373 -37.4776 10.8
      vertex -147.082 -37.693 10.8
    endloop
  endfacet
  facet normal 0.381546 0.92435 0
    outer loop
      vertex -147.741 -37.3257 10
      vertex -147.373 -37.4776 10.8
      vertex -147.373 -37.4776 10
    endloop
  endfacet
  facet normal 0.381546 0.92435 -0
    outer loop
      vertex -147.741 -37.3257 10
      vertex -147.741 -37.3257 10.8
      vertex -147.373 -37.4776 10.8
    endloop
  endfacet
  facet normal 0.194632 0.980876 0
    outer loop
      vertex -148.186 -37.2374 10
      vertex -147.741 -37.3257 10.8
      vertex -147.741 -37.3257 10
    endloop
  endfacet
  facet normal 0.194632 0.980876 -0
    outer loop
      vertex -148.186 -37.2374 10
      vertex -148.186 -37.2374 10.8
      vertex -147.741 -37.3257 10.8
    endloop
  endfacet
  facet normal 0.291845 -0.956466 0
    outer loop
      vertex -147.835 -37.1303 10
      vertex -148.186 -37.2374 10.8
      vertex -148.186 -37.2374 10
    endloop
  endfacet
  facet normal 0.291845 -0.956466 0
    outer loop
      vertex -147.835 -37.1303 10
      vertex -147.835 -37.1303 10.8
      vertex -148.186 -37.2374 10.8
    endloop
  endfacet
  facet normal 0.481332 -0.876538 0
    outer loop
      vertex -147.548 -36.9727 10
      vertex -147.835 -37.1303 10.8
      vertex -147.835 -37.1303 10
    endloop
  endfacet
  facet normal 0.481332 -0.876538 0
    outer loop
      vertex -147.548 -36.9727 10
      vertex -147.548 -36.9727 10.8
      vertex -147.835 -37.1303 10.8
    endloop
  endfacet
  facet normal 0.686662 -0.726976 0
    outer loop
      vertex -147.328 -36.7649 10
      vertex -147.548 -36.9727 10.8
      vertex -147.548 -36.9727 10
    endloop
  endfacet
  facet normal 0.686662 -0.726976 0
    outer loop
      vertex -147.328 -36.7649 10
      vertex -147.328 -36.7649 10.8
      vertex -147.548 -36.9727 10.8
    endloop
  endfacet
  facet normal 0.847618 -0.530606 0
    outer loop
      vertex -147.171 -36.5141 10
      vertex -147.328 -36.7649 10.8
      vertex -147.328 -36.7649 10
    endloop
  endfacet
  facet normal 0.847618 -0.530606 0
    outer loop
      vertex -147.171 -36.5141 10
      vertex -147.171 -36.5141 10.8
      vertex -147.328 -36.7649 10.8
    endloop
  endfacet
  facet normal 0.950036 -0.31214 0
    outer loop
      vertex -147.077 -36.228 10
      vertex -147.171 -36.5141 10.8
      vertex -147.171 -36.5141 10
    endloop
  endfacet
  facet normal 0.950036 -0.31214 0
    outer loop
      vertex -147.077 -36.228 10
      vertex -147.077 -36.228 10.8
      vertex -147.171 -36.5141 10.8
    endloop
  endfacet
  facet normal 0.995381 -0.0960075 0
    outer loop
      vertex -147.046 -35.9066 10
      vertex -147.077 -36.228 10.8
      vertex -147.077 -36.228 10
    endloop
  endfacet
  facet normal 0.995381 -0.0960075 0
    outer loop
      vertex -147.046 -35.9066 10
      vertex -147.046 -35.9066 10.8
      vertex -147.077 -36.228 10.8
    endloop
  endfacet
  facet normal 0.990812 0.135249 0
    outer loop
      vertex -147.108 -35.4524 10
      vertex -147.046 -35.9066 10.8
      vertex -147.046 -35.9066 10
    endloop
  endfacet
  facet normal 0.990812 0.135249 -0
    outer loop
      vertex -147.108 -35.4524 10
      vertex -147.108 -35.4524 10.8
      vertex -147.046 -35.9066 10.8
    endloop
  endfacet
  facet normal 0.893325 0.449411 0
    outer loop
      vertex -147.296 -35.0787 10
      vertex -147.108 -35.4524 10.8
      vertex -147.108 -35.4524 10
    endloop
  endfacet
  facet normal 0.893325 0.449411 -0
    outer loop
      vertex -147.296 -35.0787 10
      vertex -147.296 -35.0787 10.8
      vertex -147.108 -35.4524 10.8
    endloop
  endfacet
  facet normal 0.684687 0.728837 0
    outer loop
      vertex -147.608 -34.7856 10
      vertex -147.296 -35.0787 10.8
      vertex -147.296 -35.0787 10
    endloop
  endfacet
  facet normal 0.684687 0.728837 -0
    outer loop
      vertex -147.608 -34.7856 10
      vertex -147.608 -34.7856 10.8
      vertex -147.296 -35.0787 10.8
    endloop
  endfacet
  facet normal 0.43772 0.899111 0
    outer loop
      vertex -148.041 -34.5748 10
      vertex -147.608 -34.7856 10.8
      vertex -147.608 -34.7856 10
    endloop
  endfacet
  facet normal 0.43772 0.899111 -0
    outer loop
      vertex -148.041 -34.5748 10
      vertex -148.041 -34.5748 10.8
      vertex -147.608 -34.7856 10.8
    endloop
  endfacet
  facet normal 0.223208 0.974771 0
    outer loop
      vertex -148.593 -34.4484 10
      vertex -148.041 -34.5748 10.8
      vertex -148.041 -34.5748 10
    endloop
  endfacet
  facet normal 0.223208 0.974771 -0
    outer loop
      vertex -148.593 -34.4484 10
      vertex -148.593 -34.4484 10.8
      vertex -148.041 -34.5748 10.8
    endloop
  endfacet
  facet normal 0.0628605 0.998022 0
    outer loop
      vertex -149.263 -34.4062 10
      vertex -148.593 -34.4484 10.8
      vertex -148.593 -34.4484 10
    endloop
  endfacet
  facet normal 0.0628605 0.998022 -0
    outer loop
      vertex -149.263 -34.4062 10
      vertex -149.263 -34.4062 10.8
      vertex -148.593 -34.4484 10.8
    endloop
  endfacet
  facet normal 0 1 0
    outer loop
      vertex -151.996 -34.4062 10
      vertex -149.263 -34.4062 10.8
      vertex -149.263 -34.4062 10
    endloop
  endfacet
  facet normal 0 1 0
    outer loop
      vertex -151.996 -34.4062 10
      vertex -151.996 -34.4062 10.8
      vertex -149.263 -34.4062 10.8
    endloop
  endfacet
  facet normal -1 0 0
    outer loop
      vertex -151.996 -40.378 10
      vertex -151.996 -34.4062 10.8
      vertex -151.996 -34.4062 10
    endloop
  endfacet
  facet normal -1 0 0
    outer loop
      vertex -151.996 -40.378 10
      vertex -151.996 -40.378 10.8
      vertex -151.996 -34.4062 10.8
    endloop
  endfacet
  facet normal 0 -1 0
    outer loop
      vertex -149.008 -40.378 10
      vertex -151.996 -40.378 10.8
      vertex -151.996 -40.378 10
    endloop
  endfacet
  facet normal 0 -1 0
    outer loop
      vertex -149.008 -40.378 10
      vertex -149.008 -40.378 10.8
      vertex -151.996 -40.378 10.8
    endloop
  endfacet
  facet normal 0.0736798 -0.997282 0
    outer loop
      vertex -148.338 -40.3285 10
      vertex -149.008 -40.378 10.8
      vertex -149.008 -40.378 10
    endloop
  endfacet
  facet normal 0.0736798 -0.997282 0
    outer loop
      vertex -148.338 -40.3285 10
      vertex -148.338 -40.3285 10.8
      vertex -149.008 -40.378 10.8
    endloop
  endfacet
  facet normal 1 0 -0
    outer loop
      vertex -150.746 -35.3344 10
      vertex -150.746 -35.3344 10.8
      vertex -150.746 -36.8136 10
    endloop
  endfacet
  facet normal 1 -0 0
    outer loop
      vertex -150.746 -36.8136 10.8
      vertex -150.746 -36.8136 10
      vertex -150.746 -35.3344 10.8
    endloop
  endfacet
  facet normal 0 -1 0
    outer loop
      vertex -149.322 -35.3344 10
      vertex -149.322 -35.3344 10.8
      vertex -150.746 -35.3344 10
    endloop
  endfacet
  facet normal 0 -1 0
    outer loop
      vertex -150.746 -35.3344 10.8
      vertex -150.746 -35.3344 10
      vertex -149.322 -35.3344 10.8
    endloop
  endfacet
  facet normal -0.0607291 -0.998154 0
    outer loop
      vertex -149.013 -35.3532 10
      vertex -149.013 -35.3532 10.8
      vertex -149.322 -35.3344 10
    endloop
  endfacet
  facet normal -0.0607291 -0.998154 -0
    outer loop
      vertex -149.322 -35.3344 10.8
      vertex -149.322 -35.3344 10
      vertex -149.013 -35.3532 10.8
    endloop
  endfacet
  facet normal -0.218319 -0.975877 0
    outer loop
      vertex -148.76 -35.4098 10
      vertex -148.76 -35.4098 10.8
      vertex -149.013 -35.3532 10
    endloop
  endfacet
  facet normal -0.218319 -0.975877 -0
    outer loop
      vertex -149.013 -35.3532 10.8
      vertex -149.013 -35.3532 10
      vertex -148.76 -35.4098 10.8
    endloop
  endfacet
  facet normal -0.427852 -0.903849 0
    outer loop
      vertex -148.561 -35.504 10
      vertex -148.561 -35.504 10.8
      vertex -148.76 -35.4098 10
    endloop
  endfacet
  facet normal -0.427852 -0.903849 -0
    outer loop
      vertex -148.76 -35.4098 10.8
      vertex -148.76 -35.4098 10
      vertex -148.561 -35.504 10.8
    endloop
  endfacet
  facet normal -0.699261 -0.714867 0
    outer loop
      vertex -148.419 -35.6429 10
      vertex -148.419 -35.6429 10.8
      vertex -148.561 -35.504 10
    endloop
  endfacet
  facet normal -0.699261 -0.714867 -0
    outer loop
      vertex -148.561 -35.504 10.8
      vertex -148.561 -35.504 10
      vertex -148.419 -35.6429 10.8
    endloop
  endfacet
  facet normal -0.91159 -0.4111 0
    outer loop
      vertex -148.333 -35.8336 10
      vertex -148.333 -35.8336 10.8
      vertex -148.419 -35.6429 10
    endloop
  endfacet
  facet normal -0.91159 -0.4111 -0
    outer loop
      vertex -148.419 -35.6429 10.8
      vertex -148.419 -35.6429 10
      vertex -148.333 -35.8336 10.8
    endloop
  endfacet
  facet normal -0.9934 -0.114702 0
    outer loop
      vertex -148.305 -36.0761 10
      vertex -148.305 -36.0761 10.8
      vertex -148.333 -35.8336 10
    endloop
  endfacet
  facet normal -0.9934 -0.114702 -0
    outer loop
      vertex -148.333 -35.8336 10.8
      vertex -148.333 -35.8336 10
      vertex -148.305 -36.0761 10.8
    endloop
  endfacet
  facet normal -0.993407 0.114641 0
    outer loop
      vertex -148.331 -36.3014 10
      vertex -148.331 -36.3014 10.8
      vertex -148.305 -36.0761 10
    endloop
  endfacet
  facet normal -0.993407 0.114641 0
    outer loop
      vertex -148.305 -36.0761 10.8
      vertex -148.305 -36.0761 10
      vertex -148.331 -36.3014 10.8
    endloop
  endfacet
  facet normal -0.917386 0.397998 0
    outer loop
      vertex -148.411 -36.4858 10
      vertex -148.411 -36.4858 10.8
      vertex -148.331 -36.3014 10
    endloop
  endfacet
  facet normal -0.917386 0.397998 0
    outer loop
      vertex -148.331 -36.3014 10.8
      vertex -148.331 -36.3014 10
      vertex -148.411 -36.4858 10.8
    endloop
  endfacet
  facet normal -0.733194 0.68002 0
    outer loop
      vertex -148.544 -36.6292 10
      vertex -148.544 -36.6292 10.8
      vertex -148.411 -36.4858 10
    endloop
  endfacet
  facet normal -0.733194 0.68002 0
    outer loop
      vertex -148.411 -36.4858 10.8
      vertex -148.411 -36.4858 10
      vertex -148.544 -36.6292 10.8
    endloop
  endfacet
  facet normal -0.470946 0.882162 0
    outer loop
      vertex -148.736 -36.7317 10
      vertex -148.736 -36.7317 10.8
      vertex -148.544 -36.6292 10
    endloop
  endfacet
  facet normal -0.470946 0.882162 0
    outer loop
      vertex -148.544 -36.6292 10.8
      vertex -148.544 -36.6292 10
      vertex -148.736 -36.7317 10.8
    endloop
  endfacet
  facet normal -0.233229 0.972422 0
    outer loop
      vertex -148.992 -36.7931 10
      vertex -148.992 -36.7931 10.8
      vertex -148.736 -36.7317 10
    endloop
  endfacet
  facet normal -0.233229 0.972422 0
    outer loop
      vertex -148.736 -36.7317 10.8
      vertex -148.736 -36.7317 10
      vertex -148.992 -36.7931 10.8
    endloop
  endfacet
  facet normal -0.0637331 0.997967 0
    outer loop
      vertex -149.313 -36.8136 10
      vertex -149.313 -36.8136 10.8
      vertex -148.992 -36.7931 10
    endloop
  endfacet
  facet normal -0.0637331 0.997967 0
    outer loop
      vertex -148.992 -36.7931 10.8
      vertex -148.992 -36.7931 10
      vertex -149.313 -36.8136 10.8
    endloop
  endfacet
  facet normal 0 1 0
    outer loop
      vertex -150.746 -36.8136 10
      vertex -150.746 -36.8136 10.8
      vertex -149.313 -36.8136 10
    endloop
  endfacet
  facet normal 0 1 0
    outer loop
      vertex -149.313 -36.8136 10.8
      vertex -149.313 -36.8136 10
      vertex -150.746 -36.8136 10.8
    endloop
  endfacet
  facet normal 1 0 -0
    outer loop
      vertex -150.746 -37.7375 10
      vertex -150.746 -37.7375 10.8
      vertex -150.746 -39.4498 10
    endloop
  endfacet
  facet normal 1 -0 0
    outer loop
      vertex -150.746 -39.4498 10.8
      vertex -150.746 -39.4498 10
      vertex -150.746 -37.7375 10.8
    endloop
  endfacet
  facet normal 0 -1 0
    outer loop
      vertex -149.161 -37.7375 10
      vertex -149.161 -37.7375 10.8
      vertex -150.746 -37.7375 10
    endloop
  endfacet
  facet normal 0 -1 0
    outer loop
      vertex -150.746 -37.7375 10.8
      vertex -150.746 -37.7375 10
      vertex -149.161 -37.7375 10.8
    endloop
  endfacet
  facet normal -0.138125 -0.990415 0
    outer loop
      vertex -148.492 -37.8308 10
      vertex -148.492 -37.8308 10.8
      vertex -149.161 -37.7375 10
    endloop
  endfacet
  facet normal -0.138125 -0.990415 -0
    outer loop
      vertex -149.161 -37.7375 10.8
      vertex -149.161 -37.7375 10
      vertex -148.492 -37.8308 10.8
    endloop
  endfacet
  facet normal -0.572089 -0.820192 0
    outer loop
      vertex -148.091 -38.1105 10
      vertex -148.091 -38.1105 10.8
      vertex -148.492 -37.8308 10
    endloop
  endfacet
  facet normal -0.572089 -0.820192 -0
    outer loop
      vertex -148.492 -37.8308 10.8
      vertex -148.492 -37.8308 10
      vertex -148.091 -38.1105 10.8
    endloop
  endfacet
  facet normal -0.961087 -0.276246 0
    outer loop
      vertex -147.957 -38.5767 10
      vertex -147.957 -38.5767 10.8
      vertex -148.091 -38.1105 10
    endloop
  endfacet
  facet normal -0.961087 -0.276246 -0
    outer loop
      vertex -148.091 -38.1105 10.8
      vertex -148.091 -38.1105 10
      vertex -147.957 -38.5767 10.8
    endloop
  endfacet
  facet normal -0.993317 0.115415 0
    outer loop
      vertex -147.988 -38.8435 10
      vertex -147.988 -38.8435 10.8
      vertex -147.957 -38.5767 10
    endloop
  endfacet
  facet normal -0.993317 0.115415 0
    outer loop
      vertex -147.957 -38.5767 10.8
      vertex -147.957 -38.5767 10
      vertex -147.988 -38.8435 10.8
    endloop
  endfacet
  facet normal -0.919928 0.392087 0
    outer loop
      vertex -148.081 -39.0617 10
      vertex -148.081 -39.0617 10.8
      vertex -147.988 -38.8435 10
    endloop
  endfacet
  facet normal -0.919928 0.392087 0
    outer loop
      vertex -147.988 -38.8435 10.8
      vertex -147.988 -38.8435 10
      vertex -148.081 -39.0617 10.8
    endloop
  endfacet
  facet normal -0.740729 0.671804 0
    outer loop
      vertex -148.235 -39.2315 10
      vertex -148.235 -39.2315 10.8
      vertex -148.081 -39.0617 10
    endloop
  endfacet
  facet normal -0.740729 0.671804 0
    outer loop
      vertex -148.081 -39.0617 10.8
      vertex -148.081 -39.0617 10
      vertex -148.235 -39.2315 10.8
    endloop
  endfacet
  facet normal -0.481157 0.876634 0
    outer loop
      vertex -148.456 -39.3528 10
      vertex -148.456 -39.3528 10.8
      vertex -148.235 -39.2315 10
    endloop
  endfacet
  facet normal -0.481157 0.876634 0
    outer loop
      vertex -148.235 -39.2315 10.8
      vertex -148.235 -39.2315 10
      vertex -148.456 -39.3528 10.8
    endloop
  endfacet
  facet normal -0.240821 0.97057 0
    outer loop
      vertex -148.749 -39.4255 10
      vertex -148.749 -39.4255 10.8
      vertex -148.456 -39.3528 10
    endloop
  endfacet
  facet normal -0.240821 0.97057 0
    outer loop
      vertex -148.456 -39.3528 10.8
      vertex -148.456 -39.3528 10
      vertex -148.749 -39.4255 10.8
    endloop
  endfacet
  facet normal -0.0664283 0.997791 0
    outer loop
      vertex -149.114 -39.4498 10
      vertex -149.114 -39.4498 10.8
      vertex -148.749 -39.4255 10
    endloop
  endfacet
  facet normal -0.0664283 0.997791 0
    outer loop
      vertex -148.749 -39.4255 10.8
      vertex -148.749 -39.4255 10
      vertex -149.114 -39.4498 10.8
    endloop
  endfacet
  facet normal 0 1 0
    outer loop
      vertex -150.746 -39.4498 10
      vertex -150.746 -39.4498 10.8
      vertex -149.114 -39.4498 10
    endloop
  endfacet
  facet normal 0 1 0
    outer loop
      vertex -149.114 -39.4498 10.8
      vertex -149.114 -39.4498 10
      vertex -150.746 -39.4498 10.8
    endloop
  endfacet
  facet normal 0 1 0
    outer loop
      vertex -138.03 -39.4116 10
      vertex -134.826 -39.4116 10.8
      vertex -134.826 -39.4116 10
    endloop
  endfacet
  facet normal 0 1 0
    outer loop
      vertex -138.03 -39.4116 10
      vertex -138.03 -39.4116 10.8
      vertex -134.826 -39.4116 10.8
    endloop
  endfacet
  facet normal 1 0 0
    outer loop
      vertex -138.03 -34.4062 10
      vertex -138.03 -39.4116 10.8
      vertex -138.03 -39.4116 10
    endloop
  endfacet
  facet normal 1 0 -0
    outer loop
      vertex -138.03 -34.4062 10
      vertex -138.03 -34.4062 10.8
      vertex -138.03 -39.4116 10.8
    endloop
  endfacet
  facet normal 0 1 0
    outer loop
      vertex -139.281 -34.4062 10
      vertex -138.03 -34.4062 10.8
      vertex -138.03 -34.4062 10
    endloop
  endfacet
  facet normal 0 1 0
    outer loop
      vertex -139.281 -34.4062 10
      vertex -139.281 -34.4062 10.8
      vertex -138.03 -34.4062 10.8
    endloop
  endfacet
  facet normal -1 0 0
    outer loop
      vertex -139.281 -40.378 10
      vertex -139.281 -34.4062 10.8
      vertex -139.281 -34.4062 10
    endloop
  endfacet
  facet normal -1 0 0
    outer loop
      vertex -139.281 -40.378 10
      vertex -139.281 -40.378 10.8
      vertex -139.281 -34.4062 10.8
    endloop
  endfacet
  facet normal 0 -1 0
    outer loop
      vertex -134.826 -40.378 10
      vertex -139.281 -40.378 10.8
      vertex -139.281 -40.378 10
    endloop
  endfacet
  facet normal 0 -1 0
    outer loop
      vertex -134.826 -40.378 10
      vertex -134.826 -40.378 10.8
      vertex -139.281 -40.378 10.8
    endloop
  endfacet
  facet normal 1 0 0
    outer loop
      vertex -134.826 -39.4116 10
      vertex -134.826 -40.378 10.8
      vertex -134.826 -40.378 10
    endloop
  endfacet
  facet normal 1 0 -0
    outer loop
      vertex -134.826 -39.4116 10
      vertex -134.826 -39.4116 10.8
      vertex -134.826 -40.378 10.8
    endloop
  endfacet
endsolid OpenSCAD_Model
