solid OpenSCAD_Model
  facet normal 0 0 -1
    outer loop
      vertex 236.437 75.4995 10
      vertex 235.105 75.8436 10
      vertex 235.52 76.5504 10
    endloop
  endfacet
  facet normal -0 0 -1
    outer loop
      vertex 236.051 75.0192 10
      vertex 235.584 74.6493 10
      vertex 235.105 75.8436 10
    endloop
  endfacet
  facet normal 0 0 -1
    outer loop
      vertex 236.051 75.0192 10
      vertex 235.105 75.8436 10
      vertex 236.437 75.4995 10
    endloop
  endfacet
  facet normal 0 0 -1
    outer loop
      vertex 235.52 76.5504 10
      vertex 236.74 76.0899 10
      vertex 236.437 75.4995 10
    endloop
  endfacet
  facet normal 0 -0 -1
    outer loop
      vertex 235.105 75.8436 10
      vertex 235.584 74.6493 10
      vertex 234.518 75.4196 10
    endloop
  endfacet
  facet normal 0 0 -1
    outer loop
      vertex 234.434 74.2294 10
      vertex 234.518 75.4196 10
      vertex 235.043 74.3869 10
    endloop
  endfacet
  facet normal 0 0 -1
    outer loop
      vertex 234.434 74.2294 10
      vertex 233.759 75.2782 10
      vertex 234.518 75.4196 10
    endloop
  endfacet
  facet normal 0 0 -1
    outer loop
      vertex 234.518 75.4196 10
      vertex 235.584 74.6493 10
      vertex 235.043 74.3869 10
    endloop
  endfacet
  facet normal -0 0 -1
    outer loop
      vertex 234.434 74.2294 10
      vertex 233.759 74.177 10
      vertex 233.759 75.2782 10
    endloop
  endfacet
  facet normal -0 -0 -1
    outer loop
      vertex 233.759 75.2782 10
      vertex 233.759 74.177 10
      vertex 233.173 75.3457 10
    endloop
  endfacet
  facet normal 0 0 -1
    outer loop
      vertex 232.765 74.2785 10
      vertex 231.933 74.5831 10
      vertex 232.686 75.5482 10
    endloop
  endfacet
  facet normal 0 0 -1
    outer loop
      vertex 230.775 75.7809 10
      vertex 232.019 76.3515 10
      vertex 231.264 75.0907 10
    endloop
  endfacet
  facet normal 0 0 -1
    outer loop
      vertex 230.775 75.7809 10
      vertex 230.482 76.633 10
      vertex 232.019 76.3515 10
    endloop
  endfacet
  facet normal 0 0 -1
    outer loop
      vertex 230.482 76.633 10
      vertex 230.384 77.6469 10
      vertex 231.85 76.9386 10
    endloop
  endfacet
  facet normal 0 0 -1
    outer loop
      vertex 230.384 77.6469 10
      vertex 231.848 78.3426 10
      vertex 231.794 77.6469 10
    endloop
  endfacet
  facet normal 0 0 -1
    outer loop
      vertex 230.478 78.6601 10
      vertex 232.012 78.9169 10
      vertex 231.848 78.3426 10
    endloop
  endfacet
  facet normal 0 0 -1
    outer loop
      vertex 230.762 79.5035 10
      vertex 231.234 80.177 10
      vertex 232.012 78.9169 10
    endloop
  endfacet
  facet normal 0 0 -1
    outer loop
      vertex 232.012 78.9169 10
      vertex 231.234 80.177 10
      vertex 232.285 79.37 10
    endloop
  endfacet
  facet normal 0 0 -1
    outer loop
      vertex 232.285 79.37 10
      vertex 231.885 80.6675 10
      vertex 232.664 79.697 10
    endloop
  endfacet
  facet normal 0 0 -1
    outer loop
      vertex 232.664 79.697 10
      vertex 232.706 80.9618 10
      vertex 233.144 79.8932 10
    endloop
  endfacet
  facet normal 0 0 -1
    outer loop
      vertex 233.697 81.0599 10
      vertex 234.122 79.9256 10
      vertex 233.726 79.9586 10
    endloop
  endfacet
  facet normal -0 0 -1
    outer loop
      vertex 235.073 80.85 10
      vertex 234.482 79.8267 10
      vertex 234.434 81.0074 10
    endloop
  endfacet
  facet normal -0 0 -1
    outer loop
      vertex 235.615 80.5875 10
      vertex 234.806 79.6619 10
      vertex 235.073 80.85 10
    endloop
  endfacet
  facet normal 0 0 -1
    outer loop
      vertex 235.615 80.5875 10
      vertex 235.078 79.4412 10
      vertex 234.806 79.6619 10
    endloop
  endfacet
  facet normal 0 0 -1
    outer loop
      vertex 236.06 80.2234 10
      vertex 235.283 79.1746 10
      vertex 235.078 79.4412 10
    endloop
  endfacet
  facet normal 0 -0 -1
    outer loop
      vertex 236.06 80.2234 10
      vertex 236.406 79.7606 10
      vertex 235.283 79.1746 10
    endloop
  endfacet
  facet normal 0 0 -1
    outer loop
      vertex 235.42 78.8621 10
      vertex 236.406 79.7606 10
      vertex 236.655 79.1991 10
    endloop
  endfacet
  facet normal 0 0 -1
    outer loop
      vertex 235.283 79.1746 10
      vertex 236.406 79.7606 10
      vertex 235.42 78.8621 10
    endloop
  endfacet
  facet normal 0 -0 -1
    outer loop
      vertex 235.615 80.5875 10
      vertex 236.06 80.2234 10
      vertex 235.078 79.4412 10
    endloop
  endfacet
  facet normal 0 0 -1
    outer loop
      vertex 235.073 80.85 10
      vertex 234.806 79.6619 10
      vertex 234.482 79.8267 10
    endloop
  endfacet
  facet normal 0 0 -1
    outer loop
      vertex 241.807 77.139 10
      vertex 238.892 78.2972 10
      vertex 241.807 78.2972 10
    endloop
  endfacet
  facet normal 0 -0 -1
    outer loop
      vertex 234.434 81.0074 10
      vertex 234.482 79.8267 10
      vertex 234.122 79.9256 10
    endloop
  endfacet
  facet normal 0 0 -1
    outer loop
      vertex 238.892 78.2972 10
      vertex 237.492 80.9602 10
      vertex 238.892 80.9602 10
    endloop
  endfacet
  facet normal 0 0 -1
    outer loop
      vertex 233.697 81.0599 10
      vertex 234.434 81.0074 10
      vertex 234.122 79.9256 10
    endloop
  endfacet
  facet normal 0 0 -1
    outer loop
      vertex 233.144 79.8932 10
      vertex 233.697 81.0599 10
      vertex 233.726 79.9586 10
    endloop
  endfacet
  facet normal 0 0 -1
    outer loop
      vertex 233.144 79.8932 10
      vertex 232.706 80.9618 10
      vertex 233.697 81.0599 10
    endloop
  endfacet
  facet normal 0 0 -1
    outer loop
      vertex 232.664 79.697 10
      vertex 231.885 80.6675 10
      vertex 232.706 80.9618 10
    endloop
  endfacet
  facet normal 0 0 -1
    outer loop
      vertex 232.285 79.37 10
      vertex 231.234 80.177 10
      vertex 231.885 80.6675 10
    endloop
  endfacet
  facet normal 0 0 -1
    outer loop
      vertex 230.478 78.6601 10
      vertex 230.762 79.5035 10
      vertex 232.012 78.9169 10
    endloop
  endfacet
  facet normal 0 0 -1
    outer loop
      vertex 230.384 77.6469 10
      vertex 230.478 78.6601 10
      vertex 231.848 78.3426 10
    endloop
  endfacet
  facet normal 0 0 -1
    outer loop
      vertex 231.85 76.9386 10
      vertex 230.384 77.6469 10
      vertex 231.794 77.6469 10
    endloop
  endfacet
  facet normal 0 0 -1
    outer loop
      vertex 232.019 76.3515 10
      vertex 230.482 76.633 10
      vertex 231.85 76.9386 10
    endloop
  endfacet
  facet normal 0 0 -1
    outer loop
      vertex 231.264 75.0907 10
      vertex 232.019 76.3515 10
      vertex 232.299 75.8858 10
    endloop
  endfacet
  facet normal 0 0 -1
    outer loop
      vertex 231.933 74.5831 10
      vertex 231.264 75.0907 10
      vertex 232.299 75.8858 10
    endloop
  endfacet
  facet normal -0 0 -1
    outer loop
      vertex 232.686 75.5482 10
      vertex 231.933 74.5831 10
      vertex 232.299 75.8858 10
    endloop
  endfacet
  facet normal -0 0 -1
    outer loop
      vertex 233.173 75.3457 10
      vertex 232.765 74.2785 10
      vertex 232.686 75.5482 10
    endloop
  endfacet
  facet normal 0 -0 -1
    outer loop
      vertex 233.173 75.3457 10
      vertex 233.759 74.177 10
      vertex 232.765 74.2785 10
    endloop
  endfacet
  facet normal 0 0 -1
    outer loop
      vertex 243.207 80.9602 10
      vertex 241.807 77.139 10
      vertex 241.807 78.2972 10
    endloop
  endfacet
  facet normal 0 0 -1
    outer loop
      vertex 241.807 77.139 10
      vertex 238.892 77.139 10
      vertex 238.892 78.2972 10
    endloop
  endfacet
  facet normal 0 0 -1
    outer loop
      vertex 241.807 74.2719 10
      vertex 241.807 77.139 10
      vertex 243.207 74.2719 10
    endloop
  endfacet
  facet normal 0 -0 -1
    outer loop
      vertex 243.207 80.9602 10
      vertex 243.207 74.2719 10
      vertex 241.807 77.139 10
    endloop
  endfacet
  facet normal -0 0 -1
    outer loop
      vertex 243.207 80.9602 10
      vertex 241.807 78.2972 10
      vertex 241.807 80.9602 10
    endloop
  endfacet
  facet normal -0 -0 -1
    outer loop
      vertex 238.892 78.2972 10
      vertex 238.892 77.139 10
      vertex 237.492 80.9602 10
    endloop
  endfacet
  facet normal -0 0 -1
    outer loop
      vertex 238.892 77.139 10
      vertex 237.492 74.2719 10
      vertex 237.492 80.9602 10
    endloop
  endfacet
  facet normal 0 0 -1
    outer loop
      vertex 238.892 74.2719 10
      vertex 237.492 74.2719 10
      vertex 238.892 77.139 10
    endloop
  endfacet
  facet normal 0 0 -1
    outer loop
      vertex 248.82 77.0725 10
      vertex 248.82 80.9602 10
      vertex 250.064 80.9602 10
    endloop
  endfacet
  facet normal 0 0 -1
    outer loop
      vertex 250.064 74.2719 10
      vertex 248.421 74.2719 10
      vertex 248.906 75.7672 10
    endloop
  endfacet
  facet normal -0 -0 -1
    outer loop
      vertex 245.554 78.9549 10
      vertex 245.583 78.553 10
      vertex 244.349 80.9602 10
    endloop
  endfacet
  facet normal 0 0 -1
    outer loop
      vertex 250.064 74.2719 10
      vertex 248.82 77.0725 10
      vertex 250.064 80.9602 10
    endloop
  endfacet
  facet normal -0 -0 -1
    outer loop
      vertex 245.507 79.4223 10
      vertex 245.554 78.9549 10
      vertex 244.349 80.9602 10
    endloop
  endfacet
  facet normal 0 0 -1
    outer loop
      vertex 250.064 74.2719 10
      vertex 248.83 76.6659 10
      vertex 248.82 77.0725 10
    endloop
  endfacet
  facet normal 0 0 -1
    outer loop
      vertex 250.064 74.2719 10
      vertex 248.858 76.2308 10
      vertex 248.83 76.6659 10
    endloop
  endfacet
  facet normal 0 0 -1
    outer loop
      vertex 245.592 74.2719 10
      vertex 244.349 74.2719 10
      vertex 245.592 78.2165 10
    endloop
  endfacet
  facet normal 0 0 -1
    outer loop
      vertex 250.064 74.2719 10
      vertex 248.906 75.7672 10
      vertex 248.858 76.2308 10
    endloop
  endfacet
  facet normal -0 0 -1
    outer loop
      vertex 245.948 80.9602 10
      vertex 245.507 79.4223 10
      vertex 244.349 80.9602 10
    endloop
  endfacet
  facet normal 0 0 -1
    outer loop
      vertex 248.421 74.2719 10
      vertex 245.507 79.4223 10
      vertex 248.906 75.7672 10
    endloop
  endfacet
  facet normal 0 0 -1
    outer loop
      vertex 245.507 79.4223 10
      vertex 245.948 80.9602 10
      vertex 248.906 75.7672 10
    endloop
  endfacet
  facet normal -0 -0 -1
    outer loop
      vertex 245.583 78.553 10
      vertex 245.592 78.2165 10
      vertex 244.349 80.9602 10
    endloop
  endfacet
  facet normal -0 0 -1
    outer loop
      vertex 245.592 78.2165 10
      vertex 244.349 74.2719 10
      vertex 244.349 80.9602 10
    endloop
  endfacet
  facet normal 0 0 1
    outer loop
      vertex 235.52 76.5504 10.8
      vertex 235.105 75.8436 10.8
      vertex 236.437 75.4995 10.8
    endloop
  endfacet
  facet normal 0 0 1
    outer loop
      vertex 235.105 75.8436 10.8
      vertex 235.584 74.6493 10.8
      vertex 236.051 75.0192 10.8
    endloop
  endfacet
  facet normal 0 0 1
    outer loop
      vertex 236.437 75.4995 10.8
      vertex 235.105 75.8436 10.8
      vertex 236.051 75.0192 10.8
    endloop
  endfacet
  facet normal 0 -0 1
    outer loop
      vertex 236.437 75.4995 10.8
      vertex 236.74 76.0899 10.8
      vertex 235.52 76.5504 10.8
    endloop
  endfacet
  facet normal -0 0 1
    outer loop
      vertex 234.518 75.4196 10.8
      vertex 235.584 74.6493 10.8
      vertex 235.105 75.8436 10.8
    endloop
  endfacet
  facet normal 0 0 1
    outer loop
      vertex 235.043 74.3869 10.8
      vertex 234.518 75.4196 10.8
      vertex 234.434 74.2294 10.8
    endloop
  endfacet
  facet normal 0 0 1
    outer loop
      vertex 234.518 75.4196 10.8
      vertex 233.759 75.2782 10.8
      vertex 234.434 74.2294 10.8
    endloop
  endfacet
  facet normal 0 -0 1
    outer loop
      vertex 235.043 74.3869 10.8
      vertex 235.584 74.6493 10.8
      vertex 234.518 75.4196 10.8
    endloop
  endfacet
  facet normal 0 0 1
    outer loop
      vertex 233.759 75.2782 10.8
      vertex 233.759 74.177 10.8
      vertex 234.434 74.2294 10.8
    endloop
  endfacet
  facet normal 0 0 1
    outer loop
      vertex 233.173 75.3457 10.8
      vertex 233.759 74.177 10.8
      vertex 233.759 75.2782 10.8
    endloop
  endfacet
  facet normal 0 0 1
    outer loop
      vertex 232.686 75.5482 10.8
      vertex 231.933 74.5831 10.8
      vertex 232.765 74.2785 10.8
    endloop
  endfacet
  facet normal 0 -0 1
    outer loop
      vertex 231.264 75.0907 10.8
      vertex 232.019 76.3515 10.8
      vertex 230.775 75.7809 10.8
    endloop
  endfacet
  facet normal 0 0 1
    outer loop
      vertex 232.019 76.3515 10.8
      vertex 230.482 76.633 10.8
      vertex 230.775 75.7809 10.8
    endloop
  endfacet
  facet normal 0 0 1
    outer loop
      vertex 231.85 76.9386 10.8
      vertex 230.384 77.6469 10.8
      vertex 230.482 76.633 10.8
    endloop
  endfacet
  facet normal 0 -0 1
    outer loop
      vertex 231.794 77.6469 10.8
      vertex 231.848 78.3426 10.8
      vertex 230.384 77.6469 10.8
    endloop
  endfacet
  facet normal 0 -0 1
    outer loop
      vertex 231.848 78.3426 10.8
      vertex 232.012 78.9169 10.8
      vertex 230.478 78.6601 10.8
    endloop
  endfacet
  facet normal 0 0 1
    outer loop
      vertex 232.012 78.9169 10.8
      vertex 231.234 80.177 10.8
      vertex 230.762 79.5035 10.8
    endloop
  endfacet
  facet normal 0 0 1
    outer loop
      vertex 232.285 79.37 10.8
      vertex 231.234 80.177 10.8
      vertex 232.012 78.9169 10.8
    endloop
  endfacet
  facet normal 0 0 1
    outer loop
      vertex 232.664 79.697 10.8
      vertex 231.885 80.6675 10.8
      vertex 232.285 79.37 10.8
    endloop
  endfacet
  facet normal 0 0 1
    outer loop
      vertex 233.144 79.8932 10.8
      vertex 232.706 80.9618 10.8
      vertex 232.664 79.697 10.8
    endloop
  endfacet
  facet normal -0 -0 1
    outer loop
      vertex 233.726 79.9586 10.8
      vertex 234.122 79.9256 10.8
      vertex 233.697 81.0599 10.8
    endloop
  endfacet
  facet normal 0 0 1
    outer loop
      vertex 234.434 81.0074 10.8
      vertex 234.482 79.8267 10.8
      vertex 235.073 80.85 10.8
    endloop
  endfacet
  facet normal 0 0 1
    outer loop
      vertex 235.073 80.85 10.8
      vertex 234.806 79.6619 10.8
      vertex 235.615 80.5875 10.8
    endloop
  endfacet
  facet normal -0 0 1
    outer loop
      vertex 234.806 79.6619 10.8
      vertex 235.078 79.4412 10.8
      vertex 235.615 80.5875 10.8
    endloop
  endfacet
  facet normal -0 0 1
    outer loop
      vertex 235.078 79.4412 10.8
      vertex 235.283 79.1746 10.8
      vertex 236.06 80.2234 10.8
    endloop
  endfacet
  facet normal 0 0 1
    outer loop
      vertex 235.283 79.1746 10.8
      vertex 236.406 79.7606 10.8
      vertex 236.06 80.2234 10.8
    endloop
  endfacet
  facet normal 0 0 1
    outer loop
      vertex 236.655 79.1991 10.8
      vertex 236.406 79.7606 10.8
      vertex 235.42 78.8621 10.8
    endloop
  endfacet
  facet normal 0 -0 1
    outer loop
      vertex 235.42 78.8621 10.8
      vertex 236.406 79.7606 10.8
      vertex 235.283 79.1746 10.8
    endloop
  endfacet
  facet normal 0 0 1
    outer loop
      vertex 235.078 79.4412 10.8
      vertex 236.06 80.2234 10.8
      vertex 235.615 80.5875 10.8
    endloop
  endfacet
  facet normal -0 0 1
    outer loop
      vertex 234.482 79.8267 10.8
      vertex 234.806 79.6619 10.8
      vertex 235.073 80.85 10.8
    endloop
  endfacet
  facet normal 0 0 1
    outer loop
      vertex 241.807 78.2972 10.8
      vertex 238.892 78.2972 10.8
      vertex 241.807 77.139 10.8
    endloop
  endfacet
  facet normal -0 0 1
    outer loop
      vertex 234.122 79.9256 10.8
      vertex 234.482 79.8267 10.8
      vertex 234.434 81.0074 10.8
    endloop
  endfacet
  facet normal 0 0 1
    outer loop
      vertex 238.892 80.9602 10.8
      vertex 237.492 80.9602 10.8
      vertex 238.892 78.2972 10.8
    endloop
  endfacet
  facet normal 0 -0 1
    outer loop
      vertex 234.122 79.9256 10.8
      vertex 234.434 81.0074 10.8
      vertex 233.697 81.0599 10.8
    endloop
  endfacet
  facet normal 0 0 1
    outer loop
      vertex 233.726 79.9586 10.8
      vertex 233.697 81.0599 10.8
      vertex 233.144 79.8932 10.8
    endloop
  endfacet
  facet normal 0 0 1
    outer loop
      vertex 233.697 81.0599 10.8
      vertex 232.706 80.9618 10.8
      vertex 233.144 79.8932 10.8
    endloop
  endfacet
  facet normal 0 0 1
    outer loop
      vertex 232.706 80.9618 10.8
      vertex 231.885 80.6675 10.8
      vertex 232.664 79.697 10.8
    endloop
  endfacet
  facet normal 0 0 1
    outer loop
      vertex 231.885 80.6675 10.8
      vertex 231.234 80.177 10.8
      vertex 232.285 79.37 10.8
    endloop
  endfacet
  facet normal 0 0 1
    outer loop
      vertex 232.012 78.9169 10.8
      vertex 230.762 79.5035 10.8
      vertex 230.478 78.6601 10.8
    endloop
  endfacet
  facet normal 0 0 1
    outer loop
      vertex 231.848 78.3426 10.8
      vertex 230.478 78.6601 10.8
      vertex 230.384 77.6469 10.8
    endloop
  endfacet
  facet normal 0 0 1
    outer loop
      vertex 231.794 77.6469 10.8
      vertex 230.384 77.6469 10.8
      vertex 231.85 76.9386 10.8
    endloop
  endfacet
  facet normal 0 0 1
    outer loop
      vertex 231.85 76.9386 10.8
      vertex 230.482 76.633 10.8
      vertex 232.019 76.3515 10.8
    endloop
  endfacet
  facet normal 0 0 1
    outer loop
      vertex 232.299 75.8858 10.8
      vertex 232.019 76.3515 10.8
      vertex 231.264 75.0907 10.8
    endloop
  endfacet
  facet normal 0 0 1
    outer loop
      vertex 232.299 75.8858 10.8
      vertex 231.264 75.0907 10.8
      vertex 231.933 74.5831 10.8
    endloop
  endfacet
  facet normal 0 0 1
    outer loop
      vertex 232.299 75.8858 10.8
      vertex 231.933 74.5831 10.8
      vertex 232.686 75.5482 10.8
    endloop
  endfacet
  facet normal 0 0 1
    outer loop
      vertex 232.686 75.5482 10.8
      vertex 232.765 74.2785 10.8
      vertex 233.173 75.3457 10.8
    endloop
  endfacet
  facet normal -0 0 1
    outer loop
      vertex 232.765 74.2785 10.8
      vertex 233.759 74.177 10.8
      vertex 233.173 75.3457 10.8
    endloop
  endfacet
  facet normal -0 0 1
    outer loop
      vertex 241.807 78.2972 10.8
      vertex 241.807 77.139 10.8
      vertex 243.207 80.9602 10.8
    endloop
  endfacet
  facet normal 0 0 1
    outer loop
      vertex 238.892 78.2972 10.8
      vertex 238.892 77.139 10.8
      vertex 241.807 77.139 10.8
    endloop
  endfacet
  facet normal 0 0 1
    outer loop
      vertex 243.207 74.2719 10.8
      vertex 241.807 77.139 10.8
      vertex 241.807 74.2719 10.8
    endloop
  endfacet
  facet normal -0 0 1
    outer loop
      vertex 241.807 77.139 10.8
      vertex 243.207 74.2719 10.8
      vertex 243.207 80.9602 10.8
    endloop
  endfacet
  facet normal -0 0 1
    outer loop
      vertex 241.807 80.9602 10.8
      vertex 241.807 78.2972 10.8
      vertex 243.207 80.9602 10.8
    endloop
  endfacet
  facet normal 0 0 1
    outer loop
      vertex 237.492 80.9602 10.8
      vertex 238.892 77.139 10.8
      vertex 238.892 78.2972 10.8
    endloop
  endfacet
  facet normal 0 0 1
    outer loop
      vertex 237.492 80.9602 10.8
      vertex 237.492 74.2719 10.8
      vertex 238.892 77.139 10.8
    endloop
  endfacet
  facet normal 0 0 1
    outer loop
      vertex 238.892 77.139 10.8
      vertex 237.492 74.2719 10.8
      vertex 238.892 74.2719 10.8
    endloop
  endfacet
  facet normal 0 0 1
    outer loop
      vertex 250.064 80.9602 10.8
      vertex 248.82 80.9602 10.8
      vertex 248.82 77.0725 10.8
    endloop
  endfacet
  facet normal 0 0 1
    outer loop
      vertex 248.906 75.7672 10.8
      vertex 248.421 74.2719 10.8
      vertex 250.064 74.2719 10.8
    endloop
  endfacet
  facet normal 0 0 1
    outer loop
      vertex 244.349 80.9602 10.8
      vertex 245.583 78.553 10.8
      vertex 245.554 78.9549 10.8
    endloop
  endfacet
  facet normal 0 0 1
    outer loop
      vertex 250.064 80.9602 10.8
      vertex 248.82 77.0725 10.8
      vertex 250.064 74.2719 10.8
    endloop
  endfacet
  facet normal 0 0 1
    outer loop
      vertex 244.349 80.9602 10.8
      vertex 245.554 78.9549 10.8
      vertex 245.507 79.4223 10.8
    endloop
  endfacet
  facet normal 0 0 1
    outer loop
      vertex 248.82 77.0725 10.8
      vertex 248.83 76.6659 10.8
      vertex 250.064 74.2719 10.8
    endloop
  endfacet
  facet normal 0 0 1
    outer loop
      vertex 248.83 76.6659 10.8
      vertex 248.858 76.2308 10.8
      vertex 250.064 74.2719 10.8
    endloop
  endfacet
  facet normal 0 0 1
    outer loop
      vertex 245.592 78.2165 10.8
      vertex 244.349 74.2719 10.8
      vertex 245.592 74.2719 10.8
    endloop
  endfacet
  facet normal 0 0 1
    outer loop
      vertex 248.858 76.2308 10.8
      vertex 248.906 75.7672 10.8
      vertex 250.064 74.2719 10.8
    endloop
  endfacet
  facet normal -0 0 1
    outer loop
      vertex 244.349 80.9602 10.8
      vertex 245.507 79.4223 10.8
      vertex 245.948 80.9602 10.8
    endloop
  endfacet
  facet normal 0 0 1
    outer loop
      vertex 248.906 75.7672 10.8
      vertex 245.507 79.4223 10.8
      vertex 248.421 74.2719 10.8
    endloop
  endfacet
  facet normal 0 0 1
    outer loop
      vertex 248.906 75.7672 10.8
      vertex 245.948 80.9602 10.8
      vertex 245.507 79.4223 10.8
    endloop
  endfacet
  facet normal 0 0 1
    outer loop
      vertex 244.349 80.9602 10.8
      vertex 245.592 78.2165 10.8
      vertex 245.583 78.553 10.8
    endloop
  endfacet
  facet normal 0 0 1
    outer loop
      vertex 244.349 80.9602 10.8
      vertex 244.349 74.2719 10.8
      vertex 245.592 78.2165 10.8
    endloop
  endfacet
  facet normal 0.250383 -0.968147 0
    outer loop
      vertex 235.043 74.3869 10
      vertex 234.434 74.2294 10.8
      vertex 234.434 74.2294 10
    endloop
  endfacet
  facet normal 0.250383 -0.968147 0
    outer loop
      vertex 235.043 74.3869 10
      vertex 235.043 74.3869 10.8
      vertex 234.434 74.2294 10.8
    endloop
  endfacet
  facet normal 0.436404 -0.899751 0
    outer loop
      vertex 235.584 74.6493 10
      vertex 235.043 74.3869 10.8
      vertex 235.043 74.3869 10
    endloop
  endfacet
  facet normal 0.436404 -0.899751 0
    outer loop
      vertex 235.584 74.6493 10
      vertex 235.584 74.6493 10.8
      vertex 235.043 74.3869 10.8
    endloop
  endfacet
  facet normal 0.620901 -0.783889 0
    outer loop
      vertex 236.051 75.0192 10
      vertex 235.584 74.6493 10.8
      vertex 235.584 74.6493 10
    endloop
  endfacet
  facet normal 0.620901 -0.783889 0
    outer loop
      vertex 236.051 75.0192 10
      vertex 236.051 75.0192 10.8
      vertex 235.584 74.6493 10.8
    endloop
  endfacet
  facet normal 0.779474 -0.626435 0
    outer loop
      vertex 236.437 75.4995 10
      vertex 236.051 75.0192 10.8
      vertex 236.051 75.0192 10
    endloop
  endfacet
  facet normal 0.779474 -0.626435 0
    outer loop
      vertex 236.437 75.4995 10
      vertex 236.437 75.4995 10.8
      vertex 236.051 75.0192 10.8
    endloop
  endfacet
  facet normal 0.889676 -0.456592 0
    outer loop
      vertex 236.74 76.0899 10
      vertex 236.437 75.4995 10.8
      vertex 236.437 75.4995 10
    endloop
  endfacet
  facet normal 0.889676 -0.456592 0
    outer loop
      vertex 236.74 76.0899 10
      vertex 236.74 76.0899 10.8
      vertex 236.437 75.4995 10.8
    endloop
  endfacet
  facet normal 0.35314 0.935571 0
    outer loop
      vertex 235.52 76.5504 10
      vertex 236.74 76.0899 10.8
      vertex 236.74 76.0899 10
    endloop
  endfacet
  facet normal 0.35314 0.935571 -0
    outer loop
      vertex 235.52 76.5504 10
      vertex 235.52 76.5504 10.8
      vertex 236.74 76.0899 10.8
    endloop
  endfacet
  facet normal -0.862342 0.506327 0
    outer loop
      vertex 235.105 75.8436 10
      vertex 235.52 76.5504 10.8
      vertex 235.52 76.5504 10
    endloop
  endfacet
  facet normal -0.862342 0.506327 0
    outer loop
      vertex 235.105 75.8436 10
      vertex 235.105 75.8436 10.8
      vertex 235.52 76.5504 10.8
    endloop
  endfacet
  facet normal -0.585541 0.810643 0
    outer loop
      vertex 234.518 75.4196 10
      vertex 235.105 75.8436 10.8
      vertex 235.105 75.8436 10
    endloop
  endfacet
  facet normal -0.585541 0.810643 0
    outer loop
      vertex 234.518 75.4196 10
      vertex 234.518 75.4196 10.8
      vertex 235.105 75.8436 10.8
    endloop
  endfacet
  facet normal -0.183147 0.983086 0
    outer loop
      vertex 233.759 75.2782 10
      vertex 234.518 75.4196 10.8
      vertex 234.518 75.4196 10
    endloop
  endfacet
  facet normal -0.183147 0.983086 0
    outer loop
      vertex 233.759 75.2782 10
      vertex 233.759 75.2782 10.8
      vertex 234.518 75.4196 10.8
    endloop
  endfacet
  facet normal 0.114431 0.993431 0
    outer loop
      vertex 233.173 75.3457 10
      vertex 233.759 75.2782 10.8
      vertex 233.759 75.2782 10
    endloop
  endfacet
  facet normal 0.114431 0.993431 -0
    outer loop
      vertex 233.173 75.3457 10
      vertex 233.173 75.3457 10.8
      vertex 233.759 75.2782 10.8
    endloop
  endfacet
  facet normal 0.383942 0.923357 0
    outer loop
      vertex 232.686 75.5482 10
      vertex 233.173 75.3457 10.8
      vertex 233.173 75.3457 10
    endloop
  endfacet
  facet normal 0.383942 0.923357 -0
    outer loop
      vertex 232.686 75.5482 10
      vertex 232.686 75.5482 10.8
      vertex 233.173 75.3457 10.8
    endloop
  endfacet
  facet normal 0.657373 0.753565 0
    outer loop
      vertex 232.299 75.8858 10
      vertex 232.686 75.5482 10.8
      vertex 232.686 75.5482 10
    endloop
  endfacet
  facet normal 0.657373 0.753565 -0
    outer loop
      vertex 232.299 75.8858 10
      vertex 232.299 75.8858 10.8
      vertex 232.686 75.5482 10.8
    endloop
  endfacet
  facet normal 0.857022 0.51528 0
    outer loop
      vertex 232.019 76.3515 10
      vertex 232.299 75.8858 10.8
      vertex 232.299 75.8858 10
    endloop
  endfacet
  facet normal 0.857022 0.51528 -0
    outer loop
      vertex 232.019 76.3515 10
      vertex 232.019 76.3515 10.8
      vertex 232.299 75.8858 10.8
    endloop
  endfacet
  facet normal 0.960979 0.276623 0
    outer loop
      vertex 231.85 76.9386 10
      vertex 232.019 76.3515 10.8
      vertex 232.019 76.3515 10
    endloop
  endfacet
  facet normal 0.960979 0.276623 -0
    outer loop
      vertex 231.85 76.9386 10
      vertex 231.85 76.9386 10.8
      vertex 232.019 76.3515 10.8
    endloop
  endfacet
  facet normal 0.996889 0.0788166 0
    outer loop
      vertex 231.794 77.6469 10
      vertex 231.85 76.9386 10.8
      vertex 231.85 76.9386 10
    endloop
  endfacet
  facet normal 0.996889 0.0788166 -0
    outer loop
      vertex 231.794 77.6469 10
      vertex 231.794 77.6469 10.8
      vertex 231.85 76.9386 10.8
    endloop
  endfacet
  facet normal 0.997001 -0.0773869 0
    outer loop
      vertex 231.848 78.3426 10
      vertex 231.794 77.6469 10.8
      vertex 231.794 77.6469 10
    endloop
  endfacet
  facet normal 0.997001 -0.0773869 0
    outer loop
      vertex 231.848 78.3426 10
      vertex 231.848 78.3426 10.8
      vertex 231.794 77.6469 10.8
    endloop
  endfacet
  facet normal 0.961562 -0.274588 0
    outer loop
      vertex 232.012 78.9169 10
      vertex 231.848 78.3426 10.8
      vertex 231.848 78.3426 10
    endloop
  endfacet
  facet normal 0.961562 -0.274588 0
    outer loop
      vertex 232.012 78.9169 10
      vertex 232.012 78.9169 10.8
      vertex 231.848 78.3426 10.8
    endloop
  endfacet
  facet normal 0.856541 -0.516079 0
    outer loop
      vertex 232.285 79.37 10
      vertex 232.012 78.9169 10.8
      vertex 232.012 78.9169 10
    endloop
  endfacet
  facet normal 0.856541 -0.516079 0
    outer loop
      vertex 232.285 79.37 10
      vertex 232.285 79.37 10.8
      vertex 232.012 78.9169 10.8
    endloop
  endfacet
  facet normal 0.653256 -0.757137 0
    outer loop
      vertex 232.664 79.697 10
      vertex 232.285 79.37 10.8
      vertex 232.285 79.37 10
    endloop
  endfacet
  facet normal 0.653256 -0.757137 0
    outer loop
      vertex 232.664 79.697 10
      vertex 232.664 79.697 10.8
      vertex 232.285 79.37 10.8
    endloop
  endfacet
  facet normal 0.378363 -0.925658 0
    outer loop
      vertex 233.144 79.8932 10
      vertex 232.664 79.697 10.8
      vertex 232.664 79.697 10
    endloop
  endfacet
  facet normal 0.378363 -0.925658 0
    outer loop
      vertex 233.144 79.8932 10
      vertex 233.144 79.8932 10.8
      vertex 232.664 79.697 10.8
    endloop
  endfacet
  facet normal 0.111668 -0.993746 0
    outer loop
      vertex 233.726 79.9586 10
      vertex 233.144 79.8932 10.8
      vertex 233.144 79.8932 10
    endloop
  endfacet
  facet normal 0.111668 -0.993746 0
    outer loop
      vertex 233.726 79.9586 10
      vertex 233.726 79.9586 10.8
      vertex 233.144 79.8932 10.8
    endloop
  endfacet
  facet normal -0.0830455 -0.996546 0
    outer loop
      vertex 234.122 79.9256 10
      vertex 233.726 79.9586 10.8
      vertex 233.726 79.9586 10
    endloop
  endfacet
  facet normal -0.0830455 -0.996546 0
    outer loop
      vertex 234.122 79.9256 10
      vertex 234.122 79.9256 10.8
      vertex 233.726 79.9586 10.8
    endloop
  endfacet
  facet normal -0.264907 -0.964274 0
    outer loop
      vertex 234.482 79.8267 10
      vertex 234.122 79.9256 10.8
      vertex 234.122 79.9256 10
    endloop
  endfacet
  facet normal -0.264907 -0.964274 0
    outer loop
      vertex 234.482 79.8267 10
      vertex 234.482 79.8267 10.8
      vertex 234.122 79.9256 10.8
    endloop
  endfacet
  facet normal -0.453365 -0.891325 0
    outer loop
      vertex 234.806 79.6619 10
      vertex 234.482 79.8267 10.8
      vertex 234.482 79.8267 10
    endloop
  endfacet
  facet normal -0.453365 -0.891325 0
    outer loop
      vertex 234.806 79.6619 10
      vertex 234.806 79.6619 10.8
      vertex 234.482 79.8267 10.8
    endloop
  endfacet
  facet normal -0.630077 -0.776533 0
    outer loop
      vertex 235.078 79.4412 10
      vertex 234.806 79.6619 10.8
      vertex 234.806 79.6619 10
    endloop
  endfacet
  facet normal -0.630077 -0.776533 0
    outer loop
      vertex 235.078 79.4412 10
      vertex 235.078 79.4412 10.8
      vertex 234.806 79.6619 10.8
    endloop
  endfacet
  facet normal -0.792735 -0.609567 0
    outer loop
      vertex 235.283 79.1746 10
      vertex 235.078 79.4412 10.8
      vertex 235.078 79.4412 10
    endloop
  endfacet
  facet normal -0.792735 -0.609567 0
    outer loop
      vertex 235.283 79.1746 10
      vertex 235.283 79.1746 10.8
      vertex 235.078 79.4412 10.8
    endloop
  endfacet
  facet normal -0.915854 -0.401511 0
    outer loop
      vertex 235.42 78.8621 10
      vertex 235.283 79.1746 10.8
      vertex 235.283 79.1746 10
    endloop
  endfacet
  facet normal -0.915854 -0.401511 0
    outer loop
      vertex 235.42 78.8621 10
      vertex 235.42 78.8621 10.8
      vertex 235.283 79.1746 10.8
    endloop
  endfacet
  facet normal 0.26325 -0.964728 0
    outer loop
      vertex 236.655 79.1991 10
      vertex 235.42 78.8621 10.8
      vertex 235.42 78.8621 10
    endloop
  endfacet
  facet normal 0.26325 -0.964728 0
    outer loop
      vertex 236.655 79.1991 10
      vertex 236.655 79.1991 10.8
      vertex 235.42 78.8621 10.8
    endloop
  endfacet
  facet normal 0.914147 0.405383 0
    outer loop
      vertex 236.406 79.7606 10
      vertex 236.655 79.1991 10.8
      vertex 236.655 79.1991 10
    endloop
  endfacet
  facet normal 0.914147 0.405383 -0
    outer loop
      vertex 236.406 79.7606 10
      vertex 236.406 79.7606 10.8
      vertex 236.655 79.1991 10.8
    endloop
  endfacet
  facet normal 0.800913 0.598781 0
    outer loop
      vertex 236.06 80.2234 10
      vertex 236.406 79.7606 10.8
      vertex 236.406 79.7606 10
    endloop
  endfacet
  facet normal 0.800913 0.598781 -0
    outer loop
      vertex 236.06 80.2234 10
      vertex 236.06 80.2234 10.8
      vertex 236.406 79.7606 10.8
    endloop
  endfacet
  facet normal 0.633247 0.77395 0
    outer loop
      vertex 235.615 80.5875 10
      vertex 236.06 80.2234 10.8
      vertex 236.06 80.2234 10
    endloop
  endfacet
  facet normal 0.633247 0.77395 -0
    outer loop
      vertex 235.615 80.5875 10
      vertex 235.615 80.5875 10.8
      vertex 236.06 80.2234 10.8
    endloop
  endfacet
  facet normal 0.435886 0.900002 0
    outer loop
      vertex 235.073 80.85 10
      vertex 235.615 80.5875 10.8
      vertex 235.615 80.5875 10
    endloop
  endfacet
  facet normal 0.435886 0.900002 -0
    outer loop
      vertex 235.073 80.85 10
      vertex 235.073 80.85 10.8
      vertex 235.615 80.5875 10.8
    endloop
  endfacet
  facet normal 0.239173 0.970977 0
    outer loop
      vertex 234.434 81.0074 10
      vertex 235.073 80.85 10.8
      vertex 235.073 80.85 10
    endloop
  endfacet
  facet normal 0.239173 0.970977 -0
    outer loop
      vertex 234.434 81.0074 10
      vertex 234.434 81.0074 10.8
      vertex 235.073 80.85 10.8
    endloop
  endfacet
  facet normal 0.0710547 0.997472 0
    outer loop
      vertex 233.697 81.0599 10
      vertex 234.434 81.0074 10.8
      vertex 234.434 81.0074 10
    endloop
  endfacet
  facet normal 0.0710547 0.997472 -0
    outer loop
      vertex 233.697 81.0599 10
      vertex 233.697 81.0599 10.8
      vertex 234.434 81.0074 10.8
    endloop
  endfacet
  facet normal -0.0985094 0.995136 0
    outer loop
      vertex 232.706 80.9618 10
      vertex 233.697 81.0599 10.8
      vertex 233.697 81.0599 10
    endloop
  endfacet
  facet normal -0.0985094 0.995136 0
    outer loop
      vertex 232.706 80.9618 10
      vertex 232.706 80.9618 10.8
      vertex 233.697 81.0599 10.8
    endloop
  endfacet
  facet normal -0.33744 0.941347 0
    outer loop
      vertex 231.885 80.6675 10
      vertex 232.706 80.9618 10.8
      vertex 232.706 80.9618 10
    endloop
  endfacet
  facet normal -0.33744 0.941347 0
    outer loop
      vertex 231.885 80.6675 10
      vertex 231.885 80.6675 10.8
      vertex 232.706 80.9618 10.8
    endloop
  endfacet
  facet normal -0.601765 0.798673 0
    outer loop
      vertex 231.234 80.177 10
      vertex 231.885 80.6675 10.8
      vertex 231.885 80.6675 10
    endloop
  endfacet
  facet normal -0.601765 0.798673 0
    outer loop
      vertex 231.234 80.177 10
      vertex 231.234 80.177 10.8
      vertex 231.885 80.6675 10.8
    endloop
  endfacet
  facet normal -0.818918 0.573911 0
    outer loop
      vertex 230.762 79.5035 10
      vertex 231.234 80.177 10.8
      vertex 231.234 80.177 10
    endloop
  endfacet
  facet normal -0.818918 0.573911 0
    outer loop
      vertex 230.762 79.5035 10
      vertex 230.762 79.5035 10.8
      vertex 231.234 80.177 10.8
    endloop
  endfacet
  facet normal -0.947713 0.319125 0
    outer loop
      vertex 230.478 78.6601 10
      vertex 230.762 79.5035 10.8
      vertex 230.762 79.5035 10
    endloop
  endfacet
  facet normal -0.947713 0.319125 0
    outer loop
      vertex 230.478 78.6601 10
      vertex 230.478 78.6601 10.8
      vertex 230.762 79.5035 10.8
    endloop
  endfacet
  facet normal -0.995724 0.0923787 0
    outer loop
      vertex 230.384 77.6469 10
      vertex 230.478 78.6601 10.8
      vertex 230.478 78.6601 10
    endloop
  endfacet
  facet normal -0.995724 0.0923787 0
    outer loop
      vertex 230.384 77.6469 10
      vertex 230.384 77.6469 10.8
      vertex 230.478 78.6601 10.8
    endloop
  endfacet
  facet normal -0.995361 -0.0962081 0
    outer loop
      vertex 230.482 76.633 10
      vertex 230.384 77.6469 10.8
      vertex 230.384 77.6469 10
    endloop
  endfacet
  facet normal -0.995361 -0.0962081 0
    outer loop
      vertex 230.482 76.633 10
      vertex 230.482 76.633 10.8
      vertex 230.384 77.6469 10.8
    endloop
  endfacet
  facet normal -0.945656 -0.32517 0
    outer loop
      vertex 230.775 75.7809 10
      vertex 230.482 76.633 10.8
      vertex 230.482 76.633 10
    endloop
  endfacet
  facet normal -0.945656 -0.32517 0
    outer loop
      vertex 230.775 75.7809 10
      vertex 230.775 75.7809 10.8
      vertex 230.482 76.633 10.8
    endloop
  endfacet
  facet normal -0.815964 -0.578103 0
    outer loop
      vertex 231.264 75.0907 10
      vertex 230.775 75.7809 10.8
      vertex 230.775 75.7809 10
    endloop
  endfacet
  facet normal -0.815964 -0.578103 0
    outer loop
      vertex 231.264 75.0907 10
      vertex 231.264 75.0907 10.8
      vertex 230.775 75.7809 10.8
    endloop
  endfacet
  facet normal -0.604449 -0.796644 0
    outer loop
      vertex 231.933 74.5831 10
      vertex 231.264 75.0907 10.8
      vertex 231.264 75.0907 10
    endloop
  endfacet
  facet normal -0.604449 -0.796644 0
    outer loop
      vertex 231.933 74.5831 10
      vertex 231.933 74.5831 10.8
      vertex 231.264 75.0907 10.8
    endloop
  endfacet
  facet normal -0.34379 -0.939046 0
    outer loop
      vertex 232.765 74.2785 10
      vertex 231.933 74.5831 10.8
      vertex 231.933 74.5831 10
    endloop
  endfacet
  facet normal -0.34379 -0.939046 0
    outer loop
      vertex 232.765 74.2785 10
      vertex 232.765 74.2785 10.8
      vertex 231.933 74.5831 10.8
    endloop
  endfacet
  facet normal -0.101584 -0.994827 0
    outer loop
      vertex 233.759 74.177 10
      vertex 232.765 74.2785 10.8
      vertex 232.765 74.2785 10
    endloop
  endfacet
  facet normal -0.101584 -0.994827 0
    outer loop
      vertex 233.759 74.177 10
      vertex 233.759 74.177 10.8
      vertex 232.765 74.2785 10.8
    endloop
  endfacet
  facet normal 0.0773968 -0.997 0
    outer loop
      vertex 234.434 74.2294 10
      vertex 233.759 74.177 10.8
      vertex 233.759 74.177 10
    endloop
  endfacet
  facet normal 0.0773968 -0.997 0
    outer loop
      vertex 234.434 74.2294 10
      vertex 234.434 74.2294 10.8
      vertex 233.759 74.177 10.8
    endloop
  endfacet
  facet normal 0 -1 0
    outer loop
      vertex 241.807 77.139 10
      vertex 238.892 77.139 10.8
      vertex 238.892 77.139 10
    endloop
  endfacet
  facet normal 0 -1 0
    outer loop
      vertex 241.807 77.139 10
      vertex 241.807 77.139 10.8
      vertex 238.892 77.139 10.8
    endloop
  endfacet
  facet normal -1 0 0
    outer loop
      vertex 241.807 74.2719 10
      vertex 241.807 77.139 10.8
      vertex 241.807 77.139 10
    endloop
  endfacet
  facet normal -1 0 0
    outer loop
      vertex 241.807 74.2719 10
      vertex 241.807 74.2719 10.8
      vertex 241.807 77.139 10.8
    endloop
  endfacet
  facet normal 0 -1 0
    outer loop
      vertex 243.207 74.2719 10
      vertex 241.807 74.2719 10.8
      vertex 241.807 74.2719 10
    endloop
  endfacet
  facet normal 0 -1 0
    outer loop
      vertex 243.207 74.2719 10
      vertex 243.207 74.2719 10.8
      vertex 241.807 74.2719 10.8
    endloop
  endfacet
  facet normal 1 0 0
    outer loop
      vertex 243.207 80.9602 10
      vertex 243.207 74.2719 10.8
      vertex 243.207 74.2719 10
    endloop
  endfacet
  facet normal 1 0 -0
    outer loop
      vertex 243.207 80.9602 10
      vertex 243.207 80.9602 10.8
      vertex 243.207 74.2719 10.8
    endloop
  endfacet
  facet normal 0 1 0
    outer loop
      vertex 241.807 80.9602 10
      vertex 243.207 80.9602 10.8
      vertex 243.207 80.9602 10
    endloop
  endfacet
  facet normal 0 1 0
    outer loop
      vertex 241.807 80.9602 10
      vertex 241.807 80.9602 10.8
      vertex 243.207 80.9602 10.8
    endloop
  endfacet
  facet normal -1 0 0
    outer loop
      vertex 241.807 78.2972 10
      vertex 241.807 80.9602 10.8
      vertex 241.807 80.9602 10
    endloop
  endfacet
  facet normal -1 0 0
    outer loop
      vertex 241.807 78.2972 10
      vertex 241.807 78.2972 10.8
      vertex 241.807 80.9602 10.8
    endloop
  endfacet
  facet normal 0 1 0
    outer loop
      vertex 238.892 78.2972 10
      vertex 241.807 78.2972 10.8
      vertex 241.807 78.2972 10
    endloop
  endfacet
  facet normal 0 1 0
    outer loop
      vertex 238.892 78.2972 10
      vertex 238.892 78.2972 10.8
      vertex 241.807 78.2972 10.8
    endloop
  endfacet
  facet normal 1 0 0
    outer loop
      vertex 238.892 80.9602 10
      vertex 238.892 78.2972 10.8
      vertex 238.892 78.2972 10
    endloop
  endfacet
  facet normal 1 0 -0
    outer loop
      vertex 238.892 80.9602 10
      vertex 238.892 80.9602 10.8
      vertex 238.892 78.2972 10.8
    endloop
  endfacet
  facet normal 0 1 0
    outer loop
      vertex 237.492 80.9602 10
      vertex 238.892 80.9602 10.8
      vertex 238.892 80.9602 10
    endloop
  endfacet
  facet normal 0 1 0
    outer loop
      vertex 237.492 80.9602 10
      vertex 237.492 80.9602 10.8
      vertex 238.892 80.9602 10.8
    endloop
  endfacet
  facet normal -1 0 0
    outer loop
      vertex 237.492 74.2719 10
      vertex 237.492 80.9602 10.8
      vertex 237.492 80.9602 10
    endloop
  endfacet
  facet normal -1 0 0
    outer loop
      vertex 237.492 74.2719 10
      vertex 237.492 74.2719 10.8
      vertex 237.492 80.9602 10.8
    endloop
  endfacet
  facet normal 0 -1 0
    outer loop
      vertex 238.892 74.2719 10
      vertex 237.492 74.2719 10.8
      vertex 237.492 74.2719 10
    endloop
  endfacet
  facet normal 0 -1 0
    outer loop
      vertex 238.892 74.2719 10
      vertex 238.892 74.2719 10.8
      vertex 237.492 74.2719 10.8
    endloop
  endfacet
  facet normal 1 0 0
    outer loop
      vertex 238.892 77.139 10
      vertex 238.892 74.2719 10.8
      vertex 238.892 74.2719 10
    endloop
  endfacet
  facet normal 1 0 -0
    outer loop
      vertex 238.892 77.139 10
      vertex 238.892 77.139 10.8
      vertex 238.892 74.2719 10.8
    endloop
  endfacet
  facet normal 0.999643 0.0267364 0
    outer loop
      vertex 245.583 78.553 10
      vertex 245.592 78.2165 10.8
      vertex 245.592 78.2165 10
    endloop
  endfacet
  facet normal 0.999643 0.0267364 -0
    outer loop
      vertex 245.583 78.553 10
      vertex 245.583 78.553 10.8
      vertex 245.592 78.2165 10.8
    endloop
  endfacet
  facet normal 0.997407 0.0719701 0
    outer loop
      vertex 245.554 78.9549 10
      vertex 245.583 78.553 10.8
      vertex 245.583 78.553 10
    endloop
  endfacet
  facet normal 0.997407 0.0719701 -0
    outer loop
      vertex 245.554 78.9549 10
      vertex 245.554 78.9549 10.8
      vertex 245.583 78.553 10.8
    endloop
  endfacet
  facet normal 0.994982 0.100052 0
    outer loop
      vertex 245.507 79.4223 10
      vertex 245.554 78.9549 10.8
      vertex 245.554 78.9549 10
    endloop
  endfacet
  facet normal 0.994982 0.100052 -0
    outer loop
      vertex 245.507 79.4223 10
      vertex 245.507 79.4223 10.8
      vertex 245.554 78.9549 10.8
    endloop
  endfacet
  facet normal -0.870353 -0.492429 0
    outer loop
      vertex 248.421 74.2719 10
      vertex 245.507 79.4223 10.8
      vertex 245.507 79.4223 10
    endloop
  endfacet
  facet normal -0.870353 -0.492429 0
    outer loop
      vertex 248.421 74.2719 10
      vertex 248.421 74.2719 10.8
      vertex 245.507 79.4223 10.8
    endloop
  endfacet
  facet normal 0 -1 0
    outer loop
      vertex 250.064 74.2719 10
      vertex 248.421 74.2719 10.8
      vertex 248.421 74.2719 10
    endloop
  endfacet
  facet normal 0 -1 0
    outer loop
      vertex 250.064 74.2719 10
      vertex 250.064 74.2719 10.8
      vertex 248.421 74.2719 10.8
    endloop
  endfacet
  facet normal 1 0 0
    outer loop
      vertex 250.064 80.9602 10
      vertex 250.064 74.2719 10.8
      vertex 250.064 74.2719 10
    endloop
  endfacet
  facet normal 1 0 -0
    outer loop
      vertex 250.064 80.9602 10
      vertex 250.064 80.9602 10.8
      vertex 250.064 74.2719 10.8
    endloop
  endfacet
  facet normal 0 1 0
    outer loop
      vertex 248.82 80.9602 10
      vertex 250.064 80.9602 10.8
      vertex 250.064 80.9602 10
    endloop
  endfacet
  facet normal 0 1 0
    outer loop
      vertex 248.82 80.9602 10
      vertex 248.82 80.9602 10.8
      vertex 250.064 80.9602 10.8
    endloop
  endfacet
  facet normal -1 0 0
    outer loop
      vertex 248.82 77.0725 10
      vertex 248.82 80.9602 10.8
      vertex 248.82 80.9602 10
    endloop
  endfacet
  facet normal -1 0 0
    outer loop
      vertex 248.82 77.0725 10
      vertex 248.82 77.0725 10.8
      vertex 248.82 80.9602 10.8
    endloop
  endfacet
  facet normal -0.999698 -0.0245868 0
    outer loop
      vertex 248.83 76.6659 10
      vertex 248.82 77.0725 10.8
      vertex 248.82 77.0725 10
    endloop
  endfacet
  facet normal -0.999698 -0.0245868 0
    outer loop
      vertex 248.83 76.6659 10
      vertex 248.83 76.6659 10.8
      vertex 248.82 77.0725 10.8
    endloop
  endfacet
  facet normal -0.997936 -0.0642202 0
    outer loop
      vertex 248.858 76.2308 10
      vertex 248.83 76.6659 10.8
      vertex 248.83 76.6659 10
    endloop
  endfacet
  facet normal -0.997936 -0.0642202 0
    outer loop
      vertex 248.858 76.2308 10
      vertex 248.858 76.2308 10.8
      vertex 248.83 76.6659 10.8
    endloop
  endfacet
  facet normal -0.994683 -0.102987 0
    outer loop
      vertex 248.906 75.7672 10
      vertex 248.858 76.2308 10.8
      vertex 248.858 76.2308 10
    endloop
  endfacet
  facet normal -0.994683 -0.102987 0
    outer loop
      vertex 248.906 75.7672 10
      vertex 248.906 75.7672 10.8
      vertex 248.858 76.2308 10.8
    endloop
  endfacet
  facet normal 0.868922 0.494949 0
    outer loop
      vertex 245.948 80.9602 10
      vertex 248.906 75.7672 10.8
      vertex 248.906 75.7672 10
    endloop
  endfacet
  facet normal 0.868922 0.494949 -0
    outer loop
      vertex 245.948 80.9602 10
      vertex 245.948 80.9602 10.8
      vertex 248.906 75.7672 10.8
    endloop
  endfacet
  facet normal 0 1 0
    outer loop
      vertex 244.349 80.9602 10
      vertex 245.948 80.9602 10.8
      vertex 245.948 80.9602 10
    endloop
  endfacet
  facet normal 0 1 0
    outer loop
      vertex 244.349 80.9602 10
      vertex 244.349 80.9602 10.8
      vertex 245.948 80.9602 10.8
    endloop
  endfacet
  facet normal -1 0 0
    outer loop
      vertex 244.349 74.2719 10
      vertex 244.349 80.9602 10.8
      vertex 244.349 80.9602 10
    endloop
  endfacet
  facet normal -1 0 0
    outer loop
      vertex 244.349 74.2719 10
      vertex 244.349 74.2719 10.8
      vertex 244.349 80.9602 10.8
    endloop
  endfacet
  facet normal 0 -1 0
    outer loop
      vertex 245.592 74.2719 10
      vertex 244.349 74.2719 10.8
      vertex 244.349 74.2719 10
    endloop
  endfacet
  facet normal 0 -1 0
    outer loop
      vertex 245.592 74.2719 10
      vertex 245.592 74.2719 10.8
      vertex 244.349 74.2719 10.8
    endloop
  endfacet
  facet normal 1 0 0
    outer loop
      vertex 245.592 78.2165 10
      vertex 245.592 74.2719 10.8
      vertex 245.592 74.2719 10
    endloop
  endfacet
  facet normal 1 0 -0
    outer loop
      vertex 245.592 78.2165 10
      vertex 245.592 78.2165 10.8
      vertex 245.592 74.2719 10.8
    endloop
  endfacet
endsolid OpenSCAD_Model
