solid OpenSCAD_Model
  facet normal 0 0 -1
    outer loop
      vertex 36.7468 6.26944 0
      vertex 38.7473 8.03589 0
      vertex 40.0219 4.52849 0
    endloop
  endfacet
  facet normal -0 0 -1
    outer loop
      vertex 30.8004 3.2986 0
      vertex 30.741 3.29483 0
      vertex 29.6496 4.65335 0
    endloop
  endfacet
  facet normal 0 -0 -1
    outer loop
      vertex 41.023 7.82643 0
      vertex 41.2175 7.35101 0
      vertex 40.404 7.6366 0
    endloop
  endfacet
  facet normal 0 0 -1
    outer loop
      vertex 28.5223 -9.73462 0
      vertex 30.5008 -9.76144 0
      vertex 30.3335 -9.87772 0
    endloop
  endfacet
  facet normal 0 0 -1
    outer loop
      vertex 30.3335 -9.87772 0
      vertex 30.2192 -10.3965 0
      vertex 29.8214 -10.588 0
    endloop
  endfacet
  facet normal 0 -0 -1
    outer loop
      vertex 32.2393 -9.82394 0
      vertex 32.6298 -10.6996 0
      vertex 32.2367 -9.98024 0
    endloop
  endfacet
  facet normal 0 0 -1
    outer loop
      vertex 28.5223 -9.73462 0
      vertex 30.3335 -9.87772 0
      vertex 29.8214 -10.588 0
    endloop
  endfacet
  facet normal 0 0 -1
    outer loop
      vertex 32.2374 -1.14153 0
      vertex 30.9642 -0.373856 0
      vertex 31.1382 0.704803 0
    endloop
  endfacet
  facet normal 0 -0 -1
    outer loop
      vertex 32.0845 -4.2836 0
      vertex 35.8802 -4.83214 0
      vertex 31.7037 -5.18689 0
    endloop
  endfacet
  facet normal 0 0 -1
    outer loop
      vertex 34.4394 -8.95277 0
      vertex 31.6438 -5.35439 0
      vertex 35.7321 -7.65598 0
    endloop
  endfacet
  facet normal 0 0 -1
    outer loop
      vertex 30.5008 -9.76144 0
      vertex 31.8483 -9.42329 0
      vertex 30.9578 -9.82544 0
    endloop
  endfacet
  facet normal 0 0 -1
    outer loop
      vertex 32.0393 -9.48395 0
      vertex 34.3954 -8.98247 0
      vertex 32.2393 -9.82394 0
    endloop
  endfacet
  facet normal 0 0 -1
    outer loop
      vertex 25.0866 -8.31371 0
      vertex 25.5542 -8.01756 0
      vertex 25.8696 -8.30148 0
    endloop
  endfacet
  facet normal 0 0 -1
    outer loop
      vertex 32.6298 -10.6996 0
      vertex 32.1487 -10.6194 0
      vertex 32.078 -10.2308 0
    endloop
  endfacet
  facet normal 0 -0 -1
    outer loop
      vertex 32.2367 -9.98024 0
      vertex 32.6298 -10.6996 0
      vertex 32.078 -10.2308 0
    endloop
  endfacet
  facet normal 0 0 -1
    outer loop
      vertex 32.2393 -9.82394 0
      vertex 34.3954 -8.98247 0
      vertex 32.6298 -10.6996 0
    endloop
  endfacet
  facet normal -0 0 -1
    outer loop
      vertex 35.1648 -8.63248 0
      vertex 34.4394 -8.95277 0
      vertex 35.7321 -7.65598 0
    endloop
  endfacet
  facet normal 0 0 -1
    outer loop
      vertex 32.0845 -4.2836 0
      vertex 32.1096 -4.21021 0
      vertex 35.8802 -4.83214 0
    endloop
  endfacet
  facet normal 0 0 -1
    outer loop
      vertex 31.634 -4.95476 0
      vertex 32.0845 -4.2836 0
      vertex 31.7037 -5.18689 0
    endloop
  endfacet
  facet normal 0 0 -1
    outer loop
      vertex 32.2374 -1.14153 0
      vertex 31.9696 1.33508 0
      vertex 35.6003 3.60979 0
    endloop
  endfacet
  facet normal 0 0 -1
    outer loop
      vertex 35.6003 3.60979 0
      vertex 31.9696 1.33508 0
      vertex 32.2096 1.94508 0
    endloop
  endfacet
  facet normal 0 0 -1
    outer loop
      vertex 40.0111 4.48856 0
      vertex 35.8858 4.65314 0
      vertex 36.7321 6.22902 0
    endloop
  endfacet
  facet normal 0 -0 -1
    outer loop
      vertex 36.7468 6.26944 0
      vertex 40.0219 4.52849 0
      vertex 36.7321 6.22902 0
    endloop
  endfacet
  facet normal 0 0 -1
    outer loop
      vertex 38.7473 8.03589 0
      vertex 40.323 7.63464 0
      vertex 40.0219 4.52849 0
    endloop
  endfacet
  facet normal 0 0 -1
    outer loop
      vertex 40.0111 4.48856 0
      vertex 36.7321 6.22902 0
      vertex 40.0219 4.52849 0
    endloop
  endfacet
  facet normal 0 0 -1
    outer loop
      vertex 40.0219 4.52849 0
      vertex 40.323 7.63464 0
      vertex 41.2175 7.35101 0
    endloop
  endfacet
  facet normal 0 0 -1
    outer loop
      vertex 40.323 7.63464 0
      vertex 40.404 7.6366 0
      vertex 41.2175 7.35101 0
    endloop
  endfacet
  facet normal 0 0 -1
    outer loop
      vertex 38.7473 8.03589 0
      vertex 36.7468 6.26944 0
      vertex 37.037 7.66411 0
    endloop
  endfacet
  facet normal 0 0 -1
    outer loop
      vertex 35.8858 4.65314 0
      vertex 40.0111 4.48856 0
      vertex 36.0083 3.85266 0
    endloop
  endfacet
  facet normal 0 0 -1
    outer loop
      vertex 32.3617 4.73871 0
      vertex 31.6423 3.12057 0
      vertex 31.5303 3.19859 0
    endloop
  endfacet
  facet normal -0 0 -1
    outer loop
      vertex 35.6003 3.60979 0
      vertex 32.2023 2.07059 0
      vertex 34.9228 4.11551 0
    endloop
  endfacet
  facet normal 0 0 -1
    outer loop
      vertex 30.741 3.29483 0
      vertex 29.422 3.96201 0
      vertex 29.6496 4.65335 0
    endloop
  endfacet
  facet normal 0 -0 -1
    outer loop
      vertex 36.0083 3.85266 0
      vertex 40.0111 4.48856 0
      vertex 35.936 3.7007 0
    endloop
  endfacet
  facet normal 0 0 -1
    outer loop
      vertex 35.766 3.60071 0
      vertex 35.936 3.7007 0
      vertex 39.3089 -1.1395 0
    endloop
  endfacet
  facet normal 0 0 -1
    outer loop
      vertex 35.936 3.7007 0
      vertex 40.0111 4.48856 0
      vertex 39.3089 -1.1395 0
    endloop
  endfacet
  facet normal 0 0 -1
    outer loop
      vertex 37.4182 -2.60132 0
      vertex 35.766 3.60071 0
      vertex 39.3089 -1.1395 0
    endloop
  endfacet
  facet normal 0 0 -1
    outer loop
      vertex 32.2096 1.94508 0
      vertex 32.2023 2.07059 0
      vertex 35.6003 3.60979 0
    endloop
  endfacet
  facet normal 0 0 -1
    outer loop
      vertex 37.4182 -2.60132 0
      vertex 35.6003 3.60979 0
      vertex 35.766 3.60071 0
    endloop
  endfacet
  facet normal 0 0 -1
    outer loop
      vertex 33.1032 4.32094 0
      vertex 32.2023 2.07059 0
      vertex 31.6423 3.12057 0
    endloop
  endfacet
  facet normal 0 0 -1
    outer loop
      vertex 29.5047 2.96164 0
      vertex 29.422 3.96201 0
      vertex 30.741 3.29483 0
    endloop
  endfacet
  facet normal 0 0 -1
    outer loop
      vertex 29.6496 4.65335 0
      vertex 32.3617 4.73871 0
      vertex 30.8004 3.2986 0
    endloop
  endfacet
  facet normal 0 -0 -1
    outer loop
      vertex 31.9696 1.33508 0
      vertex 32.2374 -1.14153 0
      vertex 31.9179 1.26843 0
    endloop
  endfacet
  facet normal -0 0 -1
    outer loop
      vertex 36.6382 -4.00005 0
      vertex 35.9225 -4.73537 0
      vertex 32.3096 -1.2802 0
    endloop
  endfacet
  facet normal 0 0 -1
    outer loop
      vertex 30.8236 -5.62552 0
      vertex 29.8947 -5.46783 0
      vertex 30.0233 -5.42874 0
    endloop
  endfacet
  facet normal 0 -0 -1
    outer loop
      vertex 29.8947 -5.46783 0
      vertex 30.5008 -9.76144 0
      vertex 28.5223 -9.73462 0
    endloop
  endfacet
  facet normal 0 0 -1
    outer loop
      vertex 27.6911 -5.32674 0
      vertex 28.7368 -5.20895 0
      vertex 28.8447 -5.28784 0
    endloop
  endfacet
  facet normal 0 0 -1
    outer loop
      vertex 36.6382 -4.00005 0
      vertex 32.3096 -1.2802 0
      vertex 37.3784 -2.64795 0
    endloop
  endfacet
  facet normal 0 0 -1
    outer loop
      vertex 30.8004 3.2986 0
      vertex 32.3617 4.73871 0
      vertex 31.5303 3.19859 0
    endloop
  endfacet
  facet normal 0 0 -1
    outer loop
      vertex 35.6003 3.60979 0
      vertex 32.3096 -1.2802 0
      vertex 32.2374 -1.14153 0
    endloop
  endfacet
  facet normal 0 -0 -1
    outer loop
      vertex 32.3617 4.73871 0
      vertex 33.0444 4.34042 0
      vertex 31.6423 3.12057 0
    endloop
  endfacet
  facet normal 0 0 -1
    outer loop
      vertex 31.6423 3.12057 0
      vertex 33.0444 4.34042 0
      vertex 33.1032 4.32094 0
    endloop
  endfacet
  facet normal 0 0 -1
    outer loop
      vertex 32.2023 2.07059 0
      vertex 33.1032 4.32094 0
      vertex 34.9228 4.11551 0
    endloop
  endfacet
  facet normal 0 0 -1
    outer loop
      vertex 35.8802 -4.83214 0
      vertex 32.1096 -4.21021 0
      vertex 35.9225 -4.73537 0
    endloop
  endfacet
  facet normal 0 0 -1
    outer loop
      vertex 31.1382 0.704803 0
      vertex 31.9179 1.26843 0
      vertex 32.2374 -1.14153 0
    endloop
  endfacet
  facet normal 0 -0 -1
    outer loop
      vertex 31.0636 -5.68552 0
      vertex 31.8483 -9.42329 0
      vertex 30.5008 -9.76144 0
    endloop
  endfacet
  facet normal 0 0 -1
    outer loop
      vertex 28.8447 -5.28784 0
      vertex 26.6682 -7.40309 0
      vertex 27.6911 -5.32674 0
    endloop
  endfacet
  facet normal 0 0 -1
    outer loop
      vertex 35.8802 -4.83214 0
      vertex 31.6438 -5.35439 0
      vertex 31.7037 -5.18689 0
    endloop
  endfacet
  facet normal 0 0 -1
    outer loop
      vertex 32.3096 -1.2802 0
      vertex 37.4182 -2.60132 0
      vertex 37.3784 -2.64795 0
    endloop
  endfacet
  facet normal 0 -0 -1
    outer loop
      vertex 35.6003 3.60979 0
      vertex 37.4182 -2.60132 0
      vertex 32.3096 -1.2802 0
    endloop
  endfacet
  facet normal 0 0 -1
    outer loop
      vertex 32.1096 -4.21021 0
      vertex 32.3096 -1.2802 0
      vertex 35.9225 -4.73537 0
    endloop
  endfacet
  facet normal 0 0 -1
    outer loop
      vertex 35.8802 -4.83214 0
      vertex 35.7321 -7.65598 0
      vertex 31.6438 -5.35439 0
    endloop
  endfacet
  facet normal 0 0 -1
    outer loop
      vertex 32.0393 -9.48395 0
      vertex 31.1838 -5.66438 0
      vertex 31.6438 -5.35439 0
    endloop
  endfacet
  facet normal 0 0 -1
    outer loop
      vertex 32.0393 -9.48395 0
      vertex 31.6438 -5.35439 0
      vertex 34.3954 -8.98247 0
    endloop
  endfacet
  facet normal -0 0 -1
    outer loop
      vertex 34.4394 -8.95277 0
      vertex 34.3954 -8.98247 0
      vertex 31.6438 -5.35439 0
    endloop
  endfacet
  facet normal 0 -0 -1
    outer loop
      vertex 31.1838 -5.66438 0
      vertex 31.8483 -9.42329 0
      vertex 31.0636 -5.68552 0
    endloop
  endfacet
  facet normal 0 0 -1
    outer loop
      vertex 32.0393 -9.48395 0
      vertex 31.8483 -9.42329 0
      vertex 31.1838 -5.66438 0
    endloop
  endfacet
  facet normal 0 0 -1
    outer loop
      vertex 30.5008 -9.76144 0
      vertex 30.8236 -5.62552 0
      vertex 31.0636 -5.68552 0
    endloop
  endfacet
  facet normal 0 0 -1
    outer loop
      vertex 30.8236 -5.62552 0
      vertex 30.0233 -5.42874 0
      vertex 30.724 -5.54332 0
    endloop
  endfacet
  facet normal 0 0 -1
    outer loop
      vertex 30.5008 -9.76144 0
      vertex 29.8947 -5.46783 0
      vertex 30.8236 -5.62552 0
    endloop
  endfacet
  facet normal 0 -0 -1
    outer loop
      vertex 30.4721 -5.00241 0
      vertex 30.724 -5.54332 0
      vertex 30.0233 -5.42874 0
    endloop
  endfacet
  facet normal 0 0 -1
    outer loop
      vertex 28.5223 -9.73462 0
      vertex 28.8447 -5.28784 0
      vertex 29.8947 -5.46783 0
    endloop
  endfacet
  facet normal -0 0 -1
    outer loop
      vertex 28.7368 -5.20895 0
      vertex 27.6911 -5.32674 0
      vertex 27.8099 -5.17494 0
    endloop
  endfacet
  facet normal -0 0 -1
    outer loop
      vertex 28.3189 -4.40166 0
      vertex 27.8099 -5.17494 0
      vertex 27.7827 -4.36909 0
    endloop
  endfacet
  facet normal 0 -0 -1
    outer loop
      vertex 27.9894 -4.23328 0
      vertex 28.3189 -4.40166 0
      vertex 27.7827 -4.36909 0
    endloop
  endfacet
  facet normal 0 0 -1
    outer loop
      vertex 26.8411 -5.50673 0
      vertex 26.2761 -6.66396 0
      vertex 26.212 -6.50439 0
    endloop
  endfacet
  facet normal 0 0 -1
    outer loop
      vertex 26.602 -7.25439 0
      vertex 26.1999 -6.99178 0
      vertex 26.2761 -6.66396 0
    endloop
  endfacet
  facet normal 0 0 -1
    outer loop
      vertex 27.8099 -5.17494 0
      vertex 28.3189 -4.40166 0
      vertex 28.7368 -5.20895 0
    endloop
  endfacet
  facet normal 0 0 -1
    outer loop
      vertex 26.212 -6.50439 0
      vertex 25.8014 -6.23627 0
      vertex 26.7882 -5.50839 0
    endloop
  endfacet
  facet normal -0 0 -1
    outer loop
      vertex 26.7882 -5.50839 0
      vertex 25.8014 -6.23627 0
      vertex 25.9181 -5.38045 0
    endloop
  endfacet
  facet normal 0 0 -1
    outer loop
      vertex 28.3777 -9.72353 0
      vertex 26.5482 -8.1731 0
      vertex 26.6682 -7.40309 0
    endloop
  endfacet
  facet normal -0 0 -1
    outer loop
      vertex 28.3777 -9.72353 0
      vertex 27.4577 -10.1435 0
      vertex 26.5482 -8.1731 0
    endloop
  endfacet
  facet normal 0 0 -1
    outer loop
      vertex 26.2761 -6.66396 0
      vertex 26.8411 -5.50673 0
      vertex 26.602 -7.25439 0
    endloop
  endfacet
  facet normal 0 0 -1
    outer loop
      vertex 26.212 -6.50439 0
      vertex 26.7882 -5.50839 0
      vertex 26.8411 -5.50673 0
    endloop
  endfacet
  facet normal 0 -0 -1
    outer loop
      vertex 26.8411 -5.50673 0
      vertex 27.6911 -5.32674 0
      vertex 26.602 -7.25439 0
    endloop
  endfacet
  facet normal 0 -0 -1
    outer loop
      vertex 26.5482 -8.1731 0
      vertex 27.4577 -10.1435 0
      vertex 26.4139 -8.29935 0
    endloop
  endfacet
  facet normal 0 0 -1
    outer loop
      vertex 26.6682 -7.40309 0
      vertex 28.8447 -5.28784 0
      vertex 28.5223 -9.73462 0
    endloop
  endfacet
  facet normal 0 0 -1
    outer loop
      vertex 26.602 -7.25439 0
      vertex 27.6911 -5.32674 0
      vertex 26.6682 -7.40309 0
    endloop
  endfacet
  facet normal 0 0 -1
    outer loop
      vertex 28.3777 -9.72353 0
      vertex 26.6682 -7.40309 0
      vertex 28.5223 -9.73462 0
    endloop
  endfacet
  facet normal 0 -0 -1
    outer loop
      vertex 26.4139 -8.29935 0
      vertex 27.4577 -10.1435 0
      vertex 26.2764 -10.0543 0
    endloop
  endfacet
  facet normal 0 0 -1
    outer loop
      vertex 25.9839 -8.33934 0
      vertex 26.4139 -8.29935 0
      vertex 26.2764 -10.0543 0
    endloop
  endfacet
  facet normal 0 0 -1
    outer loop
      vertex 26.2764 -10.0543 0
      vertex 27.4577 -10.1435 0
      vertex 27.4114 -10.1765 0
    endloop
  endfacet
  facet normal 0 -0 -1
    outer loop
      vertex 25.0866 -8.31371 0
      vertex 25.8696 -8.30148 0
      vertex 24.911 -8.67943 0
    endloop
  endfacet
  facet normal 0 0 -1
    outer loop
      vertex 24.911 -8.67943 0
      vertex 25.8696 -8.30148 0
      vertex 25.9839 -8.33934 0
    endloop
  endfacet
  facet normal 0 0 -1
    outer loop
      vertex 26.2764 -10.0543 0
      vertex 24.911 -8.67943 0
      vertex 25.9839 -8.33934 0
    endloop
  endfacet
  facet normal 0 0 -1
    outer loop
      vertex 26.7419 -10.879 0
      vertex 26.3011 -10.087 0
      vertex 27.4114 -10.1765 0
    endloop
  endfacet
  facet normal 0 0 -1
    outer loop
      vertex 26.3011 -10.087 0
      vertex 26.2764 -10.0543 0
      vertex 27.4114 -10.1765 0
    endloop
  endfacet
  facet normal 0 0 1
    outer loop
      vertex 40.0219 4.52849 10
      vertex 38.7473 8.03589 10
      vertex 36.7468 6.26944 10
    endloop
  endfacet
  facet normal 0 0 1
    outer loop
      vertex 29.6496 4.65335 10
      vertex 30.741 3.29483 10
      vertex 30.8004 3.2986 10
    endloop
  endfacet
  facet normal -0 0 1
    outer loop
      vertex 40.404 7.6366 10
      vertex 41.2175 7.35101 10
      vertex 41.023 7.82643 10
    endloop
  endfacet
  facet normal 0 -0 1
    outer loop
      vertex 30.3335 -9.87772 10
      vertex 30.5008 -9.76144 10
      vertex 28.5223 -9.73462 10
    endloop
  endfacet
  facet normal 0 0 1
    outer loop
      vertex 29.8214 -10.588 10
      vertex 30.2192 -10.3965 10
      vertex 30.3335 -9.87772 10
    endloop
  endfacet
  facet normal -0 0 1
    outer loop
      vertex 32.2367 -9.98024 10
      vertex 32.6298 -10.6996 10
      vertex 32.2393 -9.82394 10
    endloop
  endfacet
  facet normal 0 -0 1
    outer loop
      vertex 29.8214 -10.588 10
      vertex 30.3335 -9.87772 10
      vertex 28.5223 -9.73462 10
    endloop
  endfacet
  facet normal 0 0 1
    outer loop
      vertex 31.1382 0.704803 10
      vertex 30.9642 -0.373856 10
      vertex 32.2374 -1.14153 10
    endloop
  endfacet
  facet normal 0 0 1
    outer loop
      vertex 31.7037 -5.18689 10
      vertex 35.8802 -4.83214 10
      vertex 32.0845 -4.2836 10
    endloop
  endfacet
  facet normal 0 0 1
    outer loop
      vertex 35.7321 -7.65598 10
      vertex 31.6438 -5.35439 10
      vertex 34.4394 -8.95277 10
    endloop
  endfacet
  facet normal 0 -0 1
    outer loop
      vertex 30.9578 -9.82544 10
      vertex 31.8483 -9.42329 10
      vertex 30.5008 -9.76144 10
    endloop
  endfacet
  facet normal 0 -0 1
    outer loop
      vertex 32.2393 -9.82394 10
      vertex 34.3954 -8.98247 10
      vertex 32.0393 -9.48395 10
    endloop
  endfacet
  facet normal 0 0 1
    outer loop
      vertex 25.8696 -8.30148 10
      vertex 25.5542 -8.01756 10
      vertex 25.0866 -8.31371 10
    endloop
  endfacet
  facet normal 0 0 1
    outer loop
      vertex 32.078 -10.2308 10
      vertex 32.1487 -10.6194 10
      vertex 32.6298 -10.6996 10
    endloop
  endfacet
  facet normal -0 0 1
    outer loop
      vertex 32.078 -10.2308 10
      vertex 32.6298 -10.6996 10
      vertex 32.2367 -9.98024 10
    endloop
  endfacet
  facet normal 0 -0 1
    outer loop
      vertex 32.6298 -10.6996 10
      vertex 34.3954 -8.98247 10
      vertex 32.2393 -9.82394 10
    endloop
  endfacet
  facet normal 0 0 1
    outer loop
      vertex 35.7321 -7.65598 10
      vertex 34.4394 -8.95277 10
      vertex 35.1648 -8.63248 10
    endloop
  endfacet
  facet normal 0 0 1
    outer loop
      vertex 35.8802 -4.83214 10
      vertex 32.1096 -4.21021 10
      vertex 32.0845 -4.2836 10
    endloop
  endfacet
  facet normal 0 -0 1
    outer loop
      vertex 31.7037 -5.18689 10
      vertex 32.0845 -4.2836 10
      vertex 31.634 -4.95476 10
    endloop
  endfacet
  facet normal 0 0 1
    outer loop
      vertex 35.6003 3.60979 10
      vertex 31.9696 1.33508 10
      vertex 32.2374 -1.14153 10
    endloop
  endfacet
  facet normal -0 0 1
    outer loop
      vertex 32.2096 1.94508 10
      vertex 31.9696 1.33508 10
      vertex 35.6003 3.60979 10
    endloop
  endfacet
  facet normal 0 0 1
    outer loop
      vertex 36.7321 6.22902 10
      vertex 35.8858 4.65314 10
      vertex 40.0111 4.48856 10
    endloop
  endfacet
  facet normal -0 0 1
    outer loop
      vertex 36.7321 6.22902 10
      vertex 40.0219 4.52849 10
      vertex 36.7468 6.26944 10
    endloop
  endfacet
  facet normal 0 -0 1
    outer loop
      vertex 40.0219 4.52849 10
      vertex 40.323 7.63464 10
      vertex 38.7473 8.03589 10
    endloop
  endfacet
  facet normal 0 0 1
    outer loop
      vertex 40.0219 4.52849 10
      vertex 36.7321 6.22902 10
      vertex 40.0111 4.48856 10
    endloop
  endfacet
  facet normal 0 0 1
    outer loop
      vertex 41.2175 7.35101 10
      vertex 40.323 7.63464 10
      vertex 40.0219 4.52849 10
    endloop
  endfacet
  facet normal 0 0 1
    outer loop
      vertex 41.2175 7.35101 10
      vertex 40.404 7.6366 10
      vertex 40.323 7.63464 10
    endloop
  endfacet
  facet normal -0 0 1
    outer loop
      vertex 37.037 7.66411 10
      vertex 36.7468 6.26944 10
      vertex 38.7473 8.03589 10
    endloop
  endfacet
  facet normal 0 -0 1
    outer loop
      vertex 36.0083 3.85266 10
      vertex 40.0111 4.48856 10
      vertex 35.8858 4.65314 10
    endloop
  endfacet
  facet normal -0 0 1
    outer loop
      vertex 31.5303 3.19859 10
      vertex 31.6423 3.12057 10
      vertex 32.3617 4.73871 10
    endloop
  endfacet
  facet normal 0 0 1
    outer loop
      vertex 34.9228 4.11551 10
      vertex 32.2023 2.07059 10
      vertex 35.6003 3.60979 10
    endloop
  endfacet
  facet normal 0 0 1
    outer loop
      vertex 29.6496 4.65335 10
      vertex 29.422 3.96201 10
      vertex 30.741 3.29483 10
    endloop
  endfacet
  facet normal 0 0 1
    outer loop
      vertex 35.936 3.7007 10
      vertex 40.0111 4.48856 10
      vertex 36.0083 3.85266 10
    endloop
  endfacet
  facet normal 0 0 1
    outer loop
      vertex 39.3089 -1.1395 10
      vertex 35.936 3.7007 10
      vertex 35.766 3.60071 10
    endloop
  endfacet
  facet normal 0 -0 1
    outer loop
      vertex 39.3089 -1.1395 10
      vertex 40.0111 4.48856 10
      vertex 35.936 3.7007 10
    endloop
  endfacet
  facet normal 0 0 1
    outer loop
      vertex 39.3089 -1.1395 10
      vertex 35.766 3.60071 10
      vertex 37.4182 -2.60132 10
    endloop
  endfacet
  facet normal 0 0 1
    outer loop
      vertex 35.6003 3.60979 10
      vertex 32.2023 2.07059 10
      vertex 32.2096 1.94508 10
    endloop
  endfacet
  facet normal 0 0 1
    outer loop
      vertex 35.766 3.60071 10
      vertex 35.6003 3.60979 10
      vertex 37.4182 -2.60132 10
    endloop
  endfacet
  facet normal -0 0 1
    outer loop
      vertex 31.6423 3.12057 10
      vertex 32.2023 2.07059 10
      vertex 33.1032 4.32094 10
    endloop
  endfacet
  facet normal 0 0 1
    outer loop
      vertex 30.741 3.29483 10
      vertex 29.422 3.96201 10
      vertex 29.5047 2.96164 10
    endloop
  endfacet
  facet normal 0 -0 1
    outer loop
      vertex 30.8004 3.2986 10
      vertex 32.3617 4.73871 10
      vertex 29.6496 4.65335 10
    endloop
  endfacet
  facet normal -0 0 1
    outer loop
      vertex 31.9179 1.26843 10
      vertex 32.2374 -1.14153 10
      vertex 31.9696 1.33508 10
    endloop
  endfacet
  facet normal 0 0 1
    outer loop
      vertex 32.3096 -1.2802 10
      vertex 35.9225 -4.73537 10
      vertex 36.6382 -4.00005 10
    endloop
  endfacet
  facet normal 0 0 1
    outer loop
      vertex 30.0233 -5.42874 10
      vertex 29.8947 -5.46783 10
      vertex 30.8236 -5.62552 10
    endloop
  endfacet
  facet normal -0 0 1
    outer loop
      vertex 28.5223 -9.73462 10
      vertex 30.5008 -9.76144 10
      vertex 29.8947 -5.46783 10
    endloop
  endfacet
  facet normal 0 0 1
    outer loop
      vertex 28.8447 -5.28784 10
      vertex 28.7368 -5.20895 10
      vertex 27.6911 -5.32674 10
    endloop
  endfacet
  facet normal 0 0 1
    outer loop
      vertex 37.3784 -2.64795 10
      vertex 32.3096 -1.2802 10
      vertex 36.6382 -4.00005 10
    endloop
  endfacet
  facet normal 0 -0 1
    outer loop
      vertex 31.5303 3.19859 10
      vertex 32.3617 4.73871 10
      vertex 30.8004 3.2986 10
    endloop
  endfacet
  facet normal -0 0 1
    outer loop
      vertex 32.2374 -1.14153 10
      vertex 32.3096 -1.2802 10
      vertex 35.6003 3.60979 10
    endloop
  endfacet
  facet normal 0 0 1
    outer loop
      vertex 31.6423 3.12057 10
      vertex 33.0444 4.34042 10
      vertex 32.3617 4.73871 10
    endloop
  endfacet
  facet normal 0 0 1
    outer loop
      vertex 33.1032 4.32094 10
      vertex 33.0444 4.34042 10
      vertex 31.6423 3.12057 10
    endloop
  endfacet
  facet normal 0 0 1
    outer loop
      vertex 34.9228 4.11551 10
      vertex 33.1032 4.32094 10
      vertex 32.2023 2.07059 10
    endloop
  endfacet
  facet normal 0 0 1
    outer loop
      vertex 35.9225 -4.73537 10
      vertex 32.1096 -4.21021 10
      vertex 35.8802 -4.83214 10
    endloop
  endfacet
  facet normal 0 0 1
    outer loop
      vertex 32.2374 -1.14153 10
      vertex 31.9179 1.26843 10
      vertex 31.1382 0.704803 10
    endloop
  endfacet
  facet normal 0 0 1
    outer loop
      vertex 30.5008 -9.76144 10
      vertex 31.8483 -9.42329 10
      vertex 31.0636 -5.68552 10
    endloop
  endfacet
  facet normal -0 0 1
    outer loop
      vertex 27.6911 -5.32674 10
      vertex 26.6682 -7.40309 10
      vertex 28.8447 -5.28784 10
    endloop
  endfacet
  facet normal -0 0 1
    outer loop
      vertex 31.7037 -5.18689 10
      vertex 31.6438 -5.35439 10
      vertex 35.8802 -4.83214 10
    endloop
  endfacet
  facet normal 0 -0 1
    outer loop
      vertex 37.3784 -2.64795 10
      vertex 37.4182 -2.60132 10
      vertex 32.3096 -1.2802 10
    endloop
  endfacet
  facet normal -0 0 1
    outer loop
      vertex 32.3096 -1.2802 10
      vertex 37.4182 -2.60132 10
      vertex 35.6003 3.60979 10
    endloop
  endfacet
  facet normal 0 0 1
    outer loop
      vertex 35.9225 -4.73537 10
      vertex 32.3096 -1.2802 10
      vertex 32.1096 -4.21021 10
    endloop
  endfacet
  facet normal -0 0 1
    outer loop
      vertex 31.6438 -5.35439 10
      vertex 35.7321 -7.65598 10
      vertex 35.8802 -4.83214 10
    endloop
  endfacet
  facet normal 0 0 1
    outer loop
      vertex 31.6438 -5.35439 10
      vertex 31.1838 -5.66438 10
      vertex 32.0393 -9.48395 10
    endloop
  endfacet
  facet normal 0 0 1
    outer loop
      vertex 34.3954 -8.98247 10
      vertex 31.6438 -5.35439 10
      vertex 32.0393 -9.48395 10
    endloop
  endfacet
  facet normal 0 0 1
    outer loop
      vertex 31.6438 -5.35439 10
      vertex 34.3954 -8.98247 10
      vertex 34.4394 -8.95277 10
    endloop
  endfacet
  facet normal -0 0 1
    outer loop
      vertex 31.0636 -5.68552 10
      vertex 31.8483 -9.42329 10
      vertex 31.1838 -5.66438 10
    endloop
  endfacet
  facet normal 0 0 1
    outer loop
      vertex 31.1838 -5.66438 10
      vertex 31.8483 -9.42329 10
      vertex 32.0393 -9.48395 10
    endloop
  endfacet
  facet normal 0 0 1
    outer loop
      vertex 31.0636 -5.68552 10
      vertex 30.8236 -5.62552 10
      vertex 30.5008 -9.76144 10
    endloop
  endfacet
  facet normal 0 0 1
    outer loop
      vertex 30.724 -5.54332 10
      vertex 30.0233 -5.42874 10
      vertex 30.8236 -5.62552 10
    endloop
  endfacet
  facet normal 0 0 1
    outer loop
      vertex 30.8236 -5.62552 10
      vertex 29.8947 -5.46783 10
      vertex 30.5008 -9.76144 10
    endloop
  endfacet
  facet normal -0 0 1
    outer loop
      vertex 30.0233 -5.42874 10
      vertex 30.724 -5.54332 10
      vertex 30.4721 -5.00241 10
    endloop
  endfacet
  facet normal 0 0 1
    outer loop
      vertex 29.8947 -5.46783 10
      vertex 28.8447 -5.28784 10
      vertex 28.5223 -9.73462 10
    endloop
  endfacet
  facet normal 0 0 1
    outer loop
      vertex 27.8099 -5.17494 10
      vertex 27.6911 -5.32674 10
      vertex 28.7368 -5.20895 10
    endloop
  endfacet
  facet normal 0 0 1
    outer loop
      vertex 27.7827 -4.36909 10
      vertex 27.8099 -5.17494 10
      vertex 28.3189 -4.40166 10
    endloop
  endfacet
  facet normal -0 0 1
    outer loop
      vertex 27.7827 -4.36909 10
      vertex 28.3189 -4.40166 10
      vertex 27.9894 -4.23328 10
    endloop
  endfacet
  facet normal -0 0 1
    outer loop
      vertex 26.212 -6.50439 10
      vertex 26.2761 -6.66396 10
      vertex 26.8411 -5.50673 10
    endloop
  endfacet
  facet normal 0 0 1
    outer loop
      vertex 26.2761 -6.66396 10
      vertex 26.1999 -6.99178 10
      vertex 26.602 -7.25439 10
    endloop
  endfacet
  facet normal 0 0 1
    outer loop
      vertex 28.7368 -5.20895 10
      vertex 28.3189 -4.40166 10
      vertex 27.8099 -5.17494 10
    endloop
  endfacet
  facet normal 0 0 1
    outer loop
      vertex 26.7882 -5.50839 10
      vertex 25.8014 -6.23627 10
      vertex 26.212 -6.50439 10
    endloop
  endfacet
  facet normal 0 0 1
    outer loop
      vertex 25.9181 -5.38045 10
      vertex 25.8014 -6.23627 10
      vertex 26.7882 -5.50839 10
    endloop
  endfacet
  facet normal 0 0 1
    outer loop
      vertex 26.6682 -7.40309 10
      vertex 26.5482 -8.1731 10
      vertex 28.3777 -9.72353 10
    endloop
  endfacet
  facet normal 0 0 1
    outer loop
      vertex 26.5482 -8.1731 10
      vertex 27.4577 -10.1435 10
      vertex 28.3777 -9.72353 10
    endloop
  endfacet
  facet normal 0 -0 1
    outer loop
      vertex 26.602 -7.25439 10
      vertex 26.8411 -5.50673 10
      vertex 26.2761 -6.66396 10
    endloop
  endfacet
  facet normal 0 0 1
    outer loop
      vertex 26.8411 -5.50673 10
      vertex 26.7882 -5.50839 10
      vertex 26.212 -6.50439 10
    endloop
  endfacet
  facet normal 0 0 1
    outer loop
      vertex 26.602 -7.25439 10
      vertex 27.6911 -5.32674 10
      vertex 26.8411 -5.50673 10
    endloop
  endfacet
  facet normal -0 0 1
    outer loop
      vertex 26.4139 -8.29935 10
      vertex 27.4577 -10.1435 10
      vertex 26.5482 -8.1731 10
    endloop
  endfacet
  facet normal 0 -0 1
    outer loop
      vertex 28.5223 -9.73462 10
      vertex 28.8447 -5.28784 10
      vertex 26.6682 -7.40309 10
    endloop
  endfacet
  facet normal 0 -0 1
    outer loop
      vertex 26.6682 -7.40309 10
      vertex 27.6911 -5.32674 10
      vertex 26.602 -7.25439 10
    endloop
  endfacet
  facet normal 0 0 1
    outer loop
      vertex 28.5223 -9.73462 10
      vertex 26.6682 -7.40309 10
      vertex 28.3777 -9.72353 10
    endloop
  endfacet
  facet normal -0 0 1
    outer loop
      vertex 26.2764 -10.0543 10
      vertex 27.4577 -10.1435 10
      vertex 26.4139 -8.29935 10
    endloop
  endfacet
  facet normal 0 -0 1
    outer loop
      vertex 26.2764 -10.0543 10
      vertex 26.4139 -8.29935 10
      vertex 25.9839 -8.33934 10
    endloop
  endfacet
  facet normal 0 -0 1
    outer loop
      vertex 27.4114 -10.1765 10
      vertex 27.4577 -10.1435 10
      vertex 26.2764 -10.0543 10
    endloop
  endfacet
  facet normal 0 0 1
    outer loop
      vertex 24.911 -8.67943 10
      vertex 25.8696 -8.30148 10
      vertex 25.0866 -8.31371 10
    endloop
  endfacet
  facet normal 0 0 1
    outer loop
      vertex 25.9839 -8.33934 10
      vertex 25.8696 -8.30148 10
      vertex 24.911 -8.67943 10
    endloop
  endfacet
  facet normal 0 0 1
    outer loop
      vertex 25.9839 -8.33934 10
      vertex 24.911 -8.67943 10
      vertex 26.2764 -10.0543 10
    endloop
  endfacet
  facet normal 0 0 1
    outer loop
      vertex 27.4114 -10.1765 10
      vertex 26.3011 -10.087 10
      vertex 26.7419 -10.879 10
    endloop
  endfacet
  facet normal 0 0 1
    outer loop
      vertex 27.4114 -10.1765 10
      vertex 26.2764 -10.0543 10
      vertex 26.3011 -10.087 10
    endloop
  endfacet
  facet normal 0.580406 -0.814327 0
    outer loop
      vertex 27.4577 -10.1435 0
      vertex 27.4114 -10.1765 10
      vertex 27.4114 -10.1765 0
    endloop
  endfacet
  facet normal 0.580406 -0.814327 0
    outer loop
      vertex 27.4577 -10.1435 0
      vertex 27.4577 -10.1435 10
      vertex 27.4114 -10.1765 10
    endloop
  endfacet
  facet normal 0.415268 -0.909699 0
    outer loop
      vertex 28.3777 -9.72353 0
      vertex 27.4577 -10.1435 10
      vertex 27.4577 -10.1435 0
    endloop
  endfacet
  facet normal 0.415268 -0.909699 0
    outer loop
      vertex 28.3777 -9.72353 0
      vertex 28.3777 -9.72353 10
      vertex 27.4577 -10.1435 10
    endloop
  endfacet
  facet normal -0.0764698 -0.997072 0
    outer loop
      vertex 28.5223 -9.73462 0
      vertex 28.3777 -9.72353 10
      vertex 28.3777 -9.72353 0
    endloop
  endfacet
  facet normal -0.0764698 -0.997072 0
    outer loop
      vertex 28.5223 -9.73462 0
      vertex 28.5223 -9.73462 10
      vertex 28.3777 -9.72353 10
    endloop
  endfacet
  facet normal -0.549037 -0.835798 0
    outer loop
      vertex 29.8214 -10.588 0
      vertex 28.5223 -9.73462 10
      vertex 28.5223 -9.73462 0
    endloop
  endfacet
  facet normal -0.549037 -0.835798 0
    outer loop
      vertex 29.8214 -10.588 0
      vertex 29.8214 -10.588 10
      vertex 28.5223 -9.73462 10
    endloop
  endfacet
  facet normal 0.433754 -0.901031 0
    outer loop
      vertex 30.2192 -10.3965 0
      vertex 29.8214 -10.588 10
      vertex 29.8214 -10.588 0
    endloop
  endfacet
  facet normal 0.433754 -0.901031 0
    outer loop
      vertex 30.2192 -10.3965 0
      vertex 30.2192 -10.3965 10
      vertex 29.8214 -10.588 10
    endloop
  endfacet
  facet normal 0.976578 -0.215164 0
    outer loop
      vertex 30.3335 -9.87772 0
      vertex 30.2192 -10.3965 10
      vertex 30.2192 -10.3965 0
    endloop
  endfacet
  facet normal 0.976578 -0.215164 0
    outer loop
      vertex 30.3335 -9.87772 0
      vertex 30.3335 -9.87772 10
      vertex 30.2192 -10.3965 10
    endloop
  endfacet
  facet normal 0.570725 -0.821141 0
    outer loop
      vertex 30.5008 -9.76144 0
      vertex 30.3335 -9.87772 10
      vertex 30.3335 -9.87772 0
    endloop
  endfacet
  facet normal 0.570725 -0.821141 0
    outer loop
      vertex 30.5008 -9.76144 0
      vertex 30.5008 -9.76144 10
      vertex 30.3335 -9.87772 10
    endloop
  endfacet
  facet normal -0.13869 -0.990336 0
    outer loop
      vertex 30.9578 -9.82544 0
      vertex 30.5008 -9.76144 10
      vertex 30.5008 -9.76144 0
    endloop
  endfacet
  facet normal -0.13869 -0.990336 0
    outer loop
      vertex 30.9578 -9.82544 0
      vertex 30.9578 -9.82544 10
      vertex 30.5008 -9.76144 10
    endloop
  endfacet
  facet normal 0.411577 -0.911375 0
    outer loop
      vertex 31.8483 -9.42329 0
      vertex 30.9578 -9.82544 10
      vertex 30.9578 -9.82544 0
    endloop
  endfacet
  facet normal 0.411577 -0.911375 0
    outer loop
      vertex 31.8483 -9.42329 0
      vertex 31.8483 -9.42329 10
      vertex 30.9578 -9.82544 10
    endloop
  endfacet
  facet normal -0.302693 -0.953088 0
    outer loop
      vertex 32.0393 -9.48395 0
      vertex 31.8483 -9.42329 10
      vertex 31.8483 -9.42329 0
    endloop
  endfacet
  facet normal -0.302693 -0.953088 0
    outer loop
      vertex 32.0393 -9.48395 0
      vertex 32.0393 -9.48395 10
      vertex 31.8483 -9.42329 10
    endloop
  endfacet
  facet normal -0.861928 -0.507031 0
    outer loop
      vertex 32.2393 -9.82394 0
      vertex 32.0393 -9.48395 10
      vertex 32.0393 -9.48395 0
    endloop
  endfacet
  facet normal -0.861928 -0.507031 0
    outer loop
      vertex 32.2393 -9.82394 0
      vertex 32.2393 -9.82394 10
      vertex 32.0393 -9.48395 10
    endloop
  endfacet
  facet normal -0.999862 0.0166324 0
    outer loop
      vertex 32.2367 -9.98024 0
      vertex 32.2393 -9.82394 10
      vertex 32.2393 -9.82394 0
    endloop
  endfacet
  facet normal -0.999862 0.0166324 0
    outer loop
      vertex 32.2367 -9.98024 0
      vertex 32.2367 -9.98024 10
      vertex 32.2393 -9.82394 10
    endloop
  endfacet
  facet normal -0.844801 0.535081 0
    outer loop
      vertex 32.078 -10.2308 0
      vertex 32.2367 -9.98024 10
      vertex 32.2367 -9.98024 0
    endloop
  endfacet
  facet normal -0.844801 0.535081 0
    outer loop
      vertex 32.078 -10.2308 0
      vertex 32.078 -10.2308 10
      vertex 32.2367 -9.98024 10
    endloop
  endfacet
  facet normal -0.98385 -0.178997 0
    outer loop
      vertex 32.1487 -10.6194 0
      vertex 32.078 -10.2308 10
      vertex 32.078 -10.2308 0
    endloop
  endfacet
  facet normal -0.98385 -0.178997 0
    outer loop
      vertex 32.1487 -10.6194 0
      vertex 32.1487 -10.6194 10
      vertex 32.078 -10.2308 10
    endloop
  endfacet
  facet normal -0.164432 -0.986388 0
    outer loop
      vertex 32.6298 -10.6996 0
      vertex 32.1487 -10.6194 10
      vertex 32.1487 -10.6194 0
    endloop
  endfacet
  facet normal -0.164432 -0.986388 0
    outer loop
      vertex 32.6298 -10.6996 0
      vertex 32.6298 -10.6996 10
      vertex 32.1487 -10.6194 10
    endloop
  endfacet
  facet normal 0.697198 -0.716878 0
    outer loop
      vertex 34.3954 -8.98247 0
      vertex 32.6298 -10.6996 10
      vertex 32.6298 -10.6996 0
    endloop
  endfacet
  facet normal 0.697198 -0.716878 0
    outer loop
      vertex 34.3954 -8.98247 0
      vertex 34.3954 -8.98247 10
      vertex 32.6298 -10.6996 10
    endloop
  endfacet
  facet normal 0.559473 -0.828849 0
    outer loop
      vertex 34.4394 -8.95277 0
      vertex 34.3954 -8.98247 10
      vertex 34.3954 -8.98247 0
    endloop
  endfacet
  facet normal 0.559473 -0.828849 0
    outer loop
      vertex 34.4394 -8.95277 0
      vertex 34.4394 -8.95277 10
      vertex 34.3954 -8.98247 10
    endloop
  endfacet
  facet normal 0.403915 -0.914796 0
    outer loop
      vertex 35.1648 -8.63248 0
      vertex 34.4394 -8.95277 10
      vertex 34.4394 -8.95277 0
    endloop
  endfacet
  facet normal 0.403915 -0.914796 0
    outer loop
      vertex 35.1648 -8.63248 0
      vertex 35.1648 -8.63248 10
      vertex 34.4394 -8.95277 10
    endloop
  endfacet
  facet normal 0.864674 -0.502334 0
    outer loop
      vertex 35.7321 -7.65598 0
      vertex 35.1648 -8.63248 10
      vertex 35.1648 -8.63248 0
    endloop
  endfacet
  facet normal 0.864674 -0.502334 0
    outer loop
      vertex 35.7321 -7.65598 0
      vertex 35.7321 -7.65598 10
      vertex 35.1648 -8.63248 10
    endloop
  endfacet
  facet normal 0.998628 -0.0523743 0
    outer loop
      vertex 35.8802 -4.83214 0
      vertex 35.7321 -7.65598 10
      vertex 35.7321 -7.65598 0
    endloop
  endfacet
  facet normal 0.998628 -0.0523743 0
    outer loop
      vertex 35.8802 -4.83214 0
      vertex 35.8802 -4.83214 10
      vertex 35.7321 -7.65598 10
    endloop
  endfacet
  facet normal 0.916286 -0.400526 0
    outer loop
      vertex 35.9225 -4.73537 0
      vertex 35.8802 -4.83214 10
      vertex 35.8802 -4.83214 0
    endloop
  endfacet
  facet normal 0.916286 -0.400526 0
    outer loop
      vertex 35.9225 -4.73537 0
      vertex 35.9225 -4.73537 10
      vertex 35.8802 -4.83214 10
    endloop
  endfacet
  facet normal 0.716602 -0.697482 0
    outer loop
      vertex 36.6382 -4.00005 0
      vertex 35.9225 -4.73537 10
      vertex 35.9225 -4.73537 0
    endloop
  endfacet
  facet normal 0.716602 -0.697482 0
    outer loop
      vertex 36.6382 -4.00005 0
      vertex 36.6382 -4.00005 10
      vertex 35.9225 -4.73537 10
    endloop
  endfacet
  facet normal 0.877161 -0.480197 0
    outer loop
      vertex 37.3784 -2.64795 0
      vertex 36.6382 -4.00005 10
      vertex 36.6382 -4.00005 0
    endloop
  endfacet
  facet normal 0.877161 -0.480197 0
    outer loop
      vertex 37.3784 -2.64795 0
      vertex 37.3784 -2.64795 10
      vertex 36.6382 -4.00005 10
    endloop
  endfacet
  facet normal 0.760614 -0.649205 0
    outer loop
      vertex 37.4182 -2.60132 0
      vertex 37.3784 -2.64795 10
      vertex 37.3784 -2.64795 0
    endloop
  endfacet
  facet normal 0.760614 -0.649205 0
    outer loop
      vertex 37.4182 -2.60132 0
      vertex 37.4182 -2.60132 10
      vertex 37.3784 -2.64795 10
    endloop
  endfacet
  facet normal 0.611664 -0.791118 0
    outer loop
      vertex 39.3089 -1.1395 0
      vertex 37.4182 -2.60132 10
      vertex 37.4182 -2.60132 0
    endloop
  endfacet
  facet normal 0.611664 -0.791118 0
    outer loop
      vertex 39.3089 -1.1395 0
      vertex 39.3089 -1.1395 10
      vertex 37.4182 -2.60132 10
    endloop
  endfacet
  facet normal 0.992306 -0.123808 0
    outer loop
      vertex 40.0111 4.48856 0
      vertex 39.3089 -1.1395 10
      vertex 39.3089 -1.1395 0
    endloop
  endfacet
  facet normal 0.992306 -0.123808 0
    outer loop
      vertex 40.0111 4.48856 0
      vertex 40.0111 4.48856 10
      vertex 39.3089 -1.1395 10
    endloop
  endfacet
  facet normal 0.965314 -0.261092 0
    outer loop
      vertex 40.0219 4.52849 0
      vertex 40.0111 4.48856 10
      vertex 40.0111 4.48856 0
    endloop
  endfacet
  facet normal 0.965314 -0.261092 0
    outer loop
      vertex 40.0219 4.52849 0
      vertex 40.0219 4.52849 10
      vertex 40.0111 4.48856 10
    endloop
  endfacet
  facet normal 0.920797 -0.390043 0
    outer loop
      vertex 41.2175 7.35101 0
      vertex 40.0219 4.52849 10
      vertex 40.0219 4.52849 0
    endloop
  endfacet
  facet normal 0.920797 -0.390043 0
    outer loop
      vertex 41.2175 7.35101 0
      vertex 41.2175 7.35101 10
      vertex 40.0219 4.52849 10
    endloop
  endfacet
  facet normal 0.92554 0.37865 0
    outer loop
      vertex 41.023 7.82643 0
      vertex 41.2175 7.35101 10
      vertex 41.2175 7.35101 0
    endloop
  endfacet
  facet normal 0.92554 0.37865 -0
    outer loop
      vertex 41.023 7.82643 0
      vertex 41.023 7.82643 10
      vertex 41.2175 7.35101 10
    endloop
  endfacet
  facet normal -0.293195 0.956053 0
    outer loop
      vertex 40.404 7.6366 0
      vertex 41.023 7.82643 10
      vertex 41.023 7.82643 0
    endloop
  endfacet
  facet normal -0.293195 0.956053 0
    outer loop
      vertex 40.404 7.6366 0
      vertex 40.404 7.6366 10
      vertex 41.023 7.82643 10
    endloop
  endfacet
  facet normal -0.0241904 0.999707 0
    outer loop
      vertex 40.323 7.63464 0
      vertex 40.404 7.6366 10
      vertex 40.404 7.6366 0
    endloop
  endfacet
  facet normal -0.0241904 0.999707 0
    outer loop
      vertex 40.323 7.63464 0
      vertex 40.323 7.63464 10
      vertex 40.404 7.6366 10
    endloop
  endfacet
  facet normal 0.246773 0.969073 0
    outer loop
      vertex 38.7473 8.03589 0
      vertex 40.323 7.63464 10
      vertex 40.323 7.63464 0
    endloop
  endfacet
  facet normal 0.246773 0.969073 -0
    outer loop
      vertex 38.7473 8.03589 0
      vertex 38.7473 8.03589 10
      vertex 40.323 7.63464 10
    endloop
  endfacet
  facet normal -0.212416 0.977179 0
    outer loop
      vertex 37.037 7.66411 0
      vertex 38.7473 8.03589 10
      vertex 38.7473 8.03589 0
    endloop
  endfacet
  facet normal -0.212416 0.977179 0
    outer loop
      vertex 37.037 7.66411 0
      vertex 37.037 7.66411 10
      vertex 38.7473 8.03589 10
    endloop
  endfacet
  facet normal -0.97903 0.203715 0
    outer loop
      vertex 36.7468 6.26944 0
      vertex 37.037 7.66411 10
      vertex 37.037 7.66411 0
    endloop
  endfacet
  facet normal -0.97903 0.203715 0
    outer loop
      vertex 36.7468 6.26944 0
      vertex 36.7468 6.26944 10
      vertex 37.037 7.66411 10
    endloop
  endfacet
  facet normal -0.93978 0.34178 0
    outer loop
      vertex 36.7321 6.22902 0
      vertex 36.7468 6.26944 10
      vertex 36.7468 6.26944 0
    endloop
  endfacet
  facet normal -0.93978 0.34178 0
    outer loop
      vertex 36.7321 6.22902 0
      vertex 36.7321 6.22902 10
      vertex 36.7468 6.26944 10
    endloop
  endfacet
  facet normal -0.880996 0.473124 0
    outer loop
      vertex 35.8858 4.65314 0
      vertex 36.7321 6.22902 10
      vertex 36.7321 6.22902 0
    endloop
  endfacet
  facet normal -0.880996 0.473124 0
    outer loop
      vertex 35.8858 4.65314 0
      vertex 35.8858 4.65314 10
      vertex 36.7321 6.22902 10
    endloop
  endfacet
  facet normal -0.988492 -0.151272 0
    outer loop
      vertex 36.0083 3.85266 0
      vertex 35.8858 4.65314 10
      vertex 35.8858 4.65314 0
    endloop
  endfacet
  facet normal -0.988492 -0.151272 0
    outer loop
      vertex 36.0083 3.85266 0
      vertex 36.0083 3.85266 10
      vertex 35.8858 4.65314 10
    endloop
  endfacet
  facet normal -0.903003 0.429634 0
    outer loop
      vertex 35.936 3.7007 0
      vertex 36.0083 3.85266 10
      vertex 36.0083 3.85266 0
    endloop
  endfacet
  facet normal -0.903003 0.429634 0
    outer loop
      vertex 35.936 3.7007 0
      vertex 35.936 3.7007 10
      vertex 36.0083 3.85266 10
    endloop
  endfacet
  facet normal -0.506982 0.861956 0
    outer loop
      vertex 35.766 3.60071 0
      vertex 35.936 3.7007 10
      vertex 35.936 3.7007 0
    endloop
  endfacet
  facet normal -0.506982 0.861956 0
    outer loop
      vertex 35.766 3.60071 0
      vertex 35.766 3.60071 10
      vertex 35.936 3.7007 10
    endloop
  endfacet
  facet normal 0.0547157 0.998502 0
    outer loop
      vertex 35.6003 3.60979 0
      vertex 35.766 3.60071 10
      vertex 35.766 3.60071 0
    endloop
  endfacet
  facet normal 0.0547157 0.998502 -0
    outer loop
      vertex 35.6003 3.60979 0
      vertex 35.6003 3.60979 10
      vertex 35.766 3.60071 10
    endloop
  endfacet
  facet normal 0.598178 0.801363 0
    outer loop
      vertex 34.9228 4.11551 0
      vertex 35.6003 3.60979 10
      vertex 35.6003 3.60979 0
    endloop
  endfacet
  facet normal 0.598178 0.801363 -0
    outer loop
      vertex 34.9228 4.11551 0
      vertex 34.9228 4.11551 10
      vertex 35.6003 3.60979 10
    endloop
  endfacet
  facet normal 0.112186 0.993687 0
    outer loop
      vertex 33.1032 4.32094 0
      vertex 34.9228 4.11551 10
      vertex 34.9228 4.11551 0
    endloop
  endfacet
  facet normal 0.112186 0.993687 -0
    outer loop
      vertex 33.1032 4.32094 0
      vertex 33.1032 4.32094 10
      vertex 34.9228 4.11551 10
    endloop
  endfacet
  facet normal 0.314484 0.949263 0
    outer loop
      vertex 33.0444 4.34042 0
      vertex 33.1032 4.32094 10
      vertex 33.1032 4.32094 0
    endloop
  endfacet
  facet normal 0.314484 0.949263 -0
    outer loop
      vertex 33.0444 4.34042 0
      vertex 33.0444 4.34042 10
      vertex 33.1032 4.32094 10
    endloop
  endfacet
  facet normal 0.503917 0.863752 0
    outer loop
      vertex 32.3617 4.73871 0
      vertex 33.0444 4.34042 10
      vertex 33.0444 4.34042 0
    endloop
  endfacet
  facet normal 0.503917 0.863752 -0
    outer loop
      vertex 32.3617 4.73871 0
      vertex 32.3617 4.73871 10
      vertex 33.0444 4.34042 10
    endloop
  endfacet
  facet normal -0.0314582 0.999505 0
    outer loop
      vertex 29.6496 4.65335 0
      vertex 32.3617 4.73871 10
      vertex 32.3617 4.73871 0
    endloop
  endfacet
  facet normal -0.0314582 0.999505 0
    outer loop
      vertex 29.6496 4.65335 0
      vertex 29.6496 4.65335 10
      vertex 32.3617 4.73871 10
    endloop
  endfacet
  facet normal -0.94985 0.312706 0
    outer loop
      vertex 29.422 3.96201 0
      vertex 29.6496 4.65335 10
      vertex 29.6496 4.65335 0
    endloop
  endfacet
  facet normal -0.94985 0.312706 0
    outer loop
      vertex 29.422 3.96201 0
      vertex 29.422 3.96201 10
      vertex 29.6496 4.65335 10
    endloop
  endfacet
  facet normal -0.9966 -0.0823884 0
    outer loop
      vertex 29.5047 2.96164 0
      vertex 29.422 3.96201 10
      vertex 29.422 3.96201 0
    endloop
  endfacet
  facet normal -0.9966 -0.0823884 0
    outer loop
      vertex 29.5047 2.96164 0
      vertex 29.5047 2.96164 10
      vertex 29.422 3.96201 10
    endloop
  endfacet
  facet normal 0.260221 -0.965549 0
    outer loop
      vertex 30.741 3.29483 0
      vertex 29.5047 2.96164 10
      vertex 29.5047 2.96164 0
    endloop
  endfacet
  facet normal 0.260221 -0.965549 0
    outer loop
      vertex 30.741 3.29483 0
      vertex 30.741 3.29483 10
      vertex 29.5047 2.96164 10
    endloop
  endfacet
  facet normal 0.0633406 -0.997992 0
    outer loop
      vertex 30.8004 3.2986 0
      vertex 30.741 3.29483 10
      vertex 30.741 3.29483 0
    endloop
  endfacet
  facet normal 0.0633406 -0.997992 0
    outer loop
      vertex 30.8004 3.2986 0
      vertex 30.8004 3.2986 10
      vertex 30.741 3.29483 10
    endloop
  endfacet
  facet normal -0.13575 -0.990743 0
    outer loop
      vertex 31.5303 3.19859 0
      vertex 30.8004 3.2986 10
      vertex 30.8004 3.2986 0
    endloop
  endfacet
  facet normal -0.13575 -0.990743 0
    outer loop
      vertex 31.5303 3.19859 0
      vertex 31.5303 3.19859 10
      vertex 30.8004 3.2986 10
    endloop
  endfacet
  facet normal -0.571592 -0.820538 0
    outer loop
      vertex 31.6423 3.12057 0
      vertex 31.5303 3.19859 10
      vertex 31.5303 3.19859 0
    endloop
  endfacet
  facet normal -0.571592 -0.820538 0
    outer loop
      vertex 31.6423 3.12057 0
      vertex 31.6423 3.12057 10
      vertex 31.5303 3.19859 10
    endloop
  endfacet
  facet normal -0.882349 -0.470595 0
    outer loop
      vertex 32.2023 2.07059 0
      vertex 31.6423 3.12057 10
      vertex 31.6423 3.12057 0
    endloop
  endfacet
  facet normal -0.882349 -0.470595 0
    outer loop
      vertex 32.2023 2.07059 0
      vertex 32.2023 2.07059 10
      vertex 31.6423 3.12057 10
    endloop
  endfacet
  facet normal -0.998313 -0.0580646 0
    outer loop
      vertex 32.2096 1.94508 0
      vertex 32.2023 2.07059 10
      vertex 32.2023 2.07059 0
    endloop
  endfacet
  facet normal -0.998313 -0.0580646 0
    outer loop
      vertex 32.2096 1.94508 0
      vertex 32.2096 1.94508 10
      vertex 32.2023 2.07059 10
    endloop
  endfacet
  facet normal -0.930566 0.366124 0
    outer loop
      vertex 31.9696 1.33508 0
      vertex 32.2096 1.94508 10
      vertex 32.2096 1.94508 0
    endloop
  endfacet
  facet normal -0.930566 0.366124 0
    outer loop
      vertex 31.9696 1.33508 0
      vertex 31.9696 1.33508 10
      vertex 32.2096 1.94508 10
    endloop
  endfacet
  facet normal -0.790149 0.612914 0
    outer loop
      vertex 31.9179 1.26843 0
      vertex 31.9696 1.33508 10
      vertex 31.9696 1.33508 0
    endloop
  endfacet
  facet normal -0.790149 0.612914 0
    outer loop
      vertex 31.9179 1.26843 0
      vertex 31.9179 1.26843 10
      vertex 31.9696 1.33508 10
    endloop
  endfacet
  facet normal -0.585839 0.810427 0
    outer loop
      vertex 31.1382 0.704803 0
      vertex 31.9179 1.26843 10
      vertex 31.9179 1.26843 0
    endloop
  endfacet
  facet normal -0.585839 0.810427 0
    outer loop
      vertex 31.1382 0.704803 0
      vertex 31.1382 0.704803 10
      vertex 31.9179 1.26843 10
    endloop
  endfacet
  facet normal -0.987238 0.159253 0
    outer loop
      vertex 30.9642 -0.373856 0
      vertex 31.1382 0.704803 10
      vertex 31.1382 0.704803 0
    endloop
  endfacet
  facet normal -0.987238 0.159253 0
    outer loop
      vertex 30.9642 -0.373856 0
      vertex 30.9642 -0.373856 10
      vertex 31.1382 0.704803 10
    endloop
  endfacet
  facet normal -0.516351 -0.856377 0
    outer loop
      vertex 32.2374 -1.14153 0
      vertex 30.9642 -0.373856 10
      vertex 30.9642 -0.373856 0
    endloop
  endfacet
  facet normal -0.516351 -0.856377 0
    outer loop
      vertex 32.2374 -1.14153 0
      vertex 32.2374 -1.14153 10
      vertex 30.9642 -0.373856 10
    endloop
  endfacet
  facet normal -0.886977 -0.461814 0
    outer loop
      vertex 32.3096 -1.2802 0
      vertex 32.2374 -1.14153 10
      vertex 32.2374 -1.14153 0
    endloop
  endfacet
  facet normal -0.886977 -0.461814 0
    outer loop
      vertex 32.3096 -1.2802 0
      vertex 32.3096 -1.2802 10
      vertex 32.2374 -1.14153 10
    endloop
  endfacet
  facet normal -0.997678 0.0681007 0
    outer loop
      vertex 32.1096 -4.21021 0
      vertex 32.3096 -1.2802 10
      vertex 32.3096 -1.2802 0
    endloop
  endfacet
  facet normal -0.997678 0.0681007 0
    outer loop
      vertex 32.1096 -4.21021 0
      vertex 32.1096 -4.21021 10
      vertex 32.3096 -1.2802 10
    endloop
  endfacet
  facet normal -0.946192 0.323606 0
    outer loop
      vertex 32.0845 -4.2836 0
      vertex 32.1096 -4.21021 10
      vertex 32.1096 -4.21021 0
    endloop
  endfacet
  facet normal -0.946192 0.323606 0
    outer loop
      vertex 32.0845 -4.2836 0
      vertex 32.0845 -4.2836 10
      vertex 32.1096 -4.21021 10
    endloop
  endfacet
  facet normal -0.830299 0.557318 0
    outer loop
      vertex 31.634 -4.95476 0
      vertex 32.0845 -4.2836 10
      vertex 32.0845 -4.2836 0
    endloop
  endfacet
  facet normal -0.830299 0.557318 0
    outer loop
      vertex 31.634 -4.95476 0
      vertex 31.634 -4.95476 10
      vertex 32.0845 -4.2836 10
    endloop
  endfacet
  facet normal -0.957757 -0.287579 0
    outer loop
      vertex 31.7037 -5.18689 0
      vertex 31.634 -4.95476 10
      vertex 31.634 -4.95476 0
    endloop
  endfacet
  facet normal -0.957757 -0.287579 0
    outer loop
      vertex 31.7037 -5.18689 0
      vertex 31.7037 -5.18689 10
      vertex 31.634 -4.95476 10
    endloop
  endfacet
  facet normal -0.941602 0.336728 0
    outer loop
      vertex 31.6438 -5.35439 0
      vertex 31.7037 -5.18689 10
      vertex 31.7037 -5.18689 0
    endloop
  endfacet
  facet normal -0.941602 0.336728 0
    outer loop
      vertex 31.6438 -5.35439 0
      vertex 31.6438 -5.35439 10
      vertex 31.7037 -5.18689 10
    endloop
  endfacet
  facet normal -0.558841 0.829275 0
    outer loop
      vertex 31.1838 -5.66438 0
      vertex 31.6438 -5.35439 10
      vertex 31.6438 -5.35439 0
    endloop
  endfacet
  facet normal -0.558841 0.829275 0
    outer loop
      vertex 31.1838 -5.66438 0
      vertex 31.1838 -5.66438 10
      vertex 31.6438 -5.35439 10
    endloop
  endfacet
  facet normal -0.173215 0.984884 0
    outer loop
      vertex 31.0636 -5.68552 0
      vertex 31.1838 -5.66438 10
      vertex 31.1838 -5.66438 0
    endloop
  endfacet
  facet normal -0.173215 0.984884 0
    outer loop
      vertex 31.0636 -5.68552 0
      vertex 31.0636 -5.68552 10
      vertex 31.1838 -5.66438 10
    endloop
  endfacet
  facet normal 0.242536 0.970143 0
    outer loop
      vertex 30.8236 -5.62552 0
      vertex 31.0636 -5.68552 10
      vertex 31.0636 -5.68552 0
    endloop
  endfacet
  facet normal 0.242536 0.970143 -0
    outer loop
      vertex 30.8236 -5.62552 0
      vertex 30.8236 -5.62552 10
      vertex 31.0636 -5.68552 10
    endloop
  endfacet
  facet normal 0.636521 0.771259 0
    outer loop
      vertex 30.724 -5.54332 0
      vertex 30.8236 -5.62552 10
      vertex 30.8236 -5.62552 0
    endloop
  endfacet
  facet normal 0.636521 0.771259 -0
    outer loop
      vertex 30.724 -5.54332 0
      vertex 30.724 -5.54332 10
      vertex 30.8236 -5.62552 10
    endloop
  endfacet
  facet normal 0.90652 0.422163 0
    outer loop
      vertex 30.4721 -5.00241 0
      vertex 30.724 -5.54332 10
      vertex 30.724 -5.54332 0
    endloop
  endfacet
  facet normal 0.90652 0.422163 -0
    outer loop
      vertex 30.4721 -5.00241 0
      vertex 30.4721 -5.00241 10
      vertex 30.724 -5.54332 10
    endloop
  endfacet
  facet normal -0.688724 0.725024 0
    outer loop
      vertex 30.0233 -5.42874 0
      vertex 30.4721 -5.00241 10
      vertex 30.4721 -5.00241 0
    endloop
  endfacet
  facet normal -0.688724 0.725024 0
    outer loop
      vertex 30.0233 -5.42874 0
      vertex 30.0233 -5.42874 10
      vertex 30.4721 -5.00241 10
    endloop
  endfacet
  facet normal -0.290827 0.956776 0
    outer loop
      vertex 29.8947 -5.46783 0
      vertex 30.0233 -5.42874 10
      vertex 30.0233 -5.42874 0
    endloop
  endfacet
  facet normal -0.290827 0.956776 0
    outer loop
      vertex 29.8947 -5.46783 0
      vertex 29.8947 -5.46783 10
      vertex 30.0233 -5.42874 10
    endloop
  endfacet
  facet normal 0.168955 0.985624 0
    outer loop
      vertex 28.8447 -5.28784 0
      vertex 29.8947 -5.46783 10
      vertex 29.8947 -5.46783 0
    endloop
  endfacet
  facet normal 0.168955 0.985624 -0
    outer loop
      vertex 28.8447 -5.28784 0
      vertex 28.8447 -5.28784 10
      vertex 29.8947 -5.46783 10
    endloop
  endfacet
  facet normal 0.590212 0.807249 0
    outer loop
      vertex 28.7368 -5.20895 0
      vertex 28.8447 -5.28784 10
      vertex 28.8447 -5.28784 0
    endloop
  endfacet
  facet normal 0.590212 0.807249 -0
    outer loop
      vertex 28.7368 -5.20895 0
      vertex 28.7368 -5.20895 10
      vertex 28.8447 -5.28784 10
    endloop
  endfacet
  facet normal 0.888067 0.459715 0
    outer loop
      vertex 28.3189 -4.40166 0
      vertex 28.7368 -5.20895 10
      vertex 28.7368 -5.20895 0
    endloop
  endfacet
  facet normal 0.888067 0.459715 -0
    outer loop
      vertex 28.3189 -4.40166 0
      vertex 28.3189 -4.40166 10
      vertex 28.7368 -5.20895 10
    endloop
  endfacet
  facet normal 0.455044 0.890469 0
    outer loop
      vertex 27.9894 -4.23328 0
      vertex 28.3189 -4.40166 10
      vertex 28.3189 -4.40166 0
    endloop
  endfacet
  facet normal 0.455044 0.890469 -0
    outer loop
      vertex 27.9894 -4.23328 0
      vertex 27.9894 -4.23328 10
      vertex 28.3189 -4.40166 10
    endloop
  endfacet
  facet normal -0.549117 0.835745 0
    outer loop
      vertex 27.7827 -4.36909 0
      vertex 27.9894 -4.23328 10
      vertex 27.9894 -4.23328 0
    endloop
  endfacet
  facet normal -0.549117 0.835745 0
    outer loop
      vertex 27.7827 -4.36909 0
      vertex 27.7827 -4.36909 10
      vertex 27.9894 -4.23328 10
    endloop
  endfacet
  facet normal -0.999431 -0.033734 0
    outer loop
      vertex 27.8099 -5.17494 0
      vertex 27.7827 -4.36909 10
      vertex 27.7827 -4.36909 0
    endloop
  endfacet
  facet normal -0.999431 -0.033734 0
    outer loop
      vertex 27.8099 -5.17494 0
      vertex 27.8099 -5.17494 10
      vertex 27.7827 -4.36909 10
    endloop
  endfacet
  facet normal -0.787505 0.616308 0
    outer loop
      vertex 27.6911 -5.32674 0
      vertex 27.8099 -5.17494 10
      vertex 27.8099 -5.17494 0
    endloop
  endfacet
  facet normal -0.787505 0.616308 0
    outer loop
      vertex 27.6911 -5.32674 0
      vertex 27.6911 -5.32674 10
      vertex 27.8099 -5.17494 10
    endloop
  endfacet
  facet normal -0.207159 0.978307 0
    outer loop
      vertex 26.8411 -5.50673 0
      vertex 27.6911 -5.32674 10
      vertex 27.6911 -5.32674 0
    endloop
  endfacet
  facet normal -0.207159 0.978307 0
    outer loop
      vertex 26.8411 -5.50673 0
      vertex 26.8411 -5.50673 10
      vertex 27.6911 -5.32674 10
    endloop
  endfacet
  facet normal -0.0313645 0.999508 0
    outer loop
      vertex 26.7882 -5.50839 0
      vertex 26.8411 -5.50673 10
      vertex 26.8411 -5.50673 0
    endloop
  endfacet
  facet normal -0.0313645 0.999508 0
    outer loop
      vertex 26.7882 -5.50839 0
      vertex 26.7882 -5.50839 10
      vertex 26.8411 -5.50673 10
    endloop
  endfacet
  facet normal 0.145476 0.989362 0
    outer loop
      vertex 25.9181 -5.38045 0
      vertex 26.7882 -5.50839 10
      vertex 26.7882 -5.50839 0
    endloop
  endfacet
  facet normal 0.145476 0.989362 -0
    outer loop
      vertex 25.9181 -5.38045 0
      vertex 25.9181 -5.38045 10
      vertex 26.7882 -5.50839 10
    endloop
  endfacet
  facet normal -0.990831 0.13511 0
    outer loop
      vertex 25.8014 -6.23627 0
      vertex 25.9181 -5.38045 10
      vertex 25.9181 -5.38045 0
    endloop
  endfacet
  facet normal -0.990831 0.13511 0
    outer loop
      vertex 25.8014 -6.23627 0
      vertex 25.8014 -6.23627 10
      vertex 25.9181 -5.38045 10
    endloop
  endfacet
  facet normal -0.54675 -0.837296 0
    outer loop
      vertex 26.212 -6.50439 0
      vertex 25.8014 -6.23627 10
      vertex 25.8014 -6.23627 0
    endloop
  endfacet
  facet normal -0.54675 -0.837296 0
    outer loop
      vertex 26.212 -6.50439 0
      vertex 26.212 -6.50439 10
      vertex 25.8014 -6.23627 10
    endloop
  endfacet
  facet normal -0.92793 -0.372754 0
    outer loop
      vertex 26.2761 -6.66396 0
      vertex 26.212 -6.50439 10
      vertex 26.212 -6.50439 0
    endloop
  endfacet
  facet normal -0.92793 -0.372754 0
    outer loop
      vertex 26.2761 -6.66396 0
      vertex 26.2761 -6.66396 10
      vertex 26.212 -6.50439 10
    endloop
  endfacet
  facet normal -0.974032 0.226409 0
    outer loop
      vertex 26.1999 -6.99178 0
      vertex 26.2761 -6.66396 10
      vertex 26.2761 -6.66396 0
    endloop
  endfacet
  facet normal -0.974032 0.226409 0
    outer loop
      vertex 26.1999 -6.99178 0
      vertex 26.1999 -6.99178 10
      vertex 26.2761 -6.66396 10
    endloop
  endfacet
  facet normal -0.546809 -0.837257 0
    outer loop
      vertex 26.602 -7.25439 0
      vertex 26.1999 -6.99178 10
      vertex 26.1999 -6.99178 0
    endloop
  endfacet
  facet normal -0.546809 -0.837257 0
    outer loop
      vertex 26.602 -7.25439 0
      vertex 26.602 -7.25439 10
      vertex 26.1999 -6.99178 10
    endloop
  endfacet
  facet normal -0.913558 -0.406708 0
    outer loop
      vertex 26.6682 -7.40309 0
      vertex 26.602 -7.25439 10
      vertex 26.602 -7.25439 0
    endloop
  endfacet
  facet normal -0.913558 -0.406708 0
    outer loop
      vertex 26.6682 -7.40309 0
      vertex 26.6682 -7.40309 10
      vertex 26.602 -7.25439 10
    endloop
  endfacet
  facet normal -0.988073 0.153983 0
    outer loop
      vertex 26.5482 -8.1731 0
      vertex 26.6682 -7.40309 10
      vertex 26.6682 -7.40309 0
    endloop
  endfacet
  facet normal -0.988073 0.153983 0
    outer loop
      vertex 26.5482 -8.1731 0
      vertex 26.5482 -8.1731 10
      vertex 26.6682 -7.40309 10
    endloop
  endfacet
  facet normal -0.684933 0.728606 0
    outer loop
      vertex 26.4139 -8.29935 0
      vertex 26.5482 -8.1731 10
      vertex 26.5482 -8.1731 0
    endloop
  endfacet
  facet normal -0.684933 0.728606 0
    outer loop
      vertex 26.4139 -8.29935 0
      vertex 26.4139 -8.29935 10
      vertex 26.5482 -8.1731 10
    endloop
  endfacet
  facet normal -0.0926004 0.995703 0
    outer loop
      vertex 25.9839 -8.33934 0
      vertex 26.4139 -8.29935 10
      vertex 26.4139 -8.29935 0
    endloop
  endfacet
  facet normal -0.0926004 0.995703 0
    outer loop
      vertex 25.9839 -8.33934 0
      vertex 25.9839 -8.33934 10
      vertex 26.4139 -8.29935 10
    endloop
  endfacet
  facet normal 0.314433 0.94928 0
    outer loop
      vertex 25.8696 -8.30148 0
      vertex 25.9839 -8.33934 10
      vertex 25.9839 -8.33934 0
    endloop
  endfacet
  facet normal 0.314433 0.94928 -0
    outer loop
      vertex 25.8696 -8.30148 0
      vertex 25.8696 -8.30148 10
      vertex 25.9839 -8.33934 10
    endloop
  endfacet
  facet normal 0.669043 0.743224 0
    outer loop
      vertex 25.5542 -8.01756 0
      vertex 25.8696 -8.30148 10
      vertex 25.8696 -8.30148 0
    endloop
  endfacet
  facet normal 0.669043 0.743224 -0
    outer loop
      vertex 25.5542 -8.01756 0
      vertex 25.5542 -8.01756 10
      vertex 25.8696 -8.30148 10
    endloop
  endfacet
  facet normal -0.535056 0.844816 0
    outer loop
      vertex 25.0866 -8.31371 0
      vertex 25.5542 -8.01756 10
      vertex 25.5542 -8.01756 0
    endloop
  endfacet
  facet normal -0.535056 0.844816 0
    outer loop
      vertex 25.0866 -8.31371 0
      vertex 25.0866 -8.31371 10
      vertex 25.5542 -8.01756 10
    endloop
  endfacet
  facet normal -0.901471 0.43284 0
    outer loop
      vertex 24.911 -8.67943 0
      vertex 25.0866 -8.31371 10
      vertex 25.0866 -8.31371 0
    endloop
  endfacet
  facet normal -0.901471 0.43284 0
    outer loop
      vertex 24.911 -8.67943 0
      vertex 24.911 -8.67943 10
      vertex 25.0866 -8.31371 10
    endloop
  endfacet
  facet normal -0.709546 -0.704659 0
    outer loop
      vertex 26.2764 -10.0543 0
      vertex 24.911 -8.67943 10
      vertex 24.911 -8.67943 0
    endloop
  endfacet
  facet normal -0.709546 -0.704659 0
    outer loop
      vertex 26.2764 -10.0543 0
      vertex 26.2764 -10.0543 10
      vertex 24.911 -8.67943 10
    endloop
  endfacet
  facet normal -0.797946 -0.60273 0
    outer loop
      vertex 26.3011 -10.087 0
      vertex 26.2764 -10.0543 10
      vertex 26.2764 -10.0543 0
    endloop
  endfacet
  facet normal -0.797946 -0.60273 0
    outer loop
      vertex 26.3011 -10.087 0
      vertex 26.3011 -10.087 10
      vertex 26.2764 -10.0543 10
    endloop
  endfacet
  facet normal -0.873782 -0.486317 0
    outer loop
      vertex 26.7419 -10.879 0
      vertex 26.3011 -10.087 10
      vertex 26.3011 -10.087 0
    endloop
  endfacet
  facet normal -0.873782 -0.486317 0
    outer loop
      vertex 26.7419 -10.879 0
      vertex 26.7419 -10.879 10
      vertex 26.3011 -10.087 10
    endloop
  endfacet
  facet normal 0.723905 -0.6899 0
    outer loop
      vertex 27.4114 -10.1765 0
      vertex 26.7419 -10.879 10
      vertex 26.7419 -10.879 0
    endloop
  endfacet
  facet normal 0.723905 -0.6899 0
    outer loop
      vertex 27.4114 -10.1765 0
      vertex 27.4114 -10.1765 10
      vertex 26.7419 -10.879 10
    endloop
  endfacet
endsolid OpenSCAD_Model
