solid OpenSCAD_Model
  facet normal 0 0 -1
    outer loop
      vertex -4.04436 140.043 10
      vertex -4.07713 140.794 10
      vertex -3.60158 140.814 10
    endloop
  endfacet
  facet normal 0 0 -1
    outer loop
      vertex -4.6731 139.426 10
      vertex -4.46977 140.025 10
      vertex -4.04436 140.043 10
    endloop
  endfacet
  facet normal 0 0 -1
    outer loop
      vertex -5.07518 137.372 10
      vertex -4.59983 137.447 10
      vertex -4.56004 137.18 10
    endloop
  endfacet
  facet normal 0 0 -1
    outer loop
      vertex -4.6731 139.426 10
      vertex -4.90899 139.697 10
      vertex -4.46977 140.025 10
    endloop
  endfacet
  facet normal 0 0 -1
    outer loop
      vertex -5.21739 140.441 10
      vertex -4.67219 140.381 10
      vertex -5.09355 140.044 10
    endloop
  endfacet
  facet normal 0 0 -1
    outer loop
      vertex -4.73746 140.618 10
      vertex -5.27118 140.86 10
      vertex -4.76652 140.864 10
    endloop
  endfacet
  facet normal 0 0 -1
    outer loop
      vertex -4.57989 140.176 10
      vertex -4.90899 139.697 10
      vertex -5.09355 140.044 10
    endloop
  endfacet
  facet normal 0 0 -1
    outer loop
      vertex -4.6731 139.426 10
      vertex -4.04436 140.043 10
      vertex -3.5431 139.475 10
    endloop
  endfacet
  facet normal 0 0 -1
    outer loop
      vertex -4.04436 140.043 10
      vertex -3.60158 140.814 10
      vertex -3.5431 139.475 10
    endloop
  endfacet
  facet normal -0 0 -1
    outer loop
      vertex -4.46977 140.025 10
      vertex -4.90899 139.697 10
      vertex -4.57989 140.176 10
    endloop
  endfacet
  facet normal 0 -0 -1
    outer loop
      vertex -4.67219 140.381 10
      vertex -4.57989 140.176 10
      vertex -5.09355 140.044 10
    endloop
  endfacet
  facet normal 0 -0 -1
    outer loop
      vertex -4.73746 140.618 10
      vertex -4.67219 140.381 10
      vertex -5.21739 140.441 10
    endloop
  endfacet
  facet normal 0 0 -1
    outer loop
      vertex -5.27118 140.86 10
      vertex -4.73746 140.618 10
      vertex -5.21739 140.441 10
    endloop
  endfacet
  facet normal -0 0 -1
    outer loop
      vertex -4.76652 140.864 10
      vertex -5.27118 140.86 10
      vertex -4.71243 141.259 10
    endloop
  endfacet
  facet normal 0 0 -1
    outer loop
      vertex -4.906 142.032 10
      vertex -4.17578 141.758 10
      vertex -4.51168 141.56 10
    endloop
  endfacet
  facet normal 0 0 -1
    outer loop
      vertex -4.906 142.032 10
      vertex -4.41665 142.356 10
      vertex -4.17578 141.758 10
    endloop
  endfacet
  facet normal 0 0 -1
    outer loop
      vertex -4.17578 141.758 10
      vertex -3.74453 142.487 10
      vertex -3.71624 141.839 10
    endloop
  endfacet
  facet normal 0 0 -1
    outer loop
      vertex -3.74453 142.487 10
      vertex -3.06958 142.415 10
      vertex -3.26048 141.8 10
    endloop
  endfacet
  facet normal 0 0 -1
    outer loop
      vertex -3.26048 141.8 10
      vertex -3.06958 142.415 10
      vertex -2.56302 142.132 10
    endloop
  endfacet
  facet normal 0 0 -1
    outer loop
      vertex -2.91845 141.638 10
      vertex -2.56302 142.132 10
      vertex -2.23791 141.65 10
    endloop
  endfacet
  facet normal 0 0 -1
    outer loop
      vertex -2.69964 141.357 10
      vertex -2.23791 141.65 10
      vertex -2.10738 140.982 10
    endloop
  endfacet
  facet normal 0 -0 -1
    outer loop
      vertex -2.6135 140.96 10
      vertex -2.10738 140.982 10
      vertex -2.63219 140.7 10
    endloop
  endfacet
  facet normal 0 0 -1
    outer loop
      vertex -2.63219 140.7 10
      vertex -2.10738 140.982 10
      vertex -2.26889 140.089 10
    endloop
  endfacet
  facet normal 0 -0 -1
    outer loop
      vertex -2.71244 140.473 10
      vertex -2.26889 140.089 10
      vertex -2.853 140.289 10
    endloop
  endfacet
  facet normal 0 0 -1
    outer loop
      vertex -3.05267 140.157 10
      vertex -2.853 140.289 10
      vertex -2.84788 139.571 10
    endloop
  endfacet
  facet normal 0 0 -1
    outer loop
      vertex -2.853 140.289 10
      vertex -2.26889 140.089 10
      vertex -2.84788 139.571 10
    endloop
  endfacet
  facet normal -0 0 -1
    outer loop
      vertex -3.86522 136.284 10
      vertex -4.1464 136.223 10
      vertex -4.12445 136.871 10
    endloop
  endfacet
  facet normal 0 0 -1
    outer loop
      vertex -2.71244 140.473 10
      vertex -2.63219 140.7 10
      vertex -2.26889 140.089 10
    endloop
  endfacet
  facet normal 0 0 -1
    outer loop
      vertex -3.80726 137.04 10
      vertex -3.50635 136.687 10
      vertex -3.64994 136.441 10
    endloop
  endfacet
  facet normal 0 0 -1
    outer loop
      vertex -2.6135 140.96 10
      vertex -2.69964 141.357 10
      vertex -2.10738 140.982 10
    endloop
  endfacet
  facet normal 0 0 -1
    outer loop
      vertex -2.49816 137.418 10
      vertex -2.0072 137.637 10
      vertex -2.03443 137.14 10
    endloop
  endfacet
  facet normal 0 0 -1
    outer loop
      vertex -2.69964 141.357 10
      vertex -2.91845 141.638 10
      vertex -2.23791 141.65 10
    endloop
  endfacet
  facet normal 0 0 -1
    outer loop
      vertex -2.91845 141.638 10
      vertex -3.26048 141.8 10
      vertex -2.56302 142.132 10
    endloop
  endfacet
  facet normal 0 0 -1
    outer loop
      vertex -3.71624 141.839 10
      vertex -3.74453 142.487 10
      vertex -3.26048 141.8 10
    endloop
  endfacet
  facet normal 0 0 -1
    outer loop
      vertex -4.17578 141.758 10
      vertex -4.41665 142.356 10
      vertex -3.74453 142.487 10
    endloop
  endfacet
  facet normal 0 0 -1
    outer loop
      vertex -5.19627 141.528 10
      vertex -4.906 142.032 10
      vertex -4.51168 141.56 10
    endloop
  endfacet
  facet normal 0 0 -1
    outer loop
      vertex -4.71243 141.259 10
      vertex -5.19627 141.528 10
      vertex -4.51168 141.56 10
    endloop
  endfacet
  facet normal -0 0 -1
    outer loop
      vertex -4.71243 141.259 10
      vertex -5.27118 140.86 10
      vertex -5.19627 141.528 10
    endloop
  endfacet
  facet normal 0 0 -1
    outer loop
      vertex -4.12445 136.871 10
      vertex -3.80726 137.04 10
      vertex -3.64994 136.441 10
    endloop
  endfacet
  facet normal 0 0 -1
    outer loop
      vertex -3.86522 136.284 10
      vertex -4.12445 136.871 10
      vertex -3.64994 136.441 10
    endloop
  endfacet
  facet normal -0 0 -1
    outer loop
      vertex -3.80956 135.166 10
      vertex -4.97666 135.115 10
      vertex -5.00476 135.759 10
    endloop
  endfacet
  facet normal 0 0 -1
    outer loop
      vertex -3.44025 137.019 10
      vertex -3.80726 137.04 10
      vertex -3.71956 137.51 10
    endloop
  endfacet
  facet normal 0 0 -1
    outer loop
      vertex -4.1464 136.223 10
      vertex -4.3226 136.898 10
      vertex -4.12445 136.871 10
    endloop
  endfacet
  facet normal 0 0 -1
    outer loop
      vertex -4.3226 136.898 10
      vertex -4.52124 136.286 10
      vertex -4.80804 136.509 10
    endloop
  endfacet
  facet normal 0 0 -1
    outer loop
      vertex -2.66939 137.147 10
      vertex -2.72964 136.462 10
      vertex -2.84517 137.106 10
    endloop
  endfacet
  facet normal 0 0 -1
    outer loop
      vertex -5.07518 137.372 10
      vertex -4.6365 138.287 10
      vertex -4.59983 137.447 10
    endloop
  endfacet
  facet normal 0 0 -1
    outer loop
      vertex -3.17773 136.588 10
      vertex -2.84517 137.106 10
      vertex -2.97254 136.488 10
    endloop
  endfacet
  facet normal 0 0 -1
    outer loop
      vertex -3.31002 135.188 10
      vertex -5.00476 135.759 10
      vertex -1.93106 135.893 10
    endloop
  endfacet
  facet normal 0 -0 -1
    outer loop
      vertex -2.49816 137.418 10
      vertex -2.03443 137.14 10
      vertex -2.55646 137.251 10
    endloop
  endfacet
  facet normal 0 0 -1
    outer loop
      vertex -2.66939 137.147 10
      vertex -2.55646 137.251 10
      vertex -2.16527 136.776 10
    endloop
  endfacet
  facet normal 0 0 -1
    outer loop
      vertex -2.49816 137.418 10
      vertex -2.48629 137.646 10
      vertex -2.0072 137.637 10
    endloop
  endfacet
  facet normal 0 0 -1
    outer loop
      vertex -3.29552 133.329 10
      vertex -3.49932 133.535 10
      vertex -2.98191 133.843 10
    endloop
  endfacet
  facet normal -0 0 -1
    outer loop
      vertex -2.06365 133.498 10
      vertex -2.34209 133.261 10
      vertex -2.45866 133.973 10
    endloop
  endfacet
  facet normal 0 0 -1
    outer loop
      vertex -1.90192 133.867 10
      vertex -2.45866 133.973 10
      vertex -2.36651 134.403 10
    endloop
  endfacet
  facet normal 0 0 -1
    outer loop
      vertex -5.14233 138.91 10
      vertex -3.75518 138.325 10
      vertex -4.6365 138.287 10
    endloop
  endfacet
  facet normal 0 0 -1
    outer loop
      vertex -3.75518 138.325 10
      vertex -5.14233 138.91 10
      vertex -2.06863 139.044 10
    endloop
  endfacet
  facet normal 0 0 -1
    outer loop
      vertex -2.0072 137.637 10
      vertex -2.51829 138.379 10
      vertex -2.06863 139.044 10
    endloop
  endfacet
  facet normal -0 0 -1
    outer loop
      vertex -2.51829 138.379 10
      vertex -3.27963 138.346 10
      vertex -2.06863 139.044 10
    endloop
  endfacet
  facet normal 0 0 -1
    outer loop
      vertex -2.48629 137.646 10
      vertex -2.51829 138.379 10
      vertex -2.0072 137.637 10
    endloop
  endfacet
  facet normal 0 0 -1
    outer loop
      vertex -2.55646 137.251 10
      vertex -2.03443 137.14 10
      vertex -2.16527 136.776 10
    endloop
  endfacet
  facet normal 0 -0 -1
    outer loop
      vertex -2.66939 137.147 10
      vertex -2.39767 136.549 10
      vertex -2.72964 136.462 10
    endloop
  endfacet
  facet normal -0 0 -1
    outer loop
      vertex -2.16527 136.776 10
      vertex -2.39767 136.549 10
      vertex -2.66939 137.147 10
    endloop
  endfacet
  facet normal 0 -0 -1
    outer loop
      vertex -2.84517 137.106 10
      vertex -2.72964 136.462 10
      vertex -2.97254 136.488 10
    endloop
  endfacet
  facet normal 0 0 -1
    outer loop
      vertex -3.01259 137.13 10
      vertex -3.17773 136.588 10
      vertex -3.3365 136.764 10
    endloop
  endfacet
  facet normal -0 0 -1
    outer loop
      vertex -2.84517 137.106 10
      vertex -3.17773 136.588 10
      vertex -3.01259 137.13 10
    endloop
  endfacet
  facet normal 0 0 -1
    outer loop
      vertex -3.01259 137.13 10
      vertex -3.3365 136.764 10
      vertex -3.44025 137.019 10
    endloop
  endfacet
  facet normal 0 -0 -1
    outer loop
      vertex -3.13526 137.217 10
      vertex -3.01259 137.13 10
      vertex -3.44025 137.019 10
    endloop
  endfacet
  facet normal 0 -0 -1
    outer loop
      vertex -3.24744 137.609 10
      vertex -3.21345 137.375 10
      vertex -3.71956 137.51 10
    endloop
  endfacet
  facet normal 0 -0 -1
    outer loop
      vertex -3.21345 137.375 10
      vertex -3.13526 137.217 10
      vertex -3.44025 137.019 10
    endloop
  endfacet
  facet normal 0 0 -1
    outer loop
      vertex -5.07518 137.372 10
      vertex -4.56004 137.18 10
      vertex -4.99621 136.877 10
    endloop
  endfacet
  facet normal 0 0 -1
    outer loop
      vertex -2.06863 139.044 10
      vertex -3.27963 138.346 10
      vertex -3.75518 138.325 10
    endloop
  endfacet
  facet normal 0 0 -1
    outer loop
      vertex -5.14233 138.91 10
      vertex -4.6365 138.287 10
      vertex -5.07518 137.372 10
    endloop
  endfacet
  facet normal 0 0 -1
    outer loop
      vertex -3.75518 138.325 10
      vertex -3.27963 138.346 10
      vertex -3.24744 137.609 10
    endloop
  endfacet
  facet normal 0 0 -1
    outer loop
      vertex -3.44025 137.019 10
      vertex -3.71956 137.51 10
      vertex -3.21345 137.375 10
    endloop
  endfacet
  facet normal 0 0 -1
    outer loop
      vertex -3.71956 137.51 10
      vertex -3.75518 138.325 10
      vertex -3.24744 137.609 10
    endloop
  endfacet
  facet normal 0 0 -1
    outer loop
      vertex -3.50635 136.687 10
      vertex -3.80726 137.04 10
      vertex -3.44025 137.019 10
    endloop
  endfacet
  facet normal 0 0 -1
    outer loop
      vertex -4.1464 136.223 10
      vertex -4.52124 136.286 10
      vertex -4.3226 136.898 10
    endloop
  endfacet
  facet normal 0 -0 -1
    outer loop
      vertex -4.46773 136.999 10
      vertex -4.3226 136.898 10
      vertex -4.80804 136.509 10
    endloop
  endfacet
  facet normal 0 0 -1
    outer loop
      vertex -4.99621 136.877 10
      vertex -4.46773 136.999 10
      vertex -4.80804 136.509 10
    endloop
  endfacet
  facet normal 0 0 -1
    outer loop
      vertex -4.99621 136.877 10
      vertex -4.56004 137.18 10
      vertex -4.46773 136.999 10
    endloop
  endfacet
  facet normal 0 0 -1
    outer loop
      vertex -1.93106 135.893 10
      vertex -2.40251 135.227 10
      vertex -3.31002 135.188 10
    endloop
  endfacet
  facet normal 0 0 -1
    outer loop
      vertex -2.36651 134.403 10
      vertex -1.864 134.357 10
      vertex -1.90192 133.867 10
    endloop
  endfacet
  facet normal 0 -0 -1
    outer loop
      vertex -2.78459 133.816 10
      vertex -2.73011 133.17 10
      vertex -3.03291 133.202 10
    endloop
  endfacet
  facet normal 0 0 -1
    outer loop
      vertex -4.91256 133.647 10
      vertex -3.62579 133.81 10
      vertex -4.88094 132.923 10
    endloop
  endfacet
  facet normal 0 -0 -1
    outer loop
      vertex -3.7766 134.411 10
      vertex -3.62579 133.81 10
      vertex -4.91256 133.647 10
    endloop
  endfacet
  facet normal 0 0 -1
    outer loop
      vertex -2.78459 133.816 10
      vertex -2.34209 133.261 10
      vertex -2.73011 133.17 10
    endloop
  endfacet
  facet normal 0 0 -1
    outer loop
      vertex -2.45866 133.973 10
      vertex -1.90192 133.867 10
      vertex -2.06365 133.498 10
    endloop
  endfacet
  facet normal 0 -0 -1
    outer loop
      vertex -1.93106 135.893 10
      vertex -1.864 134.357 10
      vertex -2.40251 135.227 10
    endloop
  endfacet
  facet normal 0 0 -1
    outer loop
      vertex -3.7766 134.411 10
      vertex -3.31002 135.188 10
      vertex -3.27325 134.346 10
    endloop
  endfacet
  facet normal 0 0 -1
    outer loop
      vertex -3.7766 134.411 10
      vertex -3.80956 135.166 10
      vertex -3.31002 135.188 10
    endloop
  endfacet
  facet normal 0 0 -1
    outer loop
      vertex -3.7766 134.411 10
      vertex -3.23234 134.109 10
      vertex -3.62579 133.81 10
    endloop
  endfacet
  facet normal 0 0 -1
    outer loop
      vertex -3.80956 135.166 10
      vertex -5.00476 135.759 10
      vertex -3.31002 135.188 10
    endloop
  endfacet
  facet normal 0 0 -1
    outer loop
      vertex -2.36651 134.403 10
      vertex -2.40251 135.227 10
      vertex -1.864 134.357 10
    endloop
  endfacet
  facet normal 0 -0 -1
    outer loop
      vertex -2.45866 133.973 10
      vertex -2.34209 133.261 10
      vertex -2.78459 133.816 10
    endloop
  endfacet
  facet normal 0 0 -1
    outer loop
      vertex -2.98191 133.843 10
      vertex -3.03291 133.202 10
      vertex -3.29552 133.329 10
    endloop
  endfacet
  facet normal -0 0 -1
    outer loop
      vertex -2.78459 133.816 10
      vertex -3.03291 133.202 10
      vertex -2.98191 133.843 10
    endloop
  endfacet
  facet normal -0 0 -1
    outer loop
      vertex -2.98191 133.843 10
      vertex -3.49932 133.535 10
      vertex -3.1332 133.941 10
    endloop
  endfacet
  facet normal 0 0 -1
    outer loop
      vertex -3.1332 133.941 10
      vertex -3.49932 133.535 10
      vertex -3.62579 133.81 10
    endloop
  endfacet
  facet normal -0 -0 -1
    outer loop
      vertex -3.27325 134.346 10
      vertex -3.23234 134.109 10
      vertex -3.7766 134.411 10
    endloop
  endfacet
  facet normal 0 -0 -1
    outer loop
      vertex -3.23234 134.109 10
      vertex -3.1332 133.941 10
      vertex -3.62579 133.81 10
    endloop
  endfacet
  facet normal 0 0 1
    outer loop
      vertex -3.60158 140.814 10.8
      vertex -4.07713 140.794 10.8
      vertex -4.04436 140.043 10.8
    endloop
  endfacet
  facet normal 0 0 1
    outer loop
      vertex -4.04436 140.043 10.8
      vertex -4.46977 140.025 10.8
      vertex -4.6731 139.426 10.8
    endloop
  endfacet
  facet normal 0 0 1
    outer loop
      vertex -4.56004 137.18 10.8
      vertex -4.59983 137.447 10.8
      vertex -5.07518 137.372 10.8
    endloop
  endfacet
  facet normal 0 0 1
    outer loop
      vertex -4.46977 140.025 10.8
      vertex -4.90899 139.697 10.8
      vertex -4.6731 139.426 10.8
    endloop
  endfacet
  facet normal 0 -0 1
    outer loop
      vertex -5.09355 140.044 10.8
      vertex -4.67219 140.381 10.8
      vertex -5.21739 140.441 10.8
    endloop
  endfacet
  facet normal 0 0 1
    outer loop
      vertex -4.76652 140.864 10.8
      vertex -5.27118 140.86 10.8
      vertex -4.73746 140.618 10.8
    endloop
  endfacet
  facet normal -0 0 1
    outer loop
      vertex -5.09355 140.044 10.8
      vertex -4.90899 139.697 10.8
      vertex -4.57989 140.176 10.8
    endloop
  endfacet
  facet normal 0 0 1
    outer loop
      vertex -3.5431 139.475 10.8
      vertex -4.04436 140.043 10.8
      vertex -4.6731 139.426 10.8
    endloop
  endfacet
  facet normal 0 0 1
    outer loop
      vertex -3.5431 139.475 10.8
      vertex -3.60158 140.814 10.8
      vertex -4.04436 140.043 10.8
    endloop
  endfacet
  facet normal 0 0 1
    outer loop
      vertex -4.57989 140.176 10.8
      vertex -4.90899 139.697 10.8
      vertex -4.46977 140.025 10.8
    endloop
  endfacet
  facet normal 0 0 1
    outer loop
      vertex -5.09355 140.044 10.8
      vertex -4.57989 140.176 10.8
      vertex -4.67219 140.381 10.8
    endloop
  endfacet
  facet normal -0 0 1
    outer loop
      vertex -5.21739 140.441 10.8
      vertex -4.67219 140.381 10.8
      vertex -4.73746 140.618 10.8
    endloop
  endfacet
  facet normal 0 -0 1
    outer loop
      vertex -5.21739 140.441 10.8
      vertex -4.73746 140.618 10.8
      vertex -5.27118 140.86 10.8
    endloop
  endfacet
  facet normal 0 0 1
    outer loop
      vertex -4.71243 141.259 10.8
      vertex -5.27118 140.86 10.8
      vertex -4.76652 140.864 10.8
    endloop
  endfacet
  facet normal 0 -0 1
    outer loop
      vertex -4.51168 141.56 10.8
      vertex -4.17578 141.758 10.8
      vertex -4.906 142.032 10.8
    endloop
  endfacet
  facet normal 0 0 1
    outer loop
      vertex -4.17578 141.758 10.8
      vertex -4.41665 142.356 10.8
      vertex -4.906 142.032 10.8
    endloop
  endfacet
  facet normal 0 0 1
    outer loop
      vertex -3.71624 141.839 10.8
      vertex -3.74453 142.487 10.8
      vertex -4.17578 141.758 10.8
    endloop
  endfacet
  facet normal 0 -0 1
    outer loop
      vertex -3.26048 141.8 10.8
      vertex -3.06958 142.415 10.8
      vertex -3.74453 142.487 10.8
    endloop
  endfacet
  facet normal 0 0 1
    outer loop
      vertex -2.56302 142.132 10.8
      vertex -3.06958 142.415 10.8
      vertex -3.26048 141.8 10.8
    endloop
  endfacet
  facet normal 0 0 1
    outer loop
      vertex -2.23791 141.65 10.8
      vertex -2.56302 142.132 10.8
      vertex -2.91845 141.638 10.8
    endloop
  endfacet
  facet normal 0 0 1
    outer loop
      vertex -2.10738 140.982 10.8
      vertex -2.23791 141.65 10.8
      vertex -2.69964 141.357 10.8
    endloop
  endfacet
  facet normal 0 0 1
    outer loop
      vertex -2.63219 140.7 10.8
      vertex -2.10738 140.982 10.8
      vertex -2.6135 140.96 10.8
    endloop
  endfacet
  facet normal 0 -0 1
    outer loop
      vertex -2.26889 140.089 10.8
      vertex -2.10738 140.982 10.8
      vertex -2.63219 140.7 10.8
    endloop
  endfacet
  facet normal -0 0 1
    outer loop
      vertex -2.853 140.289 10.8
      vertex -2.26889 140.089 10.8
      vertex -2.71244 140.473 10.8
    endloop
  endfacet
  facet normal 0 0 1
    outer loop
      vertex -2.84788 139.571 10.8
      vertex -2.853 140.289 10.8
      vertex -3.05267 140.157 10.8
    endloop
  endfacet
  facet normal 0 -0 1
    outer loop
      vertex -2.84788 139.571 10.8
      vertex -2.26889 140.089 10.8
      vertex -2.853 140.289 10.8
    endloop
  endfacet
  facet normal 0 0 1
    outer loop
      vertex -4.12445 136.871 10.8
      vertex -4.1464 136.223 10.8
      vertex -3.86522 136.284 10.8
    endloop
  endfacet
  facet normal 0 0 1
    outer loop
      vertex -2.26889 140.089 10.8
      vertex -2.63219 140.7 10.8
      vertex -2.71244 140.473 10.8
    endloop
  endfacet
  facet normal 0 -0 1
    outer loop
      vertex -3.64994 136.441 10.8
      vertex -3.50635 136.687 10.8
      vertex -3.80726 137.04 10.8
    endloop
  endfacet
  facet normal 0 0 1
    outer loop
      vertex -2.10738 140.982 10.8
      vertex -2.69964 141.357 10.8
      vertex -2.6135 140.96 10.8
    endloop
  endfacet
  facet normal 0 -0 1
    outer loop
      vertex -2.03443 137.14 10.8
      vertex -2.0072 137.637 10.8
      vertex -2.49816 137.418 10.8
    endloop
  endfacet
  facet normal 0 0 1
    outer loop
      vertex -2.23791 141.65 10.8
      vertex -2.91845 141.638 10.8
      vertex -2.69964 141.357 10.8
    endloop
  endfacet
  facet normal 0 0 1
    outer loop
      vertex -2.56302 142.132 10.8
      vertex -3.26048 141.8 10.8
      vertex -2.91845 141.638 10.8
    endloop
  endfacet
  facet normal 0 0 1
    outer loop
      vertex -3.26048 141.8 10.8
      vertex -3.74453 142.487 10.8
      vertex -3.71624 141.839 10.8
    endloop
  endfacet
  facet normal 0 0 1
    outer loop
      vertex -3.74453 142.487 10.8
      vertex -4.41665 142.356 10.8
      vertex -4.17578 141.758 10.8
    endloop
  endfacet
  facet normal 0 0 1
    outer loop
      vertex -4.51168 141.56 10.8
      vertex -4.906 142.032 10.8
      vertex -5.19627 141.528 10.8
    endloop
  endfacet
  facet normal 0 0 1
    outer loop
      vertex -4.51168 141.56 10.8
      vertex -5.19627 141.528 10.8
      vertex -4.71243 141.259 10.8
    endloop
  endfacet
  facet normal 0 0 1
    outer loop
      vertex -5.19627 141.528 10.8
      vertex -5.27118 140.86 10.8
      vertex -4.71243 141.259 10.8
    endloop
  endfacet
  facet normal 0 0 1
    outer loop
      vertex -3.64994 136.441 10.8
      vertex -3.80726 137.04 10.8
      vertex -4.12445 136.871 10.8
    endloop
  endfacet
  facet normal 0 0 1
    outer loop
      vertex -3.64994 136.441 10.8
      vertex -4.12445 136.871 10.8
      vertex -3.86522 136.284 10.8
    endloop
  endfacet
  facet normal 0 0 1
    outer loop
      vertex -5.00476 135.759 10.8
      vertex -4.97666 135.115 10.8
      vertex -3.80956 135.166 10.8
    endloop
  endfacet
  facet normal 0 0 1
    outer loop
      vertex -3.71956 137.51 10.8
      vertex -3.80726 137.04 10.8
      vertex -3.44025 137.019 10.8
    endloop
  endfacet
  facet normal 0 0 1
    outer loop
      vertex -4.12445 136.871 10.8
      vertex -4.3226 136.898 10.8
      vertex -4.1464 136.223 10.8
    endloop
  endfacet
  facet normal -0 0 1
    outer loop
      vertex -4.80804 136.509 10.8
      vertex -4.52124 136.286 10.8
      vertex -4.3226 136.898 10.8
    endloop
  endfacet
  facet normal -0 0 1
    outer loop
      vertex -2.84517 137.106 10.8
      vertex -2.72964 136.462 10.8
      vertex -2.66939 137.147 10.8
    endloop
  endfacet
  facet normal 0 0 1
    outer loop
      vertex -4.59983 137.447 10.8
      vertex -4.6365 138.287 10.8
      vertex -5.07518 137.372 10.8
    endloop
  endfacet
  facet normal 0 -0 1
    outer loop
      vertex -2.97254 136.488 10.8
      vertex -2.84517 137.106 10.8
      vertex -3.17773 136.588 10.8
    endloop
  endfacet
  facet normal 0 0 1
    outer loop
      vertex -1.93106 135.893 10.8
      vertex -5.00476 135.759 10.8
      vertex -3.31002 135.188 10.8
    endloop
  endfacet
  facet normal -0 0 1
    outer loop
      vertex -2.55646 137.251 10.8
      vertex -2.03443 137.14 10.8
      vertex -2.49816 137.418 10.8
    endloop
  endfacet
  facet normal 0 0 1
    outer loop
      vertex -2.16527 136.776 10.8
      vertex -2.55646 137.251 10.8
      vertex -2.66939 137.147 10.8
    endloop
  endfacet
  facet normal 0 0 1
    outer loop
      vertex -2.0072 137.637 10.8
      vertex -2.48629 137.646 10.8
      vertex -2.49816 137.418 10.8
    endloop
  endfacet
  facet normal 0 0 1
    outer loop
      vertex -2.98191 133.843 10.8
      vertex -3.49932 133.535 10.8
      vertex -3.29552 133.329 10.8
    endloop
  endfacet
  facet normal 0 0 1
    outer loop
      vertex -2.45866 133.973 10.8
      vertex -2.34209 133.261 10.8
      vertex -2.06365 133.498 10.8
    endloop
  endfacet
  facet normal 0 0 1
    outer loop
      vertex -2.36651 134.403 10.8
      vertex -2.45866 133.973 10.8
      vertex -1.90192 133.867 10.8
    endloop
  endfacet
  facet normal 0 -0 1
    outer loop
      vertex -4.6365 138.287 10.8
      vertex -3.75518 138.325 10.8
      vertex -5.14233 138.91 10.8
    endloop
  endfacet
  facet normal 0 0 1
    outer loop
      vertex -2.06863 139.044 10.8
      vertex -5.14233 138.91 10.8
      vertex -3.75518 138.325 10.8
    endloop
  endfacet
  facet normal 0 0 1
    outer loop
      vertex -2.06863 139.044 10.8
      vertex -2.51829 138.379 10.8
      vertex -2.0072 137.637 10.8
    endloop
  endfacet
  facet normal 0 0 1
    outer loop
      vertex -2.06863 139.044 10.8
      vertex -3.27963 138.346 10.8
      vertex -2.51829 138.379 10.8
    endloop
  endfacet
  facet normal 0 0 1
    outer loop
      vertex -2.0072 137.637 10.8
      vertex -2.51829 138.379 10.8
      vertex -2.48629 137.646 10.8
    endloop
  endfacet
  facet normal 0 -0 1
    outer loop
      vertex -2.16527 136.776 10.8
      vertex -2.03443 137.14 10.8
      vertex -2.55646 137.251 10.8
    endloop
  endfacet
  facet normal 0 0 1
    outer loop
      vertex -2.72964 136.462 10.8
      vertex -2.39767 136.549 10.8
      vertex -2.66939 137.147 10.8
    endloop
  endfacet
  facet normal 0 0 1
    outer loop
      vertex -2.66939 137.147 10.8
      vertex -2.39767 136.549 10.8
      vertex -2.16527 136.776 10.8
    endloop
  endfacet
  facet normal -0 0 1
    outer loop
      vertex -2.97254 136.488 10.8
      vertex -2.72964 136.462 10.8
      vertex -2.84517 137.106 10.8
    endloop
  endfacet
  facet normal -0 0 1
    outer loop
      vertex -3.3365 136.764 10.8
      vertex -3.17773 136.588 10.8
      vertex -3.01259 137.13 10.8
    endloop
  endfacet
  facet normal 0 0 1
    outer loop
      vertex -3.01259 137.13 10.8
      vertex -3.17773 136.588 10.8
      vertex -2.84517 137.106 10.8
    endloop
  endfacet
  facet normal -0 0 1
    outer loop
      vertex -3.44025 137.019 10.8
      vertex -3.3365 136.764 10.8
      vertex -3.01259 137.13 10.8
    endloop
  endfacet
  facet normal 0 0 1
    outer loop
      vertex -3.44025 137.019 10.8
      vertex -3.01259 137.13 10.8
      vertex -3.13526 137.217 10.8
    endloop
  endfacet
  facet normal -0 0 1
    outer loop
      vertex -3.71956 137.51 10.8
      vertex -3.21345 137.375 10.8
      vertex -3.24744 137.609 10.8
    endloop
  endfacet
  facet normal 0 0 1
    outer loop
      vertex -3.44025 137.019 10.8
      vertex -3.13526 137.217 10.8
      vertex -3.21345 137.375 10.8
    endloop
  endfacet
  facet normal 0 -0 1
    outer loop
      vertex -4.99621 136.877 10.8
      vertex -4.56004 137.18 10.8
      vertex -5.07518 137.372 10.8
    endloop
  endfacet
  facet normal 0 0 1
    outer loop
      vertex -3.75518 138.325 10.8
      vertex -3.27963 138.346 10.8
      vertex -2.06863 139.044 10.8
    endloop
  endfacet
  facet normal 0 -0 1
    outer loop
      vertex -5.07518 137.372 10.8
      vertex -4.6365 138.287 10.8
      vertex -5.14233 138.91 10.8
    endloop
  endfacet
  facet normal 0 0 1
    outer loop
      vertex -3.24744 137.609 10.8
      vertex -3.27963 138.346 10.8
      vertex -3.75518 138.325 10.8
    endloop
  endfacet
  facet normal 0 0 1
    outer loop
      vertex -3.21345 137.375 10.8
      vertex -3.71956 137.51 10.8
      vertex -3.44025 137.019 10.8
    endloop
  endfacet
  facet normal 0 0 1
    outer loop
      vertex -3.24744 137.609 10.8
      vertex -3.75518 138.325 10.8
      vertex -3.71956 137.51 10.8
    endloop
  endfacet
  facet normal 0 0 1
    outer loop
      vertex -3.44025 137.019 10.8
      vertex -3.80726 137.04 10.8
      vertex -3.50635 136.687 10.8
    endloop
  endfacet
  facet normal 0 0 1
    outer loop
      vertex -4.3226 136.898 10.8
      vertex -4.52124 136.286 10.8
      vertex -4.1464 136.223 10.8
    endloop
  endfacet
  facet normal 0 0 1
    outer loop
      vertex -4.80804 136.509 10.8
      vertex -4.3226 136.898 10.8
      vertex -4.46773 136.999 10.8
    endloop
  endfacet
  facet normal 0 -0 1
    outer loop
      vertex -4.80804 136.509 10.8
      vertex -4.46773 136.999 10.8
      vertex -4.99621 136.877 10.8
    endloop
  endfacet
  facet normal 0 0 1
    outer loop
      vertex -4.46773 136.999 10.8
      vertex -4.56004 137.18 10.8
      vertex -4.99621 136.877 10.8
    endloop
  endfacet
  facet normal 0 0 1
    outer loop
      vertex -3.31002 135.188 10.8
      vertex -2.40251 135.227 10.8
      vertex -1.93106 135.893 10.8
    endloop
  endfacet
  facet normal 0 -0 1
    outer loop
      vertex -1.90192 133.867 10.8
      vertex -1.864 134.357 10.8
      vertex -2.36651 134.403 10.8
    endloop
  endfacet
  facet normal -0 0 1
    outer loop
      vertex -3.03291 133.202 10.8
      vertex -2.73011 133.17 10.8
      vertex -2.78459 133.816 10.8
    endloop
  endfacet
  facet normal 0 -0 1
    outer loop
      vertex -4.88094 132.923 10.8
      vertex -3.62579 133.81 10.8
      vertex -4.91256 133.647 10.8
    endloop
  endfacet
  facet normal 0 0 1
    outer loop
      vertex -4.91256 133.647 10.8
      vertex -3.62579 133.81 10.8
      vertex -3.7766 134.411 10.8
    endloop
  endfacet
  facet normal 0 -0 1
    outer loop
      vertex -2.73011 133.17 10.8
      vertex -2.34209 133.261 10.8
      vertex -2.78459 133.816 10.8
    endloop
  endfacet
  facet normal 0 -0 1
    outer loop
      vertex -2.06365 133.498 10.8
      vertex -1.90192 133.867 10.8
      vertex -2.45866 133.973 10.8
    endloop
  endfacet
  facet normal -0 0 1
    outer loop
      vertex -2.40251 135.227 10.8
      vertex -1.864 134.357 10.8
      vertex -1.93106 135.893 10.8
    endloop
  endfacet
  facet normal 0 0 1
    outer loop
      vertex -3.27325 134.346 10.8
      vertex -3.31002 135.188 10.8
      vertex -3.7766 134.411 10.8
    endloop
  endfacet
  facet normal 0 0 1
    outer loop
      vertex -3.31002 135.188 10.8
      vertex -3.80956 135.166 10.8
      vertex -3.7766 134.411 10.8
    endloop
  endfacet
  facet normal 0 -0 1
    outer loop
      vertex -3.62579 133.81 10.8
      vertex -3.23234 134.109 10.8
      vertex -3.7766 134.411 10.8
    endloop
  endfacet
  facet normal 0 0 1
    outer loop
      vertex -3.31002 135.188 10.8
      vertex -5.00476 135.759 10.8
      vertex -3.80956 135.166 10.8
    endloop
  endfacet
  facet normal 0 0 1
    outer loop
      vertex -1.864 134.357 10.8
      vertex -2.40251 135.227 10.8
      vertex -2.36651 134.403 10.8
    endloop
  endfacet
  facet normal -0 0 1
    outer loop
      vertex -2.78459 133.816 10.8
      vertex -2.34209 133.261 10.8
      vertex -2.45866 133.973 10.8
    endloop
  endfacet
  facet normal -0 0 1
    outer loop
      vertex -3.29552 133.329 10.8
      vertex -3.03291 133.202 10.8
      vertex -2.98191 133.843 10.8
    endloop
  endfacet
  facet normal 0 0 1
    outer loop
      vertex -2.98191 133.843 10.8
      vertex -3.03291 133.202 10.8
      vertex -2.78459 133.816 10.8
    endloop
  endfacet
  facet normal 0 0 1
    outer loop
      vertex -3.1332 133.941 10.8
      vertex -3.49932 133.535 10.8
      vertex -2.98191 133.843 10.8
    endloop
  endfacet
  facet normal -0 0 1
    outer loop
      vertex -3.62579 133.81 10.8
      vertex -3.49932 133.535 10.8
      vertex -3.1332 133.941 10.8
    endloop
  endfacet
  facet normal 0 0 1
    outer loop
      vertex -3.7766 134.411 10.8
      vertex -3.23234 134.109 10.8
      vertex -3.27325 134.346 10.8
    endloop
  endfacet
  facet normal 0 0 1
    outer loop
      vertex -3.62579 133.81 10.8
      vertex -3.1332 133.941 10.8
      vertex -3.23234 134.109 10.8
    endloop
  endfacet
  facet normal -0.954632 -0.297788 0
    outer loop
      vertex -5.09355 140.044 10
      vertex -5.21739 140.441 10.8
      vertex -5.21739 140.441 10
    endloop
  endfacet
  facet normal -0.954632 -0.297788 0
    outer loop
      vertex -5.09355 140.044 10
      vertex -5.09355 140.044 10.8
      vertex -5.21739 140.441 10.8
    endloop
  endfacet
  facet normal -0.882888 -0.469584 0
    outer loop
      vertex -4.90899 139.697 10
      vertex -5.09355 140.044 10.8
      vertex -5.09355 140.044 10
    endloop
  endfacet
  facet normal -0.882888 -0.469584 0
    outer loop
      vertex -4.90899 139.697 10
      vertex -4.90899 139.697 10.8
      vertex -5.09355 140.044 10.8
    endloop
  endfacet
  facet normal -0.754278 -0.656556 0
    outer loop
      vertex -4.6731 139.426 10
      vertex -4.90899 139.697 10.8
      vertex -4.90899 139.697 10
    endloop
  endfacet
  facet normal -0.754278 -0.656556 0
    outer loop
      vertex -4.6731 139.426 10
      vertex -4.6731 139.426 10.8
      vertex -4.90899 139.697 10.8
    endloop
  endfacet
  facet normal 0.0433221 -0.999061 0
    outer loop
      vertex -3.5431 139.475 10
      vertex -4.6731 139.426 10.8
      vertex -4.6731 139.426 10
    endloop
  endfacet
  facet normal 0.0433221 -0.999061 0
    outer loop
      vertex -3.5431 139.475 10
      vertex -3.5431 139.475 10.8
      vertex -4.6731 139.426 10.8
    endloop
  endfacet
  facet normal 0.999048 0.0436328 0
    outer loop
      vertex -3.60158 140.814 10
      vertex -3.5431 139.475 10.8
      vertex -3.5431 139.475 10
    endloop
  endfacet
  facet normal 0.999048 0.0436328 -0
    outer loop
      vertex -3.60158 140.814 10
      vertex -3.60158 140.814 10.8
      vertex -3.5431 139.475 10.8
    endloop
  endfacet
  facet normal -0.0420194 0.999117 0
    outer loop
      vertex -4.07713 140.794 10
      vertex -3.60158 140.814 10.8
      vertex -3.60158 140.814 10
    endloop
  endfacet
  facet normal -0.0420194 0.999117 0
    outer loop
      vertex -4.07713 140.794 10
      vertex -4.07713 140.794 10.8
      vertex -3.60158 140.814 10.8
    endloop
  endfacet
  facet normal -0.999049 -0.0435937 0
    outer loop
      vertex -4.04436 140.043 10
      vertex -4.07713 140.794 10.8
      vertex -4.07713 140.794 10
    endloop
  endfacet
  facet normal -0.999049 -0.0435937 0
    outer loop
      vertex -4.04436 140.043 10
      vertex -4.04436 140.043 10.8
      vertex -4.07713 140.794 10.8
    endloop
  endfacet
  facet normal -0.0422743 0.999106 0
    outer loop
      vertex -4.46977 140.025 10
      vertex -4.04436 140.043 10.8
      vertex -4.04436 140.043 10
    endloop
  endfacet
  facet normal -0.0422743 0.999106 0
    outer loop
      vertex -4.46977 140.025 10
      vertex -4.46977 140.025 10.8
      vertex -4.04436 140.043 10.8
    endloop
  endfacet
  facet normal 0.807967 0.589227 0
    outer loop
      vertex -4.57989 140.176 10
      vertex -4.46977 140.025 10.8
      vertex -4.46977 140.025 10
    endloop
  endfacet
  facet normal 0.807967 0.589227 -0
    outer loop
      vertex -4.57989 140.176 10
      vertex -4.57989 140.176 10.8
      vertex -4.46977 140.025 10.8
    endloop
  endfacet
  facet normal 0.911838 0.41055 0
    outer loop
      vertex -4.67219 140.381 10
      vertex -4.57989 140.176 10.8
      vertex -4.57989 140.176 10
    endloop
  endfacet
  facet normal 0.911838 0.41055 -0
    outer loop
      vertex -4.67219 140.381 10
      vertex -4.67219 140.381 10.8
      vertex -4.57989 140.176 10.8
    endloop
  endfacet
  facet normal 0.964107 0.265516 0
    outer loop
      vertex -4.73746 140.618 10
      vertex -4.67219 140.381 10.8
      vertex -4.67219 140.381 10
    endloop
  endfacet
  facet normal 0.964107 0.265516 -0
    outer loop
      vertex -4.73746 140.618 10
      vertex -4.73746 140.618 10.8
      vertex -4.67219 140.381 10.8
    endloop
  endfacet
  facet normal 0.993095 0.117314 0
    outer loop
      vertex -4.76652 140.864 10
      vertex -4.73746 140.618 10.8
      vertex -4.73746 140.618 10
    endloop
  endfacet
  facet normal 0.993095 0.117314 -0
    outer loop
      vertex -4.76652 140.864 10
      vertex -4.76652 140.864 10.8
      vertex -4.73746 140.618 10.8
    endloop
  endfacet
  facet normal 0.990754 -0.135671 0
    outer loop
      vertex -4.71243 141.259 10
      vertex -4.76652 140.864 10.8
      vertex -4.76652 140.864 10
    endloop
  endfacet
  facet normal 0.990754 -0.135671 0
    outer loop
      vertex -4.71243 141.259 10
      vertex -4.71243 141.259 10.8
      vertex -4.76652 140.864 10.8
    endloop
  endfacet
  facet normal 0.831944 -0.55486 0
    outer loop
      vertex -4.51168 141.56 10
      vertex -4.71243 141.259 10.8
      vertex -4.71243 141.259 10
    endloop
  endfacet
  facet normal 0.831944 -0.55486 0
    outer loop
      vertex -4.51168 141.56 10
      vertex -4.51168 141.56 10.8
      vertex -4.71243 141.259 10.8
    endloop
  endfacet
  facet normal 0.507804 -0.861472 0
    outer loop
      vertex -4.17578 141.758 10
      vertex -4.51168 141.56 10.8
      vertex -4.51168 141.56 10
    endloop
  endfacet
  facet normal 0.507804 -0.861472 0
    outer loop
      vertex -4.17578 141.758 10
      vertex -4.17578 141.758 10.8
      vertex -4.51168 141.56 10.8
    endloop
  endfacet
  facet normal 0.173587 -0.984818 0
    outer loop
      vertex -3.71624 141.839 10
      vertex -4.17578 141.758 10.8
      vertex -4.17578 141.758 10
    endloop
  endfacet
  facet normal 0.173587 -0.984818 0
    outer loop
      vertex -3.71624 141.839 10
      vertex -3.71624 141.839 10.8
      vertex -4.17578 141.758 10.8
    endloop
  endfacet
  facet normal -0.0852598 -0.996359 0
    outer loop
      vertex -3.26048 141.8 10
      vertex -3.71624 141.839 10.8
      vertex -3.71624 141.839 10
    endloop
  endfacet
  facet normal -0.0852598 -0.996359 0
    outer loop
      vertex -3.26048 141.8 10
      vertex -3.26048 141.8 10.8
      vertex -3.71624 141.839 10.8
    endloop
  endfacet
  facet normal -0.428056 -0.903752 0
    outer loop
      vertex -2.91845 141.638 10
      vertex -3.26048 141.8 10.8
      vertex -3.26048 141.8 10
    endloop
  endfacet
  facet normal -0.428056 -0.903752 0
    outer loop
      vertex -2.91845 141.638 10
      vertex -2.91845 141.638 10.8
      vertex -3.26048 141.8 10.8
    endloop
  endfacet
  facet normal -0.789006 -0.614386 0
    outer loop
      vertex -2.69964 141.357 10
      vertex -2.91845 141.638 10.8
      vertex -2.91845 141.638 10
    endloop
  endfacet
  facet normal -0.789006 -0.614386 0
    outer loop
      vertex -2.69964 141.357 10
      vertex -2.69964 141.357 10.8
      vertex -2.91845 141.638 10.8
    endloop
  endfacet
  facet normal -0.97726 -0.212043 0
    outer loop
      vertex -2.6135 140.96 10
      vertex -2.69964 141.357 10.8
      vertex -2.69964 141.357 10
    endloop
  endfacet
  facet normal -0.97726 -0.212043 0
    outer loop
      vertex -2.6135 140.96 10
      vertex -2.6135 140.96 10.8
      vertex -2.69964 141.357 10.8
    endloop
  endfacet
  facet normal -0.997426 0.0716996 0
    outer loop
      vertex -2.63219 140.7 10
      vertex -2.6135 140.96 10.8
      vertex -2.6135 140.96 10
    endloop
  endfacet
  facet normal -0.997426 0.0716996 0
    outer loop
      vertex -2.63219 140.7 10
      vertex -2.63219 140.7 10.8
      vertex -2.6135 140.96 10.8
    endloop
  endfacet
  facet normal -0.942818 0.333309 0
    outer loop
      vertex -2.71244 140.473 10
      vertex -2.63219 140.7 10.8
      vertex -2.63219 140.7 10
    endloop
  endfacet
  facet normal -0.942818 0.333309 0
    outer loop
      vertex -2.71244 140.473 10
      vertex -2.71244 140.473 10.8
      vertex -2.63219 140.7 10.8
    endloop
  endfacet
  facet normal -0.794662 0.607052 0
    outer loop
      vertex -2.853 140.289 10
      vertex -2.71244 140.473 10.8
      vertex -2.71244 140.473 10
    endloop
  endfacet
  facet normal -0.794662 0.607052 0
    outer loop
      vertex -2.853 140.289 10
      vertex -2.853 140.289 10.8
      vertex -2.71244 140.473 10.8
    endloop
  endfacet
  facet normal -0.551476 0.834191 0
    outer loop
      vertex -3.05267 140.157 10
      vertex -2.853 140.289 10.8
      vertex -2.853 140.289 10
    endloop
  endfacet
  facet normal -0.551476 0.834191 0
    outer loop
      vertex -3.05267 140.157 10
      vertex -3.05267 140.157 10.8
      vertex -2.853 140.289 10.8
    endloop
  endfacet
  facet normal -0.944014 -0.329905 0
    outer loop
      vertex -2.84788 139.571 10
      vertex -3.05267 140.157 10.8
      vertex -3.05267 140.157 10
    endloop
  endfacet
  facet normal -0.944014 -0.329905 0
    outer loop
      vertex -2.84788 139.571 10
      vertex -2.84788 139.571 10.8
      vertex -3.05267 140.157 10.8
    endloop
  endfacet
  facet normal 0.666764 -0.745269 0
    outer loop
      vertex -2.26889 140.089 10
      vertex -2.84788 139.571 10.8
      vertex -2.84788 139.571 10
    endloop
  endfacet
  facet normal 0.666764 -0.745269 0
    outer loop
      vertex -2.26889 140.089 10
      vertex -2.26889 140.089 10.8
      vertex -2.84788 139.571 10.8
    endloop
  endfacet
  facet normal 0.984035 -0.177975 0
    outer loop
      vertex -2.10738 140.982 10
      vertex -2.26889 140.089 10.8
      vertex -2.26889 140.089 10
    endloop
  endfacet
  facet normal 0.984035 -0.177975 0
    outer loop
      vertex -2.10738 140.982 10
      vertex -2.10738 140.982 10.8
      vertex -2.26889 140.089 10.8
    endloop
  endfacet
  facet normal 0.981438 0.191777 0
    outer loop
      vertex -2.23791 141.65 10
      vertex -2.10738 140.982 10.8
      vertex -2.10738 140.982 10
    endloop
  endfacet
  facet normal 0.981438 0.191777 -0
    outer loop
      vertex -2.23791 141.65 10
      vertex -2.23791 141.65 10.8
      vertex -2.10738 140.982 10.8
    endloop
  endfacet
  facet normal 0.82904 0.559189 0
    outer loop
      vertex -2.56302 142.132 10
      vertex -2.23791 141.65 10.8
      vertex -2.23791 141.65 10
    endloop
  endfacet
  facet normal 0.82904 0.559189 -0
    outer loop
      vertex -2.56302 142.132 10
      vertex -2.56302 142.132 10.8
      vertex -2.23791 141.65 10.8
    endloop
  endfacet
  facet normal 0.487719 0.873 0
    outer loop
      vertex -3.06958 142.415 10
      vertex -2.56302 142.132 10.8
      vertex -2.56302 142.132 10
    endloop
  endfacet
  facet normal 0.487719 0.873 -0
    outer loop
      vertex -3.06958 142.415 10
      vertex -3.06958 142.415 10.8
      vertex -2.56302 142.132 10.8
    endloop
  endfacet
  facet normal 0.106073 0.994358 0
    outer loop
      vertex -3.74453 142.487 10
      vertex -3.06958 142.415 10.8
      vertex -3.06958 142.415 10
    endloop
  endfacet
  facet normal 0.106073 0.994358 -0
    outer loop
      vertex -3.74453 142.487 10
      vertex -3.74453 142.487 10.8
      vertex -3.06958 142.415 10.8
    endloop
  endfacet
  facet normal -0.191306 0.98153 0
    outer loop
      vertex -4.41665 142.356 10
      vertex -3.74453 142.487 10.8
      vertex -3.74453 142.487 10
    endloop
  endfacet
  facet normal -0.191306 0.98153 0
    outer loop
      vertex -4.41665 142.356 10
      vertex -4.41665 142.356 10.8
      vertex -3.74453 142.487 10.8
    endloop
  endfacet
  facet normal -0.552063 0.833802 0
    outer loop
      vertex -4.906 142.032 10
      vertex -4.41665 142.356 10.8
      vertex -4.41665 142.356 10
    endloop
  endfacet
  facet normal -0.552063 0.833802 0
    outer loop
      vertex -4.906 142.032 10
      vertex -4.906 142.032 10.8
      vertex -4.41665 142.356 10.8
    endloop
  endfacet
  facet normal -0.866557 0.499078 0
    outer loop
      vertex -5.19627 141.528 10
      vertex -4.906 142.032 10.8
      vertex -4.906 142.032 10
    endloop
  endfacet
  facet normal -0.866557 0.499078 0
    outer loop
      vertex -5.19627 141.528 10
      vertex -5.19627 141.528 10.8
      vertex -4.906 142.032 10.8
    endloop
  endfacet
  facet normal -0.993771 0.111442 0
    outer loop
      vertex -5.27118 140.86 10
      vertex -5.19627 141.528 10.8
      vertex -5.19627 141.528 10
    endloop
  endfacet
  facet normal -0.993771 0.111442 0
    outer loop
      vertex -5.27118 140.86 10
      vertex -5.27118 140.86 10.8
      vertex -5.19627 141.528 10.8
    endloop
  endfacet
  facet normal -0.99186 -0.127332 0
    outer loop
      vertex -5.21739 140.441 10
      vertex -5.27118 140.86 10.8
      vertex -5.27118 140.86 10
    endloop
  endfacet
  facet normal -0.99186 -0.127332 0
    outer loop
      vertex -5.21739 140.441 10
      vertex -5.21739 140.441 10.8
      vertex -5.27118 140.86 10.8
    endloop
  endfacet
  facet normal -0.890355 -0.455267 0
    outer loop
      vertex -4.80804 136.509 10
      vertex -4.99621 136.877 10.8
      vertex -4.99621 136.877 10
    endloop
  endfacet
  facet normal -0.890355 -0.455267 0
    outer loop
      vertex -4.80804 136.509 10
      vertex -4.80804 136.509 10.8
      vertex -4.99621 136.877 10.8
    endloop
  endfacet
  facet normal -0.613826 -0.789441 0
    outer loop
      vertex -4.52124 136.286 10
      vertex -4.80804 136.509 10.8
      vertex -4.80804 136.509 10
    endloop
  endfacet
  facet normal -0.613826 -0.789441 0
    outer loop
      vertex -4.52124 136.286 10
      vertex -4.52124 136.286 10.8
      vertex -4.80804 136.509 10.8
    endloop
  endfacet
  facet normal -0.165747 -0.986168 0
    outer loop
      vertex -4.1464 136.223 10
      vertex -4.52124 136.286 10.8
      vertex -4.52124 136.286 10
    endloop
  endfacet
  facet normal -0.165747 -0.986168 0
    outer loop
      vertex -4.1464 136.223 10
      vertex -4.1464 136.223 10.8
      vertex -4.52124 136.286 10.8
    endloop
  endfacet
  facet normal 0.212011 -0.977267 0
    outer loop
      vertex -3.86522 136.284 10
      vertex -4.1464 136.223 10.8
      vertex -4.1464 136.223 10
    endloop
  endfacet
  facet normal 0.212011 -0.977267 0
    outer loop
      vertex -3.86522 136.284 10
      vertex -3.86522 136.284 10.8
      vertex -4.1464 136.223 10.8
    endloop
  endfacet
  facet normal 0.589233 -0.807963 0
    outer loop
      vertex -3.64994 136.441 10
      vertex -3.86522 136.284 10.8
      vertex -3.86522 136.284 10
    endloop
  endfacet
  facet normal 0.589233 -0.807963 0
    outer loop
      vertex -3.64994 136.441 10
      vertex -3.64994 136.441 10.8
      vertex -3.86522 136.284 10.8
    endloop
  endfacet
  facet normal 0.863641 -0.504107 0
    outer loop
      vertex -3.50635 136.687 10
      vertex -3.64994 136.441 10.8
      vertex -3.64994 136.441 10
    endloop
  endfacet
  facet normal 0.863641 -0.504107 0
    outer loop
      vertex -3.50635 136.687 10
      vertex -3.50635 136.687 10.8
      vertex -3.64994 136.441 10.8
    endloop
  endfacet
  facet normal 0.980751 -0.195264 0
    outer loop
      vertex -3.44025 137.019 10
      vertex -3.50635 136.687 10.8
      vertex -3.50635 136.687 10
    endloop
  endfacet
  facet normal 0.980751 -0.195264 0
    outer loop
      vertex -3.44025 137.019 10
      vertex -3.44025 137.019 10.8
      vertex -3.50635 136.687 10.8
    endloop
  endfacet
  facet normal -0.926269 -0.376864 0
    outer loop
      vertex -3.3365 136.764 10
      vertex -3.44025 137.019 10.8
      vertex -3.44025 137.019 10
    endloop
  endfacet
  facet normal -0.926269 -0.376864 0
    outer loop
      vertex -3.3365 136.764 10
      vertex -3.3365 136.764 10.8
      vertex -3.44025 137.019 10.8
    endloop
  endfacet
  facet normal -0.742517 -0.669827 0
    outer loop
      vertex -3.17773 136.588 10
      vertex -3.3365 136.764 10.8
      vertex -3.3365 136.764 10
    endloop
  endfacet
  facet normal -0.742517 -0.669827 0
    outer loop
      vertex -3.17773 136.588 10
      vertex -3.17773 136.588 10.8
      vertex -3.3365 136.764 10.8
    endloop
  endfacet
  facet normal -0.438096 -0.898928 0
    outer loop
      vertex -2.97254 136.488 10
      vertex -3.17773 136.588 10.8
      vertex -3.17773 136.588 10
    endloop
  endfacet
  facet normal -0.438096 -0.898928 0
    outer loop
      vertex -2.97254 136.488 10
      vertex -2.97254 136.488 10.8
      vertex -3.17773 136.588 10.8
    endloop
  endfacet
  facet normal -0.106432 -0.99432 0
    outer loop
      vertex -2.72964 136.462 10
      vertex -2.97254 136.488 10.8
      vertex -2.97254 136.488 10
    endloop
  endfacet
  facet normal -0.106432 -0.99432 0
    outer loop
      vertex -2.72964 136.462 10
      vertex -2.72964 136.462 10.8
      vertex -2.97254 136.488 10.8
    endloop
  endfacet
  facet normal 0.253511 -0.967333 0
    outer loop
      vertex -2.39767 136.549 10
      vertex -2.72964 136.462 10.8
      vertex -2.72964 136.462 10
    endloop
  endfacet
  facet normal 0.253511 -0.967333 0
    outer loop
      vertex -2.39767 136.549 10
      vertex -2.39767 136.549 10.8
      vertex -2.72964 136.462 10.8
    endloop
  endfacet
  facet normal 0.698747 -0.715369 0
    outer loop
      vertex -2.16527 136.776 10
      vertex -2.39767 136.549 10.8
      vertex -2.39767 136.549 10
    endloop
  endfacet
  facet normal 0.698747 -0.715369 0
    outer loop
      vertex -2.16527 136.776 10
      vertex -2.16527 136.776 10.8
      vertex -2.39767 136.549 10.8
    endloop
  endfacet
  facet normal 0.941052 -0.338262 0
    outer loop
      vertex -2.03443 137.14 10
      vertex -2.16527 136.776 10.8
      vertex -2.16527 136.776 10
    endloop
  endfacet
  facet normal 0.941052 -0.338262 0
    outer loop
      vertex -2.03443 137.14 10
      vertex -2.03443 137.14 10.8
      vertex -2.16527 136.776 10.8
    endloop
  endfacet
  facet normal 0.998502 -0.0547067 0
    outer loop
      vertex -2.0072 137.637 10
      vertex -2.03443 137.14 10.8
      vertex -2.03443 137.14 10
    endloop
  endfacet
  facet normal 0.998502 -0.0547067 0
    outer loop
      vertex -2.0072 137.637 10
      vertex -2.0072 137.637 10.8
      vertex -2.03443 137.14 10.8
    endloop
  endfacet
  facet normal 0.999048 0.0436187 0
    outer loop
      vertex -2.06863 139.044 10
      vertex -2.0072 137.637 10.8
      vertex -2.0072 137.637 10
    endloop
  endfacet
  facet normal 0.999048 0.0436187 -0
    outer loop
      vertex -2.06863 139.044 10
      vertex -2.06863 139.044 10.8
      vertex -2.0072 137.637 10.8
    endloop
  endfacet
  facet normal -0.0435543 0.999051 0
    outer loop
      vertex -5.14233 138.91 10
      vertex -2.06863 139.044 10.8
      vertex -2.06863 139.044 10
    endloop
  endfacet
  facet normal -0.0435543 0.999051 0
    outer loop
      vertex -5.14233 138.91 10
      vertex -5.14233 138.91 10.8
      vertex -2.06863 139.044 10.8
    endloop
  endfacet
  facet normal -0.999048 -0.043619 0
    outer loop
      vertex -5.07518 137.372 10
      vertex -5.14233 138.91 10.8
      vertex -5.14233 138.91 10
    endloop
  endfacet
  facet normal -0.999048 -0.043619 0
    outer loop
      vertex -5.07518 137.372 10
      vertex -5.07518 137.372 10.8
      vertex -5.14233 138.91 10.8
    endloop
  endfacet
  facet normal -0.987512 -0.157543 0
    outer loop
      vertex -4.99621 136.877 10
      vertex -5.07518 137.372 10.8
      vertex -5.07518 137.372 10
    endloop
  endfacet
  facet normal -0.987512 -0.157543 0
    outer loop
      vertex -4.99621 136.877 10
      vertex -4.99621 136.877 10.8
      vertex -5.07518 137.372 10.8
    endloop
  endfacet
  facet normal 0.043304 -0.999062 0
    outer loop
      vertex -2.51829 138.379 10
      vertex -2.51829 138.379 10.8
      vertex -3.27963 138.346 10
    endloop
  endfacet
  facet normal 0.043304 -0.999062 0
    outer loop
      vertex -3.27963 138.346 10.8
      vertex -3.27963 138.346 10
      vertex -2.51829 138.379 10.8
    endloop
  endfacet
  facet normal -0.999048 -0.0436147 0
    outer loop
      vertex -2.48629 137.646 10
      vertex -2.48629 137.646 10.8
      vertex -2.51829 138.379 10
    endloop
  endfacet
  facet normal -0.999048 -0.0436147 -0
    outer loop
      vertex -2.51829 138.379 10.8
      vertex -2.51829 138.379 10
      vertex -2.48629 137.646 10.8
    endloop
  endfacet
  facet normal -0.998648 0.051991 0
    outer loop
      vertex -2.49816 137.418 10
      vertex -2.49816 137.418 10.8
      vertex -2.48629 137.646 10
    endloop
  endfacet
  facet normal -0.998648 0.051991 0
    outer loop
      vertex -2.48629 137.646 10.8
      vertex -2.48629 137.646 10
      vertex -2.49816 137.418 10.8
    endloop
  endfacet
  facet normal -0.944122 0.329595 0
    outer loop
      vertex -2.55646 137.251 10
      vertex -2.55646 137.251 10.8
      vertex -2.49816 137.418 10
    endloop
  endfacet
  facet normal -0.944122 0.329595 0
    outer loop
      vertex -2.49816 137.418 10.8
      vertex -2.49816 137.418 10
      vertex -2.55646 137.251 10.8
    endloop
  endfacet
  facet normal -0.677425 0.735592 0
    outer loop
      vertex -2.66939 137.147 10
      vertex -2.66939 137.147 10.8
      vertex -2.55646 137.251 10
    endloop
  endfacet
  facet normal -0.677425 0.735592 0
    outer loop
      vertex -2.55646 137.251 10.8
      vertex -2.55646 137.251 10
      vertex -2.66939 137.147 10.8
    endloop
  endfacet
  facet normal -0.227149 0.97386 0
    outer loop
      vertex -2.84517 137.106 10
      vertex -2.84517 137.106 10.8
      vertex -2.66939 137.147 10
    endloop
  endfacet
  facet normal -0.227149 0.97386 0
    outer loop
      vertex -2.66939 137.147 10.8
      vertex -2.66939 137.147 10
      vertex -2.84517 137.106 10.8
    endloop
  endfacet
  facet normal 0.141901 0.989881 -0
    outer loop
      vertex -3.01259 137.13 10
      vertex -3.01259 137.13 10.8
      vertex -2.84517 137.106 10
    endloop
  endfacet
  facet normal 0.141901 0.989881 0
    outer loop
      vertex -2.84517 137.106 10.8
      vertex -2.84517 137.106 10
      vertex -3.01259 137.13 10.8
    endloop
  endfacet
  facet normal 0.578499 0.815683 -0
    outer loop
      vertex -3.13526 137.217 10
      vertex -3.13526 137.217 10.8
      vertex -3.01259 137.13 10
    endloop
  endfacet
  facet normal 0.578499 0.815683 0
    outer loop
      vertex -3.01259 137.13 10.8
      vertex -3.01259 137.13 10
      vertex -3.13526 137.217 10.8
    endloop
  endfacet
  facet normal 0.896258 0.443534 -0
    outer loop
      vertex -3.21345 137.375 10
      vertex -3.21345 137.375 10.8
      vertex -3.13526 137.217 10
    endloop
  endfacet
  facet normal 0.896258 0.443534 0
    outer loop
      vertex -3.13526 137.217 10.8
      vertex -3.13526 137.217 10
      vertex -3.21345 137.375 10.8
    endloop
  endfacet
  facet normal 0.989614 0.143748 -0
    outer loop
      vertex -3.24744 137.609 10
      vertex -3.24744 137.609 10.8
      vertex -3.21345 137.375 10
    endloop
  endfacet
  facet normal 0.989614 0.143748 0
    outer loop
      vertex -3.21345 137.375 10.8
      vertex -3.21345 137.375 10
      vertex -3.24744 137.609 10.8
    endloop
  endfacet
  facet normal 0.999048 0.0436355 -0
    outer loop
      vertex -3.27963 138.346 10
      vertex -3.27963 138.346 10.8
      vertex -3.24744 137.609 10
    endloop
  endfacet
  facet normal 0.999048 0.0436355 0
    outer loop
      vertex -3.24744 137.609 10.8
      vertex -3.24744 137.609 10
      vertex -3.27963 138.346 10.8
    endloop
  endfacet
  facet normal 0.0430771 -0.999072 0
    outer loop
      vertex -3.75518 138.325 10
      vertex -3.75518 138.325 10.8
      vertex -4.6365 138.287 10
    endloop
  endfacet
  facet normal 0.0430771 -0.999072 0
    outer loop
      vertex -4.6365 138.287 10.8
      vertex -4.6365 138.287 10
      vertex -3.75518 138.325 10.8
    endloop
  endfacet
  facet normal -0.999046 -0.0436638 0
    outer loop
      vertex -3.71956 137.51 10
      vertex -3.71956 137.51 10.8
      vertex -3.75518 138.325 10
    endloop
  endfacet
  facet normal -0.999046 -0.0436638 -0
    outer loop
      vertex -3.75518 138.325 10.8
      vertex -3.75518 138.325 10
      vertex -3.71956 137.51 10.8
    endloop
  endfacet
  facet normal -0.983033 0.18343 0
    outer loop
      vertex -3.80726 137.04 10
      vertex -3.80726 137.04 10.8
      vertex -3.71956 137.51 10
    endloop
  endfacet
  facet normal -0.983033 0.18343 0
    outer loop
      vertex -3.71956 137.51 10.8
      vertex -3.71956 137.51 10
      vertex -3.80726 137.04 10.8
    endloop
  endfacet
  facet normal -0.470224 0.882547 0
    outer loop
      vertex -4.12445 136.871 10
      vertex -4.12445 136.871 10.8
      vertex -3.80726 137.04 10
    endloop
  endfacet
  facet normal -0.470224 0.882547 0
    outer loop
      vertex -3.80726 137.04 10.8
      vertex -3.80726 137.04 10
      vertex -4.12445 136.871 10.8
    endloop
  endfacet
  facet normal 0.135013 0.990844 -0
    outer loop
      vertex -4.3226 136.898 10
      vertex -4.3226 136.898 10.8
      vertex -4.12445 136.871 10
    endloop
  endfacet
  facet normal 0.135013 0.990844 0
    outer loop
      vertex -4.12445 136.871 10.8
      vertex -4.12445 136.871 10
      vertex -4.3226 136.898 10.8
    endloop
  endfacet
  facet normal 0.571217 0.820799 -0
    outer loop
      vertex -4.46773 136.999 10
      vertex -4.46773 136.999 10.8
      vertex -4.3226 136.898 10
    endloop
  endfacet
  facet normal 0.571217 0.820799 0
    outer loop
      vertex -4.3226 136.898 10.8
      vertex -4.3226 136.898 10
      vertex -4.46773 136.999 10.8
    endloop
  endfacet
  facet normal 0.890835 0.454326 -0
    outer loop
      vertex -4.56004 137.18 10
      vertex -4.56004 137.18 10.8
      vertex -4.46773 136.999 10
    endloop
  endfacet
  facet normal 0.890835 0.454326 0
    outer loop
      vertex -4.46773 136.999 10.8
      vertex -4.46773 136.999 10
      vertex -4.56004 137.18 10.8
    endloop
  endfacet
  facet normal 0.989077 0.147398 -0
    outer loop
      vertex -4.59983 137.447 10
      vertex -4.59983 137.447 10.8
      vertex -4.56004 137.18 10
    endloop
  endfacet
  facet normal 0.989077 0.147398 0
    outer loop
      vertex -4.56004 137.18 10.8
      vertex -4.56004 137.18 10
      vertex -4.59983 137.447 10.8
    endloop
  endfacet
  facet normal 0.999048 0.0436132 -0
    outer loop
      vertex -4.6365 138.287 10
      vertex -4.6365 138.287 10.8
      vertex -4.59983 137.447 10
    endloop
  endfacet
  facet normal 0.999048 0.0436132 0
    outer loop
      vertex -4.59983 137.447 10.8
      vertex -4.59983 137.447 10
      vertex -4.6365 138.287 10.8
    endloop
  endfacet
  facet normal -0.999048 -0.0436141 0
    outer loop
      vertex -3.7766 134.411 10
      vertex -3.80956 135.166 10.8
      vertex -3.80956 135.166 10
    endloop
  endfacet
  facet normal -0.999048 -0.0436141 0
    outer loop
      vertex -3.7766 134.411 10
      vertex -3.7766 134.411 10.8
      vertex -3.80956 135.166 10.8
    endloop
  endfacet
  facet normal -0.558081 0.829787 0
    outer loop
      vertex -4.91256 133.647 10
      vertex -3.7766 134.411 10.8
      vertex -3.7766 134.411 10
    endloop
  endfacet
  facet normal -0.558081 0.829787 0
    outer loop
      vertex -4.91256 133.647 10
      vertex -4.91256 133.647 10.8
      vertex -3.7766 134.411 10.8
    endloop
  endfacet
  facet normal -0.999048 -0.0436324 0
    outer loop
      vertex -4.88094 132.923 10
      vertex -4.91256 133.647 10.8
      vertex -4.91256 133.647 10
    endloop
  endfacet
  facet normal -0.999048 -0.0436324 0
    outer loop
      vertex -4.88094 132.923 10
      vertex -4.88094 132.923 10.8
      vertex -4.91256 133.647 10.8
    endloop
  endfacet
  facet normal 0.577122 -0.816658 0
    outer loop
      vertex -3.62579 133.81 10
      vertex -4.88094 132.923 10.8
      vertex -4.88094 132.923 10
    endloop
  endfacet
  facet normal 0.577122 -0.816658 0
    outer loop
      vertex -3.62579 133.81 10
      vertex -3.62579 133.81 10.8
      vertex -4.88094 132.923 10.8
    endloop
  endfacet
  facet normal -0.908528 -0.417824 0
    outer loop
      vertex -3.49932 133.535 10
      vertex -3.62579 133.81 10.8
      vertex -3.62579 133.81 10
    endloop
  endfacet
  facet normal -0.908528 -0.417824 0
    outer loop
      vertex -3.49932 133.535 10
      vertex -3.49932 133.535 10.8
      vertex -3.62579 133.81 10.8
    endloop
  endfacet
  facet normal -0.710893 -0.703301 0
    outer loop
      vertex -3.29552 133.329 10
      vertex -3.49932 133.535 10.8
      vertex -3.49932 133.535 10
    endloop
  endfacet
  facet normal -0.710893 -0.703301 0
    outer loop
      vertex -3.29552 133.329 10
      vertex -3.29552 133.329 10.8
      vertex -3.49932 133.535 10.8
    endloop
  endfacet
  facet normal -0.435368 -0.900252 0
    outer loop
      vertex -3.03291 133.202 10
      vertex -3.29552 133.329 10.8
      vertex -3.29552 133.329 10
    endloop
  endfacet
  facet normal -0.435368 -0.900252 0
    outer loop
      vertex -3.03291 133.202 10
      vertex -3.03291 133.202 10.8
      vertex -3.29552 133.329 10.8
    endloop
  endfacet
  facet normal -0.105095 -0.994462 0
    outer loop
      vertex -2.73011 133.17 10
      vertex -3.03291 133.202 10.8
      vertex -3.03291 133.202 10
    endloop
  endfacet
  facet normal -0.105095 -0.994462 0
    outer loop
      vertex -2.73011 133.17 10
      vertex -2.73011 133.17 10.8
      vertex -3.03291 133.202 10.8
    endloop
  endfacet
  facet normal 0.228329 -0.973584 0
    outer loop
      vertex -2.34209 133.261 10
      vertex -2.73011 133.17 10.8
      vertex -2.73011 133.17 10
    endloop
  endfacet
  facet normal 0.228329 -0.973584 0
    outer loop
      vertex -2.34209 133.261 10
      vertex -2.34209 133.261 10.8
      vertex -2.73011 133.17 10.8
    endloop
  endfacet
  facet normal 0.648166 -0.761499 0
    outer loop
      vertex -2.06365 133.498 10
      vertex -2.34209 133.261 10.8
      vertex -2.34209 133.261 10
    endloop
  endfacet
  facet normal 0.648166 -0.761499 0
    outer loop
      vertex -2.06365 133.498 10
      vertex -2.06365 133.498 10.8
      vertex -2.34209 133.261 10.8
    endloop
  endfacet
  facet normal 0.915891 -0.401428 0
    outer loop
      vertex -1.90192 133.867 10
      vertex -2.06365 133.498 10.8
      vertex -2.06365 133.498 10
    endloop
  endfacet
  facet normal 0.915891 -0.401428 0
    outer loop
      vertex -1.90192 133.867 10
      vertex -1.90192 133.867 10.8
      vertex -2.06365 133.498 10.8
    endloop
  endfacet
  facet normal 0.997019 -0.0771571 0
    outer loop
      vertex -1.864 134.357 10
      vertex -1.90192 133.867 10.8
      vertex -1.90192 133.867 10
    endloop
  endfacet
  facet normal 0.997019 -0.0771571 0
    outer loop
      vertex -1.864 134.357 10
      vertex -1.864 134.357 10.8
      vertex -1.90192 133.867 10.8
    endloop
  endfacet
  facet normal 0.999048 0.0436173 0
    outer loop
      vertex -1.93106 135.893 10
      vertex -1.864 134.357 10.8
      vertex -1.864 134.357 10
    endloop
  endfacet
  facet normal 0.999048 0.0436173 -0
    outer loop
      vertex -1.93106 135.893 10
      vertex -1.93106 135.893 10.8
      vertex -1.864 134.357 10.8
    endloop
  endfacet
  facet normal -0.0435543 0.999051 0
    outer loop
      vertex -5.00476 135.759 10
      vertex -1.93106 135.893 10.8
      vertex -1.93106 135.893 10
    endloop
  endfacet
  facet normal -0.0435543 0.999051 0
    outer loop
      vertex -5.00476 135.759 10
      vertex -5.00476 135.759 10.8
      vertex -1.93106 135.893 10.8
    endloop
  endfacet
  facet normal -0.999049 -0.0435921 0
    outer loop
      vertex -4.97666 135.115 10
      vertex -5.00476 135.759 10.8
      vertex -5.00476 135.759 10
    endloop
  endfacet
  facet normal -0.999049 -0.0435921 0
    outer loop
      vertex -4.97666 135.115 10
      vertex -4.97666 135.115 10.8
      vertex -5.00476 135.759 10.8
    endloop
  endfacet
  facet normal 0.0436564 -0.999047 0
    outer loop
      vertex -3.80956 135.166 10
      vertex -4.97666 135.115 10.8
      vertex -4.97666 135.115 10
    endloop
  endfacet
  facet normal 0.0436564 -0.999047 0
    outer loop
      vertex -3.80956 135.166 10
      vertex -3.80956 135.166 10.8
      vertex -4.97666 135.115 10.8
    endloop
  endfacet
  facet normal 0.0429351 -0.999078 0
    outer loop
      vertex -2.40251 135.227 10
      vertex -2.40251 135.227 10.8
      vertex -3.31002 135.188 10
    endloop
  endfacet
  facet normal 0.0429351 -0.999078 0
    outer loop
      vertex -3.31002 135.188 10.8
      vertex -3.31002 135.188 10
      vertex -2.40251 135.227 10.8
    endloop
  endfacet
  facet normal -0.999047 -0.0436477 0
    outer loop
      vertex -2.36651 134.403 10
      vertex -2.36651 134.403 10.8
      vertex -2.40251 135.227 10
    endloop
  endfacet
  facet normal -0.999047 -0.0436477 -0
    outer loop
      vertex -2.40251 135.227 10.8
      vertex -2.40251 135.227 10
      vertex -2.36651 134.403 10.8
    endloop
  endfacet
  facet normal -0.977799 0.209545 0
    outer loop
      vertex -2.45866 133.973 10
      vertex -2.45866 133.973 10.8
      vertex -2.36651 134.403 10
    endloop
  endfacet
  facet normal -0.977799 0.209545 0
    outer loop
      vertex -2.36651 134.403 10.8
      vertex -2.36651 134.403 10
      vertex -2.45866 133.973 10.8
    endloop
  endfacet
  facet normal -0.433974 0.900925 0
    outer loop
      vertex -2.78459 133.816 10
      vertex -2.78459 133.816 10.8
      vertex -2.45866 133.973 10
    endloop
  endfacet
  facet normal -0.433974 0.900925 0
    outer loop
      vertex -2.45866 133.973 10.8
      vertex -2.45866 133.973 10
      vertex -2.78459 133.816 10.8
    endloop
  endfacet
  facet normal 0.13557 0.990768 -0
    outer loop
      vertex -2.98191 133.843 10
      vertex -2.98191 133.843 10.8
      vertex -2.78459 133.816 10
    endloop
  endfacet
  facet normal 0.13557 0.990768 0
    outer loop
      vertex -2.78459 133.816 10.8
      vertex -2.78459 133.816 10
      vertex -2.98191 133.843 10.8
    endloop
  endfacet
  facet normal 0.543668 0.839301 -0
    outer loop
      vertex -3.1332 133.941 10
      vertex -3.1332 133.941 10.8
      vertex -2.98191 133.843 10
    endloop
  endfacet
  facet normal 0.543668 0.839301 0
    outer loop
      vertex -2.98191 133.843 10.8
      vertex -2.98191 133.843 10
      vertex -3.1332 133.941 10.8
    endloop
  endfacet
  facet normal 0.861224 0.508225 -0
    outer loop
      vertex -3.23234 134.109 10
      vertex -3.23234 134.109 10.8
      vertex -3.1332 133.941 10
    endloop
  endfacet
  facet normal 0.861224 0.508225 0
    outer loop
      vertex -3.1332 133.941 10.8
      vertex -3.1332 133.941 10
      vertex -3.23234 134.109 10.8
    endloop
  endfacet
  facet normal 0.985427 0.1701 -0
    outer loop
      vertex -3.27325 134.346 10
      vertex -3.27325 134.346 10.8
      vertex -3.23234 134.109 10
    endloop
  endfacet
  facet normal 0.985427 0.1701 0
    outer loop
      vertex -3.23234 134.109 10.8
      vertex -3.23234 134.109 10
      vertex -3.27325 134.346 10.8
    endloop
  endfacet
  facet normal 0.999048 0.0436283 -0
    outer loop
      vertex -3.31002 135.188 10
      vertex -3.31002 135.188 10.8
      vertex -3.27325 134.346 10
    endloop
  endfacet
  facet normal 0.999048 0.0436283 0
    outer loop
      vertex -3.27325 134.346 10.8
      vertex -3.27325 134.346 10
      vertex -3.31002 135.188 10.8
    endloop
  endfacet
endsolid OpenSCAD_Model
