solid OpenSCAD_Model
  facet normal 0 0 -1
    outer loop
      vertex 96.1043 100.77 0
      vertex 95.1219 101.87 0
      vertex 97.301 104.619 0
    endloop
  endfacet
  facet normal 0 0 -1
    outer loop
      vertex 102.548 101.8 0
      vertex 102.675 100.77 0
      vertex 102.614 100.789 0
    endloop
  endfacet
  facet normal 0 0 -1
    outer loop
      vertex 100.548 101.522 0
      vertex 101.349 103.508 0
      vertex 100.668 101.532 0
    endloop
  endfacet
  facet normal 0 0 -1
    outer loop
      vertex 99.4058 104.756 0
      vertex 100.548 101.522 0
      vertex 99.5079 100.952 0
    endloop
  endfacet
  facet normal 0 0 -1
    outer loop
      vertex 102.52 102.249 0
      vertex 101.349 103.508 0
      vertex 102.57 102.351 0
    endloop
  endfacet
  facet normal 0 0 -1
    outer loop
      vertex 100.678 104.494 0
      vertex 99.4058 104.756 0
      vertex 99.6229 104.81 0
    endloop
  endfacet
  facet normal 0 0 -1
    outer loop
      vertex 102.57 102.351 0
      vertex 101.349 103.508 0
      vertex 102.921 102.668 0
    endloop
  endfacet
  facet normal 0 0 -1
    outer loop
      vertex 100.678 104.494 0
      vertex 100.751 104.47 0
      vertex 101.274 103.676 0
    endloop
  endfacet
  facet normal 0 0 -1
    outer loop
      vertex 90.8466 106.345 0
      vertex 90.7933 106.374 0
      vertex 90.2935 107.522 0
    endloop
  endfacet
  facet normal 0 0 -1
    outer loop
      vertex 101.274 103.676 0
      vertex 101.403 104.433 0
      vertex 101.452 104.394 0
    endloop
  endfacet
  facet normal 0 0 -1
    outer loop
      vertex 101.274 103.676 0
      vertex 100.751 104.47 0
      vertex 101.403 104.433 0
    endloop
  endfacet
  facet normal 0 -0 -1
    outer loop
      vertex 99.7665 105.085 0
      vertex 100.678 104.494 0
      vertex 99.6229 104.81 0
    endloop
  endfacet
  facet normal -0 -0 -1
    outer loop
      vertex 100.678 104.494 0
      vertex 101.274 103.676 0
      vertex 99.4058 104.756 0
    endloop
  endfacet
  facet normal 0 0 -1
    outer loop
      vertex 96.5608 100.524 0
      vertex 96.1043 100.77 0
      vertex 97.4405 104.599 0
    endloop
  endfacet
  facet normal 0 0 -1
    outer loop
      vertex 95.1219 101.87 0
      vertex 97.111 104.759 0
      vertex 97.301 104.619 0
    endloop
  endfacet
  facet normal 0 0 -1
    outer loop
      vertex 97.4405 104.599 0
      vertex 98.8788 105.113 0
      vertex 99.4058 104.756 0
    endloop
  endfacet
  facet normal 0 0 -1
    outer loop
      vertex 92.3369 106.574 0
      vertex 92.2966 105.125 0
      vertex 90.8466 106.345 0
    endloop
  endfacet
  facet normal 0 0 -1
    outer loop
      vertex 94.3031 101.52 0
      vertex 93.1898 101.669 0
      vertex 94.5603 101.86 0
    endloop
  endfacet
  facet normal 0 0 -1
    outer loop
      vertex 92.9539 102.982 0
      vertex 95.01 101.92 0
      vertex 94.68 101.92 0
    endloop
  endfacet
  facet normal 0 -0 -1
    outer loop
      vertex 89.1635 107.576 0
      vertex 89.99 106.616 0
      vertex 89.0359 107.358 0
    endloop
  endfacet
  facet normal 0 0 -1
    outer loop
      vertex 97.0538 104.914 0
      vertex 94.9764 106.412 0
      vertex 97.1187 105.195 0
    endloop
  endfacet
  facet normal 0 0 -1
    outer loop
      vertex 92.2966 105.125 0
      vertex 92.3914 106.56 0
      vertex 92.3439 105.052 0
    endloop
  endfacet
  facet normal -0 0 -1
    outer loop
      vertex 92.3369 106.574 0
      vertex 90.8466 106.345 0
      vertex 90.2935 107.522 0
    endloop
  endfacet
  facet normal 0 0 -1
    outer loop
      vertex 89.1635 107.576 0
      vertex 90.2935 107.522 0
      vertex 89.99 106.616 0
    endloop
  endfacet
  facet normal 0 0 -1
    outer loop
      vertex 89.99 106.616 0
      vertex 90.2935 107.522 0
      vertex 90.7933 106.374 0
    endloop
  endfacet
  facet normal -0 0 -1
    outer loop
      vertex 94.9764 106.412 0
      vertex 92.3439 105.052 0
      vertex 92.3914 106.56 0
    endloop
  endfacet
  facet normal -0 0 -1
    outer loop
      vertex 92.3914 106.56 0
      vertex 92.2966 105.125 0
      vertex 92.3369 106.574 0
    endloop
  endfacet
  facet normal 0 0 -1
    outer loop
      vertex 94.9764 106.412 0
      vertex 92.9539 102.982 0
      vertex 92.3439 105.052 0
    endloop
  endfacet
  facet normal 0 0 -1
    outer loop
      vertex 94.68 101.92 0
      vertex 92.9577 102.914 0
      vertex 92.9539 102.982 0
    endloop
  endfacet
  facet normal -0 0 -1
    outer loop
      vertex 94.5603 101.86 0
      vertex 93.1898 101.669 0
      vertex 92.9577 102.914 0
    endloop
  endfacet
  facet normal 0 0 -1
    outer loop
      vertex 93.0776 101.638 0
      vertex 92.789 102.059 0
      vertex 93.1898 101.669 0
    endloop
  endfacet
  facet normal -0 0 -1
    outer loop
      vertex 93.0776 101.638 0
      vertex 92.9126 101.509 0
      vertex 92.789 102.059 0
    endloop
  endfacet
  facet normal 0 0 -1
    outer loop
      vertex 92.9577 102.914 0
      vertex 94.68 101.92 0
      vertex 94.5603 101.86 0
    endloop
  endfacet
  facet normal 0 0 -1
    outer loop
      vertex 94.9764 106.412 0
      vertex 97.0538 104.914 0
      vertex 95.01 101.92 0
    endloop
  endfacet
  facet normal 0 0 -1
    outer loop
      vertex 92.9126 101.509 0
      vertex 92.4844 101.662 0
      vertex 92.789 102.059 0
    endloop
  endfacet
  facet normal 0 0 -1
    outer loop
      vertex 96.5608 100.524 0
      vertex 99.5079 100.952 0
      vertex 99.4644 100.812 0
    endloop
  endfacet
  facet normal 0 0 -1
    outer loop
      vertex 93.1898 101.669 0
      vertex 92.8177 102.124 0
      vertex 92.9577 102.914 0
    endloop
  endfacet
  facet normal 0 0 -1
    outer loop
      vertex 92.789 102.059 0
      vertex 92.8177 102.124 0
      vertex 93.1898 101.669 0
    endloop
  endfacet
  facet normal 0 0 -1
    outer loop
      vertex 95.01 101.92 0
      vertex 97.0538 104.914 0
      vertex 97.111 104.759 0
    endloop
  endfacet
  facet normal 0 0 -1
    outer loop
      vertex 96.5608 100.524 0
      vertex 97.4405 104.599 0
      vertex 99.5079 100.952 0
    endloop
  endfacet
  facet normal 0 -0 -1
    outer loop
      vertex 94.9764 106.412 0
      vertex 95.01 101.92 0
      vertex 92.9539 102.982 0
    endloop
  endfacet
  facet normal 0 0 -1
    outer loop
      vertex 95.01 101.92 0
      vertex 97.111 104.759 0
      vertex 95.1219 101.87 0
    endloop
  endfacet
  facet normal -0 0 -1
    outer loop
      vertex 97.4405 104.599 0
      vertex 96.1043 100.77 0
      vertex 97.301 104.619 0
    endloop
  endfacet
  facet normal 0 0 -1
    outer loop
      vertex 97.4405 104.599 0
      vertex 99.4058 104.756 0
      vertex 99.5079 100.952 0
    endloop
  endfacet
  facet normal -0 0 -1
    outer loop
      vertex 102.52 102.249 0
      vertex 100.668 101.532 0
      vertex 101.349 103.508 0
    endloop
  endfacet
  facet normal 0 0 -1
    outer loop
      vertex 102.52 102.249 0
      vertex 101.638 101.202 0
      vertex 100.668 101.532 0
    endloop
  endfacet
  facet normal 0 0 -1
    outer loop
      vertex 99.4058 104.756 0
      vertex 101.274 103.676 0
      vertex 100.548 101.522 0
    endloop
  endfacet
  facet normal -0 0 -1
    outer loop
      vertex 101.349 103.508 0
      vertex 100.548 101.522 0
      vertex 101.274 103.676 0
    endloop
  endfacet
  facet normal 0 0 -1
    outer loop
      vertex 102.52 102.249 0
      vertex 102.5 101.919 0
      vertex 101.638 101.202 0
    endloop
  endfacet
  facet normal 0 0 -1
    outer loop
      vertex 101.724 101.127 0
      vertex 101.638 101.202 0
      vertex 102.548 101.8 0
    endloop
  endfacet
  facet normal 0 0 -1
    outer loop
      vertex 101.638 101.202 0
      vertex 102.5 101.919 0
      vertex 102.548 101.8 0
    endloop
  endfacet
  facet normal 0 0 -1
    outer loop
      vertex 101.724 101.127 0
      vertex 102.614 100.789 0
      vertex 101.857 100.861 0
    endloop
  endfacet
  facet normal 0 0 -1
    outer loop
      vertex 101.724 101.127 0
      vertex 102.548 101.8 0
      vertex 102.614 100.789 0
    endloop
  endfacet
  facet normal 0 0 -1
    outer loop
      vertex 102.548 101.8 0
      vertex 103.519 100.892 0
      vertex 102.675 100.77 0
    endloop
  endfacet
  facet normal 0 0 -1
    outer loop
      vertex 102.675 100.77 0
      vertex 103.519 100.892 0
      vertex 103.2 100.466 0
    endloop
  endfacet
  facet normal 0 0 1
    outer loop
      vertex 97.301 104.619 10
      vertex 95.1219 101.87 10
      vertex 96.1043 100.77 10
    endloop
  endfacet
  facet normal -0 -0 1
    outer loop
      vertex 102.614 100.789 10
      vertex 102.675 100.77 10
      vertex 102.548 101.8 10
    endloop
  endfacet
  facet normal 0 -0 1
    outer loop
      vertex 100.668 101.532 10
      vertex 101.349 103.508 10
      vertex 100.548 101.522 10
    endloop
  endfacet
  facet normal 0 -0 1
    outer loop
      vertex 99.5079 100.952 10
      vertex 100.548 101.522 10
      vertex 99.4058 104.756 10
    endloop
  endfacet
  facet normal 0 0 1
    outer loop
      vertex 102.57 102.351 10
      vertex 101.349 103.508 10
      vertex 102.52 102.249 10
    endloop
  endfacet
  facet normal 0 0 1
    outer loop
      vertex 99.6229 104.81 10
      vertex 99.4058 104.756 10
      vertex 100.678 104.494 10
    endloop
  endfacet
  facet normal 0 0 1
    outer loop
      vertex 102.921 102.668 10
      vertex 101.349 103.508 10
      vertex 102.57 102.351 10
    endloop
  endfacet
  facet normal 0 0 1
    outer loop
      vertex 101.274 103.676 10
      vertex 100.751 104.47 10
      vertex 100.678 104.494 10
    endloop
  endfacet
  facet normal 0 0 1
    outer loop
      vertex 90.2935 107.522 10
      vertex 90.7933 106.374 10
      vertex 90.8466 106.345 10
    endloop
  endfacet
  facet normal 0 0 1
    outer loop
      vertex 101.452 104.394 10
      vertex 101.403 104.433 10
      vertex 101.274 103.676 10
    endloop
  endfacet
  facet normal 0 0 1
    outer loop
      vertex 101.403 104.433 10
      vertex 100.751 104.47 10
      vertex 101.274 103.676 10
    endloop
  endfacet
  facet normal -0 0 1
    outer loop
      vertex 99.6229 104.81 10
      vertex 100.678 104.494 10
      vertex 99.7665 105.085 10
    endloop
  endfacet
  facet normal 0 0 1
    outer loop
      vertex 99.4058 104.756 10
      vertex 101.274 103.676 10
      vertex 100.678 104.494 10
    endloop
  endfacet
  facet normal 0 0 1
    outer loop
      vertex 97.4405 104.599 10
      vertex 96.1043 100.77 10
      vertex 96.5608 100.524 10
    endloop
  endfacet
  facet normal 0 0 1
    outer loop
      vertex 97.301 104.619 10
      vertex 97.111 104.759 10
      vertex 95.1219 101.87 10
    endloop
  endfacet
  facet normal 0 0 1
    outer loop
      vertex 99.4058 104.756 10
      vertex 98.8788 105.113 10
      vertex 97.4405 104.599 10
    endloop
  endfacet
  facet normal -0 0 1
    outer loop
      vertex 90.8466 106.345 10
      vertex 92.2966 105.125 10
      vertex 92.3369 106.574 10
    endloop
  endfacet
  facet normal 0 0 1
    outer loop
      vertex 94.5603 101.86 10
      vertex 93.1898 101.669 10
      vertex 94.3031 101.52 10
    endloop
  endfacet
  facet normal 0 -0 1
    outer loop
      vertex 94.68 101.92 10
      vertex 95.01 101.92 10
      vertex 92.9539 102.982 10
    endloop
  endfacet
  facet normal -0 0 1
    outer loop
      vertex 89.0359 107.358 10
      vertex 89.99 106.616 10
      vertex 89.1635 107.576 10
    endloop
  endfacet
  facet normal 0 0 1
    outer loop
      vertex 97.1187 105.195 10
      vertex 94.9764 106.412 10
      vertex 97.0538 104.914 10
    endloop
  endfacet
  facet normal 0 -0 1
    outer loop
      vertex 92.3439 105.052 10
      vertex 92.3914 106.56 10
      vertex 92.2966 105.125 10
    endloop
  endfacet
  facet normal 0 0 1
    outer loop
      vertex 90.2935 107.522 10
      vertex 90.8466 106.345 10
      vertex 92.3369 106.574 10
    endloop
  endfacet
  facet normal 0 -0 1
    outer loop
      vertex 89.99 106.616 10
      vertex 90.2935 107.522 10
      vertex 89.1635 107.576 10
    endloop
  endfacet
  facet normal 0 0 1
    outer loop
      vertex 90.7933 106.374 10
      vertex 90.2935 107.522 10
      vertex 89.99 106.616 10
    endloop
  endfacet
  facet normal 0 0 1
    outer loop
      vertex 92.3914 106.56 10
      vertex 92.3439 105.052 10
      vertex 94.9764 106.412 10
    endloop
  endfacet
  facet normal 0 0 1
    outer loop
      vertex 92.3369 106.574 10
      vertex 92.2966 105.125 10
      vertex 92.3914 106.56 10
    endloop
  endfacet
  facet normal -0 0 1
    outer loop
      vertex 92.3439 105.052 10
      vertex 92.9539 102.982 10
      vertex 94.9764 106.412 10
    endloop
  endfacet
  facet normal 0 0 1
    outer loop
      vertex 92.9539 102.982 10
      vertex 92.9577 102.914 10
      vertex 94.68 101.92 10
    endloop
  endfacet
  facet normal 0 0 1
    outer loop
      vertex 92.9577 102.914 10
      vertex 93.1898 101.669 10
      vertex 94.5603 101.86 10
    endloop
  endfacet
  facet normal 0 0 1
    outer loop
      vertex 93.1898 101.669 10
      vertex 92.789 102.059 10
      vertex 93.0776 101.638 10
    endloop
  endfacet
  facet normal 0 0 1
    outer loop
      vertex 92.789 102.059 10
      vertex 92.9126 101.509 10
      vertex 93.0776 101.638 10
    endloop
  endfacet
  facet normal 0 -0 1
    outer loop
      vertex 94.5603 101.86 10
      vertex 94.68 101.92 10
      vertex 92.9577 102.914 10
    endloop
  endfacet
  facet normal 0 -0 1
    outer loop
      vertex 95.01 101.92 10
      vertex 97.0538 104.914 10
      vertex 94.9764 106.412 10
    endloop
  endfacet
  facet normal 0 0 1
    outer loop
      vertex 92.789 102.059 10
      vertex 92.4844 101.662 10
      vertex 92.9126 101.509 10
    endloop
  endfacet
  facet normal 0 -0 1
    outer loop
      vertex 99.4644 100.812 10
      vertex 99.5079 100.952 10
      vertex 96.5608 100.524 10
    endloop
  endfacet
  facet normal 0 0 1
    outer loop
      vertex 92.9577 102.914 10
      vertex 92.8177 102.124 10
      vertex 93.1898 101.669 10
    endloop
  endfacet
  facet normal 0 0 1
    outer loop
      vertex 93.1898 101.669 10
      vertex 92.8177 102.124 10
      vertex 92.789 102.059 10
    endloop
  endfacet
  facet normal 0 0 1
    outer loop
      vertex 97.111 104.759 10
      vertex 97.0538 104.914 10
      vertex 95.01 101.92 10
    endloop
  endfacet
  facet normal 0 0 1
    outer loop
      vertex 99.5079 100.952 10
      vertex 97.4405 104.599 10
      vertex 96.5608 100.524 10
    endloop
  endfacet
  facet normal -0 0 1
    outer loop
      vertex 92.9539 102.982 10
      vertex 95.01 101.92 10
      vertex 94.9764 106.412 10
    endloop
  endfacet
  facet normal 0 -0 1
    outer loop
      vertex 95.1219 101.87 10
      vertex 97.111 104.759 10
      vertex 95.01 101.92 10
    endloop
  endfacet
  facet normal 0 0 1
    outer loop
      vertex 97.301 104.619 10
      vertex 96.1043 100.77 10
      vertex 97.4405 104.599 10
    endloop
  endfacet
  facet normal 0 0 1
    outer loop
      vertex 99.5079 100.952 10
      vertex 99.4058 104.756 10
      vertex 97.4405 104.599 10
    endloop
  endfacet
  facet normal 0 0 1
    outer loop
      vertex 101.349 103.508 10
      vertex 100.668 101.532 10
      vertex 102.52 102.249 10
    endloop
  endfacet
  facet normal -0 0 1
    outer loop
      vertex 100.668 101.532 10
      vertex 101.638 101.202 10
      vertex 102.52 102.249 10
    endloop
  endfacet
  facet normal 0 -0 1
    outer loop
      vertex 100.548 101.522 10
      vertex 101.274 103.676 10
      vertex 99.4058 104.756 10
    endloop
  endfacet
  facet normal 0 0 1
    outer loop
      vertex 101.274 103.676 10
      vertex 100.548 101.522 10
      vertex 101.349 103.508 10
    endloop
  endfacet
  facet normal 0 0 1
    outer loop
      vertex 101.638 101.202 10
      vertex 102.5 101.919 10
      vertex 102.52 102.249 10
    endloop
  endfacet
  facet normal 0 0 1
    outer loop
      vertex 102.548 101.8 10
      vertex 101.638 101.202 10
      vertex 101.724 101.127 10
    endloop
  endfacet
  facet normal 0 0 1
    outer loop
      vertex 102.548 101.8 10
      vertex 102.5 101.919 10
      vertex 101.638 101.202 10
    endloop
  endfacet
  facet normal -0 -0 1
    outer loop
      vertex 101.857 100.861 10
      vertex 102.614 100.789 10
      vertex 101.724 101.127 10
    endloop
  endfacet
  facet normal 0 0 1
    outer loop
      vertex 102.614 100.789 10
      vertex 102.548 101.8 10
      vertex 101.724 101.127 10
    endloop
  endfacet
  facet normal 0 -0 1
    outer loop
      vertex 102.675 100.77 10
      vertex 103.519 100.892 10
      vertex 102.548 101.8 10
    endloop
  endfacet
  facet normal 0 -0 1
    outer loop
      vertex 103.2 100.466 10
      vertex 103.519 100.892 10
      vertex 102.675 100.77 10
    endloop
  endfacet
  facet normal 0.683015 0.730405 0
    outer loop
      vertex 102.548 101.8 0
      vertex 103.519 100.892 10
      vertex 103.519 100.892 0
    endloop
  endfacet
  facet normal 0.683015 0.730405 -0
    outer loop
      vertex 102.548 101.8 0
      vertex 102.548 101.8 10
      vertex 103.519 100.892 10
    endloop
  endfacet
  facet normal 0.927398 0.374076 0
    outer loop
      vertex 102.5 101.919 0
      vertex 102.548 101.8 10
      vertex 102.548 101.8 0
    endloop
  endfacet
  facet normal 0.927398 0.374076 -0
    outer loop
      vertex 102.5 101.919 0
      vertex 102.5 101.919 10
      vertex 102.548 101.8 10
    endloop
  endfacet
  facet normal 0.998168 -0.0604951 0
    outer loop
      vertex 102.52 102.249 0
      vertex 102.5 101.919 10
      vertex 102.5 101.919 0
    endloop
  endfacet
  facet normal 0.998168 -0.0604951 0
    outer loop
      vertex 102.52 102.249 0
      vertex 102.52 102.249 10
      vertex 102.5 101.919 10
    endloop
  endfacet
  facet normal 0.897921 -0.440157 0
    outer loop
      vertex 102.57 102.351 0
      vertex 102.52 102.249 10
      vertex 102.52 102.249 0
    endloop
  endfacet
  facet normal 0.897921 -0.440157 0
    outer loop
      vertex 102.57 102.351 0
      vertex 102.57 102.351 10
      vertex 102.52 102.249 10
    endloop
  endfacet
  facet normal 0.670249 -0.742137 0
    outer loop
      vertex 102.921 102.668 0
      vertex 102.57 102.351 10
      vertex 102.57 102.351 0
    endloop
  endfacet
  facet normal 0.670249 -0.742137 0
    outer loop
      vertex 102.921 102.668 0
      vertex 102.921 102.668 10
      vertex 102.57 102.351 10
    endloop
  endfacet
  facet normal 0.471287 0.88198 0
    outer loop
      vertex 101.349 103.508 0
      vertex 102.921 102.668 10
      vertex 102.921 102.668 0
    endloop
  endfacet
  facet normal 0.471287 0.88198 -0
    outer loop
      vertex 101.349 103.508 0
      vertex 101.349 103.508 10
      vertex 102.921 102.668 10
    endloop
  endfacet
  facet normal 0.913138 0.407651 0
    outer loop
      vertex 101.274 103.676 0
      vertex 101.349 103.508 10
      vertex 101.349 103.508 0
    endloop
  endfacet
  facet normal 0.913138 0.407651 -0
    outer loop
      vertex 101.274 103.676 0
      vertex 101.274 103.676 10
      vertex 101.349 103.508 10
    endloop
  endfacet
  facet normal 0.970618 -0.240627 0
    outer loop
      vertex 101.452 104.394 0
      vertex 101.274 103.676 10
      vertex 101.274 103.676 0
    endloop
  endfacet
  facet normal 0.970618 -0.240627 0
    outer loop
      vertex 101.452 104.394 0
      vertex 101.452 104.394 10
      vertex 101.274 103.676 10
    endloop
  endfacet
  facet normal 0.622746 0.782424 0
    outer loop
      vertex 101.403 104.433 0
      vertex 101.452 104.394 10
      vertex 101.452 104.394 0
    endloop
  endfacet
  facet normal 0.622746 0.782424 -0
    outer loop
      vertex 101.403 104.433 0
      vertex 101.403 104.433 10
      vertex 101.452 104.394 10
    endloop
  endfacet
  facet normal 0.0566573 0.998394 0
    outer loop
      vertex 100.751 104.47 0
      vertex 101.403 104.433 10
      vertex 101.403 104.433 0
    endloop
  endfacet
  facet normal 0.0566573 0.998394 -0
    outer loop
      vertex 100.751 104.47 0
      vertex 100.751 104.47 10
      vertex 101.403 104.433 10
    endloop
  endfacet
  facet normal 0.312321 0.949977 0
    outer loop
      vertex 100.678 104.494 0
      vertex 100.751 104.47 10
      vertex 100.751 104.47 0
    endloop
  endfacet
  facet normal 0.312321 0.949977 -0
    outer loop
      vertex 100.678 104.494 0
      vertex 100.678 104.494 10
      vertex 100.751 104.47 10
    endloop
  endfacet
  facet normal 0.544033 0.839064 0
    outer loop
      vertex 99.7665 105.085 0
      vertex 100.678 104.494 10
      vertex 100.678 104.494 0
    endloop
  endfacet
  facet normal 0.544033 0.839064 -0
    outer loop
      vertex 99.7665 105.085 0
      vertex 99.7665 105.085 10
      vertex 100.678 104.494 10
    endloop
  endfacet
  facet normal -0.886424 0.462874 0
    outer loop
      vertex 99.6229 104.81 0
      vertex 99.7665 105.085 10
      vertex 99.7665 105.085 0
    endloop
  endfacet
  facet normal -0.886424 0.462874 0
    outer loop
      vertex 99.6229 104.81 0
      vertex 99.6229 104.81 10
      vertex 99.7665 105.085 10
    endloop
  endfacet
  facet normal -0.241379 0.970431 0
    outer loop
      vertex 99.4058 104.756 0
      vertex 99.6229 104.81 10
      vertex 99.6229 104.81 0
    endloop
  endfacet
  facet normal -0.241379 0.970431 0
    outer loop
      vertex 99.4058 104.756 0
      vertex 99.4058 104.756 10
      vertex 99.6229 104.81 10
    endloop
  endfacet
  facet normal 0.560848 0.827919 0
    outer loop
      vertex 98.8788 105.113 0
      vertex 99.4058 104.756 10
      vertex 99.4058 104.756 0
    endloop
  endfacet
  facet normal 0.560848 0.827919 -0
    outer loop
      vertex 98.8788 105.113 0
      vertex 98.8788 105.113 10
      vertex 99.4058 104.756 10
    endloop
  endfacet
  facet normal -0.336523 0.941675 0
    outer loop
      vertex 97.4405 104.599 0
      vertex 98.8788 105.113 10
      vertex 98.8788 105.113 0
    endloop
  endfacet
  facet normal -0.336523 0.941675 0
    outer loop
      vertex 97.4405 104.599 0
      vertex 97.4405 104.599 10
      vertex 98.8788 105.113 10
    endloop
  endfacet
  facet normal 0.141918 0.989878 0
    outer loop
      vertex 97.301 104.619 0
      vertex 97.4405 104.599 10
      vertex 97.4405 104.599 0
    endloop
  endfacet
  facet normal 0.141918 0.989878 -0
    outer loop
      vertex 97.301 104.619 0
      vertex 97.301 104.619 10
      vertex 97.4405 104.599 10
    endloop
  endfacet
  facet normal 0.593199 0.805056 0
    outer loop
      vertex 97.111 104.759 0
      vertex 97.301 104.619 10
      vertex 97.301 104.619 0
    endloop
  endfacet
  facet normal 0.593199 0.805056 -0
    outer loop
      vertex 97.111 104.759 0
      vertex 97.111 104.759 10
      vertex 97.301 104.619 10
    endloop
  endfacet
  facet normal 0.938157 0.34621 0
    outer loop
      vertex 97.0538 104.914 0
      vertex 97.111 104.759 10
      vertex 97.111 104.759 0
    endloop
  endfacet
  facet normal 0.938157 0.34621 -0
    outer loop
      vertex 97.0538 104.914 0
      vertex 97.0538 104.914 10
      vertex 97.111 104.759 10
    endloop
  endfacet
  facet normal 0.97435 -0.225037 0
    outer loop
      vertex 97.1187 105.195 0
      vertex 97.0538 104.914 10
      vertex 97.0538 104.914 0
    endloop
  endfacet
  facet normal 0.97435 -0.225037 0
    outer loop
      vertex 97.1187 105.195 0
      vertex 97.1187 105.195 10
      vertex 97.0538 104.914 10
    endloop
  endfacet
  facet normal 0.493943 0.869494 0
    outer loop
      vertex 94.9764 106.412 0
      vertex 97.1187 105.195 10
      vertex 97.1187 105.195 0
    endloop
  endfacet
  facet normal 0.493943 0.869494 -0
    outer loop
      vertex 94.9764 106.412 0
      vertex 94.9764 106.412 10
      vertex 97.1187 105.195 10
    endloop
  endfacet
  facet normal 0.0571598 0.998365 0
    outer loop
      vertex 92.3914 106.56 0
      vertex 94.9764 106.412 10
      vertex 94.9764 106.412 0
    endloop
  endfacet
  facet normal 0.0571598 0.998365 -0
    outer loop
      vertex 92.3914 106.56 0
      vertex 92.3914 106.56 10
      vertex 94.9764 106.412 10
    endloop
  endfacet
  facet normal 0.248803 0.968554 0
    outer loop
      vertex 92.3369 106.574 0
      vertex 92.3914 106.56 10
      vertex 92.3914 106.56 0
    endloop
  endfacet
  facet normal 0.248803 0.968554 -0
    outer loop
      vertex 92.3369 106.574 0
      vertex 92.3369 106.574 10
      vertex 92.3914 106.56 10
    endloop
  endfacet
  facet normal 0.420848 0.907131 0
    outer loop
      vertex 90.2935 107.522 0
      vertex 92.3369 106.574 10
      vertex 92.3369 106.574 0
    endloop
  endfacet
  facet normal 0.420848 0.907131 -0
    outer loop
      vertex 90.2935 107.522 0
      vertex 90.2935 107.522 10
      vertex 92.3369 106.574 10
    endloop
  endfacet
  facet normal 0.0477331 0.99886 0
    outer loop
      vertex 89.1635 107.576 0
      vertex 90.2935 107.522 10
      vertex 90.2935 107.522 0
    endloop
  endfacet
  facet normal 0.0477331 0.99886 -0
    outer loop
      vertex 89.1635 107.576 0
      vertex 89.1635 107.576 10
      vertex 90.2935 107.522 10
    endloop
  endfacet
  facet normal -0.863031 0.50515 0
    outer loop
      vertex 89.0359 107.358 0
      vertex 89.1635 107.576 10
      vertex 89.1635 107.576 0
    endloop
  endfacet
  facet normal -0.863031 0.50515 0
    outer loop
      vertex 89.0359 107.358 0
      vertex 89.0359 107.358 10
      vertex 89.1635 107.576 10
    endloop
  endfacet
  facet normal -0.613901 -0.789383 0
    outer loop
      vertex 89.99 106.616 0
      vertex 89.0359 107.358 10
      vertex 89.0359 107.358 0
    endloop
  endfacet
  facet normal -0.613901 -0.789383 0
    outer loop
      vertex 89.99 106.616 0
      vertex 89.99 106.616 10
      vertex 89.0359 107.358 10
    endloop
  endfacet
  facet normal -0.288452 -0.957494 0
    outer loop
      vertex 90.7933 106.374 0
      vertex 89.99 106.616 10
      vertex 89.99 106.616 0
    endloop
  endfacet
  facet normal -0.288452 -0.957494 0
    outer loop
      vertex 90.7933 106.374 0
      vertex 90.7933 106.374 10
      vertex 89.99 106.616 10
    endloop
  endfacet
  facet normal -0.477928 -0.878399 0
    outer loop
      vertex 90.8466 106.345 0
      vertex 90.7933 106.374 10
      vertex 90.7933 106.374 0
    endloop
  endfacet
  facet normal -0.477928 -0.878399 0
    outer loop
      vertex 90.8466 106.345 0
      vertex 90.8466 106.345 10
      vertex 90.7933 106.374 10
    endloop
  endfacet
  facet normal -0.643811 -0.765185 0
    outer loop
      vertex 92.2966 105.125 0
      vertex 90.8466 106.345 10
      vertex 90.8466 106.345 0
    endloop
  endfacet
  facet normal -0.643811 -0.765185 0
    outer loop
      vertex 92.2966 105.125 0
      vertex 92.2966 105.125 10
      vertex 90.8466 106.345 10
    endloop
  endfacet
  facet normal -0.839231 -0.543776 0
    outer loop
      vertex 92.3439 105.052 0
      vertex 92.2966 105.125 10
      vertex 92.2966 105.125 0
    endloop
  endfacet
  facet normal -0.839231 -0.543776 0
    outer loop
      vertex 92.3439 105.052 0
      vertex 92.3439 105.052 10
      vertex 92.2966 105.125 10
    endloop
  endfacet
  facet normal -0.959218 -0.282668 0
    outer loop
      vertex 92.9539 102.982 0
      vertex 92.3439 105.052 10
      vertex 92.3439 105.052 0
    endloop
  endfacet
  facet normal -0.959218 -0.282668 0
    outer loop
      vertex 92.9539 102.982 0
      vertex 92.9539 102.982 10
      vertex 92.3439 105.052 10
    endloop
  endfacet
  facet normal -0.998442 -0.0557953 0
    outer loop
      vertex 92.9577 102.914 0
      vertex 92.9539 102.982 10
      vertex 92.9539 102.982 0
    endloop
  endfacet
  facet normal -0.998442 -0.0557953 0
    outer loop
      vertex 92.9577 102.914 0
      vertex 92.9577 102.914 10
      vertex 92.9539 102.982 10
    endloop
  endfacet
  facet normal -0.984658 0.174496 0
    outer loop
      vertex 92.8177 102.124 0
      vertex 92.9577 102.914 10
      vertex 92.9577 102.914 0
    endloop
  endfacet
  facet normal -0.984658 0.174496 0
    outer loop
      vertex 92.8177 102.124 0
      vertex 92.8177 102.124 10
      vertex 92.9577 102.914 10
    endloop
  endfacet
  facet normal -0.914795 0.403917 0
    outer loop
      vertex 92.789 102.059 0
      vertex 92.8177 102.124 10
      vertex 92.8177 102.124 0
    endloop
  endfacet
  facet normal -0.914795 0.403917 0
    outer loop
      vertex 92.789 102.059 0
      vertex 92.789 102.059 10
      vertex 92.8177 102.124 10
    endloop
  endfacet
  facet normal -0.793381 0.608725 0
    outer loop
      vertex 92.4844 101.662 0
      vertex 92.789 102.059 10
      vertex 92.789 102.059 0
    endloop
  endfacet
  facet normal -0.793381 0.608725 0
    outer loop
      vertex 92.4844 101.662 0
      vertex 92.4844 101.662 10
      vertex 92.789 102.059 10
    endloop
  endfacet
  facet normal -0.336476 -0.941692 0
    outer loop
      vertex 92.9126 101.509 0
      vertex 92.4844 101.662 10
      vertex 92.4844 101.662 0
    endloop
  endfacet
  facet normal -0.336476 -0.941692 0
    outer loop
      vertex 92.9126 101.509 0
      vertex 92.9126 101.509 10
      vertex 92.4844 101.662 10
    endloop
  endfacet
  facet normal 0.615922 -0.787807 0
    outer loop
      vertex 93.0776 101.638 0
      vertex 92.9126 101.509 10
      vertex 92.9126 101.509 0
    endloop
  endfacet
  facet normal 0.615922 -0.787807 0
    outer loop
      vertex 93.0776 101.638 0
      vertex 93.0776 101.638 10
      vertex 92.9126 101.509 10
    endloop
  endfacet
  facet normal 0.266314 -0.963886 0
    outer loop
      vertex 93.1898 101.669 0
      vertex 93.0776 101.638 10
      vertex 93.0776 101.638 0
    endloop
  endfacet
  facet normal 0.266314 -0.963886 0
    outer loop
      vertex 93.1898 101.669 0
      vertex 93.1898 101.669 10
      vertex 93.0776 101.638 10
    endloop
  endfacet
  facet normal -0.132654 -0.991162 0
    outer loop
      vertex 94.3031 101.52 0
      vertex 93.1898 101.669 10
      vertex 93.1898 101.669 0
    endloop
  endfacet
  facet normal -0.132654 -0.991162 0
    outer loop
      vertex 94.3031 101.52 0
      vertex 94.3031 101.52 10
      vertex 93.1898 101.669 10
    endloop
  endfacet
  facet normal 0.797516 -0.603298 0
    outer loop
      vertex 94.5603 101.86 0
      vertex 94.3031 101.52 10
      vertex 94.3031 101.52 0
    endloop
  endfacet
  facet normal 0.797516 -0.603298 0
    outer loop
      vertex 94.5603 101.86 0
      vertex 94.5603 101.86 10
      vertex 94.3031 101.52 10
    endloop
  endfacet
  facet normal 0.44811 -0.893979 0
    outer loop
      vertex 94.68 101.92 0
      vertex 94.5603 101.86 10
      vertex 94.5603 101.86 0
    endloop
  endfacet
  facet normal 0.44811 -0.893979 0
    outer loop
      vertex 94.68 101.92 0
      vertex 94.68 101.92 10
      vertex 94.5603 101.86 10
    endloop
  endfacet
  facet normal 0 -1 0
    outer loop
      vertex 95.01 101.92 0
      vertex 94.68 101.92 10
      vertex 94.68 101.92 0
    endloop
  endfacet
  facet normal 0 -1 0
    outer loop
      vertex 95.01 101.92 0
      vertex 95.01 101.92 10
      vertex 94.68 101.92 10
    endloop
  endfacet
  facet normal -0.407955 -0.913002 0
    outer loop
      vertex 95.1219 101.87 0
      vertex 95.01 101.92 10
      vertex 95.01 101.92 0
    endloop
  endfacet
  facet normal -0.407955 -0.913002 0
    outer loop
      vertex 95.1219 101.87 0
      vertex 95.1219 101.87 10
      vertex 95.01 101.92 10
    endloop
  endfacet
  facet normal -0.745851 -0.666113 0
    outer loop
      vertex 96.1043 100.77 0
      vertex 95.1219 101.87 10
      vertex 95.1219 101.87 0
    endloop
  endfacet
  facet normal -0.745851 -0.666113 0
    outer loop
      vertex 96.1043 100.77 0
      vertex 96.1043 100.77 10
      vertex 95.1219 101.87 10
    endloop
  endfacet
  facet normal -0.474387 -0.880316 0
    outer loop
      vertex 96.5608 100.524 0
      vertex 96.1043 100.77 10
      vertex 96.1043 100.77 0
    endloop
  endfacet
  facet normal -0.474387 -0.880316 0
    outer loop
      vertex 96.5608 100.524 0
      vertex 96.5608 100.524 10
      vertex 96.1043 100.77 10
    endloop
  endfacet
  facet normal 0.0987029 -0.995117 0
    outer loop
      vertex 99.4644 100.812 0
      vertex 96.5608 100.524 10
      vertex 96.5608 100.524 0
    endloop
  endfacet
  facet normal 0.0987029 -0.995117 0
    outer loop
      vertex 99.4644 100.812 0
      vertex 99.4644 100.812 10
      vertex 96.5608 100.524 10
    endloop
  endfacet
  facet normal 0.954964 -0.296721 0
    outer loop
      vertex 99.5079 100.952 0
      vertex 99.4644 100.812 10
      vertex 99.4644 100.812 0
    endloop
  endfacet
  facet normal 0.954964 -0.296721 0
    outer loop
      vertex 99.5079 100.952 0
      vertex 99.5079 100.952 10
      vertex 99.4644 100.812 10
    endloop
  endfacet
  facet normal 0.480588 -0.876947 0
    outer loop
      vertex 100.548 101.522 0
      vertex 99.5079 100.952 10
      vertex 99.5079 100.952 0
    endloop
  endfacet
  facet normal 0.480588 -0.876947 0
    outer loop
      vertex 100.548 101.522 0
      vertex 100.548 101.522 10
      vertex 99.5079 100.952 10
    endloop
  endfacet
  facet normal 0.0830455 -0.996546 0
    outer loop
      vertex 100.668 101.532 0
      vertex 100.548 101.522 10
      vertex 100.548 101.522 0
    endloop
  endfacet
  facet normal 0.0830455 -0.996546 0
    outer loop
      vertex 100.668 101.532 0
      vertex 100.668 101.532 10
      vertex 100.548 101.522 10
    endloop
  endfacet
  facet normal -0.322078 -0.946713 0
    outer loop
      vertex 101.638 101.202 0
      vertex 100.668 101.532 10
      vertex 100.668 101.532 0
    endloop
  endfacet
  facet normal -0.322078 -0.946713 0
    outer loop
      vertex 101.638 101.202 0
      vertex 101.638 101.202 10
      vertex 100.668 101.532 10
    endloop
  endfacet
  facet normal -0.657263 -0.753661 0
    outer loop
      vertex 101.724 101.127 0
      vertex 101.638 101.202 10
      vertex 101.638 101.202 0
    endloop
  endfacet
  facet normal -0.657263 -0.753661 0
    outer loop
      vertex 101.724 101.127 0
      vertex 101.724 101.127 10
      vertex 101.638 101.202 10
    endloop
  endfacet
  facet normal -0.894427 -0.447214 0
    outer loop
      vertex 101.857 100.861 0
      vertex 101.724 101.127 10
      vertex 101.724 101.127 0
    endloop
  endfacet
  facet normal -0.894427 -0.447214 0
    outer loop
      vertex 101.857 100.861 0
      vertex 101.857 100.861 10
      vertex 101.724 101.127 10
    endloop
  endfacet
  facet normal -0.094685 -0.995507 0
    outer loop
      vertex 102.614 100.789 0
      vertex 101.857 100.861 10
      vertex 101.857 100.861 0
    endloop
  endfacet
  facet normal -0.094685 -0.995507 0
    outer loop
      vertex 102.614 100.789 0
      vertex 102.614 100.789 10
      vertex 101.857 100.861 10
    endloop
  endfacet
  facet normal -0.297384 -0.954758 0
    outer loop
      vertex 102.675 100.77 0
      vertex 102.614 100.789 10
      vertex 102.614 100.789 0
    endloop
  endfacet
  facet normal -0.297384 -0.954758 0
    outer loop
      vertex 102.675 100.77 0
      vertex 102.675 100.77 10
      vertex 102.614 100.789 10
    endloop
  endfacet
  facet normal -0.501101 -0.865389 0
    outer loop
      vertex 103.2 100.466 0
      vertex 102.675 100.77 10
      vertex 102.675 100.77 0
    endloop
  endfacet
  facet normal -0.501101 -0.865389 0
    outer loop
      vertex 103.2 100.466 0
      vertex 103.2 100.466 10
      vertex 102.675 100.77 10
    endloop
  endfacet
  facet normal 0.800451 -0.599399 0
    outer loop
      vertex 103.519 100.892 0
      vertex 103.2 100.466 10
      vertex 103.2 100.466 0
    endloop
  endfacet
  facet normal 0.800451 -0.599399 0
    outer loop
      vertex 103.519 100.892 0
      vertex 103.519 100.892 10
      vertex 103.2 100.466 10
    endloop
  endfacet
endsolid OpenSCAD_Model
