solid OpenSCAD_Model
  facet normal 0 0 -1
    outer loop
      vertex 48.3253 89.6628 0
      vertex 48.2972 89.7936 0
      vertex 50.3571 90.0844 0
    endloop
  endfacet
  facet normal 0 0 -1
    outer loop
      vertex 50.4553 88.188 0
      vertex 50.3571 90.0844 0
      vertex 50.5838 88.1482 0
    endloop
  endfacet
  facet normal 0 0 -1
    outer loop
      vertex 50.2153 88.148 0
      vertex 50.3571 90.0844 0
      vertex 50.4553 88.188 0
    endloop
  endfacet
  facet normal 0 0 -1
    outer loop
      vertex 45.3182 97.0035 0
      vertex 45.9791 97.3469 0
      vertex 45.4341 96.6016 0
    endloop
  endfacet
  facet normal -0 -0 -1
    outer loop
      vertex 46.8708 93.8152 0
      vertex 47.2524 92.8268 0
      vertex 46.3524 93.8561 0
    endloop
  endfacet
  facet normal 0 0 -1
    outer loop
      vertex 50.5838 88.1482 0
      vertex 50.3571 90.0844 0
      vertex 51.1475 87.6074 0
    endloop
  endfacet
  facet normal 0 0 -1
    outer loop
      vertex 47.0798 94.3321 0
      vertex 50.6118 94.9416 0
      vertex 50.0894 94.0172 0
    endloop
  endfacet
  facet normal 0 -0 -1
    outer loop
      vertex 50.8484 91.2021 0
      vertex 51.0558 91.0029 0
      vertex 50.709 91.1929 0
    endloop
  endfacet
  facet normal 0 0 -1
    outer loop
      vertex 51.5175 89.7303 0
      vertex 51.2569 90.054 0
      vertex 51.5136 90.2045 0
    endloop
  endfacet
  facet normal -0 0 -1
    outer loop
      vertex 51.8884 90.1108 0
      vertex 51.5175 89.7303 0
      vertex 51.5136 90.2045 0
    endloop
  endfacet
  facet normal 0 0 -1
    outer loop
      vertex 50.0957 93.7402 0
      vertex 49.8986 92.7934 0
      vertex 49.7239 92.7661 0
    endloop
  endfacet
  facet normal 0 -0 -1
    outer loop
      vertex 51.8884 90.1108 0
      vertex 51.9897 89.9178 0
      vertex 51.5175 89.7303 0
    endloop
  endfacet
  facet normal -0 0 -1
    outer loop
      vertex 51.5136 90.2045 0
      vertex 51.2569 90.054 0
      vertex 51.4158 90.2829 0
    endloop
  endfacet
  facet normal 0 -0 -1
    outer loop
      vertex 52.5805 92.2684 0
      vertex 53.1228 92.079 0
      vertex 52.3345 91.6276 0
    endloop
  endfacet
  facet normal 0 0 -1
    outer loop
      vertex 51.4158 90.2829 0
      vertex 51.2569 90.054 0
      vertex 51.1785 90.105 0
    endloop
  endfacet
  facet normal -0 0 -1
    outer loop
      vertex 52.5805 92.2684 0
      vertex 52.3345 91.6276 0
      vertex 52.5286 92.2994 0
    endloop
  endfacet
  facet normal 0 0 -1
    outer loop
      vertex 51.0558 91.0029 0
      vertex 51.4158 90.2829 0
      vertex 51.1785 90.105 0
    endloop
  endfacet
  facet normal 0 0 -1
    outer loop
      vertex 50.5385 90.275 0
      vertex 51.0558 91.0029 0
      vertex 51.1785 90.105 0
    endloop
  endfacet
  facet normal 0 0 -1
    outer loop
      vertex 50.709 91.1929 0
      vertex 50.5385 90.275 0
      vertex 50.4125 90.2518 0
    endloop
  endfacet
  facet normal 0 0 -1
    outer loop
      vertex 50.1403 98.59 0
      vertex 48.047 99.5556 0
      vertex 48.9227 100.298 0
    endloop
  endfacet
  facet normal 0 0 -1
    outer loop
      vertex 52.3345 91.6276 0
      vertex 53.1228 92.079 0
      vertex 53.2971 90.6927 0
    endloop
  endfacet
  facet normal 0 -0 -1
    outer loop
      vertex 52.6027 98.1793 0
      vertex 52.6152 98.0034 0
      vertex 52.0905 98.0469 0
    endloop
  endfacet
  facet normal 0 0 -1
    outer loop
      vertex 52.5286 92.2994 0
      vertex 52.3345 91.6276 0
      vertex 52.1704 91.6577 0
    endloop
  endfacet
  facet normal 0 0 -1
    outer loop
      vertex 46.918 94.4895 0
      vertex 45.4055 96.4643 0
      vertex 45.9791 97.3469 0
    endloop
  endfacet
  facet normal 0 -0 -1
    outer loop
      vertex 51.5894 93.1604 0
      vertex 52.5286 92.2994 0
      vertex 51.5886 91.9234 0
    endloop
  endfacet
  facet normal 0 0 -1
    outer loop
      vertex 49.8986 92.7934 0
      vertex 51.5894 93.1604 0
      vertex 51.5886 91.9234 0
    endloop
  endfacet
  facet normal -0 0 -1
    outer loop
      vertex 50.0002 93.8884 0
      vertex 48.7765 92.7262 0
      vertex 47.0798 94.3321 0
    endloop
  endfacet
  facet normal 0 0 -1
    outer loop
      vertex 47.0798 94.3321 0
      vertex 46.918 94.4895 0
      vertex 50.0749 97.1573 0
    endloop
  endfacet
  facet normal 0 -0 -1
    outer loop
      vertex 46.3709 98.3497 0
      vertex 46.8481 98.846 0
      vertex 46.0517 97.4308 0
    endloop
  endfacet
  facet normal 0 0 -1
    outer loop
      vertex 50.0894 94.0172 0
      vertex 50.6118 94.9416 0
      vertex 50.7218 94.6815 0
    endloop
  endfacet
  facet normal 0 0 -1
    outer loop
      vertex 50.0894 94.0172 0
      vertex 50.7218 94.6815 0
      vertex 50.8626 94.3586 0
    endloop
  endfacet
  facet normal 0 0 -1
    outer loop
      vertex 50.6653 95.1238 0
      vertex 50.0749 97.1573 0
      vertex 50.8553 95.2538 0
    endloop
  endfacet
  facet normal -0 0 -1
    outer loop
      vertex 50.6653 95.1238 0
      vertex 47.0798 94.3321 0
      vertex 50.0749 97.1573 0
    endloop
  endfacet
  facet normal 0 0 -1
    outer loop
      vertex 50.8553 95.2538 0
      vertex 50.0749 97.1573 0
      vertex 50.9757 95.2757 0
    endloop
  endfacet
  facet normal -0 0 -1
    outer loop
      vertex 50.2307 98.7177 0
      vertex 50.1403 98.59 0
      vertex 48.9227 100.298 0
    endloop
  endfacet
  facet normal 0 0 -1
    outer loop
      vertex 51.0527 98.959 0
      vertex 50.8806 98.9977 0
      vertex 50.5499 100.449 0
    endloop
  endfacet
  facet normal 0 0 -1
    outer loop
      vertex 50.9757 95.2757 0
      vertex 50.0749 97.1573 0
      vertex 51.3856 95.1751 0
    endloop
  endfacet
  facet normal -0 -0 -1
    outer loop
      vertex 49.9846 100.26 0
      vertex 50.2307 98.7177 0
      vertex 48.9227 100.298 0
    endloop
  endfacet
  facet normal 0 -0 -1
    outer loop
      vertex 48.047 99.5556 0
      vertex 50.0503 97.25 0
      vertex 47.9555 99.5201 0
    endloop
  endfacet
  facet normal 0 0 -1
    outer loop
      vertex 52.5812 101.063 0
      vertex 54.2993 100.029 0
      vertex 53.4762 99.405 0
    endloop
  endfacet
  facet normal 0 0 -1
    outer loop
      vertex 52.732 99.4481 0
      vertex 52.664 99.2854 0
      vertex 51.0527 98.959 0
    endloop
  endfacet
  facet normal 0 0 -1
    outer loop
      vertex 51.91 97.8965 0
      vertex 51.8749 97.9 0
      vertex 52.0905 98.0469 0
    endloop
  endfacet
  facet normal -0 -0 -1
    outer loop
      vertex 51.91 97.8965 0
      vertex 51.911 97.8538 0
      vertex 51.8749 97.9 0
    endloop
  endfacet
  facet normal -0 0 -1
    outer loop
      vertex 52.0905 98.0469 0
      vertex 51.8749 97.9 0
      vertex 51.0395 98.3812 0
    endloop
  endfacet
  facet normal 0 0 -1
    outer loop
      vertex 52.6152 98.0034 0
      vertex 52.7048 97.8865 0
      vertex 52.6205 97.9369 0
    endloop
  endfacet
  facet normal 0 0 -1
    outer loop
      vertex 52.0905 98.0469 0
      vertex 51.0395 98.3812 0
      vertex 51.0891 98.844 0
    endloop
  endfacet
  facet normal 0 0 -1
    outer loop
      vertex 52.6027 98.1793 0
      vertex 52.664 99.2854 0
      vertex 52.7013 98.2472 0
    endloop
  endfacet
  facet normal -0 -0 -1
    outer loop
      vertex 52.6152 98.0034 0
      vertex 52.6205 97.9369 0
      vertex 52.0905 98.0469 0
    endloop
  endfacet
  facet normal 0 0 -1
    outer loop
      vertex 54.2993 100.029 0
      vertex 54.9421 101.006 0
      vertex 54.4433 100.05 0
    endloop
  endfacet
  facet normal 0 -0 -1
    outer loop
      vertex 58.4547 102.027 0
      vertex 58.9338 101.746 0
      vertex 58.229 101.217 0
    endloop
  endfacet
  facet normal 0 0 -1
    outer loop
      vertex 52.7048 97.8865 0
      vertex 53.1048 97.4214 0
      vertex 53.1039 97.4114 0
    endloop
  endfacet
  facet normal 0 0 -1
    outer loop
      vertex 52.7048 97.8865 0
      vertex 52.6152 98.0034 0
      vertex 53.1048 97.4214 0
    endloop
  endfacet
  facet normal 0 0 -1
    outer loop
      vertex 54.4433 100.05 0
      vertex 54.9421 101.006 0
      vertex 55.0592 100.96 0
    endloop
  endfacet
  facet normal -0 0 -1
    outer loop
      vertex 52.6027 98.1793 0
      vertex 52.0905 98.0469 0
      vertex 52.664 99.2854 0
    endloop
  endfacet
  facet normal 0 0 -1
    outer loop
      vertex 52.664 99.2854 0
      vertex 52.0905 98.0469 0
      vertex 51.0891 98.844 0
    endloop
  endfacet
  facet normal 0 -0 -1
    outer loop
      vertex 52.894 98.3154 0
      vertex 52.9177 98.2894 0
      vertex 52.7013 98.2472 0
    endloop
  endfacet
  facet normal 0 0 -1
    outer loop
      vertex 52.664 99.2854 0
      vertex 52.894 98.3154 0
      vertex 52.7013 98.2472 0
    endloop
  endfacet
  facet normal 0 0 -1
    outer loop
      vertex 51.0527 98.959 0
      vertex 52.664 99.2854 0
      vertex 51.0891 98.844 0
    endloop
  endfacet
  facet normal -0 0 -1
    outer loop
      vertex 52.8247 99.4693 0
      vertex 52.732 99.4481 0
      vertex 52.5326 101.051 0
    endloop
  endfacet
  facet normal 0 0 -1
    outer loop
      vertex 55.7148 100.17 0
      vertex 56.0299 100.653 0
      vertex 55.8361 100.183 0
    endloop
  endfacet
  facet normal 0 -0 -1
    outer loop
      vertex 53.4968 101.472 0
      vertex 54.2993 100.029 0
      vertex 52.5812 101.063 0
    endloop
  endfacet
  facet normal 0 0 -1
    outer loop
      vertex 58.1371 102.002 0
      vertex 58.4547 102.027 0
      vertex 58.229 101.217 0
    endloop
  endfacet
  facet normal 0 0 -1
    outer loop
      vertex 58.229 101.217 0
      vertex 58.9338 101.746 0
      vertex 59.0067 101.316 0
    endloop
  endfacet
  facet normal 0 -0 -1
    outer loop
      vertex 55.5009 100.987 0
      vertex 55.7148 100.17 0
      vertex 55.0592 100.96 0
    endloop
  endfacet
  facet normal 0 0 -1
    outer loop
      vertex 58.3604 100.749 0
      vertex 57.6736 100.844 0
      vertex 58.1436 101.064 0
    endloop
  endfacet
  facet normal -0 -0 -1
    outer loop
      vertex 58.3604 100.749 0
      vertex 58.4065 100.095 0
      vertex 57.6736 100.844 0
    endloop
  endfacet
  facet normal 0 0 -1
    outer loop
      vertex 59.0067 101.316 0
      vertex 58.4206 100.88 0
      vertex 58.229 101.217 0
    endloop
  endfacet
  facet normal 0 0 -1
    outer loop
      vertex 55.8361 100.183 0
      vertex 56.1298 100.631 0
      vertex 57.9635 99.4958 0
    endloop
  endfacet
  facet normal 0 0 -1
    outer loop
      vertex 55.7148 100.17 0
      vertex 55.5009 100.987 0
      vertex 56.0299 100.653 0
    endloop
  endfacet
  facet normal 0 0 -1
    outer loop
      vertex 55.0865 99.8056 0
      vertex 54.4433 100.05 0
      vertex 55.0592 100.96 0
    endloop
  endfacet
  facet normal 0 -0 -1
    outer loop
      vertex 58.229 101.217 0
      vertex 58.4206 100.88 0
      vertex 58.1436 101.064 0
    endloop
  endfacet
  facet normal 0 0 -1
    outer loop
      vertex 58.1436 101.064 0
      vertex 58.4206 100.88 0
      vertex 58.3604 100.749 0
    endloop
  endfacet
  facet normal 0 0 -1
    outer loop
      vertex 57.6298 100.831 0
      vertex 58.4065 100.095 0
      vertex 57.9635 99.4958 0
    endloop
  endfacet
  facet normal 0 -0 -1
    outer loop
      vertex 57.6736 100.844 0
      vertex 58.4065 100.095 0
      vertex 57.6298 100.831 0
    endloop
  endfacet
  facet normal 0 0 -1
    outer loop
      vertex 56.1298 100.631 0
      vertex 57.6298 100.831 0
      vertex 57.9635 99.4958 0
    endloop
  endfacet
  facet normal 0 -0 -1
    outer loop
      vertex 56.0299 100.653 0
      vertex 56.1298 100.631 0
      vertex 55.8361 100.183 0
    endloop
  endfacet
  facet normal 0 0 -1
    outer loop
      vertex 55.0592 100.96 0
      vertex 55.7148 100.17 0
      vertex 55.0865 99.8056 0
    endloop
  endfacet
  facet normal 0 0 -1
    outer loop
      vertex 54.2993 100.029 0
      vertex 54.4305 101.536 0
      vertex 54.9421 101.006 0
    endloop
  endfacet
  facet normal 0 0 -1
    outer loop
      vertex 54.2993 100.029 0
      vertex 53.4968 101.472 0
      vertex 54.4305 101.536 0
    endloop
  endfacet
  facet normal 0 0 -1
    outer loop
      vertex 52.8247 99.4693 0
      vertex 52.5812 101.063 0
      vertex 53.4762 99.405 0
    endloop
  endfacet
  facet normal 0 0 -1
    outer loop
      vertex 52.8247 99.4693 0
      vertex 52.5326 101.051 0
      vertex 52.5812 101.063 0
    endloop
  endfacet
  facet normal 0 0 -1
    outer loop
      vertex 50.6441 100.548 0
      vertex 50.7455 100.899 0
      vertex 52.5326 101.051 0
    endloop
  endfacet
  facet normal 0 0 -1
    outer loop
      vertex 52.732 99.4481 0
      vertex 50.6441 100.548 0
      vertex 52.5326 101.051 0
    endloop
  endfacet
  facet normal -0 0 -1
    outer loop
      vertex 52.732 99.4481 0
      vertex 51.0527 98.959 0
      vertex 50.6441 100.548 0
    endloop
  endfacet
  facet normal 0 -0 -1
    outer loop
      vertex 50.6441 100.548 0
      vertex 51.0527 98.959 0
      vertex 50.5499 100.449 0
    endloop
  endfacet
  facet normal 0 -0 -1
    outer loop
      vertex 50.5499 100.449 0
      vertex 50.8806 98.9977 0
      vertex 50.0399 100.269 0
    endloop
  endfacet
  facet normal 0 0 -1
    outer loop
      vertex 50.0399 100.269 0
      vertex 50.8806 98.9977 0
      vertex 50.2307 98.7177 0
    endloop
  endfacet
  facet normal 0 0 -1
    outer loop
      vertex 49.9846 100.26 0
      vertex 50.0399 100.269 0
      vertex 50.2307 98.7177 0
    endloop
  endfacet
  facet normal -0 0 -1
    outer loop
      vertex 50.1403 98.59 0
      vertex 50.0503 97.25 0
      vertex 48.047 99.5556 0
    endloop
  endfacet
  facet normal 0 0 -1
    outer loop
      vertex 46.8864 98.9828 0
      vertex 46.7758 99.4767 0
      vertex 47.9555 99.5201 0
    endloop
  endfacet
  facet normal 0 0 -1
    outer loop
      vertex 46.8481 98.846 0
      vertex 46.8864 98.9828 0
      vertex 47.9555 99.5201 0
    endloop
  endfacet
  facet normal 0 0 -1
    outer loop
      vertex 50.0503 97.25 0
      vertex 46.8481 98.846 0
      vertex 47.9555 99.5201 0
    endloop
  endfacet
  facet normal 0 0 -1
    outer loop
      vertex 46.0517 97.4308 0
      vertex 46.8481 98.846 0
      vertex 50.0503 97.25 0
    endloop
  endfacet
  facet normal 0 0 -1
    outer loop
      vertex 50.0749 97.1573 0
      vertex 46.0517 97.4308 0
      vertex 50.0503 97.25 0
    endloop
  endfacet
  facet normal 0 0 -1
    outer loop
      vertex 45.9791 97.3469 0
      vertex 46.0517 97.4308 0
      vertex 46.918 94.4895 0
    endloop
  endfacet
  facet normal 0 0 -1
    outer loop
      vertex 46.2299 94.4345 0
      vertex 45.4055 96.4643 0
      vertex 46.918 94.4895 0
    endloop
  endfacet
  facet normal 0 0 -1
    outer loop
      vertex 45.4055 96.4643 0
      vertex 45.4341 96.6016 0
      vertex 45.9791 97.3469 0
    endloop
  endfacet
  facet normal 0 0 -1
    outer loop
      vertex 45.2262 95.2881 0
      vertex 45.4055 96.4643 0
      vertex 46.2299 94.4345 0
    endloop
  endfacet
  facet normal 0 0 -1
    outer loop
      vertex 45.2262 95.2881 0
      vertex 45.1155 96.1143 0
      vertex 45.4055 96.4643 0
    endloop
  endfacet
  facet normal 0 0 -1
    outer loop
      vertex 45.2262 95.2881 0
      vertex 44.9758 96.062 0
      vertex 45.1155 96.1143 0
    endloop
  endfacet
  facet normal 0 0 -1
    outer loop
      vertex 46.0517 97.4308 0
      vertex 50.0749 97.1573 0
      vertex 46.918 94.4895 0
    endloop
  endfacet
  facet normal 0 0 -1
    outer loop
      vertex 47.2524 92.8268 0
      vertex 47.2089 92.5876 0
      vertex 47.138 92.5666 0
    endloop
  endfacet
  facet normal 0 0 -1
    outer loop
      vertex 44.7434 96.1 0
      vertex 44.9758 96.062 0
      vertex 45.2262 95.2881 0
    endloop
  endfacet
  facet normal -0 0 -1
    outer loop
      vertex 47.2524 92.8268 0
      vertex 47.138 92.5666 0
      vertex 46.3524 93.8561 0
    endloop
  endfacet
  facet normal 0 0 -1
    outer loop
      vertex 47.0798 94.3321 0
      vertex 50.0894 94.0172 0
      vertex 50.0002 93.8884 0
    endloop
  endfacet
  facet normal -0 0 -1
    outer loop
      vertex 50.709 91.1929 0
      vertex 50.4125 90.2518 0
      vertex 48.2437 91.8121 0
    endloop
  endfacet
  facet normal 0 0 -1
    outer loop
      vertex 50.6653 95.1238 0
      vertex 50.6118 94.9416 0
      vertex 47.0798 94.3321 0
    endloop
  endfacet
  facet normal 0 0 -1
    outer loop
      vertex 47.0598 93.9521 0
      vertex 47.0798 94.3321 0
      vertex 48.7765 92.7262 0
    endloop
  endfacet
  facet normal 0 0 -1
    outer loop
      vertex 46.8708 93.8152 0
      vertex 47.3799 92.9486 0
      vertex 47.2524 92.8268 0
    endloop
  endfacet
  facet normal 0 0 -1
    outer loop
      vertex 46.8708 93.8152 0
      vertex 46.3524 93.8561 0
      vertex 46.4572 93.9272 0
    endloop
  endfacet
  facet normal 0 0 -1
    outer loop
      vertex 47.1787 91.194 0
      vertex 48.1143 91.7608 0
      vertex 48.2972 89.7936 0
    endloop
  endfacet
  facet normal 0 0 -1
    outer loop
      vertex 48.2437 91.8121 0
      vertex 50.4125 90.2518 0
      vertex 48.2972 89.7936 0
    endloop
  endfacet
  facet normal 0 0 -1
    outer loop
      vertex 47.0598 93.9521 0
      vertex 48.7765 92.7262 0
      vertex 47.524 92.8844 0
    endloop
  endfacet
  facet normal 0 0 -1
    outer loop
      vertex 46.8708 93.8152 0
      vertex 47.0598 93.9521 0
      vertex 47.3799 92.9486 0
    endloop
  endfacet
  facet normal 0 0 -1
    outer loop
      vertex 47.3799 92.9486 0
      vertex 47.0598 93.9521 0
      vertex 47.524 92.8844 0
    endloop
  endfacet
  facet normal 0 0 -1
    outer loop
      vertex 50.0002 93.8884 0
      vertex 48.838 92.7274 0
      vertex 48.7765 92.7262 0
    endloop
  endfacet
  facet normal 0 0 -1
    outer loop
      vertex 47.524 92.8844 0
      vertex 48.7765 92.7262 0
      vertex 47.7863 92.4991 0
    endloop
  endfacet
  facet normal 0 0 -1
    outer loop
      vertex 51.1304 91.2077 0
      vertex 51.0558 91.0029 0
      vertex 50.8484 91.2021 0
    endloop
  endfacet
  facet normal 0 0 -1
    outer loop
      vertex 49.7239 92.7661 0
      vertex 49.55 92.5922 0
      vertex 48.838 92.7274 0
    endloop
  endfacet
  facet normal 0 0 -1
    outer loop
      vertex 50.0002 93.8884 0
      vertex 49.7239 92.7661 0
      vertex 48.838 92.7274 0
    endloop
  endfacet
  facet normal 0 -0 -1
    outer loop
      vertex 50.0957 93.7402 0
      vertex 51.5894 93.1604 0
      vertex 49.8986 92.7934 0
    endloop
  endfacet
  facet normal -0 0 -1
    outer loop
      vertex 50.0957 93.7402 0
      vertex 49.7239 92.7661 0
      vertex 50.0002 93.8884 0
    endloop
  endfacet
  facet normal 0 0 -1
    outer loop
      vertex 51.5886 91.9234 0
      vertex 52.5286 92.2994 0
      vertex 52.1704 91.6577 0
    endloop
  endfacet
  facet normal 0 0 -1
    outer loop
      vertex 51.668 91.7659 0
      vertex 51.5886 91.9234 0
      vertex 52.1704 91.6577 0
    endloop
  endfacet
  facet normal 0 0 -1
    outer loop
      vertex 51.1304 91.2077 0
      vertex 51.5984 91.6621 0
      vertex 52.1704 91.6577 0
    endloop
  endfacet
  facet normal 0 0 -1
    outer loop
      vertex 51.5984 91.6621 0
      vertex 51.668 91.7659 0
      vertex 52.1704 91.6577 0
    endloop
  endfacet
  facet normal -0 0 -1
    outer loop
      vertex 51.0558 91.0029 0
      vertex 50.5385 90.275 0
      vertex 50.709 91.1929 0
    endloop
  endfacet
  facet normal -0 0 -1
    outer loop
      vertex 51.1304 91.2077 0
      vertex 50.8484 91.2021 0
      vertex 51.5984 91.6621 0
    endloop
  endfacet
  facet normal 0 -0 -1
    outer loop
      vertex 48.541 92.1576 0
      vertex 50.709 91.1929 0
      vertex 48.2437 91.8121 0
    endloop
  endfacet
  facet normal 0 0 -1
    outer loop
      vertex 48.1143 91.7608 0
      vertex 48.2437 91.8121 0
      vertex 48.2972 89.7936 0
    endloop
  endfacet
  facet normal 0 -0 -1
    outer loop
      vertex 47.6302 91.8118 0
      vertex 48.1143 91.7608 0
      vertex 47.1787 91.194 0
    endloop
  endfacet
  facet normal 0 0 -1
    outer loop
      vertex 50.4125 90.2518 0
      vertex 50.3571 90.0844 0
      vertex 48.2972 89.7936 0
    endloop
  endfacet
  facet normal 0 0 -1
    outer loop
      vertex 50.3571 90.0844 0
      vertex 50.2153 88.148 0
      vertex 49.192 88.7872 0
    endloop
  endfacet
  facet normal 0 0 -1
    outer loop
      vertex 48.1228 88.8711 0
      vertex 48.6429 88.6194 0
      vertex 48.5701 88.2553 0
    endloop
  endfacet
  facet normal 0 0 -1
    outer loop
      vertex 49.192 88.7872 0
      vertex 50.2153 88.148 0
      vertex 50.0956 88.0408 0
    endloop
  endfacet
  facet normal -0 0 -1
    outer loop
      vertex 48.7351 88.7296 0
      vertex 48.6429 88.6194 0
      vertex 48.1228 88.8711 0
    endloop
  endfacet
  facet normal -0 0 -1
    outer loop
      vertex 49.0151 88.8396 0
      vertex 48.7351 88.7296 0
      vertex 48.3253 89.6628 0
    endloop
  endfacet
  facet normal 0 0 -1
    outer loop
      vertex 48.7351 88.7296 0
      vertex 48.1228 88.8711 0
      vertex 48.3253 89.6628 0
    endloop
  endfacet
  facet normal 0 0 -1
    outer loop
      vertex 50.3571 90.0844 0
      vertex 49.0151 88.8396 0
      vertex 48.3253 89.6628 0
    endloop
  endfacet
  facet normal 0 0 -1
    outer loop
      vertex 50.3571 90.0844 0
      vertex 49.192 88.7872 0
      vertex 49.0151 88.8396 0
    endloop
  endfacet
  facet normal 0 0 -1
    outer loop
      vertex 49.842 87.8772 0
      vertex 49.192 88.7872 0
      vertex 50.0956 88.0408 0
    endloop
  endfacet
  facet normal 0 0 -1
    outer loop
      vertex 49.9339 87.4685 0
      vertex 49.8673 87.8181 0
      vertex 50.0956 88.0408 0
    endloop
  endfacet
  facet normal 0 0 -1
    outer loop
      vertex 49.8673 87.8181 0
      vertex 49.842 87.8772 0
      vertex 50.0956 88.0408 0
    endloop
  endfacet
  facet normal 0 0 -1
    outer loop
      vertex 51.6116 94.8074 0
      vertex 51.6127 94.8318 0
      vertex 51.6243 94.8142 0
    endloop
  endfacet
  facet normal 0 0 1
    outer loop
      vertex 50.3571 90.0844 10
      vertex 48.2972 89.7936 10
      vertex 48.3253 89.6628 10
    endloop
  endfacet
  facet normal 0 0 1
    outer loop
      vertex 50.5838 88.1482 10
      vertex 50.3571 90.0844 10
      vertex 50.4553 88.188 10
    endloop
  endfacet
  facet normal 0 0 1
    outer loop
      vertex 50.4553 88.188 10
      vertex 50.3571 90.0844 10
      vertex 50.2153 88.148 10
    endloop
  endfacet
  facet normal 0 -0 1
    outer loop
      vertex 45.4341 96.6016 10
      vertex 45.9791 97.3469 10
      vertex 45.3182 97.0035 10
    endloop
  endfacet
  facet normal 0 0 1
    outer loop
      vertex 46.3524 93.8561 10
      vertex 47.2524 92.8268 10
      vertex 46.8708 93.8152 10
    endloop
  endfacet
  facet normal 0 0 1
    outer loop
      vertex 51.1475 87.6074 10
      vertex 50.3571 90.0844 10
      vertex 50.5838 88.1482 10
    endloop
  endfacet
  facet normal 0 -0 1
    outer loop
      vertex 50.0894 94.0172 10
      vertex 50.6118 94.9416 10
      vertex 47.0798 94.3321 10
    endloop
  endfacet
  facet normal -0 0 1
    outer loop
      vertex 50.709 91.1929 10
      vertex 51.0558 91.0029 10
      vertex 50.8484 91.2021 10
    endloop
  endfacet
  facet normal 0 0 1
    outer loop
      vertex 51.5136 90.2045 10
      vertex 51.2569 90.054 10
      vertex 51.5175 89.7303 10
    endloop
  endfacet
  facet normal 0 0 1
    outer loop
      vertex 51.5136 90.2045 10
      vertex 51.5175 89.7303 10
      vertex 51.8884 90.1108 10
    endloop
  endfacet
  facet normal 0 0 1
    outer loop
      vertex 49.7239 92.7661 10
      vertex 49.8986 92.7934 10
      vertex 50.0957 93.7402 10
    endloop
  endfacet
  facet normal 0 0 1
    outer loop
      vertex 51.5175 89.7303 10
      vertex 51.9897 89.9178 10
      vertex 51.8884 90.1108 10
    endloop
  endfacet
  facet normal 0 0 1
    outer loop
      vertex 51.4158 90.2829 10
      vertex 51.2569 90.054 10
      vertex 51.5136 90.2045 10
    endloop
  endfacet
  facet normal 0 0 1
    outer loop
      vertex 52.3345 91.6276 10
      vertex 53.1228 92.079 10
      vertex 52.5805 92.2684 10
    endloop
  endfacet
  facet normal -0 0 1
    outer loop
      vertex 51.1785 90.105 10
      vertex 51.2569 90.054 10
      vertex 51.4158 90.2829 10
    endloop
  endfacet
  facet normal 0 0 1
    outer loop
      vertex 52.5286 92.2994 10
      vertex 52.3345 91.6276 10
      vertex 52.5805 92.2684 10
    endloop
  endfacet
  facet normal 0 -0 1
    outer loop
      vertex 51.1785 90.105 10
      vertex 51.4158 90.2829 10
      vertex 51.0558 91.0029 10
    endloop
  endfacet
  facet normal 0 0 1
    outer loop
      vertex 51.1785 90.105 10
      vertex 51.0558 91.0029 10
      vertex 50.5385 90.275 10
    endloop
  endfacet
  facet normal 0 0 1
    outer loop
      vertex 50.4125 90.2518 10
      vertex 50.5385 90.275 10
      vertex 50.709 91.1929 10
    endloop
  endfacet
  facet normal 0 0 1
    outer loop
      vertex 48.9227 100.298 10
      vertex 48.047 99.5556 10
      vertex 50.1403 98.59 10
    endloop
  endfacet
  facet normal 0 0 1
    outer loop
      vertex 53.2971 90.6927 10
      vertex 53.1228 92.079 10
      vertex 52.3345 91.6276 10
    endloop
  endfacet
  facet normal -0 0 1
    outer loop
      vertex 52.0905 98.0469 10
      vertex 52.6152 98.0034 10
      vertex 52.6027 98.1793 10
    endloop
  endfacet
  facet normal -0 0 1
    outer loop
      vertex 52.1704 91.6577 10
      vertex 52.3345 91.6276 10
      vertex 52.5286 92.2994 10
    endloop
  endfacet
  facet normal 0 0 1
    outer loop
      vertex 45.9791 97.3469 10
      vertex 45.4055 96.4643 10
      vertex 46.918 94.4895 10
    endloop
  endfacet
  facet normal 0 0 1
    outer loop
      vertex 51.5886 91.9234 10
      vertex 52.5286 92.2994 10
      vertex 51.5894 93.1604 10
    endloop
  endfacet
  facet normal 0 -0 1
    outer loop
      vertex 51.5886 91.9234 10
      vertex 51.5894 93.1604 10
      vertex 49.8986 92.7934 10
    endloop
  endfacet
  facet normal 0 0 1
    outer loop
      vertex 47.0798 94.3321 10
      vertex 48.7765 92.7262 10
      vertex 50.0002 93.8884 10
    endloop
  endfacet
  facet normal 0 0 1
    outer loop
      vertex 50.0749 97.1573 10
      vertex 46.918 94.4895 10
      vertex 47.0798 94.3321 10
    endloop
  endfacet
  facet normal 0 0 1
    outer loop
      vertex 46.0517 97.4308 10
      vertex 46.8481 98.846 10
      vertex 46.3709 98.3497 10
    endloop
  endfacet
  facet normal 0 0 1
    outer loop
      vertex 50.7218 94.6815 10
      vertex 50.6118 94.9416 10
      vertex 50.0894 94.0172 10
    endloop
  endfacet
  facet normal 0 0 1
    outer loop
      vertex 50.8626 94.3586 10
      vertex 50.7218 94.6815 10
      vertex 50.0894 94.0172 10
    endloop
  endfacet
  facet normal 0 0 1
    outer loop
      vertex 50.8553 95.2538 10
      vertex 50.0749 97.1573 10
      vertex 50.6653 95.1238 10
    endloop
  endfacet
  facet normal 0 0 1
    outer loop
      vertex 50.0749 97.1573 10
      vertex 47.0798 94.3321 10
      vertex 50.6653 95.1238 10
    endloop
  endfacet
  facet normal 0 0 1
    outer loop
      vertex 50.9757 95.2757 10
      vertex 50.0749 97.1573 10
      vertex 50.8553 95.2538 10
    endloop
  endfacet
  facet normal 0 0 1
    outer loop
      vertex 48.9227 100.298 10
      vertex 50.1403 98.59 10
      vertex 50.2307 98.7177 10
    endloop
  endfacet
  facet normal 0 0 1
    outer loop
      vertex 50.5499 100.449 10
      vertex 50.8806 98.9977 10
      vertex 51.0527 98.959 10
    endloop
  endfacet
  facet normal 0 0 1
    outer loop
      vertex 51.3856 95.1751 10
      vertex 50.0749 97.1573 10
      vertex 50.9757 95.2757 10
    endloop
  endfacet
  facet normal 0 0 1
    outer loop
      vertex 48.9227 100.298 10
      vertex 50.2307 98.7177 10
      vertex 49.9846 100.26 10
    endloop
  endfacet
  facet normal -0 0 1
    outer loop
      vertex 47.9555 99.5201 10
      vertex 50.0503 97.25 10
      vertex 48.047 99.5556 10
    endloop
  endfacet
  facet normal 0 -0 1
    outer loop
      vertex 53.4762 99.405 10
      vertex 54.2993 100.029 10
      vertex 52.5812 101.063 10
    endloop
  endfacet
  facet normal 0 0 1
    outer loop
      vertex 51.0527 98.959 10
      vertex 52.664 99.2854 10
      vertex 52.732 99.4481 10
    endloop
  endfacet
  facet normal 0 0 1
    outer loop
      vertex 52.0905 98.0469 10
      vertex 51.8749 97.9 10
      vertex 51.91 97.8965 10
    endloop
  endfacet
  facet normal 0 0 1
    outer loop
      vertex 51.8749 97.9 10
      vertex 51.911 97.8538 10
      vertex 51.91 97.8965 10
    endloop
  endfacet
  facet normal 0 0 1
    outer loop
      vertex 51.0395 98.3812 10
      vertex 51.8749 97.9 10
      vertex 52.0905 98.0469 10
    endloop
  endfacet
  facet normal -0 -0 1
    outer loop
      vertex 52.6205 97.9369 10
      vertex 52.7048 97.8865 10
      vertex 52.6152 98.0034 10
    endloop
  endfacet
  facet normal 0 0 1
    outer loop
      vertex 51.0891 98.844 10
      vertex 51.0395 98.3812 10
      vertex 52.0905 98.0469 10
    endloop
  endfacet
  facet normal 0 0 1
    outer loop
      vertex 52.7013 98.2472 10
      vertex 52.664 99.2854 10
      vertex 52.6027 98.1793 10
    endloop
  endfacet
  facet normal 0 0 1
    outer loop
      vertex 52.0905 98.0469 10
      vertex 52.6205 97.9369 10
      vertex 52.6152 98.0034 10
    endloop
  endfacet
  facet normal 0 -0 1
    outer loop
      vertex 54.4433 100.05 10
      vertex 54.9421 101.006 10
      vertex 54.2993 100.029 10
    endloop
  endfacet
  facet normal 0 0 1
    outer loop
      vertex 58.229 101.217 10
      vertex 58.9338 101.746 10
      vertex 58.4547 102.027 10
    endloop
  endfacet
  facet normal 0 -0 1
    outer loop
      vertex 53.1039 97.4114 10
      vertex 53.1048 97.4214 10
      vertex 52.7048 97.8865 10
    endloop
  endfacet
  facet normal 0 0 1
    outer loop
      vertex 53.1048 97.4214 10
      vertex 52.6152 98.0034 10
      vertex 52.7048 97.8865 10
    endloop
  endfacet
  facet normal 0 0 1
    outer loop
      vertex 55.0592 100.96 10
      vertex 54.9421 101.006 10
      vertex 54.4433 100.05 10
    endloop
  endfacet
  facet normal 0 0 1
    outer loop
      vertex 52.664 99.2854 10
      vertex 52.0905 98.0469 10
      vertex 52.6027 98.1793 10
    endloop
  endfacet
  facet normal -0 0 1
    outer loop
      vertex 51.0891 98.844 10
      vertex 52.0905 98.0469 10
      vertex 52.664 99.2854 10
    endloop
  endfacet
  facet normal 0 0 1
    outer loop
      vertex 52.7013 98.2472 10
      vertex 52.9177 98.2894 10
      vertex 52.894 98.3154 10
    endloop
  endfacet
  facet normal 0 -0 1
    outer loop
      vertex 52.7013 98.2472 10
      vertex 52.894 98.3154 10
      vertex 52.664 99.2854 10
    endloop
  endfacet
  facet normal 0 -0 1
    outer loop
      vertex 51.0891 98.844 10
      vertex 52.664 99.2854 10
      vertex 51.0527 98.959 10
    endloop
  endfacet
  facet normal 0 0 1
    outer loop
      vertex 52.5326 101.051 10
      vertex 52.732 99.4481 10
      vertex 52.8247 99.4693 10
    endloop
  endfacet
  facet normal 0 -0 1
    outer loop
      vertex 55.8361 100.183 10
      vertex 56.0299 100.653 10
      vertex 55.7148 100.17 10
    endloop
  endfacet
  facet normal -0 0 1
    outer loop
      vertex 52.5812 101.063 10
      vertex 54.2993 100.029 10
      vertex 53.4968 101.472 10
    endloop
  endfacet
  facet normal 0 -0 1
    outer loop
      vertex 58.229 101.217 10
      vertex 58.4547 102.027 10
      vertex 58.1371 102.002 10
    endloop
  endfacet
  facet normal 0 0 1
    outer loop
      vertex 59.0067 101.316 10
      vertex 58.9338 101.746 10
      vertex 58.229 101.217 10
    endloop
  endfacet
  facet normal -0 0 1
    outer loop
      vertex 55.0592 100.96 10
      vertex 55.7148 100.17 10
      vertex 55.5009 100.987 10
    endloop
  endfacet
  facet normal 0 0 1
    outer loop
      vertex 58.1436 101.064 10
      vertex 57.6736 100.844 10
      vertex 58.3604 100.749 10
    endloop
  endfacet
  facet normal 0 0 1
    outer loop
      vertex 57.6736 100.844 10
      vertex 58.4065 100.095 10
      vertex 58.3604 100.749 10
    endloop
  endfacet
  facet normal -0 0 1
    outer loop
      vertex 58.229 101.217 10
      vertex 58.4206 100.88 10
      vertex 59.0067 101.316 10
    endloop
  endfacet
  facet normal 0 0 1
    outer loop
      vertex 57.9635 99.4958 10
      vertex 56.1298 100.631 10
      vertex 55.8361 100.183 10
    endloop
  endfacet
  facet normal 0 0 1
    outer loop
      vertex 56.0299 100.653 10
      vertex 55.5009 100.987 10
      vertex 55.7148 100.17 10
    endloop
  endfacet
  facet normal 0 0 1
    outer loop
      vertex 55.0592 100.96 10
      vertex 54.4433 100.05 10
      vertex 55.0865 99.8056 10
    endloop
  endfacet
  facet normal -0 0 1
    outer loop
      vertex 58.1436 101.064 10
      vertex 58.4206 100.88 10
      vertex 58.229 101.217 10
    endloop
  endfacet
  facet normal 0 -0 1
    outer loop
      vertex 58.3604 100.749 10
      vertex 58.4206 100.88 10
      vertex 58.1436 101.064 10
    endloop
  endfacet
  facet normal 0 -0 1
    outer loop
      vertex 57.9635 99.4958 10
      vertex 58.4065 100.095 10
      vertex 57.6298 100.831 10
    endloop
  endfacet
  facet normal -0 0 1
    outer loop
      vertex 57.6298 100.831 10
      vertex 58.4065 100.095 10
      vertex 57.6736 100.844 10
    endloop
  endfacet
  facet normal 0 0 1
    outer loop
      vertex 57.9635 99.4958 10
      vertex 57.6298 100.831 10
      vertex 56.1298 100.631 10
    endloop
  endfacet
  facet normal 0 0 1
    outer loop
      vertex 55.8361 100.183 10
      vertex 56.1298 100.631 10
      vertex 56.0299 100.653 10
    endloop
  endfacet
  facet normal 0 -0 1
    outer loop
      vertex 55.0865 99.8056 10
      vertex 55.7148 100.17 10
      vertex 55.0592 100.96 10
    endloop
  endfacet
  facet normal 0 0 1
    outer loop
      vertex 54.9421 101.006 10
      vertex 54.4305 101.536 10
      vertex 54.2993 100.029 10
    endloop
  endfacet
  facet normal 0 0 1
    outer loop
      vertex 54.4305 101.536 10
      vertex 53.4968 101.472 10
      vertex 54.2993 100.029 10
    endloop
  endfacet
  facet normal 0 0 1
    outer loop
      vertex 53.4762 99.405 10
      vertex 52.5812 101.063 10
      vertex 52.8247 99.4693 10
    endloop
  endfacet
  facet normal 0 0 1
    outer loop
      vertex 52.5812 101.063 10
      vertex 52.5326 101.051 10
      vertex 52.8247 99.4693 10
    endloop
  endfacet
  facet normal 0 0 1
    outer loop
      vertex 52.5326 101.051 10
      vertex 50.7455 100.899 10
      vertex 50.6441 100.548 10
    endloop
  endfacet
  facet normal 0 0 1
    outer loop
      vertex 52.5326 101.051 10
      vertex 50.6441 100.548 10
      vertex 52.732 99.4481 10
    endloop
  endfacet
  facet normal 0 0 1
    outer loop
      vertex 50.6441 100.548 10
      vertex 51.0527 98.959 10
      vertex 52.732 99.4481 10
    endloop
  endfacet
  facet normal -0 0 1
    outer loop
      vertex 50.5499 100.449 10
      vertex 51.0527 98.959 10
      vertex 50.6441 100.548 10
    endloop
  endfacet
  facet normal -0 0 1
    outer loop
      vertex 50.0399 100.269 10
      vertex 50.8806 98.9977 10
      vertex 50.5499 100.449 10
    endloop
  endfacet
  facet normal 0 -0 1
    outer loop
      vertex 50.2307 98.7177 10
      vertex 50.8806 98.9977 10
      vertex 50.0399 100.269 10
    endloop
  endfacet
  facet normal 0 0 1
    outer loop
      vertex 50.2307 98.7177 10
      vertex 50.0399 100.269 10
      vertex 49.9846 100.26 10
    endloop
  endfacet
  facet normal 0 0 1
    outer loop
      vertex 48.047 99.5556 10
      vertex 50.0503 97.25 10
      vertex 50.1403 98.59 10
    endloop
  endfacet
  facet normal 0 0 1
    outer loop
      vertex 47.9555 99.5201 10
      vertex 46.7758 99.4767 10
      vertex 46.8864 98.9828 10
    endloop
  endfacet
  facet normal 0 0 1
    outer loop
      vertex 47.9555 99.5201 10
      vertex 46.8864 98.9828 10
      vertex 46.8481 98.846 10
    endloop
  endfacet
  facet normal 0 0 1
    outer loop
      vertex 47.9555 99.5201 10
      vertex 46.8481 98.846 10
      vertex 50.0503 97.25 10
    endloop
  endfacet
  facet normal 0 0 1
    outer loop
      vertex 50.0503 97.25 10
      vertex 46.8481 98.846 10
      vertex 46.0517 97.4308 10
    endloop
  endfacet
  facet normal 0 0 1
    outer loop
      vertex 50.0503 97.25 10
      vertex 46.0517 97.4308 10
      vertex 50.0749 97.1573 10
    endloop
  endfacet
  facet normal 0 0 1
    outer loop
      vertex 46.918 94.4895 10
      vertex 46.0517 97.4308 10
      vertex 45.9791 97.3469 10
    endloop
  endfacet
  facet normal 0 0 1
    outer loop
      vertex 46.918 94.4895 10
      vertex 45.4055 96.4643 10
      vertex 46.2299 94.4345 10
    endloop
  endfacet
  facet normal 0 0 1
    outer loop
      vertex 45.9791 97.3469 10
      vertex 45.4341 96.6016 10
      vertex 45.4055 96.4643 10
    endloop
  endfacet
  facet normal 0 0 1
    outer loop
      vertex 46.2299 94.4345 10
      vertex 45.4055 96.4643 10
      vertex 45.2262 95.2881 10
    endloop
  endfacet
  facet normal 0 0 1
    outer loop
      vertex 45.4055 96.4643 10
      vertex 45.1155 96.1143 10
      vertex 45.2262 95.2881 10
    endloop
  endfacet
  facet normal 0 0 1
    outer loop
      vertex 45.1155 96.1143 10
      vertex 44.9758 96.062 10
      vertex 45.2262 95.2881 10
    endloop
  endfacet
  facet normal 0 -0 1
    outer loop
      vertex 46.918 94.4895 10
      vertex 50.0749 97.1573 10
      vertex 46.0517 97.4308 10
    endloop
  endfacet
  facet normal 0 0 1
    outer loop
      vertex 47.138 92.5666 10
      vertex 47.2089 92.5876 10
      vertex 47.2524 92.8268 10
    endloop
  endfacet
  facet normal 0 0 1
    outer loop
      vertex 45.2262 95.2881 10
      vertex 44.9758 96.062 10
      vertex 44.7434 96.1 10
    endloop
  endfacet
  facet normal 0 0 1
    outer loop
      vertex 46.3524 93.8561 10
      vertex 47.138 92.5666 10
      vertex 47.2524 92.8268 10
    endloop
  endfacet
  facet normal 0 -0 1
    outer loop
      vertex 50.0002 93.8884 10
      vertex 50.0894 94.0172 10
      vertex 47.0798 94.3321 10
    endloop
  endfacet
  facet normal 0 0 1
    outer loop
      vertex 48.2437 91.8121 10
      vertex 50.4125 90.2518 10
      vertex 50.709 91.1929 10
    endloop
  endfacet
  facet normal 0 0 1
    outer loop
      vertex 47.0798 94.3321 10
      vertex 50.6118 94.9416 10
      vertex 50.6653 95.1238 10
    endloop
  endfacet
  facet normal 0 0 1
    outer loop
      vertex 48.7765 92.7262 10
      vertex 47.0798 94.3321 10
      vertex 47.0598 93.9521 10
    endloop
  endfacet
  facet normal 0 -0 1
    outer loop
      vertex 47.2524 92.8268 10
      vertex 47.3799 92.9486 10
      vertex 46.8708 93.8152 10
    endloop
  endfacet
  facet normal 0 0 1
    outer loop
      vertex 46.4572 93.9272 10
      vertex 46.3524 93.8561 10
      vertex 46.8708 93.8152 10
    endloop
  endfacet
  facet normal 0 0 1
    outer loop
      vertex 48.2972 89.7936 10
      vertex 48.1143 91.7608 10
      vertex 47.1787 91.194 10
    endloop
  endfacet
  facet normal 0 -0 1
    outer loop
      vertex 48.2972 89.7936 10
      vertex 50.4125 90.2518 10
      vertex 48.2437 91.8121 10
    endloop
  endfacet
  facet normal -0 -0 1
    outer loop
      vertex 47.524 92.8844 10
      vertex 48.7765 92.7262 10
      vertex 47.0598 93.9521 10
    endloop
  endfacet
  facet normal 0 0 1
    outer loop
      vertex 47.3799 92.9486 10
      vertex 47.0598 93.9521 10
      vertex 46.8708 93.8152 10
    endloop
  endfacet
  facet normal 0 0 1
    outer loop
      vertex 47.524 92.8844 10
      vertex 47.0598 93.9521 10
      vertex 47.3799 92.9486 10
    endloop
  endfacet
  facet normal 0 0 1
    outer loop
      vertex 48.7765 92.7262 10
      vertex 48.838 92.7274 10
      vertex 50.0002 93.8884 10
    endloop
  endfacet
  facet normal 0 -0 1
    outer loop
      vertex 47.7863 92.4991 10
      vertex 48.7765 92.7262 10
      vertex 47.524 92.8844 10
    endloop
  endfacet
  facet normal -0 0 1
    outer loop
      vertex 50.8484 91.2021 10
      vertex 51.0558 91.0029 10
      vertex 51.1304 91.2077 10
    endloop
  endfacet
  facet normal -0 0 1
    outer loop
      vertex 48.838 92.7274 10
      vertex 49.55 92.5922 10
      vertex 49.7239 92.7661 10
    endloop
  endfacet
  facet normal 0 0 1
    outer loop
      vertex 48.838 92.7274 10
      vertex 49.7239 92.7661 10
      vertex 50.0002 93.8884 10
    endloop
  endfacet
  facet normal 0 0 1
    outer loop
      vertex 49.8986 92.7934 10
      vertex 51.5894 93.1604 10
      vertex 50.0957 93.7402 10
    endloop
  endfacet
  facet normal 0 0 1
    outer loop
      vertex 50.0002 93.8884 10
      vertex 49.7239 92.7661 10
      vertex 50.0957 93.7402 10
    endloop
  endfacet
  facet normal 0 -0 1
    outer loop
      vertex 52.1704 91.6577 10
      vertex 52.5286 92.2994 10
      vertex 51.5886 91.9234 10
    endloop
  endfacet
  facet normal 0 0 1
    outer loop
      vertex 52.1704 91.6577 10
      vertex 51.5886 91.9234 10
      vertex 51.668 91.7659 10
    endloop
  endfacet
  facet normal 0 0 1
    outer loop
      vertex 52.1704 91.6577 10
      vertex 51.5984 91.6621 10
      vertex 51.1304 91.2077 10
    endloop
  endfacet
  facet normal 0 0 1
    outer loop
      vertex 52.1704 91.6577 10
      vertex 51.668 91.7659 10
      vertex 51.5984 91.6621 10
    endloop
  endfacet
  facet normal 0 0 1
    outer loop
      vertex 50.709 91.1929 10
      vertex 50.5385 90.275 10
      vertex 51.0558 91.0029 10
    endloop
  endfacet
  facet normal 0 0 1
    outer loop
      vertex 51.5984 91.6621 10
      vertex 50.8484 91.2021 10
      vertex 51.1304 91.2077 10
    endloop
  endfacet
  facet normal -0 0 1
    outer loop
      vertex 48.2437 91.8121 10
      vertex 50.709 91.1929 10
      vertex 48.541 92.1576 10
    endloop
  endfacet
  facet normal 0 0 1
    outer loop
      vertex 48.2972 89.7936 10
      vertex 48.2437 91.8121 10
      vertex 48.1143 91.7608 10
    endloop
  endfacet
  facet normal 0 0 1
    outer loop
      vertex 47.1787 91.194 10
      vertex 48.1143 91.7608 10
      vertex 47.6302 91.8118 10
    endloop
  endfacet
  facet normal 0 0 1
    outer loop
      vertex 48.2972 89.7936 10
      vertex 50.3571 90.0844 10
      vertex 50.4125 90.2518 10
    endloop
  endfacet
  facet normal -0 0 1
    outer loop
      vertex 49.192 88.7872 10
      vertex 50.2153 88.148 10
      vertex 50.3571 90.0844 10
    endloop
  endfacet
  facet normal 0 -0 1
    outer loop
      vertex 48.5701 88.2553 10
      vertex 48.6429 88.6194 10
      vertex 48.1228 88.8711 10
    endloop
  endfacet
  facet normal 0 -0 1
    outer loop
      vertex 50.0956 88.0408 10
      vertex 50.2153 88.148 10
      vertex 49.192 88.7872 10
    endloop
  endfacet
  facet normal 0 0 1
    outer loop
      vertex 48.1228 88.8711 10
      vertex 48.6429 88.6194 10
      vertex 48.7351 88.7296 10
    endloop
  endfacet
  facet normal 0 0 1
    outer loop
      vertex 48.3253 89.6628 10
      vertex 48.7351 88.7296 10
      vertex 49.0151 88.8396 10
    endloop
  endfacet
  facet normal 0 0 1
    outer loop
      vertex 48.3253 89.6628 10
      vertex 48.1228 88.8711 10
      vertex 48.7351 88.7296 10
    endloop
  endfacet
  facet normal -0 0 1
    outer loop
      vertex 48.3253 89.6628 10
      vertex 49.0151 88.8396 10
      vertex 50.3571 90.0844 10
    endloop
  endfacet
  facet normal -0 0 1
    outer loop
      vertex 49.0151 88.8396 10
      vertex 49.192 88.7872 10
      vertex 50.3571 90.0844 10
    endloop
  endfacet
  facet normal 0 0 1
    outer loop
      vertex 50.0956 88.0408 10
      vertex 49.192 88.7872 10
      vertex 49.842 87.8772 10
    endloop
  endfacet
  facet normal 0 0 1
    outer loop
      vertex 50.0956 88.0408 10
      vertex 49.8673 87.8181 10
      vertex 49.9339 87.4685 10
    endloop
  endfacet
  facet normal 0 0 1
    outer loop
      vertex 50.0956 88.0408 10
      vertex 49.842 87.8772 10
      vertex 49.8673 87.8181 10
    endloop
  endfacet
  facet normal 0 0 1
    outer loop
      vertex 51.6243 94.8142 10
      vertex 51.6127 94.8318 10
      vertex 51.6116 94.8074 10
    endloop
  endfacet
  facet normal 0.66714 -0.744932 0
    outer loop
      vertex 50.2153 88.148 0
      vertex 50.0956 88.0408 10
      vertex 50.0956 88.0408 0
    endloop
  endfacet
  facet normal 0.66714 -0.744932 0
    outer loop
      vertex 50.2153 88.148 0
      vertex 50.2153 88.148 10
      vertex 50.0956 88.0408 10
    endloop
  endfacet
  facet normal 0.164399 -0.986394 0
    outer loop
      vertex 50.4553 88.188 0
      vertex 50.2153 88.148 10
      vertex 50.2153 88.148 0
    endloop
  endfacet
  facet normal 0.164399 -0.986394 0
    outer loop
      vertex 50.4553 88.188 0
      vertex 50.4553 88.188 10
      vertex 50.2153 88.148 10
    endloop
  endfacet
  facet normal -0.295861 -0.955231 0
    outer loop
      vertex 50.5838 88.1482 0
      vertex 50.4553 88.188 10
      vertex 50.4553 88.188 0
    endloop
  endfacet
  facet normal -0.295861 -0.955231 0
    outer loop
      vertex 50.5838 88.1482 0
      vertex 50.5838 88.1482 10
      vertex 50.4553 88.188 10
    endloop
  endfacet
  facet normal -0.692297 -0.721612 0
    outer loop
      vertex 51.1475 87.6074 0
      vertex 50.5838 88.1482 10
      vertex 50.5838 88.1482 0
    endloop
  endfacet
  facet normal -0.692297 -0.721612 0
    outer loop
      vertex 51.1475 87.6074 0
      vertex 51.1475 87.6074 10
      vertex 50.5838 88.1482 10
    endloop
  endfacet
  facet normal 0.952674 0.303994 0
    outer loop
      vertex 50.3571 90.0844 0
      vertex 51.1475 87.6074 10
      vertex 51.1475 87.6074 0
    endloop
  endfacet
  facet normal 0.952674 0.303994 -0
    outer loop
      vertex 50.3571 90.0844 0
      vertex 50.3571 90.0844 10
      vertex 51.1475 87.6074 10
    endloop
  endfacet
  facet normal 0.949362 -0.314185 0
    outer loop
      vertex 50.4125 90.2518 0
      vertex 50.3571 90.0844 10
      vertex 50.3571 90.0844 0
    endloop
  endfacet
  facet normal 0.949362 -0.314185 0
    outer loop
      vertex 50.4125 90.2518 0
      vertex 50.4125 90.2518 10
      vertex 50.3571 90.0844 10
    endloop
  endfacet
  facet normal 0.181083 -0.983468 0
    outer loop
      vertex 50.5385 90.275 0
      vertex 50.4125 90.2518 10
      vertex 50.4125 90.2518 0
    endloop
  endfacet
  facet normal 0.181083 -0.983468 0
    outer loop
      vertex 50.5385 90.275 0
      vertex 50.5385 90.275 10
      vertex 50.4125 90.2518 10
    endloop
  endfacet
  facet normal -0.256723 -0.966485 0
    outer loop
      vertex 51.1785 90.105 0
      vertex 50.5385 90.275 10
      vertex 50.5385 90.275 0
    endloop
  endfacet
  facet normal -0.256723 -0.966485 0
    outer loop
      vertex 51.1785 90.105 0
      vertex 51.1785 90.105 10
      vertex 50.5385 90.275 10
    endloop
  endfacet
  facet normal -0.545289 -0.838248 0
    outer loop
      vertex 51.2569 90.054 0
      vertex 51.1785 90.105 10
      vertex 51.1785 90.105 0
    endloop
  endfacet
  facet normal -0.545289 -0.838248 0
    outer loop
      vertex 51.2569 90.054 0
      vertex 51.2569 90.054 10
      vertex 51.1785 90.105 10
    endloop
  endfacet
  facet normal -0.77894 -0.627098 0
    outer loop
      vertex 51.5175 89.7303 0
      vertex 51.2569 90.054 10
      vertex 51.2569 90.054 0
    endloop
  endfacet
  facet normal -0.77894 -0.627098 0
    outer loop
      vertex 51.5175 89.7303 0
      vertex 51.5175 89.7303 10
      vertex 51.2569 90.054 10
    endloop
  endfacet
  facet normal 0.369048 -0.92941 0
    outer loop
      vertex 51.9897 89.9178 0
      vertex 51.5175 89.7303 10
      vertex 51.5175 89.7303 0
    endloop
  endfacet
  facet normal 0.369048 -0.92941 0
    outer loop
      vertex 51.9897 89.9178 0
      vertex 51.9897 89.9178 10
      vertex 51.5175 89.7303 10
    endloop
  endfacet
  facet normal 0.885445 0.464744 0
    outer loop
      vertex 51.8884 90.1108 0
      vertex 51.9897 89.9178 10
      vertex 51.9897 89.9178 0
    endloop
  endfacet
  facet normal 0.885445 0.464744 -0
    outer loop
      vertex 51.8884 90.1108 0
      vertex 51.8884 90.1108 10
      vertex 51.9897 89.9178 10
    endloop
  endfacet
  facet normal 0.242536 0.970143 0
    outer loop
      vertex 51.5136 90.2045 0
      vertex 51.8884 90.1108 10
      vertex 51.8884 90.1108 0
    endloop
  endfacet
  facet normal 0.242536 0.970143 -0
    outer loop
      vertex 51.5136 90.2045 0
      vertex 51.5136 90.2045 10
      vertex 51.8884 90.1108 10
    endloop
  endfacet
  facet normal 0.625473 0.780246 0
    outer loop
      vertex 51.4158 90.2829 0
      vertex 51.5136 90.2045 10
      vertex 51.5136 90.2045 0
    endloop
  endfacet
  facet normal 0.625473 0.780246 -0
    outer loop
      vertex 51.4158 90.2829 0
      vertex 51.4158 90.2829 10
      vertex 51.5136 90.2045 10
    endloop
  endfacet
  facet normal 0.894427 0.447214 0
    outer loop
      vertex 51.0558 91.0029 0
      vertex 51.4158 90.2829 10
      vertex 51.4158 90.2829 0
    endloop
  endfacet
  facet normal 0.894427 0.447214 -0
    outer loop
      vertex 51.0558 91.0029 0
      vertex 51.0558 91.0029 10
      vertex 51.4158 90.2829 10
    endloop
  endfacet
  facet normal 0.939606 -0.342259 0
    outer loop
      vertex 51.1304 91.2077 0
      vertex 51.0558 91.0029 10
      vertex 51.0558 91.0029 0
    endloop
  endfacet
  facet normal 0.939606 -0.342259 0
    outer loop
      vertex 51.1304 91.2077 0
      vertex 51.1304 91.2077 10
      vertex 51.0558 91.0029 10
    endloop
  endfacet
  facet normal 0.397112 -0.91777 0
    outer loop
      vertex 52.1704 91.6577 0
      vertex 51.1304 91.2077 10
      vertex 51.1304 91.2077 0
    endloop
  endfacet
  facet normal 0.397112 -0.91777 0
    outer loop
      vertex 52.1704 91.6577 0
      vertex 52.1704 91.6577 10
      vertex 51.1304 91.2077 10
    endloop
  endfacet
  facet normal -0.180415 -0.983591 0
    outer loop
      vertex 52.3345 91.6276 0
      vertex 52.1704 91.6577 10
      vertex 52.1704 91.6577 0
    endloop
  endfacet
  facet normal -0.180415 -0.983591 0
    outer loop
      vertex 52.3345 91.6276 0
      vertex 52.3345 91.6276 10
      vertex 52.1704 91.6577 10
    endloop
  endfacet
  facet normal -0.69671 -0.717353 0
    outer loop
      vertex 53.2971 90.6927 0
      vertex 52.3345 91.6276 10
      vertex 52.3345 91.6276 0
    endloop
  endfacet
  facet normal -0.69671 -0.717353 0
    outer loop
      vertex 53.2971 90.6927 0
      vertex 53.2971 90.6927 10
      vertex 52.3345 91.6276 10
    endloop
  endfacet
  facet normal 0.992188 0.124748 0
    outer loop
      vertex 53.1228 92.079 0
      vertex 53.2971 90.6927 10
      vertex 53.2971 90.6927 0
    endloop
  endfacet
  facet normal 0.992188 0.124748 -0
    outer loop
      vertex 53.1228 92.079 0
      vertex 53.1228 92.079 10
      vertex 53.2971 90.6927 10
    endloop
  endfacet
  facet normal 0.329722 0.944078 0
    outer loop
      vertex 52.5805 92.2684 0
      vertex 53.1228 92.079 10
      vertex 53.1228 92.079 0
    endloop
  endfacet
  facet normal 0.329722 0.944078 -0
    outer loop
      vertex 52.5805 92.2684 0
      vertex 52.5805 92.2684 10
      vertex 53.1228 92.079 10
    endloop
  endfacet
  facet normal 0.512792 0.858513 0
    outer loop
      vertex 52.5286 92.2994 0
      vertex 52.5805 92.2684 10
      vertex 52.5805 92.2684 0
    endloop
  endfacet
  facet normal 0.512792 0.858513 -0
    outer loop
      vertex 52.5286 92.2994 0
      vertex 52.5286 92.2994 10
      vertex 52.5805 92.2684 10
    endloop
  endfacet
  facet normal 0.675753 0.737128 0
    outer loop
      vertex 51.5894 93.1604 0
      vertex 52.5286 92.2994 10
      vertex 52.5286 92.2994 0
    endloop
  endfacet
  facet normal 0.675753 0.737128 -0
    outer loop
      vertex 51.5894 93.1604 0
      vertex 51.5894 93.1604 10
      vertex 52.5286 92.2994 10
    endloop
  endfacet
  facet normal 0.361859 0.932233 0
    outer loop
      vertex 50.0957 93.7402 0
      vertex 51.5894 93.1604 10
      vertex 51.5894 93.1604 0
    endloop
  endfacet
  facet normal 0.361859 0.932233 -0
    outer loop
      vertex 50.0957 93.7402 0
      vertex 50.0957 93.7402 10
      vertex 51.5894 93.1604 10
    endloop
  endfacet
  facet normal 0.840588 0.541675 0
    outer loop
      vertex 50.0002 93.8884 0
      vertex 50.0957 93.7402 10
      vertex 50.0957 93.7402 0
    endloop
  endfacet
  facet normal 0.840588 0.541675 -0
    outer loop
      vertex 50.0002 93.8884 0
      vertex 50.0002 93.8884 10
      vertex 50.0957 93.7402 10
    endloop
  endfacet
  facet normal 0.8221 -0.569343 0
    outer loop
      vertex 50.0894 94.0172 0
      vertex 50.0002 93.8884 10
      vertex 50.0002 93.8884 0
    endloop
  endfacet
  facet normal 0.8221 -0.569343 0
    outer loop
      vertex 50.0894 94.0172 0
      vertex 50.0894 94.0172 10
      vertex 50.0002 93.8884 10
    endloop
  endfacet
  facet normal 0.40392 -0.914794 0
    outer loop
      vertex 50.8626 94.3586 0
      vertex 50.0894 94.0172 10
      vertex 50.0894 94.0172 0
    endloop
  endfacet
  facet normal 0.40392 -0.914794 0
    outer loop
      vertex 50.8626 94.3586 0
      vertex 50.8626 94.3586 10
      vertex 50.0894 94.0172 10
    endloop
  endfacet
  facet normal 0.916645 0.399702 0
    outer loop
      vertex 50.7218 94.6815 0
      vertex 50.8626 94.3586 10
      vertex 50.8626 94.3586 0
    endloop
  endfacet
  facet normal 0.916645 0.399702 -0
    outer loop
      vertex 50.7218 94.6815 0
      vertex 50.7218 94.6815 10
      vertex 50.8626 94.3586 10
    endloop
  endfacet
  facet normal 0.921021 0.389513 0
    outer loop
      vertex 50.6118 94.9416 0
      vertex 50.7218 94.6815 10
      vertex 50.7218 94.6815 0
    endloop
  endfacet
  facet normal 0.921021 0.389513 -0
    outer loop
      vertex 50.6118 94.9416 0
      vertex 50.6118 94.9416 10
      vertex 50.7218 94.6815 10
    endloop
  endfacet
  facet normal 0.959491 -0.281739 0
    outer loop
      vertex 50.6653 95.1238 0
      vertex 50.6118 94.9416 10
      vertex 50.6118 94.9416 0
    endloop
  endfacet
  facet normal 0.959491 -0.281739 0
    outer loop
      vertex 50.6653 95.1238 0
      vertex 50.6653 95.1238 10
      vertex 50.6118 94.9416 10
    endloop
  endfacet
  facet normal 0.564684 -0.825307 0
    outer loop
      vertex 50.8553 95.2538 0
      vertex 50.6653 95.1238 10
      vertex 50.6653 95.1238 0
    endloop
  endfacet
  facet normal 0.564684 -0.825307 0
    outer loop
      vertex 50.8553 95.2538 0
      vertex 50.8553 95.2538 10
      vertex 50.6653 95.1238 10
    endloop
  endfacet
  facet normal 0.178957 -0.983857 0
    outer loop
      vertex 50.9757 95.2757 0
      vertex 50.8553 95.2538 10
      vertex 50.8553 95.2538 0
    endloop
  endfacet
  facet normal 0.178957 -0.983857 0
    outer loop
      vertex 50.9757 95.2757 0
      vertex 50.9757 95.2757 10
      vertex 50.8553 95.2538 10
    endloop
  endfacet
  facet normal -0.238352 -0.971179 0
    outer loop
      vertex 51.3856 95.1751 0
      vertex 50.9757 95.2757 10
      vertex 50.9757 95.2757 0
    endloop
  endfacet
  facet normal -0.238352 -0.971179 0
    outer loop
      vertex 51.3856 95.1751 0
      vertex 51.3856 95.1751 10
      vertex 50.9757 95.2757 10
    endloop
  endfacet
  facet normal 0.834135 0.55156 0
    outer loop
      vertex 50.0749 97.1573 0
      vertex 51.3856 95.1751 10
      vertex 51.3856 95.1751 0
    endloop
  endfacet
  facet normal 0.834135 0.55156 -0
    outer loop
      vertex 50.0749 97.1573 0
      vertex 50.0749 97.1573 10
      vertex 51.3856 95.1751 10
    endloop
  endfacet
  facet normal 0.966546 0.256494 0
    outer loop
      vertex 50.0503 97.25 0
      vertex 50.0749 97.1573 10
      vertex 50.0749 97.1573 0
    endloop
  endfacet
  facet normal 0.966546 0.256494 -0
    outer loop
      vertex 50.0503 97.25 0
      vertex 50.0503 97.25 10
      vertex 50.0749 97.1573 10
    endloop
  endfacet
  facet normal 0.997752 -0.0670132 0
    outer loop
      vertex 50.1403 98.59 0
      vertex 50.0503 97.25 10
      vertex 50.0503 97.25 0
    endloop
  endfacet
  facet normal 0.997752 -0.0670132 0
    outer loop
      vertex 50.1403 98.59 0
      vertex 50.1403 98.59 10
      vertex 50.0503 97.25 10
    endloop
  endfacet
  facet normal 0.816188 -0.577787 0
    outer loop
      vertex 50.2307 98.7177 0
      vertex 50.1403 98.59 10
      vertex 50.1403 98.59 0
    endloop
  endfacet
  facet normal 0.816188 -0.577787 0
    outer loop
      vertex 50.2307 98.7177 0
      vertex 50.2307 98.7177 10
      vertex 50.1403 98.59 10
    endloop
  endfacet
  facet normal 0.395675 -0.91839 0
    outer loop
      vertex 50.8806 98.9977 0
      vertex 50.2307 98.7177 10
      vertex 50.2307 98.7177 0
    endloop
  endfacet
  facet normal 0.395675 -0.91839 0
    outer loop
      vertex 50.8806 98.9977 0
      vertex 50.8806 98.9977 10
      vertex 50.2307 98.7177 10
    endloop
  endfacet
  facet normal -0.219391 -0.975637 0
    outer loop
      vertex 51.0527 98.959 0
      vertex 50.8806 98.9977 10
      vertex 50.8806 98.9977 0
    endloop
  endfacet
  facet normal -0.219391 -0.975637 0
    outer loop
      vertex 51.0527 98.959 0
      vertex 51.0527 98.959 10
      vertex 50.8806 98.9977 10
    endloop
  endfacet
  facet normal -0.953382 -0.301766 0
    outer loop
      vertex 51.0891 98.844 0
      vertex 51.0527 98.959 10
      vertex 51.0527 98.959 0
    endloop
  endfacet
  facet normal -0.953382 -0.301766 0
    outer loop
      vertex 51.0891 98.844 0
      vertex 51.0891 98.844 10
      vertex 51.0527 98.959 10
    endloop
  endfacet
  facet normal -0.994306 0.106563 0
    outer loop
      vertex 51.0395 98.3812 0
      vertex 51.0891 98.844 10
      vertex 51.0891 98.844 0
    endloop
  endfacet
  facet normal -0.994306 0.106563 0
    outer loop
      vertex 51.0395 98.3812 0
      vertex 51.0395 98.3812 10
      vertex 51.0891 98.844 10
    endloop
  endfacet
  facet normal -0.49913 -0.866527 0
    outer loop
      vertex 51.8749 97.9 0
      vertex 51.0395 98.3812 10
      vertex 51.0395 98.3812 0
    endloop
  endfacet
  facet normal -0.49913 -0.866527 0
    outer loop
      vertex 51.8749 97.9 0
      vertex 51.8749 97.9 10
      vertex 51.0395 98.3812 10
    endloop
  endfacet
  facet normal -0.787973 -0.61571 0
    outer loop
      vertex 51.911 97.8538 0
      vertex 51.8749 97.9 10
      vertex 51.8749 97.9 0
    endloop
  endfacet
  facet normal -0.787973 -0.61571 0
    outer loop
      vertex 51.911 97.8538 0
      vertex 51.911 97.8538 10
      vertex 51.8749 97.9 10
    endloop
  endfacet
  facet normal 0.999726 0.0234128 0
    outer loop
      vertex 51.91 97.8965 0
      vertex 51.911 97.8538 10
      vertex 51.911 97.8538 0
    endloop
  endfacet
  facet normal 0.999726 0.0234128 -0
    outer loop
      vertex 51.91 97.8965 0
      vertex 51.91 97.8965 10
      vertex 51.911 97.8538 10
    endloop
  endfacet
  facet normal 0.640143 -0.768256 0
    outer loop
      vertex 52.0905 98.0469 0
      vertex 51.91 97.8965 10
      vertex 51.91 97.8965 0
    endloop
  endfacet
  facet normal 0.640143 -0.768256 0
    outer loop
      vertex 52.0905 98.0469 0
      vertex 52.0905 98.0469 10
      vertex 51.91 97.8965 10
    endloop
  endfacet
  facet normal -0.203216 -0.979134 0
    outer loop
      vertex 52.6205 97.9369 0
      vertex 52.0905 98.0469 10
      vertex 52.0905 98.0469 0
    endloop
  endfacet
  facet normal -0.203216 -0.979134 0
    outer loop
      vertex 52.6205 97.9369 0
      vertex 52.6205 97.9369 10
      vertex 52.0905 98.0469 10
    endloop
  endfacet
  facet normal -0.513148 -0.8583 0
    outer loop
      vertex 52.7048 97.8865 0
      vertex 52.6205 97.9369 10
      vertex 52.6205 97.9369 0
    endloop
  endfacet
  facet normal -0.513148 -0.8583 0
    outer loop
      vertex 52.7048 97.8865 0
      vertex 52.7048 97.8865 10
      vertex 52.6205 97.9369 10
    endloop
  endfacet
  facet normal -0.765692 -0.643207 0
    outer loop
      vertex 53.1039 97.4114 0
      vertex 52.7048 97.8865 10
      vertex 52.7048 97.8865 0
    endloop
  endfacet
  facet normal -0.765692 -0.643207 0
    outer loop
      vertex 53.1039 97.4114 0
      vertex 53.1039 97.4114 10
      vertex 52.7048 97.8865 10
    endloop
  endfacet
  facet normal 0.995974 -0.0896377 0
    outer loop
      vertex 53.1048 97.4214 0
      vertex 53.1039 97.4114 10
      vertex 53.1039 97.4114 0
    endloop
  endfacet
  facet normal 0.995974 -0.0896377 0
    outer loop
      vertex 53.1048 97.4214 0
      vertex 53.1048 97.4214 10
      vertex 53.1039 97.4114 10
    endloop
  endfacet
  facet normal 0.765238 0.643747 0
    outer loop
      vertex 52.6152 98.0034 0
      vertex 53.1048 97.4214 10
      vertex 53.1048 97.4214 0
    endloop
  endfacet
  facet normal 0.765238 0.643747 -0
    outer loop
      vertex 52.6152 98.0034 0
      vertex 52.6152 98.0034 10
      vertex 53.1048 97.4214 10
    endloop
  endfacet
  facet normal 0.997485 0.0708843 0
    outer loop
      vertex 52.6027 98.1793 0
      vertex 52.6152 98.0034 10
      vertex 52.6152 98.0034 0
    endloop
  endfacet
  facet normal 0.997485 0.0708843 -0
    outer loop
      vertex 52.6027 98.1793 0
      vertex 52.6027 98.1793 10
      vertex 52.6152 98.0034 10
    endloop
  endfacet
  facet normal 0.567167 -0.823603 0
    outer loop
      vertex 52.7013 98.2472 0
      vertex 52.6027 98.1793 10
      vertex 52.6027 98.1793 0
    endloop
  endfacet
  facet normal 0.567167 -0.823603 0
    outer loop
      vertex 52.7013 98.2472 0
      vertex 52.7013 98.2472 10
      vertex 52.6027 98.1793 10
    endloop
  endfacet
  facet normal 0.191404 -0.981511 0
    outer loop
      vertex 52.9177 98.2894 0
      vertex 52.7013 98.2472 10
      vertex 52.7013 98.2472 0
    endloop
  endfacet
  facet normal 0.191404 -0.981511 0
    outer loop
      vertex 52.9177 98.2894 0
      vertex 52.9177 98.2894 10
      vertex 52.7013 98.2472 10
    endloop
  endfacet
  facet normal 0.739039 0.673663 0
    outer loop
      vertex 52.894 98.3154 0
      vertex 52.9177 98.2894 10
      vertex 52.9177 98.2894 0
    endloop
  endfacet
  facet normal 0.739039 0.673663 -0
    outer loop
      vertex 52.894 98.3154 0
      vertex 52.894 98.3154 10
      vertex 52.9177 98.2894 10
    endloop
  endfacet
  facet normal 0.973021 0.230716 0
    outer loop
      vertex 52.664 99.2854 0
      vertex 52.894 98.3154 10
      vertex 52.894 98.3154 0
    endloop
  endfacet
  facet normal 0.973021 0.230716 -0
    outer loop
      vertex 52.664 99.2854 0
      vertex 52.664 99.2854 10
      vertex 52.894 98.3154 10
    endloop
  endfacet
  facet normal 0.922657 -0.385622 0
    outer loop
      vertex 52.732 99.4481 0
      vertex 52.664 99.2854 10
      vertex 52.664 99.2854 0
    endloop
  endfacet
  facet normal 0.922657 -0.385622 0
    outer loop
      vertex 52.732 99.4481 0
      vertex 52.732 99.4481 10
      vertex 52.664 99.2854 10
    endloop
  endfacet
  facet normal 0.222939 -0.974832 0
    outer loop
      vertex 52.8247 99.4693 0
      vertex 52.732 99.4481 10
      vertex 52.732 99.4481 0
    endloop
  endfacet
  facet normal 0.222939 -0.974832 0
    outer loop
      vertex 52.8247 99.4693 0
      vertex 52.8247 99.4693 10
      vertex 52.732 99.4481 10
    endloop
  endfacet
  facet normal -0.0982181 -0.995165 0
    outer loop
      vertex 53.4762 99.405 0
      vertex 52.8247 99.4693 10
      vertex 52.8247 99.4693 0
    endloop
  endfacet
  facet normal -0.0982181 -0.995165 0
    outer loop
      vertex 53.4762 99.405 0
      vertex 53.4762 99.405 10
      vertex 52.8247 99.4693 10
    endloop
  endfacet
  facet normal 0.604128 -0.796887 0
    outer loop
      vertex 54.2993 100.029 0
      vertex 53.4762 99.405 10
      vertex 53.4762 99.405 0
    endloop
  endfacet
  facet normal 0.604128 -0.796887 0
    outer loop
      vertex 54.2993 100.029 0
      vertex 54.2993 100.029 10
      vertex 53.4762 99.405 10
    endloop
  endfacet
  facet normal 0.144307 -0.989533 0
    outer loop
      vertex 54.4433 100.05 0
      vertex 54.2993 100.029 10
      vertex 54.2993 100.029 0
    endloop
  endfacet
  facet normal 0.144307 -0.989533 0
    outer loop
      vertex 54.4433 100.05 0
      vertex 54.4433 100.05 10
      vertex 54.2993 100.029 10
    endloop
  endfacet
  facet normal -0.355197 -0.934791 0
    outer loop
      vertex 55.0865 99.8056 0
      vertex 54.4433 100.05 10
      vertex 54.4433 100.05 0
    endloop
  endfacet
  facet normal -0.355197 -0.934791 0
    outer loop
      vertex 55.0865 99.8056 0
      vertex 55.0865 99.8056 10
      vertex 54.4433 100.05 10
    endloop
  endfacet
  facet normal 0.501704 -0.86504 0
    outer loop
      vertex 55.7148 100.17 0
      vertex 55.0865 99.8056 10
      vertex 55.0865 99.8056 0
    endloop
  endfacet
  facet normal 0.501704 -0.86504 0
    outer loop
      vertex 55.7148 100.17 0
      vertex 55.7148 100.17 10
      vertex 55.0865 99.8056 10
    endloop
  endfacet
  facet normal 0.106562 -0.994306 0
    outer loop
      vertex 55.8361 100.183 0
      vertex 55.7148 100.17 10
      vertex 55.7148 100.17 0
    endloop
  endfacet
  facet normal 0.106562 -0.994306 0
    outer loop
      vertex 55.8361 100.183 0
      vertex 55.8361 100.183 10
      vertex 55.7148 100.17 10
    endloop
  endfacet
  facet normal -0.307384 -0.951585 0
    outer loop
      vertex 57.9635 99.4958 0
      vertex 55.8361 100.183 10
      vertex 55.8361 100.183 0
    endloop
  endfacet
  facet normal -0.307384 -0.951585 0
    outer loop
      vertex 57.9635 99.4958 0
      vertex 57.9635 99.4958 10
      vertex 55.8361 100.183 10
    endloop
  endfacet
  facet normal 0.804104 -0.594489 0
    outer loop
      vertex 58.4065 100.095 0
      vertex 57.9635 99.4958 10
      vertex 57.9635 99.4958 0
    endloop
  endfacet
  facet normal 0.804104 -0.594489 0
    outer loop
      vertex 58.4065 100.095 0
      vertex 58.4065 100.095 10
      vertex 57.9635 99.4958 10
    endloop
  endfacet
  facet normal 0.997525 0.0703148 0
    outer loop
      vertex 58.3604 100.749 0
      vertex 58.4065 100.095 10
      vertex 58.4065 100.095 0
    endloop
  endfacet
  facet normal 0.997525 0.0703148 -0
    outer loop
      vertex 58.3604 100.749 0
      vertex 58.3604 100.749 10
      vertex 58.4065 100.095 10
    endloop
  endfacet
  facet normal 0.908648 -0.417562 0
    outer loop
      vertex 58.4206 100.88 0
      vertex 58.3604 100.749 10
      vertex 58.3604 100.749 0
    endloop
  endfacet
  facet normal 0.908648 -0.417562 0
    outer loop
      vertex 58.4206 100.88 0
      vertex 58.4206 100.88 10
      vertex 58.3604 100.749 10
    endloop
  endfacet
  facet normal 0.596863 -0.802343 0
    outer loop
      vertex 59.0067 101.316 0
      vertex 58.4206 100.88 10
      vertex 58.4206 100.88 0
    endloop
  endfacet
  facet normal 0.596863 -0.802343 0
    outer loop
      vertex 59.0067 101.316 0
      vertex 59.0067 101.316 10
      vertex 58.4206 100.88 10
    endloop
  endfacet
  facet normal 0.985932 0.16715 0
    outer loop
      vertex 58.9338 101.746 0
      vertex 59.0067 101.316 10
      vertex 59.0067 101.316 0
    endloop
  endfacet
  facet normal 0.985932 0.16715 -0
    outer loop
      vertex 58.9338 101.746 0
      vertex 58.9338 101.746 10
      vertex 59.0067 101.316 10
    endloop
  endfacet
  facet normal 0.505918 0.862581 0
    outer loop
      vertex 58.4547 102.027 0
      vertex 58.9338 101.746 10
      vertex 58.9338 101.746 0
    endloop
  endfacet
  facet normal 0.505918 0.862581 -0
    outer loop
      vertex 58.4547 102.027 0
      vertex 58.4547 102.027 10
      vertex 58.9338 101.746 10
    endloop
  endfacet
  facet normal -0.0784726 0.996916 0
    outer loop
      vertex 58.1371 102.002 0
      vertex 58.4547 102.027 10
      vertex 58.4547 102.027 0
    endloop
  endfacet
  facet normal -0.0784726 0.996916 0
    outer loop
      vertex 58.1371 102.002 0
      vertex 58.1371 102.002 10
      vertex 58.4547 102.027 10
    endloop
  endfacet
  facet normal -0.993217 -0.116276 0
    outer loop
      vertex 58.229 101.217 0
      vertex 58.1371 102.002 10
      vertex 58.1371 102.002 0
    endloop
  endfacet
  facet normal -0.993217 -0.116276 0
    outer loop
      vertex 58.229 101.217 0
      vertex 58.229 101.217 10
      vertex 58.1371 102.002 10
    endloop
  endfacet
  facet normal -0.873186 0.487386 0
    outer loop
      vertex 58.1436 101.064 0
      vertex 58.229 101.217 10
      vertex 58.229 101.217 0
    endloop
  endfacet
  facet normal -0.873186 0.487386 0
    outer loop
      vertex 58.1436 101.064 0
      vertex 58.1436 101.064 10
      vertex 58.229 101.217 10
    endloop
  endfacet
  facet normal -0.42394 0.90569 0
    outer loop
      vertex 57.6736 100.844 0
      vertex 58.1436 101.064 10
      vertex 58.1436 101.064 0
    endloop
  endfacet
  facet normal -0.42394 0.90569 0
    outer loop
      vertex 57.6736 100.844 0
      vertex 57.6736 100.844 10
      vertex 58.1436 101.064 10
    endloop
  endfacet
  facet normal -0.284535 0.958666 0
    outer loop
      vertex 57.6298 100.831 0
      vertex 57.6736 100.844 10
      vertex 57.6736 100.844 0
    endloop
  endfacet
  facet normal -0.284535 0.958666 0
    outer loop
      vertex 57.6298 100.831 0
      vertex 57.6298 100.831 10
      vertex 57.6736 100.844 10
    endloop
  endfacet
  facet normal -0.132164 0.991228 0
    outer loop
      vertex 56.1298 100.631 0
      vertex 57.6298 100.831 10
      vertex 57.6298 100.831 0
    endloop
  endfacet
  facet normal -0.132164 0.991228 0
    outer loop
      vertex 56.1298 100.631 0
      vertex 56.1298 100.631 10
      vertex 57.6298 100.831 10
    endloop
  endfacet
  facet normal 0.215067 0.976599 0
    outer loop
      vertex 56.0299 100.653 0
      vertex 56.1298 100.631 10
      vertex 56.1298 100.631 0
    endloop
  endfacet
  facet normal 0.215067 0.976599 -0
    outer loop
      vertex 56.0299 100.653 0
      vertex 56.0299 100.653 10
      vertex 56.1298 100.631 10
    endloop
  endfacet
  facet normal 0.533873 0.845565 0
    outer loop
      vertex 55.5009 100.987 0
      vertex 56.0299 100.653 10
      vertex 56.0299 100.653 0
    endloop
  endfacet
  facet normal 0.533873 0.845565 -0
    outer loop
      vertex 55.5009 100.987 0
      vertex 55.5009 100.987 10
      vertex 56.0299 100.653 10
    endloop
  endfacet
  facet normal -0.0610136 0.998137 0
    outer loop
      vertex 55.0592 100.96 0
      vertex 55.5009 100.987 10
      vertex 55.5009 100.987 0
    endloop
  endfacet
  facet normal -0.0610136 0.998137 0
    outer loop
      vertex 55.0592 100.96 0
      vertex 55.0592 100.96 10
      vertex 55.5009 100.987 10
    endloop
  endfacet
  facet normal 0.365628 0.930761 0
    outer loop
      vertex 54.9421 101.006 0
      vertex 55.0592 100.96 10
      vertex 55.0592 100.96 0
    endloop
  endfacet
  facet normal 0.365628 0.930761 -0
    outer loop
      vertex 54.9421 101.006 0
      vertex 54.9421 101.006 10
      vertex 55.0592 100.96 10
    endloop
  endfacet
  facet normal 0.719486 0.694507 0
    outer loop
      vertex 54.4305 101.536 0
      vertex 54.9421 101.006 10
      vertex 54.9421 101.006 0
    endloop
  endfacet
  facet normal 0.719486 0.694507 -0
    outer loop
      vertex 54.4305 101.536 0
      vertex 54.4305 101.536 10
      vertex 54.9421 101.006 10
    endloop
  endfacet
  facet normal -0.068384 0.997659 0
    outer loop
      vertex 53.4968 101.472 0
      vertex 54.4305 101.536 10
      vertex 54.4305 101.536 0
    endloop
  endfacet
  facet normal -0.068384 0.997659 0
    outer loop
      vertex 53.4968 101.472 0
      vertex 53.4968 101.472 10
      vertex 54.4305 101.536 10
    endloop
  endfacet
  facet normal -0.407859 0.913045 0
    outer loop
      vertex 52.5812 101.063 0
      vertex 53.4968 101.472 10
      vertex 53.4968 101.472 0
    endloop
  endfacet
  facet normal -0.407859 0.913045 0
    outer loop
      vertex 52.5812 101.063 0
      vertex 52.5812 101.063 10
      vertex 53.4968 101.472 10
    endloop
  endfacet
  facet normal -0.239714 0.970843 0
    outer loop
      vertex 52.5326 101.051 0
      vertex 52.5812 101.063 10
      vertex 52.5812 101.063 0
    endloop
  endfacet
  facet normal -0.239714 0.970843 0
    outer loop
      vertex 52.5326 101.051 0
      vertex 52.5326 101.051 10
      vertex 52.5812 101.063 10
    endloop
  endfacet
  facet normal -0.084748 0.996402 0
    outer loop
      vertex 50.7455 100.899 0
      vertex 52.5326 101.051 10
      vertex 52.5326 101.051 0
    endloop
  endfacet
  facet normal -0.084748 0.996402 0
    outer loop
      vertex 50.7455 100.899 0
      vertex 50.7455 100.899 10
      vertex 52.5326 101.051 10
    endloop
  endfacet
  facet normal -0.960714 0.27754 0
    outer loop
      vertex 50.6441 100.548 0
      vertex 50.7455 100.899 10
      vertex 50.7455 100.899 0
    endloop
  endfacet
  facet normal -0.960714 0.27754 0
    outer loop
      vertex 50.6441 100.548 0
      vertex 50.6441 100.548 10
      vertex 50.7455 100.899 10
    endloop
  endfacet
  facet normal -0.724451 0.689326 0
    outer loop
      vertex 50.5499 100.449 0
      vertex 50.6441 100.548 10
      vertex 50.6441 100.548 0
    endloop
  endfacet
  facet normal -0.724451 0.689326 0
    outer loop
      vertex 50.5499 100.449 0
      vertex 50.5499 100.449 10
      vertex 50.6441 100.548 10
    endloop
  endfacet
  facet normal -0.33282 0.94299 0
    outer loop
      vertex 50.0399 100.269 0
      vertex 50.5499 100.449 10
      vertex 50.5499 100.449 0
    endloop
  endfacet
  facet normal -0.33282 0.94299 0
    outer loop
      vertex 50.0399 100.269 0
      vertex 50.0399 100.269 10
      vertex 50.5499 100.449 10
    endloop
  endfacet
  facet normal -0.160635 0.987014 0
    outer loop
      vertex 49.9846 100.26 0
      vertex 50.0399 100.269 10
      vertex 50.0399 100.269 0
    endloop
  endfacet
  facet normal -0.160635 0.987014 0
    outer loop
      vertex 49.9846 100.26 0
      vertex 49.9846 100.26 10
      vertex 50.0399 100.269 10
    endloop
  endfacet
  facet normal 0.035762 0.99936 0
    outer loop
      vertex 48.9227 100.298 0
      vertex 49.9846 100.26 10
      vertex 49.9846 100.26 0
    endloop
  endfacet
  facet normal 0.035762 0.99936 -0
    outer loop
      vertex 48.9227 100.298 0
      vertex 48.9227 100.298 10
      vertex 49.9846 100.26 10
    endloop
  endfacet
  facet normal -0.646664 0.762775 0
    outer loop
      vertex 48.047 99.5556 0
      vertex 48.9227 100.298 10
      vertex 48.9227 100.298 0
    endloop
  endfacet
  facet normal -0.646664 0.762775 0
    outer loop
      vertex 48.047 99.5556 0
      vertex 48.047 99.5556 10
      vertex 48.9227 100.298 10
    endloop
  endfacet
  facet normal -0.361709 0.932291 0
    outer loop
      vertex 47.9555 99.5201 0
      vertex 48.047 99.5556 10
      vertex 48.047 99.5556 0
    endloop
  endfacet
  facet normal -0.361709 0.932291 0
    outer loop
      vertex 47.9555 99.5201 0
      vertex 47.9555 99.5201 10
      vertex 48.047 99.5556 10
    endloop
  endfacet
  facet normal -0.0367641 0.999324 0
    outer loop
      vertex 46.7758 99.4767 0
      vertex 47.9555 99.5201 10
      vertex 47.9555 99.5201 0
    endloop
  endfacet
  facet normal -0.0367641 0.999324 0
    outer loop
      vertex 46.7758 99.4767 0
      vertex 46.7758 99.4767 10
      vertex 47.9555 99.5201 10
    endloop
  endfacet
  facet normal -0.975832 -0.21852 0
    outer loop
      vertex 46.8864 98.9828 0
      vertex 46.7758 99.4767 10
      vertex 46.7758 99.4767 0
    endloop
  endfacet
  facet normal -0.975832 -0.21852 0
    outer loop
      vertex 46.8864 98.9828 0
      vertex 46.8864 98.9828 10
      vertex 46.7758 99.4767 10
    endloop
  endfacet
  facet normal -0.962971 0.269604 0
    outer loop
      vertex 46.8481 98.846 0
      vertex 46.8864 98.9828 10
      vertex 46.8864 98.9828 0
    endloop
  endfacet
  facet normal -0.962971 0.269604 0
    outer loop
      vertex 46.8481 98.846 0
      vertex 46.8481 98.846 10
      vertex 46.8864 98.9828 10
    endloop
  endfacet
  facet normal -0.720841 0.6931 0
    outer loop
      vertex 46.3709 98.3497 0
      vertex 46.8481 98.846 10
      vertex 46.8481 98.846 0
    endloop
  endfacet
  facet normal -0.720841 0.6931 0
    outer loop
      vertex 46.3709 98.3497 0
      vertex 46.3709 98.3497 10
      vertex 46.8481 98.846 10
    endloop
  endfacet
  facet normal -0.94463 0.328138 0
    outer loop
      vertex 46.0517 97.4308 0
      vertex 46.3709 98.3497 10
      vertex 46.3709 98.3497 0
    endloop
  endfacet
  facet normal -0.94463 0.328138 0
    outer loop
      vertex 46.0517 97.4308 0
      vertex 46.0517 97.4308 10
      vertex 46.3709 98.3497 10
    endloop
  endfacet
  facet normal -0.756194 0.654347 0
    outer loop
      vertex 45.9791 97.3469 0
      vertex 46.0517 97.4308 10
      vertex 46.0517 97.4308 0
    endloop
  endfacet
  facet normal -0.756194 0.654347 0
    outer loop
      vertex 45.9791 97.3469 0
      vertex 45.9791 97.3469 10
      vertex 46.0517 97.4308 10
    endloop
  endfacet
  facet normal -0.461069 0.887364 0
    outer loop
      vertex 45.3182 97.0035 0
      vertex 45.9791 97.3469 10
      vertex 45.9791 97.3469 0
    endloop
  endfacet
  facet normal -0.461069 0.887364 0
    outer loop
      vertex 45.3182 97.0035 0
      vertex 45.3182 97.0035 10
      vertex 45.9791 97.3469 10
    endloop
  endfacet
  facet normal -0.960844 -0.277088 0
    outer loop
      vertex 45.4341 96.6016 0
      vertex 45.3182 97.0035 10
      vertex 45.3182 97.0035 0
    endloop
  endfacet
  facet normal -0.960844 -0.277088 0
    outer loop
      vertex 45.4341 96.6016 0
      vertex 45.4341 96.6016 10
      vertex 45.3182 97.0035 10
    endloop
  endfacet
  facet normal -0.978986 0.203926 0
    outer loop
      vertex 45.4055 96.4643 0
      vertex 45.4341 96.6016 10
      vertex 45.4341 96.6016 0
    endloop
  endfacet
  facet normal -0.978986 0.203926 0
    outer loop
      vertex 45.4055 96.4643 0
      vertex 45.4055 96.4643 10
      vertex 45.4341 96.6016 10
    endloop
  endfacet
  facet normal -0.770022 0.638018 0
    outer loop
      vertex 45.1155 96.1143 0
      vertex 45.4055 96.4643 10
      vertex 45.4055 96.4643 0
    endloop
  endfacet
  facet normal -0.770022 0.638018 0
    outer loop
      vertex 45.1155 96.1143 0
      vertex 45.1155 96.1143 10
      vertex 45.4055 96.4643 10
    endloop
  endfacet
  facet normal -0.350609 0.936522 0
    outer loop
      vertex 44.9758 96.062 0
      vertex 45.1155 96.1143 10
      vertex 45.1155 96.1143 0
    endloop
  endfacet
  facet normal -0.350609 0.936522 0
    outer loop
      vertex 44.9758 96.062 0
      vertex 44.9758 96.062 10
      vertex 45.1155 96.1143 10
    endloop
  endfacet
  facet normal 0.161368 0.986894 0
    outer loop
      vertex 44.7434 96.1 0
      vertex 44.9758 96.062 10
      vertex 44.9758 96.062 0
    endloop
  endfacet
  facet normal 0.161368 0.986894 -0
    outer loop
      vertex 44.7434 96.1 0
      vertex 44.7434 96.1 10
      vertex 44.9758 96.062 10
    endloop
  endfacet
  facet normal -0.859513 -0.511113 0
    outer loop
      vertex 45.2262 95.2881 0
      vertex 44.7434 96.1 10
      vertex 44.7434 96.1 0
    endloop
  endfacet
  facet normal -0.859513 -0.511113 0
    outer loop
      vertex 45.2262 95.2881 0
      vertex 45.2262 95.2881 10
      vertex 44.7434 96.1 10
    endloop
  endfacet
  facet normal -0.647849 -0.761769 0
    outer loop
      vertex 46.2299 94.4345 0
      vertex 45.2262 95.2881 10
      vertex 45.2262 95.2881 0
    endloop
  endfacet
  facet normal -0.647849 -0.761769 0
    outer loop
      vertex 46.2299 94.4345 0
      vertex 46.2299 94.4345 10
      vertex 45.2262 95.2881 10
    endloop
  endfacet
  facet normal 0.0796761 -0.996821 0
    outer loop
      vertex 46.918 94.4895 0
      vertex 46.2299 94.4345 10
      vertex 46.2299 94.4345 0
    endloop
  endfacet
  facet normal 0.0796761 -0.996821 0
    outer loop
      vertex 46.918 94.4895 0
      vertex 46.918 94.4895 10
      vertex 46.2299 94.4345 10
    endloop
  endfacet
  facet normal -0.697293 -0.716786 0
    outer loop
      vertex 47.0798 94.3321 0
      vertex 46.918 94.4895 10
      vertex 46.918 94.4895 0
    endloop
  endfacet
  facet normal -0.697293 -0.716786 0
    outer loop
      vertex 47.0798 94.3321 0
      vertex 47.0798 94.3321 10
      vertex 46.918 94.4895 10
    endloop
  endfacet
  facet normal -0.998618 0.0525588 0
    outer loop
      vertex 47.0598 93.9521 0
      vertex 47.0798 94.3321 10
      vertex 47.0798 94.3321 0
    endloop
  endfacet
  facet normal -0.998618 0.0525588 0
    outer loop
      vertex 47.0598 93.9521 0
      vertex 47.0598 93.9521 10
      vertex 47.0798 94.3321 10
    endloop
  endfacet
  facet normal -0.586616 0.809865 0
    outer loop
      vertex 46.8708 93.8152 0
      vertex 47.0598 93.9521 10
      vertex 47.0598 93.9521 0
    endloop
  endfacet
  facet normal -0.586616 0.809865 0
    outer loop
      vertex 46.8708 93.8152 0
      vertex 46.8708 93.8152 10
      vertex 47.0598 93.9521 10
    endloop
  endfacet
  facet normal 0.261379 0.965236 0
    outer loop
      vertex 46.4572 93.9272 0
      vertex 46.8708 93.8152 10
      vertex 46.8708 93.8152 0
    endloop
  endfacet
  facet normal 0.261379 0.965236 -0
    outer loop
      vertex 46.4572 93.9272 0
      vertex 46.4572 93.9272 10
      vertex 46.8708 93.8152 10
    endloop
  endfacet
  facet normal -0.561424 0.827528 0
    outer loop
      vertex 46.3524 93.8561 0
      vertex 46.4572 93.9272 10
      vertex 46.4572 93.9272 0
    endloop
  endfacet
  facet normal -0.561424 0.827528 0
    outer loop
      vertex 46.3524 93.8561 0
      vertex 46.3524 93.8561 10
      vertex 46.4572 93.9272 10
    endloop
  endfacet
  facet normal -0.853996 -0.520279 0
    outer loop
      vertex 47.138 92.5666 0
      vertex 46.3524 93.8561 10
      vertex 46.3524 93.8561 0
    endloop
  endfacet
  facet normal -0.853996 -0.520279 0
    outer loop
      vertex 47.138 92.5666 0
      vertex 47.138 92.5666 10
      vertex 46.3524 93.8561 10
    endloop
  endfacet
  facet normal 0.283996 -0.958825 0
    outer loop
      vertex 47.2089 92.5876 0
      vertex 47.138 92.5666 10
      vertex 47.138 92.5666 0
    endloop
  endfacet
  facet normal 0.283996 -0.958825 0
    outer loop
      vertex 47.2089 92.5876 0
      vertex 47.2089 92.5876 10
      vertex 47.138 92.5666 10
    endloop
  endfacet
  facet normal 0.983863 -0.178922 0
    outer loop
      vertex 47.2524 92.8268 0
      vertex 47.2089 92.5876 10
      vertex 47.2089 92.5876 0
    endloop
  endfacet
  facet normal 0.983863 -0.178922 0
    outer loop
      vertex 47.2524 92.8268 0
      vertex 47.2524 92.8268 10
      vertex 47.2089 92.5876 10
    endloop
  endfacet
  facet normal 0.690759 -0.723085 0
    outer loop
      vertex 47.3799 92.9486 0
      vertex 47.2524 92.8268 10
      vertex 47.2524 92.8268 0
    endloop
  endfacet
  facet normal 0.690759 -0.723085 0
    outer loop
      vertex 47.3799 92.9486 0
      vertex 47.3799 92.9486 10
      vertex 47.2524 92.8268 10
    endloop
  endfacet
  facet normal -0.406962 -0.913445 0
    outer loop
      vertex 47.524 92.8844 0
      vertex 47.3799 92.9486 10
      vertex 47.3799 92.9486 0
    endloop
  endfacet
  facet normal -0.406962 -0.913445 0
    outer loop
      vertex 47.524 92.8844 0
      vertex 47.524 92.8844 10
      vertex 47.3799 92.9486 10
    endloop
  endfacet
  facet normal -0.826631 -0.562744 0
    outer loop
      vertex 47.7863 92.4991 0
      vertex 47.524 92.8844 10
      vertex 47.524 92.8844 0
    endloop
  endfacet
  facet normal -0.826631 -0.562744 0
    outer loop
      vertex 47.7863 92.4991 0
      vertex 47.7863 92.4991 10
      vertex 47.524 92.8844 10
    endloop
  endfacet
  facet normal 0.223544 -0.974694 0
    outer loop
      vertex 48.7765 92.7262 0
      vertex 47.7863 92.4991 10
      vertex 47.7863 92.4991 0
    endloop
  endfacet
  facet normal 0.223544 -0.974694 0
    outer loop
      vertex 48.7765 92.7262 0
      vertex 48.7765 92.7262 10
      vertex 47.7863 92.4991 10
    endloop
  endfacet
  facet normal 0.0195085 -0.99981 0
    outer loop
      vertex 48.838 92.7274 0
      vertex 48.7765 92.7262 10
      vertex 48.7765 92.7262 0
    endloop
  endfacet
  facet normal 0.0195085 -0.99981 0
    outer loop
      vertex 48.838 92.7274 0
      vertex 48.838 92.7274 10
      vertex 48.7765 92.7262 10
    endloop
  endfacet
  facet normal -0.186554 -0.982445 0
    outer loop
      vertex 49.55 92.5922 0
      vertex 48.838 92.7274 10
      vertex 48.838 92.7274 0
    endloop
  endfacet
  facet normal -0.186554 -0.982445 0
    outer loop
      vertex 49.55 92.5922 0
      vertex 49.55 92.5922 10
      vertex 48.838 92.7274 10
    endloop
  endfacet
  facet normal 0.707107 -0.707107 0
    outer loop
      vertex 49.7239 92.7661 0
      vertex 49.55 92.5922 10
      vertex 49.55 92.5922 0
    endloop
  endfacet
  facet normal 0.707107 -0.707107 0
    outer loop
      vertex 49.7239 92.7661 0
      vertex 49.7239 92.7661 10
      vertex 49.55 92.5922 10
    endloop
  endfacet
  facet normal 0.154394 -0.988009 0
    outer loop
      vertex 49.8986 92.7934 0
      vertex 49.7239 92.7661 10
      vertex 49.7239 92.7661 0
    endloop
  endfacet
  facet normal 0.154394 -0.988009 0
    outer loop
      vertex 49.8986 92.7934 0
      vertex 49.8986 92.7934 10
      vertex 49.7239 92.7661 10
    endloop
  endfacet
  facet normal -0.457705 -0.889104 0
    outer loop
      vertex 51.5886 91.9234 0
      vertex 49.8986 92.7934 10
      vertex 49.8986 92.7934 0
    endloop
  endfacet
  facet normal -0.457705 -0.889104 0
    outer loop
      vertex 51.5886 91.9234 0
      vertex 51.5886 91.9234 10
      vertex 49.8986 92.7934 10
    endloop
  endfacet
  facet normal -0.892948 -0.450159 0
    outer loop
      vertex 51.668 91.7659 0
      vertex 51.5886 91.9234 10
      vertex 51.5886 91.9234 0
    endloop
  endfacet
  facet normal -0.892948 -0.450159 0
    outer loop
      vertex 51.668 91.7659 0
      vertex 51.668 91.7659 10
      vertex 51.5886 91.9234 10
    endloop
  endfacet
  facet normal -0.83057 0.556914 0
    outer loop
      vertex 51.5984 91.6621 0
      vertex 51.668 91.7659 10
      vertex 51.668 91.7659 0
    endloop
  endfacet
  facet normal -0.83057 0.556914 0
    outer loop
      vertex 51.5984 91.6621 0
      vertex 51.5984 91.6621 10
      vertex 51.668 91.7659 10
    endloop
  endfacet
  facet normal -0.522829 0.852438 0
    outer loop
      vertex 50.8484 91.2021 0
      vertex 51.5984 91.6621 10
      vertex 51.5984 91.6621 0
    endloop
  endfacet
  facet normal -0.522829 0.852438 0
    outer loop
      vertex 50.8484 91.2021 0
      vertex 50.8484 91.2021 10
      vertex 51.5984 91.6621 10
    endloop
  endfacet
  facet normal -0.0658539 0.997829 0
    outer loop
      vertex 50.709 91.1929 0
      vertex 50.8484 91.2021 10
      vertex 50.8484 91.2021 0
    endloop
  endfacet
  facet normal -0.0658539 0.997829 0
    outer loop
      vertex 50.709 91.1929 0
      vertex 50.709 91.1929 10
      vertex 50.8484 91.2021 10
    endloop
  endfacet
  facet normal 0.406541 0.913632 0
    outer loop
      vertex 48.541 92.1576 0
      vertex 50.709 91.1929 10
      vertex 50.709 91.1929 0
    endloop
  endfacet
  facet normal 0.406541 0.913632 -0
    outer loop
      vertex 48.541 92.1576 0
      vertex 48.541 92.1576 10
      vertex 50.709 91.1929 10
    endloop
  endfacet
  facet normal -0.758001 0.652254 0
    outer loop
      vertex 48.2437 91.8121 0
      vertex 48.541 92.1576 10
      vertex 48.541 92.1576 0
    endloop
  endfacet
  facet normal -0.758001 0.652254 0
    outer loop
      vertex 48.2437 91.8121 0
      vertex 48.2437 91.8121 10
      vertex 48.541 92.1576 10
    endloop
  endfacet
  facet normal -0.36854 0.929612 0
    outer loop
      vertex 48.1143 91.7608 0
      vertex 48.2437 91.8121 10
      vertex 48.2437 91.8121 0
    endloop
  endfacet
  facet normal -0.36854 0.929612 0
    outer loop
      vertex 48.1143 91.7608 0
      vertex 48.1143 91.7608 10
      vertex 48.2437 91.8121 10
    endloop
  endfacet
  facet normal 0.10477 0.994496 0
    outer loop
      vertex 47.6302 91.8118 0
      vertex 48.1143 91.7608 10
      vertex 48.1143 91.7608 0
    endloop
  endfacet
  facet normal 0.10477 0.994496 -0
    outer loop
      vertex 47.6302 91.8118 0
      vertex 47.6302 91.8118 10
      vertex 48.1143 91.7608 10
    endloop
  endfacet
  facet normal -0.807372 0.590043 0
    outer loop
      vertex 47.1787 91.194 0
      vertex 47.6302 91.8118 10
      vertex 47.6302 91.8118 0
    endloop
  endfacet
  facet normal -0.807372 0.590043 0
    outer loop
      vertex 47.1787 91.194 0
      vertex 47.1787 91.194 10
      vertex 47.6302 91.8118 10
    endloop
  endfacet
  facet normal -0.781364 -0.624076 0
    outer loop
      vertex 48.2972 89.7936 0
      vertex 47.1787 91.194 10
      vertex 47.1787 91.194 0
    endloop
  endfacet
  facet normal -0.781364 -0.624076 0
    outer loop
      vertex 48.2972 89.7936 0
      vertex 48.2972 89.7936 10
      vertex 47.1787 91.194 10
    endloop
  endfacet
  facet normal -0.977693 -0.21004 0
    outer loop
      vertex 48.3253 89.6628 0
      vertex 48.2972 89.7936 10
      vertex 48.2972 89.7936 0
    endloop
  endfacet
  facet normal -0.977693 -0.21004 0
    outer loop
      vertex 48.3253 89.6628 0
      vertex 48.3253 89.6628 10
      vertex 48.2972 89.7936 10
    endloop
  endfacet
  facet normal -0.968811 0.247801 0
    outer loop
      vertex 48.1228 88.8711 0
      vertex 48.3253 89.6628 10
      vertex 48.3253 89.6628 0
    endloop
  endfacet
  facet normal -0.968811 0.247801 0
    outer loop
      vertex 48.1228 88.8711 0
      vertex 48.1228 88.8711 10
      vertex 48.3253 89.6628 10
    endloop
  endfacet
  facet normal -0.809083 -0.587695 0
    outer loop
      vertex 48.5701 88.2553 0
      vertex 48.1228 88.8711 10
      vertex 48.1228 88.8711 0
    endloop
  endfacet
  facet normal -0.809083 -0.587695 0
    outer loop
      vertex 48.5701 88.2553 0
      vertex 48.5701 88.2553 10
      vertex 48.1228 88.8711 10
    endloop
  endfacet
  facet normal 0.980591 -0.196064 0
    outer loop
      vertex 48.6429 88.6194 0
      vertex 48.5701 88.2553 10
      vertex 48.5701 88.2553 0
    endloop
  endfacet
  facet normal 0.980591 -0.196064 0
    outer loop
      vertex 48.6429 88.6194 0
      vertex 48.6429 88.6194 10
      vertex 48.5701 88.2553 10
    endloop
  endfacet
  facet normal 0.766965 -0.641689 0
    outer loop
      vertex 48.7351 88.7296 0
      vertex 48.6429 88.6194 10
      vertex 48.6429 88.6194 0
    endloop
  endfacet
  facet normal 0.766965 -0.641689 0
    outer loop
      vertex 48.7351 88.7296 0
      vertex 48.7351 88.7296 10
      vertex 48.6429 88.6194 10
    endloop
  endfacet
  facet normal 0.365652 -0.930751 0
    outer loop
      vertex 49.0151 88.8396 0
      vertex 48.7351 88.7296 10
      vertex 48.7351 88.7296 0
    endloop
  endfacet
  facet normal 0.365652 -0.930751 0
    outer loop
      vertex 49.0151 88.8396 0
      vertex 49.0151 88.8396 10
      vertex 48.7351 88.7296 10
    endloop
  endfacet
  facet normal -0.284015 -0.95882 0
    outer loop
      vertex 49.192 88.7872 0
      vertex 49.0151 88.8396 10
      vertex 49.0151 88.8396 0
    endloop
  endfacet
  facet normal -0.284015 -0.95882 0
    outer loop
      vertex 49.192 88.7872 0
      vertex 49.192 88.7872 10
      vertex 49.0151 88.8396 10
    endloop
  endfacet
  facet normal -0.813733 -0.581238 0
    outer loop
      vertex 49.842 87.8772 0
      vertex 49.192 88.7872 10
      vertex 49.192 88.7872 0
    endloop
  endfacet
  facet normal -0.813733 -0.581238 0
    outer loop
      vertex 49.842 87.8772 0
      vertex 49.842 87.8772 10
      vertex 49.192 88.7872 10
    endloop
  endfacet
  facet normal -0.919306 -0.393544 0
    outer loop
      vertex 49.8673 87.8181 0
      vertex 49.842 87.8772 10
      vertex 49.842 87.8772 0
    endloop
  endfacet
  facet normal -0.919306 -0.393544 0
    outer loop
      vertex 49.8673 87.8181 0
      vertex 49.8673 87.8181 10
      vertex 49.842 87.8772 10
    endloop
  endfacet
  facet normal -0.982334 -0.187138 0
    outer loop
      vertex 49.9339 87.4685 0
      vertex 49.8673 87.8181 10
      vertex 49.8673 87.8181 0
    endloop
  endfacet
  facet normal -0.982334 -0.187138 0
    outer loop
      vertex 49.9339 87.4685 0
      vertex 49.9339 87.4685 10
      vertex 49.8673 87.8181 10
    endloop
  endfacet
  facet normal 0.962326 -0.271899 0
    outer loop
      vertex 50.0956 88.0408 0
      vertex 49.9339 87.4685 10
      vertex 49.9339 87.4685 0
    endloop
  endfacet
  facet normal 0.962326 -0.271899 0
    outer loop
      vertex 50.0956 88.0408 0
      vertex 50.0956 88.0408 10
      vertex 49.9339 87.4685 10
    endloop
  endfacet
  facet normal 0.834958 0.550313 0
    outer loop
      vertex 51.6127 94.8318 0
      vertex 51.6243 94.8142 10
      vertex 51.6243 94.8142 0
    endloop
  endfacet
  facet normal 0.834958 0.550313 -0
    outer loop
      vertex 51.6127 94.8318 0
      vertex 51.6127 94.8318 10
      vertex 51.6243 94.8142 10
    endloop
  endfacet
  facet normal -0.998985 0.0450362 0
    outer loop
      vertex 51.6116 94.8074 0
      vertex 51.6127 94.8318 10
      vertex 51.6127 94.8318 0
    endloop
  endfacet
  facet normal -0.998985 0.0450362 0
    outer loop
      vertex 51.6116 94.8074 0
      vertex 51.6116 94.8074 10
      vertex 51.6127 94.8318 10
    endloop
  endfacet
  facet normal 0.472029 -0.881583 0
    outer loop
      vertex 51.6243 94.8142 0
      vertex 51.6116 94.8074 10
      vertex 51.6116 94.8074 0
    endloop
  endfacet
  facet normal 0.472029 -0.881583 0
    outer loop
      vertex 51.6243 94.8142 0
      vertex 51.6243 94.8142 10
      vertex 51.6116 94.8074 10
    endloop
  endfacet
endsolid OpenSCAD_Model
