solid OpenSCAD_Model
  facet normal 0 0 -1
    outer loop
      vertex 48.7522 120.329 0
      vertex 48.1568 122.962 0
      vertex 48.7766 120.368 0
    endloop
  endfacet
  facet normal 0 0 -1
    outer loop
      vertex 47.6378 117.732 0
      vertex 46.3162 116.369 0
      vertex 46.2051 116.336 0
    endloop
  endfacet
  facet normal 0 0 -1
    outer loop
      vertex 48.1568 122.962 0
      vertex 48.2963 122.912 0
      vertex 48.7766 120.368 0
    endloop
  endfacet
  facet normal 0 0 -1
    outer loop
      vertex 45.2643 122.76 0
      vertex 48.1568 122.962 0
      vertex 48.7522 120.329 0
    endloop
  endfacet
  facet normal 0 0 -1
    outer loop
      vertex 41.4467 115.236 0
      vertex 43.5034 116.052 0
      vertex 42.7777 115.54 0
    endloop
  endfacet
  facet normal 0 -0 -1
    outer loop
      vertex 45.6298 123.524 0
      vertex 47.6039 123.597 0
      vertex 45.3275 122.83 0
    endloop
  endfacet
  facet normal 0 0 -1
    outer loop
      vertex 46.2051 116.336 0
      vertex 45.7504 115.965 0
      vertex 44.983 115.891 0
    endloop
  endfacet
  facet normal 0 0 -1
    outer loop
      vertex 43.6103 116.079 0
      vertex 46.2051 116.336 0
      vertex 44.983 115.891 0
    endloop
  endfacet
  facet normal 0 0 -1
    outer loop
      vertex 48.7522 120.329 0
      vertex 44.4043 122.27 0
      vertex 45.2643 122.76 0
    endloop
  endfacet
  facet normal -0 0 -1
    outer loop
      vertex 50.1678 121.27 0
      vertex 49.505 121.158 0
      vertex 50.0625 122.257 0
    endloop
  endfacet
  facet normal 0 0 -1
    outer loop
      vertex 46.3162 116.369 0
      vertex 47.6378 117.732 0
      vertex 46.6865 116.329 0
    endloop
  endfacet
  facet normal 0 0 -1
    outer loop
      vertex 48.7766 120.368 0
      vertex 48.2963 122.912 0
      vertex 49.4165 121.108 0
    endloop
  endfacet
  facet normal -0 -0 -1
    outer loop
      vertex 50.1519 122.203 0
      vertex 50.1678 121.27 0
      vertex 50.0625 122.257 0
    endloop
  endfacet
  facet normal 0 -0 -1
    outer loop
      vertex 49.3881 123.107 0
      vertex 50.0625 122.257 0
      vertex 48.2963 122.912 0
    endloop
  endfacet
  facet normal 0 0 -1
    outer loop
      vertex 48.2963 122.912 0
      vertex 50.0625 122.257 0
      vertex 49.505 121.158 0
    endloop
  endfacet
  facet normal 0 0 -1
    outer loop
      vertex 37.9973 121.351 0
      vertex 38.1751 121.72 0
      vertex 38.0768 120.971 0
    endloop
  endfacet
  facet normal -0 -0 -1
    outer loop
      vertex 50.4948 122.137 0
      vertex 50.6611 121.763 0
      vertex 50.1519 122.203 0
    endloop
  endfacet
  facet normal 0 0 -1
    outer loop
      vertex 50.1519 122.203 0
      vertex 50.6611 121.763 0
      vertex 50.1678 121.27 0
    endloop
  endfacet
  facet normal 0 0 -1
    outer loop
      vertex 49.4165 121.108 0
      vertex 48.2963 122.912 0
      vertex 49.505 121.158 0
    endloop
  endfacet
  facet normal -0 0 -1
    outer loop
      vertex 48.1568 122.962 0
      vertex 45.3275 122.83 0
      vertex 47.6039 123.597 0
    endloop
  endfacet
  facet normal 0 0 -1
    outer loop
      vertex 48.1568 122.962 0
      vertex 45.2643 122.76 0
      vertex 45.3275 122.83 0
    endloop
  endfacet
  facet normal 0 0 -1
    outer loop
      vertex 47.6378 117.732 0
      vertex 44.4043 122.27 0
      vertex 48.7522 120.329 0
    endloop
  endfacet
  facet normal 0 -0 -1
    outer loop
      vertex 44.4043 122.27 0
      vertex 46.2051 116.336 0
      vertex 44.2808 122.258 0
    endloop
  endfacet
  facet normal 0 -0 -1
    outer loop
      vertex 44.2808 122.258 0
      vertex 46.2051 116.336 0
      vertex 43.6103 116.079 0
    endloop
  endfacet
  facet normal 0 -0 -1
    outer loop
      vertex 43.6523 122.477 0
      vertex 44.2808 122.258 0
      vertex 43.369 122.177 0
    endloop
  endfacet
  facet normal -0 0 -1
    outer loop
      vertex 47.6378 117.732 0
      vertex 46.2051 116.336 0
      vertex 44.4043 122.27 0
    endloop
  endfacet
  facet normal 0 0 -1
    outer loop
      vertex 43.2959 122.134 0
      vertex 43.369 122.177 0
      vertex 44.2808 122.258 0
    endloop
  endfacet
  facet normal 0 0 -1
    outer loop
      vertex 43.2959 122.134 0
      vertex 44.2808 122.258 0
      vertex 43.6103 116.079 0
    endloop
  endfacet
  facet normal 0 0 -1
    outer loop
      vertex 37.1542 120.487 0
      vertex 37.2269 120.709 0
      vertex 37.3235 120.692 0
    endloop
  endfacet
  facet normal 0 -0 -1
    outer loop
      vertex 41.8873 121.787 0
      vertex 43.2959 122.134 0
      vertex 41.7567 121.169 0
    endloop
  endfacet
  facet normal 0 0 -1
    outer loop
      vertex 41.7567 121.169 0
      vertex 43.2959 122.134 0
      vertex 43.6103 116.079 0
    endloop
  endfacet
  facet normal 0 0 -1
    outer loop
      vertex 41.6135 121.05 0
      vertex 41.7567 121.169 0
      vertex 43.6103 116.079 0
    endloop
  endfacet
  facet normal 0 0 -1
    outer loop
      vertex 43.5034 116.052 0
      vertex 41.6135 121.05 0
      vertex 43.6103 116.079 0
    endloop
  endfacet
  facet normal -0 0 -1
    outer loop
      vertex 43.5034 116.052 0
      vertex 41.4467 115.236 0
      vertex 41.6135 121.05 0
    endloop
  endfacet
  facet normal 0 0 -1
    outer loop
      vertex 41.6135 121.05 0
      vertex 41.4467 115.236 0
      vertex 39.4735 121 0
    endloop
  endfacet
  facet normal 0 0 -1
    outer loop
      vertex 39.4735 121 0
      vertex 37.602 116.58 0
      vertex 37.5725 116.605 0
    endloop
  endfacet
  facet normal 0 0 -1
    outer loop
      vertex 37.9535 120.792 0
      vertex 36.71 118.642 0
      vertex 37.1569 120.255 0
    endloop
  endfacet
  facet normal 0 -0 -1
    outer loop
      vertex 38.0768 120.971 0
      vertex 39.3954 121.02 0
      vertex 37.9535 120.792 0
    endloop
  endfacet
  facet normal 0 0 -1
    outer loop
      vertex 38.0768 120.971 0
      vertex 38.1751 121.72 0
      vertex 39.3954 121.02 0
    endloop
  endfacet
  facet normal 0 0 -1
    outer loop
      vertex 36.7442 120.818 0
      vertex 36.8764 120.905 0
      vertex 37.1542 120.487 0
    endloop
  endfacet
  facet normal 0 0 -1
    outer loop
      vertex 37.9535 120.792 0
      vertex 39.3954 121.02 0
      vertex 39.4735 121 0
    endloop
  endfacet
  facet normal 0 -0 -1
    outer loop
      vertex 37.9535 120.792 0
      vertex 39.4735 121 0
      vertex 36.71 118.642 0
    endloop
  endfacet
  facet normal 0 0 -1
    outer loop
      vertex 37.1542 120.487 0
      vertex 37.3235 120.692 0
      vertex 37.1569 120.255 0
    endloop
  endfacet
  facet normal 0 0 -1
    outer loop
      vertex 37.1569 120.255 0
      vertex 37.3235 120.692 0
      vertex 37.9535 120.792 0
    endloop
  endfacet
  facet normal 0 0 -1
    outer loop
      vertex 37.1542 120.487 0
      vertex 36.8764 120.905 0
      vertex 37.2269 120.709 0
    endloop
  endfacet
  facet normal 0 0 -1
    outer loop
      vertex 36.6911 119.861 0
      vertex 37.1569 120.255 0
      vertex 36.71 118.642 0
    endloop
  endfacet
  facet normal 0 0 -1
    outer loop
      vertex 36.71 118.642 0
      vertex 37.5725 116.605 0
      vertex 36.8192 117.101 0
    endloop
  endfacet
  facet normal 0 0 -1
    outer loop
      vertex 36.71 118.642 0
      vertex 39.4735 121 0
      vertex 37.5725 116.605 0
    endloop
  endfacet
  facet normal 0 0 -1
    outer loop
      vertex 36.8192 117.101 0
      vertex 36.636 118.511 0
      vertex 36.71 118.642 0
    endloop
  endfacet
  facet normal 0 0 -1
    outer loop
      vertex 36.8192 117.101 0
      vertex 36.3271 118.211 0
      vertex 36.636 118.511 0
    endloop
  endfacet
  facet normal 0 0 -1
    outer loop
      vertex 36.3271 118.211 0
      vertex 36.234 118.274 0
      vertex 36.636 118.511 0
    endloop
  endfacet
  facet normal 0 -0 -1
    outer loop
      vertex 39.4735 121 0
      vertex 41.4467 115.236 0
      vertex 37.602 116.58 0
    endloop
  endfacet
  facet normal 0 0 -1
    outer loop
      vertex 37.602 116.58 0
      vertex 41.4467 115.236 0
      vertex 38.5627 115.501 0
    endloop
  endfacet
  facet normal 0 0 -1
    outer loop
      vertex 38.5627 115.501 0
      vertex 41.4467 115.236 0
      vertex 41.382 115.204 0
    endloop
  endfacet
  facet normal 0 0 -1
    outer loop
      vertex 39.9559 114.81 0
      vertex 38.5627 115.501 0
      vertex 41.382 115.204 0
    endloop
  endfacet
  facet normal 0 0 -1
    outer loop
      vertex 40.9149 114.801 0
      vertex 39.9559 114.81 0
      vertex 41.382 115.204 0
    endloop
  endfacet
  facet normal 0 0 1
    outer loop
      vertex 48.7766 120.368 10
      vertex 48.1568 122.962 10
      vertex 48.7522 120.329 10
    endloop
  endfacet
  facet normal 0 0 1
    outer loop
      vertex 46.2051 116.336 10
      vertex 46.3162 116.369 10
      vertex 47.6378 117.732 10
    endloop
  endfacet
  facet normal 0 0 1
    outer loop
      vertex 48.7766 120.368 10
      vertex 48.2963 122.912 10
      vertex 48.1568 122.962 10
    endloop
  endfacet
  facet normal 0 0 1
    outer loop
      vertex 48.7522 120.329 10
      vertex 48.1568 122.962 10
      vertex 45.2643 122.76 10
    endloop
  endfacet
  facet normal 0 -0 1
    outer loop
      vertex 42.7777 115.54 10
      vertex 43.5034 116.052 10
      vertex 41.4467 115.236 10
    endloop
  endfacet
  facet normal 0 0 1
    outer loop
      vertex 45.3275 122.83 10
      vertex 47.6039 123.597 10
      vertex 45.6298 123.524 10
    endloop
  endfacet
  facet normal 0 0 1
    outer loop
      vertex 44.983 115.891 10
      vertex 45.7504 115.965 10
      vertex 46.2051 116.336 10
    endloop
  endfacet
  facet normal 0 -0 1
    outer loop
      vertex 44.983 115.891 10
      vertex 46.2051 116.336 10
      vertex 43.6103 116.079 10
    endloop
  endfacet
  facet normal 0 0 1
    outer loop
      vertex 45.2643 122.76 10
      vertex 44.4043 122.27 10
      vertex 48.7522 120.329 10
    endloop
  endfacet
  facet normal 0 0 1
    outer loop
      vertex 50.0625 122.257 10
      vertex 49.505 121.158 10
      vertex 50.1678 121.27 10
    endloop
  endfacet
  facet normal 0 -0 1
    outer loop
      vertex 46.6865 116.329 10
      vertex 47.6378 117.732 10
      vertex 46.3162 116.369 10
    endloop
  endfacet
  facet normal 0 0 1
    outer loop
      vertex 49.4165 121.108 10
      vertex 48.2963 122.912 10
      vertex 48.7766 120.368 10
    endloop
  endfacet
  facet normal 0 0 1
    outer loop
      vertex 50.0625 122.257 10
      vertex 50.1678 121.27 10
      vertex 50.1519 122.203 10
    endloop
  endfacet
  facet normal -0 0 1
    outer loop
      vertex 48.2963 122.912 10
      vertex 50.0625 122.257 10
      vertex 49.3881 123.107 10
    endloop
  endfacet
  facet normal 0 -0 1
    outer loop
      vertex 49.505 121.158 10
      vertex 50.0625 122.257 10
      vertex 48.2963 122.912 10
    endloop
  endfacet
  facet normal 0 -0 1
    outer loop
      vertex 38.0768 120.971 10
      vertex 38.1751 121.72 10
      vertex 37.9973 121.351 10
    endloop
  endfacet
  facet normal 0 0 1
    outer loop
      vertex 50.1519 122.203 10
      vertex 50.6611 121.763 10
      vertex 50.4948 122.137 10
    endloop
  endfacet
  facet normal 0 -0 1
    outer loop
      vertex 50.1678 121.27 10
      vertex 50.6611 121.763 10
      vertex 50.1519 122.203 10
    endloop
  endfacet
  facet normal 0 0 1
    outer loop
      vertex 49.505 121.158 10
      vertex 48.2963 122.912 10
      vertex 49.4165 121.108 10
    endloop
  endfacet
  facet normal 0 0 1
    outer loop
      vertex 47.6039 123.597 10
      vertex 45.3275 122.83 10
      vertex 48.1568 122.962 10
    endloop
  endfacet
  facet normal -0 0 1
    outer loop
      vertex 45.3275 122.83 10
      vertex 45.2643 122.76 10
      vertex 48.1568 122.962 10
    endloop
  endfacet
  facet normal 0 0 1
    outer loop
      vertex 48.7522 120.329 10
      vertex 44.4043 122.27 10
      vertex 47.6378 117.732 10
    endloop
  endfacet
  facet normal -0 0 1
    outer loop
      vertex 44.2808 122.258 10
      vertex 46.2051 116.336 10
      vertex 44.4043 122.27 10
    endloop
  endfacet
  facet normal 0 0 1
    outer loop
      vertex 43.6103 116.079 10
      vertex 46.2051 116.336 10
      vertex 44.2808 122.258 10
    endloop
  endfacet
  facet normal 0 0 1
    outer loop
      vertex 43.369 122.177 10
      vertex 44.2808 122.258 10
      vertex 43.6523 122.477 10
    endloop
  endfacet
  facet normal 0 0 1
    outer loop
      vertex 44.4043 122.27 10
      vertex 46.2051 116.336 10
      vertex 47.6378 117.732 10
    endloop
  endfacet
  facet normal 0 0 1
    outer loop
      vertex 44.2808 122.258 10
      vertex 43.369 122.177 10
      vertex 43.2959 122.134 10
    endloop
  endfacet
  facet normal 0 -0 1
    outer loop
      vertex 43.6103 116.079 10
      vertex 44.2808 122.258 10
      vertex 43.2959 122.134 10
    endloop
  endfacet
  facet normal 0 0 1
    outer loop
      vertex 37.3235 120.692 10
      vertex 37.2269 120.709 10
      vertex 37.1542 120.487 10
    endloop
  endfacet
  facet normal 0 0 1
    outer loop
      vertex 41.7567 121.169 10
      vertex 43.2959 122.134 10
      vertex 41.8873 121.787 10
    endloop
  endfacet
  facet normal 0 0 1
    outer loop
      vertex 43.6103 116.079 10
      vertex 43.2959 122.134 10
      vertex 41.7567 121.169 10
    endloop
  endfacet
  facet normal 0 0 1
    outer loop
      vertex 43.6103 116.079 10
      vertex 41.7567 121.169 10
      vertex 41.6135 121.05 10
    endloop
  endfacet
  facet normal 0 0 1
    outer loop
      vertex 43.6103 116.079 10
      vertex 41.6135 121.05 10
      vertex 43.5034 116.052 10
    endloop
  endfacet
  facet normal 0 0 1
    outer loop
      vertex 41.6135 121.05 10
      vertex 41.4467 115.236 10
      vertex 43.5034 116.052 10
    endloop
  endfacet
  facet normal -0 0 1
    outer loop
      vertex 39.4735 121 10
      vertex 41.4467 115.236 10
      vertex 41.6135 121.05 10
    endloop
  endfacet
  facet normal -0 0 1
    outer loop
      vertex 37.5725 116.605 10
      vertex 37.602 116.58 10
      vertex 39.4735 121 10
    endloop
  endfacet
  facet normal -0 0 1
    outer loop
      vertex 37.1569 120.255 10
      vertex 36.71 118.642 10
      vertex 37.9535 120.792 10
    endloop
  endfacet
  facet normal 0 0 1
    outer loop
      vertex 37.9535 120.792 10
      vertex 39.3954 121.02 10
      vertex 38.0768 120.971 10
    endloop
  endfacet
  facet normal 0 0 1
    outer loop
      vertex 39.3954 121.02 10
      vertex 38.1751 121.72 10
      vertex 38.0768 120.971 10
    endloop
  endfacet
  facet normal 0 0 1
    outer loop
      vertex 37.1542 120.487 10
      vertex 36.8764 120.905 10
      vertex 36.7442 120.818 10
    endloop
  endfacet
  facet normal 0 0 1
    outer loop
      vertex 39.4735 121 10
      vertex 39.3954 121.02 10
      vertex 37.9535 120.792 10
    endloop
  endfacet
  facet normal 0 0 1
    outer loop
      vertex 36.71 118.642 10
      vertex 39.4735 121 10
      vertex 37.9535 120.792 10
    endloop
  endfacet
  facet normal 0 -0 1
    outer loop
      vertex 37.1569 120.255 10
      vertex 37.3235 120.692 10
      vertex 37.1542 120.487 10
    endloop
  endfacet
  facet normal 0 0 1
    outer loop
      vertex 37.9535 120.792 10
      vertex 37.3235 120.692 10
      vertex 37.1569 120.255 10
    endloop
  endfacet
  facet normal 0 0 1
    outer loop
      vertex 37.2269 120.709 10
      vertex 36.8764 120.905 10
      vertex 37.1542 120.487 10
    endloop
  endfacet
  facet normal 0 -0 1
    outer loop
      vertex 36.71 118.642 10
      vertex 37.1569 120.255 10
      vertex 36.6911 119.861 10
    endloop
  endfacet
  facet normal -0 -0 1
    outer loop
      vertex 36.8192 117.101 10
      vertex 37.5725 116.605 10
      vertex 36.71 118.642 10
    endloop
  endfacet
  facet normal 0 -0 1
    outer loop
      vertex 37.5725 116.605 10
      vertex 39.4735 121 10
      vertex 36.71 118.642 10
    endloop
  endfacet
  facet normal 0 0 1
    outer loop
      vertex 36.71 118.642 10
      vertex 36.636 118.511 10
      vertex 36.8192 117.101 10
    endloop
  endfacet
  facet normal 0 0 1
    outer loop
      vertex 36.636 118.511 10
      vertex 36.3271 118.211 10
      vertex 36.8192 117.101 10
    endloop
  endfacet
  facet normal 0 0 1
    outer loop
      vertex 36.636 118.511 10
      vertex 36.234 118.274 10
      vertex 36.3271 118.211 10
    endloop
  endfacet
  facet normal -0 0 1
    outer loop
      vertex 37.602 116.58 10
      vertex 41.4467 115.236 10
      vertex 39.4735 121 10
    endloop
  endfacet
  facet normal -0 -0 1
    outer loop
      vertex 38.5627 115.501 10
      vertex 41.4467 115.236 10
      vertex 37.602 116.58 10
    endloop
  endfacet
  facet normal 0 -0 1
    outer loop
      vertex 41.382 115.204 10
      vertex 41.4467 115.236 10
      vertex 38.5627 115.501 10
    endloop
  endfacet
  facet normal 0 0 1
    outer loop
      vertex 41.382 115.204 10
      vertex 38.5627 115.501 10
      vertex 39.9559 114.81 10
    endloop
  endfacet
  facet normal 0 0 1
    outer loop
      vertex 41.382 115.204 10
      vertex 39.9559 114.81 10
      vertex 40.9149 114.801 10
    endloop
  endfacet
  facet normal 0.44333 -0.896358 0
    outer loop
      vertex 41.4467 115.236 0
      vertex 41.382 115.204 10
      vertex 41.382 115.204 0
    endloop
  endfacet
  facet normal 0.44333 -0.896358 0
    outer loop
      vertex 41.4467 115.236 0
      vertex 41.4467 115.236 10
      vertex 41.382 115.204 10
    endloop
  endfacet
  facet normal 0.222666 -0.974895 0
    outer loop
      vertex 42.7777 115.54 0
      vertex 41.4467 115.236 10
      vertex 41.4467 115.236 0
    endloop
  endfacet
  facet normal 0.222666 -0.974895 0
    outer loop
      vertex 42.7777 115.54 0
      vertex 42.7777 115.54 10
      vertex 41.4467 115.236 10
    endloop
  endfacet
  facet normal 0.576489 -0.817105 0
    outer loop
      vertex 43.5034 116.052 0
      vertex 42.7777 115.54 10
      vertex 42.7777 115.54 0
    endloop
  endfacet
  facet normal 0.576489 -0.817105 0
    outer loop
      vertex 43.5034 116.052 0
      vertex 43.5034 116.052 10
      vertex 42.7777 115.54 10
    endloop
  endfacet
  facet normal 0.244882 -0.969553 0
    outer loop
      vertex 43.6103 116.079 0
      vertex 43.5034 116.052 10
      vertex 43.5034 116.052 0
    endloop
  endfacet
  facet normal 0.244882 -0.969553 0
    outer loop
      vertex 43.6103 116.079 0
      vertex 43.6103 116.079 10
      vertex 43.5034 116.052 10
    endloop
  endfacet
  facet normal -0.13569 -0.990751 0
    outer loop
      vertex 44.983 115.891 0
      vertex 43.6103 116.079 10
      vertex 43.6103 116.079 0
    endloop
  endfacet
  facet normal -0.13569 -0.990751 0
    outer loop
      vertex 44.983 115.891 0
      vertex 44.983 115.891 10
      vertex 43.6103 116.079 10
    endloop
  endfacet
  facet normal 0.0959843 -0.995383 0
    outer loop
      vertex 45.7504 115.965 0
      vertex 44.983 115.891 10
      vertex 44.983 115.891 0
    endloop
  endfacet
  facet normal 0.0959843 -0.995383 0
    outer loop
      vertex 45.7504 115.965 0
      vertex 45.7504 115.965 10
      vertex 44.983 115.891 10
    endloop
  endfacet
  facet normal 0.632189 -0.774815 0
    outer loop
      vertex 46.2051 116.336 0
      vertex 45.7504 115.965 10
      vertex 45.7504 115.965 0
    endloop
  endfacet
  facet normal 0.632189 -0.774815 0
    outer loop
      vertex 46.2051 116.336 0
      vertex 46.2051 116.336 10
      vertex 45.7504 115.965 10
    endloop
  endfacet
  facet normal 0.284735 -0.958606 0
    outer loop
      vertex 46.3162 116.369 0
      vertex 46.2051 116.336 10
      vertex 46.2051 116.336 0
    endloop
  endfacet
  facet normal 0.284735 -0.958606 0
    outer loop
      vertex 46.3162 116.369 0
      vertex 46.3162 116.369 10
      vertex 46.2051 116.336 10
    endloop
  endfacet
  facet normal -0.107396 -0.994216 0
    outer loop
      vertex 46.6865 116.329 0
      vertex 46.3162 116.369 10
      vertex 46.3162 116.369 0
    endloop
  endfacet
  facet normal -0.107396 -0.994216 0
    outer loop
      vertex 46.6865 116.329 0
      vertex 46.6865 116.329 10
      vertex 46.3162 116.369 10
    endloop
  endfacet
  facet normal 0.827677 -0.561204 0
    outer loop
      vertex 47.6378 117.732 0
      vertex 46.6865 116.329 10
      vertex 46.6865 116.329 0
    endloop
  endfacet
  facet normal 0.827677 -0.561204 0
    outer loop
      vertex 47.6378 117.732 0
      vertex 47.6378 117.732 10
      vertex 46.6865 116.329 10
    endloop
  endfacet
  facet normal 0.918966 -0.394338 0
    outer loop
      vertex 48.7522 120.329 0
      vertex 47.6378 117.732 10
      vertex 47.6378 117.732 0
    endloop
  endfacet
  facet normal 0.918966 -0.394338 0
    outer loop
      vertex 48.7522 120.329 0
      vertex 48.7522 120.329 10
      vertex 47.6378 117.732 10
    endloop
  endfacet
  facet normal 0.847754 -0.53039 0
    outer loop
      vertex 48.7766 120.368 0
      vertex 48.7522 120.329 10
      vertex 48.7522 120.329 0
    endloop
  endfacet
  facet normal 0.847754 -0.53039 0
    outer loop
      vertex 48.7766 120.368 0
      vertex 48.7766 120.368 10
      vertex 48.7522 120.329 10
    endloop
  endfacet
  facet normal 0.756414 -0.654093 0
    outer loop
      vertex 49.4165 121.108 0
      vertex 48.7766 120.368 10
      vertex 48.7766 120.368 0
    endloop
  endfacet
  facet normal 0.756414 -0.654093 0
    outer loop
      vertex 49.4165 121.108 0
      vertex 49.4165 121.108 10
      vertex 48.7766 120.368 10
    endloop
  endfacet
  facet normal 0.491895 -0.870654 0
    outer loop
      vertex 49.505 121.158 0
      vertex 49.4165 121.108 10
      vertex 49.4165 121.108 0
    endloop
  endfacet
  facet normal 0.491895 -0.870654 0
    outer loop
      vertex 49.505 121.158 0
      vertex 49.505 121.158 10
      vertex 49.4165 121.108 10
    endloop
  endfacet
  facet normal 0.166618 -0.986022 0
    outer loop
      vertex 50.1678 121.27 0
      vertex 49.505 121.158 10
      vertex 49.505 121.158 0
    endloop
  endfacet
  facet normal 0.166618 -0.986022 0
    outer loop
      vertex 50.1678 121.27 0
      vertex 50.1678 121.27 10
      vertex 49.505 121.158 10
    endloop
  endfacet
  facet normal 0.706892 -0.707322 0
    outer loop
      vertex 50.6611 121.763 0
      vertex 50.1678 121.27 10
      vertex 50.1678 121.27 0
    endloop
  endfacet
  facet normal 0.706892 -0.707322 0
    outer loop
      vertex 50.6611 121.763 0
      vertex 50.6611 121.763 10
      vertex 50.1678 121.27 10
    endloop
  endfacet
  facet normal 0.913741 0.406297 0
    outer loop
      vertex 50.4948 122.137 0
      vertex 50.6611 121.763 10
      vertex 50.6611 121.763 0
    endloop
  endfacet
  facet normal 0.913741 0.406297 -0
    outer loop
      vertex 50.4948 122.137 0
      vertex 50.4948 122.137 10
      vertex 50.6611 121.763 10
    endloop
  endfacet
  facet normal 0.189007 0.981976 0
    outer loop
      vertex 50.1519 122.203 0
      vertex 50.4948 122.137 10
      vertex 50.4948 122.137 0
    endloop
  endfacet
  facet normal 0.189007 0.981976 -0
    outer loop
      vertex 50.1519 122.203 0
      vertex 50.1519 122.203 10
      vertex 50.4948 122.137 10
    endloop
  endfacet
  facet normal 0.517028 0.855969 0
    outer loop
      vertex 50.0625 122.257 0
      vertex 50.1519 122.203 10
      vertex 50.1519 122.203 0
    endloop
  endfacet
  facet normal 0.517028 0.855969 -0
    outer loop
      vertex 50.0625 122.257 0
      vertex 50.0625 122.257 10
      vertex 50.1519 122.203 10
    endloop
  endfacet
  facet normal 0.78338 0.621543 0
    outer loop
      vertex 49.3881 123.107 0
      vertex 50.0625 122.257 10
      vertex 50.0625 122.257 0
    endloop
  endfacet
  facet normal 0.78338 0.621543 -0
    outer loop
      vertex 49.3881 123.107 0
      vertex 49.3881 123.107 10
      vertex 50.0625 122.257 10
    endloop
  endfacet
  facet normal -0.175822 0.984422 0
    outer loop
      vertex 48.2963 122.912 0
      vertex 49.3881 123.107 10
      vertex 49.3881 123.107 0
    endloop
  endfacet
  facet normal -0.175822 0.984422 0
    outer loop
      vertex 48.2963 122.912 0
      vertex 48.2963 122.912 10
      vertex 49.3881 123.107 10
    endloop
  endfacet
  facet normal 0.337405 0.94136 0
    outer loop
      vertex 48.1568 122.962 0
      vertex 48.2963 122.912 10
      vertex 48.2963 122.912 0
    endloop
  endfacet
  facet normal 0.337405 0.94136 -0
    outer loop
      vertex 48.1568 122.962 0
      vertex 48.1568 122.962 10
      vertex 48.2963 122.912 10
    endloop
  endfacet
  facet normal 0.754178 0.65667 0
    outer loop
      vertex 47.6039 123.597 0
      vertex 48.1568 122.962 10
      vertex 48.1568 122.962 0
    endloop
  endfacet
  facet normal 0.754178 0.65667 -0
    outer loop
      vertex 47.6039 123.597 0
      vertex 47.6039 123.597 10
      vertex 48.1568 122.962 10
    endloop
  endfacet
  facet normal -0.0369536 0.999317 0
    outer loop
      vertex 45.6298 123.524 0
      vertex 47.6039 123.597 10
      vertex 47.6039 123.597 0
    endloop
  endfacet
  facet normal -0.0369536 0.999317 0
    outer loop
      vertex 45.6298 123.524 0
      vertex 45.6298 123.524 10
      vertex 47.6039 123.597 10
    endloop
  endfacet
  facet normal -0.916799 0.399349 0
    outer loop
      vertex 45.3275 122.83 0
      vertex 45.6298 123.524 10
      vertex 45.6298 123.524 0
    endloop
  endfacet
  facet normal -0.916799 0.399349 0
    outer loop
      vertex 45.3275 122.83 0
      vertex 45.3275 122.83 10
      vertex 45.6298 123.524 10
    endloop
  endfacet
  facet normal -0.742239 0.670136 0
    outer loop
      vertex 45.2643 122.76 0
      vertex 45.3275 122.83 10
      vertex 45.3275 122.83 0
    endloop
  endfacet
  facet normal -0.742239 0.670136 0
    outer loop
      vertex 45.2643 122.76 0
      vertex 45.2643 122.76 10
      vertex 45.3275 122.83 10
    endloop
  endfacet
  facet normal -0.495051 0.868864 0
    outer loop
      vertex 44.4043 122.27 0
      vertex 45.2643 122.76 10
      vertex 45.2643 122.76 0
    endloop
  endfacet
  facet normal -0.495051 0.868864 0
    outer loop
      vertex 44.4043 122.27 0
      vertex 44.4043 122.27 10
      vertex 45.2643 122.76 10
    endloop
  endfacet
  facet normal -0.0967105 0.995313 0
    outer loop
      vertex 44.2808 122.258 0
      vertex 44.4043 122.27 10
      vertex 44.4043 122.27 0
    endloop
  endfacet
  facet normal -0.0967105 0.995313 0
    outer loop
      vertex 44.2808 122.258 0
      vertex 44.2808 122.258 10
      vertex 44.4043 122.27 10
    endloop
  endfacet
  facet normal 0.329045 0.944314 0
    outer loop
      vertex 43.6523 122.477 0
      vertex 44.2808 122.258 10
      vertex 44.2808 122.258 0
    endloop
  endfacet
  facet normal 0.329045 0.944314 -0
    outer loop
      vertex 43.6523 122.477 0
      vertex 43.6523 122.477 10
      vertex 44.2808 122.258 10
    endloop
  endfacet
  facet normal -0.727053 0.686581 0
    outer loop
      vertex 43.369 122.177 0
      vertex 43.6523 122.477 10
      vertex 43.6523 122.477 0
    endloop
  endfacet
  facet normal -0.727053 0.686581 0
    outer loop
      vertex 43.369 122.177 0
      vertex 43.369 122.177 10
      vertex 43.6523 122.477 10
    endloop
  endfacet
  facet normal -0.50702 0.861934 0
    outer loop
      vertex 43.2959 122.134 0
      vertex 43.369 122.177 10
      vertex 43.369 122.177 0
    endloop
  endfacet
  facet normal -0.50702 0.861934 0
    outer loop
      vertex 43.2959 122.134 0
      vertex 43.2959 122.134 10
      vertex 43.369 122.177 10
    endloop
  endfacet
  facet normal -0.239193 0.970972 0
    outer loop
      vertex 41.8873 121.787 0
      vertex 43.2959 122.134 10
      vertex 43.2959 122.134 0
    endloop
  endfacet
  facet normal -0.239193 0.970972 0
    outer loop
      vertex 41.8873 121.787 0
      vertex 41.8873 121.787 10
      vertex 43.2959 122.134 10
    endloop
  endfacet
  facet normal -0.978392 0.20676 0
    outer loop
      vertex 41.7567 121.169 0
      vertex 41.8873 121.787 10
      vertex 41.8873 121.787 0
    endloop
  endfacet
  facet normal -0.978392 0.20676 0
    outer loop
      vertex 41.7567 121.169 0
      vertex 41.7567 121.169 10
      vertex 41.8873 121.787 10
    endloop
  endfacet
  facet normal -0.639127 0.769101 0
    outer loop
      vertex 41.6135 121.05 0
      vertex 41.7567 121.169 10
      vertex 41.7567 121.169 0
    endloop
  endfacet
  facet normal -0.639127 0.769101 0
    outer loop
      vertex 41.6135 121.05 0
      vertex 41.6135 121.05 10
      vertex 41.7567 121.169 10
    endloop
  endfacet
  facet normal -0.0233581 0.999727 0
    outer loop
      vertex 39.4735 121 0
      vertex 41.6135 121.05 10
      vertex 41.6135 121.05 0
    endloop
  endfacet
  facet normal -0.0233581 0.999727 0
    outer loop
      vertex 39.4735 121 0
      vertex 39.4735 121 10
      vertex 41.6135 121.05 10
    endloop
  endfacet
  facet normal 0.248077 0.96874 0
    outer loop
      vertex 39.3954 121.02 0
      vertex 39.4735 121 10
      vertex 39.4735 121 0
    endloop
  endfacet
  facet normal 0.248077 0.96874 -0
    outer loop
      vertex 39.3954 121.02 0
      vertex 39.3954 121.02 10
      vertex 39.4735 121 10
    endloop
  endfacet
  facet normal 0.497577 0.86742 0
    outer loop
      vertex 38.1751 121.72 0
      vertex 39.3954 121.02 10
      vertex 39.3954 121.02 0
    endloop
  endfacet
  facet normal 0.497577 0.86742 -0
    outer loop
      vertex 38.1751 121.72 0
      vertex 38.1751 121.72 10
      vertex 39.3954 121.02 10
    endloop
  endfacet
  facet normal -0.900874 0.43408 0
    outer loop
      vertex 37.9973 121.351 0
      vertex 38.1751 121.72 10
      vertex 38.1751 121.72 0
    endloop
  endfacet
  facet normal -0.900874 0.43408 0
    outer loop
      vertex 37.9973 121.351 0
      vertex 37.9973 121.351 10
      vertex 38.1751 121.72 10
    endloop
  endfacet
  facet normal -0.978809 -0.204777 0
    outer loop
      vertex 38.0768 120.971 0
      vertex 37.9973 121.351 10
      vertex 37.9973 121.351 0
    endloop
  endfacet
  facet normal -0.978809 -0.204777 0
    outer loop
      vertex 38.0768 120.971 0
      vertex 38.0768 120.971 10
      vertex 37.9973 121.351 10
    endloop
  endfacet
  facet normal -0.823531 0.567271 0
    outer loop
      vertex 37.9535 120.792 0
      vertex 38.0768 120.971 10
      vertex 38.0768 120.971 0
    endloop
  endfacet
  facet normal -0.823531 0.567271 0
    outer loop
      vertex 37.9535 120.792 0
      vertex 37.9535 120.792 10
      vertex 38.0768 120.971 10
    endloop
  endfacet
  facet normal -0.156768 0.987636 0
    outer loop
      vertex 37.3235 120.692 0
      vertex 37.9535 120.792 10
      vertex 37.9535 120.792 0
    endloop
  endfacet
  facet normal -0.156768 0.987636 0
    outer loop
      vertex 37.3235 120.692 0
      vertex 37.3235 120.692 10
      vertex 37.9535 120.792 10
    endloop
  endfacet
  facet normal 0.17332 0.984866 0
    outer loop
      vertex 37.2269 120.709 0
      vertex 37.3235 120.692 10
      vertex 37.3235 120.692 0
    endloop
  endfacet
  facet normal 0.17332 0.984866 -0
    outer loop
      vertex 37.2269 120.709 0
      vertex 37.2269 120.709 10
      vertex 37.3235 120.692 10
    endloop
  endfacet
  facet normal 0.488072 0.872803 0
    outer loop
      vertex 36.8764 120.905 0
      vertex 37.2269 120.709 10
      vertex 37.2269 120.709 0
    endloop
  endfacet
  facet normal 0.488072 0.872803 -0
    outer loop
      vertex 36.8764 120.905 0
      vertex 36.8764 120.905 10
      vertex 37.2269 120.709 10
    endloop
  endfacet
  facet normal -0.549733 0.835341 0
    outer loop
      vertex 36.7442 120.818 0
      vertex 36.8764 120.905 10
      vertex 36.8764 120.905 0
    endloop
  endfacet
  facet normal -0.549733 0.835341 0
    outer loop
      vertex 36.7442 120.818 0
      vertex 36.7442 120.818 10
      vertex 36.8764 120.905 10
    endloop
  endfacet
  facet normal -0.62816 -0.778084 0
    outer loop
      vertex 37.1542 120.487 0
      vertex 36.7442 120.818 10
      vertex 36.7442 120.818 0
    endloop
  endfacet
  facet normal -0.62816 -0.778084 0
    outer loop
      vertex 37.1542 120.487 0
      vertex 37.1542 120.487 10
      vertex 36.7442 120.818 10
    endloop
  endfacet
  facet normal -0.999932 -0.0116371 0
    outer loop
      vertex 37.1569 120.255 0
      vertex 37.1542 120.487 10
      vertex 37.1542 120.487 0
    endloop
  endfacet
  facet normal -0.999932 -0.0116371 0
    outer loop
      vertex 37.1569 120.255 0
      vertex 37.1569 120.255 10
      vertex 37.1542 120.487 10
    endloop
  endfacet
  facet normal -0.64581 0.763498 0
    outer loop
      vertex 36.6911 119.861 0
      vertex 37.1569 120.255 10
      vertex 37.1569 120.255 0
    endloop
  endfacet
  facet normal -0.64581 0.763498 0
    outer loop
      vertex 36.6911 119.861 0
      vertex 36.6911 119.861 10
      vertex 37.1569 120.255 10
    endloop
  endfacet
  facet normal -0.99988 -0.0155026 0
    outer loop
      vertex 36.71 118.642 0
      vertex 36.6911 119.861 10
      vertex 36.6911 119.861 0
    endloop
  endfacet
  facet normal -0.99988 -0.0155026 0
    outer loop
      vertex 36.71 118.642 0
      vertex 36.71 118.642 10
      vertex 36.6911 119.861 10
    endloop
  endfacet
  facet normal -0.870687 0.491838 0
    outer loop
      vertex 36.636 118.511 0
      vertex 36.71 118.642 10
      vertex 36.71 118.642 0
    endloop
  endfacet
  facet normal -0.870687 0.491838 0
    outer loop
      vertex 36.636 118.511 0
      vertex 36.636 118.511 10
      vertex 36.71 118.642 10
    endloop
  endfacet
  facet normal -0.507863 0.861438 0
    outer loop
      vertex 36.234 118.274 0
      vertex 36.636 118.511 10
      vertex 36.636 118.511 0
    endloop
  endfacet
  facet normal -0.507863 0.861438 0
    outer loop
      vertex 36.234 118.274 0
      vertex 36.234 118.274 10
      vertex 36.636 118.511 10
    endloop
  endfacet
  facet normal -0.560435 -0.828198 0
    outer loop
      vertex 36.3271 118.211 0
      vertex 36.234 118.274 10
      vertex 36.234 118.274 0
    endloop
  endfacet
  facet normal -0.560435 -0.828198 0
    outer loop
      vertex 36.3271 118.211 0
      vertex 36.3271 118.211 10
      vertex 36.234 118.274 10
    endloop
  endfacet
  facet normal -0.914188 -0.40529 0
    outer loop
      vertex 36.8192 117.101 0
      vertex 36.3271 118.211 10
      vertex 36.3271 118.211 0
    endloop
  endfacet
  facet normal -0.914188 -0.40529 0
    outer loop
      vertex 36.8192 117.101 0
      vertex 36.8192 117.101 10
      vertex 36.3271 118.211 10
    endloop
  endfacet
  facet normal -0.549932 -0.835209 0
    outer loop
      vertex 37.5725 116.605 0
      vertex 36.8192 117.101 10
      vertex 36.8192 117.101 0
    endloop
  endfacet
  facet normal -0.549932 -0.835209 0
    outer loop
      vertex 37.5725 116.605 0
      vertex 37.5725 116.605 10
      vertex 36.8192 117.101 10
    endloop
  endfacet
  facet normal -0.646522 -0.762896 0
    outer loop
      vertex 37.602 116.58 0
      vertex 37.5725 116.605 10
      vertex 37.5725 116.605 0
    endloop
  endfacet
  facet normal -0.646522 -0.762896 0
    outer loop
      vertex 37.602 116.58 0
      vertex 37.602 116.58 10
      vertex 37.5725 116.605 10
    endloop
  endfacet
  facet normal -0.746863 -0.664978 0
    outer loop
      vertex 38.5627 115.501 0
      vertex 37.602 116.58 10
      vertex 37.602 116.58 0
    endloop
  endfacet
  facet normal -0.746863 -0.664978 0
    outer loop
      vertex 38.5627 115.501 0
      vertex 38.5627 115.501 10
      vertex 37.602 116.58 10
    endloop
  endfacet
  facet normal -0.444331 -0.895863 0
    outer loop
      vertex 39.9559 114.81 0
      vertex 38.5627 115.501 10
      vertex 38.5627 115.501 0
    endloop
  endfacet
  facet normal -0.444331 -0.895863 0
    outer loop
      vertex 39.9559 114.81 0
      vertex 39.9559 114.81 10
      vertex 38.5627 115.501 10
    endloop
  endfacet
  facet normal -0.00938436 -0.999956 0
    outer loop
      vertex 40.9149 114.801 0
      vertex 39.9559 114.81 10
      vertex 39.9559 114.81 0
    endloop
  endfacet
  facet normal -0.00938436 -0.999956 0
    outer loop
      vertex 40.9149 114.801 0
      vertex 40.9149 114.801 10
      vertex 39.9559 114.81 10
    endloop
  endfacet
  facet normal 0.653244 -0.757147 0
    outer loop
      vertex 41.382 115.204 0
      vertex 40.9149 114.801 10
      vertex 40.9149 114.801 0
    endloop
  endfacet
  facet normal 0.653244 -0.757147 0
    outer loop
      vertex 41.382 115.204 0
      vertex 41.382 115.204 10
      vertex 40.9149 114.801 10
    endloop
  endfacet
endsolid OpenSCAD_Model
