solid OpenSCAD_Model
  facet normal 0 0 -1
    outer loop
      vertex 167.503 101.769 10
      vertex 166.721 101.769 10
      vertex 166.721 102.264 10
    endloop
  endfacet
  facet normal 0 0 -1
    outer loop
      vertex 168.116 101.087 10
      vertex 167.503 101.326 10
      vertex 167.503 101.769 10
    endloop
  endfacet
  facet normal 0 -0 -1
    outer loop
      vertex 169.204 101.101 10
      vertex 171.028 100.576 10
      vertex 168.459 100.576 10
    endloop
  endfacet
  facet normal 0 0 -1
    outer loop
      vertex 169.204 101.101 10
      vertex 168.459 100.576 10
      vertex 168.459 101.051 10
    endloop
  endfacet
  facet normal -0 0 -1
    outer loop
      vertex 168.116 101.087 10
      vertex 167.823 100.854 10
      vertex 167.503 101.326 10
    endloop
  endfacet
  facet normal 0 0 -1
    outer loop
      vertex 169.204 101.101 10
      vertex 171.028 101.101 10
      vertex 171.028 100.576 10
    endloop
  endfacet
  facet normal 0 0 -1
    outer loop
      vertex 167.036 100.567 10
      vertex 167.123 101.131 10
      vertex 167.454 100.678 10
    endloop
  endfacet
  facet normal 0 0 -1
    outer loop
      vertex 166.874 101.074 10
      vertex 166.599 100.531 10
      vertex 166.617 101.055 10
    endloop
  endfacet
  facet normal 0 0 -1
    outer loop
      vertex 167.341 101.218 10
      vertex 167.823 100.854 10
      vertex 167.454 100.678 10
    endloop
  endfacet
  facet normal 0 0 -1
    outer loop
      vertex 168.116 101.087 10
      vertex 167.503 101.769 10
      vertex 168.116 102.264 10
    endloop
  endfacet
  facet normal 0 0 -1
    outer loop
      vertex 167.503 101.769 10
      vertex 166.721 102.264 10
      vertex 168.116 102.264 10
    endloop
  endfacet
  facet normal 0 -0 -1
    outer loop
      vertex 167.503 101.326 10
      vertex 167.823 100.854 10
      vertex 167.341 101.218 10
    endloop
  endfacet
  facet normal 0 0 -1
    outer loop
      vertex 167.123 101.131 10
      vertex 167.341 101.218 10
      vertex 167.454 100.678 10
    endloop
  endfacet
  facet normal 0 0 -1
    outer loop
      vertex 166.874 101.074 10
      vertex 167.123 101.131 10
      vertex 167.036 100.567 10
    endloop
  endfacet
  facet normal 0 0 -1
    outer loop
      vertex 166.599 100.531 10
      vertex 166.874 101.074 10
      vertex 167.036 100.567 10
    endloop
  endfacet
  facet normal -0 0 -1
    outer loop
      vertex 166.617 101.055 10
      vertex 166.599 100.531 10
      vertex 166.209 101.129 10
    endloop
  endfacet
  facet normal 0 0 -1
    outer loop
      vertex 165.397 100.963 10
      vertex 165.715 101.71 10
      vertex 165.905 101.352 10
    endloop
  endfacet
  facet normal 0 0 -1
    outer loop
      vertex 165.397 100.963 10
      vertex 165.082 101.487 10
      vertex 165.715 101.71 10
    endloop
  endfacet
  facet normal 0 0 -1
    outer loop
      vertex 165.715 101.71 10
      vertex 164.977 102.191 10
      vertex 165.651 102.191 10
    endloop
  endfacet
  facet normal 0 0 -1
    outer loop
      vertex 164.977 102.191 10
      vertex 165.082 102.889 10
      vertex 165.713 102.663 10
    endloop
  endfacet
  facet normal 0 0 -1
    outer loop
      vertex 165.713 102.663 10
      vertex 165.082 102.889 10
      vertex 165.399 103.403 10
    endloop
  endfacet
  facet normal 0 0 -1
    outer loop
      vertex 165.897 103.011 10
      vertex 165.399 103.403 10
      vertex 165.914 103.719 10
    endloop
  endfacet
  facet normal 0 0 -1
    outer loop
      vertex 166.199 103.226 10
      vertex 165.914 103.719 10
      vertex 166.615 103.825 10
    endloop
  endfacet
  facet normal 0 0 -1
    outer loop
      vertex 166.615 103.297 10
      vertex 166.615 103.825 10
      vertex 166.884 103.266 10
    endloop
  endfacet
  facet normal 0 0 -1
    outer loop
      vertex 166.884 103.266 10
      vertex 166.615 103.825 10
      vertex 167.536 103.616 10
    endloop
  endfacet
  facet normal 0 0 -1
    outer loop
      vertex 167.117 103.173 10
      vertex 167.536 103.616 10
      vertex 167.302 103.018 10
    endloop
  endfacet
  facet normal 0 0 -1
    outer loop
      vertex 167.43 102.805 10
      vertex 167.302 103.018 10
      vertex 168.048 102.991 10
    endloop
  endfacet
  facet normal 0 0 -1
    outer loop
      vertex 167.302 103.018 10
      vertex 167.536 103.616 10
      vertex 168.048 102.991 10
    endloop
  endfacet
  facet normal 0 0 -1
    outer loop
      vertex 167.117 103.173 10
      vertex 166.884 103.266 10
      vertex 167.536 103.616 10
    endloop
  endfacet
  facet normal 0 0 -1
    outer loop
      vertex 170.935 103.311 10
      vertex 169.204 101.101 10
      vertex 170.19 103.252 10
    endloop
  endfacet
  facet normal -0 0 -1
    outer loop
      vertex 166.615 103.297 10
      vertex 166.199 103.226 10
      vertex 166.615 103.825 10
    endloop
  endfacet
  facet normal -0 0 -1
    outer loop
      vertex 166.199 103.226 10
      vertex 165.897 103.011 10
      vertex 165.914 103.719 10
    endloop
  endfacet
  facet normal -0 0 -1
    outer loop
      vertex 165.897 103.011 10
      vertex 165.713 102.663 10
      vertex 165.399 103.403 10
    endloop
  endfacet
  facet normal 0 0 -1
    outer loop
      vertex 165.651 102.191 10
      vertex 164.977 102.191 10
      vertex 165.713 102.663 10
    endloop
  endfacet
  facet normal -0 0 -1
    outer loop
      vertex 165.715 101.71 10
      vertex 165.082 101.487 10
      vertex 164.977 102.191 10
    endloop
  endfacet
  facet normal 0 0 -1
    outer loop
      vertex 165.907 100.639 10
      vertex 165.397 100.963 10
      vertex 165.905 101.352 10
    endloop
  endfacet
  facet normal 0 0 -1
    outer loop
      vertex 162.881 102.046 10
      vertex 162.486 102.325 10
      vertex 163.342 102.423 10
    endloop
  endfacet
  facet normal -0 0 -1
    outer loop
      vertex 166.209 101.129 10
      vertex 165.907 100.639 10
      vertex 165.905 101.352 10
    endloop
  endfacet
  facet normal 0 -0 -1
    outer loop
      vertex 166.209 101.129 10
      vertex 166.599 100.531 10
      vertex 165.907 100.639 10
    endloop
  endfacet
  facet normal -0 0 -1
    outer loop
      vertex 162.486 101.744 10
      vertex 161.816 100.576 10
      vertex 162.486 102.325 10
    endloop
  endfacet
  facet normal 0 0 -1
    outer loop
      vertex 164.031 100.576 10
      vertex 162.881 102.046 10
      vertex 163.342 102.423 10
    endloop
  endfacet
  facet normal 0 -0 -1
    outer loop
      vertex 163.928 103.777 10
      vertex 164.71 103.777 10
      vertex 163.342 102.423 10
    endloop
  endfacet
  facet normal 0 0 -1
    outer loop
      vertex 162.486 102.325 10
      vertex 163.928 103.777 10
      vertex 163.342 102.423 10
    endloop
  endfacet
  facet normal 0 0 -1
    outer loop
      vertex 164.031 100.576 10
      vertex 163.342 102.423 10
      vertex 164.821 100.576 10
    endloop
  endfacet
  facet normal -0 0 -1
    outer loop
      vertex 162.881 102.046 10
      vertex 162.486 101.744 10
      vertex 162.486 102.325 10
    endloop
  endfacet
  facet normal -0 0 -1
    outer loop
      vertex 162.486 102.325 10
      vertex 161.816 100.576 10
      vertex 161.816 103.777 10
    endloop
  endfacet
  facet normal -0 -0 -1
    outer loop
      vertex 162.486 103.777 10
      vertex 162.486 102.325 10
      vertex 161.816 103.777 10
    endloop
  endfacet
  facet normal 0 -0 -1
    outer loop
      vertex 162.486 101.744 10
      vertex 162.486 100.576 10
      vertex 161.816 100.576 10
    endloop
  endfacet
  facet normal 0 0 -1
    outer loop
      vertex 168.631 103.777 10
      vertex 170.19 103.252 10
      vertex 168.631 103.252 10
    endloop
  endfacet
  facet normal 0 0 -1
    outer loop
      vertex 168.631 103.777 10
      vertex 170.935 103.777 10
      vertex 170.19 103.252 10
    endloop
  endfacet
  facet normal -0 0 -1
    outer loop
      vertex 170.935 103.311 10
      vertex 170.19 103.252 10
      vertex 170.935 103.777 10
    endloop
  endfacet
  facet normal -0 0 -1
    outer loop
      vertex 169.204 101.101 10
      vertex 168.459 101.051 10
      vertex 170.19 103.252 10
    endloop
  endfacet
  facet normal 0 0 1
    outer loop
      vertex 166.721 102.264 10.8
      vertex 166.721 101.769 10.8
      vertex 167.503 101.769 10.8
    endloop
  endfacet
  facet normal 0 0 1
    outer loop
      vertex 167.503 101.769 10.8
      vertex 167.503 101.326 10.8
      vertex 168.116 101.087 10.8
    endloop
  endfacet
  facet normal 0 0 1
    outer loop
      vertex 168.459 100.576 10.8
      vertex 171.028 100.576 10.8
      vertex 169.204 101.101 10.8
    endloop
  endfacet
  facet normal -0 0 1
    outer loop
      vertex 168.459 101.051 10.8
      vertex 168.459 100.576 10.8
      vertex 169.204 101.101 10.8
    endloop
  endfacet
  facet normal 0 0 1
    outer loop
      vertex 167.503 101.326 10.8
      vertex 167.823 100.854 10.8
      vertex 168.116 101.087 10.8
    endloop
  endfacet
  facet normal 0 -0 1
    outer loop
      vertex 171.028 100.576 10.8
      vertex 171.028 101.101 10.8
      vertex 169.204 101.101 10.8
    endloop
  endfacet
  facet normal 0 0 1
    outer loop
      vertex 167.454 100.678 10.8
      vertex 167.123 101.131 10.8
      vertex 167.036 100.567 10.8
    endloop
  endfacet
  facet normal -0 0 1
    outer loop
      vertex 166.617 101.055 10.8
      vertex 166.599 100.531 10.8
      vertex 166.874 101.074 10.8
    endloop
  endfacet
  facet normal 0 -0 1
    outer loop
      vertex 167.454 100.678 10.8
      vertex 167.823 100.854 10.8
      vertex 167.341 101.218 10.8
    endloop
  endfacet
  facet normal 0 0 1
    outer loop
      vertex 168.116 102.264 10.8
      vertex 167.503 101.769 10.8
      vertex 168.116 101.087 10.8
    endloop
  endfacet
  facet normal 0 0 1
    outer loop
      vertex 168.116 102.264 10.8
      vertex 166.721 102.264 10.8
      vertex 167.503 101.769 10.8
    endloop
  endfacet
  facet normal -0 0 1
    outer loop
      vertex 167.341 101.218 10.8
      vertex 167.823 100.854 10.8
      vertex 167.503 101.326 10.8
    endloop
  endfacet
  facet normal 0 0 1
    outer loop
      vertex 167.454 100.678 10.8
      vertex 167.341 101.218 10.8
      vertex 167.123 101.131 10.8
    endloop
  endfacet
  facet normal 0 -0 1
    outer loop
      vertex 167.036 100.567 10.8
      vertex 167.123 101.131 10.8
      vertex 166.874 101.074 10.8
    endloop
  endfacet
  facet normal 0 0 1
    outer loop
      vertex 167.036 100.567 10.8
      vertex 166.874 101.074 10.8
      vertex 166.599 100.531 10.8
    endloop
  endfacet
  facet normal 0 0 1
    outer loop
      vertex 166.209 101.129 10.8
      vertex 166.599 100.531 10.8
      vertex 166.617 101.055 10.8
    endloop
  endfacet
  facet normal 0 0 1
    outer loop
      vertex 165.905 101.352 10.8
      vertex 165.715 101.71 10.8
      vertex 165.397 100.963 10.8
    endloop
  endfacet
  facet normal 0 0 1
    outer loop
      vertex 165.715 101.71 10.8
      vertex 165.082 101.487 10.8
      vertex 165.397 100.963 10.8
    endloop
  endfacet
  facet normal 0 0 1
    outer loop
      vertex 165.651 102.191 10.8
      vertex 164.977 102.191 10.8
      vertex 165.715 101.71 10.8
    endloop
  endfacet
  facet normal 0 0 1
    outer loop
      vertex 165.713 102.663 10.8
      vertex 165.082 102.889 10.8
      vertex 164.977 102.191 10.8
    endloop
  endfacet
  facet normal 0 0 1
    outer loop
      vertex 165.399 103.403 10.8
      vertex 165.082 102.889 10.8
      vertex 165.713 102.663 10.8
    endloop
  endfacet
  facet normal 0 0 1
    outer loop
      vertex 165.914 103.719 10.8
      vertex 165.399 103.403 10.8
      vertex 165.897 103.011 10.8
    endloop
  endfacet
  facet normal 0 0 1
    outer loop
      vertex 166.615 103.825 10.8
      vertex 165.914 103.719 10.8
      vertex 166.199 103.226 10.8
    endloop
  endfacet
  facet normal 0 0 1
    outer loop
      vertex 166.884 103.266 10.8
      vertex 166.615 103.825 10.8
      vertex 166.615 103.297 10.8
    endloop
  endfacet
  facet normal 0 0 1
    outer loop
      vertex 167.536 103.616 10.8
      vertex 166.615 103.825 10.8
      vertex 166.884 103.266 10.8
    endloop
  endfacet
  facet normal 0 -0 1
    outer loop
      vertex 167.302 103.018 10.8
      vertex 167.536 103.616 10.8
      vertex 167.117 103.173 10.8
    endloop
  endfacet
  facet normal 0 0 1
    outer loop
      vertex 168.048 102.991 10.8
      vertex 167.302 103.018 10.8
      vertex 167.43 102.805 10.8
    endloop
  endfacet
  facet normal 0 0 1
    outer loop
      vertex 168.048 102.991 10.8
      vertex 167.536 103.616 10.8
      vertex 167.302 103.018 10.8
    endloop
  endfacet
  facet normal 0 0 1
    outer loop
      vertex 167.536 103.616 10.8
      vertex 166.884 103.266 10.8
      vertex 167.117 103.173 10.8
    endloop
  endfacet
  facet normal -0 0 1
    outer loop
      vertex 170.19 103.252 10.8
      vertex 169.204 101.101 10.8
      vertex 170.935 103.311 10.8
    endloop
  endfacet
  facet normal 0 0 1
    outer loop
      vertex 166.615 103.825 10.8
      vertex 166.199 103.226 10.8
      vertex 166.615 103.297 10.8
    endloop
  endfacet
  facet normal 0 0 1
    outer loop
      vertex 165.914 103.719 10.8
      vertex 165.897 103.011 10.8
      vertex 166.199 103.226 10.8
    endloop
  endfacet
  facet normal 0 0 1
    outer loop
      vertex 165.399 103.403 10.8
      vertex 165.713 102.663 10.8
      vertex 165.897 103.011 10.8
    endloop
  endfacet
  facet normal 0 0 1
    outer loop
      vertex 165.713 102.663 10.8
      vertex 164.977 102.191 10.8
      vertex 165.651 102.191 10.8
    endloop
  endfacet
  facet normal 0 0 1
    outer loop
      vertex 164.977 102.191 10.8
      vertex 165.082 101.487 10.8
      vertex 165.715 101.71 10.8
    endloop
  endfacet
  facet normal 0 0 1
    outer loop
      vertex 165.905 101.352 10.8
      vertex 165.397 100.963 10.8
      vertex 165.907 100.639 10.8
    endloop
  endfacet
  facet normal 0 0 1
    outer loop
      vertex 163.342 102.423 10.8
      vertex 162.486 102.325 10.8
      vertex 162.881 102.046 10.8
    endloop
  endfacet
  facet normal 0 0 1
    outer loop
      vertex 165.905 101.352 10.8
      vertex 165.907 100.639 10.8
      vertex 166.209 101.129 10.8
    endloop
  endfacet
  facet normal -0 0 1
    outer loop
      vertex 165.907 100.639 10.8
      vertex 166.599 100.531 10.8
      vertex 166.209 101.129 10.8
    endloop
  endfacet
  facet normal 0 0 1
    outer loop
      vertex 162.486 102.325 10.8
      vertex 161.816 100.576 10.8
      vertex 162.486 101.744 10.8
    endloop
  endfacet
  facet normal 0 0 1
    outer loop
      vertex 163.342 102.423 10.8
      vertex 162.881 102.046 10.8
      vertex 164.031 100.576 10.8
    endloop
  endfacet
  facet normal 0 0 1
    outer loop
      vertex 163.342 102.423 10.8
      vertex 164.71 103.777 10.8
      vertex 163.928 103.777 10.8
    endloop
  endfacet
  facet normal 0 -0 1
    outer loop
      vertex 163.342 102.423 10.8
      vertex 163.928 103.777 10.8
      vertex 162.486 102.325 10.8
    endloop
  endfacet
  facet normal 0 0 1
    outer loop
      vertex 164.821 100.576 10.8
      vertex 163.342 102.423 10.8
      vertex 164.031 100.576 10.8
    endloop
  endfacet
  facet normal 0 0 1
    outer loop
      vertex 162.486 102.325 10.8
      vertex 162.486 101.744 10.8
      vertex 162.881 102.046 10.8
    endloop
  endfacet
  facet normal 0 0 1
    outer loop
      vertex 161.816 103.777 10.8
      vertex 161.816 100.576 10.8
      vertex 162.486 102.325 10.8
    endloop
  endfacet
  facet normal -0 0 1
    outer loop
      vertex 161.816 103.777 10.8
      vertex 162.486 102.325 10.8
      vertex 162.486 103.777 10.8
    endloop
  endfacet
  facet normal 0 0 1
    outer loop
      vertex 161.816 100.576 10.8
      vertex 162.486 100.576 10.8
      vertex 162.486 101.744 10.8
    endloop
  endfacet
  facet normal 0 0 1
    outer loop
      vertex 168.631 103.252 10.8
      vertex 170.19 103.252 10.8
      vertex 168.631 103.777 10.8
    endloop
  endfacet
  facet normal 0 -0 1
    outer loop
      vertex 170.19 103.252 10.8
      vertex 170.935 103.777 10.8
      vertex 168.631 103.777 10.8
    endloop
  endfacet
  facet normal 0 0 1
    outer loop
      vertex 170.935 103.777 10.8
      vertex 170.19 103.252 10.8
      vertex 170.935 103.311 10.8
    endloop
  endfacet
  facet normal 0 0 1
    outer loop
      vertex 170.19 103.252 10.8
      vertex 168.459 101.051 10.8
      vertex 169.204 101.101 10.8
    endloop
  endfacet
  facet normal 0.256655 -0.966503 0
    outer loop
      vertex 167.454 100.678 10
      vertex 167.036 100.567 10.8
      vertex 167.036 100.567 10
    endloop
  endfacet
  facet normal 0.256655 -0.966503 0
    outer loop
      vertex 167.454 100.678 10
      vertex 167.454 100.678 10.8
      vertex 167.036 100.567 10.8
    endloop
  endfacet
  facet normal 0.430503 -0.902589 0
    outer loop
      vertex 167.823 100.854 10
      vertex 167.454 100.678 10.8
      vertex 167.454 100.678 10
    endloop
  endfacet
  facet normal 0.430503 -0.902589 0
    outer loop
      vertex 167.823 100.854 10
      vertex 167.823 100.854 10.8
      vertex 167.454 100.678 10.8
    endloop
  endfacet
  facet normal 0.622412 -0.78269 0
    outer loop
      vertex 168.116 101.087 10
      vertex 167.823 100.854 10.8
      vertex 167.823 100.854 10
    endloop
  endfacet
  facet normal 0.622412 -0.78269 0
    outer loop
      vertex 168.116 101.087 10
      vertex 168.116 101.087 10.8
      vertex 167.823 100.854 10.8
    endloop
  endfacet
  facet normal 1 0 0
    outer loop
      vertex 168.116 102.264 10
      vertex 168.116 101.087 10.8
      vertex 168.116 101.087 10
    endloop
  endfacet
  facet normal 1 0 -0
    outer loop
      vertex 168.116 102.264 10
      vertex 168.116 102.264 10.8
      vertex 168.116 101.087 10.8
    endloop
  endfacet
  facet normal 0 1 0
    outer loop
      vertex 166.721 102.264 10
      vertex 168.116 102.264 10.8
      vertex 168.116 102.264 10
    endloop
  endfacet
  facet normal 0 1 0
    outer loop
      vertex 166.721 102.264 10
      vertex 166.721 102.264 10.8
      vertex 168.116 102.264 10.8
    endloop
  endfacet
  facet normal -1 0 0
    outer loop
      vertex 166.721 101.769 10
      vertex 166.721 102.264 10.8
      vertex 166.721 102.264 10
    endloop
  endfacet
  facet normal -1 0 0
    outer loop
      vertex 166.721 101.769 10
      vertex 166.721 101.769 10.8
      vertex 166.721 102.264 10.8
    endloop
  endfacet
  facet normal 0 -1 0
    outer loop
      vertex 167.503 101.769 10
      vertex 166.721 101.769 10.8
      vertex 166.721 101.769 10
    endloop
  endfacet
  facet normal 0 -1 0
    outer loop
      vertex 167.503 101.769 10
      vertex 167.503 101.769 10.8
      vertex 166.721 101.769 10.8
    endloop
  endfacet
  facet normal -1 0 0
    outer loop
      vertex 167.503 101.326 10
      vertex 167.503 101.769 10.8
      vertex 167.503 101.769 10
    endloop
  endfacet
  facet normal -1 0 0
    outer loop
      vertex 167.503 101.326 10
      vertex 167.503 101.326 10.8
      vertex 167.503 101.769 10.8
    endloop
  endfacet
  facet normal -0.5547 0.83205 0
    outer loop
      vertex 167.341 101.218 10
      vertex 167.503 101.326 10.8
      vertex 167.503 101.326 10
    endloop
  endfacet
  facet normal -0.5547 0.83205 0
    outer loop
      vertex 167.341 101.218 10
      vertex 167.341 101.218 10.8
      vertex 167.503 101.326 10.8
    endloop
  endfacet
  facet normal -0.370656 0.92877 0
    outer loop
      vertex 167.123 101.131 10
      vertex 167.341 101.218 10.8
      vertex 167.341 101.218 10
    endloop
  endfacet
  facet normal -0.370656 0.92877 0
    outer loop
      vertex 167.123 101.131 10
      vertex 167.123 101.131 10.8
      vertex 167.341 101.218 10.8
    endloop
  endfacet
  facet normal -0.223144 0.974786 0
    outer loop
      vertex 166.874 101.074 10
      vertex 167.123 101.131 10.8
      vertex 167.123 101.131 10
    endloop
  endfacet
  facet normal -0.223144 0.974786 0
    outer loop
      vertex 166.874 101.074 10
      vertex 166.874 101.074 10.8
      vertex 167.123 101.131 10.8
    endloop
  endfacet
  facet normal -0.0737287 0.997278 0
    outer loop
      vertex 166.617 101.055 10
      vertex 166.874 101.074 10.8
      vertex 166.874 101.074 10
    endloop
  endfacet
  facet normal -0.0737287 0.997278 0
    outer loop
      vertex 166.617 101.055 10
      vertex 166.617 101.055 10.8
      vertex 166.874 101.074 10.8
    endloop
  endfacet
  facet normal 0.178461 0.983947 0
    outer loop
      vertex 166.209 101.129 10
      vertex 166.617 101.055 10.8
      vertex 166.617 101.055 10
    endloop
  endfacet
  facet normal 0.178461 0.983947 -0
    outer loop
      vertex 166.209 101.129 10
      vertex 166.209 101.129 10.8
      vertex 166.617 101.055 10.8
    endloop
  endfacet
  facet normal 0.591479 0.806321 0
    outer loop
      vertex 165.905 101.352 10
      vertex 166.209 101.129 10.8
      vertex 166.209 101.129 10
    endloop
  endfacet
  facet normal 0.591479 0.806321 -0
    outer loop
      vertex 165.905 101.352 10
      vertex 165.905 101.352 10.8
      vertex 166.209 101.129 10.8
    endloop
  endfacet
  facet normal 0.883307 0.468794 0
    outer loop
      vertex 165.715 101.71 10
      vertex 165.905 101.352 10.8
      vertex 165.905 101.352 10
    endloop
  endfacet
  facet normal 0.883307 0.468794 -0
    outer loop
      vertex 165.715 101.71 10
      vertex 165.715 101.71 10.8
      vertex 165.905 101.352 10.8
    endloop
  endfacet
  facet normal 0.991264 0.131894 0
    outer loop
      vertex 165.651 102.191 10
      vertex 165.715 101.71 10.8
      vertex 165.715 101.71 10
    endloop
  endfacet
  facet normal 0.991264 0.131894 -0
    outer loop
      vertex 165.651 102.191 10
      vertex 165.651 102.191 10.8
      vertex 165.715 101.71 10.8
    endloop
  endfacet
  facet normal 0.991483 -0.130237 0
    outer loop
      vertex 165.713 102.663 10
      vertex 165.651 102.191 10.8
      vertex 165.651 102.191 10
    endloop
  endfacet
  facet normal 0.991483 -0.130237 0
    outer loop
      vertex 165.713 102.663 10
      vertex 165.713 102.663 10.8
      vertex 165.651 102.191 10.8
    endloop
  endfacet
  facet normal 0.884035 -0.467421 0
    outer loop
      vertex 165.897 103.011 10
      vertex 165.713 102.663 10.8
      vertex 165.713 102.663 10
    endloop
  endfacet
  facet normal 0.884035 -0.467421 0
    outer loop
      vertex 165.897 103.011 10
      vertex 165.897 103.011 10.8
      vertex 165.713 102.663 10.8
    endloop
  endfacet
  facet normal 0.579962 -0.814644 0
    outer loop
      vertex 166.199 103.226 10
      vertex 165.897 103.011 10.8
      vertex 165.897 103.011 10
    endloop
  endfacet
  facet normal 0.579962 -0.814644 0
    outer loop
      vertex 166.199 103.226 10
      vertex 166.199 103.226 10.8
      vertex 165.897 103.011 10.8
    endloop
  endfacet
  facet normal 0.16824 -0.985746 0
    outer loop
      vertex 166.615 103.297 10
      vertex 166.199 103.226 10.8
      vertex 166.199 103.226 10
    endloop
  endfacet
  facet normal 0.16824 -0.985746 0
    outer loop
      vertex 166.615 103.297 10
      vertex 166.615 103.297 10.8
      vertex 166.199 103.226 10.8
    endloop
  endfacet
  facet normal -0.114484 -0.993425 0
    outer loop
      vertex 166.884 103.266 10
      vertex 166.615 103.297 10.8
      vertex 166.615 103.297 10
    endloop
  endfacet
  facet normal -0.114484 -0.993425 0
    outer loop
      vertex 166.884 103.266 10
      vertex 166.884 103.266 10.8
      vertex 166.615 103.297 10.8
    endloop
  endfacet
  facet normal -0.370703 -0.928751 0
    outer loop
      vertex 167.117 103.173 10
      vertex 166.884 103.266 10.8
      vertex 166.884 103.266 10
    endloop
  endfacet
  facet normal -0.370703 -0.928751 0
    outer loop
      vertex 167.117 103.173 10
      vertex 167.117 103.173 10.8
      vertex 166.884 103.266 10.8
    endloop
  endfacet
  facet normal -0.64222 -0.76652 0
    outer loop
      vertex 167.302 103.018 10
      vertex 167.117 103.173 10.8
      vertex 167.117 103.173 10
    endloop
  endfacet
  facet normal -0.64222 -0.76652 0
    outer loop
      vertex 167.302 103.018 10
      vertex 167.302 103.018 10.8
      vertex 167.117 103.173 10.8
    endloop
  endfacet
  facet normal -0.857138 -0.515087 0
    outer loop
      vertex 167.43 102.805 10
      vertex 167.302 103.018 10.8
      vertex 167.302 103.018 10
    endloop
  endfacet
  facet normal -0.857138 -0.515087 0
    outer loop
      vertex 167.43 102.805 10
      vertex 167.43 102.805 10.8
      vertex 167.302 103.018 10.8
    endloop
  endfacet
  facet normal 0.288201 -0.95757 0
    outer loop
      vertex 168.048 102.991 10
      vertex 167.43 102.805 10.8
      vertex 167.43 102.805 10
    endloop
  endfacet
  facet normal 0.288201 -0.95757 0
    outer loop
      vertex 168.048 102.991 10
      vertex 168.048 102.991 10.8
      vertex 167.43 102.805 10.8
    endloop
  endfacet
  facet normal 0.773571 0.633709 0
    outer loop
      vertex 167.536 103.616 10
      vertex 168.048 102.991 10.8
      vertex 168.048 102.991 10
    endloop
  endfacet
  facet normal 0.773571 0.633709 -0
    outer loop
      vertex 167.536 103.616 10
      vertex 167.536 103.616 10.8
      vertex 168.048 102.991 10.8
    endloop
  endfacet
  facet normal 0.221301 0.975206 0
    outer loop
      vertex 166.615 103.825 10
      vertex 167.536 103.616 10.8
      vertex 167.536 103.616 10
    endloop
  endfacet
  facet normal 0.221301 0.975206 -0
    outer loop
      vertex 166.615 103.825 10
      vertex 166.615 103.825 10.8
      vertex 167.536 103.616 10.8
    endloop
  endfacet
  facet normal -0.149513 0.98876 0
    outer loop
      vertex 165.914 103.719 10
      vertex 166.615 103.825 10.8
      vertex 166.615 103.825 10
    endloop
  endfacet
  facet normal -0.149513 0.98876 0
    outer loop
      vertex 165.914 103.719 10
      vertex 165.914 103.719 10.8
      vertex 166.615 103.825 10.8
    endloop
  endfacet
  facet normal -0.522989 0.852339 0
    outer loop
      vertex 165.399 103.403 10
      vertex 165.914 103.719 10.8
      vertex 165.914 103.719 10
    endloop
  endfacet
  facet normal -0.522989 0.852339 0
    outer loop
      vertex 165.399 103.403 10
      vertex 165.399 103.403 10.8
      vertex 165.914 103.719 10.8
    endloop
  endfacet
  facet normal -0.851146 0.524929 0
    outer loop
      vertex 165.082 102.889 10
      vertex 165.399 103.403 10.8
      vertex 165.399 103.403 10
    endloop
  endfacet
  facet normal -0.851146 0.524929 0
    outer loop
      vertex 165.082 102.889 10
      vertex 165.082 102.889 10.8
      vertex 165.399 103.403 10.8
    endloop
  endfacet
  facet normal -0.988874 0.148756 0
    outer loop
      vertex 164.977 102.191 10
      vertex 165.082 102.889 10.8
      vertex 165.082 102.889 10
    endloop
  endfacet
  facet normal -0.988874 0.148756 0
    outer loop
      vertex 164.977 102.191 10
      vertex 164.977 102.191 10.8
      vertex 165.082 102.889 10.8
    endloop
  endfacet
  facet normal -0.98906 -0.147516 0
    outer loop
      vertex 165.082 101.487 10
      vertex 164.977 102.191 10.8
      vertex 164.977 102.191 10
    endloop
  endfacet
  facet normal -0.98906 -0.147516 0
    outer loop
      vertex 165.082 101.487 10
      vertex 165.082 101.487 10.8
      vertex 164.977 102.191 10.8
    endloop
  endfacet
  facet normal -0.85706 -0.515217 0
    outer loop
      vertex 165.397 100.963 10
      vertex 165.082 101.487 10.8
      vertex 165.082 101.487 10
    endloop
  endfacet
  facet normal -0.85706 -0.515217 0
    outer loop
      vertex 165.397 100.963 10
      vertex 165.397 100.963 10.8
      vertex 165.082 101.487 10.8
    endloop
  endfacet
  facet normal -0.536233 -0.84407 0
    outer loop
      vertex 165.907 100.639 10
      vertex 165.397 100.963 10.8
      vertex 165.397 100.963 10
    endloop
  endfacet
  facet normal -0.536233 -0.84407 0
    outer loop
      vertex 165.907 100.639 10
      vertex 165.907 100.639 10.8
      vertex 165.397 100.963 10.8
    endloop
  endfacet
  facet normal -0.154203 -0.988039 0
    outer loop
      vertex 166.599 100.531 10
      vertex 165.907 100.639 10.8
      vertex 165.907 100.639 10
    endloop
  endfacet
  facet normal -0.154203 -0.988039 0
    outer loop
      vertex 166.599 100.531 10
      vertex 166.599 100.531 10.8
      vertex 165.907 100.639 10.8
    endloop
  endfacet
  facet normal 0.0821017 -0.996624 0
    outer loop
      vertex 167.036 100.567 10
      vertex 166.599 100.531 10.8
      vertex 166.599 100.531 10
    endloop
  endfacet
  facet normal 0.0821017 -0.996624 0
    outer loop
      vertex 167.036 100.567 10
      vertex 167.036 100.567 10.8
      vertex 166.599 100.531 10.8
    endloop
  endfacet
  facet normal 0.607375 -0.794415 0
    outer loop
      vertex 162.881 102.046 10
      vertex 162.486 101.744 10.8
      vertex 162.486 101.744 10
    endloop
  endfacet
  facet normal 0.607375 -0.794415 0
    outer loop
      vertex 162.881 102.046 10
      vertex 162.881 102.046 10.8
      vertex 162.486 101.744 10.8
    endloop
  endfacet
  facet normal -0.787618 -0.616164 0
    outer loop
      vertex 164.031 100.576 10
      vertex 162.881 102.046 10.8
      vertex 162.881 102.046 10
    endloop
  endfacet
  facet normal -0.787618 -0.616164 0
    outer loop
      vertex 164.031 100.576 10
      vertex 164.031 100.576 10.8
      vertex 162.881 102.046 10.8
    endloop
  endfacet
  facet normal 0 -1 0
    outer loop
      vertex 164.821 100.576 10
      vertex 164.031 100.576 10.8
      vertex 164.031 100.576 10
    endloop
  endfacet
  facet normal 0 -1 0
    outer loop
      vertex 164.821 100.576 10
      vertex 164.821 100.576 10.8
      vertex 164.031 100.576 10.8
    endloop
  endfacet
  facet normal 0.78058 0.625056 0
    outer loop
      vertex 163.342 102.423 10
      vertex 164.821 100.576 10.8
      vertex 164.821 100.576 10
    endloop
  endfacet
  facet normal 0.78058 0.625056 -0
    outer loop
      vertex 163.342 102.423 10
      vertex 163.342 102.423 10.8
      vertex 164.821 100.576 10.8
    endloop
  endfacet
  facet normal 0.703461 -0.710734 0
    outer loop
      vertex 164.71 103.777 10
      vertex 163.342 102.423 10.8
      vertex 163.342 102.423 10
    endloop
  endfacet
  facet normal 0.703461 -0.710734 0
    outer loop
      vertex 164.71 103.777 10
      vertex 164.71 103.777 10.8
      vertex 163.342 102.423 10.8
    endloop
  endfacet
  facet normal 0 1 0
    outer loop
      vertex 163.928 103.777 10
      vertex 164.71 103.777 10.8
      vertex 164.71 103.777 10
    endloop
  endfacet
  facet normal 0 1 0
    outer loop
      vertex 163.928 103.777 10
      vertex 163.928 103.777 10.8
      vertex 164.71 103.777 10.8
    endloop
  endfacet
  facet normal -0.709546 0.704659 0
    outer loop
      vertex 162.486 102.325 10
      vertex 163.928 103.777 10.8
      vertex 163.928 103.777 10
    endloop
  endfacet
  facet normal -0.709546 0.704659 0
    outer loop
      vertex 162.486 102.325 10
      vertex 162.486 102.325 10.8
      vertex 163.928 103.777 10.8
    endloop
  endfacet
  facet normal 1 0 0
    outer loop
      vertex 162.486 103.777 10
      vertex 162.486 102.325 10.8
      vertex 162.486 102.325 10
    endloop
  endfacet
  facet normal 1 0 -0
    outer loop
      vertex 162.486 103.777 10
      vertex 162.486 103.777 10.8
      vertex 162.486 102.325 10.8
    endloop
  endfacet
  facet normal 0 1 0
    outer loop
      vertex 161.816 103.777 10
      vertex 162.486 103.777 10.8
      vertex 162.486 103.777 10
    endloop
  endfacet
  facet normal 0 1 0
    outer loop
      vertex 161.816 103.777 10
      vertex 161.816 103.777 10.8
      vertex 162.486 103.777 10.8
    endloop
  endfacet
  facet normal -1 0 0
    outer loop
      vertex 161.816 100.576 10
      vertex 161.816 103.777 10.8
      vertex 161.816 103.777 10
    endloop
  endfacet
  facet normal -1 0 0
    outer loop
      vertex 161.816 100.576 10
      vertex 161.816 100.576 10.8
      vertex 161.816 103.777 10.8
    endloop
  endfacet
  facet normal 0 -1 0
    outer loop
      vertex 162.486 100.576 10
      vertex 161.816 100.576 10.8
      vertex 161.816 100.576 10
    endloop
  endfacet
  facet normal 0 -1 0
    outer loop
      vertex 162.486 100.576 10
      vertex 162.486 100.576 10.8
      vertex 161.816 100.576 10.8
    endloop
  endfacet
  facet normal 1 0 0
    outer loop
      vertex 162.486 101.744 10
      vertex 162.486 100.576 10.8
      vertex 162.486 100.576 10
    endloop
  endfacet
  facet normal 1 0 -0
    outer loop
      vertex 162.486 101.744 10
      vertex 162.486 101.744 10.8
      vertex 162.486 100.576 10.8
    endloop
  endfacet
  facet normal 0 1 0
    outer loop
      vertex 169.204 101.101 10
      vertex 171.028 101.101 10.8
      vertex 171.028 101.101 10
    endloop
  endfacet
  facet normal 0 1 0
    outer loop
      vertex 169.204 101.101 10
      vertex 169.204 101.101 10.8
      vertex 171.028 101.101 10.8
    endloop
  endfacet
  facet normal 0.787257 -0.616625 0
    outer loop
      vertex 170.935 103.311 10
      vertex 169.204 101.101 10.8
      vertex 169.204 101.101 10
    endloop
  endfacet
  facet normal 0.787257 -0.616625 0
    outer loop
      vertex 170.935 103.311 10
      vertex 170.935 103.311 10.8
      vertex 169.204 101.101 10.8
    endloop
  endfacet
  facet normal 1 0 0
    outer loop
      vertex 170.935 103.777 10
      vertex 170.935 103.311 10.8
      vertex 170.935 103.311 10
    endloop
  endfacet
  facet normal 1 0 -0
    outer loop
      vertex 170.935 103.777 10
      vertex 170.935 103.777 10.8
      vertex 170.935 103.311 10.8
    endloop
  endfacet
  facet normal 0 1 0
    outer loop
      vertex 168.631 103.777 10
      vertex 170.935 103.777 10.8
      vertex 170.935 103.777 10
    endloop
  endfacet
  facet normal 0 1 0
    outer loop
      vertex 168.631 103.777 10
      vertex 168.631 103.777 10.8
      vertex 170.935 103.777 10.8
    endloop
  endfacet
  facet normal -1 0 0
    outer loop
      vertex 168.631 103.252 10
      vertex 168.631 103.777 10.8
      vertex 168.631 103.777 10
    endloop
  endfacet
  facet normal -1 0 0
    outer loop
      vertex 168.631 103.252 10
      vertex 168.631 103.252 10.8
      vertex 168.631 103.777 10.8
    endloop
  endfacet
  facet normal 0 -1 0
    outer loop
      vertex 170.19 103.252 10
      vertex 168.631 103.252 10.8
      vertex 168.631 103.252 10
    endloop
  endfacet
  facet normal 0 -1 0
    outer loop
      vertex 170.19 103.252 10
      vertex 170.19 103.252 10.8
      vertex 168.631 103.252 10.8
    endloop
  endfacet
  facet normal -0.786033 0.618184 0
    outer loop
      vertex 168.459 101.051 10
      vertex 170.19 103.252 10.8
      vertex 170.19 103.252 10
    endloop
  endfacet
  facet normal -0.786033 0.618184 0
    outer loop
      vertex 168.459 101.051 10
      vertex 168.459 101.051 10.8
      vertex 170.19 103.252 10.8
    endloop
  endfacet
  facet normal -1 0 0
    outer loop
      vertex 168.459 100.576 10
      vertex 168.459 101.051 10.8
      vertex 168.459 101.051 10
    endloop
  endfacet
  facet normal -1 0 0
    outer loop
      vertex 168.459 100.576 10
      vertex 168.459 100.576 10.8
      vertex 168.459 101.051 10.8
    endloop
  endfacet
  facet normal 0 -1 0
    outer loop
      vertex 171.028 100.576 10
      vertex 168.459 100.576 10.8
      vertex 168.459 100.576 10
    endloop
  endfacet
  facet normal 0 -1 0
    outer loop
      vertex 171.028 100.576 10
      vertex 171.028 100.576 10.8
      vertex 168.459 100.576 10.8
    endloop
  endfacet
  facet normal 1 0 0
    outer loop
      vertex 171.028 101.101 10
      vertex 171.028 100.576 10.8
      vertex 171.028 100.576 10
    endloop
  endfacet
  facet normal 1 0 -0
    outer loop
      vertex 171.028 101.101 10
      vertex 171.028 101.101 10.8
      vertex 171.028 100.576 10.8
    endloop
  endfacet
endsolid OpenSCAD_Model
