solid OpenSCAD_Model
  facet normal 0 0 -1
    outer loop
      vertex 167.416 105.414 0
      vertex 167.463 105.401 0
      vertex 167.832 99.0939 0
    endloop
  endfacet
  facet normal -0 0 -1
    outer loop
      vertex 163.953 95.7914 0
      vertex 162.456 95.4407 0
      vertex 163.936 96.5164 0
    endloop
  endfacet
  facet normal 0 -0 -1
    outer loop
      vertex 162.678 99.522 0
      vertex 164.369 97.397 0
      vertex 162.616 99.377 0
    endloop
  endfacet
  facet normal 0 0 -1
    outer loop
      vertex 163.315 104.813 0
      vertex 164.911 106.603 0
      vertex 163.464 104.291 0
    endloop
  endfacet
  facet normal 0 -0 -1
    outer loop
      vertex 168.063 105.331 0
      vertex 170.785 100.213 0
      vertex 167.832 99.0939 0
    endloop
  endfacet
  facet normal -0 0 -1
    outer loop
      vertex 164.087 96.0194 0
      vertex 163.953 95.7914 0
      vertex 163.936 96.5164 0
    endloop
  endfacet
  facet normal -0 0 -1
    outer loop
      vertex 163.936 96.5164 0
      vertex 162.456 95.4407 0
      vertex 163.946 96.6271 0
    endloop
  endfacet
  facet normal 0 0 -1
    outer loop
      vertex 170.919 100.28 0
      vertex 171.074 105.81 0
      vertex 172.39 100.191 0
    endloop
  endfacet
  facet normal 0 0 -1
    outer loop
      vertex 161.426 98.547 0
      vertex 162.616 99.377 0
      vertex 164.296 97.3271 0
    endloop
  endfacet
  facet normal 0 0 -1
    outer loop
      vertex 170.785 100.213 0
      vertex 168.175 105.364 0
      vertex 170.919 100.28 0
    endloop
  endfacet
  facet normal 0 0 -1
    outer loop
      vertex 159.396 101.722 0
      vertex 163.265 104.11 0
      vertex 160.384 100.719 0
    endloop
  endfacet
  facet normal 0 -0 -1
    outer loop
      vertex 167.416 105.414 0
      vertex 167.832 99.0939 0
      vertex 163.404 104.126 0
    endloop
  endfacet
  facet normal 0 0 -1
    outer loop
      vertex 164.369 97.397 0
      vertex 166.15 98.5433 0
      vertex 166.142 98.1883 0
    endloop
  endfacet
  facet normal 0 0 -1
    outer loop
      vertex 166.319 98.6887 0
      vertex 167.832 99.0939 0
      vertex 166.884 98.6147 0
    endloop
  endfacet
  facet normal 0 0 -1
    outer loop
      vertex 168.063 105.331 0
      vertex 168.175 105.364 0
      vertex 170.785 100.213 0
    endloop
  endfacet
  facet normal 0 0 -1
    outer loop
      vertex 170.785 100.213 0
      vertex 169.42 98.5345 0
      vertex 168.044 99.0018 0
    endloop
  endfacet
  facet normal 0 0 -1
    outer loop
      vertex 167.832 99.0939 0
      vertex 170.785 100.213 0
      vertex 168.044 99.0018 0
    endloop
  endfacet
  facet normal 0 0 -1
    outer loop
      vertex 169.42 98.5345 0
      vertex 170.785 100.213 0
      vertex 169.588 98.468 0
    endloop
  endfacet
  facet normal 0 0 -1
    outer loop
      vertex 168.044 99.0018 0
      vertex 169.42 98.5345 0
      vertex 168.273 98.2144 0
    endloop
  endfacet
  facet normal 0 0 -1
    outer loop
      vertex 177.289 103.082 0
      vertex 177.525 104.132 0
      vertex 177.401 103.159 0
    endloop
  endfacet
  facet normal 0 0 -1
    outer loop
      vertex 169.588 98.468 0
      vertex 170.785 100.213 0
      vertex 169.606 98.4393 0
    endloop
  endfacet
  facet normal 0 0 -1
    outer loop
      vertex 177.289 103.082 0
      vertex 176.482 104.333 0
      vertex 177.525 104.132 0
    endloop
  endfacet
  facet normal 0 0 -1
    outer loop
      vertex 174.254 101.425 0
      vertex 175.759 105.219 0
      vertex 176.391 104.389 0
    endloop
  endfacet
  facet normal 0 0 -1
    outer loop
      vertex 174.197 101.376 0
      vertex 173.522 100.415 0
      vertex 172.39 100.191 0
    endloop
  endfacet
  facet normal 0 0 -1
    outer loop
      vertex 171.074 105.81 0
      vertex 174.197 101.376 0
      vertex 172.39 100.191 0
    endloop
  endfacet
  facet normal 0 0 -1
    outer loop
      vertex 177.152 102.834 0
      vertex 176.391 104.389 0
      vertex 176.482 104.333 0
    endloop
  endfacet
  facet normal -0 0 -1
    outer loop
      vertex 175.759 105.219 0
      vertex 174.254 101.425 0
      vertex 171.074 105.81 0
    endloop
  endfacet
  facet normal 0 0 -1
    outer loop
      vertex 177.152 102.834 0
      vertex 176.482 104.333 0
      vertex 177.289 103.082 0
    endloop
  endfacet
  facet normal 0 0 -1
    outer loop
      vertex 156.896 96.4144 0
      vertex 156.766 96.0552 0
      vertex 156.66 96.0896 0
    endloop
  endfacet
  facet normal -0 0 -1
    outer loop
      vertex 178.092 103.537 0
      vertex 177.401 103.159 0
      vertex 177.525 104.132 0
    endloop
  endfacet
  facet normal 0 0 -1
    outer loop
      vertex 177.401 103.159 0
      vertex 178.092 103.537 0
      vertex 178.104 103.251 0
    endloop
  endfacet
  facet normal -0 0 -1
    outer loop
      vertex 177.152 102.834 0
      vertex 174.254 101.425 0
      vertex 176.391 104.389 0
    endloop
  endfacet
  facet normal 0 0 -1
    outer loop
      vertex 174.197 101.376 0
      vertex 171.074 105.81 0
      vertex 174.254 101.425 0
    endloop
  endfacet
  facet normal 0 0 -1
    outer loop
      vertex 168.175 105.364 0
      vertex 168.587 105.702 0
      vertex 171.074 105.81 0
    endloop
  endfacet
  facet normal 0 0 -1
    outer loop
      vertex 170.919 100.28 0
      vertex 168.175 105.364 0
      vertex 171.074 105.81 0
    endloop
  endfacet
  facet normal 0 0 -1
    outer loop
      vertex 167.463 105.401 0
      vertex 168.063 105.331 0
      vertex 167.832 99.0939 0
    endloop
  endfacet
  facet normal 0 0 -1
    outer loop
      vertex 167.416 105.414 0
      vertex 163.404 104.126 0
      vertex 163.464 104.291 0
    endloop
  endfacet
  facet normal 0 0 -1
    outer loop
      vertex 164.911 106.603 0
      vertex 163.315 104.813 0
      vertex 163.589 105.947 0
    endloop
  endfacet
  facet normal -0 0 -1
    outer loop
      vertex 167.416 105.414 0
      vertex 163.464 104.291 0
      vertex 164.911 106.603 0
    endloop
  endfacet
  facet normal 0 0 -1
    outer loop
      vertex 160.384 100.719 0
      vertex 163.265 104.11 0
      vertex 160.519 100.587 0
    endloop
  endfacet
  facet normal 0 0 -1
    outer loop
      vertex 160.384 100.719 0
      vertex 159.83 100.771 0
      vertex 159.396 101.722 0
    endloop
  endfacet
  facet normal 0 0 -1
    outer loop
      vertex 158.388 103.624 0
      vertex 158.772 105.236 0
      vertex 159.586 105.348 0
    endloop
  endfacet
  facet normal 0 0 -1
    outer loop
      vertex 158.259 104.921 0
      vertex 157.788 104.011 0
      vertex 157.709 104.037 0
    endloop
  endfacet
  facet normal 0 0 -1
    outer loop
      vertex 160.519 100.587 0
      vertex 160.903 100.308 0
      vertex 160.791 100.339 0
    endloop
  endfacet
  facet normal 0 0 -1
    outer loop
      vertex 163.404 104.126 0
      vertex 162.678 99.522 0
      vertex 162.555 99.6479 0
    endloop
  endfacet
  facet normal -0 0 -1
    outer loop
      vertex 167.832 99.0939 0
      vertex 166.319 98.6887 0
      vertex 163.404 104.126 0
    endloop
  endfacet
  facet normal 0 0 -1
    outer loop
      vertex 158.388 103.624 0
      vertex 157.958 103.994 0
      vertex 158.259 104.921 0
    endloop
  endfacet
  facet normal 0 0 -1
    outer loop
      vertex 158.259 104.921 0
      vertex 157.958 103.994 0
      vertex 157.788 104.011 0
    endloop
  endfacet
  facet normal 0 0 -1
    outer loop
      vertex 157.709 104.037 0
      vertex 157.788 104.011 0
      vertex 157.733 103.981 0
    endloop
  endfacet
  facet normal 0 0 -1
    outer loop
      vertex 157.22 101.464 0
      vertex 157.546 102.995 0
      vertex 158.722 101.219 0
    endloop
  endfacet
  facet normal -0 0 -1
    outer loop
      vertex 158.561 101.084 0
      vertex 157.569 100.85 0
      vertex 157.22 101.464 0
    endloop
  endfacet
  facet normal -0 0 -1
    outer loop
      vertex 156.565 96.9248 0
      vertex 156.515 96.896 0
      vertex 156.45 97.1628 0
    endloop
  endfacet
  facet normal 0 0 -1
    outer loop
      vertex 157.22 101.464 0
      vertex 158.722 101.219 0
      vertex 158.561 101.084 0
    endloop
  endfacet
  facet normal -0 0 -1
    outer loop
      vertex 160.569 105.165 0
      vertex 158.388 103.624 0
      vertex 159.586 105.348 0
    endloop
  endfacet
  facet normal 0 0 -1
    outer loop
      vertex 158.772 105.236 0
      vertex 158.388 103.624 0
      vertex 158.259 104.921 0
    endloop
  endfacet
  facet normal 0 0 -1
    outer loop
      vertex 160.569 105.165 0
      vertex 158.428 103.452 0
      vertex 158.388 103.624 0
    endloop
  endfacet
  facet normal 0 0 -1
    outer loop
      vertex 158.722 101.219 0
      vertex 159.116 101.702 0
      vertex 158.97 101.199 0
    endloop
  endfacet
  facet normal 0 0 -1
    outer loop
      vertex 156.196 101.69 0
      vertex 157.546 102.995 0
      vertex 157.057 101.536 0
    endloop
  endfacet
  facet normal 0 0 -1
    outer loop
      vertex 160.937 98.2811 0
      vertex 162.456 95.4407 0
      vertex 161.256 95.4899 0
    endloop
  endfacet
  facet normal 0 0 -1
    outer loop
      vertex 159.461 97.2532 0
      vertex 159.418 97.466 0
      vertex 159.635 97.2268 0
    endloop
  endfacet
  facet normal 0 0 -1
    outer loop
      vertex 161.426 98.547 0
      vertex 164.296 97.3271 0
      vertex 163.946 96.6271 0
    endloop
  endfacet
  facet normal 0 0 -1
    outer loop
      vertex 156.625 101.439 0
      vertex 156.196 101.69 0
      vertex 157.057 101.536 0
    endloop
  endfacet
  facet normal 0 0 -1
    outer loop
      vertex 157.057 101.536 0
      vertex 157.546 102.995 0
      vertex 157.22 101.464 0
    endloop
  endfacet
  facet normal 0 0 -1
    outer loop
      vertex 158.561 101.084 0
      vertex 158.517 100.609 0
      vertex 157.569 100.85 0
    endloop
  endfacet
  facet normal 0 0 -1
    outer loop
      vertex 160.937 98.2811 0
      vertex 161.004 98.6237 0
      vertex 161.293 98.5277 0
    endloop
  endfacet
  facet normal 0 0 -1
    outer loop
      vertex 159.259 97.4431 0
      vertex 159.191 97.1132 0
      vertex 158.439 97.2634 0
    endloop
  endfacet
  facet normal 0 0 -1
    outer loop
      vertex 157.546 102.995 0
      vertex 159.116 101.702 0
      vertex 158.722 101.219 0
    endloop
  endfacet
  facet normal 0 0 -1
    outer loop
      vertex 158.354 103.374 0
      vertex 159.255 101.81 0
      vertex 159.116 101.702 0
    endloop
  endfacet
  facet normal 0 -0 -1
    outer loop
      vertex 158.354 103.374 0
      vertex 159.116 101.702 0
      vertex 157.546 102.995 0
    endloop
  endfacet
  facet normal 0 0 -1
    outer loop
      vertex 158.354 103.374 0
      vertex 158.428 103.452 0
      vertex 159.255 101.81 0
    endloop
  endfacet
  facet normal 0 0 -1
    outer loop
      vertex 159.396 101.722 0
      vertex 159.255 101.81 0
      vertex 160.569 105.165 0
    endloop
  endfacet
  facet normal 0 0 -1
    outer loop
      vertex 159.255 101.81 0
      vertex 158.428 103.452 0
      vertex 160.569 105.165 0
    endloop
  endfacet
  facet normal -0 0 -1
    outer loop
      vertex 163.265 104.11 0
      vertex 159.396 101.722 0
      vertex 160.569 105.165 0
    endloop
  endfacet
  facet normal 0 0 -1
    outer loop
      vertex 160.903 100.308 0
      vertex 160.519 100.587 0
      vertex 163.265 104.11 0
    endloop
  endfacet
  facet normal 0 0 -1
    outer loop
      vertex 164.296 97.3271 0
      vertex 162.616 99.377 0
      vertex 164.369 97.397 0
    endloop
  endfacet
  facet normal 0 -0 -1
    outer loop
      vertex 161.426 98.547 0
      vertex 162.456 95.4407 0
      vertex 160.937 98.2811 0
    endloop
  endfacet
  facet normal -0 0 -1
    outer loop
      vertex 160.791 100.339 0
      vertex 160.551 100.308 0
      vertex 160.519 100.587 0
    endloop
  endfacet
  facet normal 0 0 -1
    outer loop
      vertex 160.903 100.308 0
      vertex 163.265 104.11 0
      vertex 162.555 99.6479 0
    endloop
  endfacet
  facet normal 0 0 -1
    outer loop
      vertex 160.903 100.308 0
      vertex 162.555 99.6479 0
      vertex 161.523 99.8216 0
    endloop
  endfacet
  facet normal 0 -0 -1
    outer loop
      vertex 163.404 104.126 0
      vertex 166.319 98.6887 0
      vertex 162.678 99.522 0
    endloop
  endfacet
  facet normal 0 0 -1
    outer loop
      vertex 163.404 104.126 0
      vertex 162.555 99.6479 0
      vertex 163.265 104.11 0
    endloop
  endfacet
  facet normal 0 0 -1
    outer loop
      vertex 162.456 95.4407 0
      vertex 161.426 98.547 0
      vertex 163.946 96.6271 0
    endloop
  endfacet
  facet normal 0 0 -1
    outer loop
      vertex 164.369 97.397 0
      vertex 162.678 99.522 0
      vertex 166.15 98.5433 0
    endloop
  endfacet
  facet normal 0 0 -1
    outer loop
      vertex 162.678 99.522 0
      vertex 166.319 98.6887 0
      vertex 166.15 98.5433 0
    endloop
  endfacet
  facet normal 0 -0 -1
    outer loop
      vertex 161.293 98.5277 0
      vertex 161.426 98.547 0
      vertex 160.937 98.2811 0
    endloop
  endfacet
  facet normal 0 0 -1
    outer loop
      vertex 161.256 95.4899 0
      vertex 160.761 98.1629 0
      vertex 160.937 98.2811 0
    endloop
  endfacet
  facet normal -0 0 -1
    outer loop
      vertex 161.256 95.4899 0
      vertex 161.212 95.4851 0
      vertex 160.761 98.1629 0
    endloop
  endfacet
  facet normal 0 0 -1
    outer loop
      vertex 159.446 95.6129 0
      vertex 159.375 96.7402 0
      vertex 159.593 96.8243 0
    endloop
  endfacet
  facet normal 0 0 -1
    outer loop
      vertex 159.185 96.8502 0
      vertex 158.966 96.0225 0
      vertex 158.764 96.1291 0
    endloop
  endfacet
  facet normal -0 0 -1
    outer loop
      vertex 159.375 96.7402 0
      vertex 158.966 96.0225 0
      vertex 159.185 96.8502 0
    endloop
  endfacet
  facet normal 0 0 -1
    outer loop
      vertex 157.857 97.7097 0
      vertex 158.431 97.8141 0
      vertex 157.867 97.7086 0
    endloop
  endfacet
  facet normal 0 -0 -1
    outer loop
      vertex 157.179 96.7375 0
      vertex 157.65 96.828 0
      vertex 157.126 96.6043 0
    endloop
  endfacet
  facet normal 0 0 -1
    outer loop
      vertex 157.867 97.7086 0
      vertex 158.431 97.8141 0
      vertex 158.367 97.4086 0
    endloop
  endfacet
  facet normal 0 0 -1
    outer loop
      vertex 158.439 97.2634 0
      vertex 158.367 97.4086 0
      vertex 159.259 97.4431 0
    endloop
  endfacet
  facet normal 0 0 -1
    outer loop
      vertex 158.367 97.4086 0
      vertex 158.431 97.8141 0
      vertex 159.259 97.4431 0
    endloop
  endfacet
  facet normal 0 0 -1
    outer loop
      vertex 159.185 96.8502 0
      vertex 158.764 96.1291 0
      vertex 158.389 96.8134 0
    endloop
  endfacet
  facet normal 0 0 -1
    outer loop
      vertex 156.839 96.9112 0
      vertex 157.676 97.6291 0
      vertex 157.64 97.578 0
    endloop
  endfacet
  facet normal 0 0 -1
    outer loop
      vertex 158.764 96.1291 0
      vertex 158.24 96.68 0
      vertex 158.389 96.8134 0
    endloop
  endfacet
  facet normal 0 0 -1
    outer loop
      vertex 156.503 96.7201 0
      vertex 156.673 96.4501 0
      vertex 156.66 96.0896 0
    endloop
  endfacet
  facet normal 0 -0 -1
    outer loop
      vertex 154.39 96.75 0
      vertex 154.536 96.8663 0
      vertex 154.134 95.92 0
    endloop
  endfacet
  facet normal 0 0 -1
    outer loop
      vertex 156.839 96.9112 0
      vertex 157.64 97.578 0
      vertex 157.059 96.8671 0
    endloop
  endfacet
  facet normal 0 0 -1
    outer loop
      vertex 157.179 96.7375 0
      vertex 157.059 96.8671 0
      vertex 157.65 96.828 0
    endloop
  endfacet
  facet normal 0 0 -1
    outer loop
      vertex 157.059 96.8671 0
      vertex 157.64 97.578 0
      vertex 157.65 96.828 0
    endloop
  endfacet
  facet normal 0 0 -1
    outer loop
      vertex 157.126 96.6043 0
      vertex 157.65 96.828 0
      vertex 157.8 96.68 0
    endloop
  endfacet
  facet normal 0 -0 -1
    outer loop
      vertex 156.896 96.4144 0
      vertex 157.357 95.5626 0
      vertex 156.766 96.0552 0
    endloop
  endfacet
  facet normal 0 -0 -1
    outer loop
      vertex 157.126 96.6043 0
      vertex 157.357 95.5626 0
      vertex 156.896 96.4144 0
    endloop
  endfacet
  facet normal 0 -0 -1
    outer loop
      vertex 154.637 97.3022 0
      vertex 155.473 97.5608 0
      vertex 154.536 96.8663 0
    endloop
  endfacet
  facet normal 0 -0 -1
    outer loop
      vertex 156.565 96.9248 0
      vertex 156.585 96.9207 0
      vertex 156.515 96.896 0
    endloop
  endfacet
  facet normal 0 0 -1
    outer loop
      vertex 156.503 96.7201 0
      vertex 156.45 97.1628 0
      vertex 156.515 96.896 0
    endloop
  endfacet
  facet normal 0 0 -1
    outer loop
      vertex 156.503 96.7201 0
      vertex 155.473 97.5608 0
      vertex 156.45 97.1628 0
    endloop
  endfacet
  facet normal 0 0 -1
    outer loop
      vertex 154.536 96.8663 0
      vertex 155.473 97.5608 0
      vertex 156.503 96.7201 0
    endloop
  endfacet
  facet normal 0 0 -1
    outer loop
      vertex 154.134 95.92 0
      vertex 154.536 96.8663 0
      vertex 156.66 96.0896 0
    endloop
  endfacet
  facet normal 0 0 -1
    outer loop
      vertex 154.105 96.75 0
      vertex 154.39 96.75 0
      vertex 154.134 95.92 0
    endloop
  endfacet
  facet normal 0 0 -1
    outer loop
      vertex 154.536 96.8663 0
      vertex 156.503 96.7201 0
      vertex 156.66 96.0896 0
    endloop
  endfacet
  facet normal 0 0 -1
    outer loop
      vertex 157.126 96.6043 0
      vertex 157.8 96.68 0
      vertex 157.357 95.5626 0
    endloop
  endfacet
  facet normal 0 0 -1
    outer loop
      vertex 156.66 96.0896 0
      vertex 156.673 96.4501 0
      vertex 156.896 96.4144 0
    endloop
  endfacet
  facet normal 0 0 -1
    outer loop
      vertex 157.357 95.5626 0
      vertex 157.8 96.68 0
      vertex 158.24 96.68 0
    endloop
  endfacet
  facet normal -0 0 -1
    outer loop
      vertex 158.764 96.1291 0
      vertex 157.357 95.5626 0
      vertex 158.24 96.68 0
    endloop
  endfacet
  facet normal 0 0 -1
    outer loop
      vertex 159.028 95.7466 0
      vertex 158.966 96.0225 0
      vertex 159.446 95.6129 0
    endloop
  endfacet
  facet normal 0 0 -1
    outer loop
      vertex 160.207 95.3748 0
      vertex 159.593 96.8243 0
      vertex 160.752 95.3651 0
    endloop
  endfacet
  facet normal 0 0 -1
    outer loop
      vertex 159.593 96.8243 0
      vertex 159.673 97.0743 0
      vertex 161.212 95.4851 0
    endloop
  endfacet
  facet normal 0 0 -1
    outer loop
      vertex 159.446 95.6129 0
      vertex 160.048 95.4105 0
      vertex 159.545 95.508 0
    endloop
  endfacet
  facet normal 0 0 -1
    outer loop
      vertex 159.613 95.2485 0
      vertex 159.545 95.508 0
      vertex 160.048 95.4105 0
    endloop
  endfacet
  facet normal 0 0 -1
    outer loop
      vertex 161.212 95.4851 0
      vertex 159.673 97.0743 0
      vertex 160.761 98.1629 0
    endloop
  endfacet
  facet normal 0 0 -1
    outer loop
      vertex 160.496 95.0795 0
      vertex 160.207 95.3748 0
      vertex 160.67 95.3105 0
    endloop
  endfacet
  facet normal 0 0 -1
    outer loop
      vertex 160.207 95.3748 0
      vertex 160.752 95.3651 0
      vertex 160.67 95.3105 0
    endloop
  endfacet
  facet normal 0 0 -1
    outer loop
      vertex 158.966 96.0225 0
      vertex 159.375 96.7402 0
      vertex 159.446 95.6129 0
    endloop
  endfacet
  facet normal 0 -0 -1
    outer loop
      vertex 159.593 96.8243 0
      vertex 160.048 95.4105 0
      vertex 159.446 95.6129 0
    endloop
  endfacet
  facet normal -0 0 -1
    outer loop
      vertex 159.185 96.8502 0
      vertex 158.389 96.8134 0
      vertex 159.113 97.0114 0
    endloop
  endfacet
  facet normal -0 0 -1
    outer loop
      vertex 159.191 97.1132 0
      vertex 159.113 97.0114 0
      vertex 158.439 97.2634 0
    endloop
  endfacet
  facet normal -0 0 -1
    outer loop
      vertex 159.113 97.0114 0
      vertex 158.389 96.8134 0
      vertex 158.439 97.2634 0
    endloop
  endfacet
  facet normal -0 0 -1
    outer loop
      vertex 159.461 97.2532 0
      vertex 159.191 97.1132 0
      vertex 159.259 97.4431 0
    endloop
  endfacet
  facet normal 0 0 -1
    outer loop
      vertex 159.635 97.2268 0
      vertex 159.418 97.466 0
      vertex 160.332 98.2486 0
    endloop
  endfacet
  facet normal 0 0 -1
    outer loop
      vertex 159.461 97.2532 0
      vertex 159.259 97.4431 0
      vertex 159.418 97.466 0
    endloop
  endfacet
  facet normal 0 0 -1
    outer loop
      vertex 159.673 97.0743 0
      vertex 159.635 97.2268 0
      vertex 160.761 98.1629 0
    endloop
  endfacet
  facet normal 0 0 -1
    outer loop
      vertex 159.635 97.2268 0
      vertex 160.332 98.2486 0
      vertex 160.761 98.1629 0
    endloop
  endfacet
  facet normal 0 0 -1
    outer loop
      vertex 159.593 96.8243 0
      vertex 161.212 95.4851 0
      vertex 160.752 95.3651 0
    endloop
  endfacet
  facet normal 0 0 -1
    outer loop
      vertex 160.048 95.4105 0
      vertex 159.593 96.8243 0
      vertex 160.207 95.3748 0
    endloop
  endfacet
  facet normal 0 0 1
    outer loop
      vertex 167.832 99.0939 10
      vertex 167.463 105.401 10
      vertex 167.416 105.414 10
    endloop
  endfacet
  facet normal 0 0 1
    outer loop
      vertex 163.936 96.5164 10
      vertex 162.456 95.4407 10
      vertex 163.953 95.7914 10
    endloop
  endfacet
  facet normal -0 0 1
    outer loop
      vertex 162.616 99.377 10
      vertex 164.369 97.397 10
      vertex 162.678 99.522 10
    endloop
  endfacet
  facet normal 0 -0 1
    outer loop
      vertex 163.464 104.291 10
      vertex 164.911 106.603 10
      vertex 163.315 104.813 10
    endloop
  endfacet
  facet normal 0 0 1
    outer loop
      vertex 167.832 99.0939 10
      vertex 170.785 100.213 10
      vertex 168.063 105.331 10
    endloop
  endfacet
  facet normal 0 0 1
    outer loop
      vertex 163.936 96.5164 10
      vertex 163.953 95.7914 10
      vertex 164.087 96.0194 10
    endloop
  endfacet
  facet normal 0 0 1
    outer loop
      vertex 163.946 96.6271 10
      vertex 162.456 95.4407 10
      vertex 163.936 96.5164 10
    endloop
  endfacet
  facet normal 0 0 1
    outer loop
      vertex 172.39 100.191 10
      vertex 171.074 105.81 10
      vertex 170.919 100.28 10
    endloop
  endfacet
  facet normal 0 0 1
    outer loop
      vertex 164.296 97.3271 10
      vertex 162.616 99.377 10
      vertex 161.426 98.547 10
    endloop
  endfacet
  facet normal 0 0 1
    outer loop
      vertex 170.919 100.28 10
      vertex 168.175 105.364 10
      vertex 170.785 100.213 10
    endloop
  endfacet
  facet normal 0 -0 1
    outer loop
      vertex 160.384 100.719 10
      vertex 163.265 104.11 10
      vertex 159.396 101.722 10
    endloop
  endfacet
  facet normal -0 0 1
    outer loop
      vertex 163.404 104.126 10
      vertex 167.832 99.0939 10
      vertex 167.416 105.414 10
    endloop
  endfacet
  facet normal 0 -0 1
    outer loop
      vertex 166.142 98.1883 10
      vertex 166.15 98.5433 10
      vertex 164.369 97.397 10
    endloop
  endfacet
  facet normal 0 -0 1
    outer loop
      vertex 166.884 98.6147 10
      vertex 167.832 99.0939 10
      vertex 166.319 98.6887 10
    endloop
  endfacet
  facet normal 0 0 1
    outer loop
      vertex 170.785 100.213 10
      vertex 168.175 105.364 10
      vertex 168.063 105.331 10
    endloop
  endfacet
  facet normal -0 0 1
    outer loop
      vertex 168.044 99.0018 10
      vertex 169.42 98.5345 10
      vertex 170.785 100.213 10
    endloop
  endfacet
  facet normal 0 -0 1
    outer loop
      vertex 168.044 99.0018 10
      vertex 170.785 100.213 10
      vertex 167.832 99.0939 10
    endloop
  endfacet
  facet normal 0 -0 1
    outer loop
      vertex 169.588 98.468 10
      vertex 170.785 100.213 10
      vertex 169.42 98.5345 10
    endloop
  endfacet
  facet normal 0 -0 1
    outer loop
      vertex 168.273 98.2144 10
      vertex 169.42 98.5345 10
      vertex 168.044 99.0018 10
    endloop
  endfacet
  facet normal 0 -0 1
    outer loop
      vertex 177.401 103.159 10
      vertex 177.525 104.132 10
      vertex 177.289 103.082 10
    endloop
  endfacet
  facet normal 0 -0 1
    outer loop
      vertex 169.606 98.4393 10
      vertex 170.785 100.213 10
      vertex 169.588 98.468 10
    endloop
  endfacet
  facet normal 0 0 1
    outer loop
      vertex 177.525 104.132 10
      vertex 176.482 104.333 10
      vertex 177.289 103.082 10
    endloop
  endfacet
  facet normal 0 0 1
    outer loop
      vertex 176.391 104.389 10
      vertex 175.759 105.219 10
      vertex 174.254 101.425 10
    endloop
  endfacet
  facet normal 0 0 1
    outer loop
      vertex 172.39 100.191 10
      vertex 173.522 100.415 10
      vertex 174.197 101.376 10
    endloop
  endfacet
  facet normal 0 -0 1
    outer loop
      vertex 172.39 100.191 10
      vertex 174.197 101.376 10
      vertex 171.074 105.81 10
    endloop
  endfacet
  facet normal 0 0 1
    outer loop
      vertex 176.482 104.333 10
      vertex 176.391 104.389 10
      vertex 177.152 102.834 10
    endloop
  endfacet
  facet normal 0 0 1
    outer loop
      vertex 171.074 105.81 10
      vertex 174.254 101.425 10
      vertex 175.759 105.219 10
    endloop
  endfacet
  facet normal 0 0 1
    outer loop
      vertex 177.289 103.082 10
      vertex 176.482 104.333 10
      vertex 177.152 102.834 10
    endloop
  endfacet
  facet normal -0 0 1
    outer loop
      vertex 156.66 96.0896 10
      vertex 156.766 96.0552 10
      vertex 156.896 96.4144 10
    endloop
  endfacet
  facet normal 0 0 1
    outer loop
      vertex 177.525 104.132 10
      vertex 177.401 103.159 10
      vertex 178.092 103.537 10
    endloop
  endfacet
  facet normal 0 0 1
    outer loop
      vertex 178.104 103.251 10
      vertex 178.092 103.537 10
      vertex 177.401 103.159 10
    endloop
  endfacet
  facet normal 0 0 1
    outer loop
      vertex 176.391 104.389 10
      vertex 174.254 101.425 10
      vertex 177.152 102.834 10
    endloop
  endfacet
  facet normal 0 0 1
    outer loop
      vertex 174.254 101.425 10
      vertex 171.074 105.81 10
      vertex 174.197 101.376 10
    endloop
  endfacet
  facet normal 0 0 1
    outer loop
      vertex 171.074 105.81 10
      vertex 168.587 105.702 10
      vertex 168.175 105.364 10
    endloop
  endfacet
  facet normal 0 0 1
    outer loop
      vertex 171.074 105.81 10
      vertex 168.175 105.364 10
      vertex 170.919 100.28 10
    endloop
  endfacet
  facet normal 0 -0 1
    outer loop
      vertex 167.832 99.0939 10
      vertex 168.063 105.331 10
      vertex 167.463 105.401 10
    endloop
  endfacet
  facet normal -0 0 1
    outer loop
      vertex 163.464 104.291 10
      vertex 163.404 104.126 10
      vertex 167.416 105.414 10
    endloop
  endfacet
  facet normal -0 0 1
    outer loop
      vertex 163.589 105.947 10
      vertex 163.315 104.813 10
      vertex 164.911 106.603 10
    endloop
  endfacet
  facet normal 0 0 1
    outer loop
      vertex 164.911 106.603 10
      vertex 163.464 104.291 10
      vertex 167.416 105.414 10
    endloop
  endfacet
  facet normal 0 -0 1
    outer loop
      vertex 160.519 100.587 10
      vertex 163.265 104.11 10
      vertex 160.384 100.719 10
    endloop
  endfacet
  facet normal 0 0 1
    outer loop
      vertex 159.396 101.722 10
      vertex 159.83 100.771 10
      vertex 160.384 100.719 10
    endloop
  endfacet
  facet normal 0 0 1
    outer loop
      vertex 159.586 105.348 10
      vertex 158.772 105.236 10
      vertex 158.388 103.624 10
    endloop
  endfacet
  facet normal -0 0 1
    outer loop
      vertex 157.709 104.037 10
      vertex 157.788 104.011 10
      vertex 158.259 104.921 10
    endloop
  endfacet
  facet normal -0 -0 1
    outer loop
      vertex 160.791 100.339 10
      vertex 160.903 100.308 10
      vertex 160.519 100.587 10
    endloop
  endfacet
  facet normal -0 0 1
    outer loop
      vertex 162.555 99.6479 10
      vertex 162.678 99.522 10
      vertex 163.404 104.126 10
    endloop
  endfacet
  facet normal 0 0 1
    outer loop
      vertex 163.404 104.126 10
      vertex 166.319 98.6887 10
      vertex 167.832 99.0939 10
    endloop
  endfacet
  facet normal 0 0 1
    outer loop
      vertex 158.259 104.921 10
      vertex 157.958 103.994 10
      vertex 158.388 103.624 10
    endloop
  endfacet
  facet normal -0 0 1
    outer loop
      vertex 157.788 104.011 10
      vertex 157.958 103.994 10
      vertex 158.259 104.921 10
    endloop
  endfacet
  facet normal 0 -0 1
    outer loop
      vertex 157.733 103.981 10
      vertex 157.788 104.011 10
      vertex 157.709 104.037 10
    endloop
  endfacet
  facet normal 0 0 1
    outer loop
      vertex 158.722 101.219 10
      vertex 157.546 102.995 10
      vertex 157.22 101.464 10
    endloop
  endfacet
  facet normal 0 0 1
    outer loop
      vertex 157.22 101.464 10
      vertex 157.569 100.85 10
      vertex 158.561 101.084 10
    endloop
  endfacet
  facet normal 0 0 1
    outer loop
      vertex 156.45 97.1628 10
      vertex 156.515 96.896 10
      vertex 156.565 96.9248 10
    endloop
  endfacet
  facet normal 0 -0 1
    outer loop
      vertex 158.561 101.084 10
      vertex 158.722 101.219 10
      vertex 157.22 101.464 10
    endloop
  endfacet
  facet normal 0 0 1
    outer loop
      vertex 159.586 105.348 10
      vertex 158.388 103.624 10
      vertex 160.569 105.165 10
    endloop
  endfacet
  facet normal -0 0 1
    outer loop
      vertex 158.259 104.921 10
      vertex 158.388 103.624 10
      vertex 158.772 105.236 10
    endloop
  endfacet
  facet normal -0 0 1
    outer loop
      vertex 158.388 103.624 10
      vertex 158.428 103.452 10
      vertex 160.569 105.165 10
    endloop
  endfacet
  facet normal 0 -0 1
    outer loop
      vertex 158.97 101.199 10
      vertex 159.116 101.702 10
      vertex 158.722 101.219 10
    endloop
  endfacet
  facet normal 0 -0 1
    outer loop
      vertex 157.057 101.536 10
      vertex 157.546 102.995 10
      vertex 156.196 101.69 10
    endloop
  endfacet
  facet normal -0 -0 1
    outer loop
      vertex 161.256 95.4899 10
      vertex 162.456 95.4407 10
      vertex 160.937 98.2811 10
    endloop
  endfacet
  facet normal 0 0 1
    outer loop
      vertex 159.635 97.2268 10
      vertex 159.418 97.466 10
      vertex 159.461 97.2532 10
    endloop
  endfacet
  facet normal 0 -0 1
    outer loop
      vertex 163.946 96.6271 10
      vertex 164.296 97.3271 10
      vertex 161.426 98.547 10
    endloop
  endfacet
  facet normal 0 0 1
    outer loop
      vertex 157.057 101.536 10
      vertex 156.196 101.69 10
      vertex 156.625 101.439 10
    endloop
  endfacet
  facet normal 0 -0 1
    outer loop
      vertex 157.22 101.464 10
      vertex 157.546 102.995 10
      vertex 157.057 101.536 10
    endloop
  endfacet
  facet normal -0 0 1
    outer loop
      vertex 157.569 100.85 10
      vertex 158.517 100.609 10
      vertex 158.561 101.084 10
    endloop
  endfacet
  facet normal 0 0 1
    outer loop
      vertex 161.293 98.5277 10
      vertex 161.004 98.6237 10
      vertex 160.937 98.2811 10
    endloop
  endfacet
  facet normal -0 0 1
    outer loop
      vertex 158.439 97.2634 10
      vertex 159.191 97.1132 10
      vertex 159.259 97.4431 10
    endloop
  endfacet
  facet normal 0 -0 1
    outer loop
      vertex 158.722 101.219 10
      vertex 159.116 101.702 10
      vertex 157.546 102.995 10
    endloop
  endfacet
  facet normal 0 -0 1
    outer loop
      vertex 159.116 101.702 10
      vertex 159.255 101.81 10
      vertex 158.354 103.374 10
    endloop
  endfacet
  facet normal -0 0 1
    outer loop
      vertex 157.546 102.995 10
      vertex 159.116 101.702 10
      vertex 158.354 103.374 10
    endloop
  endfacet
  facet normal 0 0 1
    outer loop
      vertex 159.255 101.81 10
      vertex 158.428 103.452 10
      vertex 158.354 103.374 10
    endloop
  endfacet
  facet normal 0 0 1
    outer loop
      vertex 160.569 105.165 10
      vertex 159.255 101.81 10
      vertex 159.396 101.722 10
    endloop
  endfacet
  facet normal 0 0 1
    outer loop
      vertex 160.569 105.165 10
      vertex 158.428 103.452 10
      vertex 159.255 101.81 10
    endloop
  endfacet
  facet normal 0 0 1
    outer loop
      vertex 160.569 105.165 10
      vertex 159.396 101.722 10
      vertex 163.265 104.11 10
    endloop
  endfacet
  facet normal 0 0 1
    outer loop
      vertex 163.265 104.11 10
      vertex 160.519 100.587 10
      vertex 160.903 100.308 10
    endloop
  endfacet
  facet normal 0 0 1
    outer loop
      vertex 164.369 97.397 10
      vertex 162.616 99.377 10
      vertex 164.296 97.3271 10
    endloop
  endfacet
  facet normal -0 0 1
    outer loop
      vertex 160.937 98.2811 10
      vertex 162.456 95.4407 10
      vertex 161.426 98.547 10
    endloop
  endfacet
  facet normal 0 0 1
    outer loop
      vertex 160.519 100.587 10
      vertex 160.551 100.308 10
      vertex 160.791 100.339 10
    endloop
  endfacet
  facet normal 0 -0 1
    outer loop
      vertex 162.555 99.6479 10
      vertex 163.265 104.11 10
      vertex 160.903 100.308 10
    endloop
  endfacet
  facet normal -0 -0 1
    outer loop
      vertex 161.523 99.8216 10
      vertex 162.555 99.6479 10
      vertex 160.903 100.308 10
    endloop
  endfacet
  facet normal -0 0 1
    outer loop
      vertex 162.678 99.522 10
      vertex 166.319 98.6887 10
      vertex 163.404 104.126 10
    endloop
  endfacet
  facet normal -0 0 1
    outer loop
      vertex 163.265 104.11 10
      vertex 162.555 99.6479 10
      vertex 163.404 104.126 10
    endloop
  endfacet
  facet normal 0 0 1
    outer loop
      vertex 163.946 96.6271 10
      vertex 161.426 98.547 10
      vertex 162.456 95.4407 10
    endloop
  endfacet
  facet normal 0 0 1
    outer loop
      vertex 166.15 98.5433 10
      vertex 162.678 99.522 10
      vertex 164.369 97.397 10
    endloop
  endfacet
  facet normal 0 -0 1
    outer loop
      vertex 166.15 98.5433 10
      vertex 166.319 98.6887 10
      vertex 162.678 99.522 10
    endloop
  endfacet
  facet normal 0 0 1
    outer loop
      vertex 160.937 98.2811 10
      vertex 161.426 98.547 10
      vertex 161.293 98.5277 10
    endloop
  endfacet
  facet normal 0 0 1
    outer loop
      vertex 160.937 98.2811 10
      vertex 160.761 98.1629 10
      vertex 161.256 95.4899 10
    endloop
  endfacet
  facet normal 0 0 1
    outer loop
      vertex 160.761 98.1629 10
      vertex 161.212 95.4851 10
      vertex 161.256 95.4899 10
    endloop
  endfacet
  facet normal 0 0 1
    outer loop
      vertex 159.593 96.8243 10
      vertex 159.375 96.7402 10
      vertex 159.446 95.6129 10
    endloop
  endfacet
  facet normal -0 0 1
    outer loop
      vertex 158.764 96.1291 10
      vertex 158.966 96.0225 10
      vertex 159.185 96.8502 10
    endloop
  endfacet
  facet normal 0 0 1
    outer loop
      vertex 159.185 96.8502 10
      vertex 158.966 96.0225 10
      vertex 159.375 96.7402 10
    endloop
  endfacet
  facet normal 0 -0 1
    outer loop
      vertex 157.867 97.7086 10
      vertex 158.431 97.8141 10
      vertex 157.857 97.7097 10
    endloop
  endfacet
  facet normal 0 0 1
    outer loop
      vertex 157.126 96.6043 10
      vertex 157.65 96.828 10
      vertex 157.179 96.7375 10
    endloop
  endfacet
  facet normal 0 -0 1
    outer loop
      vertex 158.367 97.4086 10
      vertex 158.431 97.8141 10
      vertex 157.867 97.7086 10
    endloop
  endfacet
  facet normal 0 0 1
    outer loop
      vertex 159.259 97.4431 10
      vertex 158.367 97.4086 10
      vertex 158.439 97.2634 10
    endloop
  endfacet
  facet normal 0 0 1
    outer loop
      vertex 159.259 97.4431 10
      vertex 158.431 97.8141 10
      vertex 158.367 97.4086 10
    endloop
  endfacet
  facet normal -0 0 1
    outer loop
      vertex 158.389 96.8134 10
      vertex 158.764 96.1291 10
      vertex 159.185 96.8502 10
    endloop
  endfacet
  facet normal 0 -0 1
    outer loop
      vertex 157.64 97.578 10
      vertex 157.676 97.6291 10
      vertex 156.839 96.9112 10
    endloop
  endfacet
  facet normal 0 0 1
    outer loop
      vertex 158.389 96.8134 10
      vertex 158.24 96.68 10
      vertex 158.764 96.1291 10
    endloop
  endfacet
  facet normal 0 -0 1
    outer loop
      vertex 156.66 96.0896 10
      vertex 156.673 96.4501 10
      vertex 156.503 96.7201 10
    endloop
  endfacet
  facet normal 0 0 1
    outer loop
      vertex 154.134 95.92 10
      vertex 154.536 96.8663 10
      vertex 154.39 96.75 10
    endloop
  endfacet
  facet normal 0 -0 1
    outer loop
      vertex 157.059 96.8671 10
      vertex 157.64 97.578 10
      vertex 156.839 96.9112 10
    endloop
  endfacet
  facet normal 0 0 1
    outer loop
      vertex 157.65 96.828 10
      vertex 157.059 96.8671 10
      vertex 157.179 96.7375 10
    endloop
  endfacet
  facet normal 0 0 1
    outer loop
      vertex 157.65 96.828 10
      vertex 157.64 97.578 10
      vertex 157.059 96.8671 10
    endloop
  endfacet
  facet normal 0 0 1
    outer loop
      vertex 157.8 96.68 10
      vertex 157.65 96.828 10
      vertex 157.126 96.6043 10
    endloop
  endfacet
  facet normal -0 0 1
    outer loop
      vertex 156.766 96.0552 10
      vertex 157.357 95.5626 10
      vertex 156.896 96.4144 10
    endloop
  endfacet
  facet normal -0 0 1
    outer loop
      vertex 156.896 96.4144 10
      vertex 157.357 95.5626 10
      vertex 157.126 96.6043 10
    endloop
  endfacet
  facet normal 0 0 1
    outer loop
      vertex 154.536 96.8663 10
      vertex 155.473 97.5608 10
      vertex 154.637 97.3022 10
    endloop
  endfacet
  facet normal 0 0 1
    outer loop
      vertex 156.515 96.896 10
      vertex 156.585 96.9207 10
      vertex 156.565 96.9248 10
    endloop
  endfacet
  facet normal 0 0 1
    outer loop
      vertex 156.515 96.896 10
      vertex 156.45 97.1628 10
      vertex 156.503 96.7201 10
    endloop
  endfacet
  facet normal 0 0 1
    outer loop
      vertex 156.45 97.1628 10
      vertex 155.473 97.5608 10
      vertex 156.503 96.7201 10
    endloop
  endfacet
  facet normal 0 0 1
    outer loop
      vertex 156.503 96.7201 10
      vertex 155.473 97.5608 10
      vertex 154.536 96.8663 10
    endloop
  endfacet
  facet normal 0 0 1
    outer loop
      vertex 156.66 96.0896 10
      vertex 154.536 96.8663 10
      vertex 154.134 95.92 10
    endloop
  endfacet
  facet normal 0 -0 1
    outer loop
      vertex 154.134 95.92 10
      vertex 154.39 96.75 10
      vertex 154.105 96.75 10
    endloop
  endfacet
  facet normal 0 0 1
    outer loop
      vertex 156.66 96.0896 10
      vertex 156.503 96.7201 10
      vertex 154.536 96.8663 10
    endloop
  endfacet
  facet normal 0 -0 1
    outer loop
      vertex 157.357 95.5626 10
      vertex 157.8 96.68 10
      vertex 157.126 96.6043 10
    endloop
  endfacet
  facet normal 0 0 1
    outer loop
      vertex 156.896 96.4144 10
      vertex 156.673 96.4501 10
      vertex 156.66 96.0896 10
    endloop
  endfacet
  facet normal 0 0 1
    outer loop
      vertex 158.24 96.68 10
      vertex 157.8 96.68 10
      vertex 157.357 95.5626 10
    endloop
  endfacet
  facet normal 0 0 1
    outer loop
      vertex 158.24 96.68 10
      vertex 157.357 95.5626 10
      vertex 158.764 96.1291 10
    endloop
  endfacet
  facet normal 0 0 1
    outer loop
      vertex 159.446 95.6129 10
      vertex 158.966 96.0225 10
      vertex 159.028 95.7466 10
    endloop
  endfacet
  facet normal 0 0 1
    outer loop
      vertex 160.752 95.3651 10
      vertex 159.593 96.8243 10
      vertex 160.207 95.3748 10
    endloop
  endfacet
  facet normal 0 0 1
    outer loop
      vertex 161.212 95.4851 10
      vertex 159.673 97.0743 10
      vertex 159.593 96.8243 10
    endloop
  endfacet
  facet normal -0 -0 1
    outer loop
      vertex 159.545 95.508 10
      vertex 160.048 95.4105 10
      vertex 159.446 95.6129 10
    endloop
  endfacet
  facet normal 0 0 1
    outer loop
      vertex 160.048 95.4105 10
      vertex 159.545 95.508 10
      vertex 159.613 95.2485 10
    endloop
  endfacet
  facet normal 0 0 1
    outer loop
      vertex 160.761 98.1629 10
      vertex 159.673 97.0743 10
      vertex 161.212 95.4851 10
    endloop
  endfacet
  facet normal 0 0 1
    outer loop
      vertex 160.67 95.3105 10
      vertex 160.207 95.3748 10
      vertex 160.496 95.0795 10
    endloop
  endfacet
  facet normal 0 -0 1
    outer loop
      vertex 160.67 95.3105 10
      vertex 160.752 95.3651 10
      vertex 160.207 95.3748 10
    endloop
  endfacet
  facet normal 0 0 1
    outer loop
      vertex 159.446 95.6129 10
      vertex 159.375 96.7402 10
      vertex 158.966 96.0225 10
    endloop
  endfacet
  facet normal -0 0 1
    outer loop
      vertex 159.446 95.6129 10
      vertex 160.048 95.4105 10
      vertex 159.593 96.8243 10
    endloop
  endfacet
  facet normal 0 0 1
    outer loop
      vertex 159.113 97.0114 10
      vertex 158.389 96.8134 10
      vertex 159.185 96.8502 10
    endloop
  endfacet
  facet normal 0 0 1
    outer loop
      vertex 158.439 97.2634 10
      vertex 159.113 97.0114 10
      vertex 159.191 97.1132 10
    endloop
  endfacet
  facet normal 0 0 1
    outer loop
      vertex 158.439 97.2634 10
      vertex 158.389 96.8134 10
      vertex 159.113 97.0114 10
    endloop
  endfacet
  facet normal 0 0 1
    outer loop
      vertex 159.259 97.4431 10
      vertex 159.191 97.1132 10
      vertex 159.461 97.2532 10
    endloop
  endfacet
  facet normal 0 0 1
    outer loop
      vertex 160.332 98.2486 10
      vertex 159.418 97.466 10
      vertex 159.635 97.2268 10
    endloop
  endfacet
  facet normal 0 0 1
    outer loop
      vertex 159.418 97.466 10
      vertex 159.259 97.4431 10
      vertex 159.461 97.2532 10
    endloop
  endfacet
  facet normal 0 0 1
    outer loop
      vertex 160.761 98.1629 10
      vertex 159.635 97.2268 10
      vertex 159.673 97.0743 10
    endloop
  endfacet
  facet normal 0 0 1
    outer loop
      vertex 160.761 98.1629 10
      vertex 160.332 98.2486 10
      vertex 159.635 97.2268 10
    endloop
  endfacet
  facet normal 0 -0 1
    outer loop
      vertex 160.752 95.3651 10
      vertex 161.212 95.4851 10
      vertex 159.593 96.8243 10
    endloop
  endfacet
  facet normal 0 0 1
    outer loop
      vertex 160.207 95.3748 10
      vertex 159.593 96.8243 10
      vertex 160.048 95.4105 10
    endloop
  endfacet
  facet normal 0.554232 -0.832362 0
    outer loop
      vertex 160.752 95.3651 0
      vertex 160.67 95.3105 10
      vertex 160.67 95.3105 0
    endloop
  endfacet
  facet normal 0.554232 -0.832362 0
    outer loop
      vertex 160.752 95.3651 0
      vertex 160.752 95.3651 10
      vertex 160.67 95.3105 10
    endloop
  endfacet
  facet normal 0.252422 -0.967617 0
    outer loop
      vertex 161.212 95.4851 0
      vertex 160.752 95.3651 10
      vertex 160.752 95.3651 0
    endloop
  endfacet
  facet normal 0.252422 -0.967617 0
    outer loop
      vertex 161.212 95.4851 0
      vertex 161.212 95.4851 10
      vertex 160.752 95.3651 10
    endloop
  endfacet
  facet normal 0.108448 -0.994102 0
    outer loop
      vertex 161.256 95.4899 0
      vertex 161.212 95.4851 10
      vertex 161.212 95.4851 0
    endloop
  endfacet
  facet normal 0.108448 -0.994102 0
    outer loop
      vertex 161.256 95.4899 0
      vertex 161.256 95.4899 10
      vertex 161.212 95.4851 10
    endloop
  endfacet
  facet normal -0.0409656 -0.999161 0
    outer loop
      vertex 162.456 95.4407 0
      vertex 161.256 95.4899 10
      vertex 161.256 95.4899 0
    endloop
  endfacet
  facet normal -0.0409656 -0.999161 0
    outer loop
      vertex 162.456 95.4407 0
      vertex 162.456 95.4407 10
      vertex 161.256 95.4899 10
    endloop
  endfacet
  facet normal 0.228093 -0.973639 0
    outer loop
      vertex 163.953 95.7914 0
      vertex 162.456 95.4407 10
      vertex 162.456 95.4407 0
    endloop
  endfacet
  facet normal 0.228093 -0.973639 0
    outer loop
      vertex 163.953 95.7914 0
      vertex 163.953 95.7914 10
      vertex 162.456 95.4407 10
    endloop
  endfacet
  facet normal 0.862129 -0.50669 0
    outer loop
      vertex 164.087 96.0194 0
      vertex 163.953 95.7914 10
      vertex 163.953 95.7914 0
    endloop
  endfacet
  facet normal 0.862129 -0.50669 0
    outer loop
      vertex 164.087 96.0194 0
      vertex 164.087 96.0194 10
      vertex 163.953 95.7914 10
    endloop
  endfacet
  facet normal 0.956814 0.290702 0
    outer loop
      vertex 163.936 96.5164 0
      vertex 164.087 96.0194 10
      vertex 164.087 96.0194 0
    endloop
  endfacet
  facet normal 0.956814 0.290702 -0
    outer loop
      vertex 163.936 96.5164 0
      vertex 163.936 96.5164 10
      vertex 164.087 96.0194 10
    endloop
  endfacet
  facet normal 0.995945 -0.0899679 0
    outer loop
      vertex 163.946 96.6271 0
      vertex 163.936 96.5164 10
      vertex 163.936 96.5164 0
    endloop
  endfacet
  facet normal 0.995945 -0.0899679 0
    outer loop
      vertex 163.946 96.6271 0
      vertex 163.946 96.6271 10
      vertex 163.936 96.5164 10
    endloop
  endfacet
  facet normal 0.894427 -0.447214 0
    outer loop
      vertex 164.296 97.3271 0
      vertex 163.946 96.6271 10
      vertex 163.946 96.6271 0
    endloop
  endfacet
  facet normal 0.894427 -0.447214 0
    outer loop
      vertex 164.296 97.3271 0
      vertex 164.296 97.3271 10
      vertex 163.946 96.6271 10
    endloop
  endfacet
  facet normal 0.691604 -0.722276 0
    outer loop
      vertex 164.369 97.397 0
      vertex 164.296 97.3271 10
      vertex 164.296 97.3271 0
    endloop
  endfacet
  facet normal 0.691604 -0.722276 0
    outer loop
      vertex 164.369 97.397 0
      vertex 164.369 97.397 10
      vertex 164.296 97.3271 10
    endloop
  endfacet
  facet normal 0.407557 -0.91318 0
    outer loop
      vertex 166.142 98.1883 0
      vertex 164.369 97.397 10
      vertex 164.369 97.397 0
    endloop
  endfacet
  facet normal 0.407557 -0.91318 0
    outer loop
      vertex 166.142 98.1883 0
      vertex 166.142 98.1883 10
      vertex 164.369 97.397 10
    endloop
  endfacet
  facet normal 0.999746 -0.0225295 0
    outer loop
      vertex 166.15 98.5433 0
      vertex 166.142 98.1883 10
      vertex 166.142 98.1883 0
    endloop
  endfacet
  facet normal 0.999746 -0.0225295 0
    outer loop
      vertex 166.15 98.5433 0
      vertex 166.15 98.5433 10
      vertex 166.142 98.1883 10
    endloop
  endfacet
  facet normal 0.652194 -0.758052 0
    outer loop
      vertex 166.319 98.6887 0
      vertex 166.15 98.5433 10
      vertex 166.15 98.5433 0
    endloop
  endfacet
  facet normal 0.652194 -0.758052 0
    outer loop
      vertex 166.319 98.6887 0
      vertex 166.319 98.6887 10
      vertex 166.15 98.5433 10
    endloop
  endfacet
  facet normal -0.129864 -0.991532 0
    outer loop
      vertex 166.884 98.6147 0
      vertex 166.319 98.6887 10
      vertex 166.319 98.6887 0
    endloop
  endfacet
  facet normal -0.129864 -0.991532 0
    outer loop
      vertex 166.884 98.6147 0
      vertex 166.884 98.6147 10
      vertex 166.319 98.6887 10
    endloop
  endfacet
  facet normal 0.451126 -0.89246 0
    outer loop
      vertex 167.832 99.0939 0
      vertex 166.884 98.6147 10
      vertex 166.884 98.6147 0
    endloop
  endfacet
  facet normal 0.451126 -0.89246 0
    outer loop
      vertex 167.832 99.0939 0
      vertex 167.832 99.0939 10
      vertex 166.884 98.6147 10
    endloop
  endfacet
  facet normal -0.398457 -0.917187 0
    outer loop
      vertex 168.044 99.0018 0
      vertex 167.832 99.0939 10
      vertex 167.832 99.0939 0
    endloop
  endfacet
  facet normal -0.398457 -0.917187 0
    outer loop
      vertex 168.044 99.0018 0
      vertex 168.044 99.0018 10
      vertex 167.832 99.0939 10
    endloop
  endfacet
  facet normal -0.960216 -0.27926 0
    outer loop
      vertex 168.273 98.2144 0
      vertex 168.044 99.0018 10
      vertex 168.044 99.0018 0
    endloop
  endfacet
  facet normal -0.960216 -0.27926 0
    outer loop
      vertex 168.273 98.2144 0
      vertex 168.273 98.2144 10
      vertex 168.044 99.0018 10
    endloop
  endfacet
  facet normal 0.268804 -0.963195 0
    outer loop
      vertex 169.42 98.5345 0
      vertex 168.273 98.2144 10
      vertex 168.273 98.2144 0
    endloop
  endfacet
  facet normal 0.268804 -0.963195 0
    outer loop
      vertex 169.42 98.5345 0
      vertex 169.42 98.5345 10
      vertex 168.273 98.2144 10
    endloop
  endfacet
  facet normal -0.368048 -0.929807 0
    outer loop
      vertex 169.588 98.468 0
      vertex 169.42 98.5345 10
      vertex 169.42 98.5345 0
    endloop
  endfacet
  facet normal -0.368048 -0.929807 0
    outer loop
      vertex 169.588 98.468 0
      vertex 169.588 98.468 10
      vertex 169.42 98.5345 10
    endloop
  endfacet
  facet normal -0.847168 -0.531325 0
    outer loop
      vertex 169.606 98.4393 0
      vertex 169.588 98.468 10
      vertex 169.588 98.468 0
    endloop
  endfacet
  facet normal -0.847168 -0.531325 0
    outer loop
      vertex 169.606 98.4393 0
      vertex 169.606 98.4393 10
      vertex 169.588 98.468 10
    endloop
  endfacet
  facet normal 0.832801 -0.553573 0
    outer loop
      vertex 170.785 100.213 0
      vertex 169.606 98.4393 10
      vertex 169.606 98.4393 0
    endloop
  endfacet
  facet normal 0.832801 -0.553573 0
    outer loop
      vertex 170.785 100.213 0
      vertex 170.785 100.213 10
      vertex 169.606 98.4393 10
    endloop
  endfacet
  facet normal 0.447214 -0.894427 0
    outer loop
      vertex 170.919 100.28 0
      vertex 170.785 100.213 10
      vertex 170.785 100.213 0
    endloop
  endfacet
  facet normal 0.447214 -0.894427 0
    outer loop
      vertex 170.919 100.28 0
      vertex 170.919 100.28 10
      vertex 170.785 100.213 10
    endloop
  endfacet
  facet normal -0.0603926 -0.998175 0
    outer loop
      vertex 172.39 100.191 0
      vertex 170.919 100.28 10
      vertex 170.919 100.28 0
    endloop
  endfacet
  facet normal -0.0603926 -0.998175 0
    outer loop
      vertex 172.39 100.191 0
      vertex 172.39 100.191 10
      vertex 170.919 100.28 10
    endloop
  endfacet
  facet normal 0.194116 -0.980979 0
    outer loop
      vertex 173.522 100.415 0
      vertex 172.39 100.191 10
      vertex 172.39 100.191 0
    endloop
  endfacet
  facet normal 0.194116 -0.980979 0
    outer loop
      vertex 173.522 100.415 0
      vertex 173.522 100.415 10
      vertex 172.39 100.191 10
    endloop
  endfacet
  facet normal 0.818311 -0.574776 0
    outer loop
      vertex 174.197 101.376 0
      vertex 173.522 100.415 10
      vertex 173.522 100.415 0
    endloop
  endfacet
  facet normal 0.818311 -0.574776 0
    outer loop
      vertex 174.197 101.376 0
      vertex 174.197 101.376 10
      vertex 173.522 100.415 10
    endloop
  endfacet
  facet normal 0.651886 -0.758317 0
    outer loop
      vertex 174.254 101.425 0
      vertex 174.197 101.376 10
      vertex 174.197 101.376 0
    endloop
  endfacet
  facet normal 0.651886 -0.758317 0
    outer loop
      vertex 174.254 101.425 0
      vertex 174.254 101.425 10
      vertex 174.197 101.376 10
    endloop
  endfacet
  facet normal 0.437255 -0.899337 0
    outer loop
      vertex 177.152 102.834 0
      vertex 174.254 101.425 10
      vertex 174.254 101.425 0
    endloop
  endfacet
  facet normal 0.437255 -0.899337 0
    outer loop
      vertex 177.152 102.834 0
      vertex 177.152 102.834 10
      vertex 174.254 101.425 10
    endloop
  endfacet
  facet normal 0.87532 -0.483544 0
    outer loop
      vertex 177.289 103.082 0
      vertex 177.152 102.834 10
      vertex 177.152 102.834 0
    endloop
  endfacet
  facet normal 0.87532 -0.483544 0
    outer loop
      vertex 177.289 103.082 0
      vertex 177.289 103.082 10
      vertex 177.152 102.834 10
    endloop
  endfacet
  facet normal 0.566529 -0.824042 0
    outer loop
      vertex 177.401 103.159 0
      vertex 177.289 103.082 10
      vertex 177.289 103.082 0
    endloop
  endfacet
  facet normal 0.566529 -0.824042 0
    outer loop
      vertex 177.401 103.159 0
      vertex 177.401 103.159 10
      vertex 177.289 103.082 10
    endloop
  endfacet
  facet normal 0.129761 -0.991545 0
    outer loop
      vertex 178.104 103.251 0
      vertex 177.401 103.159 10
      vertex 177.401 103.159 0
    endloop
  endfacet
  facet normal 0.129761 -0.991545 0
    outer loop
      vertex 178.104 103.251 0
      vertex 178.104 103.251 10
      vertex 177.401 103.159 10
    endloop
  endfacet
  facet normal 0.999121 0.0419212 0
    outer loop
      vertex 178.092 103.537 0
      vertex 178.104 103.251 10
      vertex 178.104 103.251 0
    endloop
  endfacet
  facet normal 0.999121 0.0419212 -0
    outer loop
      vertex 178.092 103.537 0
      vertex 178.092 103.537 10
      vertex 178.104 103.251 10
    endloop
  endfacet
  facet normal 0.723935 0.689868 0
    outer loop
      vertex 177.525 104.132 0
      vertex 178.092 103.537 10
      vertex 178.092 103.537 0
    endloop
  endfacet
  facet normal 0.723935 0.689868 -0
    outer loop
      vertex 177.525 104.132 0
      vertex 177.525 104.132 10
      vertex 178.092 103.537 10
    endloop
  endfacet
  facet normal 0.189231 0.981933 0
    outer loop
      vertex 176.482 104.333 0
      vertex 177.525 104.132 10
      vertex 177.525 104.132 0
    endloop
  endfacet
  facet normal 0.189231 0.981933 -0
    outer loop
      vertex 176.482 104.333 0
      vertex 176.482 104.333 10
      vertex 177.525 104.132 10
    endloop
  endfacet
  facet normal 0.524097 0.851658 0
    outer loop
      vertex 176.391 104.389 0
      vertex 176.482 104.333 10
      vertex 176.482 104.333 0
    endloop
  endfacet
  facet normal 0.524097 0.851658 -0
    outer loop
      vertex 176.391 104.389 0
      vertex 176.391 104.389 10
      vertex 176.482 104.333 10
    endloop
  endfacet
  facet normal 0.795608 0.605812 0
    outer loop
      vertex 175.759 105.219 0
      vertex 176.391 104.389 10
      vertex 176.391 104.389 0
    endloop
  endfacet
  facet normal 0.795608 0.605812 -0
    outer loop
      vertex 175.759 105.219 0
      vertex 175.759 105.219 10
      vertex 176.391 104.389 10
    endloop
  endfacet
  facet normal 0.125155 0.992137 0
    outer loop
      vertex 171.074 105.81 0
      vertex 175.759 105.219 10
      vertex 175.759 105.219 0
    endloop
  endfacet
  facet normal 0.125155 0.992137 -0
    outer loop
      vertex 171.074 105.81 0
      vertex 171.074 105.81 10
      vertex 175.759 105.219 10
    endloop
  endfacet
  facet normal -0.0433849 0.999058 0
    outer loop
      vertex 168.587 105.702 0
      vertex 171.074 105.81 10
      vertex 171.074 105.81 0
    endloop
  endfacet
  facet normal -0.0433849 0.999058 0
    outer loop
      vertex 168.587 105.702 0
      vertex 168.587 105.702 10
      vertex 171.074 105.81 10
    endloop
  endfacet
  facet normal -0.634259 0.773121 0
    outer loop
      vertex 168.175 105.364 0
      vertex 168.587 105.702 10
      vertex 168.587 105.702 0
    endloop
  endfacet
  facet normal -0.634259 0.773121 0
    outer loop
      vertex 168.175 105.364 0
      vertex 168.175 105.364 10
      vertex 168.587 105.702 10
    endloop
  endfacet
  facet normal -0.28263 0.959229 0
    outer loop
      vertex 168.063 105.331 0
      vertex 168.175 105.364 10
      vertex 168.175 105.364 0
    endloop
  endfacet
  facet normal -0.28263 0.959229 0
    outer loop
      vertex 168.063 105.331 0
      vertex 168.063 105.331 10
      vertex 168.175 105.364 10
    endloop
  endfacet
  facet normal 0.115881 0.993263 0
    outer loop
      vertex 167.463 105.401 0
      vertex 168.063 105.331 10
      vertex 168.063 105.331 0
    endloop
  endfacet
  facet normal 0.115881 0.993263 -0
    outer loop
      vertex 167.463 105.401 0
      vertex 167.463 105.401 10
      vertex 168.063 105.331 10
    endloop
  endfacet
  facet normal 0.266586 0.963811 0
    outer loop
      vertex 167.416 105.414 0
      vertex 167.463 105.401 10
      vertex 167.463 105.401 0
    endloop
  endfacet
  facet normal 0.266586 0.963811 -0
    outer loop
      vertex 167.416 105.414 0
      vertex 167.416 105.414 10
      vertex 167.463 105.401 10
    endloop
  endfacet
  facet normal 0.428799 0.9034 0
    outer loop
      vertex 164.911 106.603 0
      vertex 167.416 105.414 10
      vertex 167.416 105.414 0
    endloop
  endfacet
  facet normal 0.428799 0.9034 -0
    outer loop
      vertex 164.911 106.603 0
      vertex 164.911 106.603 10
      vertex 167.416 105.414 10
    endloop
  endfacet
  facet normal -0.444501 0.895778 0
    outer loop
      vertex 163.589 105.947 0
      vertex 164.911 106.603 10
      vertex 164.911 106.603 0
    endloop
  endfacet
  facet normal -0.444501 0.895778 0
    outer loop
      vertex 163.589 105.947 0
      vertex 163.589 105.947 10
      vertex 164.911 106.603 10
    endloop
  endfacet
  facet normal -0.972028 0.234864 0
    outer loop
      vertex 163.315 104.813 0
      vertex 163.589 105.947 10
      vertex 163.589 105.947 0
    endloop
  endfacet
  facet normal -0.972028 0.234864 0
    outer loop
      vertex 163.315 104.813 0
      vertex 163.315 104.813 10
      vertex 163.589 105.947 10
    endloop
  endfacet
  facet normal -0.961593 -0.274478 0
    outer loop
      vertex 163.464 104.291 0
      vertex 163.315 104.813 10
      vertex 163.315 104.813 0
    endloop
  endfacet
  facet normal -0.961593 -0.274478 0
    outer loop
      vertex 163.464 104.291 0
      vertex 163.464 104.291 10
      vertex 163.315 104.813 10
    endloop
  endfacet
  facet normal -0.939793 0.341743 0
    outer loop
      vertex 163.404 104.126 0
      vertex 163.464 104.291 10
      vertex 163.464 104.291 0
    endloop
  endfacet
  facet normal -0.939793 0.341743 0
    outer loop
      vertex 163.404 104.126 0
      vertex 163.404 104.126 10
      vertex 163.464 104.291 10
    endloop
  endfacet
  facet normal -0.114353 0.99344 0
    outer loop
      vertex 163.265 104.11 0
      vertex 163.404 104.126 10
      vertex 163.404 104.126 0
    endloop
  endfacet
  facet normal -0.114353 0.99344 0
    outer loop
      vertex 163.265 104.11 0
      vertex 163.265 104.11 10
      vertex 163.404 104.126 10
    endloop
  endfacet
  facet normal 0.364412 0.931238 0
    outer loop
      vertex 160.569 105.165 0
      vertex 163.265 104.11 10
      vertex 163.265 104.11 0
    endloop
  endfacet
  facet normal 0.364412 0.931238 -0
    outer loop
      vertex 160.569 105.165 0
      vertex 160.569 105.165 10
      vertex 163.265 104.11 10
    endloop
  endfacet
  facet normal 0.18302 0.983109 0
    outer loop
      vertex 159.586 105.348 0
      vertex 160.569 105.165 10
      vertex 160.569 105.165 0
    endloop
  endfacet
  facet normal 0.18302 0.983109 -0
    outer loop
      vertex 159.586 105.348 0
      vertex 159.586 105.348 10
      vertex 160.569 105.165 10
    endloop
  endfacet
  facet normal -0.136308 0.990667 0
    outer loop
      vertex 158.772 105.236 0
      vertex 159.586 105.348 10
      vertex 159.586 105.348 0
    endloop
  endfacet
  facet normal -0.136308 0.990667 0
    outer loop
      vertex 158.772 105.236 0
      vertex 158.772 105.236 10
      vertex 159.586 105.348 10
    endloop
  endfacet
  facet normal -0.523263 0.852171 0
    outer loop
      vertex 158.259 104.921 0
      vertex 158.772 105.236 10
      vertex 158.772 105.236 0
    endloop
  endfacet
  facet normal -0.523263 0.852171 0
    outer loop
      vertex 158.259 104.921 0
      vertex 158.259 104.921 10
      vertex 158.772 105.236 10
    endloop
  endfacet
  facet normal -0.849076 0.528271 0
    outer loop
      vertex 157.709 104.037 0
      vertex 158.259 104.921 10
      vertex 158.259 104.921 0
    endloop
  endfacet
  facet normal -0.849076 0.528271 0
    outer loop
      vertex 157.709 104.037 0
      vertex 157.709 104.037 10
      vertex 158.259 104.921 10
    endloop
  endfacet
  facet normal -0.919145 -0.393919 0
    outer loop
      vertex 157.733 103.981 0
      vertex 157.709 104.037 10
      vertex 157.709 104.037 0
    endloop
  endfacet
  facet normal -0.919145 -0.393919 0
    outer loop
      vertex 157.733 103.981 0
      vertex 157.733 103.981 10
      vertex 157.709 104.037 10
    endloop
  endfacet
  facet normal 0.478852 -0.877896 0
    outer loop
      vertex 157.788 104.011 0
      vertex 157.733 103.981 10
      vertex 157.733 103.981 0
    endloop
  endfacet
  facet normal 0.478852 -0.877896 0
    outer loop
      vertex 157.788 104.011 0
      vertex 157.788 104.011 10
      vertex 157.733 103.981 10
    endloop
  endfacet
  facet normal -0.0995037 -0.995037 0
    outer loop
      vertex 157.958 103.994 0
      vertex 157.788 104.011 10
      vertex 157.788 104.011 0
    endloop
  endfacet
  facet normal -0.0995037 -0.995037 0
    outer loop
      vertex 157.958 103.994 0
      vertex 157.958 103.994 10
      vertex 157.788 104.011 10
    endloop
  endfacet
  facet normal -0.652242 -0.758011 0
    outer loop
      vertex 158.388 103.624 0
      vertex 157.958 103.994 10
      vertex 157.958 103.994 0
    endloop
  endfacet
  facet normal -0.652242 -0.758011 0
    outer loop
      vertex 158.388 103.624 0
      vertex 158.388 103.624 10
      vertex 157.958 103.994 10
    endloop
  endfacet
  facet normal -0.974008 -0.226513 0
    outer loop
      vertex 158.428 103.452 0
      vertex 158.388 103.624 10
      vertex 158.388 103.624 0
    endloop
  endfacet
  facet normal -0.974008 -0.226513 0
    outer loop
      vertex 158.428 103.452 0
      vertex 158.428 103.452 10
      vertex 158.388 103.624 10
    endloop
  endfacet
  facet normal -0.725464 0.68826 0
    outer loop
      vertex 158.354 103.374 0
      vertex 158.428 103.452 10
      vertex 158.428 103.452 0
    endloop
  endfacet
  facet normal -0.725464 0.68826 0
    outer loop
      vertex 158.354 103.374 0
      vertex 158.354 103.374 10
      vertex 158.428 103.452 10
    endloop
  endfacet
  facet normal -0.424664 0.905351 0
    outer loop
      vertex 157.546 102.995 0
      vertex 158.354 103.374 10
      vertex 158.354 103.374 0
    endloop
  endfacet
  facet normal -0.424664 0.905351 0
    outer loop
      vertex 157.546 102.995 0
      vertex 157.546 102.995 10
      vertex 158.354 103.374 10
    endloop
  endfacet
  facet normal -0.695022 0.718988 0
    outer loop
      vertex 156.196 101.69 0
      vertex 157.546 102.995 10
      vertex 157.546 102.995 0
    endloop
  endfacet
  facet normal -0.695022 0.718988 0
    outer loop
      vertex 156.196 101.69 0
      vertex 156.196 101.69 10
      vertex 157.546 102.995 10
    endloop
  endfacet
  facet normal -0.504996 -0.863121 0
    outer loop
      vertex 156.625 101.439 0
      vertex 156.196 101.69 10
      vertex 156.196 101.69 0
    endloop
  endfacet
  facet normal -0.504996 -0.863121 0
    outer loop
      vertex 156.625 101.439 0
      vertex 156.625 101.439 10
      vertex 156.196 101.69 10
    endloop
  endfacet
  facet normal 0.219082 -0.975706 0
    outer loop
      vertex 157.057 101.536 0
      vertex 156.625 101.439 10
      vertex 156.625 101.439 0
    endloop
  endfacet
  facet normal 0.219082 -0.975706 0
    outer loop
      vertex 157.057 101.536 0
      vertex 157.057 101.536 10
      vertex 156.625 101.439 10
    endloop
  endfacet
  facet normal -0.404055 -0.914735 0
    outer loop
      vertex 157.22 101.464 0
      vertex 157.057 101.536 10
      vertex 157.057 101.536 0
    endloop
  endfacet
  facet normal -0.404055 -0.914735 0
    outer loop
      vertex 157.22 101.464 0
      vertex 157.22 101.464 10
      vertex 157.057 101.536 10
    endloop
  endfacet
  facet normal -0.869374 -0.494155 0
    outer loop
      vertex 157.569 100.85 0
      vertex 157.22 101.464 10
      vertex 157.22 101.464 0
    endloop
  endfacet
  facet normal -0.869374 -0.494155 0
    outer loop
      vertex 157.569 100.85 0
      vertex 157.569 100.85 10
      vertex 157.22 101.464 10
    endloop
  endfacet
  facet normal -0.246383 -0.969173 0
    outer loop
      vertex 158.517 100.609 0
      vertex 157.569 100.85 10
      vertex 157.569 100.85 0
    endloop
  endfacet
  facet normal -0.246383 -0.969173 0
    outer loop
      vertex 158.517 100.609 0
      vertex 158.517 100.609 10
      vertex 157.569 100.85 10
    endloop
  endfacet
  facet normal 0.995737 -0.0922367 0
    outer loop
      vertex 158.561 101.084 0
      vertex 158.517 100.609 10
      vertex 158.517 100.609 0
    endloop
  endfacet
  facet normal 0.995737 -0.0922367 0
    outer loop
      vertex 158.561 101.084 0
      vertex 158.561 101.084 10
      vertex 158.517 100.609 10
    endloop
  endfacet
  facet normal 0.642522 -0.766267 0
    outer loop
      vertex 158.722 101.219 0
      vertex 158.561 101.084 10
      vertex 158.561 101.084 0
    endloop
  endfacet
  facet normal 0.642522 -0.766267 0
    outer loop
      vertex 158.722 101.219 0
      vertex 158.722 101.219 10
      vertex 158.561 101.084 10
    endloop
  endfacet
  facet normal -0.0803842 -0.996764 0
    outer loop
      vertex 158.97 101.199 0
      vertex 158.722 101.219 10
      vertex 158.722 101.219 0
    endloop
  endfacet
  facet normal -0.0803842 -0.996764 0
    outer loop
      vertex 158.97 101.199 0
      vertex 158.97 101.199 10
      vertex 158.722 101.219 10
    endloop
  endfacet
  facet normal 0.960363 -0.278753 0
    outer loop
      vertex 159.116 101.702 0
      vertex 158.97 101.199 10
      vertex 158.97 101.199 0
    endloop
  endfacet
  facet normal 0.960363 -0.278753 0
    outer loop
      vertex 159.116 101.702 0
      vertex 159.116 101.702 10
      vertex 158.97 101.199 10
    endloop
  endfacet
  facet normal 0.613547 -0.789658 0
    outer loop
      vertex 159.255 101.81 0
      vertex 159.116 101.702 10
      vertex 159.116 101.702 0
    endloop
  endfacet
  facet normal 0.613547 -0.789658 0
    outer loop
      vertex 159.255 101.81 0
      vertex 159.255 101.81 10
      vertex 159.116 101.702 10
    endloop
  endfacet
  facet normal -0.529458 -0.848336 0
    outer loop
      vertex 159.396 101.722 0
      vertex 159.255 101.81 10
      vertex 159.255 101.81 0
    endloop
  endfacet
  facet normal -0.529458 -0.848336 0
    outer loop
      vertex 159.396 101.722 0
      vertex 159.396 101.722 10
      vertex 159.255 101.81 10
    endloop
  endfacet
  facet normal -0.909743 -0.415172 0
    outer loop
      vertex 159.83 100.771 0
      vertex 159.396 101.722 10
      vertex 159.396 101.722 0
    endloop
  endfacet
  facet normal -0.909743 -0.415172 0
    outer loop
      vertex 159.83 100.771 0
      vertex 159.83 100.771 10
      vertex 159.396 101.722 10
    endloop
  endfacet
  facet normal -0.0934521 -0.995624 0
    outer loop
      vertex 160.384 100.719 0
      vertex 159.83 100.771 10
      vertex 159.83 100.771 0
    endloop
  endfacet
  facet normal -0.0934521 -0.995624 0
    outer loop
      vertex 160.384 100.719 0
      vertex 160.384 100.719 10
      vertex 159.83 100.771 10
    endloop
  endfacet
  facet normal -0.699118 -0.715007 0
    outer loop
      vertex 160.519 100.587 0
      vertex 160.384 100.719 10
      vertex 160.384 100.719 0
    endloop
  endfacet
  facet normal -0.699118 -0.715007 0
    outer loop
      vertex 160.519 100.587 0
      vertex 160.519 100.587 10
      vertex 160.384 100.719 10
    endloop
  endfacet
  facet normal -0.993487 -0.113948 0
    outer loop
      vertex 160.551 100.308 0
      vertex 160.519 100.587 10
      vertex 160.519 100.587 0
    endloop
  endfacet
  facet normal -0.993487 -0.113948 0
    outer loop
      vertex 160.551 100.308 0
      vertex 160.551 100.308 10
      vertex 160.519 100.587 10
    endloop
  endfacet
  facet normal 0.128102 -0.991761 0
    outer loop
      vertex 160.791 100.339 0
      vertex 160.551 100.308 10
      vertex 160.551 100.308 0
    endloop
  endfacet
  facet normal 0.128102 -0.991761 0
    outer loop
      vertex 160.791 100.339 0
      vertex 160.791 100.339 10
      vertex 160.551 100.308 10
    endloop
  endfacet
  facet normal -0.266756 -0.963764 0
    outer loop
      vertex 160.903 100.308 0
      vertex 160.791 100.339 10
      vertex 160.791 100.339 0
    endloop
  endfacet
  facet normal -0.266756 -0.963764 0
    outer loop
      vertex 160.903 100.308 0
      vertex 160.903 100.308 10
      vertex 160.791 100.339 10
    endloop
  endfacet
  facet normal -0.617239 -0.786776 0
    outer loop
      vertex 161.523 99.8216 0
      vertex 160.903 100.308 10
      vertex 160.903 100.308 0
    endloop
  endfacet
  facet normal -0.617239 -0.786776 0
    outer loop
      vertex 161.523 99.8216 0
      vertex 161.523 99.8216 10
      vertex 160.903 100.308 10
    endloop
  endfacet
  facet normal -0.165979 -0.986129 0
    outer loop
      vertex 162.555 99.6479 0
      vertex 161.523 99.8216 10
      vertex 161.523 99.8216 0
    endloop
  endfacet
  facet normal -0.165979 -0.986129 0
    outer loop
      vertex 162.555 99.6479 0
      vertex 162.555 99.6479 10
      vertex 161.523 99.8216 10
    endloop
  endfacet
  facet normal -0.715297 -0.698821 0
    outer loop
      vertex 162.678 99.522 0
      vertex 162.555 99.6479 10
      vertex 162.555 99.6479 0
    endloop
  endfacet
  facet normal -0.715297 -0.698821 0
    outer loop
      vertex 162.678 99.522 0
      vertex 162.678 99.522 10
      vertex 162.555 99.6479 10
    endloop
  endfacet
  facet normal -0.919473 0.393154 0
    outer loop
      vertex 162.616 99.377 0
      vertex 162.678 99.522 10
      vertex 162.678 99.522 0
    endloop
  endfacet
  facet normal -0.919473 0.393154 0
    outer loop
      vertex 162.616 99.377 0
      vertex 162.616 99.377 10
      vertex 162.678 99.522 10
    endloop
  endfacet
  facet normal -0.572074 0.820202 0
    outer loop
      vertex 161.426 98.547 0
      vertex 162.616 99.377 10
      vertex 162.616 99.377 0
    endloop
  endfacet
  facet normal -0.572074 0.820202 0
    outer loop
      vertex 161.426 98.547 0
      vertex 161.426 98.547 10
      vertex 162.616 99.377 10
    endloop
  endfacet
  facet normal -0.143609 0.989635 0
    outer loop
      vertex 161.293 98.5277 0
      vertex 161.426 98.547 10
      vertex 161.426 98.547 0
    endloop
  endfacet
  facet normal -0.143609 0.989635 0
    outer loop
      vertex 161.293 98.5277 0
      vertex 161.293 98.5277 10
      vertex 161.426 98.547 10
    endloop
  endfacet
  facet normal 0.315242 0.949011 0
    outer loop
      vertex 161.004 98.6237 0
      vertex 161.293 98.5277 10
      vertex 161.293 98.5277 0
    endloop
  endfacet
  facet normal 0.315242 0.949011 -0
    outer loop
      vertex 161.004 98.6237 0
      vertex 161.004 98.6237 10
      vertex 161.293 98.5277 10
    endloop
  endfacet
  facet normal -0.981409 0.191928 0
    outer loop
      vertex 160.937 98.2811 0
      vertex 161.004 98.6237 10
      vertex 161.004 98.6237 0
    endloop
  endfacet
  facet normal -0.981409 0.191928 0
    outer loop
      vertex 160.937 98.2811 0
      vertex 160.937 98.2811 10
      vertex 161.004 98.6237 10
    endloop
  endfacet
  facet normal -0.557527 0.830159 0
    outer loop
      vertex 160.761 98.1629 0
      vertex 160.937 98.2811 10
      vertex 160.937 98.2811 0
    endloop
  endfacet
  facet normal -0.557527 0.830159 0
    outer loop
      vertex 160.761 98.1629 0
      vertex 160.761 98.1629 10
      vertex 160.937 98.2811 10
    endloop
  endfacet
  facet normal 0.195896 0.980625 0
    outer loop
      vertex 160.332 98.2486 0
      vertex 160.761 98.1629 10
      vertex 160.761 98.1629 0
    endloop
  endfacet
  facet normal 0.195896 0.980625 -0
    outer loop
      vertex 160.332 98.2486 0
      vertex 160.332 98.2486 10
      vertex 160.761 98.1629 10
    endloop
  endfacet
  facet normal -0.650394 0.759597 0
    outer loop
      vertex 159.418 97.466 0
      vertex 160.332 98.2486 10
      vertex 160.332 98.2486 0
    endloop
  endfacet
  facet normal -0.650394 0.759597 0
    outer loop
      vertex 159.418 97.466 0
      vertex 159.418 97.466 10
      vertex 160.332 98.2486 10
    endloop
  endfacet
  facet normal -0.142554 0.989787 0
    outer loop
      vertex 159.259 97.4431 0
      vertex 159.418 97.466 10
      vertex 159.418 97.466 0
    endloop
  endfacet
  facet normal -0.142554 0.989787 0
    outer loop
      vertex 159.259 97.4431 0
      vertex 159.259 97.4431 10
      vertex 159.418 97.466 10
    endloop
  endfacet
  facet normal 0.408898 0.91258 0
    outer loop
      vertex 158.431 97.8141 0
      vertex 159.259 97.4431 10
      vertex 159.259 97.4431 0
    endloop
  endfacet
  facet normal 0.408898 0.91258 -0
    outer loop
      vertex 158.431 97.8141 0
      vertex 158.431 97.8141 10
      vertex 159.259 97.4431 10
    endloop
  endfacet
  facet normal -0.178946 0.983859 0
    outer loop
      vertex 157.857 97.7097 0
      vertex 158.431 97.8141 10
      vertex 158.431 97.8141 0
    endloop
  endfacet
  facet normal -0.178946 0.983859 0
    outer loop
      vertex 157.857 97.7097 0
      vertex 157.857 97.7097 10
      vertex 158.431 97.8141 10
    endloop
  endfacet
  facet normal -0.10934 -0.994004 0
    outer loop
      vertex 157.867 97.7086 0
      vertex 157.857 97.7097 10
      vertex 157.857 97.7097 0
    endloop
  endfacet
  facet normal -0.10934 -0.994004 0
    outer loop
      vertex 157.867 97.7086 0
      vertex 157.867 97.7086 10
      vertex 157.857 97.7097 10
    endloop
  endfacet
  facet normal -0.514496 -0.857493 0
    outer loop
      vertex 158.367 97.4086 0
      vertex 157.867 97.7086 10
      vertex 157.867 97.7086 0
    endloop
  endfacet
  facet normal -0.514496 -0.857493 0
    outer loop
      vertex 158.367 97.4086 0
      vertex 158.367 97.4086 10
      vertex 157.867 97.7086 10
    endloop
  endfacet
  facet normal -0.895903 -0.444249 0
    outer loop
      vertex 158.439 97.2634 0
      vertex 158.367 97.4086 10
      vertex 158.367 97.4086 0
    endloop
  endfacet
  facet normal -0.895903 -0.444249 0
    outer loop
      vertex 158.439 97.2634 0
      vertex 158.439 97.2634 10
      vertex 158.367 97.4086 10
    endloop
  endfacet
  facet normal -0.993884 0.110432 0
    outer loop
      vertex 158.389 96.8134 0
      vertex 158.439 97.2634 10
      vertex 158.439 97.2634 0
    endloop
  endfacet
  facet normal -0.993884 0.110432 0
    outer loop
      vertex 158.389 96.8134 0
      vertex 158.389 96.8134 10
      vertex 158.439 97.2634 10
    endloop
  endfacet
  facet normal -0.667029 0.745032 0
    outer loop
      vertex 158.24 96.68 0
      vertex 158.389 96.8134 10
      vertex 158.389 96.8134 0
    endloop
  endfacet
  facet normal -0.667029 0.745032 0
    outer loop
      vertex 158.24 96.68 0
      vertex 158.24 96.68 10
      vertex 158.389 96.8134 10
    endloop
  endfacet
  facet normal 0 1 0
    outer loop
      vertex 157.8 96.68 0
      vertex 158.24 96.68 10
      vertex 158.24 96.68 0
    endloop
  endfacet
  facet normal 0 1 0
    outer loop
      vertex 157.8 96.68 0
      vertex 157.8 96.68 10
      vertex 158.24 96.68 10
    endloop
  endfacet
  facet normal 0.702345 0.711836 0
    outer loop
      vertex 157.65 96.828 0
      vertex 157.8 96.68 10
      vertex 157.8 96.68 0
    endloop
  endfacet
  facet normal 0.702345 0.711836 -0
    outer loop
      vertex 157.65 96.828 0
      vertex 157.65 96.828 10
      vertex 157.8 96.68 10
    endloop
  endfacet
  facet normal 0.999911 0.0133321 0
    outer loop
      vertex 157.64 97.578 0
      vertex 157.65 96.828 10
      vertex 157.65 96.828 0
    endloop
  endfacet
  facet normal 0.999911 0.0133321 -0
    outer loop
      vertex 157.64 97.578 0
      vertex 157.64 97.578 10
      vertex 157.65 96.828 10
    endloop
  endfacet
  facet normal 0.8175 -0.575929 0
    outer loop
      vertex 157.676 97.6291 0
      vertex 157.64 97.578 10
      vertex 157.64 97.578 0
    endloop
  endfacet
  facet normal 0.8175 -0.575929 0
    outer loop
      vertex 157.676 97.6291 0
      vertex 157.676 97.6291 10
      vertex 157.64 97.578 10
    endloop
  endfacet
  facet normal -0.651038 0.759045 0
    outer loop
      vertex 156.839 96.9112 0
      vertex 157.676 97.6291 10
      vertex 157.676 97.6291 0
    endloop
  endfacet
  facet normal -0.651038 0.759045 0
    outer loop
      vertex 156.839 96.9112 0
      vertex 156.839 96.9112 10
      vertex 157.676 97.6291 10
    endloop
  endfacet
  facet normal -0.196545 -0.980495 0
    outer loop
      vertex 157.059 96.8671 0
      vertex 156.839 96.9112 10
      vertex 156.839 96.9112 0
    endloop
  endfacet
  facet normal -0.196545 -0.980495 0
    outer loop
      vertex 157.059 96.8671 0
      vertex 157.059 96.8671 10
      vertex 156.839 96.9112 10
    endloop
  endfacet
  facet normal -0.733761 -0.679408 0
    outer loop
      vertex 157.179 96.7375 0
      vertex 157.059 96.8671 10
      vertex 157.059 96.8671 0
    endloop
  endfacet
  facet normal -0.733761 -0.679408 0
    outer loop
      vertex 157.179 96.7375 0
      vertex 157.179 96.7375 10
      vertex 157.059 96.8671 10
    endloop
  endfacet
  facet normal -0.929149 0.369706 0
    outer loop
      vertex 157.126 96.6043 0
      vertex 157.179 96.7375 10
      vertex 157.179 96.7375 0
    endloop
  endfacet
  facet normal -0.929149 0.369706 0
    outer loop
      vertex 157.126 96.6043 0
      vertex 157.126 96.6043 10
      vertex 157.179 96.7375 10
    endloop
  endfacet
  facet normal -0.636682 0.771126 0
    outer loop
      vertex 156.896 96.4144 0
      vertex 157.126 96.6043 10
      vertex 157.126 96.6043 0
    endloop
  endfacet
  facet normal -0.636682 0.771126 0
    outer loop
      vertex 156.896 96.4144 0
      vertex 156.896 96.4144 10
      vertex 157.126 96.6043 10
    endloop
  endfacet
  facet normal 0.158077 0.987427 0
    outer loop
      vertex 156.673 96.4501 0
      vertex 156.896 96.4144 10
      vertex 156.896 96.4144 0
    endloop
  endfacet
  facet normal 0.158077 0.987427 -0
    outer loop
      vertex 156.673 96.4501 0
      vertex 156.673 96.4501 10
      vertex 156.896 96.4144 10
    endloop
  endfacet
  facet normal 0.846233 0.532813 0
    outer loop
      vertex 156.503 96.7201 0
      vertex 156.673 96.4501 10
      vertex 156.673 96.4501 0
    endloop
  endfacet
  facet normal 0.846233 0.532813 -0
    outer loop
      vertex 156.503 96.7201 0
      vertex 156.503 96.7201 10
      vertex 156.673 96.4501 10
    endloop
  endfacet
  facet normal 0.997681 -0.0680624 0
    outer loop
      vertex 156.515 96.896 0
      vertex 156.503 96.7201 10
      vertex 156.503 96.7201 0
    endloop
  endfacet
  facet normal 0.997681 -0.0680624 0
    outer loop
      vertex 156.515 96.896 0
      vertex 156.515 96.896 10
      vertex 156.503 96.7201 10
    endloop
  endfacet
  facet normal 0.33275 -0.943015 0
    outer loop
      vertex 156.585 96.9207 0
      vertex 156.515 96.896 10
      vertex 156.515 96.896 0
    endloop
  endfacet
  facet normal 0.33275 -0.943015 0
    outer loop
      vertex 156.585 96.9207 0
      vertex 156.585 96.9207 10
      vertex 156.515 96.896 10
    endloop
  endfacet
  facet normal 0.200824 0.979627 0
    outer loop
      vertex 156.565 96.9248 0
      vertex 156.585 96.9207 10
      vertex 156.585 96.9207 0
    endloop
  endfacet
  facet normal 0.200824 0.979627 -0
    outer loop
      vertex 156.565 96.9248 0
      vertex 156.565 96.9248 10
      vertex 156.585 96.9207 10
    endloop
  endfacet
  facet normal 0.900398 0.435066 0
    outer loop
      vertex 156.45 97.1628 0
      vertex 156.565 96.9248 10
      vertex 156.565 96.9248 0
    endloop
  endfacet
  facet normal 0.900398 0.435066 -0
    outer loop
      vertex 156.45 97.1628 0
      vertex 156.45 97.1628 10
      vertex 156.565 96.9248 10
    endloop
  endfacet
  facet normal 0.377267 0.926105 0
    outer loop
      vertex 155.473 97.5608 0
      vertex 156.45 97.1628 10
      vertex 156.45 97.1628 0
    endloop
  endfacet
  facet normal 0.377267 0.926105 -0
    outer loop
      vertex 155.473 97.5608 0
      vertex 155.473 97.5608 10
      vertex 156.45 97.1628 10
    endloop
  endfacet
  facet normal -0.295515 0.955338 0
    outer loop
      vertex 154.637 97.3022 0
      vertex 155.473 97.5608 10
      vertex 155.473 97.5608 0
    endloop
  endfacet
  facet normal -0.295515 0.955338 0
    outer loop
      vertex 154.637 97.3022 0
      vertex 154.637 97.3022 10
      vertex 155.473 97.5608 10
    endloop
  endfacet
  facet normal -0.974191 0.225724 0
    outer loop
      vertex 154.536 96.8663 0
      vertex 154.637 97.3022 10
      vertex 154.637 97.3022 0
    endloop
  endfacet
  facet normal -0.974191 0.225724 0
    outer loop
      vertex 154.536 96.8663 0
      vertex 154.536 96.8663 10
      vertex 154.637 97.3022 10
    endloop
  endfacet
  facet normal -0.62306 0.782174 0
    outer loop
      vertex 154.39 96.75 0
      vertex 154.536 96.8663 10
      vertex 154.536 96.8663 0
    endloop
  endfacet
  facet normal -0.62306 0.782174 0
    outer loop
      vertex 154.39 96.75 0
      vertex 154.39 96.75 10
      vertex 154.536 96.8663 10
    endloop
  endfacet
  facet normal 0 1 0
    outer loop
      vertex 154.105 96.75 0
      vertex 154.39 96.75 10
      vertex 154.39 96.75 0
    endloop
  endfacet
  facet normal 0 1 0
    outer loop
      vertex 154.105 96.75 0
      vertex 154.105 96.75 10
      vertex 154.39 96.75 10
    endloop
  endfacet
  facet normal -0.99939 -0.0349185 0
    outer loop
      vertex 154.134 95.92 0
      vertex 154.105 96.75 10
      vertex 154.105 96.75 0
    endloop
  endfacet
  facet normal -0.99939 -0.0349185 0
    outer loop
      vertex 154.134 95.92 0
      vertex 154.134 95.92 10
      vertex 154.105 96.75 10
    endloop
  endfacet
  facet normal 0.0669909 -0.997754 0
    outer loop
      vertex 156.66 96.0896 0
      vertex 154.134 95.92 10
      vertex 154.134 95.92 0
    endloop
  endfacet
  facet normal 0.0669909 -0.997754 0
    outer loop
      vertex 156.66 96.0896 0
      vertex 156.66 96.0896 10
      vertex 154.134 95.92 10
    endloop
  endfacet
  facet normal -0.30868 -0.951166 0
    outer loop
      vertex 156.766 96.0552 0
      vertex 156.66 96.0896 10
      vertex 156.66 96.0896 0
    endloop
  endfacet
  facet normal -0.30868 -0.951166 0
    outer loop
      vertex 156.766 96.0552 0
      vertex 156.766 96.0552 10
      vertex 156.66 96.0896 10
    endloop
  endfacet
  facet normal -0.640261 -0.768157 0
    outer loop
      vertex 157.357 95.5626 0
      vertex 156.766 96.0552 10
      vertex 156.766 96.0552 0
    endloop
  endfacet
  facet normal -0.640261 -0.768157 0
    outer loop
      vertex 157.357 95.5626 0
      vertex 157.357 95.5626 10
      vertex 156.766 96.0552 10
    endloop
  endfacet
  facet normal 0.373493 -0.927633 0
    outer loop
      vertex 158.764 96.1291 0
      vertex 157.357 95.5626 10
      vertex 157.357 95.5626 0
    endloop
  endfacet
  facet normal 0.373493 -0.927633 0
    outer loop
      vertex 158.764 96.1291 0
      vertex 158.764 96.1291 10
      vertex 157.357 95.5626 10
    endloop
  endfacet
  facet normal -0.466721 -0.884405 0
    outer loop
      vertex 158.966 96.0225 0
      vertex 158.764 96.1291 10
      vertex 158.764 96.1291 0
    endloop
  endfacet
  facet normal -0.466721 -0.884405 0
    outer loop
      vertex 158.966 96.0225 0
      vertex 158.966 96.0225 10
      vertex 158.764 96.1291 10
    endloop
  endfacet
  facet normal -0.975668 -0.219251 0
    outer loop
      vertex 159.028 95.7466 0
      vertex 158.966 96.0225 10
      vertex 158.966 96.0225 0
    endloop
  endfacet
  facet normal -0.975668 -0.219251 0
    outer loop
      vertex 159.028 95.7466 0
      vertex 159.028 95.7466 10
      vertex 158.966 96.0225 10
    endloop
  endfacet
  facet normal -0.304652 -0.952464 0
    outer loop
      vertex 159.446 95.6129 0
      vertex 159.028 95.7466 10
      vertex 159.028 95.7466 0
    endloop
  endfacet
  facet normal -0.304652 -0.952464 0
    outer loop
      vertex 159.446 95.6129 0
      vertex 159.446 95.6129 10
      vertex 159.028 95.7466 10
    endloop
  endfacet
  facet normal -0.727263 -0.686359 0
    outer loop
      vertex 159.545 95.508 0
      vertex 159.446 95.6129 10
      vertex 159.446 95.6129 0
    endloop
  endfacet
  facet normal -0.727263 -0.686359 0
    outer loop
      vertex 159.545 95.508 0
      vertex 159.545 95.508 10
      vertex 159.446 95.6129 10
    endloop
  endfacet
  facet normal -0.96734 -0.253484 0
    outer loop
      vertex 159.613 95.2485 0
      vertex 159.545 95.508 10
      vertex 159.545 95.508 0
    endloop
  endfacet
  facet normal -0.96734 -0.253484 0
    outer loop
      vertex 159.613 95.2485 0
      vertex 159.613 95.2485 10
      vertex 159.545 95.508 10
    endloop
  endfacet
  facet normal 0.348998 -0.937124 0
    outer loop
      vertex 160.048 95.4105 0
      vertex 159.613 95.2485 10
      vertex 159.613 95.2485 0
    endloop
  endfacet
  facet normal 0.348998 -0.937124 0
    outer loop
      vertex 160.048 95.4105 0
      vertex 160.048 95.4105 10
      vertex 159.613 95.2485 10
    endloop
  endfacet
  facet normal -0.219074 -0.975708 0
    outer loop
      vertex 160.207 95.3748 0
      vertex 160.048 95.4105 10
      vertex 160.048 95.4105 0
    endloop
  endfacet
  facet normal -0.219074 -0.975708 0
    outer loop
      vertex 160.207 95.3748 0
      vertex 160.207 95.3748 10
      vertex 160.048 95.4105 10
    endloop
  endfacet
  facet normal -0.714689 -0.699442 0
    outer loop
      vertex 160.496 95.0795 0
      vertex 160.207 95.3748 10
      vertex 160.207 95.3748 0
    endloop
  endfacet
  facet normal -0.714689 -0.699442 0
    outer loop
      vertex 160.496 95.0795 0
      vertex 160.496 95.0795 10
      vertex 160.207 95.3748 10
    endloop
  endfacet
  facet normal 0.798753 -0.601658 0
    outer loop
      vertex 160.67 95.3105 0
      vertex 160.496 95.0795 10
      vertex 160.496 95.0795 0
    endloop
  endfacet
  facet normal 0.798753 -0.601658 0
    outer loop
      vertex 160.67 95.3105 0
      vertex 160.67 95.3105 10
      vertex 160.496 95.0795 10
    endloop
  endfacet
  facet normal 0.913063 0.40782 -0
    outer loop
      vertex 159.113 97.0114 0
      vertex 159.113 97.0114 10
      vertex 159.185 96.8502 0
    endloop
  endfacet
  facet normal 0.913063 0.40782 0
    outer loop
      vertex 159.185 96.8502 10
      vertex 159.185 96.8502 0
      vertex 159.113 97.0114 10
    endloop
  endfacet
  facet normal 0.793782 -0.608202 0
    outer loop
      vertex 159.191 97.1132 0
      vertex 159.191 97.1132 10
      vertex 159.113 97.0114 0
    endloop
  endfacet
  facet normal 0.793782 -0.608202 0
    outer loop
      vertex 159.113 97.0114 10
      vertex 159.113 97.0114 0
      vertex 159.191 97.1132 10
    endloop
  endfacet
  facet normal 0.460317 -0.887755 0
    outer loop
      vertex 159.461 97.2532 0
      vertex 159.461 97.2532 10
      vertex 159.191 97.1132 0
    endloop
  endfacet
  facet normal 0.460317 -0.887755 0
    outer loop
      vertex 159.191 97.1132 10
      vertex 159.191 97.1132 0
      vertex 159.461 97.2532 10
    endloop
  endfacet
  facet normal -0.150007 -0.988685 0
    outer loop
      vertex 159.635 97.2268 0
      vertex 159.635 97.2268 10
      vertex 159.461 97.2532 0
    endloop
  endfacet
  facet normal -0.150007 -0.988685 -0
    outer loop
      vertex 159.461 97.2532 10
      vertex 159.461 97.2532 0
      vertex 159.635 97.2268 10
    endloop
  endfacet
  facet normal -0.970329 -0.241787 0
    outer loop
      vertex 159.673 97.0743 0
      vertex 159.673 97.0743 10
      vertex 159.635 97.2268 0
    endloop
  endfacet
  facet normal -0.970329 -0.241787 -0
    outer loop
      vertex 159.635 97.2268 10
      vertex 159.635 97.2268 0
      vertex 159.673 97.0743 10
    endloop
  endfacet
  facet normal -0.952424 0.304776 0
    outer loop
      vertex 159.593 96.8243 0
      vertex 159.593 96.8243 10
      vertex 159.673 97.0743 0
    endloop
  endfacet
  facet normal -0.952424 0.304776 0
    outer loop
      vertex 159.673 97.0743 10
      vertex 159.673 97.0743 0
      vertex 159.593 96.8243 10
    endloop
  endfacet
  facet normal -0.359925 0.932981 0
    outer loop
      vertex 159.375 96.7402 0
      vertex 159.375 96.7402 10
      vertex 159.593 96.8243 0
    endloop
  endfacet
  facet normal -0.359925 0.932981 0
    outer loop
      vertex 159.593 96.8243 10
      vertex 159.593 96.8243 0
      vertex 159.375 96.7402 10
    endloop
  endfacet
  facet normal 0.501036 0.865426 -0
    outer loop
      vertex 159.185 96.8502 0
      vertex 159.185 96.8502 10
      vertex 159.375 96.7402 0
    endloop
  endfacet
  facet normal 0.501036 0.865426 0
    outer loop
      vertex 159.375 96.7402 10
      vertex 159.375 96.7402 0
      vertex 159.185 96.8502 10
    endloop
  endfacet
endsolid OpenSCAD_Model
