solid OpenSCAD_Model
  facet normal 0 -0 -1
    outer loop
      vertex 235.142 25.1466 0
      vertex 235.761 24.6104 0
      vertex 235.128 24.6627 0
    endloop
  endfacet
  facet normal -0 0 -1
    outer loop
      vertex 233.289 23.9874 0
      vertex 232.926 23.6745 0
      vertex 233.28 24.3969 0
    endloop
  endfacet
  facet normal -0 0 -1
    outer loop
      vertex 237.2 32.0779 0
      vertex 235.965 31.6046 0
      vertex 236.124 32.3837 0
    endloop
  endfacet
  facet normal -0 0 -1
    outer loop
      vertex 232.926 23.6745 0
      vertex 232.071 23.4197 0
      vertex 233.28 24.3969 0
    endloop
  endfacet
  facet normal 0 0 -1
    outer loop
      vertex 233.466 24.5455 0
      vertex 235.137 26.1575 0
      vertex 235.08 26.0381 0
    endloop
  endfacet
  facet normal 0 0 -1
    outer loop
      vertex 233.977 24.4178 0
      vertex 233.466 24.5455 0
      vertex 234.127 24.5888 0
    endloop
  endfacet
  facet normal -0 0 -1
    outer loop
      vertex 234.127 24.5888 0
      vertex 233.466 24.5455 0
      vertex 234.224 24.6392 0
    endloop
  endfacet
  facet normal 0 0 -1
    outer loop
      vertex 234.224 24.6392 0
      vertex 235.09 25.2581 0
      vertex 234.994 24.7192 0
    endloop
  endfacet
  facet normal 0 0 -1
    outer loop
      vertex 234.994 24.7192 0
      vertex 235.09 25.2581 0
      vertex 235.142 25.1466 0
    endloop
  endfacet
  facet normal 0 0 -1
    outer loop
      vertex 238.37 31.666 0
      vertex 237.723 32.0552 0
      vertex 238.367 31.7655 0
    endloop
  endfacet
  facet normal 0 -0 -1
    outer loop
      vertex 235.761 24.6104 0
      vertex 235.767 24.3195 0
      vertex 235.315 24.4242 0
    endloop
  endfacet
  facet normal 0 0 -1
    outer loop
      vertex 235.128 24.6627 0
      vertex 235.761 24.6104 0
      vertex 235.315 24.4242 0
    endloop
  endfacet
  facet normal 0 -0 -1
    outer loop
      vertex 238.681 29.1946 0
      vertex 238.814 27.8968 0
      vertex 238.283 27.6963 0
    endloop
  endfacet
  facet normal 0 0 -1
    outer loop
      vertex 234.994 24.7192 0
      vertex 235.142 25.1466 0
      vertex 235.128 24.6627 0
    endloop
  endfacet
  facet normal 0 -0 -1
    outer loop
      vertex 237.723 32.0552 0
      vertex 238.37 31.666 0
      vertex 237.636 32.0301 0
    endloop
  endfacet
  facet normal 0 -0 -1
    outer loop
      vertex 235.08 26.0381 0
      vertex 235.09 25.2581 0
      vertex 234.224 24.6392 0
    endloop
  endfacet
  facet normal 0 0 -1
    outer loop
      vertex 233.466 24.5455 0
      vertex 235.08 26.0381 0
      vertex 234.224 24.6392 0
    endloop
  endfacet
  facet normal 0 0 -1
    outer loop
      vertex 235.968 31.4804 0
      vertex 237.2 32.0779 0
      vertex 237.296 32.0401 0
    endloop
  endfacet
  facet normal 0 0 -1
    outer loop
      vertex 236.443 26.8954 0
      vertex 236.33 26.76 0
      vertex 235.597 26.4575 0
    endloop
  endfacet
  facet normal 0 0 -1
    outer loop
      vertex 235.838 31.1804 0
      vertex 237.296 32.0401 0
      vertex 238.961 30.1347 0
    endloop
  endfacet
  facet normal 0 0 -1
    outer loop
      vertex 235.597 26.4575 0
      vertex 236.33 26.76 0
      vertex 236.302 26.328 0
    endloop
  endfacet
  facet normal 0 -0 -1
    outer loop
      vertex 235.838 31.1804 0
      vertex 238.681 29.1946 0
      vertex 235.638 31.1034 0
    endloop
  endfacet
  facet normal 0 0 -1
    outer loop
      vertex 235.477 26.4275 0
      vertex 236.443 26.8954 0
      vertex 235.597 26.4575 0
    endloop
  endfacet
  facet normal 0 0 -1
    outer loop
      vertex 238.681 29.1946 0
      vertex 238.156 27.6666 0
      vertex 237.551 27.1773 0
    endloop
  endfacet
  facet normal 0 0 -1
    outer loop
      vertex 238.283 27.6963 0
      vertex 238.814 27.8968 0
      vertex 238.593 27.6266 0
    endloop
  endfacet
  facet normal 0 0 -1
    outer loop
      vertex 238.156 27.6666 0
      vertex 238.681 29.1946 0
      vertex 238.283 27.6963 0
    endloop
  endfacet
  facet normal -0 -0 -1
    outer loop
      vertex 237.636 32.0301 0
      vertex 238.37 31.666 0
      vertex 237.296 32.0401 0
    endloop
  endfacet
  facet normal 0 0 -1
    outer loop
      vertex 237.296 32.0401 0
      vertex 238.37 31.666 0
      vertex 238.961 30.1347 0
    endloop
  endfacet
  facet normal 0 0 -1
    outer loop
      vertex 235.968 31.4804 0
      vertex 235.965 31.6046 0
      vertex 237.2 32.0779 0
    endloop
  endfacet
  facet normal 0 0 -1
    outer loop
      vertex 238.657 32.678 0
      vertex 238.367 31.7655 0
      vertex 237.723 32.0552 0
    endloop
  endfacet
  facet normal 0 0 -1
    outer loop
      vertex 237.2 32.0779 0
      vertex 236.124 32.3837 0
      vertex 236.638 32.5777 0
    endloop
  endfacet
  facet normal 0 0 -1
    outer loop
      vertex 235.965 31.6046 0
      vertex 235.706 32.1481 0
      vertex 236.124 32.3837 0
    endloop
  endfacet
  facet normal 0 0 -1
    outer loop
      vertex 235.838 31.1804 0
      vertex 238.961 30.1347 0
      vertex 238.687 29.2546 0
    endloop
  endfacet
  facet normal 0 0 -1
    outer loop
      vertex 238.681 29.1946 0
      vertex 235.838 31.1804 0
      vertex 238.687 29.2546 0
    endloop
  endfacet
  facet normal -0 0 -1
    outer loop
      vertex 237.551 27.1773 0
      vertex 236.443 26.8954 0
      vertex 235.638 31.1034 0
    endloop
  endfacet
  facet normal 0 -0 -1
    outer loop
      vertex 234.496 31.6218 0
      vertex 235.638 31.1034 0
      vertex 234.146 31.5345 0
    endloop
  endfacet
  facet normal 0 0 -1
    outer loop
      vertex 234.146 31.5345 0
      vertex 235.638 31.1034 0
      vertex 235.477 26.4275 0
    endloop
  endfacet
  facet normal 0 0 -1
    outer loop
      vertex 235.137 26.1575 0
      vertex 234.146 31.5345 0
      vertex 235.477 26.4275 0
    endloop
  endfacet
  facet normal 0 -0 -1
    outer loop
      vertex 235.968 31.4804 0
      vertex 237.296 32.0401 0
      vertex 235.838 31.1804 0
    endloop
  endfacet
  facet normal 0 0 -1
    outer loop
      vertex 235.477 26.4275 0
      vertex 235.638 31.1034 0
      vertex 236.443 26.8954 0
    endloop
  endfacet
  facet normal 0 0 -1
    outer loop
      vertex 237.551 27.1773 0
      vertex 235.638 31.1034 0
      vertex 238.681 29.1946 0
    endloop
  endfacet
  facet normal -0 -0 -1
    outer loop
      vertex 234.146 31.5345 0
      vertex 235.137 26.1575 0
      vertex 233.986 31.5952 0
    endloop
  endfacet
  facet normal 0 0 -1
    outer loop
      vertex 233.273 31.8883 0
      vertex 233.505 31.8339 0
      vertex 233.986 31.5952 0
    endloop
  endfacet
  facet normal 0 0 -1
    outer loop
      vertex 235.137 26.1575 0
      vertex 233.273 31.8883 0
      vertex 233.986 31.5952 0
    endloop
  endfacet
  facet normal 0 0 -1
    outer loop
      vertex 228.455 27.937 0
      vertex 230.125 32.2303 0
      vertex 233.273 31.8883 0
    endloop
  endfacet
  facet normal 0 0 -1
    outer loop
      vertex 233.505 31.8339 0
      vertex 233.709 32.0005 0
      vertex 233.986 31.5952 0
    endloop
  endfacet
  facet normal 0 0 -1
    outer loop
      vertex 227.918 28.4648 0
      vertex 228.002 30.3931 0
      vertex 228.455 27.937 0
    endloop
  endfacet
  facet normal 0 -0 -1
    outer loop
      vertex 232.815 32.2597 0
      vertex 233.273 31.8883 0
      vertex 230.125 32.2303 0
    endloop
  endfacet
  facet normal 0 0 -1
    outer loop
      vertex 232.815 32.2597 0
      vertex 233.16 32.1396 0
      vertex 233.273 31.8883 0
    endloop
  endfacet
  facet normal 0 0 -1
    outer loop
      vertex 230.125 32.2303 0
      vertex 228.002 30.3931 0
      vertex 229.054 31.8732 0
    endloop
  endfacet
  facet normal 0 0 -1
    outer loop
      vertex 228.455 27.937 0
      vertex 228.002 30.3931 0
      vertex 230.125 32.2303 0
    endloop
  endfacet
  facet normal 0 0 -1
    outer loop
      vertex 228.5 27.8201 0
      vertex 228.455 27.937 0
      vertex 233.273 31.8883 0
    endloop
  endfacet
  facet normal 0 0 -1
    outer loop
      vertex 227.912 30.3335 0
      vertex 228.002 30.3931 0
      vertex 227.918 28.4648 0
    endloop
  endfacet
  facet normal 0 0 -1
    outer loop
      vertex 235.137 26.1575 0
      vertex 228.5 27.8201 0
      vertex 233.273 31.8883 0
    endloop
  endfacet
  facet normal 0 0 -1
    outer loop
      vertex 227.918 28.4648 0
      vertex 227.556 30.2552 0
      vertex 227.912 30.3335 0
    endloop
  endfacet
  facet normal 0 -0 -1
    outer loop
      vertex 228.5 27.8201 0
      vertex 229.298 25.718 0
      vertex 228.453 27.1075 0
    endloop
  endfacet
  facet normal 0 0 -1
    outer loop
      vertex 230.191 25.018 0
      vertex 229.298 25.718 0
      vertex 228.5 27.8201 0
    endloop
  endfacet
  facet normal 0 0 -1
    outer loop
      vertex 230.191 25.018 0
      vertex 229.32 25.6472 0
      vertex 229.298 25.718 0
    endloop
  endfacet
  facet normal 0 0 -1
    outer loop
      vertex 235.137 26.1575 0
      vertex 233.466 24.5455 0
      vertex 230.191 25.018 0
    endloop
  endfacet
  facet normal 0 0 -1
    outer loop
      vertex 229.32 25.6472 0
      vertex 230.191 25.018 0
      vertex 229.952 25.0226 0
    endloop
  endfacet
  facet normal 0 0 -1
    outer loop
      vertex 229.373 24.5566 0
      vertex 229.32 25.6472 0
      vertex 229.952 25.0226 0
    endloop
  endfacet
  facet normal 0 0 -1
    outer loop
      vertex 230.611 24.438 0
      vertex 230.191 25.018 0
      vertex 233.28 24.3969 0
    endloop
  endfacet
  facet normal -0 0 -1
    outer loop
      vertex 229.594 24.5667 0
      vertex 229.373 24.5566 0
      vertex 229.952 25.0226 0
    endloop
  endfacet
  facet normal 0 0 -1
    outer loop
      vertex 230.191 25.018 0
      vertex 233.466 24.5455 0
      vertex 233.28 24.3969 0
    endloop
  endfacet
  facet normal -0 0 -1
    outer loop
      vertex 235.137 26.1575 0
      vertex 230.191 25.018 0
      vertex 228.5 27.8201 0
    endloop
  endfacet
  facet normal 0 0 -1
    outer loop
      vertex 230.611 24.438 0
      vertex 233.28 24.3969 0
      vertex 230.882 23.9567 0
    endloop
  endfacet
  facet normal 0 0 -1
    outer loop
      vertex 230.607 24.2563 0
      vertex 230.882 23.9567 0
      vertex 230.767 23.9602 0
    endloop
  endfacet
  facet normal 0 0 -1
    outer loop
      vertex 230.278 23.7741 0
      vertex 230.26 23.8225 0
      vertex 230.767 23.9602 0
    endloop
  endfacet
  facet normal -0 0 -1
    outer loop
      vertex 230.767 23.9602 0
      vertex 230.26 23.8225 0
      vertex 230.607 24.2563 0
    endloop
  endfacet
  facet normal 0 0 -1
    outer loop
      vertex 232.071 23.4197 0
      vertex 230.882 23.9567 0
      vertex 233.28 24.3969 0
    endloop
  endfacet
  facet normal 0 0 -1
    outer loop
      vertex 230.882 23.9567 0
      vertex 230.607 24.2563 0
      vertex 230.611 24.438 0
    endloop
  endfacet
  facet normal -0 0 1
    outer loop
      vertex 235.128 24.6627 10
      vertex 235.761 24.6104 10
      vertex 235.142 25.1466 10
    endloop
  endfacet
  facet normal 0 0 1
    outer loop
      vertex 233.28 24.3969 10
      vertex 232.926 23.6745 10
      vertex 233.289 23.9874 10
    endloop
  endfacet
  facet normal 0 0 1
    outer loop
      vertex 236.124 32.3837 10
      vertex 235.965 31.6046 10
      vertex 237.2 32.0779 10
    endloop
  endfacet
  facet normal 0 0 1
    outer loop
      vertex 233.28 24.3969 10
      vertex 232.071 23.4197 10
      vertex 232.926 23.6745 10
    endloop
  endfacet
  facet normal 0 -0 1
    outer loop
      vertex 235.08 26.0381 10
      vertex 235.137 26.1575 10
      vertex 233.466 24.5455 10
    endloop
  endfacet
  facet normal 0 0 1
    outer loop
      vertex 234.127 24.5888 10
      vertex 233.466 24.5455 10
      vertex 233.977 24.4178 10
    endloop
  endfacet
  facet normal 0 0 1
    outer loop
      vertex 234.224 24.6392 10
      vertex 233.466 24.5455 10
      vertex 234.127 24.5888 10
    endloop
  endfacet
  facet normal 0 -0 1
    outer loop
      vertex 234.994 24.7192 10
      vertex 235.09 25.2581 10
      vertex 234.224 24.6392 10
    endloop
  endfacet
  facet normal 0 0 1
    outer loop
      vertex 235.142 25.1466 10
      vertex 235.09 25.2581 10
      vertex 234.994 24.7192 10
    endloop
  endfacet
  facet normal 0 0 1
    outer loop
      vertex 238.367 31.7655 10
      vertex 237.723 32.0552 10
      vertex 238.37 31.666 10
    endloop
  endfacet
  facet normal -0 0 1
    outer loop
      vertex 235.315 24.4242 10
      vertex 235.767 24.3195 10
      vertex 235.761 24.6104 10
    endloop
  endfacet
  facet normal 0 -0 1
    outer loop
      vertex 235.315 24.4242 10
      vertex 235.761 24.6104 10
      vertex 235.128 24.6627 10
    endloop
  endfacet
  facet normal 0 0 1
    outer loop
      vertex 238.283 27.6963 10
      vertex 238.814 27.8968 10
      vertex 238.681 29.1946 10
    endloop
  endfacet
  facet normal 0 -0 1
    outer loop
      vertex 235.128 24.6627 10
      vertex 235.142 25.1466 10
      vertex 234.994 24.7192 10
    endloop
  endfacet
  facet normal -0 0 1
    outer loop
      vertex 237.636 32.0301 10
      vertex 238.37 31.666 10
      vertex 237.723 32.0552 10
    endloop
  endfacet
  facet normal 0 0 1
    outer loop
      vertex 234.224 24.6392 10
      vertex 235.09 25.2581 10
      vertex 235.08 26.0381 10
    endloop
  endfacet
  facet normal 0 -0 1
    outer loop
      vertex 234.224 24.6392 10
      vertex 235.08 26.0381 10
      vertex 233.466 24.5455 10
    endloop
  endfacet
  facet normal 0 0 1
    outer loop
      vertex 237.296 32.0401 10
      vertex 237.2 32.0779 10
      vertex 235.968 31.4804 10
    endloop
  endfacet
  facet normal 0 0 1
    outer loop
      vertex 235.597 26.4575 10
      vertex 236.33 26.76 10
      vertex 236.443 26.8954 10
    endloop
  endfacet
  facet normal 0 0 1
    outer loop
      vertex 238.961 30.1347 10
      vertex 237.296 32.0401 10
      vertex 235.838 31.1804 10
    endloop
  endfacet
  facet normal 0 -0 1
    outer loop
      vertex 236.302 26.328 10
      vertex 236.33 26.76 10
      vertex 235.597 26.4575 10
    endloop
  endfacet
  facet normal -0 0 1
    outer loop
      vertex 235.638 31.1034 10
      vertex 238.681 29.1946 10
      vertex 235.838 31.1804 10
    endloop
  endfacet
  facet normal 0 -0 1
    outer loop
      vertex 235.597 26.4575 10
      vertex 236.443 26.8954 10
      vertex 235.477 26.4275 10
    endloop
  endfacet
  facet normal 0 0 1
    outer loop
      vertex 237.551 27.1773 10
      vertex 238.156 27.6666 10
      vertex 238.681 29.1946 10
    endloop
  endfacet
  facet normal 0 -0 1
    outer loop
      vertex 238.593 27.6266 10
      vertex 238.814 27.8968 10
      vertex 238.283 27.6963 10
    endloop
  endfacet
  facet normal 0 -0 1
    outer loop
      vertex 238.283 27.6963 10
      vertex 238.681 29.1946 10
      vertex 238.156 27.6666 10
    endloop
  endfacet
  facet normal 0 0 1
    outer loop
      vertex 237.296 32.0401 10
      vertex 238.37 31.666 10
      vertex 237.636 32.0301 10
    endloop
  endfacet
  facet normal 0 0 1
    outer loop
      vertex 238.961 30.1347 10
      vertex 238.37 31.666 10
      vertex 237.296 32.0401 10
    endloop
  endfacet
  facet normal 0 0 1
    outer loop
      vertex 237.2 32.0779 10
      vertex 235.965 31.6046 10
      vertex 235.968 31.4804 10
    endloop
  endfacet
  facet normal -0 0 1
    outer loop
      vertex 237.723 32.0552 10
      vertex 238.367 31.7655 10
      vertex 238.657 32.678 10
    endloop
  endfacet
  facet normal 0 0 1
    outer loop
      vertex 236.638 32.5777 10
      vertex 236.124 32.3837 10
      vertex 237.2 32.0779 10
    endloop
  endfacet
  facet normal 0 0 1
    outer loop
      vertex 236.124 32.3837 10
      vertex 235.706 32.1481 10
      vertex 235.965 31.6046 10
    endloop
  endfacet
  facet normal 0 -0 1
    outer loop
      vertex 238.687 29.2546 10
      vertex 238.961 30.1347 10
      vertex 235.838 31.1804 10
    endloop
  endfacet
  facet normal 0 0 1
    outer loop
      vertex 238.687 29.2546 10
      vertex 235.838 31.1804 10
      vertex 238.681 29.1946 10
    endloop
  endfacet
  facet normal 0 0 1
    outer loop
      vertex 235.638 31.1034 10
      vertex 236.443 26.8954 10
      vertex 237.551 27.1773 10
    endloop
  endfacet
  facet normal -0 0 1
    outer loop
      vertex 234.146 31.5345 10
      vertex 235.638 31.1034 10
      vertex 234.496 31.6218 10
    endloop
  endfacet
  facet normal 0 -0 1
    outer loop
      vertex 235.477 26.4275 10
      vertex 235.638 31.1034 10
      vertex 234.146 31.5345 10
    endloop
  endfacet
  facet normal 0 0 1
    outer loop
      vertex 235.477 26.4275 10
      vertex 234.146 31.5345 10
      vertex 235.137 26.1575 10
    endloop
  endfacet
  facet normal 0 0 1
    outer loop
      vertex 235.838 31.1804 10
      vertex 237.296 32.0401 10
      vertex 235.968 31.4804 10
    endloop
  endfacet
  facet normal 0 0 1
    outer loop
      vertex 236.443 26.8954 10
      vertex 235.638 31.1034 10
      vertex 235.477 26.4275 10
    endloop
  endfacet
  facet normal 0 0 1
    outer loop
      vertex 238.681 29.1946 10
      vertex 235.638 31.1034 10
      vertex 237.551 27.1773 10
    endloop
  endfacet
  facet normal 0 0 1
    outer loop
      vertex 233.986 31.5952 10
      vertex 235.137 26.1575 10
      vertex 234.146 31.5345 10
    endloop
  endfacet
  facet normal 0 0 1
    outer loop
      vertex 233.986 31.5952 10
      vertex 233.505 31.8339 10
      vertex 233.273 31.8883 10
    endloop
  endfacet
  facet normal 0 0 1
    outer loop
      vertex 233.986 31.5952 10
      vertex 233.273 31.8883 10
      vertex 235.137 26.1575 10
    endloop
  endfacet
  facet normal 0 0 1
    outer loop
      vertex 233.273 31.8883 10
      vertex 230.125 32.2303 10
      vertex 228.455 27.937 10
    endloop
  endfacet
  facet normal 0 0 1
    outer loop
      vertex 233.986 31.5952 10
      vertex 233.709 32.0005 10
      vertex 233.505 31.8339 10
    endloop
  endfacet
  facet normal 0 0 1
    outer loop
      vertex 228.455 27.937 10
      vertex 228.002 30.3931 10
      vertex 227.918 28.4648 10
    endloop
  endfacet
  facet normal -0 0 1
    outer loop
      vertex 230.125 32.2303 10
      vertex 233.273 31.8883 10
      vertex 232.815 32.2597 10
    endloop
  endfacet
  facet normal 0 0 1
    outer loop
      vertex 233.273 31.8883 10
      vertex 233.16 32.1396 10
      vertex 232.815 32.2597 10
    endloop
  endfacet
  facet normal -0 0 1
    outer loop
      vertex 229.054 31.8732 10
      vertex 228.002 30.3931 10
      vertex 230.125 32.2303 10
    endloop
  endfacet
  facet normal 0 0 1
    outer loop
      vertex 230.125 32.2303 10
      vertex 228.002 30.3931 10
      vertex 228.455 27.937 10
    endloop
  endfacet
  facet normal 0 0 1
    outer loop
      vertex 233.273 31.8883 10
      vertex 228.455 27.937 10
      vertex 228.5 27.8201 10
    endloop
  endfacet
  facet normal 0 -0 1
    outer loop
      vertex 227.918 28.4648 10
      vertex 228.002 30.3931 10
      vertex 227.912 30.3335 10
    endloop
  endfacet
  facet normal 0 0 1
    outer loop
      vertex 233.273 31.8883 10
      vertex 228.5 27.8201 10
      vertex 235.137 26.1575 10
    endloop
  endfacet
  facet normal 0 0 1
    outer loop
      vertex 227.912 30.3335 10
      vertex 227.556 30.2552 10
      vertex 227.918 28.4648 10
    endloop
  endfacet
  facet normal -0 0 1
    outer loop
      vertex 228.453 27.1075 10
      vertex 229.298 25.718 10
      vertex 228.5 27.8201 10
    endloop
  endfacet
  facet normal 0 0 1
    outer loop
      vertex 228.5 27.8201 10
      vertex 229.298 25.718 10
      vertex 230.191 25.018 10
    endloop
  endfacet
  facet normal 0 0 1
    outer loop
      vertex 229.298 25.718 10
      vertex 229.32 25.6472 10
      vertex 230.191 25.018 10
    endloop
  endfacet
  facet normal -0 0 1
    outer loop
      vertex 230.191 25.018 10
      vertex 233.466 24.5455 10
      vertex 235.137 26.1575 10
    endloop
  endfacet
  facet normal -0 -0 1
    outer loop
      vertex 229.952 25.0226 10
      vertex 230.191 25.018 10
      vertex 229.32 25.6472 10
    endloop
  endfacet
  facet normal 0 0 1
    outer loop
      vertex 229.952 25.0226 10
      vertex 229.32 25.6472 10
      vertex 229.373 24.5566 10
    endloop
  endfacet
  facet normal 0 0 1
    outer loop
      vertex 233.28 24.3969 10
      vertex 230.191 25.018 10
      vertex 230.611 24.438 10
    endloop
  endfacet
  facet normal 0 0 1
    outer loop
      vertex 229.952 25.0226 10
      vertex 229.373 24.5566 10
      vertex 229.594 24.5667 10
    endloop
  endfacet
  facet normal 0 -0 1
    outer loop
      vertex 233.28 24.3969 10
      vertex 233.466 24.5455 10
      vertex 230.191 25.018 10
    endloop
  endfacet
  facet normal 0 0 1
    outer loop
      vertex 228.5 27.8201 10
      vertex 230.191 25.018 10
      vertex 235.137 26.1575 10
    endloop
  endfacet
  facet normal 0 -0 1
    outer loop
      vertex 230.882 23.9567 10
      vertex 233.28 24.3969 10
      vertex 230.611 24.438 10
    endloop
  endfacet
  facet normal -0 -0 1
    outer loop
      vertex 230.767 23.9602 10
      vertex 230.882 23.9567 10
      vertex 230.607 24.2563 10
    endloop
  endfacet
  facet normal 0 0 1
    outer loop
      vertex 230.767 23.9602 10
      vertex 230.26 23.8225 10
      vertex 230.278 23.7741 10
    endloop
  endfacet
  facet normal 0 0 1
    outer loop
      vertex 230.607 24.2563 10
      vertex 230.26 23.8225 10
      vertex 230.767 23.9602 10
    endloop
  endfacet
  facet normal 0 0 1
    outer loop
      vertex 233.28 24.3969 10
      vertex 230.882 23.9567 10
      vertex 232.071 23.4197 10
    endloop
  endfacet
  facet normal 0 0 1
    outer loop
      vertex 230.611 24.438 10
      vertex 230.607 24.2563 10
      vertex 230.882 23.9567 10
    endloop
  endfacet
  facet normal 0.652902 -0.757442 0
    outer loop
      vertex 233.289 23.9874 0
      vertex 232.926 23.6745 10
      vertex 232.926 23.6745 0
    endloop
  endfacet
  facet normal 0.652902 -0.757442 0
    outer loop
      vertex 233.289 23.9874 0
      vertex 233.289 23.9874 10
      vertex 232.926 23.6745 10
    endloop
  endfacet
  facet normal 0.999759 0.0219727 0
    outer loop
      vertex 233.28 24.3969 0
      vertex 233.289 23.9874 10
      vertex 233.289 23.9874 0
    endloop
  endfacet
  facet normal 0.999759 0.0219727 -0
    outer loop
      vertex 233.28 24.3969 0
      vertex 233.28 24.3969 10
      vertex 233.289 23.9874 10
    endloop
  endfacet
  facet normal 0.624183 -0.781278 0
    outer loop
      vertex 233.466 24.5455 0
      vertex 233.28 24.3969 10
      vertex 233.28 24.3969 0
    endloop
  endfacet
  facet normal 0.624183 -0.781278 0
    outer loop
      vertex 233.466 24.5455 0
      vertex 233.466 24.5455 10
      vertex 233.28 24.3969 10
    endloop
  endfacet
  facet normal -0.242446 -0.970165 0
    outer loop
      vertex 233.977 24.4178 0
      vertex 233.466 24.5455 10
      vertex 233.466 24.5455 0
    endloop
  endfacet
  facet normal -0.242446 -0.970165 0
    outer loop
      vertex 233.977 24.4178 0
      vertex 233.977 24.4178 10
      vertex 233.466 24.5455 10
    endloop
  endfacet
  facet normal 0.751759 -0.659438 0
    outer loop
      vertex 234.127 24.5888 0
      vertex 233.977 24.4178 10
      vertex 233.977 24.4178 0
    endloop
  endfacet
  facet normal 0.751759 -0.659438 0
    outer loop
      vertex 234.127 24.5888 0
      vertex 234.127 24.5888 10
      vertex 233.977 24.4178 10
    endloop
  endfacet
  facet normal 0.461065 -0.887367 0
    outer loop
      vertex 234.224 24.6392 0
      vertex 234.127 24.5888 10
      vertex 234.127 24.5888 0
    endloop
  endfacet
  facet normal 0.461065 -0.887367 0
    outer loop
      vertex 234.224 24.6392 0
      vertex 234.224 24.6392 10
      vertex 234.127 24.5888 10
    endloop
  endfacet
  facet normal 0.10334 -0.994646 0
    outer loop
      vertex 234.994 24.7192 0
      vertex 234.224 24.6392 10
      vertex 234.224 24.6392 0
    endloop
  endfacet
  facet normal 0.10334 -0.994646 0
    outer loop
      vertex 234.994 24.7192 0
      vertex 234.994 24.7192 10
      vertex 234.224 24.6392 10
    endloop
  endfacet
  facet normal -0.388518 -0.921441 0
    outer loop
      vertex 235.128 24.6627 0
      vertex 234.994 24.7192 10
      vertex 234.994 24.7192 0
    endloop
  endfacet
  facet normal -0.388518 -0.921441 0
    outer loop
      vertex 235.128 24.6627 0
      vertex 235.128 24.6627 10
      vertex 234.994 24.7192 10
    endloop
  endfacet
  facet normal -0.786948 -0.61702 0
    outer loop
      vertex 235.315 24.4242 0
      vertex 235.128 24.6627 10
      vertex 235.128 24.6627 0
    endloop
  endfacet
  facet normal -0.786948 -0.61702 0
    outer loop
      vertex 235.315 24.4242 0
      vertex 235.315 24.4242 10
      vertex 235.128 24.6627 10
    endloop
  endfacet
  facet normal -0.225662 -0.974206 0
    outer loop
      vertex 235.767 24.3195 0
      vertex 235.315 24.4242 10
      vertex 235.315 24.4242 0
    endloop
  endfacet
  facet normal -0.225662 -0.974206 0
    outer loop
      vertex 235.767 24.3195 0
      vertex 235.767 24.3195 10
      vertex 235.315 24.4242 10
    endloop
  endfacet
  facet normal 0.999787 0.0206213 0
    outer loop
      vertex 235.761 24.6104 0
      vertex 235.767 24.3195 10
      vertex 235.767 24.3195 0
    endloop
  endfacet
  facet normal 0.999787 0.0206213 -0
    outer loop
      vertex 235.761 24.6104 0
      vertex 235.761 24.6104 10
      vertex 235.767 24.3195 10
    endloop
  endfacet
  facet normal 0.654745 0.75585 0
    outer loop
      vertex 235.142 25.1466 0
      vertex 235.761 24.6104 10
      vertex 235.761 24.6104 0
    endloop
  endfacet
  facet normal 0.654745 0.75585 -0
    outer loop
      vertex 235.142 25.1466 0
      vertex 235.142 25.1466 10
      vertex 235.761 24.6104 10
    endloop
  endfacet
  facet normal 0.906287 0.422663 0
    outer loop
      vertex 235.09 25.2581 0
      vertex 235.142 25.1466 10
      vertex 235.142 25.1466 0
    endloop
  endfacet
  facet normal 0.906287 0.422663 -0
    outer loop
      vertex 235.09 25.2581 0
      vertex 235.09 25.2581 10
      vertex 235.142 25.1466 10
    endloop
  endfacet
  facet normal 0.999918 0.0128195 0
    outer loop
      vertex 235.08 26.0381 0
      vertex 235.09 25.2581 10
      vertex 235.09 25.2581 0
    endloop
  endfacet
  facet normal 0.999918 0.0128195 -0
    outer loop
      vertex 235.08 26.0381 0
      vertex 235.08 26.0381 10
      vertex 235.09 25.2581 10
    endloop
  endfacet
  facet normal 0.902441 -0.430814 0
    outer loop
      vertex 235.137 26.1575 0
      vertex 235.08 26.0381 10
      vertex 235.08 26.0381 0
    endloop
  endfacet
  facet normal 0.902441 -0.430814 0
    outer loop
      vertex 235.137 26.1575 0
      vertex 235.137 26.1575 10
      vertex 235.08 26.0381 10
    endloop
  endfacet
  facet normal 0.621882 -0.783111 0
    outer loop
      vertex 235.477 26.4275 0
      vertex 235.137 26.1575 10
      vertex 235.137 26.1575 0
    endloop
  endfacet
  facet normal 0.621882 -0.783111 0
    outer loop
      vertex 235.477 26.4275 0
      vertex 235.477 26.4275 10
      vertex 235.137 26.1575 10
    endloop
  endfacet
  facet normal 0.242536 -0.970143 0
    outer loop
      vertex 235.597 26.4575 0
      vertex 235.477 26.4275 10
      vertex 235.477 26.4275 0
    endloop
  endfacet
  facet normal 0.242536 -0.970143 0
    outer loop
      vertex 235.597 26.4575 0
      vertex 235.597 26.4575 10
      vertex 235.477 26.4275 10
    endloop
  endfacet
  facet normal -0.180665 -0.983545 0
    outer loop
      vertex 236.302 26.328 0
      vertex 235.597 26.4575 10
      vertex 235.597 26.4575 0
    endloop
  endfacet
  facet normal -0.180665 -0.983545 0
    outer loop
      vertex 236.302 26.328 0
      vertex 236.302 26.328 10
      vertex 235.597 26.4575 10
    endloop
  endfacet
  facet normal 0.997906 -0.0646791 0
    outer loop
      vertex 236.33 26.76 0
      vertex 236.302 26.328 10
      vertex 236.302 26.328 0
    endloop
  endfacet
  facet normal 0.997906 -0.0646791 0
    outer loop
      vertex 236.33 26.76 0
      vertex 236.33 26.76 10
      vertex 236.302 26.328 10
    endloop
  endfacet
  facet normal 0.767756 -0.640742 0
    outer loop
      vertex 236.443 26.8954 0
      vertex 236.33 26.76 10
      vertex 236.33 26.76 0
    endloop
  endfacet
  facet normal 0.767756 -0.640742 0
    outer loop
      vertex 236.443 26.8954 0
      vertex 236.443 26.8954 10
      vertex 236.33 26.76 10
    endloop
  endfacet
  facet normal 0.246567 -0.969126 0
    outer loop
      vertex 237.551 27.1773 0
      vertex 236.443 26.8954 10
      vertex 236.443 26.8954 0
    endloop
  endfacet
  facet normal 0.246567 -0.969126 0
    outer loop
      vertex 237.551 27.1773 0
      vertex 237.551 27.1773 10
      vertex 236.443 26.8954 10
    endloop
  endfacet
  facet normal 0.62884 -0.777535 0
    outer loop
      vertex 238.156 27.6666 0
      vertex 237.551 27.1773 10
      vertex 237.551 27.1773 0
    endloop
  endfacet
  facet normal 0.62884 -0.777535 0
    outer loop
      vertex 238.156 27.6666 0
      vertex 238.156 27.6666 10
      vertex 237.551 27.1773 10
    endloop
  endfacet
  facet normal 0.227714 -0.973728 0
    outer loop
      vertex 238.283 27.6963 0
      vertex 238.156 27.6666 10
      vertex 238.156 27.6666 0
    endloop
  endfacet
  facet normal 0.227714 -0.973728 0
    outer loop
      vertex 238.283 27.6963 0
      vertex 238.283 27.6963 10
      vertex 238.156 27.6666 10
    endloop
  endfacet
  facet normal -0.219362 -0.975643 0
    outer loop
      vertex 238.593 27.6266 0
      vertex 238.283 27.6963 10
      vertex 238.283 27.6963 0
    endloop
  endfacet
  facet normal -0.219362 -0.975643 0
    outer loop
      vertex 238.593 27.6266 0
      vertex 238.593 27.6266 10
      vertex 238.283 27.6963 10
    endloop
  endfacet
  facet normal 0.774059 -0.633113 0
    outer loop
      vertex 238.814 27.8968 0
      vertex 238.593 27.6266 10
      vertex 238.593 27.6266 0
    endloop
  endfacet
  facet normal 0.774059 -0.633113 0
    outer loop
      vertex 238.814 27.8968 0
      vertex 238.814 27.8968 10
      vertex 238.593 27.6266 10
    endloop
  endfacet
  facet normal 0.99479 0.101947 0
    outer loop
      vertex 238.681 29.1946 0
      vertex 238.814 27.8968 10
      vertex 238.814 27.8968 0
    endloop
  endfacet
  facet normal 0.99479 0.101947 -0
    outer loop
      vertex 238.681 29.1946 0
      vertex 238.681 29.1946 10
      vertex 238.814 27.8968 10
    endloop
  endfacet
  facet normal 0.995037 -0.0995037 0
    outer loop
      vertex 238.687 29.2546 0
      vertex 238.681 29.1946 10
      vertex 238.681 29.1946 0
    endloop
  endfacet
  facet normal 0.995037 -0.0995037 0
    outer loop
      vertex 238.687 29.2546 0
      vertex 238.687 29.2546 10
      vertex 238.681 29.1946 10
    endloop
  endfacet
  facet normal 0.954798 -0.297256 0
    outer loop
      vertex 238.961 30.1347 0
      vertex 238.687 29.2546 10
      vertex 238.687 29.2546 0
    endloop
  endfacet
  facet normal 0.954798 -0.297256 0
    outer loop
      vertex 238.961 30.1347 0
      vertex 238.961 30.1347 10
      vertex 238.687 29.2546 10
    endloop
  endfacet
  facet normal 0.932929 0.360061 0
    outer loop
      vertex 238.37 31.666 0
      vertex 238.961 30.1347 10
      vertex 238.961 30.1347 0
    endloop
  endfacet
  facet normal 0.932929 0.360061 -0
    outer loop
      vertex 238.37 31.666 0
      vertex 238.37 31.666 10
      vertex 238.961 30.1347 10
    endloop
  endfacet
  facet normal 0.999546 0.0301371 0
    outer loop
      vertex 238.367 31.7655 0
      vertex 238.37 31.666 10
      vertex 238.37 31.666 0
    endloop
  endfacet
  facet normal 0.999546 0.0301371 -0
    outer loop
      vertex 238.367 31.7655 0
      vertex 238.367 31.7655 10
      vertex 238.37 31.666 10
    endloop
  endfacet
  facet normal 0.953029 -0.30288 0
    outer loop
      vertex 238.657 32.678 0
      vertex 238.367 31.7655 10
      vertex 238.367 31.7655 0
    endloop
  endfacet
  facet normal 0.953029 -0.30288 0
    outer loop
      vertex 238.657 32.678 0
      vertex 238.657 32.678 10
      vertex 238.367 31.7655 10
    endloop
  endfacet
  facet normal -0.554782 0.831995 0
    outer loop
      vertex 237.723 32.0552 0
      vertex 238.657 32.678 10
      vertex 238.657 32.678 0
    endloop
  endfacet
  facet normal -0.554782 0.831995 0
    outer loop
      vertex 237.723 32.0552 0
      vertex 237.723 32.0552 10
      vertex 238.657 32.678 10
    endloop
  endfacet
  facet normal -0.2772 0.960812 0
    outer loop
      vertex 237.636 32.0301 0
      vertex 237.723 32.0552 10
      vertex 237.723 32.0552 0
    endloop
  endfacet
  facet normal -0.2772 0.960812 0
    outer loop
      vertex 237.636 32.0301 0
      vertex 237.636 32.0301 10
      vertex 237.723 32.0552 10
    endloop
  endfacet
  facet normal 0.0293991 0.999568 0
    outer loop
      vertex 237.296 32.0401 0
      vertex 237.636 32.0301 10
      vertex 237.636 32.0301 0
    endloop
  endfacet
  facet normal 0.0293991 0.999568 -0
    outer loop
      vertex 237.296 32.0401 0
      vertex 237.296 32.0401 10
      vertex 237.636 32.0301 10
    endloop
  endfacet
  facet normal 0.366372 0.930468 0
    outer loop
      vertex 237.2 32.0779 0
      vertex 237.296 32.0401 10
      vertex 237.296 32.0401 0
    endloop
  endfacet
  facet normal 0.366372 0.930468 -0
    outer loop
      vertex 237.2 32.0779 0
      vertex 237.2 32.0779 10
      vertex 237.296 32.0401 10
    endloop
  endfacet
  facet normal 0.664545 0.747248 0
    outer loop
      vertex 236.638 32.5777 0
      vertex 237.2 32.0779 10
      vertex 237.2 32.0779 0
    endloop
  endfacet
  facet normal 0.664545 0.747248 -0
    outer loop
      vertex 236.638 32.5777 0
      vertex 236.638 32.5777 10
      vertex 237.2 32.0779 10
    endloop
  endfacet
  facet normal -0.353117 0.935579 0
    outer loop
      vertex 236.124 32.3837 0
      vertex 236.638 32.5777 10
      vertex 236.638 32.5777 0
    endloop
  endfacet
  facet normal -0.353117 0.935579 0
    outer loop
      vertex 236.124 32.3837 0
      vertex 236.124 32.3837 10
      vertex 236.638 32.5777 10
    endloop
  endfacet
  facet normal -0.491013 0.871152 0
    outer loop
      vertex 235.706 32.1481 0
      vertex 236.124 32.3837 10
      vertex 236.124 32.3837 0
    endloop
  endfacet
  facet normal -0.491013 0.871152 0
    outer loop
      vertex 235.706 32.1481 0
      vertex 235.706 32.1481 10
      vertex 236.124 32.3837 10
    endloop
  endfacet
  facet normal -0.902738 -0.430191 0
    outer loop
      vertex 235.965 31.6046 0
      vertex 235.706 32.1481 10
      vertex 235.706 32.1481 0
    endloop
  endfacet
  facet normal -0.902738 -0.430191 0
    outer loop
      vertex 235.965 31.6046 0
      vertex 235.965 31.6046 10
      vertex 235.706 32.1481 10
    endloop
  endfacet
  facet normal -0.999708 -0.0241475 0
    outer loop
      vertex 235.968 31.4804 0
      vertex 235.965 31.6046 10
      vertex 235.965 31.6046 0
    endloop
  endfacet
  facet normal -0.999708 -0.0241475 0
    outer loop
      vertex 235.968 31.4804 0
      vertex 235.968 31.4804 10
      vertex 235.965 31.6046 10
    endloop
  endfacet
  facet normal -0.917556 0.397607 0
    outer loop
      vertex 235.838 31.1804 0
      vertex 235.968 31.4804 10
      vertex 235.968 31.4804 0
    endloop
  endfacet
  facet normal -0.917556 0.397607 0
    outer loop
      vertex 235.838 31.1804 0
      vertex 235.838 31.1804 10
      vertex 235.968 31.4804 10
    endloop
  endfacet
  facet normal -0.359292 0.933225 0
    outer loop
      vertex 235.638 31.1034 0
      vertex 235.838 31.1804 10
      vertex 235.838 31.1804 0
    endloop
  endfacet
  facet normal -0.359292 0.933225 0
    outer loop
      vertex 235.638 31.1034 0
      vertex 235.638 31.1034 10
      vertex 235.838 31.1804 10
    endloop
  endfacet
  facet normal 0.413346 0.910574 0
    outer loop
      vertex 234.496 31.6218 0
      vertex 235.638 31.1034 10
      vertex 235.638 31.1034 0
    endloop
  endfacet
  facet normal 0.413346 0.910574 -0
    outer loop
      vertex 234.496 31.6218 0
      vertex 234.496 31.6218 10
      vertex 235.638 31.1034 10
    endloop
  endfacet
  facet normal -0.242014 0.970273 0
    outer loop
      vertex 234.146 31.5345 0
      vertex 234.496 31.6218 10
      vertex 234.496 31.6218 0
    endloop
  endfacet
  facet normal -0.242014 0.970273 0
    outer loop
      vertex 234.146 31.5345 0
      vertex 234.146 31.5345 10
      vertex 234.496 31.6218 10
    endloop
  endfacet
  facet normal 0.354707 0.934977 0
    outer loop
      vertex 233.986 31.5952 0
      vertex 234.146 31.5345 10
      vertex 234.146 31.5345 0
    endloop
  endfacet
  facet normal 0.354707 0.934977 -0
    outer loop
      vertex 233.986 31.5952 0
      vertex 233.986 31.5952 10
      vertex 234.146 31.5345 10
    endloop
  endfacet
  facet normal 0.825602 0.564253 0
    outer loop
      vertex 233.709 32.0005 0
      vertex 233.986 31.5952 10
      vertex 233.986 31.5952 0
    endloop
  endfacet
  facet normal 0.825602 0.564253 -0
    outer loop
      vertex 233.709 32.0005 0
      vertex 233.709 32.0005 10
      vertex 233.986 31.5952 10
    endloop
  endfacet
  facet normal -0.632535 0.774532 0
    outer loop
      vertex 233.505 31.8339 0
      vertex 233.709 32.0005 10
      vertex 233.709 32.0005 0
    endloop
  endfacet
  facet normal -0.632535 0.774532 0
    outer loop
      vertex 233.505 31.8339 0
      vertex 233.505 31.8339 10
      vertex 233.709 32.0005 10
    endloop
  endfacet
  facet normal 0.228291 0.973593 0
    outer loop
      vertex 233.273 31.8883 0
      vertex 233.505 31.8339 10
      vertex 233.505 31.8339 0
    endloop
  endfacet
  facet normal 0.228291 0.973593 -0
    outer loop
      vertex 233.273 31.8883 0
      vertex 233.273 31.8883 10
      vertex 233.505 31.8339 10
    endloop
  endfacet
  facet normal 0.912037 0.410108 0
    outer loop
      vertex 233.16 32.1396 0
      vertex 233.273 31.8883 10
      vertex 233.273 31.8883 0
    endloop
  endfacet
  facet normal 0.912037 0.410108 -0
    outer loop
      vertex 233.16 32.1396 0
      vertex 233.16 32.1396 10
      vertex 233.273 31.8883 10
    endloop
  endfacet
  facet normal 0.328765 0.944412 0
    outer loop
      vertex 232.815 32.2597 0
      vertex 233.16 32.1396 10
      vertex 233.16 32.1396 0
    endloop
  endfacet
  facet normal 0.328765 0.944412 -0
    outer loop
      vertex 232.815 32.2597 0
      vertex 232.815 32.2597 10
      vertex 233.16 32.1396 10
    endloop
  endfacet
  facet normal -0.0109287 0.99994 0
    outer loop
      vertex 230.125 32.2303 0
      vertex 232.815 32.2597 10
      vertex 232.815 32.2597 0
    endloop
  endfacet
  facet normal -0.0109287 0.99994 0
    outer loop
      vertex 230.125 32.2303 0
      vertex 230.125 32.2303 10
      vertex 232.815 32.2597 10
    endloop
  endfacet
  facet normal -0.316307 0.948657 0
    outer loop
      vertex 229.054 31.8732 0
      vertex 230.125 32.2303 10
      vertex 230.125 32.2303 0
    endloop
  endfacet
  facet normal -0.316307 0.948657 0
    outer loop
      vertex 229.054 31.8732 0
      vertex 229.054 31.8732 10
      vertex 230.125 32.2303 10
    endloop
  endfacet
  facet normal -0.815089 0.579335 0
    outer loop
      vertex 228.002 30.3931 0
      vertex 229.054 31.8732 10
      vertex 229.054 31.8732 0
    endloop
  endfacet
  facet normal -0.815089 0.579335 0
    outer loop
      vertex 228.002 30.3931 0
      vertex 228.002 30.3931 10
      vertex 229.054 31.8732 10
    endloop
  endfacet
  facet normal -0.552132 0.833757 0
    outer loop
      vertex 227.912 30.3335 0
      vertex 228.002 30.3931 10
      vertex 228.002 30.3931 0
    endloop
  endfacet
  facet normal -0.552132 0.833757 0
    outer loop
      vertex 227.912 30.3335 0
      vertex 227.912 30.3335 10
      vertex 228.002 30.3931 10
    endloop
  endfacet
  facet normal -0.214809 0.976656 0
    outer loop
      vertex 227.556 30.2552 0
      vertex 227.912 30.3335 10
      vertex 227.912 30.3335 0
    endloop
  endfacet
  facet normal -0.214809 0.976656 0
    outer loop
      vertex 227.556 30.2552 0
      vertex 227.556 30.2552 10
      vertex 227.912 30.3335 10
    endloop
  endfacet
  facet normal -0.980166 -0.198179 0
    outer loop
      vertex 227.918 28.4648 0
      vertex 227.556 30.2552 10
      vertex 227.556 30.2552 0
    endloop
  endfacet
  facet normal -0.980166 -0.198179 0
    outer loop
      vertex 227.918 28.4648 0
      vertex 227.918 28.4648 10
      vertex 227.556 30.2552 10
    endloop
  endfacet
  facet normal -0.700971 -0.71319 0
    outer loop
      vertex 228.455 27.937 0
      vertex 227.918 28.4648 10
      vertex 227.918 28.4648 0
    endloop
  endfacet
  facet normal -0.700971 -0.71319 0
    outer loop
      vertex 228.455 27.937 0
      vertex 228.455 27.937 10
      vertex 227.918 28.4648 10
    endloop
  endfacet
  facet normal -0.933243 -0.359247 0
    outer loop
      vertex 228.5 27.8201 0
      vertex 228.455 27.937 10
      vertex 228.455 27.937 0
    endloop
  endfacet
  facet normal -0.933243 -0.359247 0
    outer loop
      vertex 228.5 27.8201 0
      vertex 228.5 27.8201 10
      vertex 228.455 27.937 10
    endloop
  endfacet
  facet normal -0.997832 0.0658127 0
    outer loop
      vertex 228.453 27.1075 0
      vertex 228.5 27.8201 10
      vertex 228.5 27.8201 0
    endloop
  endfacet
  facet normal -0.997832 0.0658127 0
    outer loop
      vertex 228.453 27.1075 0
      vertex 228.453 27.1075 10
      vertex 228.5 27.8201 10
    endloop
  endfacet
  facet normal -0.854412 -0.519596 0
    outer loop
      vertex 229.298 25.718 0
      vertex 228.453 27.1075 10
      vertex 228.453 27.1075 0
    endloop
  endfacet
  facet normal -0.854412 -0.519596 0
    outer loop
      vertex 229.298 25.718 0
      vertex 229.298 25.718 10
      vertex 228.453 27.1075 10
    endloop
  endfacet
  facet normal -0.954959 -0.296739 0
    outer loop
      vertex 229.32 25.6472 0
      vertex 229.298 25.718 10
      vertex 229.298 25.718 0
    endloop
  endfacet
  facet normal -0.954959 -0.296739 0
    outer loop
      vertex 229.32 25.6472 0
      vertex 229.32 25.6472 10
      vertex 229.298 25.718 10
    endloop
  endfacet
  facet normal -0.998821 -0.0485398 0
    outer loop
      vertex 229.373 24.5566 0
      vertex 229.32 25.6472 10
      vertex 229.32 25.6472 0
    endloop
  endfacet
  facet normal -0.998821 -0.0485398 0
    outer loop
      vertex 229.373 24.5566 0
      vertex 229.373 24.5566 10
      vertex 229.32 25.6472 10
    endloop
  endfacet
  facet normal 0.0456537 -0.998957 0
    outer loop
      vertex 229.594 24.5667 0
      vertex 229.373 24.5566 10
      vertex 229.373 24.5566 0
    endloop
  endfacet
  facet normal 0.0456537 -0.998957 0
    outer loop
      vertex 229.594 24.5667 0
      vertex 229.594 24.5667 10
      vertex 229.373 24.5566 10
    endloop
  endfacet
  facet normal 0.786492 -0.617601 0
    outer loop
      vertex 229.952 25.0226 0
      vertex 229.594 24.5667 10
      vertex 229.594 24.5667 0
    endloop
  endfacet
  facet normal 0.786492 -0.617601 0
    outer loop
      vertex 229.952 25.0226 0
      vertex 229.952 25.0226 10
      vertex 229.594 24.5667 10
    endloop
  endfacet
  facet normal -0.0192433 -0.999815 0
    outer loop
      vertex 230.191 25.018 0
      vertex 229.952 25.0226 10
      vertex 229.952 25.0226 0
    endloop
  endfacet
  facet normal -0.0192433 -0.999815 0
    outer loop
      vertex 230.191 25.018 0
      vertex 230.191 25.018 10
      vertex 229.952 25.0226 10
    endloop
  endfacet
  facet normal -0.809942 -0.58651 0
    outer loop
      vertex 230.611 24.438 0
      vertex 230.191 25.018 10
      vertex 230.191 25.018 0
    endloop
  endfacet
  facet normal -0.809942 -0.58651 0
    outer loop
      vertex 230.611 24.438 0
      vertex 230.611 24.438 10
      vertex 230.191 25.018 10
    endloop
  endfacet
  facet normal -0.999758 0.022009 0
    outer loop
      vertex 230.607 24.2563 0
      vertex 230.611 24.438 10
      vertex 230.611 24.438 0
    endloop
  endfacet
  facet normal -0.999758 0.022009 0
    outer loop
      vertex 230.607 24.2563 0
      vertex 230.607 24.2563 10
      vertex 230.611 24.438 10
    endloop
  endfacet
  facet normal -0.780904 0.624651 0
    outer loop
      vertex 230.26 23.8225 0
      vertex 230.607 24.2563 10
      vertex 230.607 24.2563 0
    endloop
  endfacet
  facet normal -0.780904 0.624651 0
    outer loop
      vertex 230.26 23.8225 0
      vertex 230.26 23.8225 10
      vertex 230.607 24.2563 10
    endloop
  endfacet
  facet normal -0.937281 -0.348575 0
    outer loop
      vertex 230.278 23.7741 0
      vertex 230.26 23.8225 10
      vertex 230.26 23.8225 0
    endloop
  endfacet
  facet normal -0.937281 -0.348575 0
    outer loop
      vertex 230.278 23.7741 0
      vertex 230.278 23.7741 10
      vertex 230.26 23.8225 10
    endloop
  endfacet
  facet normal 0.355685 -0.934606 0
    outer loop
      vertex 230.767 23.9602 0
      vertex 230.278 23.7741 10
      vertex 230.278 23.7741 0
    endloop
  endfacet
  facet normal 0.355685 -0.934606 0
    outer loop
      vertex 230.767 23.9602 0
      vertex 230.767 23.9602 10
      vertex 230.278 23.7741 10
    endloop
  endfacet
  facet normal -0.0304207 -0.999537 0
    outer loop
      vertex 230.882 23.9567 0
      vertex 230.767 23.9602 10
      vertex 230.767 23.9602 0
    endloop
  endfacet
  facet normal -0.0304207 -0.999537 0
    outer loop
      vertex 230.882 23.9567 0
      vertex 230.882 23.9567 10
      vertex 230.767 23.9602 10
    endloop
  endfacet
  facet normal -0.411607 -0.911361 0
    outer loop
      vertex 232.071 23.4197 0
      vertex 230.882 23.9567 10
      vertex 230.882 23.9567 0
    endloop
  endfacet
  facet normal -0.411607 -0.911361 0
    outer loop
      vertex 232.071 23.4197 0
      vertex 232.071 23.4197 10
      vertex 230.882 23.9567 10
    endloop
  endfacet
  facet normal 0.285599 -0.958349 0
    outer loop
      vertex 232.926 23.6745 0
      vertex 232.071 23.4197 10
      vertex 232.071 23.4197 0
    endloop
  endfacet
  facet normal 0.285599 -0.958349 0
    outer loop
      vertex 232.926 23.6745 0
      vertex 232.926 23.6745 10
      vertex 232.071 23.4197 10
    endloop
  endfacet
endsolid OpenSCAD_Model
