solid OpenSCAD_Model
  facet normal 0 0 -1
    outer loop
      vertex 37.7163 58.2063 10
      vertex 41.3049 58.2063 10
      vertex 41.3049 57.1241 10
    endloop
  endfacet
  facet normal -0 0 -1
    outer loop
      vertex 47.8555 59.8245 10
      vertex 46.6393 59.1415 10
      vertex 47.6195 60.1312 10
    endloop
  endfacet
  facet normal 0 -0 -1
    outer loop
      vertex 37.7163 58.2063 10
      vertex 41.3049 57.1241 10
      vertex 36.3159 57.1241 10
    endloop
  endfacet
  facet normal 0 0 -1
    outer loop
      vertex 37.7163 58.2063 10
      vertex 36.3159 63.8124 10
      vertex 37.7163 63.8124 10
    endloop
  endfacet
  facet normal -0 0 -1
    outer loop
      vertex 37.7163 58.2063 10
      vertex 36.3159 57.1241 10
      vertex 36.3159 63.8124 10
    endloop
  endfacet
  facet normal 0 -0 -1
    outer loop
      vertex 46.6393 59.1415 10
      vertex 48.0443 59.0323 10
      vertex 46.6047 58.8427 10
    endloop
  endfacet
  facet normal 0 0 -1
    outer loop
      vertex 46.6393 59.1415 10
      vertex 46.4895 59.6636 10
      vertex 47.6195 60.1312 10
    endloop
  endfacet
  facet normal -0 0 -1
    outer loop
      vertex 47.6195 60.1312 10
      vertex 46.4895 59.6636 10
      vertex 47.2933 60.3725 10
    endloop
  endfacet
  facet normal -0 0 -1
    outer loop
      vertex 47.2933 60.3725 10
      vertex 46.4895 59.6636 10
      vertex 46.8811 60.5426 10
    endloop
  endfacet
  facet normal -0 0 -1
    outer loop
      vertex 46.8811 60.5426 10
      vertex 46.4895 59.6636 10
      vertex 46.3829 60.6415 10
    endloop
  endfacet
  facet normal -0 0 -1
    outer loop
      vertex 47.9971 59.4582 10
      vertex 46.6393 59.1415 10
      vertex 47.8555 59.8245 10
    endloop
  endfacet
  facet normal 0 0 -1
    outer loop
      vertex 50.8707 59.8678 10
      vertex 52.2663 59.8678 10
      vertex 52.2663 57.1241 10
    endloop
  endfacet
  facet normal 0 0 -1
    outer loop
      vertex 48.0443 59.0323 10
      vertex 47.9684 58.4706 10
      vertex 46.6047 58.8427 10
    endloop
  endfacet
  facet normal 0 -0 -1
    outer loop
      vertex 51.559 60.9833 10
      vertex 52.2663 59.8678 10
      vertex 50.8707 59.8678 10
    endloop
  endfacet
  facet normal 0 0 -1
    outer loop
      vertex 46.0401 59.9769 10
      vertex 45.4797 61.1391 10
      vertex 46.3829 60.6415 10
    endloop
  endfacet
  facet normal 0 0 -1
    outer loop
      vertex 46.5011 58.5982 10
      vertex 46.6047 58.8427 10
      vertex 47.7405 58.0007 10
    endloop
  endfacet
  facet normal 0 0 -1
    outer loop
      vertex 47.3608 57.6225 10
      vertex 46.3284 58.4081 10
      vertex 46.5011 58.5982 10
    endloop
  endfacet
  facet normal 0 0 -1
    outer loop
      vertex 46.25 61.9422 10
      vertex 47.6598 62.132 10
      vertex 47.6247 61.772 10
    endloop
  endfacet
  facet normal 0 0 -1
    outer loop
      vertex 45.462 57.1241 10
      vertex 43.5158 58.1636 10
      vertex 45.3434 58.1636 10
    endloop
  endfacet
  facet normal 0 0 -1
    outer loop
      vertex 45.1772 63.8124 10
      vertex 45.9275 63.7652 10
      vertex 45.4565 62.7517 10
    endloop
  endfacet
  facet normal 0 0 -1
    outer loop
      vertex 46.2181 62.2138 10
      vertex 47.5899 62.6407 10
      vertex 47.6598 62.132 10
    endloop
  endfacet
  facet normal 0 0 -1
    outer loop
      vertex 47.5195 61.4516 10
      vertex 46.25 61.9422 10
      vertex 47.6247 61.772 10
    endloop
  endfacet
  facet normal 0 0 -1
    outer loop
      vertex 46.2181 62.2138 10
      vertex 46.1224 62.4274 10
      vertex 47.3803 63.0592 10
    endloop
  endfacet
  facet normal 0 0 -1
    outer loop
      vertex 45.7405 62.6884 10
      vertex 45.9275 63.7652 10
      vertex 45.9628 62.5829 10
    endloop
  endfacet
  facet normal 0 0 -1
    outer loop
      vertex 45.9628 62.5829 10
      vertex 45.9275 63.7652 10
      vertex 46.5454 63.6236 10
    endloop
  endfacet
  facet normal 0 0 -1
    outer loop
      vertex 50.8707 57.1241 10
      vertex 50.8707 59.8678 10
      vertex 52.2663 57.1241 10
    endloop
  endfacet
  facet normal 0 0 -1
    outer loop
      vertex 45.4565 62.7517 10
      vertex 45.9275 63.7652 10
      vertex 45.7405 62.6884 10
    endloop
  endfacet
  facet normal 0 0 -1
    outer loop
      vertex 45.1108 62.7728 10
      vertex 45.1772 63.8124 10
      vertex 45.4565 62.7517 10
    endloop
  endfacet
  facet normal 0 0 -1
    outer loop
      vertex 43.5158 61.1161 10
      vertex 42.1155 63.8124 10
      vertex 43.5158 62.7728 10
    endloop
  endfacet
  facet normal 0 0 -1
    outer loop
      vertex 42.1155 57.1241 10
      vertex 43.5158 60.0814 10
      vertex 43.5158 58.1636 10
    endloop
  endfacet
  facet normal 0 0 -1
    outer loop
      vertex 43.5158 60.0814 10
      vertex 45.1203 61.1161 10
      vertex 45.2912 60.0814 10
    endloop
  endfacet
  facet normal -0 0 -1
    outer loop
      vertex 43.5158 60.0814 10
      vertex 42.1155 57.1241 10
      vertex 42.1155 63.8124 10
    endloop
  endfacet
  facet normal 0 0 -1
    outer loop
      vertex 43.5158 62.7728 10
      vertex 42.1155 63.8124 10
      vertex 45.1772 63.8124 10
    endloop
  endfacet
  facet normal 0 0 -1
    outer loop
      vertex 45.1108 62.7728 10
      vertex 43.5158 62.7728 10
      vertex 45.1772 63.8124 10
    endloop
  endfacet
  facet normal 0 0 -1
    outer loop
      vertex 46.1224 62.4274 10
      vertex 45.9628 62.5829 10
      vertex 46.5454 63.6236 10
    endloop
  endfacet
  facet normal 0 -0 -1
    outer loop
      vertex 47.0309 63.3875 10
      vertex 47.3803 63.0592 10
      vertex 46.1224 62.4274 10
    endloop
  endfacet
  facet normal -0 0 -1
    outer loop
      vertex 47.0309 63.3875 10
      vertex 46.1224 62.4274 10
      vertex 46.5454 63.6236 10
    endloop
  endfacet
  facet normal -0 0 -1
    outer loop
      vertex 47.5899 62.6407 10
      vertex 46.2181 62.2138 10
      vertex 47.3803 63.0592 10
    endloop
  endfacet
  facet normal 0 0 -1
    outer loop
      vertex 46.2181 62.2138 10
      vertex 47.6598 62.132 10
      vertex 46.25 61.9422 10
    endloop
  endfacet
  facet normal -0 0 -1
    outer loop
      vertex 47.5195 61.4516 10
      vertex 47.3441 61.1708 10
      vertex 46.2202 61.6898 10
    endloop
  endfacet
  facet normal 0 0 -1
    outer loop
      vertex 47.5195 61.4516 10
      vertex 46.2202 61.6898 10
      vertex 46.25 61.9422 10
    endloop
  endfacet
  facet normal 0 -0 -1
    outer loop
      vertex 46.2202 61.6898 10
      vertex 47.097 60.9379 10
      vertex 46.1308 61.4833 10
    endloop
  endfacet
  facet normal -0 0 -1
    outer loop
      vertex 47.3441 61.1708 10
      vertex 47.097 60.9379 10
      vertex 46.2202 61.6898 10
    endloop
  endfacet
  facet normal -0 0 -1
    outer loop
      vertex 47.097 60.9379 10
      vertex 46.7767 60.7615 10
      vertex 46.1308 61.4833 10
    endloop
  endfacet
  facet normal 0 0 -1
    outer loop
      vertex 46.1308 61.4833 10
      vertex 46.7767 60.7615 10
      vertex 46.3829 60.6415 10
    endloop
  endfacet
  facet normal 0 0 -1
    outer loop
      vertex 45.9818 61.3226 10
      vertex 46.1308 61.4833 10
      vertex 46.3829 60.6415 10
    endloop
  endfacet
  facet normal 0 0 -1
    outer loop
      vertex 45.7669 61.2079 10
      vertex 45.9818 61.3226 10
      vertex 46.3829 60.6415 10
    endloop
  endfacet
  facet normal 0 0 -1
    outer loop
      vertex 45.1203 61.1161 10
      vertex 45.4797 61.1391 10
      vertex 45.2912 60.0814 10
    endloop
  endfacet
  facet normal 0 0 -1
    outer loop
      vertex 45.4797 61.1391 10
      vertex 45.7669 61.2079 10
      vertex 46.3829 60.6415 10
    endloop
  endfacet
  facet normal 0 0 -1
    outer loop
      vertex 45.7524 58.1908 10
      vertex 46.0807 58.2723 10
      vertex 46.2131 57.1794 10
    endloop
  endfacet
  facet normal 0 0 -1
    outer loop
      vertex 42.1155 63.8124 10
      vertex 43.5158 61.1161 10
      vertex 43.5158 60.0814 10
    endloop
  endfacet
  facet normal 0 0 -1
    outer loop
      vertex 42.1155 57.1241 10
      vertex 43.5158 58.1636 10
      vertex 45.462 57.1241 10
    endloop
  endfacet
  facet normal 0 0 -1
    outer loop
      vertex 43.5158 60.0814 10
      vertex 43.5158 61.1161 10
      vertex 45.1203 61.1161 10
    endloop
  endfacet
  facet normal 0 0 -1
    outer loop
      vertex 45.2912 60.0814 10
      vertex 45.4797 61.1391 10
      vertex 46.0401 59.9769 10
    endloop
  endfacet
  facet normal 0 0 -1
    outer loop
      vertex 46.0401 59.9769 10
      vertex 46.3829 60.6415 10
      vertex 46.4895 59.6636 10
    endloop
  endfacet
  facet normal 0 -0 -1
    outer loop
      vertex 47.9971 59.4582 10
      vertex 48.0443 59.0323 10
      vertex 46.6393 59.1415 10
    endloop
  endfacet
  facet normal 0 0 -1
    outer loop
      vertex 46.6047 58.8427 10
      vertex 47.9684 58.4706 10
      vertex 47.7405 58.0007 10
    endloop
  endfacet
  facet normal -0 0 -1
    outer loop
      vertex 47.7405 58.0007 10
      vertex 47.3608 57.6225 10
      vertex 46.5011 58.5982 10
    endloop
  endfacet
  facet normal -0 0 -1
    outer loop
      vertex 47.3608 57.6225 10
      vertex 46.846 57.3456 10
      vertex 46.3284 58.4081 10
    endloop
  endfacet
  facet normal 0 -0 -1
    outer loop
      vertex 46.3284 58.4081 10
      vertex 46.846 57.3456 10
      vertex 46.0807 58.2723 10
    endloop
  endfacet
  facet normal 0 0 -1
    outer loop
      vertex 46.0807 58.2723 10
      vertex 46.846 57.3456 10
      vertex 46.2131 57.1794 10
    endloop
  endfacet
  facet normal 0 0 -1
    outer loop
      vertex 45.3434 58.1636 10
      vertex 45.7524 58.1908 10
      vertex 45.462 57.1241 10
    endloop
  endfacet
  facet normal 0 -0 -1
    outer loop
      vertex 45.7524 58.1908 10
      vertex 46.2131 57.1794 10
      vertex 45.462 57.1241 10
    endloop
  endfacet
  facet normal 0 0 -1
    outer loop
      vertex 52.2663 59.8678 10
      vertex 53.1825 63.8124 10
      vertex 54.6493 63.8124 10
    endloop
  endfacet
  facet normal 0 0 -1
    outer loop
      vertex 51.559 60.9833 10
      vertex 53.1825 63.8124 10
      vertex 52.2663 59.8678 10
    endloop
  endfacet
  facet normal -0 -0 -1
    outer loop
      vertex 49.9546 63.8124 10
      vertex 50.8707 59.8678 10
      vertex 48.4878 63.8124 10
    endloop
  endfacet
  facet normal -0 0 -1
    outer loop
      vertex 51.559 60.9833 10
      vertex 50.8707 59.8678 10
      vertex 49.9546 63.8124 10
    endloop
  endfacet
  facet normal 0 -0 1
    outer loop
      vertex 41.3049 57.1241 10.8
      vertex 41.3049 58.2063 10.8
      vertex 37.7163 58.2063 10.8
    endloop
  endfacet
  facet normal 0 0 1
    outer loop
      vertex 47.6195 60.1312 10.8
      vertex 46.6393 59.1415 10.8
      vertex 47.8555 59.8245 10.8
    endloop
  endfacet
  facet normal 0 0 1
    outer loop
      vertex 36.3159 57.1241 10.8
      vertex 41.3049 57.1241 10.8
      vertex 37.7163 58.2063 10.8
    endloop
  endfacet
  facet normal 0 0 1
    outer loop
      vertex 37.7163 63.8124 10.8
      vertex 36.3159 63.8124 10.8
      vertex 37.7163 58.2063 10.8
    endloop
  endfacet
  facet normal 0 0 1
    outer loop
      vertex 36.3159 63.8124 10.8
      vertex 36.3159 57.1241 10.8
      vertex 37.7163 58.2063 10.8
    endloop
  endfacet
  facet normal 0 0 1
    outer loop
      vertex 46.6047 58.8427 10.8
      vertex 48.0443 59.0323 10.8
      vertex 46.6393 59.1415 10.8
    endloop
  endfacet
  facet normal 0 0 1
    outer loop
      vertex 47.6195 60.1312 10.8
      vertex 46.4895 59.6636 10.8
      vertex 46.6393 59.1415 10.8
    endloop
  endfacet
  facet normal 0 0 1
    outer loop
      vertex 47.2933 60.3725 10.8
      vertex 46.4895 59.6636 10.8
      vertex 47.6195 60.1312 10.8
    endloop
  endfacet
  facet normal 0 0 1
    outer loop
      vertex 46.8811 60.5426 10.8
      vertex 46.4895 59.6636 10.8
      vertex 47.2933 60.3725 10.8
    endloop
  endfacet
  facet normal 0 0 1
    outer loop
      vertex 46.3829 60.6415 10.8
      vertex 46.4895 59.6636 10.8
      vertex 46.8811 60.5426 10.8
    endloop
  endfacet
  facet normal 0 0 1
    outer loop
      vertex 47.8555 59.8245 10.8
      vertex 46.6393 59.1415 10.8
      vertex 47.9971 59.4582 10.8
    endloop
  endfacet
  facet normal 0 -0 1
    outer loop
      vertex 52.2663 57.1241 10.8
      vertex 52.2663 59.8678 10.8
      vertex 50.8707 59.8678 10.8
    endloop
  endfacet
  facet normal -0 0 1
    outer loop
      vertex 46.6047 58.8427 10.8
      vertex 47.9684 58.4706 10.8
      vertex 48.0443 59.0323 10.8
    endloop
  endfacet
  facet normal 0 0 1
    outer loop
      vertex 50.8707 59.8678 10.8
      vertex 52.2663 59.8678 10.8
      vertex 51.559 60.9833 10.8
    endloop
  endfacet
  facet normal 0 0 1
    outer loop
      vertex 46.3829 60.6415 10.8
      vertex 45.4797 61.1391 10.8
      vertex 46.0401 59.9769 10.8
    endloop
  endfacet
  facet normal 0 0 1
    outer loop
      vertex 47.7405 58.0007 10.8
      vertex 46.6047 58.8427 10.8
      vertex 46.5011 58.5982 10.8
    endloop
  endfacet
  facet normal 0 0 1
    outer loop
      vertex 46.5011 58.5982 10.8
      vertex 46.3284 58.4081 10.8
      vertex 47.3608 57.6225 10.8
    endloop
  endfacet
  facet normal 0 -0 1
    outer loop
      vertex 47.6247 61.772 10.8
      vertex 47.6598 62.132 10.8
      vertex 46.25 61.9422 10.8
    endloop
  endfacet
  facet normal 0 0 1
    outer loop
      vertex 45.3434 58.1636 10.8
      vertex 43.5158 58.1636 10.8
      vertex 45.462 57.1241 10.8
    endloop
  endfacet
  facet normal 0 -0 1
    outer loop
      vertex 45.4565 62.7517 10.8
      vertex 45.9275 63.7652 10.8
      vertex 45.1772 63.8124 10.8
    endloop
  endfacet
  facet normal 0 0 1
    outer loop
      vertex 47.6598 62.132 10.8
      vertex 47.5899 62.6407 10.8
      vertex 46.2181 62.2138 10.8
    endloop
  endfacet
  facet normal 0 0 1
    outer loop
      vertex 47.6247 61.772 10.8
      vertex 46.25 61.9422 10.8
      vertex 47.5195 61.4516 10.8
    endloop
  endfacet
  facet normal 0 0 1
    outer loop
      vertex 47.3803 63.0592 10.8
      vertex 46.1224 62.4274 10.8
      vertex 46.2181 62.2138 10.8
    endloop
  endfacet
  facet normal 0 0 1
    outer loop
      vertex 45.9628 62.5829 10.8
      vertex 45.9275 63.7652 10.8
      vertex 45.7405 62.6884 10.8
    endloop
  endfacet
  facet normal 0 0 1
    outer loop
      vertex 46.5454 63.6236 10.8
      vertex 45.9275 63.7652 10.8
      vertex 45.9628 62.5829 10.8
    endloop
  endfacet
  facet normal 0 0 1
    outer loop
      vertex 52.2663 57.1241 10.8
      vertex 50.8707 59.8678 10.8
      vertex 50.8707 57.1241 10.8
    endloop
  endfacet
  facet normal 0 -0 1
    outer loop
      vertex 45.7405 62.6884 10.8
      vertex 45.9275 63.7652 10.8
      vertex 45.4565 62.7517 10.8
    endloop
  endfacet
  facet normal 0 0 1
    outer loop
      vertex 45.4565 62.7517 10.8
      vertex 45.1772 63.8124 10.8
      vertex 45.1108 62.7728 10.8
    endloop
  endfacet
  facet normal 0 0 1
    outer loop
      vertex 43.5158 62.7728 10.8
      vertex 42.1155 63.8124 10.8
      vertex 43.5158 61.1161 10.8
    endloop
  endfacet
  facet normal 0 -0 1
    outer loop
      vertex 43.5158 58.1636 10.8
      vertex 43.5158 60.0814 10.8
      vertex 42.1155 57.1241 10.8
    endloop
  endfacet
  facet normal 0 0 1
    outer loop
      vertex 45.2912 60.0814 10.8
      vertex 45.1203 61.1161 10.8
      vertex 43.5158 60.0814 10.8
    endloop
  endfacet
  facet normal 0 0 1
    outer loop
      vertex 42.1155 63.8124 10.8
      vertex 42.1155 57.1241 10.8
      vertex 43.5158 60.0814 10.8
    endloop
  endfacet
  facet normal 0 0 1
    outer loop
      vertex 45.1772 63.8124 10.8
      vertex 42.1155 63.8124 10.8
      vertex 43.5158 62.7728 10.8
    endloop
  endfacet
  facet normal 0 0 1
    outer loop
      vertex 45.1772 63.8124 10.8
      vertex 43.5158 62.7728 10.8
      vertex 45.1108 62.7728 10.8
    endloop
  endfacet
  facet normal 0 0 1
    outer loop
      vertex 46.5454 63.6236 10.8
      vertex 45.9628 62.5829 10.8
      vertex 46.1224 62.4274 10.8
    endloop
  endfacet
  facet normal 0 0 1
    outer loop
      vertex 46.1224 62.4274 10.8
      vertex 47.3803 63.0592 10.8
      vertex 47.0309 63.3875 10.8
    endloop
  endfacet
  facet normal 0 0 1
    outer loop
      vertex 46.5454 63.6236 10.8
      vertex 46.1224 62.4274 10.8
      vertex 47.0309 63.3875 10.8
    endloop
  endfacet
  facet normal 0 0 1
    outer loop
      vertex 47.3803 63.0592 10.8
      vertex 46.2181 62.2138 10.8
      vertex 47.5899 62.6407 10.8
    endloop
  endfacet
  facet normal 0 -0 1
    outer loop
      vertex 46.25 61.9422 10.8
      vertex 47.6598 62.132 10.8
      vertex 46.2181 62.2138 10.8
    endloop
  endfacet
  facet normal 0 0 1
    outer loop
      vertex 46.2202 61.6898 10.8
      vertex 47.3441 61.1708 10.8
      vertex 47.5195 61.4516 10.8
    endloop
  endfacet
  facet normal 0 0 1
    outer loop
      vertex 46.25 61.9422 10.8
      vertex 46.2202 61.6898 10.8
      vertex 47.5195 61.4516 10.8
    endloop
  endfacet
  facet normal -0 0 1
    outer loop
      vertex 46.1308 61.4833 10.8
      vertex 47.097 60.9379 10.8
      vertex 46.2202 61.6898 10.8
    endloop
  endfacet
  facet normal 0 0 1
    outer loop
      vertex 46.2202 61.6898 10.8
      vertex 47.097 60.9379 10.8
      vertex 47.3441 61.1708 10.8
    endloop
  endfacet
  facet normal 0 0 1
    outer loop
      vertex 46.1308 61.4833 10.8
      vertex 46.7767 60.7615 10.8
      vertex 47.097 60.9379 10.8
    endloop
  endfacet
  facet normal 0 -0 1
    outer loop
      vertex 46.3829 60.6415 10.8
      vertex 46.7767 60.7615 10.8
      vertex 46.1308 61.4833 10.8
    endloop
  endfacet
  facet normal 0 0 1
    outer loop
      vertex 46.3829 60.6415 10.8
      vertex 46.1308 61.4833 10.8
      vertex 45.9818 61.3226 10.8
    endloop
  endfacet
  facet normal 0 0 1
    outer loop
      vertex 46.3829 60.6415 10.8
      vertex 45.9818 61.3226 10.8
      vertex 45.7669 61.2079 10.8
    endloop
  endfacet
  facet normal 0 -0 1
    outer loop
      vertex 45.2912 60.0814 10.8
      vertex 45.4797 61.1391 10.8
      vertex 45.1203 61.1161 10.8
    endloop
  endfacet
  facet normal 0 0 1
    outer loop
      vertex 46.3829 60.6415 10.8
      vertex 45.7669 61.2079 10.8
      vertex 45.4797 61.1391 10.8
    endloop
  endfacet
  facet normal 0 0 1
    outer loop
      vertex 46.2131 57.1794 10.8
      vertex 46.0807 58.2723 10.8
      vertex 45.7524 58.1908 10.8
    endloop
  endfacet
  facet normal 0 -0 1
    outer loop
      vertex 43.5158 60.0814 10.8
      vertex 43.5158 61.1161 10.8
      vertex 42.1155 63.8124 10.8
    endloop
  endfacet
  facet normal 0 0 1
    outer loop
      vertex 45.462 57.1241 10.8
      vertex 43.5158 58.1636 10.8
      vertex 42.1155 57.1241 10.8
    endloop
  endfacet
  facet normal 0 0 1
    outer loop
      vertex 45.1203 61.1161 10.8
      vertex 43.5158 61.1161 10.8
      vertex 43.5158 60.0814 10.8
    endloop
  endfacet
  facet normal 0 0 1
    outer loop
      vertex 46.0401 59.9769 10.8
      vertex 45.4797 61.1391 10.8
      vertex 45.2912 60.0814 10.8
    endloop
  endfacet
  facet normal 0 0 1
    outer loop
      vertex 46.4895 59.6636 10.8
      vertex 46.3829 60.6415 10.8
      vertex 46.0401 59.9769 10.8
    endloop
  endfacet
  facet normal -0 0 1
    outer loop
      vertex 46.6393 59.1415 10.8
      vertex 48.0443 59.0323 10.8
      vertex 47.9971 59.4582 10.8
    endloop
  endfacet
  facet normal 0 -0 1
    outer loop
      vertex 47.7405 58.0007 10.8
      vertex 47.9684 58.4706 10.8
      vertex 46.6047 58.8427 10.8
    endloop
  endfacet
  facet normal 0 0 1
    outer loop
      vertex 46.5011 58.5982 10.8
      vertex 47.3608 57.6225 10.8
      vertex 47.7405 58.0007 10.8
    endloop
  endfacet
  facet normal 0 0 1
    outer loop
      vertex 46.3284 58.4081 10.8
      vertex 46.846 57.3456 10.8
      vertex 47.3608 57.6225 10.8
    endloop
  endfacet
  facet normal -0 0 1
    outer loop
      vertex 46.0807 58.2723 10.8
      vertex 46.846 57.3456 10.8
      vertex 46.3284 58.4081 10.8
    endloop
  endfacet
  facet normal 0 -0 1
    outer loop
      vertex 46.2131 57.1794 10.8
      vertex 46.846 57.3456 10.8
      vertex 46.0807 58.2723 10.8
    endloop
  endfacet
  facet normal 0 -0 1
    outer loop
      vertex 45.462 57.1241 10.8
      vertex 45.7524 58.1908 10.8
      vertex 45.3434 58.1636 10.8
    endloop
  endfacet
  facet normal 0 0 1
    outer loop
      vertex 45.462 57.1241 10.8
      vertex 46.2131 57.1794 10.8
      vertex 45.7524 58.1908 10.8
    endloop
  endfacet
  facet normal 0 0 1
    outer loop
      vertex 54.6493 63.8124 10.8
      vertex 53.1825 63.8124 10.8
      vertex 52.2663 59.8678 10.8
    endloop
  endfacet
  facet normal 0 -0 1
    outer loop
      vertex 52.2663 59.8678 10.8
      vertex 53.1825 63.8124 10.8
      vertex 51.559 60.9833 10.8
    endloop
  endfacet
  facet normal -0 0 1
    outer loop
      vertex 48.4878 63.8124 10.8
      vertex 50.8707 59.8678 10.8
      vertex 49.9546 63.8124 10.8
    endloop
  endfacet
  facet normal 0 0 1
    outer loop
      vertex 49.9546 63.8124 10.8
      vertex 50.8707 59.8678 10.8
      vertex 51.559 60.9833 10.8
    endloop
  endfacet
  facet normal 0 1 0
    outer loop
      vertex 37.7163 58.2063 10
      vertex 41.3049 58.2063 10.8
      vertex 41.3049 58.2063 10
    endloop
  endfacet
  facet normal 0 1 0
    outer loop
      vertex 37.7163 58.2063 10
      vertex 37.7163 58.2063 10.8
      vertex 41.3049 58.2063 10.8
    endloop
  endfacet
  facet normal 1 0 0
    outer loop
      vertex 37.7163 63.8124 10
      vertex 37.7163 58.2063 10.8
      vertex 37.7163 58.2063 10
    endloop
  endfacet
  facet normal 1 0 -0
    outer loop
      vertex 37.7163 63.8124 10
      vertex 37.7163 63.8124 10.8
      vertex 37.7163 58.2063 10.8
    endloop
  endfacet
  facet normal 0 1 0
    outer loop
      vertex 36.3159 63.8124 10
      vertex 37.7163 63.8124 10.8
      vertex 37.7163 63.8124 10
    endloop
  endfacet
  facet normal 0 1 0
    outer loop
      vertex 36.3159 63.8124 10
      vertex 36.3159 63.8124 10.8
      vertex 37.7163 63.8124 10.8
    endloop
  endfacet
  facet normal -1 0 0
    outer loop
      vertex 36.3159 57.1241 10
      vertex 36.3159 63.8124 10.8
      vertex 36.3159 63.8124 10
    endloop
  endfacet
  facet normal -1 0 0
    outer loop
      vertex 36.3159 57.1241 10
      vertex 36.3159 57.1241 10.8
      vertex 36.3159 63.8124 10.8
    endloop
  endfacet
  facet normal 0 -1 0
    outer loop
      vertex 41.3049 57.1241 10
      vertex 36.3159 57.1241 10.8
      vertex 36.3159 57.1241 10
    endloop
  endfacet
  facet normal 0 -1 0
    outer loop
      vertex 41.3049 57.1241 10
      vertex 41.3049 57.1241 10.8
      vertex 36.3159 57.1241 10.8
    endloop
  endfacet
  facet normal 1 0 0
    outer loop
      vertex 41.3049 58.2063 10
      vertex 41.3049 57.1241 10.8
      vertex 41.3049 57.1241 10
    endloop
  endfacet
  facet normal 1 0 -0
    outer loop
      vertex 41.3049 58.2063 10
      vertex 41.3049 58.2063 10.8
      vertex 41.3049 57.1241 10.8
    endloop
  endfacet
  facet normal 0.253989 -0.967207 0
    outer loop
      vertex 46.846 57.3456 10
      vertex 46.2131 57.1794 10.8
      vertex 46.2131 57.1794 10
    endloop
  endfacet
  facet normal 0.253989 -0.967207 0
    outer loop
      vertex 46.846 57.3456 10
      vertex 46.846 57.3456 10.8
      vertex 46.2131 57.1794 10.8
    endloop
  endfacet
  facet normal 0.473702 -0.880685 0
    outer loop
      vertex 47.3608 57.6225 10
      vertex 46.846 57.3456 10.8
      vertex 46.846 57.3456 10
    endloop
  endfacet
  facet normal 0.473702 -0.880685 0
    outer loop
      vertex 47.3608 57.6225 10
      vertex 47.3608 57.6225 10.8
      vertex 46.846 57.3456 10.8
    endloop
  endfacet
  facet normal 0.705706 -0.708505 0
    outer loop
      vertex 47.7405 58.0007 10
      vertex 47.3608 57.6225 10.8
      vertex 47.3608 57.6225 10
    endloop
  endfacet
  facet normal 0.705706 -0.708505 0
    outer loop
      vertex 47.7405 58.0007 10
      vertex 47.7405 58.0007 10.8
      vertex 47.3608 57.6225 10.8
    endloop
  endfacet
  facet normal 0.899762 -0.436382 0
    outer loop
      vertex 47.9684 58.4706 10
      vertex 47.7405 58.0007 10.8
      vertex 47.7405 58.0007 10
    endloop
  endfacet
  facet normal 0.899762 -0.436382 0
    outer loop
      vertex 47.9684 58.4706 10
      vertex 47.9684 58.4706 10.8
      vertex 47.7405 58.0007 10.8
    endloop
  endfacet
  facet normal 0.990994 -0.133909 0
    outer loop
      vertex 48.0443 59.0323 10
      vertex 47.9684 58.4706 10.8
      vertex 47.9684 58.4706 10
    endloop
  endfacet
  facet normal 0.990994 -0.133909 0
    outer loop
      vertex 48.0443 59.0323 10
      vertex 48.0443 59.0323 10.8
      vertex 47.9684 58.4706 10.8
    endloop
  endfacet
  facet normal 0.993915 0.11015 0
    outer loop
      vertex 47.9971 59.4582 10
      vertex 48.0443 59.0323 10.8
      vertex 48.0443 59.0323 10
    endloop
  endfacet
  facet normal 0.993915 0.11015 -0
    outer loop
      vertex 47.9971 59.4582 10
      vertex 47.9971 59.4582 10.8
      vertex 48.0443 59.0323 10.8
    endloop
  endfacet
  facet normal 0.932734 0.360565 0
    outer loop
      vertex 47.8555 59.8245 10
      vertex 47.9971 59.4582 10.8
      vertex 47.9971 59.4582 10
    endloop
  endfacet
  facet normal 0.932734 0.360565 -0
    outer loop
      vertex 47.8555 59.8245 10
      vertex 47.8555 59.8245 10.8
      vertex 47.9971 59.4582 10.8
    endloop
  endfacet
  facet normal 0.792528 0.609836 0
    outer loop
      vertex 47.6195 60.1312 10
      vertex 47.8555 59.8245 10.8
      vertex 47.8555 59.8245 10
    endloop
  endfacet
  facet normal 0.792528 0.609836 -0
    outer loop
      vertex 47.6195 60.1312 10
      vertex 47.6195 60.1312 10.8
      vertex 47.8555 59.8245 10.8
    endloop
  endfacet
  facet normal 0.594703 0.803946 0
    outer loop
      vertex 47.2933 60.3725 10
      vertex 47.6195 60.1312 10.8
      vertex 47.6195 60.1312 10
    endloop
  endfacet
  facet normal 0.594703 0.803946 -0
    outer loop
      vertex 47.2933 60.3725 10
      vertex 47.2933 60.3725 10.8
      vertex 47.6195 60.1312 10.8
    endloop
  endfacet
  facet normal 0.38146 0.924385 0
    outer loop
      vertex 46.8811 60.5426 10
      vertex 47.2933 60.3725 10.8
      vertex 47.2933 60.3725 10
    endloop
  endfacet
  facet normal 0.38146 0.924385 -0
    outer loop
      vertex 46.8811 60.5426 10
      vertex 46.8811 60.5426 10.8
      vertex 47.2933 60.3725 10.8
    endloop
  endfacet
  facet normal 0.194715 0.98086 0
    outer loop
      vertex 46.3829 60.6415 10
      vertex 46.8811 60.5426 10.8
      vertex 46.8811 60.5426 10
    endloop
  endfacet
  facet normal 0.194715 0.98086 -0
    outer loop
      vertex 46.3829 60.6415 10
      vertex 46.3829 60.6415 10.8
      vertex 46.8811 60.5426 10.8
    endloop
  endfacet
  facet normal 0.29149 -0.956574 0
    outer loop
      vertex 46.7767 60.7615 10
      vertex 46.3829 60.6415 10.8
      vertex 46.3829 60.6415 10
    endloop
  endfacet
  facet normal 0.29149 -0.956574 0
    outer loop
      vertex 46.7767 60.7615 10
      vertex 46.7767 60.7615 10.8
      vertex 46.3829 60.6415 10.8
    endloop
  endfacet
  facet normal 0.482412 -0.875944 0
    outer loop
      vertex 47.097 60.9379 10
      vertex 46.7767 60.7615 10.8
      vertex 46.7767 60.7615 10
    endloop
  endfacet
  facet normal 0.482412 -0.875944 0
    outer loop
      vertex 47.097 60.9379 10
      vertex 47.097 60.9379 10.8
      vertex 46.7767 60.7615 10.8
    endloop
  endfacet
  facet normal 0.685888 -0.727707 0
    outer loop
      vertex 47.3441 61.1708 10
      vertex 47.097 60.9379 10.8
      vertex 47.097 60.9379 10
    endloop
  endfacet
  facet normal 0.685888 -0.727707 0
    outer loop
      vertex 47.3441 61.1708 10
      vertex 47.3441 61.1708 10.8
      vertex 47.097 60.9379 10.8
    endloop
  endfacet
  facet normal 0.848134 -0.529782 0
    outer loop
      vertex 47.5195 61.4516 10
      vertex 47.3441 61.1708 10.8
      vertex 47.3441 61.1708 10
    endloop
  endfacet
  facet normal 0.848134 -0.529782 0
    outer loop
      vertex 47.5195 61.4516 10
      vertex 47.5195 61.4516 10.8
      vertex 47.3441 61.1708 10.8
    endloop
  endfacet
  facet normal 0.950097 -0.311954 0
    outer loop
      vertex 47.6247 61.772 10
      vertex 47.5195 61.4516 10.8
      vertex 47.5195 61.4516 10
    endloop
  endfacet
  facet normal 0.950097 -0.311954 0
    outer loop
      vertex 47.6247 61.772 10
      vertex 47.6247 61.772 10.8
      vertex 47.5195 61.4516 10.8
    endloop
  endfacet
  facet normal 0.99528 -0.0970398 0
    outer loop
      vertex 47.6598 62.132 10
      vertex 47.6247 61.772 10.8
      vertex 47.6247 61.772 10
    endloop
  endfacet
  facet normal 0.99528 -0.0970398 0
    outer loop
      vertex 47.6598 62.132 10
      vertex 47.6598 62.132 10.8
      vertex 47.6247 61.772 10.8
    endloop
  endfacet
  facet normal 0.990691 0.13613 0
    outer loop
      vertex 47.5899 62.6407 10
      vertex 47.6598 62.132 10.8
      vertex 47.6598 62.132 10
    endloop
  endfacet
  facet normal 0.990691 0.13613 -0
    outer loop
      vertex 47.5899 62.6407 10
      vertex 47.5899 62.6407 10.8
      vertex 47.6598 62.132 10.8
    endloop
  endfacet
  facet normal 0.894128 0.447812 0
    outer loop
      vertex 47.3803 63.0592 10
      vertex 47.5899 62.6407 10.8
      vertex 47.5899 62.6407 10
    endloop
  endfacet
  facet normal 0.894128 0.447812 -0
    outer loop
      vertex 47.3803 63.0592 10
      vertex 47.3803 63.0592 10.8
      vertex 47.5899 62.6407 10.8
    endloop
  endfacet
  facet normal 0.684759 0.728769 0
    outer loop
      vertex 47.0309 63.3875 10
      vertex 47.3803 63.0592 10.8
      vertex 47.3803 63.0592 10
    endloop
  endfacet
  facet normal 0.684759 0.728769 -0
    outer loop
      vertex 47.0309 63.3875 10
      vertex 47.0309 63.3875 10.8
      vertex 47.3803 63.0592 10.8
    endloop
  endfacet
  facet normal 0.437332 0.8993 0
    outer loop
      vertex 46.5454 63.6236 10
      vertex 47.0309 63.3875 10.8
      vertex 47.0309 63.3875 10
    endloop
  endfacet
  facet normal 0.437332 0.8993 -0
    outer loop
      vertex 46.5454 63.6236 10
      vertex 46.5454 63.6236 10.8
      vertex 47.0309 63.3875 10.8
    endloop
  endfacet
  facet normal 0.223373 0.974733 0
    outer loop
      vertex 45.9275 63.7652 10
      vertex 46.5454 63.6236 10.8
      vertex 46.5454 63.6236 10
    endloop
  endfacet
  facet normal 0.223373 0.974733 -0
    outer loop
      vertex 45.9275 63.7652 10
      vertex 45.9275 63.7652 10.8
      vertex 46.5454 63.6236 10.8
    endloop
  endfacet
  facet normal 0.0627841 0.998027 0
    outer loop
      vertex 45.1772 63.8124 10
      vertex 45.9275 63.7652 10.8
      vertex 45.9275 63.7652 10
    endloop
  endfacet
  facet normal 0.0627841 0.998027 -0
    outer loop
      vertex 45.1772 63.8124 10
      vertex 45.1772 63.8124 10.8
      vertex 45.9275 63.7652 10.8
    endloop
  endfacet
  facet normal 0 1 0
    outer loop
      vertex 42.1155 63.8124 10
      vertex 45.1772 63.8124 10.8
      vertex 45.1772 63.8124 10
    endloop
  endfacet
  facet normal 0 1 0
    outer loop
      vertex 42.1155 63.8124 10
      vertex 42.1155 63.8124 10.8
      vertex 45.1772 63.8124 10.8
    endloop
  endfacet
  facet normal -1 0 0
    outer loop
      vertex 42.1155 57.1241 10
      vertex 42.1155 63.8124 10.8
      vertex 42.1155 63.8124 10
    endloop
  endfacet
  facet normal -1 0 0
    outer loop
      vertex 42.1155 57.1241 10
      vertex 42.1155 57.1241 10.8
      vertex 42.1155 63.8124 10.8
    endloop
  endfacet
  facet normal 0 -1 0
    outer loop
      vertex 45.462 57.1241 10
      vertex 42.1155 57.1241 10.8
      vertex 42.1155 57.1241 10
    endloop
  endfacet
  facet normal 0 -1 0
    outer loop
      vertex 45.462 57.1241 10
      vertex 45.462 57.1241 10.8
      vertex 42.1155 57.1241 10.8
    endloop
  endfacet
  facet normal 0.0734266 -0.997301 0
    outer loop
      vertex 46.2131 57.1794 10
      vertex 45.462 57.1241 10.8
      vertex 45.462 57.1241 10
    endloop
  endfacet
  facet normal 0.0734266 -0.997301 0
    outer loop
      vertex 46.2131 57.1794 10
      vertex 46.2131 57.1794 10.8
      vertex 45.462 57.1241 10.8
    endloop
  endfacet
  facet normal 1 0 -0
    outer loop
      vertex 43.5158 62.7728 10
      vertex 43.5158 62.7728 10.8
      vertex 43.5158 61.1161 10
    endloop
  endfacet
  facet normal 1 -0 0
    outer loop
      vertex 43.5158 61.1161 10.8
      vertex 43.5158 61.1161 10
      vertex 43.5158 62.7728 10.8
    endloop
  endfacet
  facet normal 0 -1 0
    outer loop
      vertex 45.1108 62.7728 10
      vertex 45.1108 62.7728 10.8
      vertex 43.5158 62.7728 10
    endloop
  endfacet
  facet normal 0 -1 0
    outer loop
      vertex 43.5158 62.7728 10.8
      vertex 43.5158 62.7728 10
      vertex 45.1108 62.7728 10.8
    endloop
  endfacet
  facet normal -0.0609222 -0.998143 0
    outer loop
      vertex 45.4565 62.7517 10
      vertex 45.4565 62.7517 10.8
      vertex 45.1108 62.7728 10
    endloop
  endfacet
  facet normal -0.0609222 -0.998143 -0
    outer loop
      vertex 45.1108 62.7728 10.8
      vertex 45.1108 62.7728 10
      vertex 45.4565 62.7517 10.8
    endloop
  endfacet
  facet normal -0.217549 -0.976049 0
    outer loop
      vertex 45.7405 62.6884 10
      vertex 45.7405 62.6884 10.8
      vertex 45.4565 62.7517 10
    endloop
  endfacet
  facet normal -0.217549 -0.976049 -0
    outer loop
      vertex 45.4565 62.7517 10.8
      vertex 45.4565 62.7517 10
      vertex 45.7405 62.6884 10.8
    endloop
  endfacet
  facet normal -0.42875 -0.903423 0
    outer loop
      vertex 45.9628 62.5829 10
      vertex 45.9628 62.5829 10.8
      vertex 45.7405 62.6884 10
    endloop
  endfacet
  facet normal -0.42875 -0.903423 -0
    outer loop
      vertex 45.7405 62.6884 10.8
      vertex 45.7405 62.6884 10
      vertex 45.9628 62.5829 10.8
    endloop
  endfacet
  facet normal -0.697847 -0.716247 0
    outer loop
      vertex 46.1224 62.4274 10
      vertex 46.1224 62.4274 10.8
      vertex 45.9628 62.5829 10
    endloop
  endfacet
  facet normal -0.697847 -0.716247 -0
    outer loop
      vertex 45.9628 62.5829 10.8
      vertex 45.9628 62.5829 10
      vertex 46.1224 62.4274 10.8
    endloop
  endfacet
  facet normal -0.912592 -0.408872 0
    outer loop
      vertex 46.2181 62.2138 10
      vertex 46.2181 62.2138 10.8
      vertex 46.1224 62.4274 10
    endloop
  endfacet
  facet normal -0.912592 -0.408872 -0
    outer loop
      vertex 46.1224 62.4274 10.8
      vertex 46.1224 62.4274 10
      vertex 46.2181 62.2138 10.8
    endloop
  endfacet
  facet normal -0.993173 -0.11665 0
    outer loop
      vertex 46.25 61.9422 10
      vertex 46.25 61.9422 10.8
      vertex 46.2181 62.2138 10
    endloop
  endfacet
  facet normal -0.993173 -0.11665 -0
    outer loop
      vertex 46.2181 62.2138 10.8
      vertex 46.2181 62.2138 10
      vertex 46.25 61.9422 10.8
    endloop
  endfacet
  facet normal -0.993102 0.117252 0
    outer loop
      vertex 46.2202 61.6898 10
      vertex 46.2202 61.6898 10.8
      vertex 46.25 61.9422 10
    endloop
  endfacet
  facet normal -0.993102 0.117252 0
    outer loop
      vertex 46.25 61.9422 10.8
      vertex 46.25 61.9422 10
      vertex 46.2202 61.6898 10.8
    endloop
  endfacet
  facet normal -0.917691 0.397296 0
    outer loop
      vertex 46.1308 61.4833 10
      vertex 46.1308 61.4833 10.8
      vertex 46.2202 61.6898 10
    endloop
  endfacet
  facet normal -0.917691 0.397296 0
    outer loop
      vertex 46.2202 61.6898 10.8
      vertex 46.2202 61.6898 10
      vertex 46.1308 61.4833 10.8
    endloop
  endfacet
  facet normal -0.733297 0.679908 0
    outer loop
      vertex 45.9818 61.3226 10
      vertex 45.9818 61.3226 10.8
      vertex 46.1308 61.4833 10
    endloop
  endfacet
  facet normal -0.733297 0.679908 0
    outer loop
      vertex 46.1308 61.4833 10.8
      vertex 46.1308 61.4833 10
      vertex 45.9818 61.3226 10.8
    endloop
  endfacet
  facet normal -0.470865 0.882205 0
    outer loop
      vertex 45.7669 61.2079 10
      vertex 45.7669 61.2079 10.8
      vertex 45.9818 61.3226 10
    endloop
  endfacet
  facet normal -0.470865 0.882205 0
    outer loop
      vertex 45.9818 61.3226 10.8
      vertex 45.9818 61.3226 10
      vertex 45.7669 61.2079 10.8
    endloop
  endfacet
  facet normal -0.232963 0.972486 0
    outer loop
      vertex 45.4797 61.1391 10
      vertex 45.4797 61.1391 10.8
      vertex 45.7669 61.2079 10
    endloop
  endfacet
  facet normal -0.232963 0.972486 0
    outer loop
      vertex 45.7669 61.2079 10.8
      vertex 45.7669 61.2079 10
      vertex 45.4797 61.1391 10.8
    endloop
  endfacet
  facet normal -0.0638649 0.997959 0
    outer loop
      vertex 45.1203 61.1161 10
      vertex 45.1203 61.1161 10.8
      vertex 45.4797 61.1391 10
    endloop
  endfacet
  facet normal -0.0638649 0.997959 0
    outer loop
      vertex 45.4797 61.1391 10.8
      vertex 45.4797 61.1391 10
      vertex 45.1203 61.1161 10.8
    endloop
  endfacet
  facet normal 0 1 0
    outer loop
      vertex 43.5158 61.1161 10
      vertex 43.5158 61.1161 10.8
      vertex 45.1203 61.1161 10
    endloop
  endfacet
  facet normal 0 1 0
    outer loop
      vertex 45.1203 61.1161 10.8
      vertex 45.1203 61.1161 10
      vertex 43.5158 61.1161 10.8
    endloop
  endfacet
  facet normal 1 0 -0
    outer loop
      vertex 43.5158 60.0814 10
      vertex 43.5158 60.0814 10.8
      vertex 43.5158 58.1636 10
    endloop
  endfacet
  facet normal 1 -0 0
    outer loop
      vertex 43.5158 58.1636 10.8
      vertex 43.5158 58.1636 10
      vertex 43.5158 60.0814 10.8
    endloop
  endfacet
  facet normal 0 -1 0
    outer loop
      vertex 45.2912 60.0814 10
      vertex 45.2912 60.0814 10.8
      vertex 43.5158 60.0814 10
    endloop
  endfacet
  facet normal 0 -1 0
    outer loop
      vertex 43.5158 60.0814 10.8
      vertex 43.5158 60.0814 10
      vertex 45.2912 60.0814 10.8
    endloop
  endfacet
  facet normal -0.138199 -0.990404 0
    outer loop
      vertex 46.0401 59.9769 10
      vertex 46.0401 59.9769 10.8
      vertex 45.2912 60.0814 10
    endloop
  endfacet
  facet normal -0.138199 -0.990404 -0
    outer loop
      vertex 45.2912 60.0814 10.8
      vertex 45.2912 60.0814 10
      vertex 46.0401 59.9769 10.8
    endloop
  endfacet
  facet normal -0.571893 -0.820328 0
    outer loop
      vertex 46.4895 59.6636 10
      vertex 46.4895 59.6636 10.8
      vertex 46.0401 59.9769 10
    endloop
  endfacet
  facet normal -0.571893 -0.820328 -0
    outer loop
      vertex 46.0401 59.9769 10.8
      vertex 46.0401 59.9769 10
      vertex 46.4895 59.6636 10.8
    endloop
  endfacet
  facet normal -0.961218 -0.275791 0
    outer loop
      vertex 46.6393 59.1415 10
      vertex 46.6393 59.1415 10.8
      vertex 46.4895 59.6636 10
    endloop
  endfacet
  facet normal -0.961218 -0.275791 -0
    outer loop
      vertex 46.4895 59.6636 10.8
      vertex 46.4895 59.6636 10
      vertex 46.6393 59.1415 10.8
    endloop
  endfacet
  facet normal -0.993362 0.115028 0
    outer loop
      vertex 46.6047 58.8427 10
      vertex 46.6047 58.8427 10.8
      vertex 46.6393 59.1415 10
    endloop
  endfacet
  facet normal -0.993362 0.115028 0
    outer loop
      vertex 46.6393 59.1415 10.8
      vertex 46.6393 59.1415 10
      vertex 46.6047 58.8427 10.8
    endloop
  endfacet
  facet normal -0.920754 0.390144 0
    outer loop
      vertex 46.5011 58.5982 10
      vertex 46.5011 58.5982 10.8
      vertex 46.6047 58.8427 10
    endloop
  endfacet
  facet normal -0.920754 0.390144 0
    outer loop
      vertex 46.6047 58.8427 10.8
      vertex 46.6047 58.8427 10
      vertex 46.5011 58.5982 10.8
    endloop
  endfacet
  facet normal -0.740169 0.672421 0
    outer loop
      vertex 46.3284 58.4081 10
      vertex 46.3284 58.4081 10.8
      vertex 46.5011 58.5982 10
    endloop
  endfacet
  facet normal -0.740169 0.672421 0
    outer loop
      vertex 46.5011 58.5982 10.8
      vertex 46.5011 58.5982 10
      vertex 46.3284 58.4081 10.8
    endloop
  endfacet
  facet normal -0.480736 0.876865 0
    outer loop
      vertex 46.0807 58.2723 10
      vertex 46.0807 58.2723 10.8
      vertex 46.3284 58.4081 10
    endloop
  endfacet
  facet normal -0.480736 0.876865 0
    outer loop
      vertex 46.3284 58.4081 10.8
      vertex 46.3284 58.4081 10
      vertex 46.0807 58.2723 10.8
    endloop
  endfacet
  facet normal -0.240935 0.970541 0
    outer loop
      vertex 45.7524 58.1908 10
      vertex 45.7524 58.1908 10.8
      vertex 46.0807 58.2723 10
    endloop
  endfacet
  facet normal -0.240935 0.970541 0
    outer loop
      vertex 46.0807 58.2723 10.8
      vertex 46.0807 58.2723 10
      vertex 45.7524 58.1908 10.8
    endloop
  endfacet
  facet normal -0.0663571 0.997796 0
    outer loop
      vertex 45.3434 58.1636 10
      vertex 45.3434 58.1636 10.8
      vertex 45.7524 58.1908 10
    endloop
  endfacet
  facet normal -0.0663571 0.997796 0
    outer loop
      vertex 45.7524 58.1908 10.8
      vertex 45.7524 58.1908 10
      vertex 45.3434 58.1636 10.8
    endloop
  endfacet
  facet normal 0 1 0
    outer loop
      vertex 43.5158 58.1636 10
      vertex 43.5158 58.1636 10.8
      vertex 45.3434 58.1636 10
    endloop
  endfacet
  facet normal 0 1 0
    outer loop
      vertex 45.3434 58.1636 10.8
      vertex 45.3434 58.1636 10
      vertex 43.5158 58.1636 10.8
    endloop
  endfacet
  facet normal 0.855934 -0.517085 0
    outer loop
      vertex 54.6493 63.8124 10
      vertex 52.2663 59.8678 10.8
      vertex 52.2663 59.8678 10
    endloop
  endfacet
  facet normal 0.855934 -0.517085 0
    outer loop
      vertex 54.6493 63.8124 10
      vertex 54.6493 63.8124 10.8
      vertex 52.2663 59.8678 10.8
    endloop
  endfacet
  facet normal 0 1 0
    outer loop
      vertex 53.1825 63.8124 10
      vertex 54.6493 63.8124 10.8
      vertex 54.6493 63.8124 10
    endloop
  endfacet
  facet normal 0 1 0
    outer loop
      vertex 53.1825 63.8124 10
      vertex 53.1825 63.8124 10.8
      vertex 54.6493 63.8124 10.8
    endloop
  endfacet
  facet normal -0.867334 0.497726 0
    outer loop
      vertex 51.559 60.9833 10
      vertex 53.1825 63.8124 10.8
      vertex 53.1825 63.8124 10
    endloop
  endfacet
  facet normal -0.867334 0.497726 0
    outer loop
      vertex 51.559 60.9833 10
      vertex 51.559 60.9833 10.8
      vertex 53.1825 63.8124 10.8
    endloop
  endfacet
  facet normal 0.869858 0.493302 0
    outer loop
      vertex 49.9546 63.8124 10
      vertex 51.559 60.9833 10.8
      vertex 51.559 60.9833 10
    endloop
  endfacet
  facet normal 0.869858 0.493302 -0
    outer loop
      vertex 49.9546 63.8124 10
      vertex 49.9546 63.8124 10.8
      vertex 51.559 60.9833 10.8
    endloop
  endfacet
  facet normal 0 1 0
    outer loop
      vertex 48.4878 63.8124 10
      vertex 49.9546 63.8124 10.8
      vertex 49.9546 63.8124 10
    endloop
  endfacet
  facet normal 0 1 0
    outer loop
      vertex 48.4878 63.8124 10
      vertex 48.4878 63.8124 10.8
      vertex 49.9546 63.8124 10.8
    endloop
  endfacet
  facet normal -0.855944 -0.517069 0
    outer loop
      vertex 50.8707 59.8678 10
      vertex 48.4878 63.8124 10.8
      vertex 48.4878 63.8124 10
    endloop
  endfacet
  facet normal -0.855944 -0.517069 0
    outer loop
      vertex 50.8707 59.8678 10
      vertex 50.8707 59.8678 10.8
      vertex 48.4878 63.8124 10.8
    endloop
  endfacet
  facet normal -1 0 0
    outer loop
      vertex 50.8707 57.1241 10
      vertex 50.8707 59.8678 10.8
      vertex 50.8707 59.8678 10
    endloop
  endfacet
  facet normal -1 0 0
    outer loop
      vertex 50.8707 57.1241 10
      vertex 50.8707 57.1241 10.8
      vertex 50.8707 59.8678 10.8
    endloop
  endfacet
  facet normal 0 -1 0
    outer loop
      vertex 52.2663 57.1241 10
      vertex 50.8707 57.1241 10.8
      vertex 50.8707 57.1241 10
    endloop
  endfacet
  facet normal 0 -1 0
    outer loop
      vertex 52.2663 57.1241 10
      vertex 52.2663 57.1241 10.8
      vertex 50.8707 57.1241 10.8
    endloop
  endfacet
  facet normal 1 0 0
    outer loop
      vertex 52.2663 59.8678 10
      vertex 52.2663 57.1241 10.8
      vertex 52.2663 57.1241 10
    endloop
  endfacet
  facet normal 1 0 -0
    outer loop
      vertex 52.2663 59.8678 10
      vertex 52.2663 59.8678 10.8
      vertex 52.2663 57.1241 10.8
    endloop
  endfacet
endsolid OpenSCAD_Model
