solid OpenSCAD_Model
  facet normal 0 0 -1
    outer loop
      vertex 54.4051 151.871 0
      vertex 54.4699 151.893 0
      vertex 55.5814 151.603 0
    endloop
  endfacet
  facet normal 0 0 -1
    outer loop
      vertex 55.1288 143.731 0
      vertex 53.8527 143.068 0
      vertex 53.7473 143.099 0
    endloop
  endfacet
  facet normal 0 0 -1
    outer loop
      vertex 57.3267 146.694 0
      vertex 56.6267 144.434 0
      vertex 56.4971 144.375 0
    endloop
  endfacet
  facet normal 0 0 -1
    outer loop
      vertex 55.6685 151.536 0
      vertex 57.4076 146.786 0
      vertex 57.3267 146.694 0
    endloop
  endfacet
  facet normal 0 0 -1
    outer loop
      vertex 58.2953 147.566 0
      vertex 58.2928 149.795 0
      vertex 58.6442 148.325 0
    endloop
  endfacet
  facet normal 0 0 -1
    outer loop
      vertex 55.2853 143.829 0
      vertex 56.4971 144.375 0
      vertex 55.6219 143.795 0
    endloop
  endfacet
  facet normal 0 -0 -1
    outer loop
      vertex 57.07 144.035 0
      vertex 57.07 143.883 0
      vertex 56.8116 143.888 0
    endloop
  endfacet
  facet normal 0 0 -1
    outer loop
      vertex 56.4971 144.375 0
      vertex 56.6267 144.434 0
      vertex 56.6519 144.368 0
    endloop
  endfacet
  facet normal -0 0 -1
    outer loop
      vertex 58.9254 149.486 0
      vertex 58.6442 148.325 0
      vertex 58.336 149.764 0
    endloop
  endfacet
  facet normal 0 0 -1
    outer loop
      vertex 55.2853 143.829 0
      vertex 57.3267 146.694 0
      vertex 56.4971 144.375 0
    endloop
  endfacet
  facet normal 0 0 -1
    outer loop
      vertex 58.6442 148.325 0
      vertex 58.4366 147.65 0
      vertex 58.2953 147.566 0
    endloop
  endfacet
  facet normal 0 0 -1
    outer loop
      vertex 49.1062 152.359 0
      vertex 50.7778 152.321 0
      vertex 51.119 152.061 0
    endloop
  endfacet
  facet normal 0 0 -1
    outer loop
      vertex 57.4076 146.786 0
      vertex 58.2953 147.566 0
      vertex 58.0589 147.084 0
    endloop
  endfacet
  facet normal 0 -0 -1
    outer loop
      vertex 58.6442 148.325 0
      vertex 58.7367 148.15 0
      vertex 58.4366 147.65 0
    endloop
  endfacet
  facet normal 0 0 -1
    outer loop
      vertex 58.7367 148.15 0
      vertex 59.2655 147.949 0
      vertex 59.0349 147.623 0
    endloop
  endfacet
  facet normal 0 0 -1
    outer loop
      vertex 58.4366 147.65 0
      vertex 58.7367 148.15 0
      vertex 59.0349 147.623 0
    endloop
  endfacet
  facet normal -0 -0 -1
    outer loop
      vertex 58.336 149.764 0
      vertex 58.6442 148.325 0
      vertex 58.2928 149.795 0
    endloop
  endfacet
  facet normal -0 0 -1
    outer loop
      vertex 58.2953 147.566 0
      vertex 57.4076 146.786 0
      vertex 58.2928 149.795 0
    endloop
  endfacet
  facet normal -0 0 -1
    outer loop
      vertex 58.2928 149.795 0
      vertex 57.4076 146.786 0
      vertex 56.9505 151.167 0
    endloop
  endfacet
  facet normal -0 -0 -1
    outer loop
      vertex 56.9505 151.167 0
      vertex 57.4076 146.786 0
      vertex 55.6685 151.536 0
    endloop
  endfacet
  facet normal 0 0 -1
    outer loop
      vertex 54.4051 151.871 0
      vertex 55.5814 151.603 0
      vertex 55.6685 151.536 0
    endloop
  endfacet
  facet normal 0 0 -1
    outer loop
      vertex 53.6151 151.791 0
      vertex 54.4051 151.871 0
      vertex 55.6685 151.536 0
    endloop
  endfacet
  facet normal 0 0 -1
    outer loop
      vertex 57.3267 146.694 0
      vertex 53.6151 151.791 0
      vertex 55.6685 151.536 0
    endloop
  endfacet
  facet normal 0 0 -1
    outer loop
      vertex 54.4699 151.893 0
      vertex 55.1502 152.321 0
      vertex 55.5814 151.603 0
    endloop
  endfacet
  facet normal 0 -0 -1
    outer loop
      vertex 51.2771 152.046 0
      vertex 53.5706 151.793 0
      vertex 50.2682 147.282 0
    endloop
  endfacet
  facet normal -0 0 -1
    outer loop
      vertex 57.3267 146.694 0
      vertex 50.8382 146.552 0
      vertex 53.6151 151.791 0
    endloop
  endfacet
  facet normal 0 -0 -1
    outer loop
      vertex 51.5711 152.193 0
      vertex 53.5706 151.793 0
      vertex 51.2771 152.046 0
    endloop
  endfacet
  facet normal 0 0 -1
    outer loop
      vertex 48.1922 152.007 0
      vertex 49.1062 152.359 0
      vertex 49.0891 147.359 0
    endloop
  endfacet
  facet normal 0 0 -1
    outer loop
      vertex 49.0891 147.359 0
      vertex 49.1062 152.359 0
      vertex 50.1527 147.34 0
    endloop
  endfacet
  facet normal 0 0 -1
    outer loop
      vertex 49.0891 147.359 0
      vertex 47.6012 148.162 0
      vertex 48.1922 152.007 0
    endloop
  endfacet
  facet normal 0 0 -1
    outer loop
      vertex 47.6012 148.162 0
      vertex 47.5125 148.179 0
      vertex 46.9304 151.091 0
    endloop
  endfacet
  facet normal 0 0 -1
    outer loop
      vertex 46.9304 151.091 0
      vertex 47.5125 148.179 0
      vertex 47.3193 148.156 0
    endloop
  endfacet
  facet normal 0 0 -1
    outer loop
      vertex 48.1922 152.007 0
      vertex 47.6012 148.162 0
      vertex 46.9304 151.091 0
    endloop
  endfacet
  facet normal 0 0 -1
    outer loop
      vertex 57.3267 146.694 0
      vertex 55.2853 143.829 0
      vertex 50.8651 146.422 0
    endloop
  endfacet
  facet normal 0 0 -1
    outer loop
      vertex 50.1527 147.34 0
      vertex 49.1062 152.359 0
      vertex 51.119 152.061 0
    endloop
  endfacet
  facet normal -0 0 -1
    outer loop
      vertex 51.2771 152.046 0
      vertex 50.1527 147.34 0
      vertex 51.119 152.061 0
    endloop
  endfacet
  facet normal 0 0 -1
    outer loop
      vertex 57.3267 146.694 0
      vertex 50.8651 146.422 0
      vertex 50.8382 146.552 0
    endloop
  endfacet
  facet normal 0 0 -1
    outer loop
      vertex 50.2682 147.282 0
      vertex 53.5706 151.793 0
      vertex 50.8382 146.552 0
    endloop
  endfacet
  facet normal 0 0 -1
    outer loop
      vertex 50.1527 147.34 0
      vertex 51.2771 152.046 0
      vertex 50.2682 147.282 0
    endloop
  endfacet
  facet normal 0 0 -1
    outer loop
      vertex 50.8382 146.552 0
      vertex 53.5706 151.793 0
      vertex 53.6151 151.791 0
    endloop
  endfacet
  facet normal 0 0 -1
    outer loop
      vertex 50.8651 146.422 0
      vertex 55.2853 143.829 0
      vertex 52.0156 144.013 0
    endloop
  endfacet
  facet normal 0 0 -1
    outer loop
      vertex 50.5644 145.277 0
      vertex 50.9656 144.743 0
      vertex 50.8186 144.757 0
    endloop
  endfacet
  facet normal 0 0 -1
    outer loop
      vertex 50.6956 144.702 0
      vertex 50.5644 145.277 0
      vertex 50.8186 144.757 0
    endloop
  endfacet
  facet normal 0 0 -1
    outer loop
      vertex 52.0156 144.013 0
      vertex 55.2853 143.829 0
      vertex 55.1288 143.731 0
    endloop
  endfacet
  facet normal 0 0 -1
    outer loop
      vertex 50.5644 145.277 0
      vertex 50.8651 146.422 0
      vertex 50.9656 144.743 0
    endloop
  endfacet
  facet normal 0 0 -1
    outer loop
      vertex 50.9656 144.743 0
      vertex 50.8651 146.422 0
      vertex 52.0156 144.013 0
    endloop
  endfacet
  facet normal 0 0 -1
    outer loop
      vertex 52.0156 144.013 0
      vertex 55.1288 143.731 0
      vertex 52.0694 143.945 0
    endloop
  endfacet
  facet normal 0 0 -1
    outer loop
      vertex 52.4484 142.989 0
      vertex 52.0694 143.945 0
      vertex 53.7473 143.099 0
    endloop
  endfacet
  facet normal 0 0 -1
    outer loop
      vertex 53.7473 143.099 0
      vertex 52.0694 143.945 0
      vertex 55.1288 143.731 0
    endloop
  endfacet
  facet normal 0 0 -1
    outer loop
      vertex 54.0708 142.897 0
      vertex 53.8527 143.068 0
      vertex 54.9241 143.161 0
    endloop
  endfacet
  facet normal 0 0 -1
    outer loop
      vertex 53.8527 143.068 0
      vertex 55.1288 143.731 0
      vertex 54.9241 143.161 0
    endloop
  endfacet
  facet normal -0 0 -1
    outer loop
      vertex 57.07 144.035 0
      vertex 56.8116 143.888 0
      vertex 56.7366 144.235 0
    endloop
  endfacet
  facet normal 0 0 1
    outer loop
      vertex 55.5814 151.603 10
      vertex 54.4699 151.893 10
      vertex 54.4051 151.871 10
    endloop
  endfacet
  facet normal -0 0 1
    outer loop
      vertex 53.7473 143.099 10
      vertex 53.8527 143.068 10
      vertex 55.1288 143.731 10
    endloop
  endfacet
  facet normal 0 0 1
    outer loop
      vertex 56.4971 144.375 10
      vertex 56.6267 144.434 10
      vertex 57.3267 146.694 10
    endloop
  endfacet
  facet normal 0 -0 1
    outer loop
      vertex 57.3267 146.694 10
      vertex 57.4076 146.786 10
      vertex 55.6685 151.536 10
    endloop
  endfacet
  facet normal 0 0 1
    outer loop
      vertex 58.6442 148.325 10
      vertex 58.2928 149.795 10
      vertex 58.2953 147.566 10
    endloop
  endfacet
  facet normal 0 -0 1
    outer loop
      vertex 55.6219 143.795 10
      vertex 56.4971 144.375 10
      vertex 55.2853 143.829 10
    endloop
  endfacet
  facet normal -0 0 1
    outer loop
      vertex 56.8116 143.888 10
      vertex 57.07 143.883 10
      vertex 57.07 144.035 10
    endloop
  endfacet
  facet normal 0 0 1
    outer loop
      vertex 56.6519 144.368 10
      vertex 56.6267 144.434 10
      vertex 56.4971 144.375 10
    endloop
  endfacet
  facet normal 0 0 1
    outer loop
      vertex 58.336 149.764 10
      vertex 58.6442 148.325 10
      vertex 58.9254 149.486 10
    endloop
  endfacet
  facet normal 0 -0 1
    outer loop
      vertex 56.4971 144.375 10
      vertex 57.3267 146.694 10
      vertex 55.2853 143.829 10
    endloop
  endfacet
  facet normal 0 0 1
    outer loop
      vertex 58.2953 147.566 10
      vertex 58.4366 147.65 10
      vertex 58.6442 148.325 10
    endloop
  endfacet
  facet normal 0 0 1
    outer loop
      vertex 51.119 152.061 10
      vertex 50.7778 152.321 10
      vertex 49.1062 152.359 10
    endloop
  endfacet
  facet normal 0 -0 1
    outer loop
      vertex 58.0589 147.084 10
      vertex 58.2953 147.566 10
      vertex 57.4076 146.786 10
    endloop
  endfacet
  facet normal 0 0 1
    outer loop
      vertex 58.4366 147.65 10
      vertex 58.7367 148.15 10
      vertex 58.6442 148.325 10
    endloop
  endfacet
  facet normal 0 -0 1
    outer loop
      vertex 59.0349 147.623 10
      vertex 59.2655 147.949 10
      vertex 58.7367 148.15 10
    endloop
  endfacet
  facet normal 0 0 1
    outer loop
      vertex 59.0349 147.623 10
      vertex 58.7367 148.15 10
      vertex 58.4366 147.65 10
    endloop
  endfacet
  facet normal 0 0 1
    outer loop
      vertex 58.2928 149.795 10
      vertex 58.6442 148.325 10
      vertex 58.336 149.764 10
    endloop
  endfacet
  facet normal 0 0 1
    outer loop
      vertex 58.2928 149.795 10
      vertex 57.4076 146.786 10
      vertex 58.2953 147.566 10
    endloop
  endfacet
  facet normal 0 0 1
    outer loop
      vertex 56.9505 151.167 10
      vertex 57.4076 146.786 10
      vertex 58.2928 149.795 10
    endloop
  endfacet
  facet normal 0 0 1
    outer loop
      vertex 55.6685 151.536 10
      vertex 57.4076 146.786 10
      vertex 56.9505 151.167 10
    endloop
  endfacet
  facet normal 0 0 1
    outer loop
      vertex 55.6685 151.536 10
      vertex 55.5814 151.603 10
      vertex 54.4051 151.871 10
    endloop
  endfacet
  facet normal 0 0 1
    outer loop
      vertex 55.6685 151.536 10
      vertex 54.4051 151.871 10
      vertex 53.6151 151.791 10
    endloop
  endfacet
  facet normal 0 0 1
    outer loop
      vertex 55.6685 151.536 10
      vertex 53.6151 151.791 10
      vertex 57.3267 146.694 10
    endloop
  endfacet
  facet normal 0 0 1
    outer loop
      vertex 55.5814 151.603 10
      vertex 55.1502 152.321 10
      vertex 54.4699 151.893 10
    endloop
  endfacet
  facet normal 0 0 1
    outer loop
      vertex 50.2682 147.282 10
      vertex 53.5706 151.793 10
      vertex 51.2771 152.046 10
    endloop
  endfacet
  facet normal 0 0 1
    outer loop
      vertex 53.6151 151.791 10
      vertex 50.8382 146.552 10
      vertex 57.3267 146.694 10
    endloop
  endfacet
  facet normal -0 0 1
    outer loop
      vertex 51.2771 152.046 10
      vertex 53.5706 151.793 10
      vertex 51.5711 152.193 10
    endloop
  endfacet
  facet normal 0 -0 1
    outer loop
      vertex 49.0891 147.359 10
      vertex 49.1062 152.359 10
      vertex 48.1922 152.007 10
    endloop
  endfacet
  facet normal 0 0 1
    outer loop
      vertex 50.1527 147.34 10
      vertex 49.1062 152.359 10
      vertex 49.0891 147.359 10
    endloop
  endfacet
  facet normal 0 0 1
    outer loop
      vertex 48.1922 152.007 10
      vertex 47.6012 148.162 10
      vertex 49.0891 147.359 10
    endloop
  endfacet
  facet normal 0 0 1
    outer loop
      vertex 46.9304 151.091 10
      vertex 47.5125 148.179 10
      vertex 47.6012 148.162 10
    endloop
  endfacet
  facet normal 0 -0 1
    outer loop
      vertex 47.3193 148.156 10
      vertex 47.5125 148.179 10
      vertex 46.9304 151.091 10
    endloop
  endfacet
  facet normal -0 0 1
    outer loop
      vertex 46.9304 151.091 10
      vertex 47.6012 148.162 10
      vertex 48.1922 152.007 10
    endloop
  endfacet
  facet normal -0 0 1
    outer loop
      vertex 50.8651 146.422 10
      vertex 55.2853 143.829 10
      vertex 57.3267 146.694 10
    endloop
  endfacet
  facet normal 0 0 1
    outer loop
      vertex 51.119 152.061 10
      vertex 49.1062 152.359 10
      vertex 50.1527 147.34 10
    endloop
  endfacet
  facet normal 0 0 1
    outer loop
      vertex 51.119 152.061 10
      vertex 50.1527 147.34 10
      vertex 51.2771 152.046 10
    endloop
  endfacet
  facet normal -0 0 1
    outer loop
      vertex 50.8382 146.552 10
      vertex 50.8651 146.422 10
      vertex 57.3267 146.694 10
    endloop
  endfacet
  facet normal 0 -0 1
    outer loop
      vertex 50.8382 146.552 10
      vertex 53.5706 151.793 10
      vertex 50.2682 147.282 10
    endloop
  endfacet
  facet normal 0 -0 1
    outer loop
      vertex 50.2682 147.282 10
      vertex 51.2771 152.046 10
      vertex 50.1527 147.34 10
    endloop
  endfacet
  facet normal 0 0 1
    outer loop
      vertex 53.6151 151.791 10
      vertex 53.5706 151.793 10
      vertex 50.8382 146.552 10
    endloop
  endfacet
  facet normal -0 -0 1
    outer loop
      vertex 52.0156 144.013 10
      vertex 55.2853 143.829 10
      vertex 50.8651 146.422 10
    endloop
  endfacet
  facet normal -0 -0 1
    outer loop
      vertex 50.8186 144.757 10
      vertex 50.9656 144.743 10
      vertex 50.5644 145.277 10
    endloop
  endfacet
  facet normal 0 0 1
    outer loop
      vertex 50.8186 144.757 10
      vertex 50.5644 145.277 10
      vertex 50.6956 144.702 10
    endloop
  endfacet
  facet normal 0 -0 1
    outer loop
      vertex 55.1288 143.731 10
      vertex 55.2853 143.829 10
      vertex 52.0156 144.013 10
    endloop
  endfacet
  facet normal 0 0 1
    outer loop
      vertex 50.9656 144.743 10
      vertex 50.8651 146.422 10
      vertex 50.5644 145.277 10
    endloop
  endfacet
  facet normal 0 0 1
    outer loop
      vertex 52.0156 144.013 10
      vertex 50.8651 146.422 10
      vertex 50.9656 144.743 10
    endloop
  endfacet
  facet normal -0 -0 1
    outer loop
      vertex 52.0694 143.945 10
      vertex 55.1288 143.731 10
      vertex 52.0156 144.013 10
    endloop
  endfacet
  facet normal 0 0 1
    outer loop
      vertex 53.7473 143.099 10
      vertex 52.0694 143.945 10
      vertex 52.4484 142.989 10
    endloop
  endfacet
  facet normal 0 0 1
    outer loop
      vertex 55.1288 143.731 10
      vertex 52.0694 143.945 10
      vertex 53.7473 143.099 10
    endloop
  endfacet
  facet normal 0 0 1
    outer loop
      vertex 54.9241 143.161 10
      vertex 53.8527 143.068 10
      vertex 54.0708 142.897 10
    endloop
  endfacet
  facet normal 0 -0 1
    outer loop
      vertex 54.9241 143.161 10
      vertex 55.1288 143.731 10
      vertex 53.8527 143.068 10
    endloop
  endfacet
  facet normal 0 0 1
    outer loop
      vertex 56.7366 144.235 10
      vertex 56.8116 143.888 10
      vertex 57.07 144.035 10
    endloop
  endfacet
  facet normal 0.94115 -0.337989 0
    outer loop
      vertex 55.1288 143.731 0
      vertex 54.9241 143.161 10
      vertex 54.9241 143.161 0
    endloop
  endfacet
  facet normal 0.94115 -0.337989 0
    outer loop
      vertex 55.1288 143.731 0
      vertex 55.1288 143.731 10
      vertex 54.9241 143.161 10
    endloop
  endfacet
  facet normal 0.530729 -0.847542 0
    outer loop
      vertex 55.2853 143.829 0
      vertex 55.1288 143.731 10
      vertex 55.1288 143.731 0
    endloop
  endfacet
  facet normal 0.530729 -0.847542 0
    outer loop
      vertex 55.2853 143.829 0
      vertex 55.2853 143.829 10
      vertex 55.1288 143.731 10
    endloop
  endfacet
  facet normal -0.100499 -0.994937 0
    outer loop
      vertex 55.6219 143.795 0
      vertex 55.2853 143.829 10
      vertex 55.2853 143.829 0
    endloop
  endfacet
  facet normal -0.100499 -0.994937 0
    outer loop
      vertex 55.6219 143.795 0
      vertex 55.6219 143.795 10
      vertex 55.2853 143.829 10
    endloop
  endfacet
  facet normal 0.552412 -0.833571 0
    outer loop
      vertex 56.4971 144.375 0
      vertex 55.6219 143.795 10
      vertex 55.6219 143.795 0
    endloop
  endfacet
  facet normal 0.552412 -0.833571 0
    outer loop
      vertex 56.4971 144.375 0
      vertex 56.4971 144.375 10
      vertex 55.6219 143.795 10
    endloop
  endfacet
  facet normal -0.0451735 -0.998979 0
    outer loop
      vertex 56.6519 144.368 0
      vertex 56.4971 144.375 10
      vertex 56.4971 144.375 0
    endloop
  endfacet
  facet normal -0.0451735 -0.998979 0
    outer loop
      vertex 56.6519 144.368 0
      vertex 56.6519 144.368 10
      vertex 56.4971 144.375 10
    endloop
  endfacet
  facet normal 0.934218 0.356702 0
    outer loop
      vertex 56.6267 144.434 0
      vertex 56.6519 144.368 10
      vertex 56.6519 144.368 0
    endloop
  endfacet
  facet normal 0.934218 0.356702 -0
    outer loop
      vertex 56.6267 144.434 0
      vertex 56.6267 144.434 10
      vertex 56.6519 144.368 10
    endloop
  endfacet
  facet normal 0.955229 -0.295867 0
    outer loop
      vertex 57.3267 146.694 0
      vertex 56.6267 144.434 10
      vertex 56.6267 144.434 0
    endloop
  endfacet
  facet normal 0.955229 -0.295867 0
    outer loop
      vertex 57.3267 146.694 0
      vertex 57.3267 146.694 10
      vertex 56.6267 144.434 10
    endloop
  endfacet
  facet normal 0.750956 -0.660352 0
    outer loop
      vertex 57.4076 146.786 0
      vertex 57.3267 146.694 10
      vertex 57.3267 146.694 0
    endloop
  endfacet
  facet normal 0.750956 -0.660352 0
    outer loop
      vertex 57.4076 146.786 0
      vertex 57.4076 146.786 10
      vertex 57.3267 146.694 10
    endloop
  endfacet
  facet normal 0.416063 -0.909336 0
    outer loop
      vertex 58.0589 147.084 0
      vertex 57.4076 146.786 10
      vertex 57.4076 146.786 0
    endloop
  endfacet
  facet normal 0.416063 -0.909336 0
    outer loop
      vertex 58.0589 147.084 0
      vertex 58.0589 147.084 10
      vertex 57.4076 146.786 10
    endloop
  endfacet
  facet normal 0.897828 -0.440346 0
    outer loop
      vertex 58.2953 147.566 0
      vertex 58.0589 147.084 10
      vertex 58.0589 147.084 0
    endloop
  endfacet
  facet normal 0.897828 -0.440346 0
    outer loop
      vertex 58.2953 147.566 0
      vertex 58.2953 147.566 10
      vertex 58.0589 147.084 10
    endloop
  endfacet
  facet normal 0.511003 -0.859579 0
    outer loop
      vertex 58.4366 147.65 0
      vertex 58.2953 147.566 10
      vertex 58.2953 147.566 0
    endloop
  endfacet
  facet normal 0.511003 -0.859579 0
    outer loop
      vertex 58.4366 147.65 0
      vertex 58.4366 147.65 10
      vertex 58.2953 147.566 10
    endloop
  endfacet
  facet normal -0.045082 -0.998983 0
    outer loop
      vertex 59.0349 147.623 0
      vertex 58.4366 147.65 10
      vertex 58.4366 147.65 0
    endloop
  endfacet
  facet normal -0.045082 -0.998983 0
    outer loop
      vertex 59.0349 147.623 0
      vertex 59.0349 147.623 10
      vertex 58.4366 147.65 10
    endloop
  endfacet
  facet normal 0.816398 -0.577489 0
    outer loop
      vertex 59.2655 147.949 0
      vertex 59.0349 147.623 10
      vertex 59.0349 147.623 0
    endloop
  endfacet
  facet normal 0.816398 -0.577489 0
    outer loop
      vertex 59.2655 147.949 0
      vertex 59.2655 147.949 10
      vertex 59.0349 147.623 10
    endloop
  endfacet
  facet normal 0.355304 0.934751 0
    outer loop
      vertex 58.7367 148.15 0
      vertex 59.2655 147.949 10
      vertex 59.2655 147.949 0
    endloop
  endfacet
  facet normal 0.355304 0.934751 -0
    outer loop
      vertex 58.7367 148.15 0
      vertex 58.7367 148.15 10
      vertex 59.2655 147.949 10
    endloop
  endfacet
  facet normal 0.884095 0.467307 0
    outer loop
      vertex 58.6442 148.325 0
      vertex 58.7367 148.15 10
      vertex 58.7367 148.15 0
    endloop
  endfacet
  facet normal 0.884095 0.467307 -0
    outer loop
      vertex 58.6442 148.325 0
      vertex 58.6442 148.325 10
      vertex 58.7367 148.15 10
    endloop
  endfacet
  facet normal 0.971899 -0.235399 0
    outer loop
      vertex 58.9254 149.486 0
      vertex 58.6442 148.325 10
      vertex 58.6442 148.325 0
    endloop
  endfacet
  facet normal 0.971899 -0.235399 0
    outer loop
      vertex 58.9254 149.486 0
      vertex 58.9254 149.486 10
      vertex 58.6442 148.325 10
    endloop
  endfacet
  facet normal 0.426595 0.904443 0
    outer loop
      vertex 58.336 149.764 0
      vertex 58.9254 149.486 10
      vertex 58.9254 149.486 0
    endloop
  endfacet
  facet normal 0.426595 0.904443 -0
    outer loop
      vertex 58.336 149.764 0
      vertex 58.336 149.764 10
      vertex 58.9254 149.486 10
    endloop
  endfacet
  facet normal 0.583016 0.812461 0
    outer loop
      vertex 58.2928 149.795 0
      vertex 58.336 149.764 10
      vertex 58.336 149.764 0
    endloop
  endfacet
  facet normal 0.583016 0.812461 -0
    outer loop
      vertex 58.2928 149.795 0
      vertex 58.2928 149.795 10
      vertex 58.336 149.764 10
    endloop
  endfacet
  facet normal 0.714801 0.699328 0
    outer loop
      vertex 56.9505 151.167 0
      vertex 58.2928 149.795 10
      vertex 58.2928 149.795 0
    endloop
  endfacet
  facet normal 0.714801 0.699328 -0
    outer loop
      vertex 56.9505 151.167 0
      vertex 56.9505 151.167 10
      vertex 58.2928 149.795 10
    endloop
  endfacet
  facet normal 0.276602 0.960985 0
    outer loop
      vertex 55.6685 151.536 0
      vertex 56.9505 151.167 10
      vertex 56.9505 151.167 0
    endloop
  endfacet
  facet normal 0.276602 0.960985 -0
    outer loop
      vertex 55.6685 151.536 0
      vertex 55.6685 151.536 10
      vertex 56.9505 151.167 10
    endloop
  endfacet
  facet normal 0.609711 0.792624 0
    outer loop
      vertex 55.5814 151.603 0
      vertex 55.6685 151.536 10
      vertex 55.6685 151.536 0
    endloop
  endfacet
  facet normal 0.609711 0.792624 -0
    outer loop
      vertex 55.5814 151.603 0
      vertex 55.5814 151.603 10
      vertex 55.6685 151.536 10
    endloop
  endfacet
  facet normal 0.857282 0.514847 0
    outer loop
      vertex 55.1502 152.321 0
      vertex 55.5814 151.603 10
      vertex 55.5814 151.603 0
    endloop
  endfacet
  facet normal 0.857282 0.514847 -0
    outer loop
      vertex 55.1502 152.321 0
      vertex 55.1502 152.321 10
      vertex 55.5814 151.603 10
    endloop
  endfacet
  facet normal -0.532513 0.846422 0
    outer loop
      vertex 54.4699 151.893 0
      vertex 55.1502 152.321 10
      vertex 55.1502 152.321 0
    endloop
  endfacet
  facet normal -0.532513 0.846422 0
    outer loop
      vertex 54.4699 151.893 0
      vertex 54.4699 151.893 10
      vertex 55.1502 152.321 10
    endloop
  endfacet
  facet normal -0.321484 0.946915 0
    outer loop
      vertex 54.4051 151.871 0
      vertex 54.4699 151.893 10
      vertex 54.4699 151.893 0
    endloop
  endfacet
  facet normal -0.321484 0.946915 0
    outer loop
      vertex 54.4051 151.871 0
      vertex 54.4051 151.871 10
      vertex 54.4699 151.893 10
    endloop
  endfacet
  facet normal -0.100751 0.994912 0
    outer loop
      vertex 53.6151 151.791 0
      vertex 54.4051 151.871 10
      vertex 54.4051 151.871 0
    endloop
  endfacet
  facet normal -0.100751 0.994912 0
    outer loop
      vertex 53.6151 151.791 0
      vertex 53.6151 151.791 10
      vertex 54.4051 151.871 10
    endloop
  endfacet
  facet normal 0.0448985 0.998992 0
    outer loop
      vertex 53.5706 151.793 0
      vertex 53.6151 151.791 10
      vertex 53.6151 151.791 0
    endloop
  endfacet
  facet normal 0.0448985 0.998992 -0
    outer loop
      vertex 53.5706 151.793 0
      vertex 53.5706 151.793 10
      vertex 53.6151 151.791 10
    endloop
  endfacet
  facet normal 0.196163 0.980571 0
    outer loop
      vertex 51.5711 152.193 0
      vertex 53.5706 151.793 10
      vertex 53.5706 151.793 0
    endloop
  endfacet
  facet normal 0.196163 0.980571 -0
    outer loop
      vertex 51.5711 152.193 0
      vertex 51.5711 152.193 10
      vertex 53.5706 151.793 10
    endloop
  endfacet
  facet normal -0.447214 0.894427 0
    outer loop
      vertex 51.2771 152.046 0
      vertex 51.5711 152.193 10
      vertex 51.5711 152.193 0
    endloop
  endfacet
  facet normal -0.447214 0.894427 0
    outer loop
      vertex 51.2771 152.046 0
      vertex 51.2771 152.046 10
      vertex 51.5711 152.193 10
    endloop
  endfacet
  facet normal 0.0944525 0.995529 0
    outer loop
      vertex 51.119 152.061 0
      vertex 51.2771 152.046 10
      vertex 51.2771 152.046 0
    endloop
  endfacet
  facet normal 0.0944525 0.995529 -0
    outer loop
      vertex 51.119 152.061 0
      vertex 51.119 152.061 10
      vertex 51.2771 152.046 10
    endloop
  endfacet
  facet normal 0.606099 0.795389 0
    outer loop
      vertex 50.7778 152.321 0
      vertex 51.119 152.061 10
      vertex 51.119 152.061 0
    endloop
  endfacet
  facet normal 0.606099 0.795389 -0
    outer loop
      vertex 50.7778 152.321 0
      vertex 50.7778 152.321 10
      vertex 51.119 152.061 10
    endloop
  endfacet
  facet normal 0.0227268 0.999742 0
    outer loop
      vertex 49.1062 152.359 0
      vertex 50.7778 152.321 10
      vertex 50.7778 152.321 0
    endloop
  endfacet
  facet normal 0.0227268 0.999742 -0
    outer loop
      vertex 49.1062 152.359 0
      vertex 49.1062 152.359 10
      vertex 50.7778 152.321 10
    endloop
  endfacet
  facet normal -0.35939 0.933188 0
    outer loop
      vertex 48.1922 152.007 0
      vertex 49.1062 152.359 10
      vertex 49.1062 152.359 0
    endloop
  endfacet
  facet normal -0.35939 0.933188 0
    outer loop
      vertex 48.1922 152.007 0
      vertex 48.1922 152.007 10
      vertex 49.1062 152.359 10
    endloop
  endfacet
  facet normal -0.58747 0.809246 0
    outer loop
      vertex 46.9304 151.091 0
      vertex 48.1922 152.007 10
      vertex 48.1922 152.007 0
    endloop
  endfacet
  facet normal -0.58747 0.809246 0
    outer loop
      vertex 46.9304 151.091 0
      vertex 46.9304 151.091 10
      vertex 48.1922 152.007 10
    endloop
  endfacet
  facet normal -0.991335 -0.131356 0
    outer loop
      vertex 47.3193 148.156 0
      vertex 46.9304 151.091 10
      vertex 46.9304 151.091 0
    endloop
  endfacet
  facet normal -0.991335 -0.131356 0
    outer loop
      vertex 47.3193 148.156 0
      vertex 47.3193 148.156 10
      vertex 46.9304 151.091 10
    endloop
  endfacet
  facet normal 0.118213 -0.992988 0
    outer loop
      vertex 47.5125 148.179 0
      vertex 47.3193 148.156 10
      vertex 47.3193 148.156 0
    endloop
  endfacet
  facet normal 0.118213 -0.992988 0
    outer loop
      vertex 47.5125 148.179 0
      vertex 47.5125 148.179 10
      vertex 47.3193 148.156 10
    endloop
  endfacet
  facet normal -0.188231 -0.982125 0
    outer loop
      vertex 47.6012 148.162 0
      vertex 47.5125 148.179 10
      vertex 47.5125 148.179 0
    endloop
  endfacet
  facet normal -0.188231 -0.982125 0
    outer loop
      vertex 47.6012 148.162 0
      vertex 47.6012 148.162 10
      vertex 47.5125 148.179 10
    endloop
  endfacet
  facet normal -0.474936 -0.880021 0
    outer loop
      vertex 49.0891 147.359 0
      vertex 47.6012 148.162 10
      vertex 47.6012 148.162 0
    endloop
  endfacet
  facet normal -0.474936 -0.880021 0
    outer loop
      vertex 49.0891 147.359 0
      vertex 49.0891 147.359 10
      vertex 47.6012 148.162 10
    endloop
  endfacet
  facet normal -0.017861 -0.99984 0
    outer loop
      vertex 50.1527 147.34 0
      vertex 49.0891 147.359 10
      vertex 49.0891 147.359 0
    endloop
  endfacet
  facet normal -0.017861 -0.99984 0
    outer loop
      vertex 50.1527 147.34 0
      vertex 50.1527 147.34 10
      vertex 49.0891 147.359 10
    endloop
  endfacet
  facet normal -0.44876 -0.893652 0
    outer loop
      vertex 50.2682 147.282 0
      vertex 50.1527 147.34 10
      vertex 50.1527 147.34 0
    endloop
  endfacet
  facet normal -0.44876 -0.893652 0
    outer loop
      vertex 50.2682 147.282 0
      vertex 50.2682 147.282 10
      vertex 50.1527 147.34 10
    endloop
  endfacet
  facet normal -0.788188 -0.615434 0
    outer loop
      vertex 50.8382 146.552 0
      vertex 50.2682 147.282 10
      vertex 50.2682 147.282 0
    endloop
  endfacet
  facet normal -0.788188 -0.615434 0
    outer loop
      vertex 50.8382 146.552 0
      vertex 50.8382 146.552 10
      vertex 50.2682 147.282 10
    endloop
  endfacet
  facet normal -0.979255 -0.202631 0
    outer loop
      vertex 50.8651 146.422 0
      vertex 50.8382 146.552 10
      vertex 50.8382 146.552 0
    endloop
  endfacet
  facet normal -0.979255 -0.202631 0
    outer loop
      vertex 50.8651 146.422 0
      vertex 50.8651 146.422 10
      vertex 50.8382 146.552 10
    endloop
  endfacet
  facet normal -0.967202 0.254007 0
    outer loop
      vertex 50.5644 145.277 0
      vertex 50.8651 146.422 10
      vertex 50.8651 146.422 0
    endloop
  endfacet
  facet normal -0.967202 0.254007 0
    outer loop
      vertex 50.5644 145.277 0
      vertex 50.5644 145.277 10
      vertex 50.8651 146.422 10
    endloop
  endfacet
  facet normal -0.974943 -0.222456 0
    outer loop
      vertex 50.6956 144.702 0
      vertex 50.5644 145.277 10
      vertex 50.5644 145.277 0
    endloop
  endfacet
  facet normal -0.974943 -0.222456 0
    outer loop
      vertex 50.6956 144.702 0
      vertex 50.6956 144.702 10
      vertex 50.5644 145.277 10
    endloop
  endfacet
  facet normal 0.408203 -0.912891 0
    outer loop
      vertex 50.8186 144.757 0
      vertex 50.6956 144.702 10
      vertex 50.6956 144.702 0
    endloop
  endfacet
  facet normal 0.408203 -0.912891 0
    outer loop
      vertex 50.8186 144.757 0
      vertex 50.8186 144.757 10
      vertex 50.6956 144.702 10
    endloop
  endfacet
  facet normal -0.0948091 -0.995495 0
    outer loop
      vertex 50.9656 144.743 0
      vertex 50.8186 144.757 10
      vertex 50.8186 144.757 0
    endloop
  endfacet
  facet normal -0.0948091 -0.995495 0
    outer loop
      vertex 50.9656 144.743 0
      vertex 50.9656 144.743 10
      vertex 50.8186 144.757 10
    endloop
  endfacet
  facet normal -0.570835 -0.821065 0
    outer loop
      vertex 52.0156 144.013 0
      vertex 50.9656 144.743 10
      vertex 50.9656 144.743 0
    endloop
  endfacet
  facet normal -0.570835 -0.821065 0
    outer loop
      vertex 52.0156 144.013 0
      vertex 52.0156 144.013 10
      vertex 50.9656 144.743 10
    endloop
  endfacet
  facet normal -0.784233 -0.620467 0
    outer loop
      vertex 52.0694 143.945 0
      vertex 52.0156 144.013 10
      vertex 52.0156 144.013 0
    endloop
  endfacet
  facet normal -0.784233 -0.620467 0
    outer loop
      vertex 52.0694 143.945 0
      vertex 52.0694 143.945 10
      vertex 52.0156 144.013 10
    endloop
  endfacet
  facet normal -0.929612 -0.368539 0
    outer loop
      vertex 52.4484 142.989 0
      vertex 52.0694 143.945 10
      vertex 52.0694 143.945 0
    endloop
  endfacet
  facet normal -0.929612 -0.368539 0
    outer loop
      vertex 52.4484 142.989 0
      vertex 52.4484 142.989 10
      vertex 52.0694 143.945 10
    endloop
  endfacet
  facet normal 0.084385 -0.996433 0
    outer loop
      vertex 53.7473 143.099 0
      vertex 52.4484 142.989 10
      vertex 52.4484 142.989 0
    endloop
  endfacet
  facet normal 0.084385 -0.996433 0
    outer loop
      vertex 53.7473 143.099 0
      vertex 53.7473 143.099 10
      vertex 52.4484 142.989 10
    endloop
  endfacet
  facet normal -0.282166 -0.959366 0
    outer loop
      vertex 53.8527 143.068 0
      vertex 53.7473 143.099 10
      vertex 53.7473 143.099 0
    endloop
  endfacet
  facet normal -0.282166 -0.959366 0
    outer loop
      vertex 53.8527 143.068 0
      vertex 53.8527 143.068 10
      vertex 53.7473 143.099 10
    endloop
  endfacet
  facet normal -0.617009 -0.786956 0
    outer loop
      vertex 54.0708 142.897 0
      vertex 53.8527 143.068 10
      vertex 53.8527 143.068 0
    endloop
  endfacet
  facet normal -0.617009 -0.786956 0
    outer loop
      vertex 54.0708 142.897 0
      vertex 54.0708 142.897 10
      vertex 53.8527 143.068 10
    endloop
  endfacet
  facet normal 0.295565 -0.955323 0
    outer loop
      vertex 54.9241 143.161 0
      vertex 54.0708 142.897 10
      vertex 54.0708 142.897 0
    endloop
  endfacet
  facet normal 0.295565 -0.955323 0
    outer loop
      vertex 54.9241 143.161 0
      vertex 54.9241 143.161 10
      vertex 54.0708 142.897 10
    endloop
  endfacet
  facet normal 0.51442 0.857538 0
    outer loop
      vertex 56.7366 144.235 0
      vertex 57.07 144.035 10
      vertex 57.07 144.035 0
    endloop
  endfacet
  facet normal 0.51442 0.857538 -0
    outer loop
      vertex 56.7366 144.235 0
      vertex 56.7366 144.235 10
      vertex 57.07 144.035 10
    endloop
  endfacet
  facet normal -0.97743 -0.21126 0
    outer loop
      vertex 56.8116 143.888 0
      vertex 56.7366 144.235 10
      vertex 56.7366 144.235 0
    endloop
  endfacet
  facet normal -0.97743 -0.21126 0
    outer loop
      vertex 56.8116 143.888 0
      vertex 56.8116 143.888 10
      vertex 56.7366 144.235 10
    endloop
  endfacet
  facet normal -0.0193462 -0.999813 0
    outer loop
      vertex 57.07 143.883 0
      vertex 56.8116 143.888 10
      vertex 56.8116 143.888 0
    endloop
  endfacet
  facet normal -0.0193462 -0.999813 0
    outer loop
      vertex 57.07 143.883 0
      vertex 57.07 143.883 10
      vertex 56.8116 143.888 10
    endloop
  endfacet
  facet normal 1 0 0
    outer loop
      vertex 57.07 144.035 0
      vertex 57.07 143.883 10
      vertex 57.07 143.883 0
    endloop
  endfacet
  facet normal 1 0 -0
    outer loop
      vertex 57.07 144.035 0
      vertex 57.07 144.035 10
      vertex 57.07 143.883 10
    endloop
  endfacet
endsolid OpenSCAD_Model
