solid OpenSCAD_Model
  facet normal 0 -0 -1
    outer loop
      vertex 62.3034 153.031 0
      vertex 62.4526 151.698 0
      vertex 61.3272 150.639 0
    endloop
  endfacet
  facet normal 0 0 -1
    outer loop
      vertex 60.1354 150.359 0
      vertex 61.3272 150.639 0
      vertex 61.288 150.578 0
    endloop
  endfacet
  facet normal 0 0 -1
    outer loop
      vertex 60.1354 150.359 0
      vertex 61.398 154.132 0
      vertex 61.3272 150.639 0
    endloop
  endfacet
  facet normal 0 0 -1
    outer loop
      vertex 60.1354 150.359 0
      vertex 61.288 150.578 0
      vertex 61.1766 150.251 0
    endloop
  endfacet
  facet normal 0 0 -1
    outer loop
      vertex 55.7984 159.144 0
      vertex 54.3298 155.948 0
      vertex 54.2049 158.416 0
    endloop
  endfacet
  facet normal -0 0 -1
    outer loop
      vertex 62.3034 153.031 0
      vertex 61.3272 150.639 0
      vertex 61.398 154.132 0
    endloop
  endfacet
  facet normal -0 -0 -1
    outer loop
      vertex 61.8555 154.064 0
      vertex 62.3034 153.031 0
      vertex 61.398 154.132 0
    endloop
  endfacet
  facet normal 0 0 -1
    outer loop
      vertex 61.398 154.132 0
      vertex 60.1354 150.359 0
      vertex 60.0403 150.337 0
    endloop
  endfacet
  facet normal 0 0 -1
    outer loop
      vertex 61.2738 154.314 0
      vertex 57.1372 151.405 0
      vertex 57.0715 151.444 0
    endloop
  endfacet
  facet normal -0 0 -1
    outer loop
      vertex 58.8351 157.004 0
      vertex 57.0715 151.444 0
      vertex 58.6858 157.053 0
    endloop
  endfacet
  facet normal 0 0 -1
    outer loop
      vertex 60.9531 156.94 0
      vertex 61.6772 156.071 0
      vertex 61.2738 154.314 0
    endloop
  endfacet
  facet normal 0 0 -1
    outer loop
      vertex 59.9148 157.264 0
      vertex 60.9531 156.94 0
      vertex 61.2738 154.314 0
    endloop
  endfacet
  facet normal 0 0 -1
    outer loop
      vertex 58.8351 157.004 0
      vertex 59.9148 157.264 0
      vertex 61.2738 154.314 0
    endloop
  endfacet
  facet normal 0 0 -1
    outer loop
      vertex 55.3286 152.607 0
      vertex 55.1201 152.657 0
      vertex 54.2855 155.833 0
    endloop
  endfacet
  facet normal 0 -0 -1
    outer loop
      vertex 52.5869 154.645 0
      vertex 53.6073 152.091 0
      vertex 51.5794 152.497 0
    endloop
  endfacet
  facet normal 0 0 -1
    outer loop
      vertex 58.6858 157.053 0
      vertex 55.3286 152.607 0
      vertex 54.3298 155.948 0
    endloop
  endfacet
  facet normal 0 -0 -1
    outer loop
      vertex 55.7984 159.144 0
      vertex 57.6665 158.248 0
      vertex 54.3298 155.948 0
    endloop
  endfacet
  facet normal 0 0 -1
    outer loop
      vertex 54.3298 155.948 0
      vertex 57.6665 158.248 0
      vertex 58.6858 157.053 0
    endloop
  endfacet
  facet normal -0 0 -1
    outer loop
      vertex 50.2225 157.255 0
      vertex 48.3918 157.137 0
      vertex 50.1902 157.306 0
    endloop
  endfacet
  facet normal 0 0 -1
    outer loop
      vertex 54.2855 155.833 0
      vertex 54.3298 155.948 0
      vertex 55.3286 152.607 0
    endloop
  endfacet
  facet normal -0 0 -1
    outer loop
      vertex 51.4829 152.484 0
      vertex 51.2266 152.356 0
      vertex 50.921 152.589 0
    endloop
  endfacet
  facet normal 0 0 -1
    outer loop
      vertex 53.2855 154.843 0
      vertex 55.1201 152.657 0
      vertex 54.3398 152.166 0
    endloop
  endfacet
  facet normal 0 0 -1
    outer loop
      vertex 53.2169 154.805 0
      vertex 53.2855 154.843 0
      vertex 54.3398 152.166 0
    endloop
  endfacet
  facet normal 0 0 -1
    outer loop
      vertex 50.8334 152.62 0
      vertex 49.0834 152.66 0
      vertex 51.6082 155.231 0
    endloop
  endfacet
  facet normal 0 0 -1
    outer loop
      vertex 49.026 152.65 0
      vertex 47.568 154.887 0
      vertex 49.0834 152.66 0
    endloop
  endfacet
  facet normal 0 -0 -1
    outer loop
      vertex 51.2891 156.159 0
      vertex 51.6082 155.231 0
      vertex 47.5973 154.952 0
    endloop
  endfacet
  facet normal 0 -0 -1
    outer loop
      vertex 47.8325 156.177 0
      vertex 51.2891 156.159 0
      vertex 47.5973 154.952 0
    endloop
  endfacet
  facet normal 0 -0 -1
    outer loop
      vertex 48.3918 157.137 0
      vertex 50.2225 157.255 0
      vertex 47.8325 156.177 0
    endloop
  endfacet
  facet normal 0 0 -1
    outer loop
      vertex 47.8325 156.177 0
      vertex 50.2225 157.255 0
      vertex 51.2891 156.159 0
    endloop
  endfacet
  facet normal -0 0 -1
    outer loop
      vertex 50.1902 157.306 0
      vertex 48.3918 157.137 0
      vertex 50.0327 157.711 0
    endloop
  endfacet
  facet normal 0 0 -1
    outer loop
      vertex 48.0661 152.28 0
      vertex 46.979 154.137 0
      vertex 49.026 152.65 0
    endloop
  endfacet
  facet normal -0 0 -1
    outer loop
      vertex 48.0319 152.261 0
      vertex 46.9259 151.459 0
      vertex 46.979 154.137 0
    endloop
  endfacet
  facet normal -0 0 -1
    outer loop
      vertex 48.0661 152.28 0
      vertex 48.0319 152.261 0
      vertex 46.979 154.137 0
    endloop
  endfacet
  facet normal 0 0 -1
    outer loop
      vertex 49.026 152.65 0
      vertex 46.979 154.137 0
      vertex 47.568 154.887 0
    endloop
  endfacet
  facet normal 0 0 -1
    outer loop
      vertex 49.0834 152.66 0
      vertex 47.568 154.887 0
      vertex 47.5973 154.952 0
    endloop
  endfacet
  facet normal 0 0 -1
    outer loop
      vertex 51.6082 155.231 0
      vertex 49.0834 152.66 0
      vertex 47.5973 154.952 0
    endloop
  endfacet
  facet normal -0 0 -1
    outer loop
      vertex 51.6716 155.152 0
      vertex 50.8334 152.62 0
      vertex 51.6082 155.231 0
    endloop
  endfacet
  facet normal 0 0 -1
    outer loop
      vertex 51.6716 155.152 0
      vertex 50.921 152.589 0
      vertex 50.8334 152.62 0
    endloop
  endfacet
  facet normal -0 0 -1
    outer loop
      vertex 51.5794 152.497 0
      vertex 51.4829 152.484 0
      vertex 50.921 152.589 0
    endloop
  endfacet
  facet normal 0 -0 -1
    outer loop
      vertex 51.6716 155.152 0
      vertex 52.4716 154.662 0
      vertex 50.921 152.589 0
    endloop
  endfacet
  facet normal 0 0 -1
    outer loop
      vertex 51.5794 152.497 0
      vertex 50.921 152.589 0
      vertex 52.4716 154.662 0
    endloop
  endfacet
  facet normal -0 0 -1
    outer loop
      vertex 52.5869 154.645 0
      vertex 51.5794 152.497 0
      vertex 52.4716 154.662 0
    endloop
  endfacet
  facet normal 0 -0 -1
    outer loop
      vertex 53.2169 154.805 0
      vertex 53.6073 152.091 0
      vertex 52.5869 154.645 0
    endloop
  endfacet
  facet normal 0 0 -1
    outer loop
      vertex 53.2169 154.805 0
      vertex 54.3398 152.166 0
      vertex 53.6073 152.091 0
    endloop
  endfacet
  facet normal 0 -0 -1
    outer loop
      vertex 54.2855 155.833 0
      vertex 55.1201 152.657 0
      vertex 53.2855 154.843 0
    endloop
  endfacet
  facet normal -0 0 -1
    outer loop
      vertex 61.398 154.132 0
      vertex 57.1372 151.405 0
      vertex 61.2738 154.314 0
    endloop
  endfacet
  facet normal 0 0 -1
    outer loop
      vertex 58.6858 157.053 0
      vertex 57.0715 151.444 0
      vertex 55.3286 152.607 0
    endloop
  endfacet
  facet normal 0 0 -1
    outer loop
      vertex 55.3286 152.607 0
      vertex 57.0715 151.444 0
      vertex 55.8082 151.808 0
    endloop
  endfacet
  facet normal 0 0 -1
    outer loop
      vertex 61.398 154.132 0
      vertex 60.0403 150.337 0
      vertex 57.1372 151.405 0
    endloop
  endfacet
  facet normal -0 0 -1
    outer loop
      vertex 61.2738 154.314 0
      vertex 57.0715 151.444 0
      vertex 58.8351 157.004 0
    endloop
  endfacet
  facet normal 0 0 -1
    outer loop
      vertex 57.1372 151.405 0
      vertex 60.0403 150.337 0
      vertex 58.4883 150.024 0
    endloop
  endfacet
  facet normal 0 0 -1
    outer loop
      vertex 58.4883 150.024 0
      vertex 60.0403 150.337 0
      vertex 59.0898 149.741 0
    endloop
  endfacet
  facet normal 0 0 1
    outer loop
      vertex 61.3272 150.639 10
      vertex 62.4526 151.698 10
      vertex 62.3034 153.031 10
    endloop
  endfacet
  facet normal 0 -0 1
    outer loop
      vertex 61.288 150.578 10
      vertex 61.3272 150.639 10
      vertex 60.1354 150.359 10
    endloop
  endfacet
  facet normal 0 -0 1
    outer loop
      vertex 61.3272 150.639 10
      vertex 61.398 154.132 10
      vertex 60.1354 150.359 10
    endloop
  endfacet
  facet normal 0 -0 1
    outer loop
      vertex 61.1766 150.251 10
      vertex 61.288 150.578 10
      vertex 60.1354 150.359 10
    endloop
  endfacet
  facet normal -0 0 1
    outer loop
      vertex 54.2049 158.416 10
      vertex 54.3298 155.948 10
      vertex 55.7984 159.144 10
    endloop
  endfacet
  facet normal 0 0 1
    outer loop
      vertex 61.398 154.132 10
      vertex 61.3272 150.639 10
      vertex 62.3034 153.031 10
    endloop
  endfacet
  facet normal 0 0 1
    outer loop
      vertex 61.398 154.132 10
      vertex 62.3034 153.031 10
      vertex 61.8555 154.064 10
    endloop
  endfacet
  facet normal 0 0 1
    outer loop
      vertex 60.0403 150.337 10
      vertex 60.1354 150.359 10
      vertex 61.398 154.132 10
    endloop
  endfacet
  facet normal -0 0 1
    outer loop
      vertex 57.0715 151.444 10
      vertex 57.1372 151.405 10
      vertex 61.2738 154.314 10
    endloop
  endfacet
  facet normal 0 0 1
    outer loop
      vertex 58.6858 157.053 10
      vertex 57.0715 151.444 10
      vertex 58.8351 157.004 10
    endloop
  endfacet
  facet normal 0 -0 1
    outer loop
      vertex 61.2738 154.314 10
      vertex 61.6772 156.071 10
      vertex 60.9531 156.94 10
    endloop
  endfacet
  facet normal 0 0 1
    outer loop
      vertex 61.2738 154.314 10
      vertex 60.9531 156.94 10
      vertex 59.9148 157.264 10
    endloop
  endfacet
  facet normal 0 0 1
    outer loop
      vertex 61.2738 154.314 10
      vertex 59.9148 157.264 10
      vertex 58.8351 157.004 10
    endloop
  endfacet
  facet normal 0 0 1
    outer loop
      vertex 54.2855 155.833 10
      vertex 55.1201 152.657 10
      vertex 55.3286 152.607 10
    endloop
  endfacet
  facet normal -0 0 1
    outer loop
      vertex 51.5794 152.497 10
      vertex 53.6073 152.091 10
      vertex 52.5869 154.645 10
    endloop
  endfacet
  facet normal -0 0 1
    outer loop
      vertex 54.3298 155.948 10
      vertex 55.3286 152.607 10
      vertex 58.6858 157.053 10
    endloop
  endfacet
  facet normal 0 0 1
    outer loop
      vertex 54.3298 155.948 10
      vertex 57.6665 158.248 10
      vertex 55.7984 159.144 10
    endloop
  endfacet
  facet normal 0 0 1
    outer loop
      vertex 58.6858 157.053 10
      vertex 57.6665 158.248 10
      vertex 54.3298 155.948 10
    endloop
  endfacet
  facet normal 0 0 1
    outer loop
      vertex 50.1902 157.306 10
      vertex 48.3918 157.137 10
      vertex 50.2225 157.255 10
    endloop
  endfacet
  facet normal 0 0 1
    outer loop
      vertex 55.3286 152.607 10
      vertex 54.3298 155.948 10
      vertex 54.2855 155.833 10
    endloop
  endfacet
  facet normal 0 0 1
    outer loop
      vertex 50.921 152.589 10
      vertex 51.2266 152.356 10
      vertex 51.4829 152.484 10
    endloop
  endfacet
  facet normal 0 -0 1
    outer loop
      vertex 54.3398 152.166 10
      vertex 55.1201 152.657 10
      vertex 53.2855 154.843 10
    endloop
  endfacet
  facet normal 0 0 1
    outer loop
      vertex 54.3398 152.166 10
      vertex 53.2855 154.843 10
      vertex 53.2169 154.805 10
    endloop
  endfacet
  facet normal 0 0 1
    outer loop
      vertex 51.6082 155.231 10
      vertex 49.0834 152.66 10
      vertex 50.8334 152.62 10
    endloop
  endfacet
  facet normal 0 0 1
    outer loop
      vertex 49.0834 152.66 10
      vertex 47.568 154.887 10
      vertex 49.026 152.65 10
    endloop
  endfacet
  facet normal 0 0 1
    outer loop
      vertex 47.5973 154.952 10
      vertex 51.6082 155.231 10
      vertex 51.2891 156.159 10
    endloop
  endfacet
  facet normal 0 0 1
    outer loop
      vertex 47.5973 154.952 10
      vertex 51.2891 156.159 10
      vertex 47.8325 156.177 10
    endloop
  endfacet
  facet normal 0 0 1
    outer loop
      vertex 47.8325 156.177 10
      vertex 50.2225 157.255 10
      vertex 48.3918 157.137 10
    endloop
  endfacet
  facet normal 0 0 1
    outer loop
      vertex 51.2891 156.159 10
      vertex 50.2225 157.255 10
      vertex 47.8325 156.177 10
    endloop
  endfacet
  facet normal 0 0 1
    outer loop
      vertex 50.0327 157.711 10
      vertex 48.3918 157.137 10
      vertex 50.1902 157.306 10
    endloop
  endfacet
  facet normal 0 0 1
    outer loop
      vertex 49.026 152.65 10
      vertex 46.979 154.137 10
      vertex 48.0661 152.28 10
    endloop
  endfacet
  facet normal 0 0 1
    outer loop
      vertex 46.979 154.137 10
      vertex 46.9259 151.459 10
      vertex 48.0319 152.261 10
    endloop
  endfacet
  facet normal 0 0 1
    outer loop
      vertex 46.979 154.137 10
      vertex 48.0319 152.261 10
      vertex 48.0661 152.28 10
    endloop
  endfacet
  facet normal 0 0 1
    outer loop
      vertex 47.568 154.887 10
      vertex 46.979 154.137 10
      vertex 49.026 152.65 10
    endloop
  endfacet
  facet normal 0 0 1
    outer loop
      vertex 47.5973 154.952 10
      vertex 47.568 154.887 10
      vertex 49.0834 152.66 10
    endloop
  endfacet
  facet normal -0 0 1
    outer loop
      vertex 47.5973 154.952 10
      vertex 49.0834 152.66 10
      vertex 51.6082 155.231 10
    endloop
  endfacet
  facet normal 0 0 1
    outer loop
      vertex 51.6082 155.231 10
      vertex 50.8334 152.62 10
      vertex 51.6716 155.152 10
    endloop
  endfacet
  facet normal -0 0 1
    outer loop
      vertex 50.8334 152.62 10
      vertex 50.921 152.589 10
      vertex 51.6716 155.152 10
    endloop
  endfacet
  facet normal 0 0 1
    outer loop
      vertex 50.921 152.589 10
      vertex 51.4829 152.484 10
      vertex 51.5794 152.497 10
    endloop
  endfacet
  facet normal 0 0 1
    outer loop
      vertex 50.921 152.589 10
      vertex 52.4716 154.662 10
      vertex 51.6716 155.152 10
    endloop
  endfacet
  facet normal 0 0 1
    outer loop
      vertex 52.4716 154.662 10
      vertex 50.921 152.589 10
      vertex 51.5794 152.497 10
    endloop
  endfacet
  facet normal 0 0 1
    outer loop
      vertex 52.4716 154.662 10
      vertex 51.5794 152.497 10
      vertex 52.5869 154.645 10
    endloop
  endfacet
  facet normal -0 0 1
    outer loop
      vertex 52.5869 154.645 10
      vertex 53.6073 152.091 10
      vertex 53.2169 154.805 10
    endloop
  endfacet
  facet normal 0 -0 1
    outer loop
      vertex 53.6073 152.091 10
      vertex 54.3398 152.166 10
      vertex 53.2169 154.805 10
    endloop
  endfacet
  facet normal -0 0 1
    outer loop
      vertex 53.2855 154.843 10
      vertex 55.1201 152.657 10
      vertex 54.2855 155.833 10
    endloop
  endfacet
  facet normal 0 0 1
    outer loop
      vertex 61.2738 154.314 10
      vertex 57.1372 151.405 10
      vertex 61.398 154.132 10
    endloop
  endfacet
  facet normal -0 0 1
    outer loop
      vertex 55.3286 152.607 10
      vertex 57.0715 151.444 10
      vertex 58.6858 157.053 10
    endloop
  endfacet
  facet normal -0 -0 1
    outer loop
      vertex 55.8082 151.808 10
      vertex 57.0715 151.444 10
      vertex 55.3286 152.607 10
    endloop
  endfacet
  facet normal -0 0 1
    outer loop
      vertex 57.1372 151.405 10
      vertex 60.0403 150.337 10
      vertex 61.398 154.132 10
    endloop
  endfacet
  facet normal 0 0 1
    outer loop
      vertex 58.8351 157.004 10
      vertex 57.0715 151.444 10
      vertex 61.2738 154.314 10
    endloop
  endfacet
  facet normal 0 -0 1
    outer loop
      vertex 58.4883 150.024 10
      vertex 60.0403 150.337 10
      vertex 57.1372 151.405 10
    endloop
  endfacet
  facet normal 0 -0 1
    outer loop
      vertex 59.0898 149.741 10
      vertex 60.0403 150.337 10
      vertex 58.4883 150.024 10
    endloop
  endfacet
  facet normal 0.225383 -0.97427 0
    outer loop
      vertex 60.1354 150.359 0
      vertex 60.0403 150.337 10
      vertex 60.0403 150.337 0
    endloop
  endfacet
  facet normal 0.225383 -0.97427 0
    outer loop
      vertex 60.1354 150.359 0
      vertex 60.1354 150.359 10
      vertex 60.0403 150.337 10
    endloop
  endfacet
  facet normal -0.103173 -0.994663 0
    outer loop
      vertex 61.1766 150.251 0
      vertex 60.1354 150.359 10
      vertex 60.1354 150.359 0
    endloop
  endfacet
  facet normal -0.103173 -0.994663 0
    outer loop
      vertex 61.1766 150.251 0
      vertex 61.1766 150.251 10
      vertex 60.1354 150.359 10
    endloop
  endfacet
  facet normal 0.946578 -0.322474 0
    outer loop
      vertex 61.288 150.578 0
      vertex 61.1766 150.251 10
      vertex 61.1766 150.251 0
    endloop
  endfacet
  facet normal 0.946578 -0.322474 0
    outer loop
      vertex 61.288 150.578 0
      vertex 61.288 150.578 10
      vertex 61.1766 150.251 10
    endloop
  endfacet
  facet normal 0.841268 -0.540618 0
    outer loop
      vertex 61.3272 150.639 0
      vertex 61.288 150.578 10
      vertex 61.288 150.578 0
    endloop
  endfacet
  facet normal 0.841268 -0.540618 0
    outer loop
      vertex 61.3272 150.639 0
      vertex 61.3272 150.639 10
      vertex 61.288 150.578 10
    endloop
  endfacet
  facet normal 0.685296 -0.728265 0
    outer loop
      vertex 62.4526 151.698 0
      vertex 61.3272 150.639 10
      vertex 61.3272 150.639 0
    endloop
  endfacet
  facet normal 0.685296 -0.728265 0
    outer loop
      vertex 62.4526 151.698 0
      vertex 62.4526 151.698 10
      vertex 61.3272 150.639 10
    endloop
  endfacet
  facet normal 0.993794 0.111233 0
    outer loop
      vertex 62.3034 153.031 0
      vertex 62.4526 151.698 10
      vertex 62.4526 151.698 0
    endloop
  endfacet
  facet normal 0.993794 0.111233 -0
    outer loop
      vertex 62.3034 153.031 0
      vertex 62.3034 153.031 10
      vertex 62.4526 151.698 10
    endloop
  endfacet
  facet normal 0.917469 0.397807 0
    outer loop
      vertex 61.8555 154.064 0
      vertex 62.3034 153.031 10
      vertex 62.3034 153.031 0
    endloop
  endfacet
  facet normal 0.917469 0.397807 -0
    outer loop
      vertex 61.8555 154.064 0
      vertex 61.8555 154.064 10
      vertex 62.3034 153.031 10
    endloop
  endfacet
  facet normal 0.147019 0.989134 0
    outer loop
      vertex 61.398 154.132 0
      vertex 61.8555 154.064 10
      vertex 61.8555 154.064 0
    endloop
  endfacet
  facet normal 0.147019 0.989134 -0
    outer loop
      vertex 61.398 154.132 0
      vertex 61.398 154.132 10
      vertex 61.8555 154.064 10
    endloop
  endfacet
  facet normal 0.825997 0.563675 0
    outer loop
      vertex 61.2738 154.314 0
      vertex 61.398 154.132 10
      vertex 61.398 154.132 0
    endloop
  endfacet
  facet normal 0.825997 0.563675 -0
    outer loop
      vertex 61.2738 154.314 0
      vertex 61.2738 154.314 10
      vertex 61.398 154.132 10
    endloop
  endfacet
  facet normal 0.974641 -0.223774 0
    outer loop
      vertex 61.6772 156.071 0
      vertex 61.2738 154.314 10
      vertex 61.2738 154.314 0
    endloop
  endfacet
  facet normal 0.974641 -0.223774 0
    outer loop
      vertex 61.6772 156.071 0
      vertex 61.6772 156.071 10
      vertex 61.2738 154.314 10
    endloop
  endfacet
  facet normal 0.76825 0.64015 0
    outer loop
      vertex 60.9531 156.94 0
      vertex 61.6772 156.071 10
      vertex 61.6772 156.071 0
    endloop
  endfacet
  facet normal 0.76825 0.64015 -0
    outer loop
      vertex 60.9531 156.94 0
      vertex 60.9531 156.94 10
      vertex 61.6772 156.071 10
    endloop
  endfacet
  facet normal 0.297882 0.954603 0
    outer loop
      vertex 59.9148 157.264 0
      vertex 60.9531 156.94 10
      vertex 60.9531 156.94 0
    endloop
  endfacet
  facet normal 0.297882 0.954603 -0
    outer loop
      vertex 59.9148 157.264 0
      vertex 59.9148 157.264 10
      vertex 60.9531 156.94 10
    endloop
  endfacet
  facet normal -0.234115 0.972209 0
    outer loop
      vertex 58.8351 157.004 0
      vertex 59.9148 157.264 10
      vertex 59.9148 157.264 0
    endloop
  endfacet
  facet normal -0.234115 0.972209 0
    outer loop
      vertex 58.8351 157.004 0
      vertex 58.8351 157.004 10
      vertex 59.9148 157.264 10
    endloop
  endfacet
  facet normal 0.311833 0.950137 0
    outer loop
      vertex 58.6858 157.053 0
      vertex 58.8351 157.004 10
      vertex 58.8351 157.004 0
    endloop
  endfacet
  facet normal 0.311833 0.950137 -0
    outer loop
      vertex 58.6858 157.053 0
      vertex 58.6858 157.053 10
      vertex 58.8351 157.004 10
    endloop
  endfacet
  facet normal 0.760823 0.64896 0
    outer loop
      vertex 57.6665 158.248 0
      vertex 58.6858 157.053 10
      vertex 58.6858 157.053 0
    endloop
  endfacet
  facet normal 0.760823 0.64896 -0
    outer loop
      vertex 57.6665 158.248 0
      vertex 57.6665 158.248 10
      vertex 58.6858 157.053 10
    endloop
  endfacet
  facet normal 0.432461 0.901653 0
    outer loop
      vertex 55.7984 159.144 0
      vertex 57.6665 158.248 10
      vertex 57.6665 158.248 0
    endloop
  endfacet
  facet normal 0.432461 0.901653 -0
    outer loop
      vertex 55.7984 159.144 0
      vertex 55.7984 159.144 10
      vertex 57.6665 158.248 10
    endloop
  endfacet
  facet normal -0.415544 0.909573 0
    outer loop
      vertex 54.2049 158.416 0
      vertex 55.7984 159.144 10
      vertex 55.7984 159.144 0
    endloop
  endfacet
  facet normal -0.415544 0.909573 0
    outer loop
      vertex 54.2049 158.416 0
      vertex 54.2049 158.416 10
      vertex 55.7984 159.144 10
    endloop
  endfacet
  facet normal -0.998722 -0.0505431 0
    outer loop
      vertex 54.3298 155.948 0
      vertex 54.2049 158.416 10
      vertex 54.2049 158.416 0
    endloop
  endfacet
  facet normal -0.998722 -0.0505431 0
    outer loop
      vertex 54.3298 155.948 0
      vertex 54.3298 155.948 10
      vertex 54.2049 158.416 10
    endloop
  endfacet
  facet normal -0.933157 0.359468 0
    outer loop
      vertex 54.2855 155.833 0
      vertex 54.3298 155.948 10
      vertex 54.3298 155.948 0
    endloop
  endfacet
  facet normal -0.933157 0.359468 0
    outer loop
      vertex 54.2855 155.833 0
      vertex 54.2855 155.833 10
      vertex 54.3298 155.948 10
    endloop
  endfacet
  facet normal -0.703545 0.710651 0
    outer loop
      vertex 53.2855 154.843 0
      vertex 54.2855 155.833 10
      vertex 54.2855 155.833 0
    endloop
  endfacet
  facet normal -0.703545 0.710651 0
    outer loop
      vertex 53.2855 154.843 0
      vertex 53.2855 154.843 10
      vertex 54.2855 155.833 10
    endloop
  endfacet
  facet normal -0.48456 0.874758 0
    outer loop
      vertex 53.2169 154.805 0
      vertex 53.2855 154.843 10
      vertex 53.2855 154.843 0
    endloop
  endfacet
  facet normal -0.48456 0.874758 0
    outer loop
      vertex 53.2169 154.805 0
      vertex 53.2169 154.805 10
      vertex 53.2855 154.843 10
    endloop
  endfacet
  facet normal -0.246154 0.969231 0
    outer loop
      vertex 52.5869 154.645 0
      vertex 53.2169 154.805 10
      vertex 53.2169 154.805 0
    endloop
  endfacet
  facet normal -0.246154 0.969231 0
    outer loop
      vertex 52.5869 154.645 0
      vertex 52.5869 154.645 10
      vertex 53.2169 154.805 10
    endloop
  endfacet
  facet normal 0.145865 0.989305 0
    outer loop
      vertex 52.4716 154.662 0
      vertex 52.5869 154.645 10
      vertex 52.5869 154.645 0
    endloop
  endfacet
  facet normal 0.145865 0.989305 -0
    outer loop
      vertex 52.4716 154.662 0
      vertex 52.4716 154.662 10
      vertex 52.5869 154.645 10
    endloop
  endfacet
  facet normal 0.522312 0.852754 0
    outer loop
      vertex 51.6716 155.152 0
      vertex 52.4716 154.662 10
      vertex 52.4716 154.662 0
    endloop
  endfacet
  facet normal 0.522312 0.852754 -0
    outer loop
      vertex 51.6716 155.152 0
      vertex 51.6716 155.152 10
      vertex 52.4716 154.662 10
    endloop
  endfacet
  facet normal 0.779905 0.625898 0
    outer loop
      vertex 51.6082 155.231 0
      vertex 51.6716 155.152 10
      vertex 51.6716 155.152 0
    endloop
  endfacet
  facet normal 0.779905 0.625898 -0
    outer loop
      vertex 51.6082 155.231 0
      vertex 51.6082 155.231 10
      vertex 51.6716 155.152 10
    endloop
  endfacet
  facet normal 0.945655 0.325171 0
    outer loop
      vertex 51.2891 156.159 0
      vertex 51.6082 155.231 10
      vertex 51.6082 155.231 0
    endloop
  endfacet
  facet normal 0.945655 0.325171 -0
    outer loop
      vertex 51.2891 156.159 0
      vertex 51.2891 156.159 10
      vertex 51.6082 155.231 10
    endloop
  endfacet
  facet normal 0.716653 0.697429 0
    outer loop
      vertex 50.2225 157.255 0
      vertex 51.2891 156.159 10
      vertex 51.2891 156.159 0
    endloop
  endfacet
  facet normal 0.716653 0.697429 -0
    outer loop
      vertex 50.2225 157.255 0
      vertex 50.2225 157.255 10
      vertex 51.2891 156.159 10
    endloop
  endfacet
  facet normal 0.844819 0.535052 0
    outer loop
      vertex 50.1902 157.306 0
      vertex 50.2225 157.255 10
      vertex 50.2225 157.255 0
    endloop
  endfacet
  facet normal 0.844819 0.535052 -0
    outer loop
      vertex 50.1902 157.306 0
      vertex 50.1902 157.306 10
      vertex 50.2225 157.255 10
    endloop
  endfacet
  facet normal 0.932005 0.362446 0
    outer loop
      vertex 50.0327 157.711 0
      vertex 50.1902 157.306 10
      vertex 50.1902 157.306 0
    endloop
  endfacet
  facet normal 0.932005 0.362446 -0
    outer loop
      vertex 50.0327 157.711 0
      vertex 50.0327 157.711 10
      vertex 50.1902 157.306 10
    endloop
  endfacet
  facet normal -0.330189 0.943915 0
    outer loop
      vertex 48.3918 157.137 0
      vertex 50.0327 157.711 10
      vertex 50.0327 157.711 0
    endloop
  endfacet
  facet normal -0.330189 0.943915 0
    outer loop
      vertex 48.3918 157.137 0
      vertex 48.3918 157.137 10
      vertex 50.0327 157.711 10
    endloop
  endfacet
  facet normal -0.864053 0.503401 0
    outer loop
      vertex 47.8325 156.177 0
      vertex 48.3918 157.137 10
      vertex 48.3918 157.137 0
    endloop
  endfacet
  facet normal -0.864053 0.503401 0
    outer loop
      vertex 47.8325 156.177 0
      vertex 47.8325 156.177 10
      vertex 48.3918 157.137 10
    endloop
  endfacet
  facet normal -0.982062 0.188556 0
    outer loop
      vertex 47.5973 154.952 0
      vertex 47.8325 156.177 10
      vertex 47.8325 156.177 0
    endloop
  endfacet
  facet normal -0.982062 0.188556 0
    outer loop
      vertex 47.5973 154.952 0
      vertex 47.5973 154.952 10
      vertex 47.8325 156.177 10
    endloop
  endfacet
  facet normal -0.911659 0.410948 0
    outer loop
      vertex 47.568 154.887 0
      vertex 47.5973 154.952 10
      vertex 47.5973 154.952 0
    endloop
  endfacet
  facet normal -0.911659 0.410948 0
    outer loop
      vertex 47.568 154.887 0
      vertex 47.568 154.887 10
      vertex 47.5973 154.952 10
    endloop
  endfacet
  facet normal -0.786464 0.617636 0
    outer loop
      vertex 46.979 154.137 0
      vertex 47.568 154.887 10
      vertex 47.568 154.887 0
    endloop
  endfacet
  facet normal -0.786464 0.617636 0
    outer loop
      vertex 46.979 154.137 0
      vertex 46.979 154.137 10
      vertex 47.568 154.887 10
    endloop
  endfacet
  facet normal -0.999803 0.0198243 0
    outer loop
      vertex 46.9259 151.459 0
      vertex 46.979 154.137 10
      vertex 46.979 154.137 0
    endloop
  endfacet
  facet normal -0.999803 0.0198243 0
    outer loop
      vertex 46.9259 151.459 0
      vertex 46.9259 151.459 10
      vertex 46.979 154.137 10
    endloop
  endfacet
  facet normal 0.58704 -0.809558 0
    outer loop
      vertex 48.0319 152.261 0
      vertex 46.9259 151.459 10
      vertex 46.9259 151.459 0
    endloop
  endfacet
  facet normal 0.58704 -0.809558 0
    outer loop
      vertex 48.0319 152.261 0
      vertex 48.0319 152.261 10
      vertex 46.9259 151.459 10
    endloop
  endfacet
  facet normal 0.485643 -0.874157 0
    outer loop
      vertex 48.0661 152.28 0
      vertex 48.0319 152.261 10
      vertex 48.0319 152.261 0
    endloop
  endfacet
  facet normal 0.485643 -0.874157 0
    outer loop
      vertex 48.0661 152.28 0
      vertex 48.0661 152.28 10
      vertex 48.0319 152.261 10
    endloop
  endfacet
  facet normal 0.359663 -0.933082 0
    outer loop
      vertex 49.026 152.65 0
      vertex 48.0661 152.28 10
      vertex 48.0661 152.28 0
    endloop
  endfacet
  facet normal 0.359663 -0.933082 0
    outer loop
      vertex 49.026 152.65 0
      vertex 49.026 152.65 10
      vertex 48.0661 152.28 10
    endloop
  endfacet
  facet normal 0.171631 -0.985161 0
    outer loop
      vertex 49.0834 152.66 0
      vertex 49.026 152.65 10
      vertex 49.026 152.65 0
    endloop
  endfacet
  facet normal 0.171631 -0.985161 0
    outer loop
      vertex 49.0834 152.66 0
      vertex 49.0834 152.66 10
      vertex 49.026 152.65 10
    endloop
  endfacet
  facet normal -0.0228512 -0.999739 0
    outer loop
      vertex 50.8334 152.62 0
      vertex 49.0834 152.66 10
      vertex 49.0834 152.66 0
    endloop
  endfacet
  facet normal -0.0228512 -0.999739 0
    outer loop
      vertex 50.8334 152.62 0
      vertex 50.8334 152.62 10
      vertex 49.0834 152.66 10
    endloop
  endfacet
  facet normal -0.333608 -0.942712 0
    outer loop
      vertex 50.921 152.589 0
      vertex 50.8334 152.62 10
      vertex 50.8334 152.62 0
    endloop
  endfacet
  facet normal -0.333608 -0.942712 0
    outer loop
      vertex 50.921 152.589 0
      vertex 50.921 152.589 10
      vertex 50.8334 152.62 10
    endloop
  endfacet
  facet normal -0.60631 -0.795229 0
    outer loop
      vertex 51.2266 152.356 0
      vertex 50.921 152.589 10
      vertex 50.921 152.589 0
    endloop
  endfacet
  facet normal -0.60631 -0.795229 0
    outer loop
      vertex 51.2266 152.356 0
      vertex 51.2266 152.356 10
      vertex 50.921 152.589 10
    endloop
  endfacet
  facet normal 0.446795 -0.894637 0
    outer loop
      vertex 51.4829 152.484 0
      vertex 51.2266 152.356 10
      vertex 51.2266 152.356 0
    endloop
  endfacet
  facet normal 0.446795 -0.894637 0
    outer loop
      vertex 51.4829 152.484 0
      vertex 51.4829 152.484 10
      vertex 51.2266 152.356 10
    endloop
  endfacet
  facet normal 0.133509 -0.991048 0
    outer loop
      vertex 51.5794 152.497 0
      vertex 51.4829 152.484 10
      vertex 51.4829 152.484 0
    endloop
  endfacet
  facet normal 0.133509 -0.991048 0
    outer loop
      vertex 51.5794 152.497 0
      vertex 51.5794 152.497 10
      vertex 51.4829 152.484 10
    endloop
  endfacet
  facet normal -0.196311 -0.980542 0
    outer loop
      vertex 53.6073 152.091 0
      vertex 51.5794 152.497 10
      vertex 51.5794 152.497 0
    endloop
  endfacet
  facet normal -0.196311 -0.980542 0
    outer loop
      vertex 53.6073 152.091 0
      vertex 53.6073 152.091 10
      vertex 51.5794 152.497 10
    endloop
  endfacet
  facet normal 0.101857 -0.994799 0
    outer loop
      vertex 54.3398 152.166 0
      vertex 53.6073 152.091 10
      vertex 53.6073 152.091 0
    endloop
  endfacet
  facet normal 0.101857 -0.994799 0
    outer loop
      vertex 54.3398 152.166 0
      vertex 54.3398 152.166 10
      vertex 53.6073 152.091 10
    endloop
  endfacet
  facet normal 0.53258 -0.84638 0
    outer loop
      vertex 55.1201 152.657 0
      vertex 54.3398 152.166 10
      vertex 54.3398 152.166 0
    endloop
  endfacet
  facet normal 0.53258 -0.84638 0
    outer loop
      vertex 55.1201 152.657 0
      vertex 55.1201 152.657 10
      vertex 54.3398 152.166 10
    endloop
  endfacet
  facet normal -0.233197 -0.97243 0
    outer loop
      vertex 55.3286 152.607 0
      vertex 55.1201 152.657 10
      vertex 55.1201 152.657 0
    endloop
  endfacet
  facet normal -0.233197 -0.97243 0
    outer loop
      vertex 55.3286 152.607 0
      vertex 55.3286 152.607 10
      vertex 55.1201 152.657 10
    endloop
  endfacet
  facet normal -0.857398 -0.514654 0
    outer loop
      vertex 55.8082 151.808 0
      vertex 55.3286 152.607 10
      vertex 55.3286 152.607 0
    endloop
  endfacet
  facet normal -0.857398 -0.514654 0
    outer loop
      vertex 55.8082 151.808 0
      vertex 55.8082 151.808 10
      vertex 55.3286 152.607 10
    endloop
  endfacet
  facet normal -0.27687 -0.960907 0
    outer loop
      vertex 57.0715 151.444 0
      vertex 55.8082 151.808 10
      vertex 55.8082 151.808 0
    endloop
  endfacet
  facet normal -0.27687 -0.960907 0
    outer loop
      vertex 57.0715 151.444 0
      vertex 57.0715 151.444 10
      vertex 55.8082 151.808 10
    endloop
  endfacet
  facet normal -0.510448 -0.859909 0
    outer loop
      vertex 57.1372 151.405 0
      vertex 57.0715 151.444 10
      vertex 57.0715 151.444 0
    endloop
  endfacet
  facet normal -0.510448 -0.859909 0
    outer loop
      vertex 57.1372 151.405 0
      vertex 57.1372 151.405 10
      vertex 57.0715 151.444 10
    endloop
  endfacet
  facet normal -0.714803 -0.699326 0
    outer loop
      vertex 58.4883 150.024 0
      vertex 57.1372 151.405 10
      vertex 57.1372 151.405 0
    endloop
  endfacet
  facet normal -0.714803 -0.699326 0
    outer loop
      vertex 58.4883 150.024 0
      vertex 58.4883 150.024 10
      vertex 57.1372 151.405 10
    endloop
  endfacet
  facet normal -0.425725 -0.904853 0
    outer loop
      vertex 59.0898 149.741 0
      vertex 58.4883 150.024 10
      vertex 58.4883 150.024 0
    endloop
  endfacet
  facet normal -0.425725 -0.904853 0
    outer loop
      vertex 59.0898 149.741 0
      vertex 59.0898 149.741 10
      vertex 58.4883 150.024 10
    endloop
  endfacet
  facet normal 0.53124 -0.847221 0
    outer loop
      vertex 60.0403 150.337 0
      vertex 59.0898 149.741 10
      vertex 59.0898 149.741 0
    endloop
  endfacet
  facet normal 0.53124 -0.847221 0
    outer loop
      vertex 60.0403 150.337 0
      vertex 60.0403 150.337 10
      vertex 59.0898 149.741 10
    endloop
  endfacet
endsolid OpenSCAD_Model
