solid OpenSCAD_Model
  facet normal 0 -0 -1
    outer loop
      vertex -30.0892 61.5636 0
      vertex -27.7496 57.0822 0
      vertex -31.9089 60.3994 0
    endloop
  endfacet
  facet normal 0 0 -1
    outer loop
      vertex -32.6531 49.8449 0
      vertex -36.2052 51.5208 0
      vertex -32.6247 49.8966 0
    endloop
  endfacet
  facet normal -0 0 -1
    outer loop
      vertex -20.9287 62.7197 0
      vertex -21.0022 62.6954 0
      vertex -19.7498 63.9833 0
    endloop
  endfacet
  facet normal 0 0 -1
    outer loop
      vertex -35.88 52.7232 0
      vertex -31.7386 50.9483 0
      vertex -32.6247 49.8966 0
    endloop
  endfacet
  facet normal -0 0 -1
    outer loop
      vertex -30.9423 54.3414 0
      vertex -31.0165 54.2421 0
      vertex -33.0159 56.612 0
    endloop
  endfacet
  facet normal 0 -0 -1
    outer loop
      vertex -29.1479 63.9157 0
      vertex -26.8518 59.9907 0
      vertex -30.0301 61.6358 0
    endloop
  endfacet
  facet normal 0 0 -1
    outer loop
      vertex -29.1479 63.9157 0
      vertex -28.6896 64.5115 0
      vertex -25.4673 62.0315 0
    endloop
  endfacet
  facet normal 0 0 -1
    outer loop
      vertex -28.6896 64.5115 0
      vertex -25.6241 65.4972 0
      vertex -25.3551 62.2058 0
    endloop
  endfacet
  facet normal 0 -0 -1
    outer loop
      vertex -32.7341 58.3607 0
      vertex -28.9988 56.1868 0
      vertex -32.9715 56.6988 0
    endloop
  endfacet
  facet normal 0 0 -1
    outer loop
      vertex -30.0301 61.6358 0
      vertex -26.8518 59.9907 0
      vertex -26.9442 59.8913 0
    endloop
  endfacet
  facet normal 0 -0 -1
    outer loop
      vertex -30.0301 61.6358 0
      vertex -26.9442 59.8913 0
      vertex -30.0892 61.5636 0
    endloop
  endfacet
  facet normal 0 0 -1
    outer loop
      vertex -15.9947 69.0738 0
      vertex -21.3001 71.0848 0
      vertex -21.3279 71.1772 0
    endloop
  endfacet
  facet normal 0 0 -1
    outer loop
      vertex -9.64644 83.4124 0
      vertex -9.58679 83.4137 0
      vertex -8.40347 74.4562 0
    endloop
  endfacet
  facet normal 0 0 -1
    outer loop
      vertex -22.5522 68.2572 0
      vertex -22.5434 68.2695 0
      vertex -19.39 66.6734 0
    endloop
  endfacet
  facet normal 0 -0 -1
    outer loop
      vertex -25.4673 62.0315 0
      vertex -25.3587 61.4704 0
      vertex -26.1391 60.2533 0
    endloop
  endfacet
  facet normal 0 0 -1
    outer loop
      vertex -26.8518 59.9907 0
      vertex -25.4673 62.0315 0
      vertex -26.1391 60.2533 0
    endloop
  endfacet
  facet normal 0 -0 -1
    outer loop
      vertex -21.6533 73.5731 0
      vertex -21.3279 71.1772 0
      vertex -21.796 71.8325 0
    endloop
  endfacet
  facet normal 0 0 -1
    outer loop
      vertex -21.0022 62.6954 0
      vertex -21.8626 62.1314 0
      vertex -22.7526 62.1592 0
    endloop
  endfacet
  facet normal 0 -0 -1
    outer loop
      vertex -19.7498 63.9833 0
      vertex -19.6965 62.7912 0
      vertex -20.9287 62.7197 0
    endloop
  endfacet
  facet normal 0 0 -1
    outer loop
      vertex -21.3301 70.2148 0
      vertex -21.3001 71.0848 0
      vertex -15.9947 69.0738 0
    endloop
  endfacet
  facet normal 0 0 -1
    outer loop
      vertex -23.8611 62.5418 0
      vertex -21.0022 62.6954 0
      vertex -22.7526 62.1592 0
    endloop
  endfacet
  facet normal 0 0 -1
    outer loop
      vertex -23.1821 67.4572 0
      vertex -22.5522 68.2572 0
      vertex -19.39 66.6734 0
    endloop
  endfacet
  facet normal 0 -0 -1
    outer loop
      vertex -8.66994 73.0259 0
      vertex -8.60791 72.9085 0
      vertex -8.88901 72.4372 0
    endloop
  endfacet
  facet normal -0 0 -1
    outer loop
      vertex -19.6 64.14 0
      vertex -19.7498 63.9833 0
      vertex -19.39 66.6734 0
    endloop
  endfacet
  facet normal 0 0 -1
    outer loop
      vertex -4.23378 81.9753 0
      vertex -6.3176 83.3202 0
      vertex -4.25336 82.1041 0
    endloop
  endfacet
  facet normal 0 0 -1
    outer loop
      vertex -19.39 66.6734 0
      vertex -22.5434 68.2695 0
      vertex -19.3247 66.7938 0
    endloop
  endfacet
  facet normal 0 0 -1
    outer loop
      vertex -14.4227 69.6283 0
      vertex -14.5316 69.552 0
      vertex -15.8958 69.0993 0
    endloop
  endfacet
  facet normal 0 0 -1
    outer loop
      vertex -19.6 64.14 0
      vertex -19.39 66.6734 0
      vertex -19.4467 64.14 0
    endloop
  endfacet
  facet normal 0 -0 -1
    outer loop
      vertex -6.67804 84.0138 0
      vertex -6.45015 83.4165 0
      vertex -7.46632 83.5693 0
    endloop
  endfacet
  facet normal 0 0 -1
    outer loop
      vertex -15.9947 69.0738 0
      vertex -20.6411 75.2733 0
      vertex -15.8958 69.0993 0
    endloop
  endfacet
  facet normal 0 -0 -1
    outer loop
      vertex -15.2091 80.2667 0
      vertex -8.65605 74.2361 0
      vertex -15.2694 80.2077 0
    endloop
  endfacet
  facet normal 0 0 -1
    outer loop
      vertex -15.8958 69.0993 0
      vertex -14.5316 69.552 0
      vertex -14.8342 68.9986 0
    endloop
  endfacet
  facet normal -0 0 -1
    outer loop
      vertex -8.66994 73.0259 0
      vertex -8.92998 72.4227 0
      vertex -8.69994 74.1259 0
    endloop
  endfacet
  facet normal -0 0 -1
    outer loop
      vertex -8.65605 74.2361 0
      vertex -8.69994 74.1259 0
      vertex -15.2694 80.2077 0
    endloop
  endfacet
  facet normal 0 0 -1
    outer loop
      vertex -14.4227 69.6283 0
      vertex -11.1562 71.2349 0
      vertex -12.1897 69.9696 0
    endloop
  endfacet
  facet normal -0 0 -1
    outer loop
      vertex -8.92998 72.4227 0
      vertex -11.11 71.2727 0
      vertex -8.69994 74.1259 0
    endloop
  endfacet
  facet normal -0 0 -1
    outer loop
      vertex -8.88901 72.4372 0
      vertex -8.92998 72.4227 0
      vertex -8.66994 73.0259 0
    endloop
  endfacet
  facet normal -0 -0 -1
    outer loop
      vertex -4.23378 81.9753 0
      vertex -4.12802 81.3858 0
      vertex -6.3176 83.3202 0
    endloop
  endfacet
  facet normal 0 0 -1
    outer loop
      vertex -8.60791 72.9085 0
      vertex -8.23143 72.6361 0
      vertex -8.26025 72.5611 0
    endloop
  endfacet
  facet normal 0 0 -1
    outer loop
      vertex -3.32478 77.0827 0
      vertex -2.86018 76.1216 0
      vertex -2.90967 76 0
    endloop
  endfacet
  facet normal 0 0 -1
    outer loop
      vertex -8.88901 72.4372 0
      vertex -8.60791 72.9085 0
      vertex -8.26025 72.5611 0
    endloop
  endfacet
  facet normal 0 0 -1
    outer loop
      vertex -6.3176 83.3202 0
      vertex -7.5789 83.5551 0
      vertex -7.46632 83.5693 0
    endloop
  endfacet
  facet normal -0 0 -1
    outer loop
      vertex -8.40347 74.4562 0
      vertex -8.47606 74.4161 0
      vertex -15.2091 80.2667 0
    endloop
  endfacet
  facet normal 0 -0 -1
    outer loop
      vertex -10.3164 83.5323 0
      vertex -9.64644 83.4124 0
      vertex -15.2091 80.2667 0
    endloop
  endfacet
  facet normal 0 0 -1
    outer loop
      vertex -4.23378 81.9753 0
      vertex -4.11514 81.4751 0
      vertex -4.12802 81.3858 0
    endloop
  endfacet
  facet normal 0 0 -1
    outer loop
      vertex -7.5789 83.5551 0
      vertex -6.3176 83.3202 0
      vertex -3.78183 79.2691 0
    endloop
  endfacet
  facet normal -0 0 -1
    outer loop
      vertex -3.87117 78.5593 0
      vertex -6.36369 75.4699 0
      vertex -3.8783 78.6325 0
    endloop
  endfacet
  facet normal 0 0 -1
    outer loop
      vertex -8.40347 74.4562 0
      vertex -6.4911 75.3928 0
      vertex -6.80862 74.8213 0
    endloop
  endfacet
  facet normal 0 -0 -1
    outer loop
      vertex -3.36116 77.1393 0
      vertex -3.32478 77.0827 0
      vertex -6.36369 75.4699 0
    endloop
  endfacet
  facet normal 0 0 -1
    outer loop
      vertex -6.36369 75.4699 0
      vertex -2.90967 76 0
      vertex -2.88007 75.5561 0
    endloop
  endfacet
  facet normal 0 0 -1
    outer loop
      vertex -3.32478 77.0827 0
      vertex -2.58943 76.3646 0
      vertex -2.86018 76.1216 0
    endloop
  endfacet
  facet normal 0 0 -1
    outer loop
      vertex -6.36369 75.4699 0
      vertex -3.32478 77.0827 0
      vertex -2.90967 76 0
    endloop
  endfacet
  facet normal 0 -0 -1
    outer loop
      vertex -3.87117 78.5593 0
      vertex -3.36116 77.1393 0
      vertex -6.36369 75.4699 0
    endloop
  endfacet
  facet normal 0 0 -1
    outer loop
      vertex -6.3176 83.3202 0
      vertex -4.12802 81.3858 0
      vertex -3.78183 79.2691 0
    endloop
  endfacet
  facet normal 0 0 -1
    outer loop
      vertex -6.3176 83.3202 0
      vertex -4.9957 83.2531 0
      vertex -4.25336 82.1041 0
    endloop
  endfacet
  facet normal -0 0 -1
    outer loop
      vertex -3.78183 79.2691 0
      vertex -3.8783 78.6325 0
      vertex -7.5789 83.5551 0
    endloop
  endfacet
  facet normal 0 0 -1
    outer loop
      vertex -4.11514 81.4751 0
      vertex -4.23378 81.9753 0
      vertex -4.02278 81.6669 0
    endloop
  endfacet
  facet normal 0 0 -1
    outer loop
      vertex -7.46632 83.5693 0
      vertex -6.45015 83.4165 0
      vertex -6.3176 83.3202 0
    endloop
  endfacet
  facet normal 0 0 -1
    outer loop
      vertex -7.5789 83.5551 0
      vertex -3.8783 78.6325 0
      vertex -6.36369 75.4699 0
    endloop
  endfacet
  facet normal 0 0 -1
    outer loop
      vertex -4.25336 82.1041 0
      vertex -4.9957 83.2531 0
      vertex -4.15976 82.4083 0
    endloop
  endfacet
  facet normal 0 0 -1
    outer loop
      vertex -9.58679 83.4137 0
      vertex -7.5789 83.5551 0
      vertex -6.36369 75.4699 0
    endloop
  endfacet
  facet normal 0 -0 -1
    outer loop
      vertex -8.21301 83.7255 0
      vertex -7.5789 83.5551 0
      vertex -9.58679 83.4137 0
    endloop
  endfacet
  facet normal 0 0 -1
    outer loop
      vertex -9.58679 83.4137 0
      vertex -6.36369 75.4699 0
      vertex -6.4911 75.3928 0
    endloop
  endfacet
  facet normal 0 0 -1
    outer loop
      vertex -8.40347 74.4562 0
      vertex -9.58679 83.4137 0
      vertex -6.4911 75.3928 0
    endloop
  endfacet
  facet normal 0 0 -1
    outer loop
      vertex -15.2091 80.2667 0
      vertex -9.64644 83.4124 0
      vertex -8.40347 74.4562 0
    endloop
  endfacet
  facet normal 0 -0 -1
    outer loop
      vertex -10.3845 83.5635 0
      vertex -10.3164 83.5323 0
      vertex -13.9891 82.4467 0
    endloop
  endfacet
  facet normal 0 -0 -1
    outer loop
      vertex -13.9783 82.4709 0
      vertex -10.3845 83.5635 0
      vertex -13.9891 82.4467 0
    endloop
  endfacet
  facet normal 0 0 -1
    outer loop
      vertex -13.9783 82.4709 0
      vertex -11.7645 84.6835 0
      vertex -10.3845 83.5635 0
    endloop
  endfacet
  facet normal 0 0 -1
    outer loop
      vertex -13.9783 82.4709 0
      vertex -13.0557 85.1317 0
      vertex -11.7645 84.6835 0
    endloop
  endfacet
  facet normal 0 -0 -1
    outer loop
      vertex -13.9891 82.4467 0
      vertex -10.3164 83.5323 0
      vertex -15.2091 80.2667 0
    endloop
  endfacet
  facet normal 0 0 -1
    outer loop
      vertex -15.2091 80.2667 0
      vertex -8.47606 74.4161 0
      vertex -8.65605 74.2361 0
    endloop
  endfacet
  facet normal 0 0 -1
    outer loop
      vertex -13.0557 85.1317 0
      vertex -11.8018 84.7284 0
      vertex -11.7645 84.6835 0
    endloop
  endfacet
  facet normal 0 0 -1
    outer loop
      vertex -13.0557 85.1317 0
      vertex -11.9918 85.0784 0
      vertex -11.8018 84.7284 0
    endloop
  endfacet
  facet normal 0 0 -1
    outer loop
      vertex -15.2694 80.2077 0
      vertex -8.69994 74.1259 0
      vertex -11.11 71.2727 0
    endloop
  endfacet
  facet normal 0 0 -1
    outer loop
      vertex -11.9918 85.0784 0
      vertex -13.0557 85.1317 0
      vertex -12.0036 85.1934 0
    endloop
  endfacet
  facet normal 0 0 -1
    outer loop
      vertex -11.1562 71.2349 0
      vertex -15.2694 80.2077 0
      vertex -11.11 71.2727 0
    endloop
  endfacet
  facet normal 0 0 -1
    outer loop
      vertex -11.9478 85.3779 0
      vertex -12.0036 85.1934 0
      vertex -13.0557 85.1317 0
    endloop
  endfacet
  facet normal 0 0 -1
    outer loop
      vertex -11.1562 71.2349 0
      vertex -18.8263 78.31 0
      vertex -15.2694 80.2077 0
    endloop
  endfacet
  facet normal 0 -0 -1
    outer loop
      vertex -20.6222 75.3246 0
      vertex -14.4227 69.6283 0
      vertex -20.6411 75.2733 0
    endloop
  endfacet
  facet normal -0 0 -1
    outer loop
      vertex -11.1562 71.2349 0
      vertex -14.4227 69.6283 0
      vertex -18.8263 78.31 0
    endloop
  endfacet
  facet normal 0 0 -1
    outer loop
      vertex -18.8263 78.31 0
      vertex -20.6222 75.3246 0
      vertex -20.4095 76.5616 0
    endloop
  endfacet
  facet normal 0 -0 -1
    outer loop
      vertex -18.8263 78.31 0
      vertex -14.4227 69.6283 0
      vertex -20.6222 75.3246 0
    endloop
  endfacet
  facet normal -0 0 -1
    outer loop
      vertex -14.4227 69.6283 0
      vertex -15.8958 69.0993 0
      vertex -20.6411 75.2733 0
    endloop
  endfacet
  facet normal 0 0 -1
    outer loop
      vertex -23.2059 67.4332 0
      vertex -19.39 66.6734 0
      vertex -19.7498 63.9833 0
    endloop
  endfacet
  facet normal 0 0 -1
    outer loop
      vertex -20.6411 75.2733 0
      vertex -21.3279 71.1772 0
      vertex -21.6533 73.5731 0
    endloop
  endfacet
  facet normal 0 0 -1
    outer loop
      vertex -25.5759 65.5232 0
      vertex -23.8611 62.5418 0
      vertex -23.9451 62.5458 0
    endloop
  endfacet
  facet normal 0 0 -1
    outer loop
      vertex -25.6241 65.4972 0
      vertex -25.5759 65.5232 0
      vertex -23.9451 62.5458 0
    endloop
  endfacet
  facet normal 0 0 -1
    outer loop
      vertex -19.3247 66.7938 0
      vertex -21.3301 70.2148 0
      vertex -15.9947 69.0738 0
    endloop
  endfacet
  facet normal 0 0 -1
    outer loop
      vertex -15.9947 69.0738 0
      vertex -21.3279 71.1772 0
      vertex -20.6411 75.2733 0
    endloop
  endfacet
  facet normal -0 0 -1
    outer loop
      vertex -19.7498 63.9833 0
      vertex -21.0022 62.6954 0
      vertex -23.2059 67.4332 0
    endloop
  endfacet
  facet normal 0 0 -1
    outer loop
      vertex -19.3247 66.7938 0
      vertex -21.3534 70.1395 0
      vertex -21.3301 70.2148 0
    endloop
  endfacet
  facet normal 0 -0 -1
    outer loop
      vertex -23.1821 67.4572 0
      vertex -19.39 66.6734 0
      vertex -23.2059 67.4332 0
    endloop
  endfacet
  facet normal 0 0 -1
    outer loop
      vertex -22.5434 68.2695 0
      vertex -21.3534 70.1395 0
      vertex -19.3247 66.7938 0
    endloop
  endfacet
  facet normal 0 0 -1
    outer loop
      vertex -23.8611 62.5418 0
      vertex -23.2059 67.4332 0
      vertex -21.0022 62.6954 0
    endloop
  endfacet
  facet normal 0 0 -1
    outer loop
      vertex -23.8611 62.5418 0
      vertex -25.5759 65.5232 0
      vertex -23.2059 67.4332 0
    endloop
  endfacet
  facet normal 0 0 -1
    outer loop
      vertex -25.3551 62.2058 0
      vertex -25.6241 65.4972 0
      vertex -23.9451 62.5458 0
    endloop
  endfacet
  facet normal 0 0 -1
    outer loop
      vertex -26.8518 59.9907 0
      vertex -29.1479 63.9157 0
      vertex -25.4673 62.0315 0
    endloop
  endfacet
  facet normal 0 0 -1
    outer loop
      vertex -25.4673 62.0315 0
      vertex -28.6896 64.5115 0
      vertex -25.3551 62.2058 0
    endloop
  endfacet
  facet normal 0 0 -1
    outer loop
      vertex -30.0892 61.5636 0
      vertex -26.9442 59.8913 0
      vertex -27.7496 57.0822 0
    endloop
  endfacet
  facet normal 0 0 -1
    outer loop
      vertex -31.9089 60.3994 0
      vertex -27.7496 57.0822 0
      vertex -28.9563 56.2326 0
    endloop
  endfacet
  facet normal 0 0 -1
    outer loop
      vertex -28.9988 56.1868 0
      vertex -32.7341 58.3607 0
      vertex -28.9563 56.2326 0
    endloop
  endfacet
  facet normal 0 0 -1
    outer loop
      vertex -32.7341 58.3607 0
      vertex -31.9089 60.3994 0
      vertex -28.9563 56.2326 0
    endloop
  endfacet
  facet normal 0 0 -1
    outer loop
      vertex -29.688 55.0318 0
      vertex -32.9715 56.6988 0
      vertex -28.9988 56.1868 0
    endloop
  endfacet
  facet normal -0 0 -1
    outer loop
      vertex -29.688 55.0318 0
      vertex -30.9423 54.3414 0
      vertex -32.9715 56.6988 0
    endloop
  endfacet
  facet normal 0 -0 -1
    outer loop
      vertex -32.9715 56.6988 0
      vertex -30.9423 54.3414 0
      vertex -33.0159 56.612 0
    endloop
  endfacet
  facet normal -0 0 -1
    outer loop
      vertex -31.0165 54.2421 0
      vertex -31.7386 50.9483 0
      vertex -34.9588 54.3873 0
    endloop
  endfacet
  facet normal 0 0 -1
    outer loop
      vertex -31.0165 54.2421 0
      vertex -34.9588 54.3873 0
      vertex -33.0159 56.612 0
    endloop
  endfacet
  facet normal 0 -0 -1
    outer loop
      vertex -35.88 52.7232 0
      vertex -32.6247 49.8966 0
      vertex -36.2052 51.5208 0
    endloop
  endfacet
  facet normal 0 0 -1
    outer loop
      vertex -34.9588 54.3873 0
      vertex -35.0009 54.5806 0
      vertex -33.0159 56.612 0
    endloop
  endfacet
  facet normal 0 0 -1
    outer loop
      vertex -35.0009 54.5806 0
      vertex -35.1225 54.5816 0
      vertex -33.0159 56.612 0
    endloop
  endfacet
  facet normal 0 0 -1
    outer loop
      vertex -35.88 52.7232 0
      vertex -34.9588 54.3873 0
      vertex -31.7386 50.9483 0
    endloop
  endfacet
  facet normal 0 -0 -1
    outer loop
      vertex -36.2052 51.5208 0
      vertex -32.6531 49.8449 0
      vertex -36.2309 51.4689 0
    endloop
  endfacet
  facet normal 0 0 -1
    outer loop
      vertex -37.4769 49.8402 0
      vertex -36.2309 51.4689 0
      vertex -32.8914 49.0859 0
    endloop
  endfacet
  facet normal 0 0 -1
    outer loop
      vertex -36.2309 51.4689 0
      vertex -32.6531 49.8449 0
      vertex -32.8914 49.0859 0
    endloop
  endfacet
  facet normal 0 0 -1
    outer loop
      vertex -37.6068 48.9067 0
      vertex -37.4769 49.8402 0
      vertex -32.8914 49.0859 0
    endloop
  endfacet
  facet normal -0 0 1
    outer loop
      vertex -31.9089 60.3994 10
      vertex -27.7496 57.0822 10
      vertex -30.0892 61.5636 10
    endloop
  endfacet
  facet normal 0 0 1
    outer loop
      vertex -32.6247 49.8966 10
      vertex -36.2052 51.5208 10
      vertex -32.6531 49.8449 10
    endloop
  endfacet
  facet normal 0 0 1
    outer loop
      vertex -19.7498 63.9833 10
      vertex -21.0022 62.6954 10
      vertex -20.9287 62.7197 10
    endloop
  endfacet
  facet normal 0 -0 1
    outer loop
      vertex -32.6247 49.8966 10
      vertex -31.7386 50.9483 10
      vertex -35.88 52.7232 10
    endloop
  endfacet
  facet normal 0 0 1
    outer loop
      vertex -33.0159 56.612 10
      vertex -31.0165 54.2421 10
      vertex -30.9423 54.3414 10
    endloop
  endfacet
  facet normal -0 0 1
    outer loop
      vertex -30.0301 61.6358 10
      vertex -26.8518 59.9907 10
      vertex -29.1479 63.9157 10
    endloop
  endfacet
  facet normal 0 0 1
    outer loop
      vertex -25.4673 62.0315 10
      vertex -28.6896 64.5115 10
      vertex -29.1479 63.9157 10
    endloop
  endfacet
  facet normal 0 0 1
    outer loop
      vertex -25.3551 62.2058 10
      vertex -25.6241 65.4972 10
      vertex -28.6896 64.5115 10
    endloop
  endfacet
  facet normal -0 0 1
    outer loop
      vertex -32.9715 56.6988 10
      vertex -28.9988 56.1868 10
      vertex -32.7341 58.3607 10
    endloop
  endfacet
  facet normal 0 -0 1
    outer loop
      vertex -26.9442 59.8913 10
      vertex -26.8518 59.9907 10
      vertex -30.0301 61.6358 10
    endloop
  endfacet
  facet normal -0 0 1
    outer loop
      vertex -30.0892 61.5636 10
      vertex -26.9442 59.8913 10
      vertex -30.0301 61.6358 10
    endloop
  endfacet
  facet normal 0 0 1
    outer loop
      vertex -21.3279 71.1772 10
      vertex -21.3001 71.0848 10
      vertex -15.9947 69.0738 10
    endloop
  endfacet
  facet normal 0 0 1
    outer loop
      vertex -8.40347 74.4562 10
      vertex -9.58679 83.4137 10
      vertex -9.64644 83.4124 10
    endloop
  endfacet
  facet normal 0 0 1
    outer loop
      vertex -19.39 66.6734 10
      vertex -22.5434 68.2695 10
      vertex -22.5522 68.2572 10
    endloop
  endfacet
  facet normal 0 0 1
    outer loop
      vertex -26.1391 60.2533 10
      vertex -25.3587 61.4704 10
      vertex -25.4673 62.0315 10
    endloop
  endfacet
  facet normal 0 -0 1
    outer loop
      vertex -26.1391 60.2533 10
      vertex -25.4673 62.0315 10
      vertex -26.8518 59.9907 10
    endloop
  endfacet
  facet normal -0 0 1
    outer loop
      vertex -21.796 71.8325 10
      vertex -21.3279 71.1772 10
      vertex -21.6533 73.5731 10
    endloop
  endfacet
  facet normal -0 0 1
    outer loop
      vertex -22.7526 62.1592 10
      vertex -21.8626 62.1314 10
      vertex -21.0022 62.6954 10
    endloop
  endfacet
  facet normal 0 0 1
    outer loop
      vertex -20.9287 62.7197 10
      vertex -19.6965 62.7912 10
      vertex -19.7498 63.9833 10
    endloop
  endfacet
  facet normal 0 0 1
    outer loop
      vertex -15.9947 69.0738 10
      vertex -21.3001 71.0848 10
      vertex -21.3301 70.2148 10
    endloop
  endfacet
  facet normal 0 -0 1
    outer loop
      vertex -22.7526 62.1592 10
      vertex -21.0022 62.6954 10
      vertex -23.8611 62.5418 10
    endloop
  endfacet
  facet normal 0 0 1
    outer loop
      vertex -19.39 66.6734 10
      vertex -22.5522 68.2572 10
      vertex -23.1821 67.4572 10
    endloop
  endfacet
  facet normal 0 0 1
    outer loop
      vertex -8.88901 72.4372 10
      vertex -8.60791 72.9085 10
      vertex -8.66994 73.0259 10
    endloop
  endfacet
  facet normal 0 0 1
    outer loop
      vertex -19.39 66.6734 10
      vertex -19.7498 63.9833 10
      vertex -19.6 64.14 10
    endloop
  endfacet
  facet normal 0 0 1
    outer loop
      vertex -4.25336 82.1041 10
      vertex -6.3176 83.3202 10
      vertex -4.23378 81.9753 10
    endloop
  endfacet
  facet normal 0 0 1
    outer loop
      vertex -19.3247 66.7938 10
      vertex -22.5434 68.2695 10
      vertex -19.39 66.6734 10
    endloop
  endfacet
  facet normal 0 0 1
    outer loop
      vertex -15.8958 69.0993 10
      vertex -14.5316 69.552 10
      vertex -14.4227 69.6283 10
    endloop
  endfacet
  facet normal 0 -0 1
    outer loop
      vertex -19.4467 64.14 10
      vertex -19.39 66.6734 10
      vertex -19.6 64.14 10
    endloop
  endfacet
  facet normal -0 0 1
    outer loop
      vertex -7.46632 83.5693 10
      vertex -6.45015 83.4165 10
      vertex -6.67804 84.0138 10
    endloop
  endfacet
  facet normal 0 0 1
    outer loop
      vertex -15.8958 69.0993 10
      vertex -20.6411 75.2733 10
      vertex -15.9947 69.0738 10
    endloop
  endfacet
  facet normal -0 0 1
    outer loop
      vertex -15.2694 80.2077 10
      vertex -8.65605 74.2361 10
      vertex -15.2091 80.2667 10
    endloop
  endfacet
  facet normal 0 -0 1
    outer loop
      vertex -14.8342 68.9986 10
      vertex -14.5316 69.552 10
      vertex -15.8958 69.0993 10
    endloop
  endfacet
  facet normal 0 0 1
    outer loop
      vertex -8.69994 74.1259 10
      vertex -8.92998 72.4227 10
      vertex -8.66994 73.0259 10
    endloop
  endfacet
  facet normal 0 0 1
    outer loop
      vertex -15.2694 80.2077 10
      vertex -8.69994 74.1259 10
      vertex -8.65605 74.2361 10
    endloop
  endfacet
  facet normal 0 -0 1
    outer loop
      vertex -12.1897 69.9696 10
      vertex -11.1562 71.2349 10
      vertex -14.4227 69.6283 10
    endloop
  endfacet
  facet normal 0 0 1
    outer loop
      vertex -8.69994 74.1259 10
      vertex -11.11 71.2727 10
      vertex -8.92998 72.4227 10
    endloop
  endfacet
  facet normal 0 0 1
    outer loop
      vertex -8.66994 73.0259 10
      vertex -8.92998 72.4227 10
      vertex -8.88901 72.4372 10
    endloop
  endfacet
  facet normal 0 0 1
    outer loop
      vertex -6.3176 83.3202 10
      vertex -4.12802 81.3858 10
      vertex -4.23378 81.9753 10
    endloop
  endfacet
  facet normal 0 -0 1
    outer loop
      vertex -8.26025 72.5611 10
      vertex -8.23143 72.6361 10
      vertex -8.60791 72.9085 10
    endloop
  endfacet
  facet normal 0 -0 1
    outer loop
      vertex -2.90967 76 10
      vertex -2.86018 76.1216 10
      vertex -3.32478 77.0827 10
    endloop
  endfacet
  facet normal 0 0 1
    outer loop
      vertex -8.26025 72.5611 10
      vertex -8.60791 72.9085 10
      vertex -8.88901 72.4372 10
    endloop
  endfacet
  facet normal 0 0 1
    outer loop
      vertex -7.46632 83.5693 10
      vertex -7.5789 83.5551 10
      vertex -6.3176 83.3202 10
    endloop
  endfacet
  facet normal 0 0 1
    outer loop
      vertex -15.2091 80.2667 10
      vertex -8.47606 74.4161 10
      vertex -8.40347 74.4562 10
    endloop
  endfacet
  facet normal 0 0 1
    outer loop
      vertex -15.2091 80.2667 10
      vertex -9.64644 83.4124 10
      vertex -10.3164 83.5323 10
    endloop
  endfacet
  facet normal 0 -0 1
    outer loop
      vertex -4.12802 81.3858 10
      vertex -4.11514 81.4751 10
      vertex -4.23378 81.9753 10
    endloop
  endfacet
  facet normal 0 0 1
    outer loop
      vertex -3.78183 79.2691 10
      vertex -6.3176 83.3202 10
      vertex -7.5789 83.5551 10
    endloop
  endfacet
  facet normal 0 0 1
    outer loop
      vertex -3.8783 78.6325 10
      vertex -6.36369 75.4699 10
      vertex -3.87117 78.5593 10
    endloop
  endfacet
  facet normal 0 -0 1
    outer loop
      vertex -6.80862 74.8213 10
      vertex -6.4911 75.3928 10
      vertex -8.40347 74.4562 10
    endloop
  endfacet
  facet normal 0 0 1
    outer loop
      vertex -6.36369 75.4699 10
      vertex -3.32478 77.0827 10
      vertex -3.36116 77.1393 10
    endloop
  endfacet
  facet normal 0 0 1
    outer loop
      vertex -2.88007 75.5561 10
      vertex -2.90967 76 10
      vertex -6.36369 75.4699 10
    endloop
  endfacet
  facet normal 0 -0 1
    outer loop
      vertex -2.86018 76.1216 10
      vertex -2.58943 76.3646 10
      vertex -3.32478 77.0827 10
    endloop
  endfacet
  facet normal 0 0 1
    outer loop
      vertex -2.90967 76 10
      vertex -3.32478 77.0827 10
      vertex -6.36369 75.4699 10
    endloop
  endfacet
  facet normal 0 0 1
    outer loop
      vertex -6.36369 75.4699 10
      vertex -3.36116 77.1393 10
      vertex -3.87117 78.5593 10
    endloop
  endfacet
  facet normal 0 0 1
    outer loop
      vertex -3.78183 79.2691 10
      vertex -4.12802 81.3858 10
      vertex -6.3176 83.3202 10
    endloop
  endfacet
  facet normal 0 0 1
    outer loop
      vertex -4.25336 82.1041 10
      vertex -4.9957 83.2531 10
      vertex -6.3176 83.3202 10
    endloop
  endfacet
  facet normal 0 0 1
    outer loop
      vertex -7.5789 83.5551 10
      vertex -3.8783 78.6325 10
      vertex -3.78183 79.2691 10
    endloop
  endfacet
  facet normal 0 0 1
    outer loop
      vertex -4.02278 81.6669 10
      vertex -4.23378 81.9753 10
      vertex -4.11514 81.4751 10
    endloop
  endfacet
  facet normal 0 0 1
    outer loop
      vertex -6.3176 83.3202 10
      vertex -6.45015 83.4165 10
      vertex -7.46632 83.5693 10
    endloop
  endfacet
  facet normal 0 -0 1
    outer loop
      vertex -6.36369 75.4699 10
      vertex -3.8783 78.6325 10
      vertex -7.5789 83.5551 10
    endloop
  endfacet
  facet normal 0 0 1
    outer loop
      vertex -4.15976 82.4083 10
      vertex -4.9957 83.2531 10
      vertex -4.25336 82.1041 10
    endloop
  endfacet
  facet normal 0 0 1
    outer loop
      vertex -6.36369 75.4699 10
      vertex -7.5789 83.5551 10
      vertex -9.58679 83.4137 10
    endloop
  endfacet
  facet normal 0 0 1
    outer loop
      vertex -9.58679 83.4137 10
      vertex -7.5789 83.5551 10
      vertex -8.21301 83.7255 10
    endloop
  endfacet
  facet normal 0 -0 1
    outer loop
      vertex -6.4911 75.3928 10
      vertex -6.36369 75.4699 10
      vertex -9.58679 83.4137 10
    endloop
  endfacet
  facet normal 0 0 1
    outer loop
      vertex -6.4911 75.3928 10
      vertex -9.58679 83.4137 10
      vertex -8.40347 74.4562 10
    endloop
  endfacet
  facet normal 0 0 1
    outer loop
      vertex -8.40347 74.4562 10
      vertex -9.64644 83.4124 10
      vertex -15.2091 80.2667 10
    endloop
  endfacet
  facet normal 0 0 1
    outer loop
      vertex -13.9891 82.4467 10
      vertex -10.3164 83.5323 10
      vertex -10.3845 83.5635 10
    endloop
  endfacet
  facet normal 0 0 1
    outer loop
      vertex -13.9891 82.4467 10
      vertex -10.3845 83.5635 10
      vertex -13.9783 82.4709 10
    endloop
  endfacet
  facet normal 0 0 1
    outer loop
      vertex -10.3845 83.5635 10
      vertex -11.7645 84.6835 10
      vertex -13.9783 82.4709 10
    endloop
  endfacet
  facet normal 0 0 1
    outer loop
      vertex -11.7645 84.6835 10
      vertex -13.0557 85.1317 10
      vertex -13.9783 82.4709 10
    endloop
  endfacet
  facet normal 0 0 1
    outer loop
      vertex -15.2091 80.2667 10
      vertex -10.3164 83.5323 10
      vertex -13.9891 82.4467 10
    endloop
  endfacet
  facet normal 0 -0 1
    outer loop
      vertex -8.65605 74.2361 10
      vertex -8.47606 74.4161 10
      vertex -15.2091 80.2667 10
    endloop
  endfacet
  facet normal 0 0 1
    outer loop
      vertex -11.7645 84.6835 10
      vertex -11.8018 84.7284 10
      vertex -13.0557 85.1317 10
    endloop
  endfacet
  facet normal 0 0 1
    outer loop
      vertex -11.8018 84.7284 10
      vertex -11.9918 85.0784 10
      vertex -13.0557 85.1317 10
    endloop
  endfacet
  facet normal 0 -0 1
    outer loop
      vertex -11.11 71.2727 10
      vertex -8.69994 74.1259 10
      vertex -15.2694 80.2077 10
    endloop
  endfacet
  facet normal 0 0 1
    outer loop
      vertex -12.0036 85.1934 10
      vertex -13.0557 85.1317 10
      vertex -11.9918 85.0784 10
    endloop
  endfacet
  facet normal 0 0 1
    outer loop
      vertex -11.11 71.2727 10
      vertex -15.2694 80.2077 10
      vertex -11.1562 71.2349 10
    endloop
  endfacet
  facet normal 0 0 1
    outer loop
      vertex -13.0557 85.1317 10
      vertex -12.0036 85.1934 10
      vertex -11.9478 85.3779 10
    endloop
  endfacet
  facet normal 0 0 1
    outer loop
      vertex -15.2694 80.2077 10
      vertex -18.8263 78.31 10
      vertex -11.1562 71.2349 10
    endloop
  endfacet
  facet normal -0 0 1
    outer loop
      vertex -20.6411 75.2733 10
      vertex -14.4227 69.6283 10
      vertex -20.6222 75.3246 10
    endloop
  endfacet
  facet normal 0 0 1
    outer loop
      vertex -18.8263 78.31 10
      vertex -14.4227 69.6283 10
      vertex -11.1562 71.2349 10
    endloop
  endfacet
  facet normal -0 0 1
    outer loop
      vertex -20.4095 76.5616 10
      vertex -20.6222 75.3246 10
      vertex -18.8263 78.31 10
    endloop
  endfacet
  facet normal -0 0 1
    outer loop
      vertex -20.6222 75.3246 10
      vertex -14.4227 69.6283 10
      vertex -18.8263 78.31 10
    endloop
  endfacet
  facet normal 0 0 1
    outer loop
      vertex -20.6411 75.2733 10
      vertex -15.8958 69.0993 10
      vertex -14.4227 69.6283 10
    endloop
  endfacet
  facet normal 0 -0 1
    outer loop
      vertex -19.7498 63.9833 10
      vertex -19.39 66.6734 10
      vertex -23.2059 67.4332 10
    endloop
  endfacet
  facet normal -0 0 1
    outer loop
      vertex -21.6533 73.5731 10
      vertex -21.3279 71.1772 10
      vertex -20.6411 75.2733 10
    endloop
  endfacet
  facet normal -0 -0 1
    outer loop
      vertex -23.9451 62.5458 10
      vertex -23.8611 62.5418 10
      vertex -25.5759 65.5232 10
    endloop
  endfacet
  facet normal 0 0 1
    outer loop
      vertex -23.9451 62.5458 10
      vertex -25.5759 65.5232 10
      vertex -25.6241 65.4972 10
    endloop
  endfacet
  facet normal 0 0 1
    outer loop
      vertex -15.9947 69.0738 10
      vertex -21.3301 70.2148 10
      vertex -19.3247 66.7938 10
    endloop
  endfacet
  facet normal 0 0 1
    outer loop
      vertex -20.6411 75.2733 10
      vertex -21.3279 71.1772 10
      vertex -15.9947 69.0738 10
    endloop
  endfacet
  facet normal 0 0 1
    outer loop
      vertex -23.2059 67.4332 10
      vertex -21.0022 62.6954 10
      vertex -19.7498 63.9833 10
    endloop
  endfacet
  facet normal 0 0 1
    outer loop
      vertex -21.3301 70.2148 10
      vertex -21.3534 70.1395 10
      vertex -19.3247 66.7938 10
    endloop
  endfacet
  facet normal -0 0 1
    outer loop
      vertex -23.2059 67.4332 10
      vertex -19.39 66.6734 10
      vertex -23.1821 67.4572 10
    endloop
  endfacet
  facet normal 0 0 1
    outer loop
      vertex -19.3247 66.7938 10
      vertex -21.3534 70.1395 10
      vertex -22.5434 68.2695 10
    endloop
  endfacet
  facet normal 0 0 1
    outer loop
      vertex -21.0022 62.6954 10
      vertex -23.2059 67.4332 10
      vertex -23.8611 62.5418 10
    endloop
  endfacet
  facet normal 0 0 1
    outer loop
      vertex -23.2059 67.4332 10
      vertex -25.5759 65.5232 10
      vertex -23.8611 62.5418 10
    endloop
  endfacet
  facet normal 0 0 1
    outer loop
      vertex -23.9451 62.5458 10
      vertex -25.6241 65.4972 10
      vertex -25.3551 62.2058 10
    endloop
  endfacet
  facet normal 0 0 1
    outer loop
      vertex -25.4673 62.0315 10
      vertex -29.1479 63.9157 10
      vertex -26.8518 59.9907 10
    endloop
  endfacet
  facet normal 0 0 1
    outer loop
      vertex -25.3551 62.2058 10
      vertex -28.6896 64.5115 10
      vertex -25.4673 62.0315 10
    endloop
  endfacet
  facet normal 0 -0 1
    outer loop
      vertex -27.7496 57.0822 10
      vertex -26.9442 59.8913 10
      vertex -30.0892 61.5636 10
    endloop
  endfacet
  facet normal 0 -0 1
    outer loop
      vertex -28.9563 56.2326 10
      vertex -27.7496 57.0822 10
      vertex -31.9089 60.3994 10
    endloop
  endfacet
  facet normal 0 0 1
    outer loop
      vertex -28.9563 56.2326 10
      vertex -32.7341 58.3607 10
      vertex -28.9988 56.1868 10
    endloop
  endfacet
  facet normal 0 0 1
    outer loop
      vertex -28.9563 56.2326 10
      vertex -31.9089 60.3994 10
      vertex -32.7341 58.3607 10
    endloop
  endfacet
  facet normal 0 0 1
    outer loop
      vertex -28.9988 56.1868 10
      vertex -32.9715 56.6988 10
      vertex -29.688 55.0318 10
    endloop
  endfacet
  facet normal 0 0 1
    outer loop
      vertex -32.9715 56.6988 10
      vertex -30.9423 54.3414 10
      vertex -29.688 55.0318 10
    endloop
  endfacet
  facet normal -0 0 1
    outer loop
      vertex -33.0159 56.612 10
      vertex -30.9423 54.3414 10
      vertex -32.9715 56.6988 10
    endloop
  endfacet
  facet normal 0 0 1
    outer loop
      vertex -34.9588 54.3873 10
      vertex -31.7386 50.9483 10
      vertex -31.0165 54.2421 10
    endloop
  endfacet
  facet normal 0 0 1
    outer loop
      vertex -33.0159 56.612 10
      vertex -34.9588 54.3873 10
      vertex -31.0165 54.2421 10
    endloop
  endfacet
  facet normal -0 0 1
    outer loop
      vertex -36.2052 51.5208 10
      vertex -32.6247 49.8966 10
      vertex -35.88 52.7232 10
    endloop
  endfacet
  facet normal 0 0 1
    outer loop
      vertex -33.0159 56.612 10
      vertex -35.0009 54.5806 10
      vertex -34.9588 54.3873 10
    endloop
  endfacet
  facet normal 0 0 1
    outer loop
      vertex -33.0159 56.612 10
      vertex -35.1225 54.5816 10
      vertex -35.0009 54.5806 10
    endloop
  endfacet
  facet normal 0 0 1
    outer loop
      vertex -31.7386 50.9483 10
      vertex -34.9588 54.3873 10
      vertex -35.88 52.7232 10
    endloop
  endfacet
  facet normal -0 0 1
    outer loop
      vertex -36.2309 51.4689 10
      vertex -32.6531 49.8449 10
      vertex -36.2052 51.5208 10
    endloop
  endfacet
  facet normal 0 0 1
    outer loop
      vertex -32.8914 49.0859 10
      vertex -36.2309 51.4689 10
      vertex -37.4769 49.8402 10
    endloop
  endfacet
  facet normal 0 -0 1
    outer loop
      vertex -32.8914 49.0859 10
      vertex -32.6531 49.8449 10
      vertex -36.2309 51.4689 10
    endloop
  endfacet
  facet normal 0 0 1
    outer loop
      vertex -32.8914 49.0859 10
      vertex -37.4769 49.8402 10
      vertex -37.6068 48.9067 10
    endloop
  endfacet
  facet normal 0.954081 -0.299549 0
    outer loop
      vertex -32.6531 49.8449 0
      vertex -32.8914 49.0859 10
      vertex -32.8914 49.0859 0
    endloop
  endfacet
  facet normal 0.954081 -0.299549 0
    outer loop
      vertex -32.6531 49.8449 0
      vertex -32.6531 49.8449 10
      vertex -32.8914 49.0859 10
    endloop
  endfacet
  facet normal 0.876466 -0.481463 0
    outer loop
      vertex -32.6247 49.8966 0
      vertex -32.6531 49.8449 10
      vertex -32.6531 49.8449 0
    endloop
  endfacet
  facet normal 0.876466 -0.481463 0
    outer loop
      vertex -32.6247 49.8966 0
      vertex -32.6247 49.8966 10
      vertex -32.6531 49.8449 10
    endloop
  endfacet
  facet normal 0.764747 -0.644331 0
    outer loop
      vertex -31.7386 50.9483 0
      vertex -32.6247 49.8966 10
      vertex -32.6247 49.8966 0
    endloop
  endfacet
  facet normal 0.764747 -0.644331 0
    outer loop
      vertex -31.7386 50.9483 0
      vertex -31.7386 50.9483 10
      vertex -32.6247 49.8966 10
    endloop
  endfacet
  facet normal 0.976802 -0.214144 0
    outer loop
      vertex -31.0165 54.2421 0
      vertex -31.7386 50.9483 10
      vertex -31.7386 50.9483 0
    endloop
  endfacet
  facet normal 0.976802 -0.214144 0
    outer loop
      vertex -31.0165 54.2421 0
      vertex -31.0165 54.2421 10
      vertex -31.7386 50.9483 10
    endloop
  endfacet
  facet normal 0.801064 -0.598579 0
    outer loop
      vertex -30.9423 54.3414 0
      vertex -31.0165 54.2421 10
      vertex -31.0165 54.2421 0
    endloop
  endfacet
  facet normal 0.801064 -0.598579 0
    outer loop
      vertex -30.9423 54.3414 0
      vertex -30.9423 54.3414 10
      vertex -31.0165 54.2421 10
    endloop
  endfacet
  facet normal 0.482206 -0.876058 0
    outer loop
      vertex -29.688 55.0318 0
      vertex -30.9423 54.3414 10
      vertex -30.9423 54.3414 0
    endloop
  endfacet
  facet normal 0.482206 -0.876058 0
    outer loop
      vertex -29.688 55.0318 0
      vertex -29.688 55.0318 10
      vertex -30.9423 54.3414 10
    endloop
  endfacet
  facet normal 0.858737 -0.512417 0
    outer loop
      vertex -28.9988 56.1868 0
      vertex -29.688 55.0318 10
      vertex -29.688 55.0318 0
    endloop
  endfacet
  facet normal 0.858737 -0.512417 0
    outer loop
      vertex -28.9988 56.1868 0
      vertex -28.9988 56.1868 10
      vertex -29.688 55.0318 10
    endloop
  endfacet
  facet normal 0.733021 -0.680206 0
    outer loop
      vertex -28.9563 56.2326 0
      vertex -28.9988 56.1868 10
      vertex -28.9988 56.1868 0
    endloop
  endfacet
  facet normal 0.733021 -0.680206 0
    outer loop
      vertex -28.9563 56.2326 0
      vertex -28.9563 56.2326 10
      vertex -28.9988 56.1868 10
    endloop
  endfacet
  facet normal 0.575693 -0.817666 0
    outer loop
      vertex -27.7496 57.0822 0
      vertex -28.9563 56.2326 10
      vertex -28.9563 56.2326 0
    endloop
  endfacet
  facet normal 0.575693 -0.817666 0
    outer loop
      vertex -27.7496 57.0822 0
      vertex -27.7496 57.0822 10
      vertex -28.9563 56.2326 10
    endloop
  endfacet
  facet normal 0.96127 -0.275607 0
    outer loop
      vertex -26.9442 59.8913 0
      vertex -27.7496 57.0822 10
      vertex -27.7496 57.0822 0
    endloop
  endfacet
  facet normal 0.96127 -0.275607 0
    outer loop
      vertex -26.9442 59.8913 0
      vertex -26.9442 59.8913 10
      vertex -27.7496 57.0822 10
    endloop
  endfacet
  facet normal 0.732426 -0.680847 0
    outer loop
      vertex -26.8518 59.9907 0
      vertex -26.9442 59.8913 10
      vertex -26.9442 59.8913 0
    endloop
  endfacet
  facet normal 0.732426 -0.680847 0
    outer loop
      vertex -26.8518 59.9907 0
      vertex -26.8518 59.9907 10
      vertex -26.9442 59.8913 10
    endloop
  endfacet
  facet normal 0.345736 -0.938332 0
    outer loop
      vertex -26.1391 60.2533 0
      vertex -26.8518 59.9907 10
      vertex -26.8518 59.9907 0
    endloop
  endfacet
  facet normal 0.345736 -0.938332 0
    outer loop
      vertex -26.1391 60.2533 0
      vertex -26.1391 60.2533 10
      vertex -26.8518 59.9907 10
    endloop
  endfacet
  facet normal 0.841814 -0.539768 0
    outer loop
      vertex -25.3587 61.4704 0
      vertex -26.1391 60.2533 10
      vertex -26.1391 60.2533 0
    endloop
  endfacet
  facet normal 0.841814 -0.539768 0
    outer loop
      vertex -25.3587 61.4704 0
      vertex -25.3587 61.4704 10
      vertex -26.1391 60.2533 10
    endloop
  endfacet
  facet normal 0.98178 0.190022 0
    outer loop
      vertex -25.4673 62.0315 0
      vertex -25.3587 61.4704 10
      vertex -25.3587 61.4704 0
    endloop
  endfacet
  facet normal 0.98178 0.190022 -0
    outer loop
      vertex -25.4673 62.0315 0
      vertex -25.4673 62.0315 10
      vertex -25.3587 61.4704 10
    endloop
  endfacet
  facet normal 0.840849 -0.54127 0
    outer loop
      vertex -25.3551 62.2058 0
      vertex -25.4673 62.0315 10
      vertex -25.4673 62.0315 0
    endloop
  endfacet
  facet normal 0.840849 -0.54127 0
    outer loop
      vertex -25.3551 62.2058 0
      vertex -25.3551 62.2058 10
      vertex -25.4673 62.0315 10
    endloop
  endfacet
  facet normal 0.234416 -0.972136 0
    outer loop
      vertex -23.9451 62.5458 0
      vertex -25.3551 62.2058 10
      vertex -25.3551 62.2058 0
    endloop
  endfacet
  facet normal 0.234416 -0.972136 0
    outer loop
      vertex -23.9451 62.5458 0
      vertex -23.9451 62.5458 10
      vertex -25.3551 62.2058 10
    endloop
  endfacet
  facet normal -0.0475651 -0.998868 0
    outer loop
      vertex -23.8611 62.5418 0
      vertex -23.9451 62.5458 10
      vertex -23.9451 62.5458 0
    endloop
  endfacet
  facet normal -0.0475651 -0.998868 0
    outer loop
      vertex -23.8611 62.5418 0
      vertex -23.8611 62.5418 10
      vertex -23.9451 62.5458 10
    endloop
  endfacet
  facet normal -0.326264 -0.945279 0
    outer loop
      vertex -22.7526 62.1592 0
      vertex -23.8611 62.5418 10
      vertex -23.8611 62.5418 0
    endloop
  endfacet
  facet normal -0.326264 -0.945279 0
    outer loop
      vertex -22.7526 62.1592 0
      vertex -22.7526 62.1592 10
      vertex -23.8611 62.5418 10
    endloop
  endfacet
  facet normal -0.0312207 -0.999513 0
    outer loop
      vertex -21.8626 62.1314 0
      vertex -22.7526 62.1592 10
      vertex -22.7526 62.1592 0
    endloop
  endfacet
  facet normal -0.0312207 -0.999513 0
    outer loop
      vertex -21.8626 62.1314 0
      vertex -21.8626 62.1314 10
      vertex -22.7526 62.1592 10
    endloop
  endfacet
  facet normal 0.548223 -0.836332 0
    outer loop
      vertex -21.0022 62.6954 0
      vertex -21.8626 62.1314 10
      vertex -21.8626 62.1314 0
    endloop
  endfacet
  facet normal 0.548223 -0.836332 0
    outer loop
      vertex -21.0022 62.6954 0
      vertex -21.0022 62.6954 10
      vertex -21.8626 62.1314 10
    endloop
  endfacet
  facet normal 0.313902 -0.949456 0
    outer loop
      vertex -20.9287 62.7197 0
      vertex -21.0022 62.6954 10
      vertex -21.0022 62.6954 0
    endloop
  endfacet
  facet normal 0.313902 -0.949456 0
    outer loop
      vertex -20.9287 62.7197 0
      vertex -20.9287 62.7197 10
      vertex -21.0022 62.6954 10
    endloop
  endfacet
  facet normal 0.0579289 -0.998321 0
    outer loop
      vertex -19.6965 62.7912 0
      vertex -20.9287 62.7197 10
      vertex -20.9287 62.7197 0
    endloop
  endfacet
  facet normal 0.0579289 -0.998321 0
    outer loop
      vertex -19.6965 62.7912 0
      vertex -19.6965 62.7912 10
      vertex -20.9287 62.7197 10
    endloop
  endfacet
  facet normal 0.999002 0.0446664 0
    outer loop
      vertex -19.7498 63.9833 0
      vertex -19.6965 62.7912 10
      vertex -19.6965 62.7912 0
    endloop
  endfacet
  facet normal 0.999002 0.0446664 -0
    outer loop
      vertex -19.7498 63.9833 0
      vertex -19.7498 63.9833 10
      vertex -19.6965 62.7912 10
    endloop
  endfacet
  facet normal 0.722842 -0.691013 0
    outer loop
      vertex -19.6 64.14 0
      vertex -19.7498 63.9833 10
      vertex -19.7498 63.9833 0
    endloop
  endfacet
  facet normal 0.722842 -0.691013 0
    outer loop
      vertex -19.6 64.14 0
      vertex -19.6 64.14 10
      vertex -19.7498 63.9833 10
    endloop
  endfacet
  facet normal 0 -1 0
    outer loop
      vertex -19.4467 64.14 0
      vertex -19.6 64.14 10
      vertex -19.6 64.14 0
    endloop
  endfacet
  facet normal 0 -1 0
    outer loop
      vertex -19.4467 64.14 0
      vertex -19.4467 64.14 10
      vertex -19.6 64.14 10
    endloop
  endfacet
  facet normal 0.99975 -0.0223754 0
    outer loop
      vertex -19.39 66.6734 0
      vertex -19.4467 64.14 10
      vertex -19.4467 64.14 0
    endloop
  endfacet
  facet normal 0.99975 -0.0223754 0
    outer loop
      vertex -19.39 66.6734 0
      vertex -19.39 66.6734 10
      vertex -19.4467 64.14 10
    endloop
  endfacet
  facet normal 0.879037 -0.476753 0
    outer loop
      vertex -19.3247 66.7938 0
      vertex -19.39 66.6734 10
      vertex -19.39 66.6734 0
    endloop
  endfacet
  facet normal 0.879037 -0.476753 0
    outer loop
      vertex -19.3247 66.7938 0
      vertex -19.3247 66.7938 10
      vertex -19.39 66.6734 10
    endloop
  endfacet
  facet normal 0.56495 -0.825125 0
    outer loop
      vertex -15.9947 69.0738 0
      vertex -19.3247 66.7938 10
      vertex -19.3247 66.7938 0
    endloop
  endfacet
  facet normal 0.56495 -0.825125 0
    outer loop
      vertex -15.9947 69.0738 0
      vertex -15.9947 69.0738 10
      vertex -19.3247 66.7938 10
    endloop
  endfacet
  facet normal 0.249671 -0.968331 0
    outer loop
      vertex -15.8958 69.0993 0
      vertex -15.9947 69.0738 10
      vertex -15.9947 69.0738 0
    endloop
  endfacet
  facet normal 0.249671 -0.968331 0
    outer loop
      vertex -15.8958 69.0993 0
      vertex -15.8958 69.0993 10
      vertex -15.9947 69.0738 10
    endloop
  endfacet
  facet normal -0.0944329 -0.995531 0
    outer loop
      vertex -14.8342 68.9986 0
      vertex -15.8958 69.0993 10
      vertex -15.8958 69.0993 0
    endloop
  endfacet
  facet normal -0.0944329 -0.995531 0
    outer loop
      vertex -14.8342 68.9986 0
      vertex -14.8342 68.9986 10
      vertex -15.8958 69.0993 10
    endloop
  endfacet
  facet normal 0.877398 -0.479763 0
    outer loop
      vertex -14.5316 69.552 0
      vertex -14.8342 68.9986 10
      vertex -14.8342 68.9986 0
    endloop
  endfacet
  facet normal 0.877398 -0.479763 0
    outer loop
      vertex -14.5316 69.552 0
      vertex -14.5316 69.552 10
      vertex -14.8342 68.9986 10
    endloop
  endfacet
  facet normal 0.573816 -0.818985 0
    outer loop
      vertex -14.4227 69.6283 0
      vertex -14.5316 69.552 10
      vertex -14.5316 69.552 0
    endloop
  endfacet
  facet normal 0.573816 -0.818985 0
    outer loop
      vertex -14.4227 69.6283 0
      vertex -14.4227 69.6283 10
      vertex -14.5316 69.552 10
    endloop
  endfacet
  facet normal 0.151089 -0.98852 0
    outer loop
      vertex -12.1897 69.9696 0
      vertex -14.4227 69.6283 10
      vertex -14.4227 69.6283 0
    endloop
  endfacet
  facet normal 0.151089 -0.98852 0
    outer loop
      vertex -12.1897 69.9696 0
      vertex -12.1897 69.9696 10
      vertex -14.4227 69.6283 10
    endloop
  endfacet
  facet normal 0.774481 -0.632598 0
    outer loop
      vertex -11.1562 71.2349 0
      vertex -12.1897 69.9696 10
      vertex -12.1897 69.9696 0
    endloop
  endfacet
  facet normal 0.774481 -0.632598 0
    outer loop
      vertex -11.1562 71.2349 0
      vertex -11.1562 71.2349 10
      vertex -12.1897 69.9696 10
    endloop
  endfacet
  facet normal 0.633238 -0.773957 0
    outer loop
      vertex -11.11 71.2727 0
      vertex -11.1562 71.2349 10
      vertex -11.1562 71.2349 0
    endloop
  endfacet
  facet normal 0.633238 -0.773957 0
    outer loop
      vertex -11.11 71.2727 0
      vertex -11.11 71.2727 10
      vertex -11.1562 71.2349 10
    endloop
  endfacet
  facet normal 0.466579 -0.88448 0
    outer loop
      vertex -8.92998 72.4227 0
      vertex -11.11 71.2727 10
      vertex -11.11 71.2727 0
    endloop
  endfacet
  facet normal 0.466579 -0.88448 0
    outer loop
      vertex -8.92998 72.4227 0
      vertex -8.92998 72.4227 10
      vertex -11.11 71.2727 10
    endloop
  endfacet
  facet normal 0.333638 -0.942701 0
    outer loop
      vertex -8.88901 72.4372 0
      vertex -8.92998 72.4227 10
      vertex -8.92998 72.4227 0
    endloop
  endfacet
  facet normal 0.333638 -0.942701 0
    outer loop
      vertex -8.88901 72.4372 0
      vertex -8.88901 72.4372 10
      vertex -8.92998 72.4227 10
    endloop
  endfacet
  facet normal 0.193337 -0.981132 0
    outer loop
      vertex -8.26025 72.5611 0
      vertex -8.88901 72.4372 10
      vertex -8.88901 72.4372 0
    endloop
  endfacet
  facet normal 0.193337 -0.981132 0
    outer loop
      vertex -8.26025 72.5611 0
      vertex -8.26025 72.5611 10
      vertex -8.88901 72.4372 10
    endloop
  endfacet
  facet normal 0.933455 -0.358695 0
    outer loop
      vertex -8.23143 72.6361 0
      vertex -8.26025 72.5611 10
      vertex -8.26025 72.5611 0
    endloop
  endfacet
  facet normal 0.933455 -0.358695 0
    outer loop
      vertex -8.23143 72.6361 0
      vertex -8.23143 72.6361 10
      vertex -8.26025 72.5611 10
    endloop
  endfacet
  facet normal 0.586194 0.81017 0
    outer loop
      vertex -8.60791 72.9085 0
      vertex -8.23143 72.6361 10
      vertex -8.23143 72.6361 0
    endloop
  endfacet
  facet normal 0.586194 0.81017 -0
    outer loop
      vertex -8.60791 72.9085 0
      vertex -8.60791 72.9085 10
      vertex -8.23143 72.6361 10
    endloop
  endfacet
  facet normal 0.88417 0.467164 0
    outer loop
      vertex -8.66994 73.0259 0
      vertex -8.60791 72.9085 10
      vertex -8.60791 72.9085 0
    endloop
  endfacet
  facet normal 0.88417 0.467164 -0
    outer loop
      vertex -8.66994 73.0259 0
      vertex -8.66994 73.0259 10
      vertex -8.60791 72.9085 10
    endloop
  endfacet
  facet normal 0.999628 0.0272626 0
    outer loop
      vertex -8.69994 74.1259 0
      vertex -8.66994 73.0259 10
      vertex -8.66994 73.0259 0
    endloop
  endfacet
  facet normal 0.999628 0.0272626 -0
    outer loop
      vertex -8.69994 74.1259 0
      vertex -8.69994 74.1259 10
      vertex -8.66994 73.0259 10
    endloop
  endfacet
  facet normal 0.929028 -0.370009 0
    outer loop
      vertex -8.65605 74.2361 0
      vertex -8.69994 74.1259 10
      vertex -8.69994 74.1259 0
    endloop
  endfacet
  facet normal 0.929028 -0.370009 0
    outer loop
      vertex -8.65605 74.2361 0
      vertex -8.65605 74.2361 10
      vertex -8.69994 74.1259 10
    endloop
  endfacet
  facet normal 0.707126 -0.707087 0
    outer loop
      vertex -8.47606 74.4161 0
      vertex -8.65605 74.2361 10
      vertex -8.65605 74.2361 0
    endloop
  endfacet
  facet normal 0.707126 -0.707087 0
    outer loop
      vertex -8.47606 74.4161 0
      vertex -8.47606 74.4161 10
      vertex -8.65605 74.2361 10
    endloop
  endfacet
  facet normal 0.483543 -0.875321 0
    outer loop
      vertex -8.40347 74.4562 0
      vertex -8.47606 74.4161 10
      vertex -8.47606 74.4161 0
    endloop
  endfacet
  facet normal 0.483543 -0.875321 0
    outer loop
      vertex -8.40347 74.4562 0
      vertex -8.40347 74.4562 10
      vertex -8.47606 74.4161 10
    endloop
  endfacet
  facet normal 0.223152 -0.974784 0
    outer loop
      vertex -6.80862 74.8213 0
      vertex -8.40347 74.4562 10
      vertex -8.40347 74.4562 0
    endloop
  endfacet
  facet normal 0.223152 -0.974784 0
    outer loop
      vertex -6.80862 74.8213 0
      vertex -6.80862 74.8213 10
      vertex -8.40347 74.4562 10
    endloop
  endfacet
  facet normal 0.874144 -0.485666 0
    outer loop
      vertex -6.4911 75.3928 0
      vertex -6.80862 74.8213 10
      vertex -6.80862 74.8213 0
    endloop
  endfacet
  facet normal 0.874144 -0.485666 0
    outer loop
      vertex -6.4911 75.3928 0
      vertex -6.4911 75.3928 10
      vertex -6.80862 74.8213 10
    endloop
  endfacet
  facet normal 0.517721 -0.855549 0
    outer loop
      vertex -6.36369 75.4699 0
      vertex -6.4911 75.3928 10
      vertex -6.4911 75.3928 0
    endloop
  endfacet
  facet normal 0.517721 -0.855549 0
    outer loop
      vertex -6.36369 75.4699 0
      vertex -6.36369 75.4699 10
      vertex -6.4911 75.3928 10
    endloop
  endfacet
  facet normal 0.0247368 -0.999694 0
    outer loop
      vertex -2.88007 75.5561 0
      vertex -6.36369 75.4699 10
      vertex -6.36369 75.4699 0
    endloop
  endfacet
  facet normal 0.0247368 -0.999694 0
    outer loop
      vertex -2.88007 75.5561 0
      vertex -2.88007 75.5561 10
      vertex -6.36369 75.4699 10
    endloop
  endfacet
  facet normal 0.997784 0.0665339 0
    outer loop
      vertex -2.90967 76 0
      vertex -2.88007 75.5561 10
      vertex -2.88007 75.5561 0
    endloop
  endfacet
  facet normal 0.997784 0.0665339 -0
    outer loop
      vertex -2.90967 76 0
      vertex -2.90967 76 10
      vertex -2.88007 75.5561 10
    endloop
  endfacet
  facet normal 0.926227 -0.376965 0
    outer loop
      vertex -2.86018 76.1216 0
      vertex -2.90967 76 10
      vertex -2.90967 76 0
    endloop
  endfacet
  facet normal 0.926227 -0.376965 0
    outer loop
      vertex -2.86018 76.1216 0
      vertex -2.86018 76.1216 10
      vertex -2.90967 76 10
    endloop
  endfacet
  facet normal 0.667939 -0.744216 0
    outer loop
      vertex -2.58943 76.3646 0
      vertex -2.86018 76.1216 10
      vertex -2.86018 76.1216 0
    endloop
  endfacet
  facet normal 0.667939 -0.744216 0
    outer loop
      vertex -2.58943 76.3646 0
      vertex -2.58943 76.3646 10
      vertex -2.86018 76.1216 10
    endloop
  endfacet
  facet normal 0.698665 0.715449 0
    outer loop
      vertex -3.32478 77.0827 0
      vertex -2.58943 76.3646 10
      vertex -2.58943 76.3646 0
    endloop
  endfacet
  facet normal 0.698665 0.715449 -0
    outer loop
      vertex -3.32478 77.0827 0
      vertex -3.32478 77.0827 10
      vertex -2.58943 76.3646 10
    endloop
  endfacet
  facet normal 0.841217 0.540697 0
    outer loop
      vertex -3.36116 77.1393 0
      vertex -3.32478 77.0827 10
      vertex -3.32478 77.0827 0
    endloop
  endfacet
  facet normal 0.841217 0.540697 -0
    outer loop
      vertex -3.36116 77.1393 0
      vertex -3.36116 77.1393 10
      vertex -3.32478 77.0827 10
    endloop
  endfacet
  facet normal 0.941139 0.338021 0
    outer loop
      vertex -3.87117 78.5593 0
      vertex -3.36116 77.1393 10
      vertex -3.36116 77.1393 0
    endloop
  endfacet
  facet normal 0.941139 0.338021 -0
    outer loop
      vertex -3.87117 78.5593 0
      vertex -3.87117 78.5593 10
      vertex -3.36116 77.1393 10
    endloop
  endfacet
  facet normal 0.99529 0.0969456 0
    outer loop
      vertex -3.8783 78.6325 0
      vertex -3.87117 78.5593 10
      vertex -3.87117 78.5593 0
    endloop
  endfacet
  facet normal 0.99529 0.0969456 -0
    outer loop
      vertex -3.8783 78.6325 0
      vertex -3.8783 78.6325 10
      vertex -3.87117 78.5593 10
    endloop
  endfacet
  facet normal 0.988712 -0.149829 0
    outer loop
      vertex -3.78183 79.2691 0
      vertex -3.8783 78.6325 10
      vertex -3.8783 78.6325 0
    endloop
  endfacet
  facet normal 0.988712 -0.149829 0
    outer loop
      vertex -3.78183 79.2691 0
      vertex -3.78183 79.2691 10
      vertex -3.8783 78.6325 10
    endloop
  endfacet
  facet normal 0.986888 0.161407 0
    outer loop
      vertex -4.12802 81.3858 0
      vertex -3.78183 79.2691 10
      vertex -3.78183 79.2691 0
    endloop
  endfacet
  facet normal 0.986888 0.161407 -0
    outer loop
      vertex -4.12802 81.3858 0
      vertex -4.12802 81.3858 10
      vertex -3.78183 79.2691 10
    endloop
  endfacet
  facet normal 0.989758 -0.142756 0
    outer loop
      vertex -4.11514 81.4751 0
      vertex -4.12802 81.3858 10
      vertex -4.12802 81.3858 0
    endloop
  endfacet
  facet normal 0.989758 -0.142756 0
    outer loop
      vertex -4.11514 81.4751 0
      vertex -4.11514 81.4751 10
      vertex -4.12802 81.3858 10
    endloop
  endfacet
  facet normal 0.90098 -0.433861 0
    outer loop
      vertex -4.02278 81.6669 0
      vertex -4.11514 81.4751 10
      vertex -4.11514 81.4751 0
    endloop
  endfacet
  facet normal 0.90098 -0.433861 0
    outer loop
      vertex -4.02278 81.6669 0
      vertex -4.02278 81.6669 10
      vertex -4.11514 81.4751 10
    endloop
  endfacet
  facet normal 0.82532 0.564665 0
    outer loop
      vertex -4.23378 81.9753 0
      vertex -4.02278 81.6669 10
      vertex -4.02278 81.6669 0
    endloop
  endfacet
  facet normal 0.82532 0.564665 -0
    outer loop
      vertex -4.23378 81.9753 0
      vertex -4.23378 81.9753 10
      vertex -4.02278 81.6669 10
    endloop
  endfacet
  facet normal 0.988642 0.150292 0
    outer loop
      vertex -4.25336 82.1041 0
      vertex -4.23378 81.9753 10
      vertex -4.23378 81.9753 0
    endloop
  endfacet
  facet normal 0.988642 0.150292 -0
    outer loop
      vertex -4.25336 82.1041 0
      vertex -4.25336 82.1041 10
      vertex -4.23378 81.9753 10
    endloop
  endfacet
  facet normal 0.955779 -0.294086 0
    outer loop
      vertex -4.15976 82.4083 0
      vertex -4.25336 82.1041 10
      vertex -4.25336 82.1041 0
    endloop
  endfacet
  facet normal 0.955779 -0.294086 0
    outer loop
      vertex -4.15976 82.4083 0
      vertex -4.15976 82.4083 10
      vertex -4.25336 82.1041 10
    endloop
  endfacet
  facet normal 0.710824 0.70337 0
    outer loop
      vertex -4.9957 83.2531 0
      vertex -4.15976 82.4083 10
      vertex -4.15976 82.4083 0
    endloop
  endfacet
  facet normal 0.710824 0.70337 -0
    outer loop
      vertex -4.9957 83.2531 0
      vertex -4.9957 83.2531 10
      vertex -4.15976 82.4083 10
    endloop
  endfacet
  facet normal 0.050695 0.998714 0
    outer loop
      vertex -6.3176 83.3202 0
      vertex -4.9957 83.2531 10
      vertex -4.9957 83.2531 0
    endloop
  endfacet
  facet normal 0.050695 0.998714 -0
    outer loop
      vertex -6.3176 83.3202 0
      vertex -6.3176 83.3202 10
      vertex -4.9957 83.2531 10
    endloop
  endfacet
  facet normal 0.587772 0.809026 0
    outer loop
      vertex -6.45015 83.4165 0
      vertex -6.3176 83.3202 10
      vertex -6.3176 83.3202 0
    endloop
  endfacet
  facet normal 0.587772 0.809026 -0
    outer loop
      vertex -6.45015 83.4165 0
      vertex -6.45015 83.4165 10
      vertex -6.3176 83.3202 10
    endloop
  endfacet
  facet normal 0.934307 0.356469 0
    outer loop
      vertex -6.67804 84.0138 0
      vertex -6.45015 83.4165 10
      vertex -6.45015 83.4165 0
    endloop
  endfacet
  facet normal 0.934307 0.356469 -0
    outer loop
      vertex -6.67804 84.0138 0
      vertex -6.67804 84.0138 10
      vertex -6.45015 83.4165 10
    endloop
  endfacet
  facet normal -0.491178 0.871059 0
    outer loop
      vertex -7.46632 83.5693 0
      vertex -6.67804 84.0138 10
      vertex -6.67804 84.0138 0
    endloop
  endfacet
  facet normal -0.491178 0.871059 0
    outer loop
      vertex -7.46632 83.5693 0
      vertex -7.46632 83.5693 10
      vertex -6.67804 84.0138 10
    endloop
  endfacet
  facet normal -0.125141 0.992139 0
    outer loop
      vertex -7.5789 83.5551 0
      vertex -7.46632 83.5693 10
      vertex -7.46632 83.5693 0
    endloop
  endfacet
  facet normal -0.125141 0.992139 0
    outer loop
      vertex -7.5789 83.5551 0
      vertex -7.5789 83.5551 10
      vertex -7.46632 83.5693 10
    endloop
  endfacet
  facet normal 0.259516 0.965739 0
    outer loop
      vertex -8.21301 83.7255 0
      vertex -7.5789 83.5551 10
      vertex -7.5789 83.5551 0
    endloop
  endfacet
  facet normal 0.259516 0.965739 -0
    outer loop
      vertex -8.21301 83.7255 0
      vertex -8.21301 83.7255 10
      vertex -7.5789 83.5551 10
    endloop
  endfacet
  facet normal -0.221336 0.975198 0
    outer loop
      vertex -9.58679 83.4137 0
      vertex -8.21301 83.7255 10
      vertex -8.21301 83.7255 0
    endloop
  endfacet
  facet normal -0.221336 0.975198 0
    outer loop
      vertex -9.58679 83.4137 0
      vertex -9.58679 83.4137 10
      vertex -8.21301 83.7255 10
    endloop
  endfacet
  facet normal -0.0217886 0.999763 0
    outer loop
      vertex -9.64644 83.4124 0
      vertex -9.58679 83.4137 10
      vertex -9.58679 83.4137 0
    endloop
  endfacet
  facet normal -0.0217886 0.999763 0
    outer loop
      vertex -9.64644 83.4124 0
      vertex -9.64644 83.4124 10
      vertex -9.58679 83.4137 10
    endloop
  endfacet
  facet normal 0.176167 0.98436 0
    outer loop
      vertex -10.3164 83.5323 0
      vertex -9.64644 83.4124 10
      vertex -9.64644 83.4124 0
    endloop
  endfacet
  facet normal 0.176167 0.98436 -0
    outer loop
      vertex -10.3164 83.5323 0
      vertex -10.3164 83.5323 10
      vertex -9.64644 83.4124 10
    endloop
  endfacet
  facet normal 0.416517 0.909128 0
    outer loop
      vertex -10.3845 83.5635 0
      vertex -10.3164 83.5323 10
      vertex -10.3164 83.5323 0
    endloop
  endfacet
  facet normal 0.416517 0.909128 -0
    outer loop
      vertex -10.3845 83.5635 0
      vertex -10.3845 83.5635 10
      vertex -10.3164 83.5323 10
    endloop
  endfacet
  facet normal 0.630169 0.776458 0
    outer loop
      vertex -11.7645 84.6835 0
      vertex -10.3845 83.5635 10
      vertex -10.3845 83.5635 0
    endloop
  endfacet
  facet normal 0.630169 0.776458 -0
    outer loop
      vertex -11.7645 84.6835 0
      vertex -11.7645 84.6835 10
      vertex -10.3845 83.5635 10
    endloop
  endfacet
  facet normal 0.769203 0.639004 0
    outer loop
      vertex -11.8018 84.7284 0
      vertex -11.7645 84.6835 10
      vertex -11.7645 84.6835 0
    endloop
  endfacet
  facet normal 0.769203 0.639004 -0
    outer loop
      vertex -11.8018 84.7284 0
      vertex -11.8018 84.7284 10
      vertex -11.7645 84.6835 10
    endloop
  endfacet
  facet normal 0.878853 0.477092 0
    outer loop
      vertex -11.9918 85.0784 0
      vertex -11.8018 84.7284 10
      vertex -11.8018 84.7284 0
    endloop
  endfacet
  facet normal 0.878853 0.477092 -0
    outer loop
      vertex -11.9918 85.0784 0
      vertex -11.9918 85.0784 10
      vertex -11.8018 84.7284 10
    endloop
  endfacet
  facet normal 0.994777 0.102073 0
    outer loop
      vertex -12.0036 85.1934 0
      vertex -11.9918 85.0784 10
      vertex -11.9918 85.0784 0
    endloop
  endfacet
  facet normal 0.994777 0.102073 -0
    outer loop
      vertex -12.0036 85.1934 0
      vertex -12.0036 85.1934 10
      vertex -11.9918 85.0784 10
    endloop
  endfacet
  facet normal 0.957181 -0.289489 0
    outer loop
      vertex -11.9478 85.3779 0
      vertex -12.0036 85.1934 10
      vertex -12.0036 85.1934 0
    endloop
  endfacet
  facet normal 0.957181 -0.289489 0
    outer loop
      vertex -11.9478 85.3779 0
      vertex -11.9478 85.3779 10
      vertex -12.0036 85.1934 10
    endloop
  endfacet
  facet normal -0.21693 0.976187 0
    outer loop
      vertex -13.0557 85.1317 0
      vertex -11.9478 85.3779 10
      vertex -11.9478 85.3779 0
    endloop
  endfacet
  facet normal -0.21693 0.976187 0
    outer loop
      vertex -13.0557 85.1317 0
      vertex -13.0557 85.1317 10
      vertex -11.9478 85.3779 10
    endloop
  endfacet
  facet normal -0.944815 0.327603 0
    outer loop
      vertex -13.9783 82.4709 0
      vertex -13.0557 85.1317 10
      vertex -13.0557 85.1317 0
    endloop
  endfacet
  facet normal -0.944815 0.327603 0
    outer loop
      vertex -13.9783 82.4709 0
      vertex -13.9783 82.4709 10
      vertex -13.0557 85.1317 10
    endloop
  endfacet
  facet normal -0.913188 0.407538 0
    outer loop
      vertex -13.9891 82.4467 0
      vertex -13.9783 82.4709 10
      vertex -13.9783 82.4709 0
    endloop
  endfacet
  facet normal -0.913188 0.407538 0
    outer loop
      vertex -13.9891 82.4467 0
      vertex -13.9891 82.4467 10
      vertex -13.9783 82.4709 10
    endloop
  endfacet
  facet normal -0.872643 0.48836 0
    outer loop
      vertex -15.2091 80.2667 0
      vertex -13.9891 82.4467 10
      vertex -13.9891 82.4467 0
    endloop
  endfacet
  facet normal -0.872643 0.48836 0
    outer loop
      vertex -15.2091 80.2667 0
      vertex -15.2091 80.2667 10
      vertex -13.9891 82.4467 10
    endloop
  endfacet
  facet normal -0.69936 0.71477 0
    outer loop
      vertex -15.2694 80.2077 0
      vertex -15.2091 80.2667 10
      vertex -15.2091 80.2667 0
    endloop
  endfacet
  facet normal -0.69936 0.71477 0
    outer loop
      vertex -15.2694 80.2077 0
      vertex -15.2694 80.2077 10
      vertex -15.2091 80.2667 10
    endloop
  endfacet
  facet normal -0.470721 0.882282 0
    outer loop
      vertex -18.8263 78.31 0
      vertex -15.2694 80.2077 10
      vertex -15.2694 80.2077 0
    endloop
  endfacet
  facet normal -0.470721 0.882282 0
    outer loop
      vertex -18.8263 78.31 0
      vertex -18.8263 78.31 10
      vertex -15.2694 80.2077 10
    endloop
  endfacet
  facet normal -0.741259 0.67122 0
    outer loop
      vertex -20.4095 76.5616 0
      vertex -18.8263 78.31 10
      vertex -18.8263 78.31 0
    endloop
  endfacet
  facet normal -0.741259 0.67122 0
    outer loop
      vertex -20.4095 76.5616 0
      vertex -20.4095 76.5616 10
      vertex -18.8263 78.31 10
    endloop
  endfacet
  facet normal -0.985537 0.169461 0
    outer loop
      vertex -20.6222 75.3246 0
      vertex -20.4095 76.5616 10
      vertex -20.4095 76.5616 0
    endloop
  endfacet
  facet normal -0.985537 0.169461 0
    outer loop
      vertex -20.6222 75.3246 0
      vertex -20.6222 75.3246 10
      vertex -20.4095 76.5616 10
    endloop
  endfacet
  facet normal -0.938343 0.345705 0
    outer loop
      vertex -20.6411 75.2733 0
      vertex -20.6222 75.3246 10
      vertex -20.6222 75.3246 0
    endloop
  endfacet
  facet normal -0.938343 0.345705 0
    outer loop
      vertex -20.6411 75.2733 0
      vertex -20.6411 75.2733 10
      vertex -20.6222 75.3246 10
    endloop
  endfacet
  facet normal -0.859254 0.51155 0
    outer loop
      vertex -21.6533 73.5731 0
      vertex -20.6411 75.2733 10
      vertex -20.6411 75.2733 0
    endloop
  endfacet
  facet normal -0.859254 0.51155 0
    outer loop
      vertex -21.6533 73.5731 0
      vertex -21.6533 73.5731 10
      vertex -20.6411 75.2733 10
    endloop
  endfacet
  facet normal -0.996656 0.0817091 0
    outer loop
      vertex -21.796 71.8325 0
      vertex -21.6533 73.5731 10
      vertex -21.6533 73.5731 0
    endloop
  endfacet
  facet normal -0.996656 0.0817091 0
    outer loop
      vertex -21.796 71.8325 0
      vertex -21.796 71.8325 10
      vertex -21.6533 73.5731 10
    endloop
  endfacet
  facet normal -0.813717 -0.581262 0
    outer loop
      vertex -21.3279 71.1772 0
      vertex -21.796 71.8325 10
      vertex -21.796 71.8325 0
    endloop
  endfacet
  facet normal -0.813717 -0.581262 0
    outer loop
      vertex -21.3279 71.1772 0
      vertex -21.3279 71.1772 10
      vertex -21.796 71.8325 10
    endloop
  endfacet
  facet normal -0.957598 -0.288108 0
    outer loop
      vertex -21.3001 71.0848 0
      vertex -21.3279 71.1772 10
      vertex -21.3279 71.1772 0
    endloop
  endfacet
  facet normal -0.957598 -0.288108 0
    outer loop
      vertex -21.3001 71.0848 0
      vertex -21.3001 71.0848 10
      vertex -21.3279 71.1772 10
    endloop
  endfacet
  facet normal -0.999406 0.0344623 0
    outer loop
      vertex -21.3301 70.2148 0
      vertex -21.3001 71.0848 10
      vertex -21.3001 71.0848 0
    endloop
  endfacet
  facet normal -0.999406 0.0344623 0
    outer loop
      vertex -21.3301 70.2148 0
      vertex -21.3301 70.2148 10
      vertex -21.3001 71.0848 10
    endloop
  endfacet
  facet normal -0.955311 0.295601 0
    outer loop
      vertex -21.3534 70.1395 0
      vertex -21.3301 70.2148 10
      vertex -21.3301 70.2148 0
    endloop
  endfacet
  facet normal -0.955311 0.295601 0
    outer loop
      vertex -21.3534 70.1395 0
      vertex -21.3534 70.1395 10
      vertex -21.3301 70.2148 10
    endloop
  endfacet
  facet normal -0.843661 0.536875 0
    outer loop
      vertex -22.5434 68.2695 0
      vertex -21.3534 70.1395 10
      vertex -21.3534 70.1395 0
    endloop
  endfacet
  facet normal -0.843661 0.536875 0
    outer loop
      vertex -22.5434 68.2695 0
      vertex -22.5434 68.2695 10
      vertex -21.3534 70.1395 10
    endloop
  endfacet
  facet normal -0.813286 0.581863 0
    outer loop
      vertex -22.5522 68.2572 0
      vertex -22.5434 68.2695 10
      vertex -22.5434 68.2695 0
    endloop
  endfacet
  facet normal -0.813286 0.581863 0
    outer loop
      vertex -22.5522 68.2572 0
      vertex -22.5522 68.2572 10
      vertex -22.5434 68.2695 10
    endloop
  endfacet
  facet normal -0.785684 0.618628 0
    outer loop
      vertex -23.1821 67.4572 0
      vertex -22.5522 68.2572 10
      vertex -22.5522 68.2572 0
    endloop
  endfacet
  facet normal -0.785684 0.618628 0
    outer loop
      vertex -23.1821 67.4572 0
      vertex -23.1821 67.4572 10
      vertex -22.5522 68.2572 10
    endloop
  endfacet
  facet normal -0.710059 0.704142 0
    outer loop
      vertex -23.2059 67.4332 0
      vertex -23.1821 67.4572 10
      vertex -23.1821 67.4572 0
    endloop
  endfacet
  facet normal -0.710059 0.704142 0
    outer loop
      vertex -23.2059 67.4332 0
      vertex -23.2059 67.4332 10
      vertex -23.1821 67.4572 10
    endloop
  endfacet
  facet normal -0.627496 0.77862 0
    outer loop
      vertex -25.5759 65.5232 0
      vertex -23.2059 67.4332 10
      vertex -23.2059 67.4332 0
    endloop
  endfacet
  facet normal -0.627496 0.77862 0
    outer loop
      vertex -25.5759 65.5232 0
      vertex -25.5759 65.5232 10
      vertex -23.2059 67.4332 10
    endloop
  endfacet
  facet normal -0.474753 0.880119 0
    outer loop
      vertex -25.6241 65.4972 0
      vertex -25.5759 65.5232 10
      vertex -25.5759 65.5232 0
    endloop
  endfacet
  facet normal -0.474753 0.880119 0
    outer loop
      vertex -25.6241 65.4972 0
      vertex -25.6241 65.4972 10
      vertex -25.5759 65.5232 10
    endloop
  endfacet
  facet normal -0.306111 0.951996 0
    outer loop
      vertex -28.6896 64.5115 0
      vertex -25.6241 65.4972 10
      vertex -25.6241 65.4972 0
    endloop
  endfacet
  facet normal -0.306111 0.951996 0
    outer loop
      vertex -28.6896 64.5115 0
      vertex -28.6896 64.5115 10
      vertex -25.6241 65.4972 10
    endloop
  endfacet
  facet normal -0.792629 0.609704 0
    outer loop
      vertex -29.1479 63.9157 0
      vertex -28.6896 64.5115 10
      vertex -28.6896 64.5115 0
    endloop
  endfacet
  facet normal -0.792629 0.609704 0
    outer loop
      vertex -29.1479 63.9157 0
      vertex -29.1479 63.9157 10
      vertex -28.6896 64.5115 10
    endloop
  endfacet
  facet normal -0.932615 0.360872 0
    outer loop
      vertex -30.0301 61.6358 0
      vertex -29.1479 63.9157 10
      vertex -29.1479 63.9157 0
    endloop
  endfacet
  facet normal -0.932615 0.360872 0
    outer loop
      vertex -30.0301 61.6358 0
      vertex -30.0301 61.6358 10
      vertex -29.1479 63.9157 10
    endloop
  endfacet
  facet normal -0.773814 0.633413 0
    outer loop
      vertex -30.0892 61.5636 0
      vertex -30.0301 61.6358 10
      vertex -30.0301 61.6358 0
    endloop
  endfacet
  facet normal -0.773814 0.633413 0
    outer loop
      vertex -30.0892 61.5636 0
      vertex -30.0892 61.5636 10
      vertex -30.0301 61.6358 10
    endloop
  endfacet
  facet normal -0.53892 0.842357 0
    outer loop
      vertex -31.9089 60.3994 0
      vertex -30.0892 61.5636 10
      vertex -30.0892 61.5636 0
    endloop
  endfacet
  facet normal -0.53892 0.842357 0
    outer loop
      vertex -31.9089 60.3994 0
      vertex -31.9089 60.3994 10
      vertex -30.0892 61.5636 10
    endloop
  endfacet
  facet normal -0.926945 0.375197 0
    outer loop
      vertex -32.7341 58.3607 0
      vertex -31.9089 60.3994 10
      vertex -31.9089 60.3994 0
    endloop
  endfacet
  facet normal -0.926945 0.375197 0
    outer loop
      vertex -32.7341 58.3607 0
      vertex -32.7341 58.3607 10
      vertex -31.9089 60.3994 10
    endloop
  endfacet
  facet normal -0.989951 0.141413 0
    outer loop
      vertex -32.9715 56.6988 0
      vertex -32.7341 58.3607 10
      vertex -32.7341 58.3607 0
    endloop
  endfacet
  facet normal -0.989951 0.141413 0
    outer loop
      vertex -32.9715 56.6988 0
      vertex -32.9715 56.6988 10
      vertex -32.7341 58.3607 10
    endloop
  endfacet
  facet normal -0.890287 0.4554 0
    outer loop
      vertex -33.0159 56.612 0
      vertex -32.9715 56.6988 10
      vertex -32.9715 56.6988 0
    endloop
  endfacet
  facet normal -0.890287 0.4554 0
    outer loop
      vertex -33.0159 56.612 0
      vertex -33.0159 56.612 10
      vertex -32.9715 56.6988 10
    endloop
  endfacet
  facet normal -0.693965 0.720009 0
    outer loop
      vertex -35.1225 54.5816 0
      vertex -33.0159 56.612 10
      vertex -33.0159 56.612 0
    endloop
  endfacet
  facet normal -0.693965 0.720009 0
    outer loop
      vertex -35.1225 54.5816 0
      vertex -35.1225 54.5816 10
      vertex -33.0159 56.612 10
    endloop
  endfacet
  facet normal -0.00822341 -0.999966 0
    outer loop
      vertex -35.0009 54.5806 0
      vertex -35.1225 54.5816 10
      vertex -35.1225 54.5816 0
    endloop
  endfacet
  facet normal -0.00822341 -0.999966 0
    outer loop
      vertex -35.0009 54.5806 0
      vertex -35.0009 54.5806 10
      vertex -35.1225 54.5816 10
    endloop
  endfacet
  facet normal -0.977094 -0.212807 0
    outer loop
      vertex -34.9588 54.3873 0
      vertex -35.0009 54.5806 10
      vertex -35.0009 54.5806 0
    endloop
  endfacet
  facet normal -0.977094 -0.212807 0
    outer loop
      vertex -34.9588 54.3873 0
      vertex -34.9588 54.3873 10
      vertex -35.0009 54.5806 10
    endloop
  endfacet
  facet normal -0.874893 0.484317 0
    outer loop
      vertex -35.88 52.7232 0
      vertex -34.9588 54.3873 10
      vertex -34.9588 54.3873 0
    endloop
  endfacet
  facet normal -0.874893 0.484317 0
    outer loop
      vertex -35.88 52.7232 0
      vertex -35.88 52.7232 10
      vertex -34.9588 54.3873 10
    endloop
  endfacet
  facet normal -0.965317 0.261079 0
    outer loop
      vertex -36.2052 51.5208 0
      vertex -35.88 52.7232 10
      vertex -35.88 52.7232 0
    endloop
  endfacet
  facet normal -0.965317 0.261079 0
    outer loop
      vertex -36.2052 51.5208 0
      vertex -36.2052 51.5208 10
      vertex -35.88 52.7232 10
    endloop
  endfacet
  facet normal -0.896147 0.443757 0
    outer loop
      vertex -36.2309 51.4689 0
      vertex -36.2052 51.5208 10
      vertex -36.2052 51.5208 0
    endloop
  endfacet
  facet normal -0.896147 0.443757 0
    outer loop
      vertex -36.2309 51.4689 0
      vertex -36.2309 51.4689 10
      vertex -36.2052 51.5208 10
    endloop
  endfacet
  facet normal -0.794235 0.607611 0
    outer loop
      vertex -37.4769 49.8402 0
      vertex -36.2309 51.4689 10
      vertex -36.2309 51.4689 0
    endloop
  endfacet
  facet normal -0.794235 0.607611 0
    outer loop
      vertex -37.4769 49.8402 0
      vertex -37.4769 49.8402 10
      vertex -36.2309 51.4689 10
    endloop
  endfacet
  facet normal -0.990456 0.137826 0
    outer loop
      vertex -37.6068 48.9067 0
      vertex -37.4769 49.8402 10
      vertex -37.4769 49.8402 0
    endloop
  endfacet
  facet normal -0.990456 0.137826 0
    outer loop
      vertex -37.6068 48.9067 0
      vertex -37.6068 48.9067 10
      vertex -37.4769 49.8402 10
    endloop
  endfacet
  facet normal 0.0379757 -0.999279 0
    outer loop
      vertex -32.8914 49.0859 0
      vertex -37.6068 48.9067 10
      vertex -37.6068 48.9067 0
    endloop
  endfacet
  facet normal 0.0379757 -0.999279 0
    outer loop
      vertex -32.8914 49.0859 0
      vertex -32.8914 49.0859 10
      vertex -37.6068 48.9067 10
    endloop
  endfacet
endsolid OpenSCAD_Model
