solid OpenSCAD_Model
  facet normal 0 -0 -1
    outer loop
      vertex 213.739 53.0133 10
      vertex 214.096 52.0542 10
      vertex 213.262 52.4441 10
    endloop
  endfacet
  facet normal 0 0 -1
    outer loop
      vertex 211.956 54.517 10
      vertex 212.796 55.5492 10
      vertex 212.418 54.714 10
    endloop
  endfacet
  facet normal -0 0 -1
    outer loop
      vertex 211.679 54.406 10
      vertex 209.357 54.2703 10
      vertex 212.796 55.5492 10
    endloop
  endfacet
  facet normal 0 0 -1
    outer loop
      vertex 211.679 54.406 10
      vertex 212.796 55.5492 10
      vertex 211.956 54.517 10
    endloop
  endfacet
  facet normal 0 0 -1
    outer loop
      vertex 210.102 52.2665 10
      vertex 209.912 52.779 10
      vertex 210.877 52.8435 10
    endloop
  endfacet
  facet normal 0 0 -1
    outer loop
      vertex 212.251 52.36 10
      vertex 210.877 52.8435 10
      vertex 211.486 52.8949 10
    endloop
  endfacet
  facet normal 0 0 -1
    outer loop
      vertex 210.877 52.8435 10
      vertex 211.6 54.1124 10
      vertex 211.295 53.1322 10
    endloop
  endfacet
  facet normal 0 0 -1
    outer loop
      vertex 213.739 53.0133 10
      vertex 213.262 52.4441 10
      vertex 212.649 52.3877 10
    endloop
  endfacet
  facet normal 0 -0 -1
    outer loop
      vertex 212.574 52.2159 10
      vertex 214.096 52.0542 10
      vertex 212.504 52.1899 10
    endloop
  endfacet
  facet normal 0 -0 -1
    outer loop
      vertex 212.504 52.1899 10
      vertex 214.096 52.0542 10
      vertex 210.657 50.7752 10
    endloop
  endfacet
  facet normal 0 0 -1
    outer loop
      vertex 212.574 52.2159 10
      vertex 212.646 52.2413 10
      vertex 214.096 52.0542 10
    endloop
  endfacet
  facet normal 0 0 -1
    outer loop
      vertex 210.657 50.7752 10
      vertex 210.419 51.4147 10
      vertex 212.504 52.1899 10
    endloop
  endfacet
  facet normal 0 0 -1
    outer loop
      vertex 214.096 52.0542 10
      vertex 212.646 52.2413 10
      vertex 212.835 52.3045 10
    endloop
  endfacet
  facet normal 0 -0 -1
    outer loop
      vertex 213.262 52.4441 10
      vertex 214.096 52.0542 10
      vertex 212.835 52.3045 10
    endloop
  endfacet
  facet normal 0 0 -1
    outer loop
      vertex 212.389 48.777 10
      vertex 213.112 50.0459 10
      vertex 212.807 49.0657 10
    endloop
  endfacet
  facet normal 0 0 -1
    outer loop
      vertex 210.102 52.2665 10
      vertex 210.877 52.8435 10
      vertex 212.251 52.36 10
    endloop
  endfacet
  facet normal 0 0 -1
    outer loop
      vertex 212.251 52.36 10
      vertex 211.486 52.8949 10
      vertex 212.649 52.3877 10
    endloop
  endfacet
  facet normal -0 0 -1
    outer loop
      vertex 210.877 52.8435 10
      vertex 209.912 52.779 10
      vertex 211.6 54.1124 10
    endloop
  endfacet
  facet normal 0 0 -1
    outer loop
      vertex 212.649 52.3877 10
      vertex 211.486 52.8949 10
      vertex 213.739 53.0133 10
    endloop
  endfacet
  facet normal 0 0 -1
    outer loop
      vertex 213.155 54.5852 10
      vertex 211.46 53.2549 10
      vertex 211.6 54.1124 10
    endloop
  endfacet
  facet normal 0 0 -1
    outer loop
      vertex 211.295 53.1322 10
      vertex 211.6 54.1124 10
      vertex 211.46 53.2549 10
    endloop
  endfacet
  facet normal 0 -0 -1
    outer loop
      vertex 212.418 54.714 10
      vertex 213.155 54.5852 10
      vertex 211.6 54.1124 10
    endloop
  endfacet
  facet normal 0 0 -1
    outer loop
      vertex 212.418 54.714 10
      vertex 212.796 55.5492 10
      vertex 213.155 54.5852 10
    endloop
  endfacet
  facet normal 0 0 -1
    outer loop
      vertex 209.595 53.6309 10
      vertex 209.357 54.2703 10
      vertex 211.679 54.406 10
    endloop
  endfacet
  facet normal -0 0 -1
    outer loop
      vertex 214.661 44.4317 10
      vertex 213.261 43.7747 10
      vertex 214.27 45.0585 10
    endloop
  endfacet
  facet normal 0 0 -1
    outer loop
      vertex 214.514 46.1108 10
      vertex 215.821 47.4163 10
      vertex 215.53 46.4884 10
    endloop
  endfacet
  facet normal 0 0 -1
    outer loop
      vertex 211.615 48.2 10
      vertex 212.389 48.777 10
      vertex 213.764 48.2935 10
    endloop
  endfacet
  facet normal 0 0 -1
    outer loop
      vertex 214.309 51.4827 10
      vertex 213.93 50.6475 10
      vertex 213.468 50.4505 10
    endloop
  endfacet
  facet normal 0 0 -1
    outer loop
      vertex 211.615 48.2 10
      vertex 211.424 48.7126 10
      vertex 212.389 48.777 10
    endloop
  endfacet
  facet normal 0 0 -1
    outer loop
      vertex 213.764 48.2935 10
      vertex 212.389 48.777 10
      vertex 212.998 48.8284 10
    endloop
  endfacet
  facet normal -0 0 -1
    outer loop
      vertex 214.774 48.3776 10
      vertex 214.161 48.3212 10
      vertex 215.252 48.9469 10
    endloop
  endfacet
  facet normal 0 0 -1
    outer loop
      vertex 215.608 47.9877 10
      vertex 214.774 48.3776 10
      vertex 215.252 48.9469 10
    endloop
  endfacet
  facet normal 0 -0 -1
    outer loop
      vertex 214.087 48.1494 10
      vertex 215.608 47.9877 10
      vertex 214.016 48.1234 10
    endloop
  endfacet
  facet normal 0 -0 -1
    outer loop
      vertex 214.016 48.1234 10
      vertex 215.608 47.9877 10
      vertex 212.169 46.7088 10
    endloop
  endfacet
  facet normal 0 0 -1
    outer loop
      vertex 214.087 48.1494 10
      vertex 214.158 48.1748 10
      vertex 215.608 47.9877 10
    endloop
  endfacet
  facet normal 0 0 -1
    outer loop
      vertex 212.169 46.7088 10
      vertex 211.932 47.3482 10
      vertex 214.016 48.1234 10
    endloop
  endfacet
  facet normal 0 0 -1
    outer loop
      vertex 215.608 47.9877 10
      vertex 214.158 48.1748 10
      vertex 214.348 48.2381 10
    endloop
  endfacet
  facet normal 0 -0 -1
    outer loop
      vertex 214.774 48.3776 10
      vertex 215.608 47.9877 10
      vertex 214.348 48.2381 10
    endloop
  endfacet
  facet normal 0 0 -1
    outer loop
      vertex 215.873 45.5658 10
      vertex 216.46 45.698 10
      vertex 216.596 45.1285 10
    endloop
  endfacet
  facet normal 0 0 -1
    outer loop
      vertex 213.764 48.2935 10
      vertex 212.998 48.8284 10
      vertex 214.161 48.3212 10
    endloop
  endfacet
  facet normal -0 0 -1
    outer loop
      vertex 212.389 48.777 10
      vertex 211.424 48.7126 10
      vertex 213.112 50.0459 10
    endloop
  endfacet
  facet normal 0 0 -1
    outer loop
      vertex 214.161 48.3212 10
      vertex 212.998 48.8284 10
      vertex 215.252 48.9469 10
    endloop
  endfacet
  facet normal 0 0 -1
    outer loop
      vertex 214.667 50.5187 10
      vertex 212.973 49.1884 10
      vertex 213.112 50.0459 10
    endloop
  endfacet
  facet normal 0 0 -1
    outer loop
      vertex 212.807 49.0657 10
      vertex 213.112 50.0459 10
      vertex 212.973 49.1884 10
    endloop
  endfacet
  facet normal 0 -0 -1
    outer loop
      vertex 214.309 51.4827 10
      vertex 214.667 50.5187 10
      vertex 213.93 50.6475 10
    endloop
  endfacet
  facet normal -0 0 -1
    outer loop
      vertex 214.667 50.5187 10
      vertex 213.112 50.0459 10
      vertex 213.93 50.6475 10
    endloop
  endfacet
  facet normal 0 0 -1
    outer loop
      vertex 215.821 47.4163 10
      vertex 214.514 46.1108 10
      vertex 212.382 46.1373 10
    endloop
  endfacet
  facet normal 0 0 -1
    outer loop
      vertex 211.107 49.5644 10
      vertex 210.87 50.2038 10
      vertex 213.192 50.3395 10
    endloop
  endfacet
  facet normal -0 0 -1
    outer loop
      vertex 213.468 50.4505 10
      vertex 213.192 50.3395 10
      vertex 214.309 51.4827 10
    endloop
  endfacet
  facet normal -0 0 -1
    outer loop
      vertex 213.192 50.3395 10
      vertex 210.87 50.2038 10
      vertex 214.309 51.4827 10
    endloop
  endfacet
  facet normal 0 0 -1
    outer loop
      vertex 214.661 44.4317 10
      vertex 213.562 42.9644 10
      vertex 213.261 43.7747 10
    endloop
  endfacet
  facet normal 0 -0 -1
    outer loop
      vertex 215.613 44.747 10
      vertex 215.912 44.033 10
      vertex 215.557 43.9591 10
    endloop
  endfacet
  facet normal 0 0 -1
    outer loop
      vertex 215.613 44.747 10
      vertex 216.319 44.2794 10
      vertex 215.912 44.033 10
    endloop
  endfacet
  facet normal 0 0 -1
    outer loop
      vertex 216.596 45.1285 10
      vertex 216.548 44.6501 10
      vertex 215.926 45.0438 10
    endloop
  endfacet
  facet normal 0 0 -1
    outer loop
      vertex 215.873 45.5658 10
      vertex 216.596 45.1285 10
      vertex 215.926 45.0438 10
    endloop
  endfacet
  facet normal 0 0 -1
    outer loop
      vertex 214.661 44.4317 10
      vertex 214.27 45.0585 10
      vertex 214.998 44.9154 10
    endloop
  endfacet
  facet normal -0 0 -1
    outer loop
      vertex 214.865 45.1687 10
      vertex 214.27 45.0585 10
      vertex 214.514 46.1108 10
    endloop
  endfacet
  facet normal 0 0 -1
    outer loop
      vertex 214.27 45.0585 10
      vertex 214.865 45.1687 10
      vertex 214.998 44.9154 10
    endloop
  endfacet
  facet normal 0 0 -1
    outer loop
      vertex 215.38 44.7046 10
      vertex 215.212 44.0061 10
      vertex 214.905 44.1662 10
    endloop
  endfacet
  facet normal 0 0 -1
    outer loop
      vertex 212.65 45.4173 10
      vertex 212.382 46.1373 10
      vertex 213.955 45.903 10
    endloop
  endfacet
  facet normal 0 0 -1
    outer loop
      vertex 213.955 45.903 10
      vertex 212.382 46.1373 10
      vertex 214.514 46.1108 10
    endloop
  endfacet
  facet normal 0 0 -1
    outer loop
      vertex 214.514 46.1108 10
      vertex 214.27 45.0585 10
      vertex 213.955 45.903 10
    endloop
  endfacet
  facet normal 0 0 -1
    outer loop
      vertex 215.53 46.4884 10
      vertex 215.821 47.4163 10
      vertex 216.46 45.698 10
    endloop
  endfacet
  facet normal -0 0 -1
    outer loop
      vertex 216.46 45.698 10
      vertex 215.873 45.5658 10
      vertex 215.53 46.4884 10
    endloop
  endfacet
  facet normal 0 0 -1
    outer loop
      vertex 215.613 44.747 10
      vertex 215.926 45.0438 10
      vertex 216.319 44.2794 10
    endloop
  endfacet
  facet normal 0 0 -1
    outer loop
      vertex 215.926 45.0438 10
      vertex 216.548 44.6501 10
      vertex 216.319 44.2794 10
    endloop
  endfacet
  facet normal 0 -0 -1
    outer loop
      vertex 215.38 44.7046 10
      vertex 215.557 43.9591 10
      vertex 215.212 44.0061 10
    endloop
  endfacet
  facet normal 0 0 -1
    outer loop
      vertex 215.613 44.747 10
      vertex 215.557 43.9591 10
      vertex 215.38 44.7046 10
    endloop
  endfacet
  facet normal 0 -0 -1
    outer loop
      vertex 215.172 44.7607 10
      vertex 215.38 44.7046 10
      vertex 214.905 44.1662 10
    endloop
  endfacet
  facet normal 0 0 -1
    outer loop
      vertex 214.661 44.4317 10
      vertex 215.172 44.7607 10
      vertex 214.905 44.1662 10
    endloop
  endfacet
  facet normal 0 0 -1
    outer loop
      vertex 214.661 44.4317 10
      vertex 214.998 44.9154 10
      vertex 215.172 44.7607 10
    endloop
  endfacet
  facet normal -0 0 1
    outer loop
      vertex 213.262 52.4441 10.8
      vertex 214.096 52.0542 10.8
      vertex 213.739 53.0133 10.8
    endloop
  endfacet
  facet normal 0 -0 1
    outer loop
      vertex 212.418 54.714 10.8
      vertex 212.796 55.5492 10.8
      vertex 211.956 54.517 10.8
    endloop
  endfacet
  facet normal 0 0 1
    outer loop
      vertex 212.796 55.5492 10.8
      vertex 209.357 54.2703 10.8
      vertex 211.679 54.406 10.8
    endloop
  endfacet
  facet normal 0 -0 1
    outer loop
      vertex 211.956 54.517 10.8
      vertex 212.796 55.5492 10.8
      vertex 211.679 54.406 10.8
    endloop
  endfacet
  facet normal 0 0 1
    outer loop
      vertex 210.877 52.8435 10.8
      vertex 209.912 52.779 10.8
      vertex 210.102 52.2665 10.8
    endloop
  endfacet
  facet normal 0 0 1
    outer loop
      vertex 211.486 52.8949 10.8
      vertex 210.877 52.8435 10.8
      vertex 212.251 52.36 10.8
    endloop
  endfacet
  facet normal 0 -0 1
    outer loop
      vertex 211.295 53.1322 10.8
      vertex 211.6 54.1124 10.8
      vertex 210.877 52.8435 10.8
    endloop
  endfacet
  facet normal 0 0 1
    outer loop
      vertex 212.649 52.3877 10.8
      vertex 213.262 52.4441 10.8
      vertex 213.739 53.0133 10.8
    endloop
  endfacet
  facet normal -0 0 1
    outer loop
      vertex 212.504 52.1899 10.8
      vertex 214.096 52.0542 10.8
      vertex 212.574 52.2159 10.8
    endloop
  endfacet
  facet normal 0 0 1
    outer loop
      vertex 210.657 50.7752 10.8
      vertex 214.096 52.0542 10.8
      vertex 212.504 52.1899 10.8
    endloop
  endfacet
  facet normal 0 0 1
    outer loop
      vertex 214.096 52.0542 10.8
      vertex 212.646 52.2413 10.8
      vertex 212.574 52.2159 10.8
    endloop
  endfacet
  facet normal 0 0 1
    outer loop
      vertex 212.504 52.1899 10.8
      vertex 210.419 51.4147 10.8
      vertex 210.657 50.7752 10.8
    endloop
  endfacet
  facet normal 0 0 1
    outer loop
      vertex 212.835 52.3045 10.8
      vertex 212.646 52.2413 10.8
      vertex 214.096 52.0542 10.8
    endloop
  endfacet
  facet normal -0 0 1
    outer loop
      vertex 212.835 52.3045 10.8
      vertex 214.096 52.0542 10.8
      vertex 213.262 52.4441 10.8
    endloop
  endfacet
  facet normal 0 -0 1
    outer loop
      vertex 212.807 49.0657 10.8
      vertex 213.112 50.0459 10.8
      vertex 212.389 48.777 10.8
    endloop
  endfacet
  facet normal 0 0 1
    outer loop
      vertex 212.251 52.36 10.8
      vertex 210.877 52.8435 10.8
      vertex 210.102 52.2665 10.8
    endloop
  endfacet
  facet normal 0 0 1
    outer loop
      vertex 212.649 52.3877 10.8
      vertex 211.486 52.8949 10.8
      vertex 212.251 52.36 10.8
    endloop
  endfacet
  facet normal 0 0 1
    outer loop
      vertex 211.6 54.1124 10.8
      vertex 209.912 52.779 10.8
      vertex 210.877 52.8435 10.8
    endloop
  endfacet
  facet normal 0 0 1
    outer loop
      vertex 213.739 53.0133 10.8
      vertex 211.486 52.8949 10.8
      vertex 212.649 52.3877 10.8
    endloop
  endfacet
  facet normal -0 0 1
    outer loop
      vertex 211.6 54.1124 10.8
      vertex 211.46 53.2549 10.8
      vertex 213.155 54.5852 10.8
    endloop
  endfacet
  facet normal 0 -0 1
    outer loop
      vertex 211.46 53.2549 10.8
      vertex 211.6 54.1124 10.8
      vertex 211.295 53.1322 10.8
    endloop
  endfacet
  facet normal 0 0 1
    outer loop
      vertex 211.6 54.1124 10.8
      vertex 213.155 54.5852 10.8
      vertex 212.418 54.714 10.8
    endloop
  endfacet
  facet normal 0 0 1
    outer loop
      vertex 213.155 54.5852 10.8
      vertex 212.796 55.5492 10.8
      vertex 212.418 54.714 10.8
    endloop
  endfacet
  facet normal 0 0 1
    outer loop
      vertex 211.679 54.406 10.8
      vertex 209.357 54.2703 10.8
      vertex 209.595 53.6309 10.8
    endloop
  endfacet
  facet normal 0 0 1
    outer loop
      vertex 214.27 45.0585 10.8
      vertex 213.261 43.7747 10.8
      vertex 214.661 44.4317 10.8
    endloop
  endfacet
  facet normal 0 -0 1
    outer loop
      vertex 215.53 46.4884 10.8
      vertex 215.821 47.4163 10.8
      vertex 214.514 46.1108 10.8
    endloop
  endfacet
  facet normal 0 0 1
    outer loop
      vertex 213.764 48.2935 10.8
      vertex 212.389 48.777 10.8
      vertex 211.615 48.2 10.8
    endloop
  endfacet
  facet normal 0 0 1
    outer loop
      vertex 213.468 50.4505 10.8
      vertex 213.93 50.6475 10.8
      vertex 214.309 51.4827 10.8
    endloop
  endfacet
  facet normal 0 0 1
    outer loop
      vertex 212.389 48.777 10.8
      vertex 211.424 48.7126 10.8
      vertex 211.615 48.2 10.8
    endloop
  endfacet
  facet normal 0 0 1
    outer loop
      vertex 212.998 48.8284 10.8
      vertex 212.389 48.777 10.8
      vertex 213.764 48.2935 10.8
    endloop
  endfacet
  facet normal 0 0 1
    outer loop
      vertex 215.252 48.9469 10.8
      vertex 214.161 48.3212 10.8
      vertex 214.774 48.3776 10.8
    endloop
  endfacet
  facet normal 0 0 1
    outer loop
      vertex 215.252 48.9469 10.8
      vertex 214.774 48.3776 10.8
      vertex 215.608 47.9877 10.8
    endloop
  endfacet
  facet normal -0 0 1
    outer loop
      vertex 214.016 48.1234 10.8
      vertex 215.608 47.9877 10.8
      vertex 214.087 48.1494 10.8
    endloop
  endfacet
  facet normal 0 0 1
    outer loop
      vertex 212.169 46.7088 10.8
      vertex 215.608 47.9877 10.8
      vertex 214.016 48.1234 10.8
    endloop
  endfacet
  facet normal 0 0 1
    outer loop
      vertex 215.608 47.9877 10.8
      vertex 214.158 48.1748 10.8
      vertex 214.087 48.1494 10.8
    endloop
  endfacet
  facet normal 0 0 1
    outer loop
      vertex 214.016 48.1234 10.8
      vertex 211.932 47.3482 10.8
      vertex 212.169 46.7088 10.8
    endloop
  endfacet
  facet normal 0 0 1
    outer loop
      vertex 214.348 48.2381 10.8
      vertex 214.158 48.1748 10.8
      vertex 215.608 47.9877 10.8
    endloop
  endfacet
  facet normal -0 0 1
    outer loop
      vertex 214.348 48.2381 10.8
      vertex 215.608 47.9877 10.8
      vertex 214.774 48.3776 10.8
    endloop
  endfacet
  facet normal 0 0 1
    outer loop
      vertex 216.596 45.1285 10.8
      vertex 216.46 45.698 10.8
      vertex 215.873 45.5658 10.8
    endloop
  endfacet
  facet normal 0 0 1
    outer loop
      vertex 214.161 48.3212 10.8
      vertex 212.998 48.8284 10.8
      vertex 213.764 48.2935 10.8
    endloop
  endfacet
  facet normal 0 0 1
    outer loop
      vertex 213.112 50.0459 10.8
      vertex 211.424 48.7126 10.8
      vertex 212.389 48.777 10.8
    endloop
  endfacet
  facet normal 0 0 1
    outer loop
      vertex 215.252 48.9469 10.8
      vertex 212.998 48.8284 10.8
      vertex 214.161 48.3212 10.8
    endloop
  endfacet
  facet normal -0 0 1
    outer loop
      vertex 213.112 50.0459 10.8
      vertex 212.973 49.1884 10.8
      vertex 214.667 50.5187 10.8
    endloop
  endfacet
  facet normal 0 -0 1
    outer loop
      vertex 212.973 49.1884 10.8
      vertex 213.112 50.0459 10.8
      vertex 212.807 49.0657 10.8
    endloop
  endfacet
  facet normal -0 0 1
    outer loop
      vertex 213.93 50.6475 10.8
      vertex 214.667 50.5187 10.8
      vertex 214.309 51.4827 10.8
    endloop
  endfacet
  facet normal 0 0 1
    outer loop
      vertex 213.93 50.6475 10.8
      vertex 213.112 50.0459 10.8
      vertex 214.667 50.5187 10.8
    endloop
  endfacet
  facet normal -0 0 1
    outer loop
      vertex 212.382 46.1373 10.8
      vertex 214.514 46.1108 10.8
      vertex 215.821 47.4163 10.8
    endloop
  endfacet
  facet normal 0 0 1
    outer loop
      vertex 213.192 50.3395 10.8
      vertex 210.87 50.2038 10.8
      vertex 211.107 49.5644 10.8
    endloop
  endfacet
  facet normal 0 0 1
    outer loop
      vertex 214.309 51.4827 10.8
      vertex 213.192 50.3395 10.8
      vertex 213.468 50.4505 10.8
    endloop
  endfacet
  facet normal 0 0 1
    outer loop
      vertex 214.309 51.4827 10.8
      vertex 210.87 50.2038 10.8
      vertex 213.192 50.3395 10.8
    endloop
  endfacet
  facet normal -0 0 1
    outer loop
      vertex 213.261 43.7747 10.8
      vertex 213.562 42.9644 10.8
      vertex 214.661 44.4317 10.8
    endloop
  endfacet
  facet normal 0 0 1
    outer loop
      vertex 215.557 43.9591 10.8
      vertex 215.912 44.033 10.8
      vertex 215.613 44.747 10.8
    endloop
  endfacet
  facet normal 0 -0 1
    outer loop
      vertex 215.912 44.033 10.8
      vertex 216.319 44.2794 10.8
      vertex 215.613 44.747 10.8
    endloop
  endfacet
  facet normal -0 0 1
    outer loop
      vertex 215.926 45.0438 10.8
      vertex 216.548 44.6501 10.8
      vertex 216.596 45.1285 10.8
    endloop
  endfacet
  facet normal 0 -0 1
    outer loop
      vertex 215.926 45.0438 10.8
      vertex 216.596 45.1285 10.8
      vertex 215.873 45.5658 10.8
    endloop
  endfacet
  facet normal 0 0 1
    outer loop
      vertex 214.998 44.9154 10.8
      vertex 214.27 45.0585 10.8
      vertex 214.661 44.4317 10.8
    endloop
  endfacet
  facet normal 0 0 1
    outer loop
      vertex 214.514 46.1108 10.8
      vertex 214.27 45.0585 10.8
      vertex 214.865 45.1687 10.8
    endloop
  endfacet
  facet normal 0 0 1
    outer loop
      vertex 214.998 44.9154 10.8
      vertex 214.865 45.1687 10.8
      vertex 214.27 45.0585 10.8
    endloop
  endfacet
  facet normal -0 0 1
    outer loop
      vertex 214.905 44.1662 10.8
      vertex 215.212 44.0061 10.8
      vertex 215.38 44.7046 10.8
    endloop
  endfacet
  facet normal 0 0 1
    outer loop
      vertex 213.955 45.903 10.8
      vertex 212.382 46.1373 10.8
      vertex 212.65 45.4173 10.8
    endloop
  endfacet
  facet normal 0 0 1
    outer loop
      vertex 214.514 46.1108 10.8
      vertex 212.382 46.1373 10.8
      vertex 213.955 45.903 10.8
    endloop
  endfacet
  facet normal -0 0 1
    outer loop
      vertex 213.955 45.903 10.8
      vertex 214.27 45.0585 10.8
      vertex 214.514 46.1108 10.8
    endloop
  endfacet
  facet normal 0 0 1
    outer loop
      vertex 216.46 45.698 10.8
      vertex 215.821 47.4163 10.8
      vertex 215.53 46.4884 10.8
    endloop
  endfacet
  facet normal 0 0 1
    outer loop
      vertex 215.53 46.4884 10.8
      vertex 215.873 45.5658 10.8
      vertex 216.46 45.698 10.8
    endloop
  endfacet
  facet normal 0 0 1
    outer loop
      vertex 216.319 44.2794 10.8
      vertex 215.926 45.0438 10.8
      vertex 215.613 44.747 10.8
    endloop
  endfacet
  facet normal 0 -0 1
    outer loop
      vertex 216.319 44.2794 10.8
      vertex 216.548 44.6501 10.8
      vertex 215.926 45.0438 10.8
    endloop
  endfacet
  facet normal -0 0 1
    outer loop
      vertex 215.212 44.0061 10.8
      vertex 215.557 43.9591 10.8
      vertex 215.38 44.7046 10.8
    endloop
  endfacet
  facet normal -0 0 1
    outer loop
      vertex 215.38 44.7046 10.8
      vertex 215.557 43.9591 10.8
      vertex 215.613 44.747 10.8
    endloop
  endfacet
  facet normal 0 0 1
    outer loop
      vertex 214.905 44.1662 10.8
      vertex 215.38 44.7046 10.8
      vertex 215.172 44.7607 10.8
    endloop
  endfacet
  facet normal 0 -0 1
    outer loop
      vertex 214.905 44.1662 10.8
      vertex 215.172 44.7607 10.8
      vertex 214.661 44.4317 10.8
    endloop
  endfacet
  facet normal 0 0 1
    outer loop
      vertex 215.172 44.7607 10.8
      vertex 214.998 44.9154 10.8
      vertex 214.661 44.4317 10.8
    endloop
  endfacet
  facet normal 0.371968 -0.928245 0
    outer loop
      vertex 211.956 54.517 10
      vertex 211.679 54.406 10.8
      vertex 211.679 54.406 10
    endloop
  endfacet
  facet normal 0.371968 -0.928245 0
    outer loop
      vertex 211.956 54.517 10
      vertex 211.956 54.517 10.8
      vertex 211.679 54.406 10.8
    endloop
  endfacet
  facet normal 0.392237 -0.919864 0
    outer loop
      vertex 212.418 54.714 10
      vertex 211.956 54.517 10.8
      vertex 211.956 54.517 10
    endloop
  endfacet
  facet normal 0.392237 -0.919864 0
    outer loop
      vertex 212.418 54.714 10
      vertex 212.418 54.714 10.8
      vertex 211.956 54.517 10.8
    endloop
  endfacet
  facet normal -0.592473 0.80559 0
    outer loop
      vertex 211.6 54.1124 10
      vertex 212.418 54.714 10.8
      vertex 212.418 54.714 10
    endloop
  endfacet
  facet normal -0.592473 0.80559 0
    outer loop
      vertex 211.6 54.1124 10
      vertex 211.6 54.1124 10.8
      vertex 212.418 54.714 10.8
    endloop
  endfacet
  facet normal -0.619864 0.784709 0
    outer loop
      vertex 209.912 52.779 10
      vertex 211.6 54.1124 10.8
      vertex 211.6 54.1124 10
    endloop
  endfacet
  facet normal -0.619864 0.784709 0
    outer loop
      vertex 209.912 52.779 10
      vertex 209.912 52.779 10.8
      vertex 211.6 54.1124 10.8
    endloop
  endfacet
  facet normal -0.937638 -0.347612 0
    outer loop
      vertex 210.102 52.2665 10
      vertex 209.912 52.779 10.8
      vertex 209.912 52.779 10
    endloop
  endfacet
  facet normal -0.937638 -0.347612 0
    outer loop
      vertex 210.102 52.2665 10
      vertex 210.102 52.2665 10.8
      vertex 209.912 52.779 10.8
    endloop
  endfacet
  facet normal 0.0434675 -0.999055 0
    outer loop
      vertex 212.251 52.36 10
      vertex 210.102 52.2665 10.8
      vertex 210.102 52.2665 10
    endloop
  endfacet
  facet normal 0.0434675 -0.999055 0
    outer loop
      vertex 212.251 52.36 10
      vertex 212.251 52.36 10.8
      vertex 210.102 52.2665 10.8
    endloop
  endfacet
  facet normal 0.06943 -0.997587 0
    outer loop
      vertex 212.649 52.3877 10
      vertex 212.251 52.36 10.8
      vertex 212.251 52.36 10
    endloop
  endfacet
  facet normal 0.06943 -0.997587 0
    outer loop
      vertex 212.649 52.3877 10
      vertex 212.649 52.3877 10.8
      vertex 212.251 52.36 10.8
    endloop
  endfacet
  facet normal 0.0916196 -0.995794 0
    outer loop
      vertex 213.262 52.4441 10
      vertex 212.649 52.3877 10.8
      vertex 212.649 52.3877 10
    endloop
  endfacet
  facet normal 0.0916196 -0.995794 0
    outer loop
      vertex 213.262 52.4441 10
      vertex 213.262 52.4441 10.8
      vertex 212.649 52.3877 10.8
    endloop
  endfacet
  facet normal -0.310747 0.950493 0
    outer loop
      vertex 212.835 52.3045 10
      vertex 213.262 52.4441 10.8
      vertex 213.262 52.4441 10
    endloop
  endfacet
  facet normal -0.310747 0.950493 0
    outer loop
      vertex 212.835 52.3045 10
      vertex 212.835 52.3045 10.8
      vertex 213.262 52.4441 10.8
    endloop
  endfacet
  facet normal -0.317131 0.948382 0
    outer loop
      vertex 212.646 52.2413 10
      vertex 212.835 52.3045 10.8
      vertex 212.835 52.3045 10
    endloop
  endfacet
  facet normal -0.317131 0.948382 0
    outer loop
      vertex 212.646 52.2413 10
      vertex 212.646 52.2413 10.8
      vertex 212.835 52.3045 10.8
    endloop
  endfacet
  facet normal -0.332683 0.943039 0
    outer loop
      vertex 212.574 52.2159 10
      vertex 212.646 52.2413 10.8
      vertex 212.646 52.2413 10
    endloop
  endfacet
  facet normal -0.332683 0.943039 0
    outer loop
      vertex 212.574 52.2159 10
      vertex 212.574 52.2159 10.8
      vertex 212.646 52.2413 10.8
    endloop
  endfacet
  facet normal -0.348187 0.937425 0
    outer loop
      vertex 212.504 52.1899 10
      vertex 212.574 52.2159 10.8
      vertex 212.574 52.2159 10
    endloop
  endfacet
  facet normal -0.348187 0.937425 0
    outer loop
      vertex 212.504 52.1899 10
      vertex 212.504 52.1899 10.8
      vertex 212.574 52.2159 10.8
    endloop
  endfacet
  facet normal -0.348491 0.937312 0
    outer loop
      vertex 210.419 51.4147 10
      vertex 212.504 52.1899 10.8
      vertex 212.504 52.1899 10
    endloop
  endfacet
  facet normal -0.348491 0.937312 0
    outer loop
      vertex 210.419 51.4147 10
      vertex 210.419 51.4147 10.8
      vertex 212.504 52.1899 10.8
    endloop
  endfacet
  facet normal -0.9372 -0.348794 0
    outer loop
      vertex 210.657 50.7752 10
      vertex 210.419 51.4147 10.8
      vertex 210.419 51.4147 10
    endloop
  endfacet
  facet normal -0.9372 -0.348794 0
    outer loop
      vertex 210.657 50.7752 10
      vertex 210.657 50.7752 10.8
      vertex 210.419 51.4147 10.8
    endloop
  endfacet
  facet normal 0.348583 -0.937278 0
    outer loop
      vertex 214.096 52.0542 10
      vertex 210.657 50.7752 10.8
      vertex 210.657 50.7752 10
    endloop
  endfacet
  facet normal 0.348583 -0.937278 0
    outer loop
      vertex 214.096 52.0542 10
      vertex 214.096 52.0542 10.8
      vertex 210.657 50.7752 10.8
    endloop
  endfacet
  facet normal 0.937182 0.348841 0
    outer loop
      vertex 213.739 53.0133 10
      vertex 214.096 52.0542 10.8
      vertex 214.096 52.0542 10
    endloop
  endfacet
  facet normal 0.937182 0.348841 -0
    outer loop
      vertex 213.739 53.0133 10
      vertex 213.739 53.0133 10.8
      vertex 214.096 52.0542 10.8
    endloop
  endfacet
  facet normal -0.0524797 0.998622 0
    outer loop
      vertex 211.486 52.8949 10
      vertex 213.739 53.0133 10.8
      vertex 213.739 53.0133 10
    endloop
  endfacet
  facet normal -0.0524797 0.998622 0
    outer loop
      vertex 211.486 52.8949 10
      vertex 211.486 52.8949 10.8
      vertex 213.739 53.0133 10.8
    endloop
  endfacet
  facet normal -0.0841016 0.996457 0
    outer loop
      vertex 210.877 52.8435 10
      vertex 211.486 52.8949 10.8
      vertex 211.486 52.8949 10
    endloop
  endfacet
  facet normal -0.0841016 0.996457 0
    outer loop
      vertex 210.877 52.8435 10
      vertex 210.877 52.8435 10.8
      vertex 211.486 52.8949 10.8
    endloop
  endfacet
  facet normal 0.568299 -0.822822 0
    outer loop
      vertex 211.295 53.1322 10
      vertex 210.877 52.8435 10.8
      vertex 210.877 52.8435 10
    endloop
  endfacet
  facet normal 0.568299 -0.822822 0
    outer loop
      vertex 211.295 53.1322 10
      vertex 211.295 53.1322 10.8
      vertex 210.877 52.8435 10.8
    endloop
  endfacet
  facet normal 0.596727 -0.802444 0
    outer loop
      vertex 211.46 53.2549 10
      vertex 211.295 53.1322 10.8
      vertex 211.295 53.1322 10
    endloop
  endfacet
  facet normal 0.596727 -0.802444 0
    outer loop
      vertex 211.46 53.2549 10
      vertex 211.46 53.2549 10.8
      vertex 211.295 53.1322 10.8
    endloop
  endfacet
  facet normal 0.617395 -0.786653 0
    outer loop
      vertex 213.155 54.5852 10
      vertex 211.46 53.2549 10.8
      vertex 211.46 53.2549 10
    endloop
  endfacet
  facet normal 0.617395 -0.786653 0
    outer loop
      vertex 213.155 54.5852 10
      vertex 213.155 54.5852 10.8
      vertex 211.46 53.2549 10.8
    endloop
  endfacet
  facet normal 0.937126 0.348992 0
    outer loop
      vertex 212.796 55.5492 10
      vertex 213.155 54.5852 10.8
      vertex 213.155 54.5852 10
    endloop
  endfacet
  facet normal 0.937126 0.348992 -0
    outer loop
      vertex 212.796 55.5492 10
      vertex 212.796 55.5492 10.8
      vertex 213.155 54.5852 10.8
    endloop
  endfacet
  facet normal -0.348559 0.937287 0
    outer loop
      vertex 209.357 54.2703 10
      vertex 212.796 55.5492 10.8
      vertex 212.796 55.5492 10
    endloop
  endfacet
  facet normal -0.348559 0.937287 0
    outer loop
      vertex 209.357 54.2703 10
      vertex 209.357 54.2703 10.8
      vertex 212.796 55.5492 10.8
    endloop
  endfacet
  facet normal -0.937182 -0.348841 0
    outer loop
      vertex 209.595 53.6309 10
      vertex 209.357 54.2703 10.8
      vertex 209.357 54.2703 10
    endloop
  endfacet
  facet normal -0.937182 -0.348841 0
    outer loop
      vertex 209.595 53.6309 10
      vertex 209.595 53.6309 10.8
      vertex 209.357 54.2703 10.8
    endloop
  endfacet
  facet normal 0.348599 -0.937272 0
    outer loop
      vertex 211.679 54.406 10
      vertex 209.595 53.6309 10.8
      vertex 209.595 53.6309 10
    endloop
  endfacet
  facet normal 0.348599 -0.937272 0
    outer loop
      vertex 211.679 54.406 10
      vertex 211.679 54.406 10.8
      vertex 209.595 53.6309 10.8
    endloop
  endfacet
  facet normal 0.373129 -0.92778 0
    outer loop
      vertex 213.468 50.4505 10
      vertex 213.192 50.3395 10.8
      vertex 213.192 50.3395 10
    endloop
  endfacet
  facet normal 0.373129 -0.92778 0
    outer loop
      vertex 213.468 50.4505 10
      vertex 213.468 50.4505 10.8
      vertex 213.192 50.3395 10.8
    endloop
  endfacet
  facet normal 0.392237 -0.919864 0
    outer loop
      vertex 213.93 50.6475 10
      vertex 213.468 50.4505 10.8
      vertex 213.468 50.4505 10
    endloop
  endfacet
  facet normal 0.392237 -0.919864 0
    outer loop
      vertex 213.93 50.6475 10
      vertex 213.93 50.6475 10.8
      vertex 213.468 50.4505 10.8
    endloop
  endfacet
  facet normal -0.592473 0.80559 0
    outer loop
      vertex 213.112 50.0459 10
      vertex 213.93 50.6475 10.8
      vertex 213.93 50.6475 10
    endloop
  endfacet
  facet normal -0.592473 0.80559 0
    outer loop
      vertex 213.112 50.0459 10
      vertex 213.112 50.0459 10.8
      vertex 213.93 50.6475 10.8
    endloop
  endfacet
  facet normal -0.619836 0.784732 0
    outer loop
      vertex 211.424 48.7126 10
      vertex 213.112 50.0459 10.8
      vertex 213.112 50.0459 10
    endloop
  endfacet
  facet normal -0.619836 0.784732 0
    outer loop
      vertex 211.424 48.7126 10
      vertex 211.424 48.7126 10.8
      vertex 213.112 50.0459 10.8
    endloop
  endfacet
  facet normal -0.937063 -0.349159 0
    outer loop
      vertex 211.615 48.2 10
      vertex 211.424 48.7126 10.8
      vertex 211.424 48.7126 10
    endloop
  endfacet
  facet normal -0.937063 -0.349159 0
    outer loop
      vertex 211.615 48.2 10
      vertex 211.615 48.2 10.8
      vertex 211.424 48.7126 10.8
    endloop
  endfacet
  facet normal 0.0434675 -0.999055 0
    outer loop
      vertex 213.764 48.2935 10
      vertex 211.615 48.2 10.8
      vertex 211.615 48.2 10
    endloop
  endfacet
  facet normal 0.0434675 -0.999055 0
    outer loop
      vertex 213.764 48.2935 10
      vertex 213.764 48.2935 10.8
      vertex 211.615 48.2 10.8
    endloop
  endfacet
  facet normal 0.0696041 -0.997575 0
    outer loop
      vertex 214.161 48.3212 10
      vertex 213.764 48.2935 10.8
      vertex 213.764 48.2935 10
    endloop
  endfacet
  facet normal 0.0696041 -0.997575 0
    outer loop
      vertex 214.161 48.3212 10
      vertex 214.161 48.3212 10.8
      vertex 213.764 48.2935 10.8
    endloop
  endfacet
  facet normal 0.0916196 -0.995794 0
    outer loop
      vertex 214.774 48.3776 10
      vertex 214.161 48.3212 10.8
      vertex 214.161 48.3212 10
    endloop
  endfacet
  facet normal 0.0916196 -0.995794 0
    outer loop
      vertex 214.774 48.3776 10
      vertex 214.774 48.3776 10.8
      vertex 214.161 48.3212 10.8
    endloop
  endfacet
  facet normal -0.311204 0.950343 0
    outer loop
      vertex 214.348 48.2381 10
      vertex 214.774 48.3776 10.8
      vertex 214.774 48.3776 10
    endloop
  endfacet
  facet normal -0.311204 0.950343 0
    outer loop
      vertex 214.348 48.2381 10
      vertex 214.348 48.2381 10.8
      vertex 214.774 48.3776 10.8
    endloop
  endfacet
  facet normal -0.316078 0.948733 0
    outer loop
      vertex 214.158 48.1748 10
      vertex 214.348 48.2381 10.8
      vertex 214.348 48.2381 10
    endloop
  endfacet
  facet normal -0.316078 0.948733 0
    outer loop
      vertex 214.158 48.1748 10
      vertex 214.158 48.1748 10.8
      vertex 214.348 48.2381 10.8
    endloop
  endfacet
  facet normal -0.33684 0.941562 0
    outer loop
      vertex 214.087 48.1494 10
      vertex 214.158 48.1748 10.8
      vertex 214.158 48.1748 10
    endloop
  endfacet
  facet normal -0.33684 0.941562 0
    outer loop
      vertex 214.087 48.1494 10
      vertex 214.087 48.1494 10.8
      vertex 214.158 48.1748 10.8
    endloop
  endfacet
  facet normal -0.343866 0.939019 0
    outer loop
      vertex 214.016 48.1234 10
      vertex 214.087 48.1494 10.8
      vertex 214.087 48.1494 10
    endloop
  endfacet
  facet normal -0.343866 0.939019 0
    outer loop
      vertex 214.016 48.1234 10
      vertex 214.016 48.1234 10.8
      vertex 214.087 48.1494 10.8
    endloop
  endfacet
  facet normal -0.348638 0.937257 0
    outer loop
      vertex 211.932 47.3482 10
      vertex 214.016 48.1234 10.8
      vertex 214.016 48.1234 10
    endloop
  endfacet
  facet normal -0.348638 0.937257 0
    outer loop
      vertex 211.932 47.3482 10
      vertex 211.932 47.3482 10.8
      vertex 214.016 48.1234 10.8
    endloop
  endfacet
  facet normal -0.93766 -0.347553 0
    outer loop
      vertex 212.169 46.7088 10
      vertex 211.932 47.3482 10.8
      vertex 211.932 47.3482 10
    endloop
  endfacet
  facet normal -0.93766 -0.347553 0
    outer loop
      vertex 212.169 46.7088 10
      vertex 212.169 46.7088 10.8
      vertex 211.932 47.3482 10.8
    endloop
  endfacet
  facet normal 0.348559 -0.937287 0
    outer loop
      vertex 215.608 47.9877 10
      vertex 212.169 46.7088 10.8
      vertex 212.169 46.7088 10
    endloop
  endfacet
  facet normal 0.348559 -0.937287 0
    outer loop
      vertex 215.608 47.9877 10
      vertex 215.608 47.9877 10.8
      vertex 212.169 46.7088 10.8
    endloop
  endfacet
  facet normal 0.937513 0.347951 0
    outer loop
      vertex 215.252 48.9469 10
      vertex 215.608 47.9877 10.8
      vertex 215.608 47.9877 10
    endloop
  endfacet
  facet normal 0.937513 0.347951 -0
    outer loop
      vertex 215.252 48.9469 10
      vertex 215.252 48.9469 10.8
      vertex 215.608 47.9877 10.8
    endloop
  endfacet
  facet normal -0.0525007 0.998621 0
    outer loop
      vertex 212.998 48.8284 10
      vertex 215.252 48.9469 10.8
      vertex 215.252 48.9469 10
    endloop
  endfacet
  facet normal -0.0525007 0.998621 0
    outer loop
      vertex 212.998 48.8284 10
      vertex 212.998 48.8284 10.8
      vertex 215.252 48.9469 10.8
    endloop
  endfacet
  facet normal -0.0841016 0.996457 0
    outer loop
      vertex 212.389 48.777 10
      vertex 212.998 48.8284 10.8
      vertex 212.998 48.8284 10
    endloop
  endfacet
  facet normal -0.0841016 0.996457 0
    outer loop
      vertex 212.389 48.777 10
      vertex 212.389 48.777 10.8
      vertex 212.998 48.8284 10.8
    endloop
  endfacet
  facet normal 0.568299 -0.822822 0
    outer loop
      vertex 212.807 49.0657 10
      vertex 212.389 48.777 10.8
      vertex 212.389 48.777 10
    endloop
  endfacet
  facet normal 0.568299 -0.822822 0
    outer loop
      vertex 212.807 49.0657 10
      vertex 212.807 49.0657 10.8
      vertex 212.389 48.777 10.8
    endloop
  endfacet
  facet normal 0.594405 -0.804166 0
    outer loop
      vertex 212.973 49.1884 10
      vertex 212.807 49.0657 10.8
      vertex 212.807 49.0657 10
    endloop
  endfacet
  facet normal 0.594405 -0.804166 0
    outer loop
      vertex 212.973 49.1884 10
      vertex 212.973 49.1884 10.8
      vertex 212.807 49.0657 10.8
    endloop
  endfacet
  facet normal 0.617621 -0.786476 0
    outer loop
      vertex 214.667 50.5187 10
      vertex 212.973 49.1884 10.8
      vertex 212.973 49.1884 10
    endloop
  endfacet
  facet normal 0.617621 -0.786476 0
    outer loop
      vertex 214.667 50.5187 10
      vertex 214.667 50.5187 10.8
      vertex 212.973 49.1884 10.8
    endloop
  endfacet
  facet normal 0.937443 0.348138 0
    outer loop
      vertex 214.309 51.4827 10
      vertex 214.667 50.5187 10.8
      vertex 214.667 50.5187 10
    endloop
  endfacet
  facet normal 0.937443 0.348138 -0
    outer loop
      vertex 214.309 51.4827 10
      vertex 214.309 51.4827 10.8
      vertex 214.667 50.5187 10.8
    endloop
  endfacet
  facet normal -0.348559 0.937287 0
    outer loop
      vertex 210.87 50.2038 10
      vertex 214.309 51.4827 10.8
      vertex 214.309 51.4827 10
    endloop
  endfacet
  facet normal -0.348559 0.937287 0
    outer loop
      vertex 210.87 50.2038 10
      vertex 210.87 50.2038 10.8
      vertex 214.309 51.4827 10.8
    endloop
  endfacet
  facet normal -0.93766 -0.347553 0
    outer loop
      vertex 211.107 49.5644 10
      vertex 210.87 50.2038 10.8
      vertex 210.87 50.2038 10
    endloop
  endfacet
  facet normal -0.93766 -0.347553 0
    outer loop
      vertex 211.107 49.5644 10
      vertex 211.107 49.5644 10.8
      vertex 210.87 50.2038 10.8
    endloop
  endfacet
  facet normal 0.348452 -0.937327 0
    outer loop
      vertex 213.192 50.3395 10
      vertex 211.107 49.5644 10.8
      vertex 211.107 49.5644 10
    endloop
  endfacet
  facet normal 0.348452 -0.937327 0
    outer loop
      vertex 213.192 50.3395 10
      vertex 213.192 50.3395 10.8
      vertex 211.107 49.5644 10.8
    endloop
  endfacet
  facet normal -0.936943 -0.349482 0
    outer loop
      vertex 214.27 45.0585 10
      vertex 213.955 45.903 10.8
      vertex 213.955 45.903 10
    endloop
  endfacet
  facet normal -0.936943 -0.349482 0
    outer loop
      vertex 214.27 45.0585 10
      vertex 214.27 45.0585 10.8
      vertex 213.955 45.903 10.8
    endloop
  endfacet
  facet normal -0.786229 0.617935 0
    outer loop
      vertex 213.261 43.7747 10
      vertex 214.27 45.0585 10.8
      vertex 214.27 45.0585 10
    endloop
  endfacet
  facet normal -0.786229 0.617935 0
    outer loop
      vertex 213.261 43.7747 10
      vertex 213.261 43.7747 10.8
      vertex 214.27 45.0585 10.8
    endloop
  endfacet
  facet normal -0.937413 -0.348218 0
    outer loop
      vertex 213.562 42.9644 10
      vertex 213.261 43.7747 10.8
      vertex 213.261 43.7747 10
    endloop
  endfacet
  facet normal -0.937413 -0.348218 0
    outer loop
      vertex 213.562 42.9644 10
      vertex 213.562 42.9644 10.8
      vertex 213.261 43.7747 10.8
    endloop
  endfacet
  facet normal 0.800386 -0.599485 0
    outer loop
      vertex 214.661 44.4317 10
      vertex 213.562 42.9644 10.8
      vertex 213.562 42.9644 10
    endloop
  endfacet
  facet normal 0.800386 -0.599485 0
    outer loop
      vertex 214.661 44.4317 10
      vertex 214.661 44.4317 10.8
      vertex 213.562 42.9644 10.8
    endloop
  endfacet
  facet normal -0.73629 -0.676666 0
    outer loop
      vertex 214.905 44.1662 10
      vertex 214.661 44.4317 10.8
      vertex 214.661 44.4317 10
    endloop
  endfacet
  facet normal -0.73629 -0.676666 0
    outer loop
      vertex 214.905 44.1662 10
      vertex 214.905 44.1662 10.8
      vertex 214.661 44.4317 10.8
    endloop
  endfacet
  facet normal -0.462398 -0.886672 0
    outer loop
      vertex 215.212 44.0061 10
      vertex 214.905 44.1662 10.8
      vertex 214.905 44.1662 10
    endloop
  endfacet
  facet normal -0.462398 -0.886672 0
    outer loop
      vertex 215.212 44.0061 10
      vertex 215.212 44.0061 10.8
      vertex 214.905 44.1662 10.8
    endloop
  endfacet
  facet normal -0.134985 -0.990848 0
    outer loop
      vertex 215.557 43.9591 10
      vertex 215.212 44.0061 10.8
      vertex 215.212 44.0061 10
    endloop
  endfacet
  facet normal -0.134985 -0.990848 0
    outer loop
      vertex 215.557 43.9591 10
      vertex 215.557 43.9591 10.8
      vertex 215.212 44.0061 10.8
    endloop
  endfacet
  facet normal 0.2038 -0.979013 0
    outer loop
      vertex 215.912 44.033 10
      vertex 215.557 43.9591 10.8
      vertex 215.557 43.9591 10
    endloop
  endfacet
  facet normal 0.2038 -0.979013 0
    outer loop
      vertex 215.912 44.033 10
      vertex 215.912 44.033 10.8
      vertex 215.557 43.9591 10.8
    endloop
  endfacet
  facet normal 0.517892 -0.855446 0
    outer loop
      vertex 216.319 44.2794 10
      vertex 215.912 44.033 10.8
      vertex 215.912 44.033 10
    endloop
  endfacet
  facet normal 0.517892 -0.855446 0
    outer loop
      vertex 216.319 44.2794 10
      vertex 216.319 44.2794 10.8
      vertex 215.912 44.033 10.8
    endloop
  endfacet
  facet normal 0.850759 -0.525556 0
    outer loop
      vertex 216.548 44.6501 10
      vertex 216.319 44.2794 10.8
      vertex 216.319 44.2794 10
    endloop
  endfacet
  facet normal 0.850759 -0.525556 0
    outer loop
      vertex 216.548 44.6501 10
      vertex 216.548 44.6501 10.8
      vertex 216.319 44.2794 10.8
    endloop
  endfacet
  facet normal 0.995004 -0.0998332 0
    outer loop
      vertex 216.596 45.1285 10
      vertex 216.548 44.6501 10.8
      vertex 216.548 44.6501 10
    endloop
  endfacet
  facet normal 0.995004 -0.0998332 0
    outer loop
      vertex 216.596 45.1285 10
      vertex 216.596 45.1285 10.8
      vertex 216.548 44.6501 10.8
    endloop
  endfacet
  facet normal 0.97265 0.232275 0
    outer loop
      vertex 216.46 45.698 10
      vertex 216.596 45.1285 10.8
      vertex 216.596 45.1285 10
    endloop
  endfacet
  facet normal 0.97265 0.232275 -0
    outer loop
      vertex 216.46 45.698 10
      vertex 216.46 45.698 10.8
      vertex 216.596 45.1285 10.8
    endloop
  endfacet
  facet normal 0.937287 0.348558 0
    outer loop
      vertex 215.821 47.4163 10
      vertex 216.46 45.698 10.8
      vertex 216.46 45.698 10
    endloop
  endfacet
  facet normal 0.937287 0.348558 -0
    outer loop
      vertex 215.821 47.4163 10
      vertex 215.821 47.4163 10.8
      vertex 216.46 45.698 10.8
    endloop
  endfacet
  facet normal -0.348583 0.937278 0
    outer loop
      vertex 212.382 46.1373 10
      vertex 215.821 47.4163 10.8
      vertex 215.821 47.4163 10
    endloop
  endfacet
  facet normal -0.348583 0.937278 0
    outer loop
      vertex 212.382 46.1373 10
      vertex 212.382 46.1373 10.8
      vertex 215.821 47.4163 10.8
    endloop
  endfacet
  facet normal -0.937182 -0.34884 0
    outer loop
      vertex 212.65 45.4173 10
      vertex 212.382 46.1373 10.8
      vertex 212.382 46.1373 10
    endloop
  endfacet
  facet normal -0.937182 -0.34884 0
    outer loop
      vertex 212.65 45.4173 10
      vertex 212.65 45.4173 10.8
      vertex 212.382 46.1373 10.8
    endloop
  endfacet
  facet normal 0.348809 -0.937194 0
    outer loop
      vertex 213.955 45.903 10
      vertex 212.65 45.4173 10.8
      vertex 212.65 45.4173 10
    endloop
  endfacet
  facet normal 0.348809 -0.937194 0
    outer loop
      vertex 213.955 45.903 10
      vertex 213.955 45.903 10.8
      vertex 212.65 45.4173 10.8
    endloop
  endfacet
  facet normal 0.348372 -0.937356 0
    outer loop
      vertex 215.53 46.4884 10
      vertex 215.53 46.4884 10.8
      vertex 214.514 46.1108 10
    endloop
  endfacet
  facet normal 0.348372 -0.937356 0
    outer loop
      vertex 214.514 46.1108 10.8
      vertex 214.514 46.1108 10
      vertex 215.53 46.4884 10.8
    endloop
  endfacet
  facet normal -0.937319 -0.348472 0
    outer loop
      vertex 215.873 45.5658 10
      vertex 215.873 45.5658 10.8
      vertex 215.53 46.4884 10
    endloop
  endfacet
  facet normal -0.937319 -0.348472 -0
    outer loop
      vertex 215.53 46.4884 10.8
      vertex 215.53 46.4884 10
      vertex 215.873 45.5658 10.8
    endloop
  endfacet
  facet normal -0.994885 -0.101013 0
    outer loop
      vertex 215.926 45.0438 10
      vertex 215.926 45.0438 10.8
      vertex 215.873 45.5658 10
    endloop
  endfacet
  facet normal -0.994885 -0.101013 -0
    outer loop
      vertex 215.873 45.5658 10.8
      vertex 215.873 45.5658 10
      vertex 215.926 45.0438 10.8
    endloop
  endfacet
  facet normal -0.688079 0.725636 0
    outer loop
      vertex 215.613 44.747 10
      vertex 215.613 44.747 10.8
      vertex 215.926 45.0438 10
    endloop
  endfacet
  facet normal -0.688079 0.725636 0
    outer loop
      vertex 215.926 45.0438 10.8
      vertex 215.926 45.0438 10
      vertex 215.613 44.747 10.8
    endloop
  endfacet
  facet normal -0.179034 0.983843 0
    outer loop
      vertex 215.38 44.7046 10
      vertex 215.38 44.7046 10.8
      vertex 215.613 44.747 10
    endloop
  endfacet
  facet normal -0.179034 0.983843 0
    outer loop
      vertex 215.613 44.747 10.8
      vertex 215.613 44.747 10
      vertex 215.38 44.7046 10.8
    endloop
  endfacet
  facet normal 0.260406 0.965499 -0
    outer loop
      vertex 215.172 44.7607 10
      vertex 215.172 44.7607 10.8
      vertex 215.38 44.7046 10
    endloop
  endfacet
  facet normal 0.260406 0.965499 0
    outer loop
      vertex 215.38 44.7046 10.8
      vertex 215.38 44.7046 10
      vertex 215.172 44.7607 10.8
    endloop
  endfacet
  facet normal 0.664444 0.747338 -0
    outer loop
      vertex 214.998 44.9154 10
      vertex 214.998 44.9154 10.8
      vertex 215.172 44.7607 10
    endloop
  endfacet
  facet normal 0.664444 0.747338 0
    outer loop
      vertex 215.172 44.7607 10.8
      vertex 215.172 44.7607 10
      vertex 214.998 44.9154 10.8
    endloop
  endfacet
  facet normal 0.885373 0.464882 -0
    outer loop
      vertex 214.865 45.1687 10
      vertex 214.865 45.1687 10.8
      vertex 214.998 44.9154 10
    endloop
  endfacet
  facet normal 0.885373 0.464882 0
    outer loop
      vertex 214.998 44.9154 10.8
      vertex 214.998 44.9154 10
      vertex 214.865 45.1687 10.8
    endloop
  endfacet
  facet normal 0.937075 0.349128 -0
    outer loop
      vertex 214.514 46.1108 10
      vertex 214.514 46.1108 10.8
      vertex 214.865 45.1687 10
    endloop
  endfacet
  facet normal 0.937075 0.349128 0
    outer loop
      vertex 214.865 45.1687 10.8
      vertex 214.865 45.1687 10
      vertex 214.514 46.1108 10.8
    endloop
  endfacet
endsolid OpenSCAD_Model
