solid OpenSCAD_Model
  facet normal 0 0 -1
    outer loop
      vertex 73.4589 -21.34 0
      vertex 73.4496 -21.2189 0
      vertex 73.6993 -21.34 0
    endloop
  endfacet
  facet normal 0 0 -1
    outer loop
      vertex 76.2141 -27.1764 0
      vertex 74.6195 -27.6378 0
      vertex 74.5046 -27.504 0
    endloop
  endfacet
  facet normal 0 0 -1
    outer loop
      vertex 74.001 -25.5773 0
      vertex 76.2141 -27.1764 0
      vertex 74.0392 -27.0857 0
    endloop
  endfacet
  facet normal -0 0 -1
    outer loop
      vertex 76.2141 -27.1764 0
      vertex 74.5046 -27.504 0
      vertex 74.0392 -27.0857 0
    endloop
  endfacet
  facet normal 0 0 -1
    outer loop
      vertex 73.4094 -29.6633 0
      vertex 76.6621 -29.985 0
      vertex 73.7796 -31.1995 0
    endloop
  endfacet
  facet normal 0 0 -1
    outer loop
      vertex 76.7156 -30.0766 0
      vertex 76.4023 -32.2605 0
      vertex 76.2549 -32.2141 0
    endloop
  endfacet
  facet normal 0 0 -1
    outer loop
      vertex 78.5309 -36.2552 0
      vertex 79.6084 -33.4763 0
      vertex 79.3222 -36.0418 0
    endloop
  endfacet
  facet normal 0 0 -1
    outer loop
      vertex 74.3109 -25.0232 0
      vertex 76.7865 -24.8652 0
      vertex 76.7941 -25.9364 0
    endloop
  endfacet
  facet normal 0 0 -1
    outer loop
      vertex 74.9391 -23.534 0
      vertex 76.5817 -22.473 0
      vertex 76.8779 -23.9443 0
    endloop
  endfacet
  facet normal 0 0 -1
    outer loop
      vertex 79.6084 -33.4763 0
      vertex 76.8298 -32.7925 0
      vertex 79.5194 -33.0226 0
    endloop
  endfacet
  facet normal 0 0 -1
    outer loop
      vertex 72.788 -30.4935 0
      vertex 73.3779 -29.7427 0
      vertex 73.5868 -31.1591 0
    endloop
  endfacet
  facet normal 0 -0 -1
    outer loop
      vertex 74.3109 -25.0232 0
      vertex 76.7941 -25.9364 0
      vertex 74.001 -25.5773 0
    endloop
  endfacet
  facet normal 0 0 -1
    outer loop
      vertex 73.4094 -29.6633 0
      vertex 74.5468 -27.7788 0
      vertex 76.6621 -29.985 0
    endloop
  endfacet
  facet normal -0 0 -1
    outer loop
      vertex 76.5817 -22.473 0
      vertex 74.6491 -22.8139 0
      vertex 75.29 -21.7387 0
    endloop
  endfacet
  facet normal 0 0 -1
    outer loop
      vertex 76.8779 -23.9443 0
      vertex 74.8974 -23.7041 0
      vertex 74.9391 -23.534 0
    endloop
  endfacet
  facet normal 0 0 -1
    outer loop
      vertex 76.7941 -25.9364 0
      vertex 76.7865 -24.8652 0
      vertex 76.9124 -25.851 0
    endloop
  endfacet
  facet normal 0 0 -1
    outer loop
      vertex 76.9124 -25.851 0
      vertex 76.7865 -24.8652 0
      vertex 77.4251 -25.7903 0
    endloop
  endfacet
  facet normal -0 0 -1
    outer loop
      vertex 74.25 -21.5987 0
      vertex 74.2369 -21.9501 0
      vertex 74.2045 -21.585 0
    endloop
  endfacet
  facet normal 0 0 -1
    outer loop
      vertex 74.6126 -22.7606 0
      vertex 74.1938 -22.368 0
      vertex 74.2569 -22.0601 0
    endloop
  endfacet
  facet normal 0 0 -1
    outer loop
      vertex 75.29 -21.7387 0
      vertex 75.4377 -21.6686 0
      vertex 76.5817 -22.473 0
    endloop
  endfacet
  facet normal 0 0 -1
    outer loop
      vertex 76.5817 -22.473 0
      vertex 75.4377 -21.6686 0
      vertex 75.5769 -21.4425 0
    endloop
  endfacet
  facet normal 0 0 -1
    outer loop
      vertex 74.2369 -21.9501 0
      vertex 75.29 -21.7387 0
      vertex 74.2569 -22.0601 0
    endloop
  endfacet
  facet normal 0 0 -1
    outer loop
      vertex 74.2369 -21.9501 0
      vertex 74.25 -21.5987 0
      vertex 75.29 -21.7387 0
    endloop
  endfacet
  facet normal 0 0 -1
    outer loop
      vertex 73.9203 -21.4471 0
      vertex 74.2045 -21.585 0
      vertex 74.2369 -21.9501 0
    endloop
  endfacet
  facet normal 0 0 -1
    outer loop
      vertex 74.2569 -22.0601 0
      vertex 75.29 -21.7387 0
      vertex 74.6126 -22.7606 0
    endloop
  endfacet
  facet normal 0 0 -1
    outer loop
      vertex 74.6126 -22.7606 0
      vertex 75.29 -21.7387 0
      vertex 74.6491 -22.8139 0
    endloop
  endfacet
  facet normal 0 -0 -1
    outer loop
      vertex 74.8974 -23.7041 0
      vertex 76.7615 -24.7588 0
      vertex 74.3168 -24.8884 0
    endloop
  endfacet
  facet normal 0 -0 -1
    outer loop
      vertex 74.3168 -24.8884 0
      vertex 76.7615 -24.7588 0
      vertex 74.3109 -25.0232 0
    endloop
  endfacet
  facet normal 0 0 -1
    outer loop
      vertex 74.6491 -22.8139 0
      vertex 76.5817 -22.473 0
      vertex 74.9391 -23.534 0
    endloop
  endfacet
  facet normal 0 -0 -1
    outer loop
      vertex 76.7615 -24.7588 0
      vertex 76.7865 -24.8652 0
      vertex 74.3109 -25.0232 0
    endloop
  endfacet
  facet normal -0 0 -1
    outer loop
      vertex 76.8779 -23.9443 0
      vertex 76.7615 -24.7588 0
      vertex 74.8974 -23.7041 0
    endloop
  endfacet
  facet normal 0 0 -1
    outer loop
      vertex 74.8974 -23.7041 0
      vertex 74.3168 -24.8884 0
      vertex 74.0929 -24.391 0
    endloop
  endfacet
  facet normal 0 0 -1
    outer loop
      vertex 73.5868 -31.1591 0
      vertex 73.3779 -29.7427 0
      vertex 73.7796 -31.1995 0
    endloop
  endfacet
  facet normal -0 0 -1
    outer loop
      vertex 76.7941 -25.9364 0
      vertex 76.2141 -27.1764 0
      vertex 74.001 -25.5773 0
    endloop
  endfacet
  facet normal 0 0 -1
    outer loop
      vertex 74.0392 -27.0857 0
      vertex 74.5046 -27.504 0
      vertex 74.1961 -27.431 0
    endloop
  endfacet
  facet normal 0 0 -1
    outer loop
      vertex 73.363 -31.2841 0
      vertex 72.788 -30.4935 0
      vertex 73.5868 -31.1591 0
    endloop
  endfacet
  facet normal 0 0 -1
    outer loop
      vertex 73.7796 -31.1995 0
      vertex 76.6621 -29.985 0
      vertex 76.7156 -30.0766 0
    endloop
  endfacet
  facet normal 0 -0 -1
    outer loop
      vertex 73.5226 -28.3896 0
      vertex 74.5468 -27.7788 0
      vertex 73.4094 -29.6633 0
    endloop
  endfacet
  facet normal 0 0 -1
    outer loop
      vertex 76.2141 -27.1764 0
      vertex 76.2021 -27.265 0
      vertex 74.6195 -27.6378 0
    endloop
  endfacet
  facet normal 0 -0 -1
    outer loop
      vertex 74.6195 -27.6378 0
      vertex 76.2021 -27.265 0
      vertex 74.5468 -27.7788 0
    endloop
  endfacet
  facet normal 0 0 -1
    outer loop
      vertex 74.5468 -27.7788 0
      vertex 76.2021 -27.265 0
      vertex 76.6621 -29.985 0
    endloop
  endfacet
  facet normal 0 0 -1
    outer loop
      vertex 76.2549 -32.2141 0
      vertex 73.7796 -31.1995 0
      vertex 76.7156 -30.0766 0
    endloop
  endfacet
  facet normal 0 0 -1
    outer loop
      vertex 78.4335 -36.3377 0
      vertex 76.8953 -34.4747 0
      vertex 78.5309 -36.2552 0
    endloop
  endfacet
  facet normal 0 0 -1
    outer loop
      vertex 78.4335 -36.3377 0
      vertex 78.0135 -37.2577 0
      vertex 76.6044 -36.5106 0
    endloop
  endfacet
  facet normal 0 0 -1
    outer loop
      vertex 78.4335 -36.3377 0
      vertex 76.2752 -35.7722 0
      vertex 76.8953 -34.4747 0
    endloop
  endfacet
  facet normal 0 0 -1
    outer loop
      vertex 73.3779 -29.7427 0
      vertex 73.4094 -29.6633 0
      vertex 73.7796 -31.1995 0
    endloop
  endfacet
  facet normal 0 0 -1
    outer loop
      vertex 74.8104 -32.5612 0
      vertex 73.7796 -31.1995 0
      vertex 76.2549 -32.2141 0
    endloop
  endfacet
  facet normal 0 0 -1
    outer loop
      vertex 76.8298 -32.7925 0
      vertex 79.6084 -33.4763 0
      vertex 76.9098 -34.4025 0
    endloop
  endfacet
  facet normal 0 -0 -1
    outer loop
      vertex 76.7156 -30.0766 0
      vertex 78.2212 -31.295 0
      vertex 76.4023 -32.2605 0
    endloop
  endfacet
  facet normal 0 0 -1
    outer loop
      vertex 76.7923 -32.7005 0
      vertex 78.2212 -31.295 0
      vertex 76.8298 -32.7925 0
    endloop
  endfacet
  facet normal 0 0 -1
    outer loop
      vertex 76.4023 -32.2605 0
      vertex 78.2212 -31.295 0
      vertex 76.7923 -32.7005 0
    endloop
  endfacet
  facet normal 0 0 -1
    outer loop
      vertex 76.8298 -32.7925 0
      vertex 78.2212 -31.295 0
      vertex 79.5194 -33.0226 0
    endloop
  endfacet
  facet normal 0 0 -1
    outer loop
      vertex 79.6084 -33.4763 0
      vertex 78.5309 -36.2552 0
      vertex 76.9098 -34.4025 0
    endloop
  endfacet
  facet normal 0 -0 -1
    outer loop
      vertex 76.9098 -34.4025 0
      vertex 78.5309 -36.2552 0
      vertex 76.8953 -34.4747 0
    endloop
  endfacet
  facet normal -0 0 -1
    outer loop
      vertex 78.4335 -36.3377 0
      vertex 76.6044 -36.5106 0
      vertex 76.2752 -35.7722 0
    endloop
  endfacet
  facet normal 0 0 -1
    outer loop
      vertex 76.6044 -36.5106 0
      vertex 78.0135 -37.2577 0
      vertex 78.0023 -37.3461 0
    endloop
  endfacet
  facet normal 0 0 -1
    outer loop
      vertex 78.0615 -37.8495 0
      vertex 76.6044 -36.5106 0
      vertex 78.0023 -37.3461 0
    endloop
  endfacet
  facet normal 0 0 -1
    outer loop
      vertex 78.1942 -38.4308 0
      vertex 78.1096 -37.9705 0
      vertex 78.0023 -37.3461 0
    endloop
  endfacet
  facet normal 0 0 -1
    outer loop
      vertex 78.1096 -37.9705 0
      vertex 78.0615 -37.8495 0
      vertex 78.0023 -37.3461 0
    endloop
  endfacet
  facet normal 0 0 -1
    outer loop
      vertex 78.1942 -38.4308 0
      vertex 78.0789 -38.4082 0
      vertex 78.1096 -37.9705 0
    endloop
  endfacet
  facet normal 0 0 1
    outer loop
      vertex 73.6993 -21.34 10
      vertex 73.4496 -21.2189 10
      vertex 73.4589 -21.34 10
    endloop
  endfacet
  facet normal -0 0 1
    outer loop
      vertex 74.5046 -27.504 10
      vertex 74.6195 -27.6378 10
      vertex 76.2141 -27.1764 10
    endloop
  endfacet
  facet normal -0 -0 1
    outer loop
      vertex 74.0392 -27.0857 10
      vertex 76.2141 -27.1764 10
      vertex 74.001 -25.5773 10
    endloop
  endfacet
  facet normal 0 0 1
    outer loop
      vertex 74.0392 -27.0857 10
      vertex 74.5046 -27.504 10
      vertex 76.2141 -27.1764 10
    endloop
  endfacet
  facet normal 0 -0 1
    outer loop
      vertex 73.7796 -31.1995 10
      vertex 76.6621 -29.985 10
      vertex 73.4094 -29.6633 10
    endloop
  endfacet
  facet normal -0 0 1
    outer loop
      vertex 76.2549 -32.2141 10
      vertex 76.4023 -32.2605 10
      vertex 76.7156 -30.0766 10
    endloop
  endfacet
  facet normal 0 -0 1
    outer loop
      vertex 79.3222 -36.0418 10
      vertex 79.6084 -33.4763 10
      vertex 78.5309 -36.2552 10
    endloop
  endfacet
  facet normal 0 0 1
    outer loop
      vertex 76.7941 -25.9364 10
      vertex 76.7865 -24.8652 10
      vertex 74.3109 -25.0232 10
    endloop
  endfacet
  facet normal 0 0 1
    outer loop
      vertex 76.8779 -23.9443 10
      vertex 76.5817 -22.473 10
      vertex 74.9391 -23.534 10
    endloop
  endfacet
  facet normal 0 0 1
    outer loop
      vertex 79.5194 -33.0226 10
      vertex 76.8298 -32.7925 10
      vertex 79.6084 -33.4763 10
    endloop
  endfacet
  facet normal 0 0 1
    outer loop
      vertex 73.5868 -31.1591 10
      vertex 73.3779 -29.7427 10
      vertex 72.788 -30.4935 10
    endloop
  endfacet
  facet normal -0 0 1
    outer loop
      vertex 74.001 -25.5773 10
      vertex 76.7941 -25.9364 10
      vertex 74.3109 -25.0232 10
    endloop
  endfacet
  facet normal 0 0 1
    outer loop
      vertex 76.6621 -29.985 10
      vertex 74.5468 -27.7788 10
      vertex 73.4094 -29.6633 10
    endloop
  endfacet
  facet normal 0 0 1
    outer loop
      vertex 75.29 -21.7387 10
      vertex 74.6491 -22.8139 10
      vertex 76.5817 -22.473 10
    endloop
  endfacet
  facet normal 0 0 1
    outer loop
      vertex 74.9391 -23.534 10
      vertex 74.8974 -23.7041 10
      vertex 76.8779 -23.9443 10
    endloop
  endfacet
  facet normal 0 0 1
    outer loop
      vertex 76.9124 -25.851 10
      vertex 76.7865 -24.8652 10
      vertex 76.7941 -25.9364 10
    endloop
  endfacet
  facet normal 0 0 1
    outer loop
      vertex 77.4251 -25.7903 10
      vertex 76.7865 -24.8652 10
      vertex 76.9124 -25.851 10
    endloop
  endfacet
  facet normal 0 0 1
    outer loop
      vertex 74.2045 -21.585 10
      vertex 74.2369 -21.9501 10
      vertex 74.25 -21.5987 10
    endloop
  endfacet
  facet normal 0 0 1
    outer loop
      vertex 74.2569 -22.0601 10
      vertex 74.1938 -22.368 10
      vertex 74.6126 -22.7606 10
    endloop
  endfacet
  facet normal 0 0 1
    outer loop
      vertex 76.5817 -22.473 10
      vertex 75.4377 -21.6686 10
      vertex 75.29 -21.7387 10
    endloop
  endfacet
  facet normal 0 0 1
    outer loop
      vertex 75.5769 -21.4425 10
      vertex 75.4377 -21.6686 10
      vertex 76.5817 -22.473 10
    endloop
  endfacet
  facet normal 0 -0 1
    outer loop
      vertex 74.2569 -22.0601 10
      vertex 75.29 -21.7387 10
      vertex 74.2369 -21.9501 10
    endloop
  endfacet
  facet normal 0 0 1
    outer loop
      vertex 75.29 -21.7387 10
      vertex 74.25 -21.5987 10
      vertex 74.2369 -21.9501 10
    endloop
  endfacet
  facet normal 0 0 1
    outer loop
      vertex 74.2369 -21.9501 10
      vertex 74.2045 -21.585 10
      vertex 73.9203 -21.4471 10
    endloop
  endfacet
  facet normal 0 -0 1
    outer loop
      vertex 74.6126 -22.7606 10
      vertex 75.29 -21.7387 10
      vertex 74.2569 -22.0601 10
    endloop
  endfacet
  facet normal 0 -0 1
    outer loop
      vertex 74.6491 -22.8139 10
      vertex 75.29 -21.7387 10
      vertex 74.6126 -22.7606 10
    endloop
  endfacet
  facet normal 0 0 1
    outer loop
      vertex 74.3168 -24.8884 10
      vertex 76.7615 -24.7588 10
      vertex 74.8974 -23.7041 10
    endloop
  endfacet
  facet normal 0 0 1
    outer loop
      vertex 74.3109 -25.0232 10
      vertex 76.7615 -24.7588 10
      vertex 74.3168 -24.8884 10
    endloop
  endfacet
  facet normal 0 -0 1
    outer loop
      vertex 74.9391 -23.534 10
      vertex 76.5817 -22.473 10
      vertex 74.6491 -22.8139 10
    endloop
  endfacet
  facet normal 0 0 1
    outer loop
      vertex 74.3109 -25.0232 10
      vertex 76.7865 -24.8652 10
      vertex 76.7615 -24.7588 10
    endloop
  endfacet
  facet normal 0 0 1
    outer loop
      vertex 74.8974 -23.7041 10
      vertex 76.7615 -24.7588 10
      vertex 76.8779 -23.9443 10
    endloop
  endfacet
  facet normal -0 0 1
    outer loop
      vertex 74.0929 -24.391 10
      vertex 74.3168 -24.8884 10
      vertex 74.8974 -23.7041 10
    endloop
  endfacet
  facet normal 0 0 1
    outer loop
      vertex 73.7796 -31.1995 10
      vertex 73.3779 -29.7427 10
      vertex 73.5868 -31.1591 10
    endloop
  endfacet
  facet normal 0 0 1
    outer loop
      vertex 74.001 -25.5773 10
      vertex 76.2141 -27.1764 10
      vertex 76.7941 -25.9364 10
    endloop
  endfacet
  facet normal -0 -0 1
    outer loop
      vertex 74.1961 -27.431 10
      vertex 74.5046 -27.504 10
      vertex 74.0392 -27.0857 10
    endloop
  endfacet
  facet normal 0 0 1
    outer loop
      vertex 73.5868 -31.1591 10
      vertex 72.788 -30.4935 10
      vertex 73.363 -31.2841 10
    endloop
  endfacet
  facet normal 0 0 1
    outer loop
      vertex 76.7156 -30.0766 10
      vertex 76.6621 -29.985 10
      vertex 73.7796 -31.1995 10
    endloop
  endfacet
  facet normal 0 0 1
    outer loop
      vertex 73.4094 -29.6633 10
      vertex 74.5468 -27.7788 10
      vertex 73.5226 -28.3896 10
    endloop
  endfacet
  facet normal 0 0 1
    outer loop
      vertex 74.6195 -27.6378 10
      vertex 76.2021 -27.265 10
      vertex 76.2141 -27.1764 10
    endloop
  endfacet
  facet normal 0 0 1
    outer loop
      vertex 74.5468 -27.7788 10
      vertex 76.2021 -27.265 10
      vertex 74.6195 -27.6378 10
    endloop
  endfacet
  facet normal 0 0 1
    outer loop
      vertex 76.6621 -29.985 10
      vertex 76.2021 -27.265 10
      vertex 74.5468 -27.7788 10
    endloop
  endfacet
  facet normal 0 0 1
    outer loop
      vertex 76.7156 -30.0766 10
      vertex 73.7796 -31.1995 10
      vertex 76.2549 -32.2141 10
    endloop
  endfacet
  facet normal 0 0 1
    outer loop
      vertex 78.5309 -36.2552 10
      vertex 76.8953 -34.4747 10
      vertex 78.4335 -36.3377 10
    endloop
  endfacet
  facet normal -0 0 1
    outer loop
      vertex 76.6044 -36.5106 10
      vertex 78.0135 -37.2577 10
      vertex 78.4335 -36.3377 10
    endloop
  endfacet
  facet normal 0 0 1
    outer loop
      vertex 76.8953 -34.4747 10
      vertex 76.2752 -35.7722 10
      vertex 78.4335 -36.3377 10
    endloop
  endfacet
  facet normal 0 0 1
    outer loop
      vertex 73.7796 -31.1995 10
      vertex 73.4094 -29.6633 10
      vertex 73.3779 -29.7427 10
    endloop
  endfacet
  facet normal 0 0 1
    outer loop
      vertex 76.2549 -32.2141 10
      vertex 73.7796 -31.1995 10
      vertex 74.8104 -32.5612 10
    endloop
  endfacet
  facet normal 0 -0 1
    outer loop
      vertex 76.9098 -34.4025 10
      vertex 79.6084 -33.4763 10
      vertex 76.8298 -32.7925 10
    endloop
  endfacet
  facet normal 0 0 1
    outer loop
      vertex 76.4023 -32.2605 10
      vertex 78.2212 -31.295 10
      vertex 76.7156 -30.0766 10
    endloop
  endfacet
  facet normal 0 -0 1
    outer loop
      vertex 76.8298 -32.7925 10
      vertex 78.2212 -31.295 10
      vertex 76.7923 -32.7005 10
    endloop
  endfacet
  facet normal 0 -0 1
    outer loop
      vertex 76.7923 -32.7005 10
      vertex 78.2212 -31.295 10
      vertex 76.4023 -32.2605 10
    endloop
  endfacet
  facet normal 0 0 1
    outer loop
      vertex 79.5194 -33.0226 10
      vertex 78.2212 -31.295 10
      vertex 76.8298 -32.7925 10
    endloop
  endfacet
  facet normal -0 0 1
    outer loop
      vertex 76.9098 -34.4025 10
      vertex 78.5309 -36.2552 10
      vertex 79.6084 -33.4763 10
    endloop
  endfacet
  facet normal -0 0 1
    outer loop
      vertex 76.8953 -34.4747 10
      vertex 78.5309 -36.2552 10
      vertex 76.9098 -34.4025 10
    endloop
  endfacet
  facet normal 0 0 1
    outer loop
      vertex 76.2752 -35.7722 10
      vertex 76.6044 -36.5106 10
      vertex 78.4335 -36.3377 10
    endloop
  endfacet
  facet normal 0 -0 1
    outer loop
      vertex 78.0023 -37.3461 10
      vertex 78.0135 -37.2577 10
      vertex 76.6044 -36.5106 10
    endloop
  endfacet
  facet normal 0 0 1
    outer loop
      vertex 78.0023 -37.3461 10
      vertex 76.6044 -36.5106 10
      vertex 78.0615 -37.8495 10
    endloop
  endfacet
  facet normal 0 0 1
    outer loop
      vertex 78.0023 -37.3461 10
      vertex 78.1096 -37.9705 10
      vertex 78.1942 -38.4308 10
    endloop
  endfacet
  facet normal 0 0 1
    outer loop
      vertex 78.0023 -37.3461 10
      vertex 78.0615 -37.8495 10
      vertex 78.1096 -37.9705 10
    endloop
  endfacet
  facet normal 0 0 1
    outer loop
      vertex 78.1096 -37.9705 10
      vertex 78.0789 -38.4082 10
      vertex 78.1942 -38.4308 10
    endloop
  endfacet
  facet normal -0.997064 -0.0765706 0
    outer loop
      vertex 73.4589 -21.34 0
      vertex 73.4496 -21.2189 10
      vertex 73.4496 -21.2189 0
    endloop
  endfacet
  facet normal -0.997064 -0.0765706 0
    outer loop
      vertex 73.4589 -21.34 0
      vertex 73.4589 -21.34 10
      vertex 73.4496 -21.2189 10
    endloop
  endfacet
  facet normal 0 -1 0
    outer loop
      vertex 73.6993 -21.34 0
      vertex 73.4589 -21.34 10
      vertex 73.4589 -21.34 0
    endloop
  endfacet
  facet normal 0 -1 0
    outer loop
      vertex 73.6993 -21.34 0
      vertex 73.6993 -21.34 10
      vertex 73.4589 -21.34 10
    endloop
  endfacet
  facet normal 0.436371 0.899767 0
    outer loop
      vertex 73.4496 -21.2189 0
      vertex 73.6993 -21.34 10
      vertex 73.6993 -21.34 0
    endloop
  endfacet
  facet normal 0.436371 0.899767 -0
    outer loop
      vertex 73.4496 -21.2189 0
      vertex 73.4496 -21.2189 10
      vertex 73.6993 -21.34 10
    endloop
  endfacet
  facet normal 0.992069 -0.125692 0
    outer loop
      vertex 78.0135 -37.2577 0
      vertex 78.0023 -37.3461 10
      vertex 78.0023 -37.3461 0
    endloop
  endfacet
  facet normal 0.992069 -0.125692 0
    outer loop
      vertex 78.0135 -37.2577 0
      vertex 78.0135 -37.2577 10
      vertex 78.0023 -37.3461 10
    endloop
  endfacet
  facet normal 0.909688 -0.415292 0
    outer loop
      vertex 78.4335 -36.3377 0
      vertex 78.0135 -37.2577 10
      vertex 78.0135 -37.2577 0
    endloop
  endfacet
  facet normal 0.909688 -0.415292 0
    outer loop
      vertex 78.4335 -36.3377 0
      vertex 78.4335 -36.3377 10
      vertex 78.0135 -37.2577 10
    endloop
  endfacet
  facet normal 0.646328 -0.763059 0
    outer loop
      vertex 78.5309 -36.2552 0
      vertex 78.4335 -36.3377 10
      vertex 78.4335 -36.3377 0
    endloop
  endfacet
  facet normal 0.646328 -0.763059 0
    outer loop
      vertex 78.5309 -36.2552 0
      vertex 78.5309 -36.2552 10
      vertex 78.4335 -36.3377 10
    endloop
  endfacet
  facet normal 0.26038 -0.965506 0
    outer loop
      vertex 79.3222 -36.0418 0
      vertex 78.5309 -36.2552 10
      vertex 78.5309 -36.2552 0
    endloop
  endfacet
  facet normal 0.26038 -0.965506 0
    outer loop
      vertex 79.3222 -36.0418 0
      vertex 79.3222 -36.0418 10
      vertex 78.5309 -36.2552 10
    endloop
  endfacet
  facet normal 0.993835 -0.110869 0
    outer loop
      vertex 79.6084 -33.4763 0
      vertex 79.3222 -36.0418 10
      vertex 79.3222 -36.0418 0
    endloop
  endfacet
  facet normal 0.993835 -0.110869 0
    outer loop
      vertex 79.6084 -33.4763 0
      vertex 79.6084 -33.4763 10
      vertex 79.3222 -36.0418 10
    endloop
  endfacet
  facet normal 0.981298 0.192496 0
    outer loop
      vertex 79.5194 -33.0226 0
      vertex 79.6084 -33.4763 10
      vertex 79.6084 -33.4763 0
    endloop
  endfacet
  facet normal 0.981298 0.192496 -0
    outer loop
      vertex 79.5194 -33.0226 0
      vertex 79.5194 -33.0226 10
      vertex 79.6084 -33.4763 10
    endloop
  endfacet
  facet normal 0.799444 0.60074 0
    outer loop
      vertex 78.2212 -31.295 0
      vertex 79.5194 -33.0226 10
      vertex 79.5194 -33.0226 0
    endloop
  endfacet
  facet normal 0.799444 0.60074 -0
    outer loop
      vertex 78.2212 -31.295 0
      vertex 78.2212 -31.295 10
      vertex 79.5194 -33.0226 10
    endloop
  endfacet
  facet normal 0.629068 0.777351 0
    outer loop
      vertex 76.7156 -30.0766 0
      vertex 78.2212 -31.295 10
      vertex 78.2212 -31.295 0
    endloop
  endfacet
  facet normal 0.629068 0.777351 -0
    outer loop
      vertex 76.7156 -30.0766 0
      vertex 76.7156 -30.0766 10
      vertex 78.2212 -31.295 10
    endloop
  endfacet
  facet normal 0.863505 0.50434 0
    outer loop
      vertex 76.6621 -29.985 0
      vertex 76.7156 -30.0766 10
      vertex 76.7156 -30.0766 0
    endloop
  endfacet
  facet normal 0.863505 0.50434 -0
    outer loop
      vertex 76.6621 -29.985 0
      vertex 76.6621 -29.985 10
      vertex 76.7156 -30.0766 10
    endloop
  endfacet
  facet normal 0.985999 0.16675 0
    outer loop
      vertex 76.2021 -27.265 0
      vertex 76.6621 -29.985 10
      vertex 76.6621 -29.985 0
    endloop
  endfacet
  facet normal 0.985999 0.16675 -0
    outer loop
      vertex 76.2021 -27.265 0
      vertex 76.2021 -27.265 10
      vertex 76.6621 -29.985 10
    endloop
  endfacet
  facet normal 0.990952 -0.134215 0
    outer loop
      vertex 76.2141 -27.1764 0
      vertex 76.2021 -27.265 10
      vertex 76.2021 -27.265 0
    endloop
  endfacet
  facet normal 0.990952 -0.134215 0
    outer loop
      vertex 76.2141 -27.1764 0
      vertex 76.2141 -27.1764 10
      vertex 76.2021 -27.265 10
    endloop
  endfacet
  facet normal 0.90581 -0.423685 0
    outer loop
      vertex 76.7941 -25.9364 0
      vertex 76.2141 -27.1764 10
      vertex 76.2141 -27.1764 0
    endloop
  endfacet
  facet normal 0.90581 -0.423685 0
    outer loop
      vertex 76.7941 -25.9364 0
      vertex 76.7941 -25.9364 10
      vertex 76.2141 -27.1764 10
    endloop
  endfacet
  facet normal 0.585315 -0.810806 0
    outer loop
      vertex 76.9124 -25.851 0
      vertex 76.7941 -25.9364 10
      vertex 76.7941 -25.9364 0
    endloop
  endfacet
  facet normal 0.585315 -0.810806 0
    outer loop
      vertex 76.9124 -25.851 0
      vertex 76.9124 -25.851 10
      vertex 76.7941 -25.9364 10
    endloop
  endfacet
  facet normal 0.117572 -0.993064 0
    outer loop
      vertex 77.4251 -25.7903 0
      vertex 76.9124 -25.851 10
      vertex 76.9124 -25.851 0
    endloop
  endfacet
  facet normal 0.117572 -0.993064 0
    outer loop
      vertex 77.4251 -25.7903 0
      vertex 77.4251 -25.7903 10
      vertex 76.9124 -25.851 10
    endloop
  endfacet
  facet normal 0.822963 0.568095 0
    outer loop
      vertex 76.7865 -24.8652 0
      vertex 77.4251 -25.7903 10
      vertex 77.4251 -25.7903 0
    endloop
  endfacet
  facet normal 0.822963 0.568095 -0
    outer loop
      vertex 76.7865 -24.8652 0
      vertex 76.7865 -24.8652 10
      vertex 77.4251 -25.7903 10
    endloop
  endfacet
  facet normal 0.973489 0.228733 0
    outer loop
      vertex 76.7615 -24.7588 0
      vertex 76.7865 -24.8652 10
      vertex 76.7865 -24.8652 0
    endloop
  endfacet
  facet normal 0.973489 0.228733 -0
    outer loop
      vertex 76.7615 -24.7588 0
      vertex 76.7615 -24.7588 10
      vertex 76.7865 -24.8652 10
    endloop
  endfacet
  facet normal 0.989942 -0.141472 0
    outer loop
      vertex 76.8779 -23.9443 0
      vertex 76.7615 -24.7588 10
      vertex 76.7615 -24.7588 0
    endloop
  endfacet
  facet normal 0.989942 -0.141472 0
    outer loop
      vertex 76.8779 -23.9443 0
      vertex 76.8779 -23.9443 10
      vertex 76.7615 -24.7588 10
    endloop
  endfacet
  facet normal 0.980331 0.197359 0
    outer loop
      vertex 76.5817 -22.473 0
      vertex 76.8779 -23.9443 10
      vertex 76.8779 -23.9443 0
    endloop
  endfacet
  facet normal 0.980331 0.197359 -0
    outer loop
      vertex 76.5817 -22.473 0
      vertex 76.5817 -22.473 10
      vertex 76.8779 -23.9443 10
    endloop
  endfacet
  facet normal 0.715978 0.698122 0
    outer loop
      vertex 75.5769 -21.4425 0
      vertex 76.5817 -22.473 10
      vertex 76.5817 -22.473 0
    endloop
  endfacet
  facet normal 0.715978 0.698122 -0
    outer loop
      vertex 75.5769 -21.4425 0
      vertex 75.5769 -21.4425 10
      vertex 76.5817 -22.473 10
    endloop
  endfacet
  facet normal -0.851555 0.524266 0
    outer loop
      vertex 75.4377 -21.6686 0
      vertex 75.5769 -21.4425 10
      vertex 75.5769 -21.4425 0
    endloop
  endfacet
  facet normal -0.851555 0.524266 0
    outer loop
      vertex 75.4377 -21.6686 0
      vertex 75.4377 -21.6686 10
      vertex 75.5769 -21.4425 10
    endloop
  endfacet
  facet normal -0.42877 0.903414 0
    outer loop
      vertex 75.29 -21.7387 0
      vertex 75.4377 -21.6686 10
      vertex 75.4377 -21.6686 0
    endloop
  endfacet
  facet normal -0.42877 0.903414 0
    outer loop
      vertex 75.29 -21.7387 0
      vertex 75.29 -21.7387 10
      vertex 75.4377 -21.6686 10
    endloop
  endfacet
  facet normal 0.133412 0.991061 0
    outer loop
      vertex 74.25 -21.5987 0
      vertex 75.29 -21.7387 10
      vertex 75.29 -21.7387 0
    endloop
  endfacet
  facet normal 0.133412 0.991061 -0
    outer loop
      vertex 74.25 -21.5987 0
      vertex 74.25 -21.5987 10
      vertex 75.29 -21.7387 10
    endloop
  endfacet
  facet normal 0.288313 0.957536 0
    outer loop
      vertex 74.2045 -21.585 0
      vertex 74.25 -21.5987 10
      vertex 74.25 -21.5987 0
    endloop
  endfacet
  facet normal 0.288313 0.957536 -0
    outer loop
      vertex 74.2045 -21.585 0
      vertex 74.2045 -21.585 10
      vertex 74.25 -21.5987 10
    endloop
  endfacet
  facet normal 0.436545 0.899682 0
    outer loop
      vertex 73.9203 -21.4471 0
      vertex 74.2045 -21.585 10
      vertex 74.2045 -21.585 0
    endloop
  endfacet
  facet normal 0.436545 0.899682 -0
    outer loop
      vertex 73.9203 -21.4471 0
      vertex 73.9203 -21.4471 10
      vertex 74.2045 -21.585 10
    endloop
  endfacet
  facet normal -0.846312 -0.532688 0
    outer loop
      vertex 74.2369 -21.9501 0
      vertex 73.9203 -21.4471 10
      vertex 73.9203 -21.4471 0
    endloop
  endfacet
  facet normal -0.846312 -0.532688 0
    outer loop
      vertex 74.2369 -21.9501 0
      vertex 74.2369 -21.9501 10
      vertex 73.9203 -21.4471 10
    endloop
  endfacet
  facet normal -0.98387 -0.178885 0
    outer loop
      vertex 74.2569 -22.0601 0
      vertex 74.2369 -21.9501 10
      vertex 74.2369 -21.9501 0
    endloop
  endfacet
  facet normal -0.98387 -0.178885 0
    outer loop
      vertex 74.2569 -22.0601 0
      vertex 74.2569 -22.0601 10
      vertex 74.2369 -21.9501 10
    endloop
  endfacet
  facet normal -0.97964 0.200764 0
    outer loop
      vertex 74.1938 -22.368 0
      vertex 74.2569 -22.0601 10
      vertex 74.2569 -22.0601 0
    endloop
  endfacet
  facet normal -0.97964 0.200764 0
    outer loop
      vertex 74.1938 -22.368 0
      vertex 74.1938 -22.368 10
      vertex 74.2569 -22.0601 10
    endloop
  endfacet
  facet normal -0.683918 -0.729559 0
    outer loop
      vertex 74.6126 -22.7606 0
      vertex 74.1938 -22.368 10
      vertex 74.1938 -22.368 0
    endloop
  endfacet
  facet normal -0.683918 -0.729559 0
    outer loop
      vertex 74.6126 -22.7606 0
      vertex 74.6126 -22.7606 10
      vertex 74.1938 -22.368 10
    endloop
  endfacet
  facet normal -0.825079 -0.565017 0
    outer loop
      vertex 74.6491 -22.8139 0
      vertex 74.6126 -22.7606 10
      vertex 74.6126 -22.7606 0
    endloop
  endfacet
  facet normal -0.825079 -0.565017 0
    outer loop
      vertex 74.6491 -22.8139 0
      vertex 74.6491 -22.8139 10
      vertex 74.6126 -22.7606 10
    endloop
  endfacet
  facet normal -0.927604 -0.373566 0
    outer loop
      vertex 74.9391 -23.534 0
      vertex 74.6491 -22.8139 10
      vertex 74.6491 -22.8139 0
    endloop
  endfacet
  facet normal -0.927604 -0.373566 0
    outer loop
      vertex 74.9391 -23.534 0
      vertex 74.9391 -23.534 10
      vertex 74.6491 -22.8139 10
    endloop
  endfacet
  facet normal -0.971241 0.2381 0
    outer loop
      vertex 74.8974 -23.7041 0
      vertex 74.9391 -23.534 10
      vertex 74.9391 -23.534 0
    endloop
  endfacet
  facet normal -0.971241 0.2381 0
    outer loop
      vertex 74.8974 -23.7041 0
      vertex 74.8974 -23.7041 10
      vertex 74.9391 -23.534 10
    endloop
  endfacet
  facet normal -0.649334 0.760503 0
    outer loop
      vertex 74.0929 -24.391 0
      vertex 74.8974 -23.7041 10
      vertex 74.8974 -23.7041 0
    endloop
  endfacet
  facet normal -0.649334 0.760503 0
    outer loop
      vertex 74.0929 -24.391 0
      vertex 74.0929 -24.391 10
      vertex 74.8974 -23.7041 10
    endloop
  endfacet
  facet normal -0.911873 -0.410471 0
    outer loop
      vertex 74.3168 -24.8884 0
      vertex 74.0929 -24.391 10
      vertex 74.0929 -24.391 0
    endloop
  endfacet
  facet normal -0.911873 -0.410471 0
    outer loop
      vertex 74.3168 -24.8884 0
      vertex 74.3168 -24.8884 10
      vertex 74.0929 -24.391 10
    endloop
  endfacet
  facet normal -0.999044 0.0437267 0
    outer loop
      vertex 74.3109 -25.0232 0
      vertex 74.3168 -24.8884 10
      vertex 74.3168 -24.8884 0
    endloop
  endfacet
  facet normal -0.999044 0.0437267 0
    outer loop
      vertex 74.3109 -25.0232 0
      vertex 74.3109 -25.0232 10
      vertex 74.3168 -24.8884 10
    endloop
  endfacet
  facet normal -0.872772 0.488128 0
    outer loop
      vertex 74.001 -25.5773 0
      vertex 74.3109 -25.0232 10
      vertex 74.3109 -25.0232 0
    endloop
  endfacet
  facet normal -0.872772 0.488128 0
    outer loop
      vertex 74.001 -25.5773 0
      vertex 74.001 -25.5773 10
      vertex 74.3109 -25.0232 10
    endloop
  endfacet
  facet normal -0.999679 -0.0253167 0
    outer loop
      vertex 74.0392 -27.0857 0
      vertex 74.001 -25.5773 10
      vertex 74.001 -25.5773 0
    endloop
  endfacet
  facet normal -0.999679 -0.0253167 0
    outer loop
      vertex 74.0392 -27.0857 0
      vertex 74.0392 -27.0857 10
      vertex 74.001 -25.5773 10
    endloop
  endfacet
  facet normal -0.910421 -0.413684 0
    outer loop
      vertex 74.1961 -27.431 0
      vertex 74.0392 -27.0857 10
      vertex 74.0392 -27.0857 0
    endloop
  endfacet
  facet normal -0.910421 -0.413684 0
    outer loop
      vertex 74.1961 -27.431 0
      vertex 74.1961 -27.431 10
      vertex 74.0392 -27.0857 10
    endloop
  endfacet
  facet normal -0.23027 -0.973127 0
    outer loop
      vertex 74.5046 -27.504 0
      vertex 74.1961 -27.431 10
      vertex 74.1961 -27.431 0
    endloop
  endfacet
  facet normal -0.23027 -0.973127 0
    outer loop
      vertex 74.5046 -27.504 0
      vertex 74.5046 -27.504 10
      vertex 74.1961 -27.431 10
    endloop
  endfacet
  facet normal -0.758656 -0.651492 0
    outer loop
      vertex 74.6195 -27.6378 0
      vertex 74.5046 -27.504 10
      vertex 74.5046 -27.504 0
    endloop
  endfacet
  facet normal -0.758656 -0.651492 0
    outer loop
      vertex 74.6195 -27.6378 0
      vertex 74.6195 -27.6378 10
      vertex 74.5046 -27.504 10
    endloop
  endfacet
  facet normal -0.888811 0.458274 0
    outer loop
      vertex 74.5468 -27.7788 0
      vertex 74.6195 -27.6378 10
      vertex 74.6195 -27.6378 0
    endloop
  endfacet
  facet normal -0.888811 0.458274 0
    outer loop
      vertex 74.5468 -27.7788 0
      vertex 74.5468 -27.7788 10
      vertex 74.6195 -27.6378 10
    endloop
  endfacet
  facet normal -0.5122 0.858866 0
    outer loop
      vertex 73.5226 -28.3896 0
      vertex 74.5468 -27.7788 10
      vertex 74.5468 -27.7788 0
    endloop
  endfacet
  facet normal -0.5122 0.858866 0
    outer loop
      vertex 73.5226 -28.3896 0
      vertex 73.5226 -28.3896 10
      vertex 74.5468 -27.7788 10
    endloop
  endfacet
  facet normal -0.996074 0.088526 0
    outer loop
      vertex 73.4094 -29.6633 0
      vertex 73.5226 -28.3896 10
      vertex 73.5226 -28.3896 0
    endloop
  endfacet
  facet normal -0.996074 0.088526 0
    outer loop
      vertex 73.4094 -29.6633 0
      vertex 73.4094 -29.6633 10
      vertex 73.5226 -28.3896 10
    endloop
  endfacet
  facet normal -0.929523 0.368765 0
    outer loop
      vertex 73.3779 -29.7427 0
      vertex 73.4094 -29.6633 10
      vertex 73.4094 -29.6633 0
    endloop
  endfacet
  facet normal -0.929523 0.368765 0
    outer loop
      vertex 73.3779 -29.7427 0
      vertex 73.3779 -29.7427 10
      vertex 73.4094 -29.6633 10
    endloop
  endfacet
  facet normal -0.786326 0.617812 0
    outer loop
      vertex 72.788 -30.4935 0
      vertex 73.3779 -29.7427 10
      vertex 73.3779 -29.7427 0
    endloop
  endfacet
  facet normal -0.786326 0.617812 0
    outer loop
      vertex 72.788 -30.4935 0
      vertex 72.788 -30.4935 10
      vertex 73.3779 -29.7427 10
    endloop
  endfacet
  facet normal -0.808727 -0.588184 0
    outer loop
      vertex 73.363 -31.2841 0
      vertex 72.788 -30.4935 10
      vertex 72.788 -30.4935 0
    endloop
  endfacet
  facet normal -0.808727 -0.588184 0
    outer loop
      vertex 73.363 -31.2841 0
      vertex 73.363 -31.2841 10
      vertex 72.788 -30.4935 10
    endloop
  endfacet
  facet normal 0.487629 -0.873051 0
    outer loop
      vertex 73.5868 -31.1591 0
      vertex 73.363 -31.2841 10
      vertex 73.363 -31.2841 0
    endloop
  endfacet
  facet normal 0.487629 -0.873051 0
    outer loop
      vertex 73.5868 -31.1591 0
      vertex 73.5868 -31.1591 10
      vertex 73.363 -31.2841 10
    endloop
  endfacet
  facet normal -0.205089 -0.978743 0
    outer loop
      vertex 73.7796 -31.1995 0
      vertex 73.5868 -31.1591 10
      vertex 73.5868 -31.1591 0
    endloop
  endfacet
  facet normal -0.205089 -0.978743 0
    outer loop
      vertex 73.7796 -31.1995 0
      vertex 73.7796 -31.1995 10
      vertex 73.5868 -31.1591 10
    endloop
  endfacet
  facet normal -0.797315 -0.603563 0
    outer loop
      vertex 74.8104 -32.5612 0
      vertex 73.7796 -31.1995 10
      vertex 73.7796 -31.1995 0
    endloop
  endfacet
  facet normal -0.797315 -0.603563 0
    outer loop
      vertex 74.8104 -32.5612 0
      vertex 74.8104 -32.5612 10
      vertex 73.7796 -31.1995 10
    endloop
  endfacet
  facet normal 0.23364 -0.972323 0
    outer loop
      vertex 76.2549 -32.2141 0
      vertex 74.8104 -32.5612 10
      vertex 74.8104 -32.5612 0
    endloop
  endfacet
  facet normal 0.23364 -0.972323 0
    outer loop
      vertex 76.2549 -32.2141 0
      vertex 76.2549 -32.2141 10
      vertex 74.8104 -32.5612 10
    endloop
  endfacet
  facet normal -0.300264 -0.953856 0
    outer loop
      vertex 76.4023 -32.2605 0
      vertex 76.2549 -32.2141 10
      vertex 76.2549 -32.2141 0
    endloop
  endfacet
  facet normal -0.300264 -0.953856 0
    outer loop
      vertex 76.4023 -32.2605 0
      vertex 76.4023 -32.2605 10
      vertex 76.2549 -32.2141 10
    endloop
  endfacet
  facet normal -0.748347 -0.663308 0
    outer loop
      vertex 76.7923 -32.7005 0
      vertex 76.4023 -32.2605 10
      vertex 76.4023 -32.2605 0
    endloop
  endfacet
  facet normal -0.748347 -0.663308 0
    outer loop
      vertex 76.7923 -32.7005 0
      vertex 76.7923 -32.7005 10
      vertex 76.4023 -32.2605 10
    endloop
  endfacet
  facet normal -0.926027 -0.377457 0
    outer loop
      vertex 76.8298 -32.7925 0
      vertex 76.7923 -32.7005 10
      vertex 76.7923 -32.7005 0
    endloop
  endfacet
  facet normal -0.926027 -0.377457 0
    outer loop
      vertex 76.8298 -32.7925 0
      vertex 76.8298 -32.7925 10
      vertex 76.7923 -32.7005 10
    endloop
  endfacet
  facet normal -0.998768 -0.0496282 0
    outer loop
      vertex 76.9098 -34.4025 0
      vertex 76.8298 -32.7925 10
      vertex 76.8298 -32.7925 0
    endloop
  endfacet
  facet normal -0.998768 -0.0496282 0
    outer loop
      vertex 76.9098 -34.4025 0
      vertex 76.9098 -34.4025 10
      vertex 76.8298 -32.7925 10
    endloop
  endfacet
  facet normal -0.980424 0.196899 0
    outer loop
      vertex 76.8953 -34.4747 0
      vertex 76.9098 -34.4025 10
      vertex 76.9098 -34.4025 0
    endloop
  endfacet
  facet normal -0.980424 0.196899 0
    outer loop
      vertex 76.8953 -34.4747 0
      vertex 76.8953 -34.4747 10
      vertex 76.9098 -34.4025 10
    endloop
  endfacet
  facet normal -0.902254 0.431205 0
    outer loop
      vertex 76.2752 -35.7722 0
      vertex 76.8953 -34.4747 10
      vertex 76.8953 -34.4747 0
    endloop
  endfacet
  facet normal -0.902254 0.431205 0
    outer loop
      vertex 76.2752 -35.7722 0
      vertex 76.2752 -35.7722 10
      vertex 76.8953 -34.4747 10
    endloop
  endfacet
  facet normal -0.913342 -0.407194 0
    outer loop
      vertex 76.6044 -36.5106 0
      vertex 76.2752 -35.7722 10
      vertex 76.2752 -35.7722 0
    endloop
  endfacet
  facet normal -0.913342 -0.407194 0
    outer loop
      vertex 76.6044 -36.5106 0
      vertex 76.6044 -36.5106 10
      vertex 76.2752 -35.7722 10
    endloop
  endfacet
  facet normal -0.67661 -0.736342 0
    outer loop
      vertex 78.0615 -37.8495 0
      vertex 76.6044 -36.5106 10
      vertex 76.6044 -36.5106 0
    endloop
  endfacet
  facet normal -0.67661 -0.736342 0
    outer loop
      vertex 78.0615 -37.8495 0
      vertex 78.0615 -37.8495 10
      vertex 76.6044 -36.5106 10
    endloop
  endfacet
  facet normal -0.929269 -0.369404 0
    outer loop
      vertex 78.1096 -37.9705 0
      vertex 78.0615 -37.8495 10
      vertex 78.0615 -37.8495 0
    endloop
  endfacet
  facet normal -0.929269 -0.369404 0
    outer loop
      vertex 78.1096 -37.9705 0
      vertex 78.1096 -37.9705 10
      vertex 78.0615 -37.8495 10
    endloop
  endfacet
  facet normal -0.997549 0.0699675 0
    outer loop
      vertex 78.0789 -38.4082 0
      vertex 78.1096 -37.9705 10
      vertex 78.1096 -37.9705 0
    endloop
  endfacet
  facet normal -0.997549 0.0699675 0
    outer loop
      vertex 78.0789 -38.4082 0
      vertex 78.0789 -38.4082 10
      vertex 78.1096 -37.9705 10
    endloop
  endfacet
  facet normal -0.19235 -0.981326 0
    outer loop
      vertex 78.1942 -38.4308 0
      vertex 78.0789 -38.4082 10
      vertex 78.0789 -38.4082 0
    endloop
  endfacet
  facet normal -0.19235 -0.981326 0
    outer loop
      vertex 78.1942 -38.4308 0
      vertex 78.1942 -38.4308 10
      vertex 78.0789 -38.4082 10
    endloop
  endfacet
  facet normal 0.984709 0.17421 0
    outer loop
      vertex 78.0023 -37.3461 0
      vertex 78.1942 -38.4308 10
      vertex 78.1942 -38.4308 0
    endloop
  endfacet
  facet normal 0.984709 0.17421 -0
    outer loop
      vertex 78.0023 -37.3461 0
      vertex 78.0023 -37.3461 10
      vertex 78.1942 -38.4308 10
    endloop
  endfacet
endsolid OpenSCAD_Model
