solid OpenSCAD_Model
  facet normal 0 0 -1
    outer loop
      vertex 249.892 3.60851 0
      vertex 247.8 5.28999 0
      vertex 248.128 6.1259 0
    endloop
  endfacet
  facet normal 0 0 -1
    outer loop
      vertex 255.333 9.7009 0
      vertex 255.344 9.81146 0
      vertex 255.642 9.74768 0
    endloop
  endfacet
  facet normal -0 0 -1
    outer loop
      vertex 249.949 3.61998 0
      vertex 249.892 3.60851 0
      vertex 248.128 6.1259 0
    endloop
  endfacet
  facet normal 0 0 -1
    outer loop
      vertex 249.159 3.25125 0
      vertex 248.94 2.64853 0
      vertex 248.429 2.40176 0
    endloop
  endfacet
  facet normal -0 0 -1
    outer loop
      vertex 253.034 3.31296 0
      vertex 252.465 2.91566 0
      vertex 251.113 3.5489 0
    endloop
  endfacet
  facet normal 0 0 -1
    outer loop
      vertex 249.242 3.33852 0
      vertex 247.358 4.53032 0
      vertex 247.37 4.59366 0
    endloop
  endfacet
  facet normal 0 0 -1
    outer loop
      vertex 254.994 5.12282 0
      vertex 255.591 5.88048 0
      vertex 255.625 5.7635 0
    endloop
  endfacet
  facet normal 0 0 -1
    outer loop
      vertex 257.129 12.1776 0
      vertex 256.928 11.3877 0
      vertex 256.667 12.0162 0
    endloop
  endfacet
  facet normal 0 0 -1
    outer loop
      vertex 256.889 11.2171 0
      vertex 256.928 11.3877 0
      vertex 257.419 9.78999 0
    endloop
  endfacet
  facet normal -0 0 -1
    outer loop
      vertex 254.932 4.97534 0
      vertex 253.116 3.33992 0
      vertex 251.325 7.03323 0
    endloop
  endfacet
  facet normal -0 0 -1
    outer loop
      vertex 259.466 14.5742 0
      vertex 257.626 12.4083 0
      vertex 259.386 14.7504 0
    endloop
  endfacet
  facet normal 0 0 -1
    outer loop
      vertex 251.113 3.5489 0
      vertex 252.465 2.91566 0
      vertex 251.235 3.31371 0
    endloop
  endfacet
  facet normal -0 0 -1
    outer loop
      vertex 253.116 3.33992 0
      vertex 253.034 3.31296 0
      vertex 251.325 7.03323 0
    endloop
  endfacet
  facet normal 0 -0 -1
    outer loop
      vertex 251.325 7.03323 0
      vertex 253.034 3.31296 0
      vertex 251.25 6.98537 0
    endloop
  endfacet
  facet normal -0 0 -1
    outer loop
      vertex 255.023 4.43022 0
      vertex 254.384 3.37752 0
      vertex 254.932 4.97534 0
    endloop
  endfacet
  facet normal 0 0 -1
    outer loop
      vertex 254.932 4.97534 0
      vertex 254.384 3.37752 0
      vertex 253.116 3.33992 0
    endloop
  endfacet
  facet normal -0 0 -1
    outer loop
      vertex 261.594 9.8035 0
      vertex 261.428 9.74687 0
      vertex 262.494 10.804 0
    endloop
  endfacet
  facet normal -0 0 -1
    outer loop
      vertex 254.994 5.12282 0
      vertex 254.932 4.97534 0
      vertex 251.325 7.03323 0
    endloop
  endfacet
  facet normal -0 0 -1
    outer loop
      vertex 255.73 5.63884 0
      vertex 254.994 5.12282 0
      vertex 255.625 5.7635 0
    endloop
  endfacet
  facet normal 0 0 -1
    outer loop
      vertex 254.994 5.12282 0
      vertex 255.671 6.46048 0
      vertex 255.591 5.88048 0
    endloop
  endfacet
  facet normal 0 0 -1
    outer loop
      vertex 254.694 8.8651 0
      vertex 255.712 6.54417 0
      vertex 255.671 6.46048 0
    endloop
  endfacet
  facet normal 0 0 -1
    outer loop
      vertex 254.923 8.9109 0
      vertex 256.671 8.7785 0
      vertex 256.094 6.87987 0
    endloop
  endfacet
  facet normal 0 0 -1
    outer loop
      vertex 256.696 8.8445 0
      vertex 256.348 9.58887 0
      vertex 257.296 9.7245 0
    endloop
  endfacet
  facet normal 0 0 -1
    outer loop
      vertex 256.696 8.8445 0
      vertex 256.241 9.5612 0
      vertex 256.348 9.58887 0
    endloop
  endfacet
  facet normal -0 0 -1
    outer loop
      vertex 257.296 9.7245 0
      vertex 256.348 9.58887 0
      vertex 256.403 9.7567 0
    endloop
  endfacet
  facet normal 0 0 -1
    outer loop
      vertex 256.928 11.3877 0
      vertex 257.277 12.1814 0
      vertex 257.577 12.3614 0
    endloop
  endfacet
  facet normal -0 0 -1
    outer loop
      vertex 262.021 13.018 0
      vertex 261.158 12.9579 0
      vertex 262.162 13.2985 0
    endloop
  endfacet
  facet normal 0 0 -1
    outer loop
      vertex 256.094 6.87987 0
      vertex 256.671 8.7785 0
      vertex 256.437 6.89447 0
    endloop
  endfacet
  facet normal 0 0 -1
    outer loop
      vertex 260.269 9.79161 0
      vertex 261.158 12.9579 0
      vertex 261.428 9.74687 0
    endloop
  endfacet
  facet normal 0 0 -1
    outer loop
      vertex 260.219 9.79999 0
      vertex 257.577 12.3614 0
      vertex 257.626 12.4083 0
    endloop
  endfacet
  facet normal 0 0 -1
    outer loop
      vertex 259.466 14.5742 0
      vertex 261.015 13.2164 0
      vertex 260.99 13.0103 0
    endloop
  endfacet
  facet normal 0 0 -1
    outer loop
      vertex 262.245 9.60541 0
      vertex 261.594 9.8035 0
      vertex 262.532 10.6261 0
    endloop
  endfacet
  facet normal -0 0 -1
    outer loop
      vertex 263.312 9.95746 0
      vertex 262.245 9.60541 0
      vertex 262.532 10.6261 0
    endloop
  endfacet
  facet normal 0 0 -1
    outer loop
      vertex 260.269 9.79161 0
      vertex 261.428 9.74687 0
      vertex 261.223 9.45877 0
    endloop
  endfacet
  facet normal 0 -0 -1
    outer loop
      vertex 263.491 12.3083 0
      vertex 263.702 11.2012 0
      vertex 262.808 11.2498 0
    endloop
  endfacet
  facet normal -0 0 -1
    outer loop
      vertex 262.532 10.6261 0
      vertex 261.594 9.8035 0
      vertex 262.494 10.804 0
    endloop
  endfacet
  facet normal 0 0 -1
    outer loop
      vertex 263.312 9.95746 0
      vertex 263.302 9.86098 0
      vertex 262.245 9.60541 0
    endloop
  endfacet
  facet normal 0 0 -1
    outer loop
      vertex 261.428 9.74687 0
      vertex 261.158 12.9579 0
      vertex 262.494 10.804 0
    endloop
  endfacet
  facet normal 0 0 -1
    outer loop
      vertex 260.219 9.79999 0
      vertex 257.626 12.4083 0
      vertex 260.99 13.0103 0
    endloop
  endfacet
  facet normal 0 0 -1
    outer loop
      vertex 262.023 12.6391 0
      vertex 262.198 12.5548 0
      vertex 262.664 11.164 0
    endloop
  endfacet
  facet normal -0 0 -1
    outer loop
      vertex 264.805 11.8524 0
      vertex 264.632 11.4746 0
      vertex 263.491 12.3083 0
    endloop
  endfacet
  facet normal 0 0 -1
    outer loop
      vertex 262.494 10.804 0
      vertex 262.023 12.6391 0
      vertex 262.664 11.164 0
    endloop
  endfacet
  facet normal 0 0 -1
    outer loop
      vertex 262.198 12.5548 0
      vertex 262.97 12.7548 0
      vertex 263.44 12.3378 0
    endloop
  endfacet
  facet normal -0 0 -1
    outer loop
      vertex 263.491 12.3083 0
      vertex 262.808 11.2498 0
      vertex 263.44 12.3378 0
    endloop
  endfacet
  facet normal 0 0 -1
    outer loop
      vertex 263.491 12.3083 0
      vertex 264.632 11.4746 0
      vertex 263.702 11.2012 0
    endloop
  endfacet
  facet normal 0 0 -1
    outer loop
      vertex 262.808 11.2498 0
      vertex 262.198 12.5548 0
      vertex 263.44 12.3378 0
    endloop
  endfacet
  facet normal -0 0 -1
    outer loop
      vertex 262.808 11.2498 0
      vertex 262.664 11.164 0
      vertex 262.198 12.5548 0
    endloop
  endfacet
  facet normal 0 0 -1
    outer loop
      vertex 262.494 10.804 0
      vertex 261.158 12.9579 0
      vertex 262.023 12.6391 0
    endloop
  endfacet
  facet normal 0 0 -1
    outer loop
      vertex 262.023 12.6391 0
      vertex 261.158 12.9579 0
      vertex 261.943 12.8191 0
    endloop
  endfacet
  facet normal 0 -0 -1
    outer loop
      vertex 261.28 14.3334 0
      vertex 261.28 13.4314 0
      vertex 261.015 13.2164 0
    endloop
  endfacet
  facet normal 0 0 -1
    outer loop
      vertex 260.269 9.79161 0
      vertex 260.99 13.0103 0
      vertex 261.158 12.9579 0
    endloop
  endfacet
  facet normal 0 0 -1
    outer loop
      vertex 262.021 13.018 0
      vertex 261.943 12.8191 0
      vertex 261.158 12.9579 0
    endloop
  endfacet
  facet normal 0 0 -1
    outer loop
      vertex 260.219 9.79999 0
      vertex 260.99 13.0103 0
      vertex 260.269 9.79161 0
    endloop
  endfacet
  facet normal 0 0 -1
    outer loop
      vertex 262.021 13.018 0
      vertex 262.162 13.2985 0
      vertex 262.265 13.1216 0
    endloop
  endfacet
  facet normal 0 0 -1
    outer loop
      vertex 259.639 14.6074 0
      vertex 260.575 14.7401 0
      vertex 261.015 13.2164 0
    endloop
  endfacet
  facet normal 0 0 -1
    outer loop
      vertex 243.977 3.47723 0
      vertex 244.027 3.82082 0
      vertex 244.126 3.77063 0
    endloop
  endfacet
  facet normal 0 0 -1
    outer loop
      vertex 261.015 13.2164 0
      vertex 260.575 14.7401 0
      vertex 261.28 14.3334 0
    endloop
  endfacet
  facet normal 0 0 -1
    outer loop
      vertex 259.639 14.6074 0
      vertex 260.502 14.8453 0
      vertex 260.575 14.7401 0
    endloop
  endfacet
  facet normal 0 0 -1
    outer loop
      vertex 259.466 14.5742 0
      vertex 259.639 14.6074 0
      vertex 261.015 13.2164 0
    endloop
  endfacet
  facet normal 0 0 -1
    outer loop
      vertex 260.502 14.8453 0
      vertex 260.329 15.3422 0
      vertex 260.426 15.3027 0
    endloop
  endfacet
  facet normal -0 0 -1
    outer loop
      vertex 260.502 14.8453 0
      vertex 259.639 14.6074 0
      vertex 260.329 15.3422 0
    endloop
  endfacet
  facet normal 0 0 -1
    outer loop
      vertex 257.626 12.4083 0
      vertex 259.466 14.5742 0
      vertex 260.99 13.0103 0
    endloop
  endfacet
  facet normal 0 0 -1
    outer loop
      vertex 259.479 15.2626 0
      vertex 259.386 14.7504 0
      vertex 257.626 12.4083 0
    endloop
  endfacet
  facet normal 0 0 -1
    outer loop
      vertex 259.386 14.7504 0
      vertex 259.479 15.2626 0
      vertex 259.51 15.1965 0
    endloop
  endfacet
  facet normal 0 0 -1
    outer loop
      vertex 256.667 12.0162 0
      vertex 256.929 12.2847 0
      vertex 257.129 12.1776 0
    endloop
  endfacet
  facet normal 0 -0 -1
    outer loop
      vertex 256.889 11.2171 0
      vertex 257.419 9.78999 0
      vertex 256.489 10.8671 0
    endloop
  endfacet
  facet normal 0 0 -1
    outer loop
      vertex 256.068 10.7786 0
      vertex 256.413 10.8317 0
      vertex 256.403 9.7567 0
    endloop
  endfacet
  facet normal 0 -0 -1
    outer loop
      vertex 257.129 12.1776 0
      vertex 257.277 12.1814 0
      vertex 256.928 11.3877 0
    endloop
  endfacet
  facet normal -0 0 -1
    outer loop
      vertex 260.219 9.79999 0
      vertex 257.419 9.78999 0
      vertex 257.577 12.3614 0
    endloop
  endfacet
  facet normal 0 -0 -1
    outer loop
      vertex 256.413 10.8317 0
      vertex 256.489 10.8671 0
      vertex 256.403 9.7567 0
    endloop
  endfacet
  facet normal 0 -0 -1
    outer loop
      vertex 255.642 9.74768 0
      vertex 255.771 9.6212 0
      vertex 255.333 9.7009 0
    endloop
  endfacet
  facet normal 0 0 -1
    outer loop
      vertex 253.275 9.34323 0
      vertex 253.305 9.40085 0
      vertex 254.694 8.8651 0
    endloop
  endfacet
  facet normal 0 0 -1
    outer loop
      vertex 251.113 3.5489 0
      vertex 250.979 3.62999 0
      vertex 251.25 6.98537 0
    endloop
  endfacet
  facet normal 0 0 -1
    outer loop
      vertex 251.325 7.03323 0
      vertex 254.694 8.8651 0
      vertex 255.671 6.46048 0
    endloop
  endfacet
  facet normal 0 0 -1
    outer loop
      vertex 256.928 11.3877 0
      vertex 257.577 12.3614 0
      vertex 257.419 9.78999 0
    endloop
  endfacet
  facet normal -0 0 -1
    outer loop
      vertex 257.419 9.78999 0
      vertex 257.296 9.7245 0
      vertex 256.489 10.8671 0
    endloop
  endfacet
  facet normal -0 0 -1
    outer loop
      vertex 256.696 8.8445 0
      vertex 256.671 8.7785 0
      vertex 256.241 9.5612 0
    endloop
  endfacet
  facet normal 0 0 -1
    outer loop
      vertex 255.992 6.83418 0
      vertex 254.923 8.9109 0
      vertex 256.094 6.87987 0
    endloop
  endfacet
  facet normal 0 0 -1
    outer loop
      vertex 257.296 9.7245 0
      vertex 256.403 9.7567 0
      vertex 256.489 10.8671 0
    endloop
  endfacet
  facet normal 0 0 -1
    outer loop
      vertex 255.771 9.6212 0
      vertex 256.241 9.5612 0
      vertex 256.671 8.7785 0
    endloop
  endfacet
  facet normal 0 -0 -1
    outer loop
      vertex 255.333 9.7009 0
      vertex 255.771 9.6212 0
      vertex 254.923 8.9109 0
    endloop
  endfacet
  facet normal 0 -0 -1
    outer loop
      vertex 255.506 10.6499 0
      vertex 255.642 9.74768 0
      vertex 255.344 9.81146 0
    endloop
  endfacet
  facet normal 0 0 -1
    outer loop
      vertex 255.165 10.4335 0
      vertex 255.506 10.6499 0
      vertex 255.344 9.81146 0
    endloop
  endfacet
  facet normal -0 0 -1
    outer loop
      vertex 250.979 3.62999 0
      vertex 249.949 3.61998 0
      vertex 251.25 6.98537 0
    endloop
  endfacet
  facet normal 0 0 -1
    outer loop
      vertex 248.128 6.1259 0
      vertex 247.8 5.28999 0
      vertex 247.8 5.79785 0
    endloop
  endfacet
  facet normal 0 0 -1
    outer loop
      vertex 256.671 8.7785 0
      vertex 254.923 8.9109 0
      vertex 255.771 9.6212 0
    endloop
  endfacet
  facet normal 0 0 -1
    outer loop
      vertex 255.992 6.83418 0
      vertex 254.694 8.8651 0
      vertex 254.923 8.9109 0
    endloop
  endfacet
  facet normal -0 0 -1
    outer loop
      vertex 254.694 8.8651 0
      vertex 251.325 7.03323 0
      vertex 253.275 9.34323 0
    endloop
  endfacet
  facet normal -0 0 -1
    outer loop
      vertex 255.992 6.83418 0
      vertex 255.712 6.54417 0
      vertex 254.694 8.8651 0
    endloop
  endfacet
  facet normal 0 -0 -1
    outer loop
      vertex 251.25 6.98537 0
      vertex 253.034 3.31296 0
      vertex 251.113 3.5489 0
    endloop
  endfacet
  facet normal 0 0 -1
    outer loop
      vertex 247.8 5.28999 0
      vertex 249.892 3.60851 0
      vertex 249.242 3.33852 0
    endloop
  endfacet
  facet normal 0 0 -1
    outer loop
      vertex 243.977 3.47723 0
      vertex 243.608 4.11833 0
      vertex 244.027 3.82082 0
    endloop
  endfacet
  facet normal 0 0 -1
    outer loop
      vertex 254.694 8.8651 0
      vertex 253.305 9.40085 0
      vertex 253.444 9.91409 0
    endloop
  endfacet
  facet normal 0 0 -1
    outer loop
      vertex 247.37 4.59366 0
      vertex 247.611 5.14507 0
      vertex 247.8 5.28999 0
    endloop
  endfacet
  facet normal 0 0 -1
    outer loop
      vertex 251.325 7.03323 0
      vertex 255.671 6.46048 0
      vertex 254.994 5.12282 0
    endloop
  endfacet
  facet normal 0 0 -1
    outer loop
      vertex 251.25 6.98537 0
      vertex 249.949 3.61998 0
      vertex 248.128 6.1259 0
    endloop
  endfacet
  facet normal 0 0 -1
    outer loop
      vertex 247.358 4.53032 0
      vertex 249.242 3.33852 0
      vertex 249.159 3.25125 0
    endloop
  endfacet
  facet normal 0 0 -1
    outer loop
      vertex 247.256 3.215 0
      vertex 247.358 4.53032 0
      vertex 249.159 3.25125 0
    endloop
  endfacet
  facet normal 0 0 -1
    outer loop
      vertex 249.242 3.33852 0
      vertex 247.37 4.59366 0
      vertex 247.8 5.28999 0
    endloop
  endfacet
  facet normal 0 0 -1
    outer loop
      vertex 243.977 3.47723 0
      vertex 244.126 3.77063 0
      vertex 245.186 3.67245 0
    endloop
  endfacet
  facet normal -0 0 -1
    outer loop
      vertex 247.611 5.14507 0
      vertex 247.37 4.59366 0
      vertex 247.355 5.21347 0
    endloop
  endfacet
  facet normal 0 0 -1
    outer loop
      vertex 246.912 3.5031 0
      vertex 247.358 4.53032 0
      vertex 247.256 3.215 0
    endloop
  endfacet
  facet normal 0 0 -1
    outer loop
      vertex 247.299 3.04396 0
      vertex 246.898 2.4798 0
      vertex 247.108 2.95937 0
    endloop
  endfacet
  facet normal 0 0 -1
    outer loop
      vertex 247.256 3.215 0
      vertex 249.159 3.25125 0
      vertex 247.299 3.04396 0
    endloop
  endfacet
  facet normal 0 0 -1
    outer loop
      vertex 246.898 2.4798 0
      vertex 247.299 3.04396 0
      vertex 248.429 2.40176 0
    endloop
  endfacet
  facet normal 0 0 -1
    outer loop
      vertex 247.299 3.04396 0
      vertex 249.159 3.25125 0
      vertex 248.429 2.40176 0
    endloop
  endfacet
  facet normal 0 0 -1
    outer loop
      vertex 246.846 2.47324 0
      vertex 247.108 2.95937 0
      vertex 246.898 2.4798 0
    endloop
  endfacet
  facet normal 0 0 -1
    outer loop
      vertex 245.604 2.08778 0
      vertex 245.186 3.67245 0
      vertex 246.846 2.47324 0
    endloop
  endfacet
  facet normal 0 0 -1
    outer loop
      vertex 246.846 2.47324 0
      vertex 245.186 3.67245 0
      vertex 247.108 2.95937 0
    endloop
  endfacet
  facet normal 0 0 -1
    outer loop
      vertex 244.027 3.82082 0
      vertex 243.608 4.11833 0
      vertex 243.661 4.23627 0
    endloop
  endfacet
  facet normal 0 0 -1
    outer loop
      vertex 245.604 2.08778 0
      vertex 243.977 3.47723 0
      vertex 245.186 3.67245 0
    endloop
  endfacet
  facet normal 0 0 1
    outer loop
      vertex 248.128 6.1259 10
      vertex 247.8 5.28999 10
      vertex 249.892 3.60851 10
    endloop
  endfacet
  facet normal 0 0 1
    outer loop
      vertex 255.642 9.74768 10
      vertex 255.344 9.81146 10
      vertex 255.333 9.7009 10
    endloop
  endfacet
  facet normal 0 0 1
    outer loop
      vertex 248.128 6.1259 10
      vertex 249.892 3.60851 10
      vertex 249.949 3.61998 10
    endloop
  endfacet
  facet normal 0 0 1
    outer loop
      vertex 248.429 2.40176 10
      vertex 248.94 2.64853 10
      vertex 249.159 3.25125 10
    endloop
  endfacet
  facet normal 0 0 1
    outer loop
      vertex 251.113 3.5489 10
      vertex 252.465 2.91566 10
      vertex 253.034 3.31296 10
    endloop
  endfacet
  facet normal 0 0 1
    outer loop
      vertex 247.37 4.59366 10
      vertex 247.358 4.53032 10
      vertex 249.242 3.33852 10
    endloop
  endfacet
  facet normal 0 0 1
    outer loop
      vertex 255.625 5.7635 10
      vertex 255.591 5.88048 10
      vertex 254.994 5.12282 10
    endloop
  endfacet
  facet normal -0 0 1
    outer loop
      vertex 256.667 12.0162 10
      vertex 256.928 11.3877 10
      vertex 257.129 12.1776 10
    endloop
  endfacet
  facet normal 0 0 1
    outer loop
      vertex 257.419 9.78999 10
      vertex 256.928 11.3877 10
      vertex 256.889 11.2171 10
    endloop
  endfacet
  facet normal 0 0 1
    outer loop
      vertex 251.325 7.03323 10
      vertex 253.116 3.33992 10
      vertex 254.932 4.97534 10
    endloop
  endfacet
  facet normal 0 0 1
    outer loop
      vertex 259.386 14.7504 10
      vertex 257.626 12.4083 10
      vertex 259.466 14.5742 10
    endloop
  endfacet
  facet normal -0 -0 1
    outer loop
      vertex 251.235 3.31371 10
      vertex 252.465 2.91566 10
      vertex 251.113 3.5489 10
    endloop
  endfacet
  facet normal 0 0 1
    outer loop
      vertex 251.325 7.03323 10
      vertex 253.034 3.31296 10
      vertex 253.116 3.33992 10
    endloop
  endfacet
  facet normal -0 0 1
    outer loop
      vertex 251.25 6.98537 10
      vertex 253.034 3.31296 10
      vertex 251.325 7.03323 10
    endloop
  endfacet
  facet normal 0 0 1
    outer loop
      vertex 254.932 4.97534 10
      vertex 254.384 3.37752 10
      vertex 255.023 4.43022 10
    endloop
  endfacet
  facet normal 0 0 1
    outer loop
      vertex 253.116 3.33992 10
      vertex 254.384 3.37752 10
      vertex 254.932 4.97534 10
    endloop
  endfacet
  facet normal 0 0 1
    outer loop
      vertex 262.494 10.804 10
      vertex 261.428 9.74687 10
      vertex 261.594 9.8035 10
    endloop
  endfacet
  facet normal 0 0 1
    outer loop
      vertex 251.325 7.03323 10
      vertex 254.932 4.97534 10
      vertex 254.994 5.12282 10
    endloop
  endfacet
  facet normal 0 0 1
    outer loop
      vertex 255.625 5.7635 10
      vertex 254.994 5.12282 10
      vertex 255.73 5.63884 10
    endloop
  endfacet
  facet normal 0 -0 1
    outer loop
      vertex 255.591 5.88048 10
      vertex 255.671 6.46048 10
      vertex 254.994 5.12282 10
    endloop
  endfacet
  facet normal 0 -0 1
    outer loop
      vertex 255.671 6.46048 10
      vertex 255.712 6.54417 10
      vertex 254.694 8.8651 10
    endloop
  endfacet
  facet normal 0 -0 1
    outer loop
      vertex 256.094 6.87987 10
      vertex 256.671 8.7785 10
      vertex 254.923 8.9109 10
    endloop
  endfacet
  facet normal 0 0 1
    outer loop
      vertex 257.296 9.7245 10
      vertex 256.348 9.58887 10
      vertex 256.696 8.8445 10
    endloop
  endfacet
  facet normal 0 0 1
    outer loop
      vertex 256.348 9.58887 10
      vertex 256.241 9.5612 10
      vertex 256.696 8.8445 10
    endloop
  endfacet
  facet normal 0 0 1
    outer loop
      vertex 256.403 9.7567 10
      vertex 256.348 9.58887 10
      vertex 257.296 9.7245 10
    endloop
  endfacet
  facet normal 0 0 1
    outer loop
      vertex 257.577 12.3614 10
      vertex 257.277 12.1814 10
      vertex 256.928 11.3877 10
    endloop
  endfacet
  facet normal 0 0 1
    outer loop
      vertex 262.162 13.2985 10
      vertex 261.158 12.9579 10
      vertex 262.021 13.018 10
    endloop
  endfacet
  facet normal 0 -0 1
    outer loop
      vertex 256.437 6.89447 10
      vertex 256.671 8.7785 10
      vertex 256.094 6.87987 10
    endloop
  endfacet
  facet normal 0 0 1
    outer loop
      vertex 261.428 9.74687 10
      vertex 261.158 12.9579 10
      vertex 260.269 9.79161 10
    endloop
  endfacet
  facet normal 0 0 1
    outer loop
      vertex 257.626 12.4083 10
      vertex 257.577 12.3614 10
      vertex 260.219 9.79999 10
    endloop
  endfacet
  facet normal 0 -0 1
    outer loop
      vertex 260.99 13.0103 10
      vertex 261.015 13.2164 10
      vertex 259.466 14.5742 10
    endloop
  endfacet
  facet normal 0 0 1
    outer loop
      vertex 262.532 10.6261 10
      vertex 261.594 9.8035 10
      vertex 262.245 9.60541 10
    endloop
  endfacet
  facet normal 0 0 1
    outer loop
      vertex 262.532 10.6261 10
      vertex 262.245 9.60541 10
      vertex 263.312 9.95746 10
    endloop
  endfacet
  facet normal 0 -0 1
    outer loop
      vertex 261.223 9.45877 10
      vertex 261.428 9.74687 10
      vertex 260.269 9.79161 10
    endloop
  endfacet
  facet normal -0 0 1
    outer loop
      vertex 262.808 11.2498 10
      vertex 263.702 11.2012 10
      vertex 263.491 12.3083 10
    endloop
  endfacet
  facet normal 0 0 1
    outer loop
      vertex 262.494 10.804 10
      vertex 261.594 9.8035 10
      vertex 262.532 10.6261 10
    endloop
  endfacet
  facet normal 0 0 1
    outer loop
      vertex 262.245 9.60541 10
      vertex 263.302 9.86098 10
      vertex 263.312 9.95746 10
    endloop
  endfacet
  facet normal 0 0 1
    outer loop
      vertex 262.494 10.804 10
      vertex 261.158 12.9579 10
      vertex 261.428 9.74687 10
    endloop
  endfacet
  facet normal 0 0 1
    outer loop
      vertex 260.99 13.0103 10
      vertex 257.626 12.4083 10
      vertex 260.219 9.79999 10
    endloop
  endfacet
  facet normal 0 0 1
    outer loop
      vertex 262.664 11.164 10
      vertex 262.198 12.5548 10
      vertex 262.023 12.6391 10
    endloop
  endfacet
  facet normal 0 0 1
    outer loop
      vertex 263.491 12.3083 10
      vertex 264.632 11.4746 10
      vertex 264.805 11.8524 10
    endloop
  endfacet
  facet normal 0 0 1
    outer loop
      vertex 262.664 11.164 10
      vertex 262.023 12.6391 10
      vertex 262.494 10.804 10
    endloop
  endfacet
  facet normal 0 0 1
    outer loop
      vertex 263.44 12.3378 10
      vertex 262.97 12.7548 10
      vertex 262.198 12.5548 10
    endloop
  endfacet
  facet normal 0 0 1
    outer loop
      vertex 263.44 12.3378 10
      vertex 262.808 11.2498 10
      vertex 263.491 12.3083 10
    endloop
  endfacet
  facet normal 0 -0 1
    outer loop
      vertex 263.702 11.2012 10
      vertex 264.632 11.4746 10
      vertex 263.491 12.3083 10
    endloop
  endfacet
  facet normal 0 0 1
    outer loop
      vertex 263.44 12.3378 10
      vertex 262.198 12.5548 10
      vertex 262.808 11.2498 10
    endloop
  endfacet
  facet normal 0 0 1
    outer loop
      vertex 262.198 12.5548 10
      vertex 262.664 11.164 10
      vertex 262.808 11.2498 10
    endloop
  endfacet
  facet normal 0 0 1
    outer loop
      vertex 262.023 12.6391 10
      vertex 261.158 12.9579 10
      vertex 262.494 10.804 10
    endloop
  endfacet
  facet normal 0 0 1
    outer loop
      vertex 261.943 12.8191 10
      vertex 261.158 12.9579 10
      vertex 262.023 12.6391 10
    endloop
  endfacet
  facet normal 0 0 1
    outer loop
      vertex 261.015 13.2164 10
      vertex 261.28 13.4314 10
      vertex 261.28 14.3334 10
    endloop
  endfacet
  facet normal 0 0 1
    outer loop
      vertex 261.158 12.9579 10
      vertex 260.99 13.0103 10
      vertex 260.269 9.79161 10
    endloop
  endfacet
  facet normal -0 0 1
    outer loop
      vertex 261.158 12.9579 10
      vertex 261.943 12.8191 10
      vertex 262.021 13.018 10
    endloop
  endfacet
  facet normal 0 -0 1
    outer loop
      vertex 260.269 9.79161 10
      vertex 260.99 13.0103 10
      vertex 260.219 9.79999 10
    endloop
  endfacet
  facet normal 0 0 1
    outer loop
      vertex 262.265 13.1216 10
      vertex 262.162 13.2985 10
      vertex 262.021 13.018 10
    endloop
  endfacet
  facet normal 0 0 1
    outer loop
      vertex 261.015 13.2164 10
      vertex 260.575 14.7401 10
      vertex 259.639 14.6074 10
    endloop
  endfacet
  facet normal 0 0 1
    outer loop
      vertex 244.126 3.77063 10
      vertex 244.027 3.82082 10
      vertex 243.977 3.47723 10
    endloop
  endfacet
  facet normal 0 0 1
    outer loop
      vertex 261.28 14.3334 10
      vertex 260.575 14.7401 10
      vertex 261.015 13.2164 10
    endloop
  endfacet
  facet normal 0 0 1
    outer loop
      vertex 260.575 14.7401 10
      vertex 260.502 14.8453 10
      vertex 259.639 14.6074 10
    endloop
  endfacet
  facet normal 0 0 1
    outer loop
      vertex 261.015 13.2164 10
      vertex 259.639 14.6074 10
      vertex 259.466 14.5742 10
    endloop
  endfacet
  facet normal 0 0 1
    outer loop
      vertex 260.426 15.3027 10
      vertex 260.329 15.3422 10
      vertex 260.502 14.8453 10
    endloop
  endfacet
  facet normal 0 0 1
    outer loop
      vertex 260.329 15.3422 10
      vertex 259.639 14.6074 10
      vertex 260.502 14.8453 10
    endloop
  endfacet
  facet normal 0 0 1
    outer loop
      vertex 260.99 13.0103 10
      vertex 259.466 14.5742 10
      vertex 257.626 12.4083 10
    endloop
  endfacet
  facet normal 0 0 1
    outer loop
      vertex 257.626 12.4083 10
      vertex 259.386 14.7504 10
      vertex 259.479 15.2626 10
    endloop
  endfacet
  facet normal 0 0 1
    outer loop
      vertex 259.51 15.1965 10
      vertex 259.479 15.2626 10
      vertex 259.386 14.7504 10
    endloop
  endfacet
  facet normal 0 0 1
    outer loop
      vertex 257.129 12.1776 10
      vertex 256.929 12.2847 10
      vertex 256.667 12.0162 10
    endloop
  endfacet
  facet normal -0 0 1
    outer loop
      vertex 256.489 10.8671 10
      vertex 257.419 9.78999 10
      vertex 256.889 11.2171 10
    endloop
  endfacet
  facet normal 0 -0 1
    outer loop
      vertex 256.403 9.7567 10
      vertex 256.413 10.8317 10
      vertex 256.068 10.7786 10
    endloop
  endfacet
  facet normal 0 0 1
    outer loop
      vertex 256.928 11.3877 10
      vertex 257.277 12.1814 10
      vertex 257.129 12.1776 10
    endloop
  endfacet
  facet normal 0 0 1
    outer loop
      vertex 257.577 12.3614 10
      vertex 257.419 9.78999 10
      vertex 260.219 9.79999 10
    endloop
  endfacet
  facet normal 0 0 1
    outer loop
      vertex 256.403 9.7567 10
      vertex 256.489 10.8671 10
      vertex 256.413 10.8317 10
    endloop
  endfacet
  facet normal -0 0 1
    outer loop
      vertex 255.333 9.7009 10
      vertex 255.771 9.6212 10
      vertex 255.642 9.74768 10
    endloop
  endfacet
  facet normal 0 0 1
    outer loop
      vertex 254.694 8.8651 10
      vertex 253.305 9.40085 10
      vertex 253.275 9.34323 10
    endloop
  endfacet
  facet normal 0 0 1
    outer loop
      vertex 251.25 6.98537 10
      vertex 250.979 3.62999 10
      vertex 251.113 3.5489 10
    endloop
  endfacet
  facet normal 0 0 1
    outer loop
      vertex 255.671 6.46048 10
      vertex 254.694 8.8651 10
      vertex 251.325 7.03323 10
    endloop
  endfacet
  facet normal 0 -0 1
    outer loop
      vertex 257.419 9.78999 10
      vertex 257.577 12.3614 10
      vertex 256.928 11.3877 10
    endloop
  endfacet
  facet normal 0 0 1
    outer loop
      vertex 256.489 10.8671 10
      vertex 257.296 9.7245 10
      vertex 257.419 9.78999 10
    endloop
  endfacet
  facet normal 0 0 1
    outer loop
      vertex 256.241 9.5612 10
      vertex 256.671 8.7785 10
      vertex 256.696 8.8445 10
    endloop
  endfacet
  facet normal 0 0 1
    outer loop
      vertex 256.094 6.87987 10
      vertex 254.923 8.9109 10
      vertex 255.992 6.83418 10
    endloop
  endfacet
  facet normal 0 0 1
    outer loop
      vertex 256.489 10.8671 10
      vertex 256.403 9.7567 10
      vertex 257.296 9.7245 10
    endloop
  endfacet
  facet normal 0 0 1
    outer loop
      vertex 256.671 8.7785 10
      vertex 256.241 9.5612 10
      vertex 255.771 9.6212 10
    endloop
  endfacet
  facet normal 0 0 1
    outer loop
      vertex 254.923 8.9109 10
      vertex 255.771 9.6212 10
      vertex 255.333 9.7009 10
    endloop
  endfacet
  facet normal -0 0 1
    outer loop
      vertex 255.344 9.81146 10
      vertex 255.642 9.74768 10
      vertex 255.506 10.6499 10
    endloop
  endfacet
  facet normal 0 -0 1
    outer loop
      vertex 255.344 9.81146 10
      vertex 255.506 10.6499 10
      vertex 255.165 10.4335 10
    endloop
  endfacet
  facet normal 0 0 1
    outer loop
      vertex 251.25 6.98537 10
      vertex 249.949 3.61998 10
      vertex 250.979 3.62999 10
    endloop
  endfacet
  facet normal -0 0 1
    outer loop
      vertex 247.8 5.79785 10
      vertex 247.8 5.28999 10
      vertex 248.128 6.1259 10
    endloop
  endfacet
  facet normal 0 0 1
    outer loop
      vertex 255.771 9.6212 10
      vertex 254.923 8.9109 10
      vertex 256.671 8.7785 10
    endloop
  endfacet
  facet normal 0 0 1
    outer loop
      vertex 254.923 8.9109 10
      vertex 254.694 8.8651 10
      vertex 255.992 6.83418 10
    endloop
  endfacet
  facet normal 0 0 1
    outer loop
      vertex 253.275 9.34323 10
      vertex 251.325 7.03323 10
      vertex 254.694 8.8651 10
    endloop
  endfacet
  facet normal 0 0 1
    outer loop
      vertex 254.694 8.8651 10
      vertex 255.712 6.54417 10
      vertex 255.992 6.83418 10
    endloop
  endfacet
  facet normal -0 0 1
    outer loop
      vertex 251.113 3.5489 10
      vertex 253.034 3.31296 10
      vertex 251.25 6.98537 10
    endloop
  endfacet
  facet normal 0 -0 1
    outer loop
      vertex 249.242 3.33852 10
      vertex 249.892 3.60851 10
      vertex 247.8 5.28999 10
    endloop
  endfacet
  facet normal 0 0 1
    outer loop
      vertex 244.027 3.82082 10
      vertex 243.608 4.11833 10
      vertex 243.977 3.47723 10
    endloop
  endfacet
  facet normal 0 0 1
    outer loop
      vertex 253.444 9.91409 10
      vertex 253.305 9.40085 10
      vertex 254.694 8.8651 10
    endloop
  endfacet
  facet normal 0 0 1
    outer loop
      vertex 247.8 5.28999 10
      vertex 247.611 5.14507 10
      vertex 247.37 4.59366 10
    endloop
  endfacet
  facet normal 0 -0 1
    outer loop
      vertex 254.994 5.12282 10
      vertex 255.671 6.46048 10
      vertex 251.325 7.03323 10
    endloop
  endfacet
  facet normal -0 0 1
    outer loop
      vertex 248.128 6.1259 10
      vertex 249.949 3.61998 10
      vertex 251.25 6.98537 10
    endloop
  endfacet
  facet normal 0 -0 1
    outer loop
      vertex 249.159 3.25125 10
      vertex 249.242 3.33852 10
      vertex 247.358 4.53032 10
    endloop
  endfacet
  facet normal 0 0 1
    outer loop
      vertex 249.159 3.25125 10
      vertex 247.358 4.53032 10
      vertex 247.256 3.215 10
    endloop
  endfacet
  facet normal 0 0 1
    outer loop
      vertex 247.8 5.28999 10
      vertex 247.37 4.59366 10
      vertex 249.242 3.33852 10
    endloop
  endfacet
  facet normal 0 0 1
    outer loop
      vertex 245.186 3.67245 10
      vertex 244.126 3.77063 10
      vertex 243.977 3.47723 10
    endloop
  endfacet
  facet normal 0 0 1
    outer loop
      vertex 247.355 5.21347 10
      vertex 247.37 4.59366 10
      vertex 247.611 5.14507 10
    endloop
  endfacet
  facet normal 0 -0 1
    outer loop
      vertex 247.256 3.215 10
      vertex 247.358 4.53032 10
      vertex 246.912 3.5031 10
    endloop
  endfacet
  facet normal -0 0 1
    outer loop
      vertex 247.108 2.95937 10
      vertex 246.898 2.4798 10
      vertex 247.299 3.04396 10
    endloop
  endfacet
  facet normal 0 -0 1
    outer loop
      vertex 247.299 3.04396 10
      vertex 249.159 3.25125 10
      vertex 247.256 3.215 10
    endloop
  endfacet
  facet normal 0 0 1
    outer loop
      vertex 248.429 2.40176 10
      vertex 247.299 3.04396 10
      vertex 246.898 2.4798 10
    endloop
  endfacet
  facet normal 0 -0 1
    outer loop
      vertex 248.429 2.40176 10
      vertex 249.159 3.25125 10
      vertex 247.299 3.04396 10
    endloop
  endfacet
  facet normal 0 -0 1
    outer loop
      vertex 246.898 2.4798 10
      vertex 247.108 2.95937 10
      vertex 246.846 2.47324 10
    endloop
  endfacet
  facet normal 0 0 1
    outer loop
      vertex 246.846 2.47324 10
      vertex 245.186 3.67245 10
      vertex 245.604 2.08778 10
    endloop
  endfacet
  facet normal 0 0 1
    outer loop
      vertex 247.108 2.95937 10
      vertex 245.186 3.67245 10
      vertex 246.846 2.47324 10
    endloop
  endfacet
  facet normal 0 0 1
    outer loop
      vertex 243.661 4.23627 10
      vertex 243.608 4.11833 10
      vertex 244.027 3.82082 10
    endloop
  endfacet
  facet normal 0 0 1
    outer loop
      vertex 245.186 3.67245 10
      vertex 243.977 3.47723 10
      vertex 245.604 2.08778 10
    endloop
  endfacet
  facet normal 0.125162 -0.992136 0
    outer loop
      vertex 246.898 2.4798 0
      vertex 246.846 2.47324 10
      vertex 246.846 2.47324 0
    endloop
  endfacet
  facet normal 0.125162 -0.992136 0
    outer loop
      vertex 246.898 2.4798 0
      vertex 246.898 2.4798 10
      vertex 246.846 2.47324 10
    endloop
  endfacet
  facet normal -0.0509071 -0.998703 0
    outer loop
      vertex 248.429 2.40176 0
      vertex 246.898 2.4798 10
      vertex 246.898 2.4798 0
    endloop
  endfacet
  facet normal -0.0509071 -0.998703 0
    outer loop
      vertex 248.429 2.40176 0
      vertex 248.429 2.40176 10
      vertex 246.898 2.4798 10
    endloop
  endfacet
  facet normal 0.434864 -0.900496 0
    outer loop
      vertex 248.94 2.64853 0
      vertex 248.429 2.40176 10
      vertex 248.429 2.40176 0
    endloop
  endfacet
  facet normal 0.434864 -0.900496 0
    outer loop
      vertex 248.94 2.64853 0
      vertex 248.94 2.64853 10
      vertex 248.429 2.40176 10
    endloop
  endfacet
  facet normal 0.939879 -0.341508 0
    outer loop
      vertex 249.159 3.25125 0
      vertex 248.94 2.64853 10
      vertex 248.94 2.64853 0
    endloop
  endfacet
  facet normal 0.939879 -0.341508 0
    outer loop
      vertex 249.159 3.25125 0
      vertex 249.159 3.25125 10
      vertex 248.94 2.64853 10
    endloop
  endfacet
  facet normal 0.724612 -0.689157 0
    outer loop
      vertex 249.242 3.33852 0
      vertex 249.159 3.25125 10
      vertex 249.159 3.25125 0
    endloop
  endfacet
  facet normal 0.724612 -0.689157 0
    outer loop
      vertex 249.242 3.33852 0
      vertex 249.242 3.33852 10
      vertex 249.159 3.25125 10
    endloop
  endfacet
  facet normal 0.383594 -0.923502 0
    outer loop
      vertex 249.892 3.60851 0
      vertex 249.242 3.33852 10
      vertex 249.242 3.33852 0
    endloop
  endfacet
  facet normal 0.383594 -0.923502 0
    outer loop
      vertex 249.892 3.60851 0
      vertex 249.892 3.60851 10
      vertex 249.242 3.33852 10
    endloop
  endfacet
  facet normal 0.197274 -0.980348 0
    outer loop
      vertex 249.949 3.61998 0
      vertex 249.892 3.60851 10
      vertex 249.892 3.60851 0
    endloop
  endfacet
  facet normal 0.197274 -0.980348 0
    outer loop
      vertex 249.949 3.61998 0
      vertex 249.949 3.61998 10
      vertex 249.892 3.60851 10
    endloop
  endfacet
  facet normal 0.00971799 -0.999953 0
    outer loop
      vertex 250.979 3.62999 0
      vertex 249.949 3.61998 10
      vertex 249.949 3.61998 0
    endloop
  endfacet
  facet normal 0.00971799 -0.999953 0
    outer loop
      vertex 250.979 3.62999 0
      vertex 250.979 3.62999 10
      vertex 249.949 3.61998 10
    endloop
  endfacet
  facet normal -0.517731 -0.855543 0
    outer loop
      vertex 251.113 3.5489 0
      vertex 250.979 3.62999 10
      vertex 250.979 3.62999 0
    endloop
  endfacet
  facet normal -0.517731 -0.855543 0
    outer loop
      vertex 251.113 3.5489 0
      vertex 251.113 3.5489 10
      vertex 250.979 3.62999 10
    endloop
  endfacet
  facet normal -0.887678 -0.460465 0
    outer loop
      vertex 251.235 3.31371 0
      vertex 251.113 3.5489 10
      vertex 251.113 3.5489 0
    endloop
  endfacet
  facet normal -0.887678 -0.460465 0
    outer loop
      vertex 251.235 3.31371 0
      vertex 251.235 3.31371 10
      vertex 251.113 3.5489 10
    endloop
  endfacet
  facet normal -0.307896 -0.95142 0
    outer loop
      vertex 252.465 2.91566 0
      vertex 251.235 3.31371 10
      vertex 251.235 3.31371 0
    endloop
  endfacet
  facet normal -0.307896 -0.95142 0
    outer loop
      vertex 252.465 2.91566 0
      vertex 252.465 2.91566 10
      vertex 251.235 3.31371 10
    endloop
  endfacet
  facet normal 0.572495 -0.819908 0
    outer loop
      vertex 253.034 3.31296 0
      vertex 252.465 2.91566 10
      vertex 252.465 2.91566 0
    endloop
  endfacet
  facet normal 0.572495 -0.819908 0
    outer loop
      vertex 253.034 3.31296 0
      vertex 253.034 3.31296 10
      vertex 252.465 2.91566 10
    endloop
  endfacet
  facet normal 0.312333 -0.949973 0
    outer loop
      vertex 253.116 3.33992 0
      vertex 253.034 3.31296 10
      vertex 253.034 3.31296 0
    endloop
  endfacet
  facet normal 0.312333 -0.949973 0
    outer loop
      vertex 253.116 3.33992 0
      vertex 253.116 3.33992 10
      vertex 253.034 3.31296 10
    endloop
  endfacet
  facet normal 0.02964 -0.999561 0
    outer loop
      vertex 254.384 3.37752 0
      vertex 253.116 3.33992 10
      vertex 253.116 3.33992 0
    endloop
  endfacet
  facet normal 0.02964 -0.999561 0
    outer loop
      vertex 254.384 3.37752 0
      vertex 254.384 3.37752 10
      vertex 253.116 3.33992 10
    endloop
  endfacet
  facet normal 0.854838 -0.518895 0
    outer loop
      vertex 255.023 4.43022 0
      vertex 254.384 3.37752 10
      vertex 254.384 3.37752 0
    endloop
  endfacet
  facet normal 0.854838 -0.518895 0
    outer loop
      vertex 255.023 4.43022 0
      vertex 255.023 4.43022 10
      vertex 254.384 3.37752 10
    endloop
  endfacet
  facet normal 0.986351 0.164657 0
    outer loop
      vertex 254.932 4.97534 0
      vertex 255.023 4.43022 10
      vertex 255.023 4.43022 0
    endloop
  endfacet
  facet normal 0.986351 0.164657 -0
    outer loop
      vertex 254.932 4.97534 0
      vertex 254.932 4.97534 10
      vertex 255.023 4.43022 10
    endloop
  endfacet
  facet normal 0.921852 -0.387543 0
    outer loop
      vertex 254.994 5.12282 0
      vertex 254.932 4.97534 10
      vertex 254.932 4.97534 0
    endloop
  endfacet
  facet normal 0.921852 -0.387543 0
    outer loop
      vertex 254.994 5.12282 0
      vertex 254.994 5.12282 10
      vertex 254.932 4.97534 10
    endloop
  endfacet
  facet normal 0.574074 -0.818803 0
    outer loop
      vertex 255.73 5.63884 0
      vertex 254.994 5.12282 10
      vertex 254.994 5.12282 0
    endloop
  endfacet
  facet normal 0.574074 -0.818803 0
    outer loop
      vertex 255.73 5.63884 0
      vertex 255.73 5.63884 10
      vertex 254.994 5.12282 10
    endloop
  endfacet
  facet normal 0.764841 0.644219 0
    outer loop
      vertex 255.625 5.7635 0
      vertex 255.73 5.63884 10
      vertex 255.73 5.63884 0
    endloop
  endfacet
  facet normal 0.764841 0.644219 -0
    outer loop
      vertex 255.625 5.7635 0
      vertex 255.625 5.7635 10
      vertex 255.73 5.63884 10
    endloop
  endfacet
  facet normal 0.960263 0.279098 0
    outer loop
      vertex 255.591 5.88048 0
      vertex 255.625 5.7635 10
      vertex 255.625 5.7635 0
    endloop
  endfacet
  facet normal 0.960263 0.279098 -0
    outer loop
      vertex 255.591 5.88048 0
      vertex 255.591 5.88048 10
      vertex 255.625 5.7635 10
    endloop
  endfacet
  facet normal 0.990621 -0.136637 0
    outer loop
      vertex 255.671 6.46048 0
      vertex 255.591 5.88048 10
      vertex 255.591 5.88048 0
    endloop
  endfacet
  facet normal 0.990621 -0.136637 0
    outer loop
      vertex 255.671 6.46048 0
      vertex 255.671 6.46048 10
      vertex 255.591 5.88048 10
    endloop
  endfacet
  facet normal 0.898025 -0.439945 0
    outer loop
      vertex 255.712 6.54417 0
      vertex 255.671 6.46048 10
      vertex 255.671 6.46048 0
    endloop
  endfacet
  facet normal 0.898025 -0.439945 0
    outer loop
      vertex 255.712 6.54417 0
      vertex 255.712 6.54417 10
      vertex 255.671 6.46048 10
    endloop
  endfacet
  facet normal 0.719413 -0.694582 0
    outer loop
      vertex 255.992 6.83418 0
      vertex 255.712 6.54417 10
      vertex 255.712 6.54417 0
    endloop
  endfacet
  facet normal 0.719413 -0.694582 0
    outer loop
      vertex 255.992 6.83418 0
      vertex 255.992 6.83418 10
      vertex 255.712 6.54417 10
    endloop
  endfacet
  facet normal 0.408802 -0.912623 0
    outer loop
      vertex 256.094 6.87987 0
      vertex 255.992 6.83418 10
      vertex 255.992 6.83418 0
    endloop
  endfacet
  facet normal 0.408802 -0.912623 0
    outer loop
      vertex 256.094 6.87987 0
      vertex 256.094 6.87987 10
      vertex 255.992 6.83418 10
    endloop
  endfacet
  facet normal 0.0425271 -0.999095 0
    outer loop
      vertex 256.437 6.89447 0
      vertex 256.094 6.87987 10
      vertex 256.094 6.87987 0
    endloop
  endfacet
  facet normal 0.0425271 -0.999095 0
    outer loop
      vertex 256.437 6.89447 0
      vertex 256.437 6.89447 10
      vertex 256.094 6.87987 10
    endloop
  endfacet
  facet normal 0.992375 -0.123255 0
    outer loop
      vertex 256.671 8.7785 0
      vertex 256.437 6.89447 10
      vertex 256.437 6.89447 0
    endloop
  endfacet
  facet normal 0.992375 -0.123255 0
    outer loop
      vertex 256.671 8.7785 0
      vertex 256.671 8.7785 10
      vertex 256.437 6.89447 10
    endloop
  endfacet
  facet normal 0.935159 -0.354227 0
    outer loop
      vertex 256.696 8.8445 0
      vertex 256.671 8.7785 10
      vertex 256.671 8.7785 0
    endloop
  endfacet
  facet normal 0.935159 -0.354227 0
    outer loop
      vertex 256.696 8.8445 0
      vertex 256.696 8.8445 10
      vertex 256.671 8.7785 10
    endloop
  endfacet
  facet normal 0.826227 -0.563337 0
    outer loop
      vertex 257.296 9.7245 0
      vertex 256.696 8.8445 10
      vertex 256.696 8.8445 0
    endloop
  endfacet
  facet normal 0.826227 -0.563337 0
    outer loop
      vertex 257.296 9.7245 0
      vertex 257.296 9.7245 10
      vertex 256.696 8.8445 10
    endloop
  endfacet
  facet normal 0.469974 -0.882681 0
    outer loop
      vertex 257.419 9.78999 0
      vertex 257.296 9.7245 10
      vertex 257.296 9.7245 0
    endloop
  endfacet
  facet normal 0.469974 -0.882681 0
    outer loop
      vertex 257.419 9.78999 0
      vertex 257.419 9.78999 10
      vertex 257.296 9.7245 10
    endloop
  endfacet
  facet normal 0.00357141 -0.999994 0
    outer loop
      vertex 260.219 9.79999 0
      vertex 257.419 9.78999 10
      vertex 257.419 9.78999 0
    endloop
  endfacet
  facet normal 0.00357141 -0.999994 0
    outer loop
      vertex 260.219 9.79999 0
      vertex 260.219 9.79999 10
      vertex 257.419 9.78999 10
    endloop
  endfacet
  facet normal -0.165295 -0.986244 0
    outer loop
      vertex 260.269 9.79161 0
      vertex 260.219 9.79999 10
      vertex 260.219 9.79999 0
    endloop
  endfacet
  facet normal -0.165295 -0.986244 0
    outer loop
      vertex 260.269 9.79161 0
      vertex 260.269 9.79161 10
      vertex 260.219 9.79999 10
    endloop
  endfacet
  facet normal -0.329416 -0.944185 0
    outer loop
      vertex 261.223 9.45877 0
      vertex 260.269 9.79161 10
      vertex 260.269 9.79161 0
    endloop
  endfacet
  facet normal -0.329416 -0.944185 0
    outer loop
      vertex 261.223 9.45877 0
      vertex 261.223 9.45877 10
      vertex 260.269 9.79161 10
    endloop
  endfacet
  facet normal 0.814783 -0.579766 0
    outer loop
      vertex 261.428 9.74687 0
      vertex 261.223 9.45877 10
      vertex 261.223 9.45877 0
    endloop
  endfacet
  facet normal 0.814783 -0.579766 0
    outer loop
      vertex 261.428 9.74687 0
      vertex 261.428 9.74687 10
      vertex 261.223 9.45877 10
    endloop
  endfacet
  facet normal 0.322874 -0.946442 0
    outer loop
      vertex 261.594 9.8035 0
      vertex 261.428 9.74687 10
      vertex 261.428 9.74687 0
    endloop
  endfacet
  facet normal 0.322874 -0.946442 0
    outer loop
      vertex 261.594 9.8035 0
      vertex 261.594 9.8035 10
      vertex 261.428 9.74687 10
    endloop
  endfacet
  facet normal -0.291107 -0.95669 0
    outer loop
      vertex 262.245 9.60541 0
      vertex 261.594 9.8035 10
      vertex 261.594 9.8035 0
    endloop
  endfacet
  facet normal -0.291107 -0.95669 0
    outer loop
      vertex 262.245 9.60541 0
      vertex 262.245 9.60541 10
      vertex 261.594 9.8035 10
    endloop
  endfacet
  facet normal 0.235016 -0.971992 0
    outer loop
      vertex 263.302 9.86098 0
      vertex 262.245 9.60541 10
      vertex 262.245 9.60541 0
    endloop
  endfacet
  facet normal 0.235016 -0.971992 0
    outer loop
      vertex 263.302 9.86098 0
      vertex 263.302 9.86098 10
      vertex 262.245 9.60541 10
    endloop
  endfacet
  facet normal 0.994671 -0.103096 0
    outer loop
      vertex 263.312 9.95746 0
      vertex 263.302 9.86098 10
      vertex 263.302 9.86098 0
    endloop
  endfacet
  facet normal 0.994671 -0.103096 0
    outer loop
      vertex 263.312 9.95746 0
      vertex 263.312 9.95746 10
      vertex 263.302 9.86098 10
    endloop
  endfacet
  facet normal 0.65083 0.759224 0
    outer loop
      vertex 262.532 10.6261 0
      vertex 263.312 9.95746 10
      vertex 263.312 9.95746 0
    endloop
  endfacet
  facet normal 0.65083 0.759224 -0
    outer loop
      vertex 262.532 10.6261 0
      vertex 262.532 10.6261 10
      vertex 263.312 9.95746 10
    endloop
  endfacet
  facet normal 0.977939 0.208891 0
    outer loop
      vertex 262.494 10.804 0
      vertex 262.532 10.6261 10
      vertex 262.532 10.6261 0
    endloop
  endfacet
  facet normal 0.977939 0.208891 -0
    outer loop
      vertex 262.494 10.804 0
      vertex 262.494 10.804 10
      vertex 262.532 10.6261 10
    endloop
  endfacet
  facet normal 0.904249 -0.427006 0
    outer loop
      vertex 262.664 11.164 0
      vertex 262.494 10.804 10
      vertex 262.494 10.804 0
    endloop
  endfacet
  facet normal 0.904249 -0.427006 0
    outer loop
      vertex 262.664 11.164 0
      vertex 262.664 11.164 10
      vertex 262.494 10.804 10
    endloop
  endfacet
  facet normal 0.511861 -0.859068 0
    outer loop
      vertex 262.808 11.2498 0
      vertex 262.664 11.164 10
      vertex 262.664 11.164 0
    endloop
  endfacet
  facet normal 0.511861 -0.859068 0
    outer loop
      vertex 262.808 11.2498 0
      vertex 262.808 11.2498 10
      vertex 262.664 11.164 10
    endloop
  endfacet
  facet normal -0.0542823 -0.998526 0
    outer loop
      vertex 263.702 11.2012 0
      vertex 262.808 11.2498 10
      vertex 262.808 11.2498 0
    endloop
  endfacet
  facet normal -0.0542823 -0.998526 0
    outer loop
      vertex 263.702 11.2012 0
      vertex 263.702 11.2012 10
      vertex 262.808 11.2498 10
    endloop
  endfacet
  facet normal 0.282043 -0.959402 0
    outer loop
      vertex 264.632 11.4746 0
      vertex 263.702 11.2012 10
      vertex 263.702 11.2012 0
    endloop
  endfacet
  facet normal 0.282043 -0.959402 0
    outer loop
      vertex 264.632 11.4746 0
      vertex 264.632 11.4746 10
      vertex 263.702 11.2012 10
    endloop
  endfacet
  facet normal 0.909209 -0.41634 0
    outer loop
      vertex 264.805 11.8524 0
      vertex 264.632 11.4746 10
      vertex 264.632 11.4746 0
    endloop
  endfacet
  facet normal 0.909209 -0.41634 0
    outer loop
      vertex 264.805 11.8524 0
      vertex 264.805 11.8524 10
      vertex 264.632 11.4746 10
    endloop
  endfacet
  facet normal 0.327787 0.944752 0
    outer loop
      vertex 263.491 12.3083 0
      vertex 264.805 11.8524 10
      vertex 264.805 11.8524 0
    endloop
  endfacet
  facet normal 0.327787 0.944752 -0
    outer loop
      vertex 263.491 12.3083 0
      vertex 263.491 12.3083 10
      vertex 264.805 11.8524 10
    endloop
  endfacet
  facet normal 0.500702 0.86562 0
    outer loop
      vertex 263.44 12.3378 0
      vertex 263.491 12.3083 10
      vertex 263.491 12.3083 0
    endloop
  endfacet
  facet normal 0.500702 0.86562 -0
    outer loop
      vertex 263.44 12.3378 0
      vertex 263.44 12.3378 10
      vertex 263.491 12.3083 10
    endloop
  endfacet
  facet normal 0.663672 0.748024 0
    outer loop
      vertex 262.97 12.7548 0
      vertex 263.44 12.3378 10
      vertex 263.44 12.3378 0
    endloop
  endfacet
  facet normal 0.663672 0.748024 -0
    outer loop
      vertex 262.97 12.7548 0
      vertex 262.97 12.7548 10
      vertex 263.44 12.3378 10
    endloop
  endfacet
  facet normal -0.250788 0.968042 0
    outer loop
      vertex 262.198 12.5548 0
      vertex 262.97 12.7548 10
      vertex 262.97 12.7548 0
    endloop
  endfacet
  facet normal -0.250788 0.968042 0
    outer loop
      vertex 262.198 12.5548 0
      vertex 262.198 12.5548 10
      vertex 262.97 12.7548 10
    endloop
  endfacet
  facet normal 0.433986 0.90092 0
    outer loop
      vertex 262.023 12.6391 0
      vertex 262.198 12.5548 10
      vertex 262.198 12.5548 0
    endloop
  endfacet
  facet normal 0.433986 0.90092 -0
    outer loop
      vertex 262.023 12.6391 0
      vertex 262.023 12.6391 10
      vertex 262.198 12.5548 10
    endloop
  endfacet
  facet normal 0.913812 0.406138 0
    outer loop
      vertex 261.943 12.8191 0
      vertex 262.023 12.6391 10
      vertex 262.023 12.6391 0
    endloop
  endfacet
  facet normal 0.913812 0.406138 -0
    outer loop
      vertex 261.943 12.8191 0
      vertex 261.943 12.8191 10
      vertex 262.023 12.6391 10
    endloop
  endfacet
  facet normal 0.930973 -0.365088 0
    outer loop
      vertex 262.021 13.018 0
      vertex 261.943 12.8191 10
      vertex 261.943 12.8191 0
    endloop
  endfacet
  facet normal 0.930973 -0.365088 0
    outer loop
      vertex 262.021 13.018 0
      vertex 262.021 13.018 10
      vertex 261.943 12.8191 10
    endloop
  endfacet
  facet normal 0.390821 -0.920467 0
    outer loop
      vertex 262.265 13.1216 0
      vertex 262.021 13.018 10
      vertex 262.021 13.018 0
    endloop
  endfacet
  facet normal 0.390821 -0.920467 0
    outer loop
      vertex 262.265 13.1216 0
      vertex 262.265 13.1216 10
      vertex 262.021 13.018 10
    endloop
  endfacet
  facet normal 0.864186 0.503172 0
    outer loop
      vertex 262.162 13.2985 0
      vertex 262.265 13.1216 10
      vertex 262.265 13.1216 0
    endloop
  endfacet
  facet normal 0.864186 0.503172 -0
    outer loop
      vertex 262.162 13.2985 0
      vertex 262.162 13.2985 10
      vertex 262.265 13.1216 10
    endloop
  endfacet
  facet normal -0.32126 0.946991 0
    outer loop
      vertex 261.158 12.9579 0
      vertex 262.162 13.2985 10
      vertex 262.162 13.2985 0
    endloop
  endfacet
  facet normal -0.32126 0.946991 0
    outer loop
      vertex 261.158 12.9579 0
      vertex 261.158 12.9579 10
      vertex 262.162 13.2985 10
    endloop
  endfacet
  facet normal 0.297757 0.954642 0
    outer loop
      vertex 260.99 13.0103 0
      vertex 261.158 12.9579 10
      vertex 261.158 12.9579 0
    endloop
  endfacet
  facet normal 0.297757 0.954642 -0
    outer loop
      vertex 260.99 13.0103 0
      vertex 260.99 13.0103 10
      vertex 261.158 12.9579 10
    endloop
  endfacet
  facet normal 0.992723 -0.120418 0
    outer loop
      vertex 261.015 13.2164 0
      vertex 260.99 13.0103 10
      vertex 260.99 13.0103 0
    endloop
  endfacet
  facet normal 0.992723 -0.120418 0
    outer loop
      vertex 261.015 13.2164 0
      vertex 261.015 13.2164 10
      vertex 260.99 13.0103 10
    endloop
  endfacet
  facet normal 0.630041 -0.776562 0
    outer loop
      vertex 261.28 13.4314 0
      vertex 261.015 13.2164 10
      vertex 261.015 13.2164 0
    endloop
  endfacet
  facet normal 0.630041 -0.776562 0
    outer loop
      vertex 261.28 13.4314 0
      vertex 261.28 13.4314 10
      vertex 261.015 13.2164 10
    endloop
  endfacet
  facet normal 1 0 0
    outer loop
      vertex 261.28 14.3334 0
      vertex 261.28 13.4314 10
      vertex 261.28 13.4314 0
    endloop
  endfacet
  facet normal 1 0 -0
    outer loop
      vertex 261.28 14.3334 0
      vertex 261.28 14.3334 10
      vertex 261.28 13.4314 10
    endloop
  endfacet
  facet normal 0.499694 0.866202 0
    outer loop
      vertex 260.575 14.7401 0
      vertex 261.28 14.3334 10
      vertex 261.28 14.3334 0
    endloop
  endfacet
  facet normal 0.499694 0.866202 -0
    outer loop
      vertex 260.575 14.7401 0
      vertex 260.575 14.7401 10
      vertex 261.28 14.3334 10
    endloop
  endfacet
  facet normal 0.821573 0.570103 0
    outer loop
      vertex 260.502 14.8453 0
      vertex 260.575 14.7401 10
      vertex 260.575 14.7401 0
    endloop
  endfacet
  facet normal 0.821573 0.570103 -0
    outer loop
      vertex 260.502 14.8453 0
      vertex 260.502 14.8453 10
      vertex 260.575 14.7401 10
    endloop
  endfacet
  facet normal 0.986475 0.163909 0
    outer loop
      vertex 260.426 15.3027 0
      vertex 260.502 14.8453 10
      vertex 260.502 14.8453 0
    endloop
  endfacet
  facet normal 0.986475 0.163909 -0
    outer loop
      vertex 260.426 15.3027 0
      vertex 260.426 15.3027 10
      vertex 260.502 14.8453 10
    endloop
  endfacet
  facet normal 0.377145 0.926154 0
    outer loop
      vertex 260.329 15.3422 0
      vertex 260.426 15.3027 10
      vertex 260.426 15.3027 0
    endloop
  endfacet
  facet normal 0.377145 0.926154 -0
    outer loop
      vertex 260.329 15.3422 0
      vertex 260.329 15.3422 10
      vertex 260.426 15.3027 10
    endloop
  endfacet
  facet normal -0.72898 0.684535 0
    outer loop
      vertex 259.639 14.6074 0
      vertex 260.329 15.3422 10
      vertex 260.329 15.3422 0
    endloop
  endfacet
  facet normal -0.72898 0.684535 0
    outer loop
      vertex 259.639 14.6074 0
      vertex 259.639 14.6074 10
      vertex 260.329 15.3422 10
    endloop
  endfacet
  facet normal -0.188468 0.982079 0
    outer loop
      vertex 259.466 14.5742 0
      vertex 259.639 14.6074 10
      vertex 259.639 14.6074 0
    endloop
  endfacet
  facet normal -0.188468 0.982079 0
    outer loop
      vertex 259.466 14.5742 0
      vertex 259.466 14.5742 10
      vertex 259.639 14.6074 10
    endloop
  endfacet
  facet normal 0.910543 0.413414 0
    outer loop
      vertex 259.386 14.7504 0
      vertex 259.466 14.5742 10
      vertex 259.466 14.5742 0
    endloop
  endfacet
  facet normal 0.910543 0.413414 -0
    outer loop
      vertex 259.386 14.7504 0
      vertex 259.386 14.7504 10
      vertex 259.466 14.5742 10
    endloop
  endfacet
  facet normal 0.963471 -0.267811 0
    outer loop
      vertex 259.51 15.1965 0
      vertex 259.386 14.7504 10
      vertex 259.386 14.7504 0
    endloop
  endfacet
  facet normal 0.963471 -0.267811 0
    outer loop
      vertex 259.51 15.1965 0
      vertex 259.51 15.1965 10
      vertex 259.386 14.7504 10
    endloop
  endfacet
  facet normal 0.905377 0.424609 0
    outer loop
      vertex 259.479 15.2626 0
      vertex 259.51 15.1965 10
      vertex 259.51 15.1965 0
    endloop
  endfacet
  facet normal 0.905377 0.424609 -0
    outer loop
      vertex 259.479 15.2626 0
      vertex 259.479 15.2626 10
      vertex 259.51 15.1965 10
    endloop
  endfacet
  facet normal -0.838752 0.544514 0
    outer loop
      vertex 257.626 12.4083 0
      vertex 259.479 15.2626 10
      vertex 259.479 15.2626 0
    endloop
  endfacet
  facet normal -0.838752 0.544514 0
    outer loop
      vertex 257.626 12.4083 0
      vertex 257.626 12.4083 10
      vertex 259.479 15.2626 10
    endloop
  endfacet
  facet normal -0.691457 0.722418 0
    outer loop
      vertex 257.577 12.3614 0
      vertex 257.626 12.4083 10
      vertex 257.626 12.4083 0
    endloop
  endfacet
  facet normal -0.691457 0.722418 0
    outer loop
      vertex 257.577 12.3614 0
      vertex 257.577 12.3614 10
      vertex 257.626 12.4083 10
    endloop
  endfacet
  facet normal -0.514496 0.857493 0
    outer loop
      vertex 257.277 12.1814 0
      vertex 257.577 12.3614 10
      vertex 257.577 12.3614 0
    endloop
  endfacet
  facet normal -0.514496 0.857493 0
    outer loop
      vertex 257.277 12.1814 0
      vertex 257.277 12.1814 10
      vertex 257.577 12.3614 10
    endloop
  endfacet
  facet normal -0.0256672 0.999671 0
    outer loop
      vertex 257.129 12.1776 0
      vertex 257.277 12.1814 10
      vertex 257.277 12.1814 0
    endloop
  endfacet
  facet normal -0.0256672 0.999671 0
    outer loop
      vertex 257.129 12.1776 0
      vertex 257.129 12.1776 10
      vertex 257.277 12.1814 10
    endloop
  endfacet
  facet normal 0.472075 0.881559 0
    outer loop
      vertex 256.929 12.2847 0
      vertex 257.129 12.1776 10
      vertex 257.129 12.1776 0
    endloop
  endfacet
  facet normal 0.472075 0.881559 -0
    outer loop
      vertex 256.929 12.2847 0
      vertex 256.929 12.2847 10
      vertex 257.129 12.1776 10
    endloop
  endfacet
  facet normal -0.715717 0.69839 0
    outer loop
      vertex 256.667 12.0162 0
      vertex 256.929 12.2847 10
      vertex 256.929 12.2847 0
    endloop
  endfacet
  facet normal -0.715717 0.69839 0
    outer loop
      vertex 256.667 12.0162 0
      vertex 256.667 12.0162 10
      vertex 256.929 12.2847 10
    endloop
  endfacet
  facet normal -0.923533 -0.38352 0
    outer loop
      vertex 256.928 11.3877 0
      vertex 256.667 12.0162 10
      vertex 256.667 12.0162 0
    endloop
  endfacet
  facet normal -0.923533 -0.38352 0
    outer loop
      vertex 256.928 11.3877 0
      vertex 256.928 11.3877 10
      vertex 256.667 12.0162 10
    endloop
  endfacet
  facet normal -0.974851 0.222856 0
    outer loop
      vertex 256.889 11.2171 0
      vertex 256.928 11.3877 10
      vertex 256.928 11.3877 0
    endloop
  endfacet
  facet normal -0.974851 0.222856 0
    outer loop
      vertex 256.889 11.2171 0
      vertex 256.889 11.2171 10
      vertex 256.928 11.3877 10
    endloop
  endfacet
  facet normal -0.658505 0.752577 0
    outer loop
      vertex 256.489 10.8671 0
      vertex 256.889 11.2171 10
      vertex 256.889 11.2171 0
    endloop
  endfacet
  facet normal -0.658505 0.752577 0
    outer loop
      vertex 256.489 10.8671 0
      vertex 256.489 10.8671 10
      vertex 256.889 11.2171 10
    endloop
  endfacet
  facet normal -0.422232 0.906488 0
    outer loop
      vertex 256.413 10.8317 0
      vertex 256.489 10.8671 10
      vertex 256.489 10.8671 0
    endloop
  endfacet
  facet normal -0.422232 0.906488 0
    outer loop
      vertex 256.413 10.8317 0
      vertex 256.413 10.8317 10
      vertex 256.489 10.8671 10
    endloop
  endfacet
  facet normal -0.152122 0.988362 0
    outer loop
      vertex 256.068 10.7786 0
      vertex 256.413 10.8317 10
      vertex 256.413 10.8317 0
    endloop
  endfacet
  facet normal -0.152122 0.988362 0
    outer loop
      vertex 256.068 10.7786 0
      vertex 256.068 10.7786 10
      vertex 256.413 10.8317 10
    endloop
  endfacet
  facet normal -0.950243 -0.311509 0
    outer loop
      vertex 256.403 9.7567 0
      vertex 256.068 10.7786 10
      vertex 256.068 10.7786 0
    endloop
  endfacet
  facet normal -0.950243 -0.311509 0
    outer loop
      vertex 256.403 9.7567 0
      vertex 256.403 9.7567 10
      vertex 256.068 10.7786 10
    endloop
  endfacet
  facet normal -0.950273 0.311417 0
    outer loop
      vertex 256.348 9.58887 0
      vertex 256.403 9.7567 10
      vertex 256.403 9.7567 0
    endloop
  endfacet
  facet normal -0.950273 0.311417 0
    outer loop
      vertex 256.348 9.58887 0
      vertex 256.348 9.58887 10
      vertex 256.403 9.7567 10
    endloop
  endfacet
  facet normal -0.250362 0.968152 0
    outer loop
      vertex 256.241 9.5612 0
      vertex 256.348 9.58887 10
      vertex 256.348 9.58887 0
    endloop
  endfacet
  facet normal -0.250362 0.968152 0
    outer loop
      vertex 256.241 9.5612 0
      vertex 256.241 9.5612 10
      vertex 256.348 9.58887 10
    endloop
  endfacet
  facet normal 0.126632 0.99195 0
    outer loop
      vertex 255.771 9.6212 0
      vertex 256.241 9.5612 10
      vertex 256.241 9.5612 0
    endloop
  endfacet
  facet normal 0.126632 0.99195 -0
    outer loop
      vertex 255.771 9.6212 0
      vertex 255.771 9.6212 10
      vertex 256.241 9.5612 10
    endloop
  endfacet
  facet normal 0.700098 0.714047 0
    outer loop
      vertex 255.642 9.74768 0
      vertex 255.771 9.6212 10
      vertex 255.771 9.6212 0
    endloop
  endfacet
  facet normal 0.700098 0.714047 -0
    outer loop
      vertex 255.642 9.74768 0
      vertex 255.642 9.74768 10
      vertex 255.771 9.6212 10
    endloop
  endfacet
  facet normal 0.988829 0.149055 0
    outer loop
      vertex 255.506 10.6499 0
      vertex 255.642 9.74768 10
      vertex 255.642 9.74768 0
    endloop
  endfacet
  facet normal 0.988829 0.149055 -0
    outer loop
      vertex 255.506 10.6499 0
      vertex 255.506 10.6499 10
      vertex 255.642 9.74768 10
    endloop
  endfacet
  facet normal -0.535818 0.844334 0
    outer loop
      vertex 255.165 10.4335 0
      vertex 255.506 10.6499 10
      vertex 255.506 10.6499 0
    endloop
  endfacet
  facet normal -0.535818 0.844334 0
    outer loop
      vertex 255.165 10.4335 0
      vertex 255.165 10.4335 10
      vertex 255.506 10.6499 10
    endloop
  endfacet
  facet normal -0.961002 -0.276541 0
    outer loop
      vertex 255.344 9.81146 0
      vertex 255.165 10.4335 10
      vertex 255.165 10.4335 0
    endloop
  endfacet
  facet normal -0.961002 -0.276541 0
    outer loop
      vertex 255.344 9.81146 0
      vertex 255.344 9.81146 10
      vertex 255.165 10.4335 10
    endloop
  endfacet
  facet normal -0.995087 0.0990047 0
    outer loop
      vertex 255.333 9.7009 0
      vertex 255.344 9.81146 10
      vertex 255.344 9.81146 0
    endloop
  endfacet
  facet normal -0.995087 0.0990047 0
    outer loop
      vertex 255.333 9.7009 0
      vertex 255.333 9.7009 10
      vertex 255.344 9.81146 10
    endloop
  endfacet
  facet normal -0.887584 0.460645 0
    outer loop
      vertex 254.923 8.9109 0
      vertex 255.333 9.7009 10
      vertex 255.333 9.7009 0
    endloop
  endfacet
  facet normal -0.887584 0.460645 0
    outer loop
      vertex 254.923 8.9109 0
      vertex 254.923 8.9109 10
      vertex 255.333 9.7009 10
    endloop
  endfacet
  facet normal -0.196116 0.980581 0
    outer loop
      vertex 254.694 8.8651 0
      vertex 254.923 8.9109 10
      vertex 254.923 8.9109 0
    endloop
  endfacet
  facet normal -0.196116 0.980581 0
    outer loop
      vertex 254.694 8.8651 0
      vertex 254.694 8.8651 10
      vertex 254.923 8.9109 10
    endloop
  endfacet
  facet normal 0.642829 0.76601 0
    outer loop
      vertex 253.444 9.91409 0
      vertex 254.694 8.8651 10
      vertex 254.694 8.8651 0
    endloop
  endfacet
  facet normal 0.642829 0.76601 -0
    outer loop
      vertex 253.444 9.91409 0
      vertex 253.444 9.91409 10
      vertex 254.694 8.8651 10
    endloop
  endfacet
  facet normal -0.965228 0.261411 0
    outer loop
      vertex 253.305 9.40085 0
      vertex 253.444 9.91409 10
      vertex 253.444 9.91409 0
    endloop
  endfacet
  facet normal -0.965228 0.261411 0
    outer loop
      vertex 253.305 9.40085 0
      vertex 253.305 9.40085 10
      vertex 253.444 9.91409 10
    endloop
  endfacet
  facet normal -0.88698 0.461808 0
    outer loop
      vertex 253.275 9.34323 0
      vertex 253.305 9.40085 10
      vertex 253.305 9.40085 0
    endloop
  endfacet
  facet normal -0.88698 0.461808 0
    outer loop
      vertex 253.275 9.34323 0
      vertex 253.275 9.34323 10
      vertex 253.305 9.40085 10
    endloop
  endfacet
  facet normal -0.764139 0.645052 0
    outer loop
      vertex 251.325 7.03323 0
      vertex 253.275 9.34323 10
      vertex 253.275 9.34323 0
    endloop
  endfacet
  facet normal -0.764139 0.645052 0
    outer loop
      vertex 251.325 7.03323 0
      vertex 251.325 7.03323 10
      vertex 253.275 9.34323 10
    endloop
  endfacet
  facet normal -0.537937 0.842985 0
    outer loop
      vertex 251.25 6.98537 0
      vertex 251.325 7.03323 10
      vertex 251.325 7.03323 0
    endloop
  endfacet
  facet normal -0.537937 0.842985 0
    outer loop
      vertex 251.25 6.98537 0
      vertex 251.25 6.98537 10
      vertex 251.325 7.03323 10
    endloop
  endfacet
  facet normal -0.265421 0.964133 0
    outer loop
      vertex 248.128 6.1259 0
      vertex 251.25 6.98537 10
      vertex 251.25 6.98537 0
    endloop
  endfacet
  facet normal -0.265421 0.964133 0
    outer loop
      vertex 248.128 6.1259 0
      vertex 248.128 6.1259 10
      vertex 251.25 6.98537 10
    endloop
  endfacet
  facet normal -0.707161 0.707053 0
    outer loop
      vertex 247.8 5.79785 0
      vertex 248.128 6.1259 10
      vertex 248.128 6.1259 0
    endloop
  endfacet
  facet normal -0.707161 0.707053 0
    outer loop
      vertex 247.8 5.79785 0
      vertex 247.8 5.79785 10
      vertex 248.128 6.1259 10
    endloop
  endfacet
  facet normal -1 0 0
    outer loop
      vertex 247.8 5.28999 0
      vertex 247.8 5.79785 10
      vertex 247.8 5.79785 0
    endloop
  endfacet
  facet normal -1 0 0
    outer loop
      vertex 247.8 5.28999 0
      vertex 247.8 5.28999 10
      vertex 247.8 5.79785 10
    endloop
  endfacet
  facet normal -0.608484 0.793566 0
    outer loop
      vertex 247.611 5.14507 0
      vertex 247.8 5.28999 10
      vertex 247.8 5.28999 0
    endloop
  endfacet
  facet normal -0.608484 0.793566 0
    outer loop
      vertex 247.611 5.14507 0
      vertex 247.611 5.14507 10
      vertex 247.8 5.28999 10
    endloop
  endfacet
  facet normal 0.258132 0.96611 0
    outer loop
      vertex 247.355 5.21347 0
      vertex 247.611 5.14507 10
      vertex 247.611 5.14507 0
    endloop
  endfacet
  facet normal 0.258132 0.96611 -0
    outer loop
      vertex 247.355 5.21347 0
      vertex 247.355 5.21347 10
      vertex 247.611 5.14507 10
    endloop
  endfacet
  facet normal -0.999707 -0.0241939 0
    outer loop
      vertex 247.37 4.59366 0
      vertex 247.355 5.21347 10
      vertex 247.355 5.21347 0
    endloop
  endfacet
  facet normal -0.999707 -0.0241939 0
    outer loop
      vertex 247.37 4.59366 0
      vertex 247.37 4.59366 10
      vertex 247.355 5.21347 10
    endloop
  endfacet
  facet normal -0.982523 0.186143 0
    outer loop
      vertex 247.358 4.53032 0
      vertex 247.37 4.59366 10
      vertex 247.37 4.59366 0
    endloop
  endfacet
  facet normal -0.982523 0.186143 0
    outer loop
      vertex 247.358 4.53032 0
      vertex 247.358 4.53032 10
      vertex 247.37 4.59366 10
    endloop
  endfacet
  facet normal -0.917272 0.398262 0
    outer loop
      vertex 246.912 3.5031 0
      vertex 247.358 4.53032 10
      vertex 247.358 4.53032 0
    endloop
  endfacet
  facet normal -0.917272 0.398262 0
    outer loop
      vertex 246.912 3.5031 0
      vertex 246.912 3.5031 10
      vertex 247.358 4.53032 10
    endloop
  endfacet
  facet normal -0.642068 -0.766648 0
    outer loop
      vertex 247.256 3.215 0
      vertex 246.912 3.5031 10
      vertex 246.912 3.5031 0
    endloop
  endfacet
  facet normal -0.642068 -0.766648 0
    outer loop
      vertex 247.256 3.215 0
      vertex 247.256 3.215 10
      vertex 246.912 3.5031 10
    endloop
  endfacet
  facet normal -0.969821 -0.243816 0
    outer loop
      vertex 247.299 3.04396 0
      vertex 247.256 3.215 10
      vertex 247.256 3.215 0
    endloop
  endfacet
  facet normal -0.969821 -0.243816 0
    outer loop
      vertex 247.299 3.04396 0
      vertex 247.299 3.04396 10
      vertex 247.256 3.215 10
    endloop
  endfacet
  facet normal -0.404943 0.914342 0
    outer loop
      vertex 247.108 2.95937 0
      vertex 247.299 3.04396 10
      vertex 247.299 3.04396 0
    endloop
  endfacet
  facet normal -0.404943 0.914342 0
    outer loop
      vertex 247.108 2.95937 0
      vertex 247.108 2.95937 10
      vertex 247.299 3.04396 10
    endloop
  endfacet
  facet normal 0.347841 0.937553 0
    outer loop
      vertex 245.186 3.67245 0
      vertex 247.108 2.95937 10
      vertex 247.108 2.95937 0
    endloop
  endfacet
  facet normal 0.347841 0.937553 -0
    outer loop
      vertex 245.186 3.67245 0
      vertex 245.186 3.67245 10
      vertex 247.108 2.95937 10
    endloop
  endfacet
  facet normal 0.0922279 0.995738 0
    outer loop
      vertex 244.126 3.77063 0
      vertex 245.186 3.67245 10
      vertex 245.186 3.67245 0
    endloop
  endfacet
  facet normal 0.0922279 0.995738 -0
    outer loop
      vertex 244.126 3.77063 0
      vertex 244.126 3.77063 10
      vertex 245.186 3.67245 10
    endloop
  endfacet
  facet normal 0.45218 0.891927 0
    outer loop
      vertex 244.027 3.82082 0
      vertex 244.126 3.77063 10
      vertex 244.126 3.77063 0
    endloop
  endfacet
  facet normal 0.45218 0.891927 -0
    outer loop
      vertex 244.027 3.82082 0
      vertex 244.027 3.82082 10
      vertex 244.126 3.77063 10
    endloop
  endfacet
  facet normal 0.750352 0.661039 0
    outer loop
      vertex 243.661 4.23627 0
      vertex 244.027 3.82082 10
      vertex 244.027 3.82082 0
    endloop
  endfacet
  facet normal 0.750352 0.661039 -0
    outer loop
      vertex 243.661 4.23627 0
      vertex 243.661 4.23627 10
      vertex 244.027 3.82082 10
    endloop
  endfacet
  facet normal -0.912133 0.409895 0
    outer loop
      vertex 243.608 4.11833 0
      vertex 243.661 4.23627 10
      vertex 243.661 4.23627 0
    endloop
  endfacet
  facet normal -0.912133 0.409895 0
    outer loop
      vertex 243.608 4.11833 0
      vertex 243.608 4.11833 10
      vertex 243.661 4.23627 10
    endloop
  endfacet
  facet normal -0.866692 -0.498844 0
    outer loop
      vertex 243.977 3.47723 0
      vertex 243.608 4.11833 10
      vertex 243.608 4.11833 0
    endloop
  endfacet
  facet normal -0.866692 -0.498844 0
    outer loop
      vertex 243.977 3.47723 0
      vertex 243.977 3.47723 10
      vertex 243.608 4.11833 10
    endloop
  endfacet
  facet normal -0.64941 -0.760438 0
    outer loop
      vertex 245.604 2.08778 0
      vertex 243.977 3.47723 10
      vertex 243.977 3.47723 0
    endloop
  endfacet
  facet normal -0.64941 -0.760438 0
    outer loop
      vertex 245.604 2.08778 0
      vertex 245.604 2.08778 10
      vertex 243.977 3.47723 10
    endloop
  endfacet
  facet normal 0.296407 -0.955062 0
    outer loop
      vertex 246.846 2.47324 0
      vertex 245.604 2.08778 10
      vertex 245.604 2.08778 0
    endloop
  endfacet
  facet normal 0.296407 -0.955062 0
    outer loop
      vertex 246.846 2.47324 0
      vertex 246.846 2.47324 10
      vertex 245.604 2.08778 10
    endloop
  endfacet
endsolid OpenSCAD_Model
