solid OpenSCAD_Model
  facet normal 0 0 -1
    outer loop
      vertex 13.9767 10.0054 0
      vertex 14.9581 10.6357 0
      vertex 14.8952 10.471 0
    endloop
  endfacet
  facet normal 0 0 -1
    outer loop
      vertex 13.9767 10.0054 0
      vertex 14.8952 10.471 0
      vertex 14.5977 10.1083 0
    endloop
  endfacet
  facet normal 0 0 -1
    outer loop
      vertex 14.472 9.98465 0
      vertex 14.4408 9.79694 0
      vertex 14.0896 9.84891 0
    endloop
  endfacet
  facet normal 0 0 -1
    outer loop
      vertex 21.6479 15.1855 0
      vertex 19.4329 28.781 0
      vertex 22.4579 15.7155 0
    endloop
  endfacet
  facet normal 0 -0 -1
    outer loop
      vertex 14.0896 9.84891 0
      vertex 14.4408 9.79694 0
      vertex 14.0829 9.75841 0
    endloop
  endfacet
  facet normal 0 0 -1
    outer loop
      vertex 13.9767 10.0054 0
      vertex 14.472 9.98465 0
      vertex 14.0896 9.84891 0
    endloop
  endfacet
  facet normal 0 -0 -1
    outer loop
      vertex 14.8952 10.471 0
      vertex 15.0617 9.85229 0
      vertex 14.7599 10.0141 0
    endloop
  endfacet
  facet normal 0 0 -1
    outer loop
      vertex 13.9767 10.0054 0
      vertex 14.5977 10.1083 0
      vertex 14.472 9.98465 0
    endloop
  endfacet
  facet normal -0 0 -1
    outer loop
      vertex 27.4199 19.2236 0
      vertex 22.4579 15.7155 0
      vertex 21.3529 28.561 0
    endloop
  endfacet
  facet normal 0 0 -1
    outer loop
      vertex 14.7599 10.0141 0
      vertex 15.0617 9.85229 0
      vertex 14.8362 9.81693 0
    endloop
  endfacet
  facet normal 0 0 -1
    outer loop
      vertex 14.5977 10.1083 0
      vertex 14.8952 10.471 0
      vertex 14.7599 10.0141 0
    endloop
  endfacet
  facet normal 0 0 -1
    outer loop
      vertex 14.9581 10.6357 0
      vertex 15.6362 10.6071 0
      vertex 15.1763 10.5726 0
    endloop
  endfacet
  facet normal 0 0 -1
    outer loop
      vertex 10.9257 13.5018 0
      vertex 10.8906 13.5396 0
      vertex 11.928 12.8215 0
    endloop
  endfacet
  facet normal 0 0 -1
    outer loop
      vertex 16.68 10.4975 0
      vertex 15.824 10.6069 0
      vertex 18.2308 11.0531 0
    endloop
  endfacet
  facet normal 0 -0 -1
    outer loop
      vertex 15.5897 10.437 0
      vertex 15.7126 10.1117 0
      vertex 15.4506 9.97565 0
    endloop
  endfacet
  facet normal 0 0 -1
    outer loop
      vertex 19.9907 13.4357 0
      vertex 15.824 10.6069 0
      vertex 12.218 12.6115 0
    endloop
  endfacet
  facet normal 0 0 -1
    outer loop
      vertex 15.1763 10.5726 0
      vertex 15.5897 10.437 0
      vertex 15.4506 9.97565 0
    endloop
  endfacet
  facet normal -0 0 -1
    outer loop
      vertex 18.2308 11.0531 0
      vertex 15.824 10.6069 0
      vertex 19.9907 13.4357 0
    endloop
  endfacet
  facet normal 0 0 -1
    outer loop
      vertex 15.1763 10.5726 0
      vertex 15.6362 10.6071 0
      vertex 15.5897 10.437 0
    endloop
  endfacet
  facet normal 0 0 -1
    outer loop
      vertex 18.2308 11.0531 0
      vertex 16.8536 10.4579 0
      vertex 16.68 10.4975 0
    endloop
  endfacet
  facet normal 0 0 -1
    outer loop
      vertex 15.824 10.6069 0
      vertex 16.68 10.4975 0
      vertex 16.2132 10.2938 0
    endloop
  endfacet
  facet normal 0 0 -1
    outer loop
      vertex 18.152 10.8953 0
      vertex 17.0558 10.2234 0
      vertex 16.8536 10.4579 0
    endloop
  endfacet
  facet normal 0 -0 -1
    outer loop
      vertex 18.152 10.8953 0
      vertex 18.2543 10.2816 0
      vertex 17.0558 10.2234 0
    endloop
  endfacet
  facet normal 0 0 -1
    outer loop
      vertex 18.2308 11.0531 0
      vertex 18.152 10.8953 0
      vertex 16.8536 10.4579 0
    endloop
  endfacet
  facet normal 0 0 -1
    outer loop
      vertex 18.2308 11.0531 0
      vertex 19.9907 13.4357 0
      vertex 18.3648 11.0553 0
    endloop
  endfacet
  facet normal -0 0 -1
    outer loop
      vertex 19.9907 13.4357 0
      vertex 12.218 12.6115 0
      vertex 20.0313 13.493 0
    endloop
  endfacet
  facet normal 0 0 -1
    outer loop
      vertex 21.5964 15.1281 0
      vertex 21.3495 14.6439 0
      vertex 20.0313 13.493 0
    endloop
  endfacet
  facet normal 0 0 -1
    outer loop
      vertex 18.3648 11.0553 0
      vertex 19.9907 13.4357 0
      vertex 18.9302 10.7845 0
    endloop
  endfacet
  facet normal 0 0 -1
    outer loop
      vertex 30.306 24.3774 0
      vertex 26.93 29.2 0
      vertex 27.7 29.2 0
    endloop
  endfacet
  facet normal 0 0 -1
    outer loop
      vertex 10.8906 13.5396 0
      vertex 9.9406 14.2596 0
      vertex 8.14999 22.3481 0
    endloop
  endfacet
  facet normal 0 0 -1
    outer loop
      vertex 22.4579 15.7155 0
      vertex 23.4652 15.8473 0
      vertex 22.6696 15.6656 0
    endloop
  endfacet
  facet normal -0 0 -1
    outer loop
      vertex 28.5858 21.0815 0
      vertex 27.4199 19.2236 0
      vertex 21.4732 28.6011 0
    endloop
  endfacet
  facet normal -0 0 -1
    outer loop
      vertex 27.4967 19.306 0
      vertex 27.4199 19.2236 0
      vertex 28.5858 21.0815 0
    endloop
  endfacet
  facet normal 0 0 -1
    outer loop
      vertex 29.356 22.4874 0
      vertex 29.3416 22.4422 0
      vertex 28.5858 21.0815 0
    endloop
  endfacet
  facet normal -0 0 -1
    outer loop
      vertex 26.5676 16.9938 0
      vertex 23.6651 15.856 0
      vertex 27.4199 19.2236 0
    endloop
  endfacet
  facet normal 0 0 -1
    outer loop
      vertex 26.0308 16.291 0
      vertex 25.6356 15.4666 0
      vertex 23.6651 15.856 0
    endloop
  endfacet
  facet normal 0 0 -1
    outer loop
      vertex 22.6696 15.6656 0
      vertex 23.083 15.474 0
      vertex 22.7693 15.4945 0
    endloop
  endfacet
  facet normal 0 0 -1
    outer loop
      vertex 22.6696 15.6656 0
      vertex 23.4652 15.8473 0
      vertex 23.083 15.474 0
    endloop
  endfacet
  facet normal 0 0 -1
    outer loop
      vertex 25.5952 15.4157 0
      vertex 24.6016 15.0594 0
      vertex 24.5551 15.126 0
    endloop
  endfacet
  facet normal 0 0 -1
    outer loop
      vertex 25.5952 15.4157 0
      vertex 25.2355 14.678 0
      vertex 24.6016 15.0594 0
    endloop
  endfacet
  facet normal 0 0 -1
    outer loop
      vertex 27.7 29.2 0
      vertex 30.9539 25.175 0
      vertex 30.3239 24.405 0
    endloop
  endfacet
  facet normal 0 0 -1
    outer loop
      vertex 24.6016 15.0594 0
      vertex 25.2355 14.678 0
      vertex 24.7761 14.5597 0
    endloop
  endfacet
  facet normal 0 0 -1
    outer loop
      vertex 25.6356 15.4666 0
      vertex 25.5952 15.4157 0
      vertex 24.5551 15.126 0
    endloop
  endfacet
  facet normal 0 0 -1
    outer loop
      vertex 23.6651 15.856 0
      vertex 25.6356 15.4666 0
      vertex 24.5551 15.126 0
    endloop
  endfacet
  facet normal 0 -0 -1
    outer loop
      vertex 26.0224 16.1212 0
      vertex 26.163 15.8935 0
      vertex 25.6356 15.4666 0
    endloop
  endfacet
  facet normal 0 0 -1
    outer loop
      vertex 26.0308 16.291 0
      vertex 26.0224 16.1212 0
      vertex 25.6356 15.4666 0
    endloop
  endfacet
  facet normal 0 0 -1
    outer loop
      vertex 28.6786 30.0387 0
      vertex 30.183 30.5707 0
      vertex 31.1087 29.26 0
    endloop
  endfacet
  facet normal 0 0 -1
    outer loop
      vertex 26.5676 16.9938 0
      vertex 26.0308 16.291 0
      vertex 23.6651 15.856 0
    endloop
  endfacet
  facet normal 0 0 -1
    outer loop
      vertex 27.4199 19.2236 0
      vertex 23.6651 15.856 0
      vertex 23.4652 15.8473 0
    endloop
  endfacet
  facet normal 0 0 -1
    outer loop
      vertex 22.4579 15.7155 0
      vertex 27.4199 19.2236 0
      vertex 23.4652 15.8473 0
    endloop
  endfacet
  facet normal 0 0 -1
    outer loop
      vertex 28.5858 21.0815 0
      vertex 29.3416 22.4422 0
      vertex 28.6611 21.1733 0
    endloop
  endfacet
  facet normal 0 0 -1
    outer loop
      vertex 27.4967 19.306 0
      vertex 28.5858 21.0815 0
      vertex 28.1647 19.6171 0
    endloop
  endfacet
  facet normal 0 0 -1
    outer loop
      vertex 27.801 29.2391 0
      vertex 28.6786 30.0387 0
      vertex 31.1087 29.26 0
    endloop
  endfacet
  facet normal 0 0 -1
    outer loop
      vertex 27.801 29.2391 0
      vertex 31.4026 27.712 0
      vertex 30.9539 25.175 0
    endloop
  endfacet
  facet normal 0 0 -1
    outer loop
      vertex 28.6611 21.1733 0
      vertex 29.3416 22.4422 0
      vertex 29.193 21.448 0
    endloop
  endfacet
  facet normal -0 0 -1
    outer loop
      vertex 32.3366 27.1677 0
      vertex 32.2462 25.8924 0
      vertex 31.5093 27.5956 0
    endloop
  endfacet
  facet normal 0 0 -1
    outer loop
      vertex 31.4026 27.712 0
      vertex 27.801 29.2391 0
      vertex 31.1087 29.26 0
    endloop
  endfacet
  facet normal 0 0 -1
    outer loop
      vertex 31.4026 27.712 0
      vertex 30.9982 25.2117 0
      vertex 30.9539 25.175 0
    endloop
  endfacet
  facet normal 0 -0 -1
    outer loop
      vertex 31.4026 27.712 0
      vertex 31.5093 27.5956 0
      vertex 30.9982 25.2117 0
    endloop
  endfacet
  facet normal 0 0 -1
    outer loop
      vertex 30.9982 25.2117 0
      vertex 31.5093 27.5956 0
      vertex 32.2462 25.8924 0
    endloop
  endfacet
  facet normal -0 -0 -1
    outer loop
      vertex 32.1676 27.4102 0
      vertex 32.3366 27.1677 0
      vertex 31.5093 27.5956 0
    endloop
  endfacet
  facet normal 0 0 -1
    outer loop
      vertex 27.7 29.2 0
      vertex 27.801 29.2391 0
      vertex 30.9539 25.175 0
    endloop
  endfacet
  facet normal 0 0 -1
    outer loop
      vertex 30.306 24.3774 0
      vertex 27.7 29.2 0
      vertex 30.3239 24.405 0
    endloop
  endfacet
  facet normal 0 0 -1
    outer loop
      vertex 29.356 22.4874 0
      vertex 26.93 29.2 0
      vertex 30.306 24.3774 0
    endloop
  endfacet
  facet normal 0 0 -1
    outer loop
      vertex 29.356 22.4874 0
      vertex 26.8764 29.2099 0
      vertex 26.93 29.2 0
    endloop
  endfacet
  facet normal 0 -0 -1
    outer loop
      vertex 22.3968 29.4762 0
      vertex 23.3036 29.7406 0
      vertex 21.4732 28.6011 0
    endloop
  endfacet
  facet normal 0 0 -1
    outer loop
      vertex 21.4732 28.6011 0
      vertex 23.3036 29.7406 0
      vertex 25.3344 29.7992 0
    endloop
  endfacet
  facet normal 0 0 -1
    outer loop
      vertex 21.4732 28.6011 0
      vertex 25.3344 29.7992 0
      vertex 26.8764 29.2099 0
    endloop
  endfacet
  facet normal 0 0 -1
    outer loop
      vertex 29.356 22.4874 0
      vertex 21.4732 28.6011 0
      vertex 26.8764 29.2099 0
    endloop
  endfacet
  facet normal -0 0 -1
    outer loop
      vertex 29.356 22.4874 0
      vertex 28.5858 21.0815 0
      vertex 21.4732 28.6011 0
    endloop
  endfacet
  facet normal 0 -0 -1
    outer loop
      vertex 21.4732 28.6011 0
      vertex 27.4199 19.2236 0
      vertex 21.3529 28.561 0
    endloop
  endfacet
  facet normal -0 -0 -1
    outer loop
      vertex 21.3529 28.561 0
      vertex 22.4579 15.7155 0
      vertex 19.4329 28.781 0
    endloop
  endfacet
  facet normal 0 0 -1
    outer loop
      vertex 19.4329 28.781 0
      vertex 15.4738 29.0199 0
      vertex 19.3732 28.8011 0
    endloop
  endfacet
  facet normal -0 -0 -1
    outer loop
      vertex 19.4329 28.781 0
      vertex 21.6479 15.1855 0
      vertex 15.4738 29.0199 0
    endloop
  endfacet
  facet normal 0 -0 -1
    outer loop
      vertex 17.9351 29.6581 0
      vertex 19.3732 28.8011 0
      vertex 15.4738 29.0199 0
    endloop
  endfacet
  facet normal 0 -0 -1
    outer loop
      vertex 17.4129 29.7643 0
      vertex 17.9351 29.6581 0
      vertex 15.4738 29.0199 0
    endloop
  endfacet
  facet normal 0 0 -1
    outer loop
      vertex 8.65524 23.8474 0
      vertex 8.40524 24.8174 0
      vertex 15.3118 29.0561 0
    endloop
  endfacet
  facet normal 0 0 -1
    outer loop
      vertex 8.38182 24.8675 0
      vertex 7.92323 25.5059 0
      vertex 8.27576 26.2562 0
    endloop
  endfacet
  facet normal 0 0 -1
    outer loop
      vertex 8.40524 24.8174 0
      vertex 8.38182 24.8675 0
      vertex 8.27576 26.2562 0
    endloop
  endfacet
  facet normal 0 0 -1
    outer loop
      vertex 8.40524 24.8174 0
      vertex 8.27576 26.2562 0
      vertex 8.28996 26.3234 0
    endloop
  endfacet
  facet normal 0 0 -1
    outer loop
      vertex 9.12703 28.9603 0
      vertex 9.89229 30.48 0
      vertex 12.1958 30.9757 0
    endloop
  endfacet
  facet normal -0 0 -1
    outer loop
      vertex 13.9205 30.5062 0
      vertex 9.12703 28.9603 0
      vertex 12.1958 30.9757 0
    endloop
  endfacet
  facet normal 0 0 -1
    outer loop
      vertex 9.12703 28.9603 0
      vertex 9.35539 30.0927 0
      vertex 9.89229 30.48 0
    endloop
  endfacet
  facet normal -0 0 -1
    outer loop
      vertex 15.3118 29.0561 0
      vertex 9.12703 28.9603 0
      vertex 13.9205 30.5062 0
    endloop
  endfacet
  facet normal 0 0 -1
    outer loop
      vertex 15.3118 29.0561 0
      vertex 9.08839 28.8863 0
      vertex 9.12703 28.9603 0
    endloop
  endfacet
  facet normal 0 0 -1
    outer loop
      vertex 8.28996 26.3234 0
      vertex 8.25137 28.0112 0
      vertex 9.08839 28.8863 0
    endloop
  endfacet
  facet normal 0 0 -1
    outer loop
      vertex 15.3118 29.0561 0
      vertex 8.28996 26.3234 0
      vertex 9.08839 28.8863 0
    endloop
  endfacet
  facet normal 0 0 -1
    outer loop
      vertex 15.3118 29.0561 0
      vertex 8.40524 24.8174 0
      vertex 8.28996 26.3234 0
    endloop
  endfacet
  facet normal 0 0 -1
    outer loop
      vertex 8.65697 23.78 0
      vertex 8.65524 23.8474 0
      vertex 15.3118 29.0561 0
    endloop
  endfacet
  facet normal 0 -0 -1
    outer loop
      vertex 15.4738 29.0199 0
      vertex 21.6479 15.1855 0
      vertex 8.55696 23.29 0
    endloop
  endfacet
  facet normal 0 0 -1
    outer loop
      vertex 8.55696 23.29 0
      vertex 21.6479 15.1855 0
      vertex 21.5964 15.1281 0
    endloop
  endfacet
  facet normal 0 0 -1
    outer loop
      vertex 8.14999 22.3481 0
      vertex 8.55696 23.29 0
      vertex 10.8906 13.5396 0
    endloop
  endfacet
  facet normal -0 0 -1
    outer loop
      vertex 15.4738 29.0199 0
      vertex 8.65697 23.78 0
      vertex 15.3118 29.0561 0
    endloop
  endfacet
  facet normal 0 0 -1
    outer loop
      vertex 8.55696 23.29 0
      vertex 8.14999 22.3481 0
      vertex 8.47435 23.1845 0
    endloop
  endfacet
  facet normal 0 0 -1
    outer loop
      vertex 15.4738 29.0199 0
      vertex 8.55696 23.29 0
      vertex 8.65697 23.78 0
    endloop
  endfacet
  facet normal 0 0 -1
    outer loop
      vertex 9.9406 14.2596 0
      vertex 8.09621 22.2349 0
      vertex 8.14999 22.3481 0
    endloop
  endfacet
  facet normal 0 0 -1
    outer loop
      vertex 8.47435 23.1845 0
      vertex 8.14999 22.3481 0
      vertex 8.1588 23.0346 0
    endloop
  endfacet
  facet normal 0 0 -1
    outer loop
      vertex 9.86165 14.2896 0
      vertex 8.09621 22.2349 0
      vertex 9.9406 14.2596 0
    endloop
  endfacet
  facet normal 0 0 -1
    outer loop
      vertex 8.09621 22.2349 0
      vertex 6.9095 20.2149 0
      vertex 7.51549 21.7494 0
    endloop
  endfacet
  facet normal 0 0 -1
    outer loop
      vertex 6.31654 20.0582 0
      vertex 6.78981 20.1213 0
      vertex 7.58362 14.6755 0
    endloop
  endfacet
  facet normal 0 0 -1
    outer loop
      vertex 10.9257 13.5018 0
      vertex 11.928 12.8215 0
      vertex 11.798 12.844 0
    endloop
  endfacet
  facet normal -0 0 -1
    outer loop
      vertex 7.5 14.62 0
      vertex 6.16425 14.3379 0
      vertex 7.58362 14.6755 0
    endloop
  endfacet
  facet normal 0 0 -1
    outer loop
      vertex 9.86165 14.2896 0
      vertex 8.1255 14.4249 0
      vertex 8.34122 14.5639 0
    endloop
  endfacet
  facet normal 0 0 -1
    outer loop
      vertex 6.16425 14.3379 0
      vertex 7.5 14.62 0
      vertex 7.33221 14.3963 0
    endloop
  endfacet
  facet normal 0 0 -1
    outer loop
      vertex 12.4415 12.2803 0
      vertex 12.2727 12.4439 0
      vertex 12.218 12.6115 0
    endloop
  endfacet
  facet normal 0 0 -1
    outer loop
      vertex 6.16425 14.3379 0
      vertex 6.31654 20.0582 0
      vertex 7.58362 14.6755 0
    endloop
  endfacet
  facet normal 0 0 -1
    outer loop
      vertex 12.5396 10.4416 0
      vertex 12.3064 11.4075 0
      vertex 13.9767 10.0054 0
    endloop
  endfacet
  facet normal 0 0 -1
    outer loop
      vertex 7.58362 14.6755 0
      vertex 6.78981 20.1213 0
      vertex 8.22362 14.8355 0
    endloop
  endfacet
  facet normal 0 0 -1
    outer loop
      vertex 15.6362 10.6071 0
      vertex 14.9581 10.6357 0
      vertex 12.4415 12.2803 0
    endloop
  endfacet
  facet normal 0 0 -1
    outer loop
      vertex 8.22362 14.8355 0
      vertex 6.78981 20.1213 0
      vertex 6.9095 20.2149 0
    endloop
  endfacet
  facet normal 0 0 -1
    outer loop
      vertex 8.38715 14.7695 0
      vertex 6.9095 20.2149 0
      vertex 9.86165 14.2896 0
    endloop
  endfacet
  facet normal 0 0 -1
    outer loop
      vertex 8.22362 14.8355 0
      vertex 6.9095 20.2149 0
      vertex 8.38715 14.7695 0
    endloop
  endfacet
  facet normal 0 0 -1
    outer loop
      vertex 9.86165 14.2896 0
      vertex 6.9095 20.2149 0
      vertex 8.09621 22.2349 0
    endloop
  endfacet
  facet normal 0 0 -1
    outer loop
      vertex 12.4415 12.2803 0
      vertex 14.9581 10.6357 0
      vertex 12.444 12.0826 0
    endloop
  endfacet
  facet normal 0 0 -1
    outer loop
      vertex 8.55696 23.29 0
      vertex 21.5964 15.1281 0
      vertex 10.8906 13.5396 0
    endloop
  endfacet
  facet normal 0 0 -1
    outer loop
      vertex 9.86165 14.2896 0
      vertex 8.34122 14.5639 0
      vertex 8.38715 14.7695 0
    endloop
  endfacet
  facet normal 0 0 -1
    outer loop
      vertex 10.8906 13.5396 0
      vertex 21.5964 15.1281 0
      vertex 20.0313 13.493 0
    endloop
  endfacet
  facet normal 0 0 -1
    outer loop
      vertex 12.4415 12.2803 0
      vertex 12.218 12.6115 0
      vertex 15.824 10.6069 0
    endloop
  endfacet
  facet normal 0 0 -1
    outer loop
      vertex 11.928 12.8215 0
      vertex 10.8906 13.5396 0
      vertex 20.0313 13.493 0
    endloop
  endfacet
  facet normal -0 0 -1
    outer loop
      vertex 11.798 12.844 0
      vertex 11.4249 12.7352 0
      vertex 10.9257 13.5018 0
    endloop
  endfacet
  facet normal 0 0 -1
    outer loop
      vertex 12.218 12.6115 0
      vertex 11.928 12.8215 0
      vertex 20.0313 13.493 0
    endloop
  endfacet
  facet normal 0 0 -1
    outer loop
      vertex 12.4415 12.2803 0
      vertex 15.824 10.6069 0
      vertex 15.6362 10.6071 0
    endloop
  endfacet
  facet normal 0 0 -1
    outer loop
      vertex 12.1722 12.346 0
      vertex 12.2727 12.4439 0
      vertex 12.2691 12.3171 0
    endloop
  endfacet
  facet normal 0 0 -1
    outer loop
      vertex 11.8881 12.2628 0
      vertex 12.1722 12.346 0
      vertex 11.9874 12.1919 0
    endloop
  endfacet
  facet normal 0 0 -1
    outer loop
      vertex 12.1279 11.7125 0
      vertex 12.444 12.0826 0
      vertex 12.2716 11.5804 0
    endloop
  endfacet
  facet normal 0 -0 -1
    outer loop
      vertex 12.1722 12.346 0
      vertex 12.2691 12.3171 0
      vertex 11.9874 12.1919 0
    endloop
  endfacet
  facet normal 0 0 -1
    outer loop
      vertex 14.9581 10.6357 0
      vertex 12.3064 11.4075 0
      vertex 12.444 12.0826 0
    endloop
  endfacet
  facet normal 0 -0 -1
    outer loop
      vertex 12.2727 12.4439 0
      vertex 12.4415 12.2803 0
      vertex 12.2691 12.3171 0
    endloop
  endfacet
  facet normal 0 0 -1
    outer loop
      vertex 12.444 12.0826 0
      vertex 12.3064 11.4075 0
      vertex 12.2716 11.5804 0
    endloop
  endfacet
  facet normal 0 0 -1
    outer loop
      vertex 12.5396 10.4416 0
      vertex 12.2112 11.3258 0
      vertex 12.3064 11.4075 0
    endloop
  endfacet
  facet normal -0 0 -1
    outer loop
      vertex 14.9581 10.6357 0
      vertex 13.9767 10.0054 0
      vertex 12.3064 11.4075 0
    endloop
  endfacet
  facet normal 0 0 -1
    outer loop
      vertex 13.813 9.93982 0
      vertex 12.5396 10.4416 0
      vertex 13.9767 10.0054 0
    endloop
  endfacet
  facet normal 0 -0 -1
    outer loop
      vertex 12.2112 11.3258 0
      vertex 12.5396 10.4416 0
      vertex 12.1651 11.3126 0
    endloop
  endfacet
  facet normal -0 0 -1
    outer loop
      vertex 13.813 9.93982 0
      vertex 13.6734 9.71773 0
      vertex 12.5396 10.4416 0
    endloop
  endfacet
  facet normal 0 -0 1
    outer loop
      vertex 14.8952 10.471 10
      vertex 14.9581 10.6357 10
      vertex 13.9767 10.0054 10
    endloop
  endfacet
  facet normal 0 -0 1
    outer loop
      vertex 14.5977 10.1083 10
      vertex 14.8952 10.471 10
      vertex 13.9767 10.0054 10
    endloop
  endfacet
  facet normal -0 0 1
    outer loop
      vertex 14.0896 9.84891 10
      vertex 14.4408 9.79694 10
      vertex 14.472 9.98465 10
    endloop
  endfacet
  facet normal 0 0 1
    outer loop
      vertex 22.4579 15.7155 10
      vertex 19.4329 28.781 10
      vertex 21.6479 15.1855 10
    endloop
  endfacet
  facet normal 0 0 1
    outer loop
      vertex 14.0829 9.75841 10
      vertex 14.4408 9.79694 10
      vertex 14.0896 9.84891 10
    endloop
  endfacet
  facet normal 0 -0 1
    outer loop
      vertex 14.0896 9.84891 10
      vertex 14.472 9.98465 10
      vertex 13.9767 10.0054 10
    endloop
  endfacet
  facet normal -0 0 1
    outer loop
      vertex 14.7599 10.0141 10
      vertex 15.0617 9.85229 10
      vertex 14.8952 10.471 10
    endloop
  endfacet
  facet normal 0 -0 1
    outer loop
      vertex 14.472 9.98465 10
      vertex 14.5977 10.1083 10
      vertex 13.9767 10.0054 10
    endloop
  endfacet
  facet normal 0 0 1
    outer loop
      vertex 21.3529 28.561 10
      vertex 22.4579 15.7155 10
      vertex 27.4199 19.2236 10
    endloop
  endfacet
  facet normal 0 -0 1
    outer loop
      vertex 14.8362 9.81693 10
      vertex 15.0617 9.85229 10
      vertex 14.7599 10.0141 10
    endloop
  endfacet
  facet normal 0 -0 1
    outer loop
      vertex 14.7599 10.0141 10
      vertex 14.8952 10.471 10
      vertex 14.5977 10.1083 10
    endloop
  endfacet
  facet normal 0 -0 1
    outer loop
      vertex 15.1763 10.5726 10
      vertex 15.6362 10.6071 10
      vertex 14.9581 10.6357 10
    endloop
  endfacet
  facet normal 0 0 1
    outer loop
      vertex 11.928 12.8215 10
      vertex 10.8906 13.5396 10
      vertex 10.9257 13.5018 10
    endloop
  endfacet
  facet normal 0 0 1
    outer loop
      vertex 18.2308 11.0531 10
      vertex 15.824 10.6069 10
      vertex 16.68 10.4975 10
    endloop
  endfacet
  facet normal 0 0 1
    outer loop
      vertex 15.4506 9.97565 10
      vertex 15.7126 10.1117 10
      vertex 15.5897 10.437 10
    endloop
  endfacet
  facet normal -0 0 1
    outer loop
      vertex 12.218 12.6115 10
      vertex 15.824 10.6069 10
      vertex 19.9907 13.4357 10
    endloop
  endfacet
  facet normal 0 -0 1
    outer loop
      vertex 15.4506 9.97565 10
      vertex 15.5897 10.437 10
      vertex 15.1763 10.5726 10
    endloop
  endfacet
  facet normal 0 0 1
    outer loop
      vertex 19.9907 13.4357 10
      vertex 15.824 10.6069 10
      vertex 18.2308 11.0531 10
    endloop
  endfacet
  facet normal 0 -0 1
    outer loop
      vertex 15.5897 10.437 10
      vertex 15.6362 10.6071 10
      vertex 15.1763 10.5726 10
    endloop
  endfacet
  facet normal -0 0 1
    outer loop
      vertex 16.68 10.4975 10
      vertex 16.8536 10.4579 10
      vertex 18.2308 11.0531 10
    endloop
  endfacet
  facet normal 0 -0 1
    outer loop
      vertex 16.2132 10.2938 10
      vertex 16.68 10.4975 10
      vertex 15.824 10.6069 10
    endloop
  endfacet
  facet normal -0 0 1
    outer loop
      vertex 16.8536 10.4579 10
      vertex 17.0558 10.2234 10
      vertex 18.152 10.8953 10
    endloop
  endfacet
  facet normal 0 0 1
    outer loop
      vertex 17.0558 10.2234 10
      vertex 18.2543 10.2816 10
      vertex 18.152 10.8953 10
    endloop
  endfacet
  facet normal 0 0 1
    outer loop
      vertex 16.8536 10.4579 10
      vertex 18.152 10.8953 10
      vertex 18.2308 11.0531 10
    endloop
  endfacet
  facet normal 0 -0 1
    outer loop
      vertex 18.3648 11.0553 10
      vertex 19.9907 13.4357 10
      vertex 18.2308 11.0531 10
    endloop
  endfacet
  facet normal 0 0 1
    outer loop
      vertex 20.0313 13.493 10
      vertex 12.218 12.6115 10
      vertex 19.9907 13.4357 10
    endloop
  endfacet
  facet normal 0 0 1
    outer loop
      vertex 20.0313 13.493 10
      vertex 21.3495 14.6439 10
      vertex 21.5964 15.1281 10
    endloop
  endfacet
  facet normal 0 -0 1
    outer loop
      vertex 18.9302 10.7845 10
      vertex 19.9907 13.4357 10
      vertex 18.3648 11.0553 10
    endloop
  endfacet
  facet normal 0 0 1
    outer loop
      vertex 27.7 29.2 10
      vertex 26.93 29.2 10
      vertex 30.306 24.3774 10
    endloop
  endfacet
  facet normal 0 0 1
    outer loop
      vertex 8.14999 22.3481 10
      vertex 9.9406 14.2596 10
      vertex 10.8906 13.5396 10
    endloop
  endfacet
  facet normal 0 -0 1
    outer loop
      vertex 22.6696 15.6656 10
      vertex 23.4652 15.8473 10
      vertex 22.4579 15.7155 10
    endloop
  endfacet
  facet normal 0 0 1
    outer loop
      vertex 21.4732 28.6011 10
      vertex 27.4199 19.2236 10
      vertex 28.5858 21.0815 10
    endloop
  endfacet
  facet normal 0 0 1
    outer loop
      vertex 28.5858 21.0815 10
      vertex 27.4199 19.2236 10
      vertex 27.4967 19.306 10
    endloop
  endfacet
  facet normal 0 0 1
    outer loop
      vertex 28.5858 21.0815 10
      vertex 29.3416 22.4422 10
      vertex 29.356 22.4874 10
    endloop
  endfacet
  facet normal 0 0 1
    outer loop
      vertex 27.4199 19.2236 10
      vertex 23.6651 15.856 10
      vertex 26.5676 16.9938 10
    endloop
  endfacet
  facet normal -0 0 1
    outer loop
      vertex 23.6651 15.856 10
      vertex 25.6356 15.4666 10
      vertex 26.0308 16.291 10
    endloop
  endfacet
  facet normal -0 -0 1
    outer loop
      vertex 22.7693 15.4945 10
      vertex 23.083 15.474 10
      vertex 22.6696 15.6656 10
    endloop
  endfacet
  facet normal 0 -0 1
    outer loop
      vertex 23.083 15.474 10
      vertex 23.4652 15.8473 10
      vertex 22.6696 15.6656 10
    endloop
  endfacet
  facet normal -0 0 1
    outer loop
      vertex 24.5551 15.126 10
      vertex 24.6016 15.0594 10
      vertex 25.5952 15.4157 10
    endloop
  endfacet
  facet normal -0 0 1
    outer loop
      vertex 24.6016 15.0594 10
      vertex 25.2355 14.678 10
      vertex 25.5952 15.4157 10
    endloop
  endfacet
  facet normal 0 -0 1
    outer loop
      vertex 30.3239 24.405 10
      vertex 30.9539 25.175 10
      vertex 27.7 29.2 10
    endloop
  endfacet
  facet normal 0 -0 1
    outer loop
      vertex 24.7761 14.5597 10
      vertex 25.2355 14.678 10
      vertex 24.6016 15.0594 10
    endloop
  endfacet
  facet normal 0 0 1
    outer loop
      vertex 24.5551 15.126 10
      vertex 25.5952 15.4157 10
      vertex 25.6356 15.4666 10
    endloop
  endfacet
  facet normal 0 -0 1
    outer loop
      vertex 24.5551 15.126 10
      vertex 25.6356 15.4666 10
      vertex 23.6651 15.856 10
    endloop
  endfacet
  facet normal 0 0 1
    outer loop
      vertex 25.6356 15.4666 10
      vertex 26.163 15.8935 10
      vertex 26.0224 16.1212 10
    endloop
  endfacet
  facet normal 0 0 1
    outer loop
      vertex 25.6356 15.4666 10
      vertex 26.0224 16.1212 10
      vertex 26.0308 16.291 10
    endloop
  endfacet
  facet normal 0 0 1
    outer loop
      vertex 31.1087 29.26 10
      vertex 30.183 30.5707 10
      vertex 28.6786 30.0387 10
    endloop
  endfacet
  facet normal 0 0 1
    outer loop
      vertex 23.6651 15.856 10
      vertex 26.0308 16.291 10
      vertex 26.5676 16.9938 10
    endloop
  endfacet
  facet normal 0 0 1
    outer loop
      vertex 23.4652 15.8473 10
      vertex 23.6651 15.856 10
      vertex 27.4199 19.2236 10
    endloop
  endfacet
  facet normal 0 -0 1
    outer loop
      vertex 23.4652 15.8473 10
      vertex 27.4199 19.2236 10
      vertex 22.4579 15.7155 10
    endloop
  endfacet
  facet normal 0 -0 1
    outer loop
      vertex 28.6611 21.1733 10
      vertex 29.3416 22.4422 10
      vertex 28.5858 21.0815 10
    endloop
  endfacet
  facet normal 0 -0 1
    outer loop
      vertex 28.1647 19.6171 10
      vertex 28.5858 21.0815 10
      vertex 27.4967 19.306 10
    endloop
  endfacet
  facet normal 0 0 1
    outer loop
      vertex 31.1087 29.26 10
      vertex 28.6786 30.0387 10
      vertex 27.801 29.2391 10
    endloop
  endfacet
  facet normal 0 -0 1
    outer loop
      vertex 30.9539 25.175 10
      vertex 31.4026 27.712 10
      vertex 27.801 29.2391 10
    endloop
  endfacet
  facet normal 0 -0 1
    outer loop
      vertex 29.193 21.448 10
      vertex 29.3416 22.4422 10
      vertex 28.6611 21.1733 10
    endloop
  endfacet
  facet normal 0 0 1
    outer loop
      vertex 31.5093 27.5956 10
      vertex 32.2462 25.8924 10
      vertex 32.3366 27.1677 10
    endloop
  endfacet
  facet normal 0 0 1
    outer loop
      vertex 31.1087 29.26 10
      vertex 27.801 29.2391 10
      vertex 31.4026 27.712 10
    endloop
  endfacet
  facet normal 0 0 1
    outer loop
      vertex 30.9539 25.175 10
      vertex 30.9982 25.2117 10
      vertex 31.4026 27.712 10
    endloop
  endfacet
  facet normal 0 0 1
    outer loop
      vertex 30.9982 25.2117 10
      vertex 31.5093 27.5956 10
      vertex 31.4026 27.712 10
    endloop
  endfacet
  facet normal 0 0 1
    outer loop
      vertex 32.2462 25.8924 10
      vertex 31.5093 27.5956 10
      vertex 30.9982 25.2117 10
    endloop
  endfacet
  facet normal 0 0 1
    outer loop
      vertex 31.5093 27.5956 10
      vertex 32.3366 27.1677 10
      vertex 32.1676 27.4102 10
    endloop
  endfacet
  facet normal 0 0 1
    outer loop
      vertex 30.9539 25.175 10
      vertex 27.801 29.2391 10
      vertex 27.7 29.2 10
    endloop
  endfacet
  facet normal 0 0 1
    outer loop
      vertex 30.3239 24.405 10
      vertex 27.7 29.2 10
      vertex 30.306 24.3774 10
    endloop
  endfacet
  facet normal 0 0 1
    outer loop
      vertex 30.306 24.3774 10
      vertex 26.93 29.2 10
      vertex 29.356 22.4874 10
    endloop
  endfacet
  facet normal 0 0 1
    outer loop
      vertex 26.93 29.2 10
      vertex 26.8764 29.2099 10
      vertex 29.356 22.4874 10
    endloop
  endfacet
  facet normal 0 0 1
    outer loop
      vertex 21.4732 28.6011 10
      vertex 23.3036 29.7406 10
      vertex 22.3968 29.4762 10
    endloop
  endfacet
  facet normal 0 0 1
    outer loop
      vertex 25.3344 29.7992 10
      vertex 23.3036 29.7406 10
      vertex 21.4732 28.6011 10
    endloop
  endfacet
  facet normal 0 0 1
    outer loop
      vertex 26.8764 29.2099 10
      vertex 25.3344 29.7992 10
      vertex 21.4732 28.6011 10
    endloop
  endfacet
  facet normal 0 0 1
    outer loop
      vertex 26.8764 29.2099 10
      vertex 21.4732 28.6011 10
      vertex 29.356 22.4874 10
    endloop
  endfacet
  facet normal 0 0 1
    outer loop
      vertex 21.4732 28.6011 10
      vertex 28.5858 21.0815 10
      vertex 29.356 22.4874 10
    endloop
  endfacet
  facet normal -0 0 1
    outer loop
      vertex 21.3529 28.561 10
      vertex 27.4199 19.2236 10
      vertex 21.4732 28.6011 10
    endloop
  endfacet
  facet normal 0 0 1
    outer loop
      vertex 19.4329 28.781 10
      vertex 22.4579 15.7155 10
      vertex 21.3529 28.561 10
    endloop
  endfacet
  facet normal 0 0 1
    outer loop
      vertex 19.3732 28.8011 10
      vertex 15.4738 29.0199 10
      vertex 19.4329 28.781 10
    endloop
  endfacet
  facet normal 0 0 1
    outer loop
      vertex 15.4738 29.0199 10
      vertex 21.6479 15.1855 10
      vertex 19.4329 28.781 10
    endloop
  endfacet
  facet normal -0 0 1
    outer loop
      vertex 15.4738 29.0199 10
      vertex 19.3732 28.8011 10
      vertex 17.9351 29.6581 10
    endloop
  endfacet
  facet normal 0 0 1
    outer loop
      vertex 15.4738 29.0199 10
      vertex 17.9351 29.6581 10
      vertex 17.4129 29.7643 10
    endloop
  endfacet
  facet normal 0 0 1
    outer loop
      vertex 15.3118 29.0561 10
      vertex 8.40524 24.8174 10
      vertex 8.65524 23.8474 10
    endloop
  endfacet
  facet normal 0 0 1
    outer loop
      vertex 8.27576 26.2562 10
      vertex 7.92323 25.5059 10
      vertex 8.38182 24.8675 10
    endloop
  endfacet
  facet normal 0 0 1
    outer loop
      vertex 8.27576 26.2562 10
      vertex 8.38182 24.8675 10
      vertex 8.40524 24.8174 10
    endloop
  endfacet
  facet normal 0 0 1
    outer loop
      vertex 8.28996 26.3234 10
      vertex 8.27576 26.2562 10
      vertex 8.40524 24.8174 10
    endloop
  endfacet
  facet normal 0 0 1
    outer loop
      vertex 12.1958 30.9757 10
      vertex 9.89229 30.48 10
      vertex 9.12703 28.9603 10
    endloop
  endfacet
  facet normal 0 0 1
    outer loop
      vertex 12.1958 30.9757 10
      vertex 9.12703 28.9603 10
      vertex 13.9205 30.5062 10
    endloop
  endfacet
  facet normal 0 0 1
    outer loop
      vertex 9.89229 30.48 10
      vertex 9.35539 30.0927 10
      vertex 9.12703 28.9603 10
    endloop
  endfacet
  facet normal 0 0 1
    outer loop
      vertex 13.9205 30.5062 10
      vertex 9.12703 28.9603 10
      vertex 15.3118 29.0561 10
    endloop
  endfacet
  facet normal -0 0 1
    outer loop
      vertex 9.12703 28.9603 10
      vertex 9.08839 28.8863 10
      vertex 15.3118 29.0561 10
    endloop
  endfacet
  facet normal 0 0 1
    outer loop
      vertex 9.08839 28.8863 10
      vertex 8.25137 28.0112 10
      vertex 8.28996 26.3234 10
    endloop
  endfacet
  facet normal -0 0 1
    outer loop
      vertex 9.08839 28.8863 10
      vertex 8.28996 26.3234 10
      vertex 15.3118 29.0561 10
    endloop
  endfacet
  facet normal -0 0 1
    outer loop
      vertex 8.28996 26.3234 10
      vertex 8.40524 24.8174 10
      vertex 15.3118 29.0561 10
    endloop
  endfacet
  facet normal 0 0 1
    outer loop
      vertex 15.3118 29.0561 10
      vertex 8.65524 23.8474 10
      vertex 8.65697 23.78 10
    endloop
  endfacet
  facet normal -0 0 1
    outer loop
      vertex 8.55696 23.29 10
      vertex 21.6479 15.1855 10
      vertex 15.4738 29.0199 10
    endloop
  endfacet
  facet normal 0 -0 1
    outer loop
      vertex 21.5964 15.1281 10
      vertex 21.6479 15.1855 10
      vertex 8.55696 23.29 10
    endloop
  endfacet
  facet normal 0 0 1
    outer loop
      vertex 10.8906 13.5396 10
      vertex 8.55696 23.29 10
      vertex 8.14999 22.3481 10
    endloop
  endfacet
  facet normal 0 0 1
    outer loop
      vertex 15.3118 29.0561 10
      vertex 8.65697 23.78 10
      vertex 15.4738 29.0199 10
    endloop
  endfacet
  facet normal -0 0 1
    outer loop
      vertex 8.47435 23.1845 10
      vertex 8.14999 22.3481 10
      vertex 8.55696 23.29 10
    endloop
  endfacet
  facet normal -0 0 1
    outer loop
      vertex 8.65697 23.78 10
      vertex 8.55696 23.29 10
      vertex 15.4738 29.0199 10
    endloop
  endfacet
  facet normal 0 0 1
    outer loop
      vertex 8.14999 22.3481 10
      vertex 8.09621 22.2349 10
      vertex 9.9406 14.2596 10
    endloop
  endfacet
  facet normal -0 0 1
    outer loop
      vertex 8.1588 23.0346 10
      vertex 8.14999 22.3481 10
      vertex 8.47435 23.1845 10
    endloop
  endfacet
  facet normal 0 0 1
    outer loop
      vertex 9.9406 14.2596 10
      vertex 8.09621 22.2349 10
      vertex 9.86165 14.2896 10
    endloop
  endfacet
  facet normal -0 0 1
    outer loop
      vertex 7.51549 21.7494 10
      vertex 6.9095 20.2149 10
      vertex 8.09621 22.2349 10
    endloop
  endfacet
  facet normal 0 0 1
    outer loop
      vertex 7.58362 14.6755 10
      vertex 6.78981 20.1213 10
      vertex 6.31654 20.0582 10
    endloop
  endfacet
  facet normal -0 -0 1
    outer loop
      vertex 11.798 12.844 10
      vertex 11.928 12.8215 10
      vertex 10.9257 13.5018 10
    endloop
  endfacet
  facet normal 0 0 1
    outer loop
      vertex 7.58362 14.6755 10
      vertex 6.16425 14.3379 10
      vertex 7.5 14.62 10
    endloop
  endfacet
  facet normal 0 0 1
    outer loop
      vertex 8.34122 14.5639 10
      vertex 8.1255 14.4249 10
      vertex 9.86165 14.2896 10
    endloop
  endfacet
  facet normal 0 -0 1
    outer loop
      vertex 7.33221 14.3963 10
      vertex 7.5 14.62 10
      vertex 6.16425 14.3379 10
    endloop
  endfacet
  facet normal 0 0 1
    outer loop
      vertex 12.218 12.6115 10
      vertex 12.2727 12.4439 10
      vertex 12.4415 12.2803 10
    endloop
  endfacet
  facet normal 0 0 1
    outer loop
      vertex 7.58362 14.6755 10
      vertex 6.31654 20.0582 10
      vertex 6.16425 14.3379 10
    endloop
  endfacet
  facet normal 0 0 1
    outer loop
      vertex 13.9767 10.0054 10
      vertex 12.3064 11.4075 10
      vertex 12.5396 10.4416 10
    endloop
  endfacet
  facet normal 0 0 1
    outer loop
      vertex 8.22362 14.8355 10
      vertex 6.78981 20.1213 10
      vertex 7.58362 14.6755 10
    endloop
  endfacet
  facet normal 0 0 1
    outer loop
      vertex 12.4415 12.2803 10
      vertex 14.9581 10.6357 10
      vertex 15.6362 10.6071 10
    endloop
  endfacet
  facet normal 0 0 1
    outer loop
      vertex 6.9095 20.2149 10
      vertex 6.78981 20.1213 10
      vertex 8.22362 14.8355 10
    endloop
  endfacet
  facet normal 0 0 1
    outer loop
      vertex 9.86165 14.2896 10
      vertex 6.9095 20.2149 10
      vertex 8.38715 14.7695 10
    endloop
  endfacet
  facet normal 0 0 1
    outer loop
      vertex 8.38715 14.7695 10
      vertex 6.9095 20.2149 10
      vertex 8.22362 14.8355 10
    endloop
  endfacet
  facet normal 0 0 1
    outer loop
      vertex 8.09621 22.2349 10
      vertex 6.9095 20.2149 10
      vertex 9.86165 14.2896 10
    endloop
  endfacet
  facet normal -0 -0 1
    outer loop
      vertex 12.444 12.0826 10
      vertex 14.9581 10.6357 10
      vertex 12.4415 12.2803 10
    endloop
  endfacet
  facet normal 0 -0 1
    outer loop
      vertex 10.8906 13.5396 10
      vertex 21.5964 15.1281 10
      vertex 8.55696 23.29 10
    endloop
  endfacet
  facet normal 0 0 1
    outer loop
      vertex 8.38715 14.7695 10
      vertex 8.34122 14.5639 10
      vertex 9.86165 14.2896 10
    endloop
  endfacet
  facet normal 0 -0 1
    outer loop
      vertex 20.0313 13.493 10
      vertex 21.5964 15.1281 10
      vertex 10.8906 13.5396 10
    endloop
  endfacet
  facet normal 0 0 1
    outer loop
      vertex 15.824 10.6069 10
      vertex 12.218 12.6115 10
      vertex 12.4415 12.2803 10
    endloop
  endfacet
  facet normal 0 0 1
    outer loop
      vertex 20.0313 13.493 10
      vertex 10.8906 13.5396 10
      vertex 11.928 12.8215 10
    endloop
  endfacet
  facet normal 0 0 1
    outer loop
      vertex 10.9257 13.5018 10
      vertex 11.4249 12.7352 10
      vertex 11.798 12.844 10
    endloop
  endfacet
  facet normal 0 0 1
    outer loop
      vertex 20.0313 13.493 10
      vertex 11.928 12.8215 10
      vertex 12.218 12.6115 10
    endloop
  endfacet
  facet normal -0 -0 1
    outer loop
      vertex 15.6362 10.6071 10
      vertex 15.824 10.6069 10
      vertex 12.4415 12.2803 10
    endloop
  endfacet
  facet normal 0 -0 1
    outer loop
      vertex 12.2691 12.3171 10
      vertex 12.2727 12.4439 10
      vertex 12.1722 12.346 10
    endloop
  endfacet
  facet normal 0 -0 1
    outer loop
      vertex 11.9874 12.1919 10
      vertex 12.1722 12.346 10
      vertex 11.8881 12.2628 10
    endloop
  endfacet
  facet normal 0 -0 1
    outer loop
      vertex 12.2716 11.5804 10
      vertex 12.444 12.0826 10
      vertex 12.1279 11.7125 10
    endloop
  endfacet
  facet normal 0 0 1
    outer loop
      vertex 11.9874 12.1919 10
      vertex 12.2691 12.3171 10
      vertex 12.1722 12.346 10
    endloop
  endfacet
  facet normal 0 0 1
    outer loop
      vertex 12.444 12.0826 10
      vertex 12.3064 11.4075 10
      vertex 14.9581 10.6357 10
    endloop
  endfacet
  facet normal -0 0 1
    outer loop
      vertex 12.2691 12.3171 10
      vertex 12.4415 12.2803 10
      vertex 12.2727 12.4439 10
    endloop
  endfacet
  facet normal -0 0 1
    outer loop
      vertex 12.2716 11.5804 10
      vertex 12.3064 11.4075 10
      vertex 12.444 12.0826 10
    endloop
  endfacet
  facet normal 0 0 1
    outer loop
      vertex 12.3064 11.4075 10
      vertex 12.2112 11.3258 10
      vertex 12.5396 10.4416 10
    endloop
  endfacet
  facet normal 0 0 1
    outer loop
      vertex 12.3064 11.4075 10
      vertex 13.9767 10.0054 10
      vertex 14.9581 10.6357 10
    endloop
  endfacet
  facet normal 0 0 1
    outer loop
      vertex 13.9767 10.0054 10
      vertex 12.5396 10.4416 10
      vertex 13.813 9.93982 10
    endloop
  endfacet
  facet normal -0 0 1
    outer loop
      vertex 12.1651 11.3126 10
      vertex 12.5396 10.4416 10
      vertex 12.2112 11.3258 10
    endloop
  endfacet
  facet normal 0 0 1
    outer loop
      vertex 12.5396 10.4416 10
      vertex 13.6734 9.71773 10
      vertex 13.813 9.93982 10
    endloop
  endfacet
  facet normal 0.371879 -0.928281 0
    outer loop
      vertex 13.9767 10.0054 0
      vertex 13.813 9.93982 10
      vertex 13.813 9.93982 0
    endloop
  endfacet
  facet normal 0.371879 -0.928281 0
    outer loop
      vertex 13.9767 10.0054 0
      vertex 13.9767 10.0054 10
      vertex 13.813 9.93982 10
    endloop
  endfacet
  facet normal -0.810976 -0.58508 0
    outer loop
      vertex 14.0896 9.84891 0
      vertex 13.9767 10.0054 10
      vertex 13.9767 10.0054 0
    endloop
  endfacet
  facet normal -0.810976 -0.58508 0
    outer loop
      vertex 14.0896 9.84891 0
      vertex 14.0896 9.84891 10
      vertex 13.9767 10.0054 10
    endloop
  endfacet
  facet normal -0.997271 0.0738311 0
    outer loop
      vertex 14.0829 9.75841 0
      vertex 14.0896 9.84891 10
      vertex 14.0896 9.84891 0
    endloop
  endfacet
  facet normal -0.997271 0.0738311 0
    outer loop
      vertex 14.0829 9.75841 0
      vertex 14.0829 9.75841 10
      vertex 14.0896 9.84891 10
    endloop
  endfacet
  facet normal 0.107037 -0.994255 0
    outer loop
      vertex 14.4408 9.79694 0
      vertex 14.0829 9.75841 10
      vertex 14.0829 9.75841 0
    endloop
  endfacet
  facet normal 0.107037 -0.994255 0
    outer loop
      vertex 14.4408 9.79694 0
      vertex 14.4408 9.79694 10
      vertex 14.0829 9.75841 10
    endloop
  endfacet
  facet normal 0.986466 -0.163964 0
    outer loop
      vertex 14.472 9.98465 0
      vertex 14.4408 9.79694 10
      vertex 14.4408 9.79694 0
    endloop
  endfacet
  facet normal 0.986466 -0.163964 0
    outer loop
      vertex 14.472 9.98465 0
      vertex 14.472 9.98465 10
      vertex 14.4408 9.79694 10
    endloop
  endfacet
  facet normal 0.70127 -0.712896 0
    outer loop
      vertex 14.5977 10.1083 0
      vertex 14.472 9.98465 10
      vertex 14.472 9.98465 0
    endloop
  endfacet
  facet normal 0.70127 -0.712896 0
    outer loop
      vertex 14.5977 10.1083 0
      vertex 14.5977 10.1083 10
      vertex 14.472 9.98465 10
    endloop
  endfacet
  facet normal -0.502213 -0.864744 0
    outer loop
      vertex 14.7599 10.0141 0
      vertex 14.5977 10.1083 10
      vertex 14.5977 10.1083 0
    endloop
  endfacet
  facet normal -0.502213 -0.864744 0
    outer loop
      vertex 14.7599 10.0141 0
      vertex 14.7599 10.0141 10
      vertex 14.5977 10.1083 10
    endloop
  endfacet
  facet normal -0.932606 -0.360896 0
    outer loop
      vertex 14.8362 9.81693 0
      vertex 14.7599 10.0141 10
      vertex 14.7599 10.0141 0
    endloop
  endfacet
  facet normal -0.932606 -0.360896 0
    outer loop
      vertex 14.8362 9.81693 0
      vertex 14.8362 9.81693 10
      vertex 14.7599 10.0141 10
    endloop
  endfacet
  facet normal 0.154914 -0.987928 0
    outer loop
      vertex 15.0617 9.85229 0
      vertex 14.8362 9.81693 10
      vertex 14.8362 9.81693 0
    endloop
  endfacet
  facet normal 0.154914 -0.987928 0
    outer loop
      vertex 15.0617 9.85229 0
      vertex 15.0617 9.85229 10
      vertex 14.8362 9.81693 10
    endloop
  endfacet
  facet normal 0.965645 0.259863 0
    outer loop
      vertex 14.8952 10.471 0
      vertex 15.0617 9.85229 10
      vertex 15.0617 9.85229 0
    endloop
  endfacet
  facet normal 0.965645 0.259863 -0
    outer loop
      vertex 14.8952 10.471 0
      vertex 14.8952 10.471 10
      vertex 15.0617 9.85229 10
    endloop
  endfacet
  facet normal 0.934191 -0.356774 0
    outer loop
      vertex 14.9581 10.6357 0
      vertex 14.8952 10.471 10
      vertex 14.8952 10.471 0
    endloop
  endfacet
  facet normal 0.934191 -0.356774 0
    outer loop
      vertex 14.9581 10.6357 0
      vertex 14.9581 10.6357 10
      vertex 14.8952 10.471 10
    endloop
  endfacet
  facet normal -0.277802 -0.960638 0
    outer loop
      vertex 15.1763 10.5726 0
      vertex 14.9581 10.6357 10
      vertex 14.9581 10.6357 0
    endloop
  endfacet
  facet normal -0.277802 -0.960638 0
    outer loop
      vertex 15.1763 10.5726 0
      vertex 15.1763 10.5726 10
      vertex 14.9581 10.6357 10
    endloop
  endfacet
  facet normal -0.908662 -0.417532 0
    outer loop
      vertex 15.4506 9.97565 0
      vertex 15.1763 10.5726 10
      vertex 15.1763 10.5726 0
    endloop
  endfacet
  facet normal -0.908662 -0.417532 0
    outer loop
      vertex 15.4506 9.97565 0
      vertex 15.4506 9.97565 10
      vertex 15.1763 10.5726 10
    endloop
  endfacet
  facet normal 0.460846 -0.88748 0
    outer loop
      vertex 15.7126 10.1117 0
      vertex 15.4506 9.97565 10
      vertex 15.4506 9.97565 0
    endloop
  endfacet
  facet normal 0.460846 -0.88748 0
    outer loop
      vertex 15.7126 10.1117 0
      vertex 15.7126 10.1117 10
      vertex 15.4506 9.97565 10
    endloop
  endfacet
  facet normal 0.935464 0.353423 0
    outer loop
      vertex 15.5897 10.437 0
      vertex 15.7126 10.1117 10
      vertex 15.7126 10.1117 0
    endloop
  endfacet
  facet normal 0.935464 0.353423 -0
    outer loop
      vertex 15.5897 10.437 0
      vertex 15.5897 10.437 10
      vertex 15.7126 10.1117 10
    endloop
  endfacet
  facet normal 0.964607 -0.263693 0
    outer loop
      vertex 15.6362 10.6071 0
      vertex 15.5897 10.437 10
      vertex 15.5897 10.437 0
    endloop
  endfacet
  facet normal 0.964607 -0.263693 0
    outer loop
      vertex 15.6362 10.6071 0
      vertex 15.6362 10.6071 10
      vertex 15.5897 10.437 10
    endloop
  endfacet
  facet normal -0.00106496 -0.999999 0
    outer loop
      vertex 15.824 10.6069 0
      vertex 15.6362 10.6071 10
      vertex 15.6362 10.6071 0
    endloop
  endfacet
  facet normal -0.00106496 -0.999999 0
    outer loop
      vertex 15.824 10.6069 0
      vertex 15.824 10.6069 10
      vertex 15.6362 10.6071 10
    endloop
  endfacet
  facet normal -0.626817 -0.779167 0
    outer loop
      vertex 16.2132 10.2938 0
      vertex 15.824 10.6069 10
      vertex 15.824 10.6069 0
    endloop
  endfacet
  facet normal -0.626817 -0.779167 0
    outer loop
      vertex 16.2132 10.2938 0
      vertex 16.2132 10.2938 10
      vertex 15.824 10.6069 10
    endloop
  endfacet
  facet normal 0.399953 -0.916535 0
    outer loop
      vertex 16.68 10.4975 0
      vertex 16.2132 10.2938 10
      vertex 16.2132 10.2938 0
    endloop
  endfacet
  facet normal 0.399953 -0.916535 0
    outer loop
      vertex 16.68 10.4975 0
      vertex 16.68 10.4975 10
      vertex 16.2132 10.2938 10
    endloop
  endfacet
  facet normal -0.222398 -0.974956 0
    outer loop
      vertex 16.8536 10.4579 0
      vertex 16.68 10.4975 10
      vertex 16.68 10.4975 0
    endloop
  endfacet
  facet normal -0.222398 -0.974956 0
    outer loop
      vertex 16.8536 10.4579 0
      vertex 16.8536 10.4579 10
      vertex 16.68 10.4975 10
    endloop
  endfacet
  facet normal -0.757338 -0.653023 0
    outer loop
      vertex 17.0558 10.2234 0
      vertex 16.8536 10.4579 10
      vertex 16.8536 10.4579 0
    endloop
  endfacet
  facet normal -0.757338 -0.653023 0
    outer loop
      vertex 17.0558 10.2234 0
      vertex 17.0558 10.2234 10
      vertex 16.8536 10.4579 10
    endloop
  endfacet
  facet normal 0.0485035 -0.998823 0
    outer loop
      vertex 18.2543 10.2816 0
      vertex 17.0558 10.2234 10
      vertex 17.0558 10.2234 0
    endloop
  endfacet
  facet normal 0.0485035 -0.998823 0
    outer loop
      vertex 18.2543 10.2816 0
      vertex 18.2543 10.2816 10
      vertex 17.0558 10.2234 10
    endloop
  endfacet
  facet normal 0.98639 0.164425 0
    outer loop
      vertex 18.152 10.8953 0
      vertex 18.2543 10.2816 10
      vertex 18.2543 10.2816 0
    endloop
  endfacet
  facet normal 0.98639 0.164425 -0
    outer loop
      vertex 18.152 10.8953 0
      vertex 18.152 10.8953 10
      vertex 18.2543 10.2816 10
    endloop
  endfacet
  facet normal 0.894654 -0.44676 0
    outer loop
      vertex 18.2308 11.0531 0
      vertex 18.152 10.8953 10
      vertex 18.152 10.8953 0
    endloop
  endfacet
  facet normal 0.894654 -0.44676 0
    outer loop
      vertex 18.2308 11.0531 0
      vertex 18.2308 11.0531 10
      vertex 18.152 10.8953 10
    endloop
  endfacet
  facet normal 0.0164157 -0.999865 0
    outer loop
      vertex 18.3648 11.0553 0
      vertex 18.2308 11.0531 10
      vertex 18.2308 11.0531 0
    endloop
  endfacet
  facet normal 0.0164157 -0.999865 0
    outer loop
      vertex 18.3648 11.0553 0
      vertex 18.3648 11.0553 10
      vertex 18.2308 11.0531 10
    endloop
  endfacet
  facet normal -0.431963 -0.901891 0
    outer loop
      vertex 18.9302 10.7845 0
      vertex 18.3648 11.0553 10
      vertex 18.3648 11.0553 0
    endloop
  endfacet
  facet normal -0.431963 -0.901891 0
    outer loop
      vertex 18.9302 10.7845 0
      vertex 18.9302 10.7845 10
      vertex 18.3648 11.0553 10
    endloop
  endfacet
  facet normal 0.928474 -0.371397 0
    outer loop
      vertex 19.9907 13.4357 0
      vertex 18.9302 10.7845 10
      vertex 18.9302 10.7845 0
    endloop
  endfacet
  facet normal 0.928474 -0.371397 0
    outer loop
      vertex 19.9907 13.4357 0
      vertex 19.9907 13.4357 10
      vertex 18.9302 10.7845 10
    endloop
  endfacet
  facet normal 0.815941 -0.578136 0
    outer loop
      vertex 20.0313 13.493 0
      vertex 19.9907 13.4357 10
      vertex 19.9907 13.4357 0
    endloop
  endfacet
  facet normal 0.815941 -0.578136 0
    outer loop
      vertex 20.0313 13.493 0
      vertex 20.0313 13.493 10
      vertex 19.9907 13.4357 10
    endloop
  endfacet
  facet normal 0.657687 -0.753291 0
    outer loop
      vertex 21.3495 14.6439 0
      vertex 20.0313 13.493 10
      vertex 20.0313 13.493 0
    endloop
  endfacet
  facet normal 0.657687 -0.753291 0
    outer loop
      vertex 21.3495 14.6439 0
      vertex 21.3495 14.6439 10
      vertex 20.0313 13.493 10
    endloop
  endfacet
  facet normal 0.890867 -0.454265 0
    outer loop
      vertex 21.5964 15.1281 0
      vertex 21.3495 14.6439 10
      vertex 21.3495 14.6439 0
    endloop
  endfacet
  facet normal 0.890867 -0.454265 0
    outer loop
      vertex 21.5964 15.1281 0
      vertex 21.5964 15.1281 10
      vertex 21.3495 14.6439 10
    endloop
  endfacet
  facet normal 0.744325 -0.667818 0
    outer loop
      vertex 21.6479 15.1855 0
      vertex 21.5964 15.1281 10
      vertex 21.5964 15.1281 0
    endloop
  endfacet
  facet normal 0.744325 -0.667818 0
    outer loop
      vertex 21.6479 15.1855 0
      vertex 21.6479 15.1855 10
      vertex 21.5964 15.1281 10
    endloop
  endfacet
  facet normal 0.547528 -0.836788 0
    outer loop
      vertex 22.4579 15.7155 0
      vertex 21.6479 15.1855 10
      vertex 21.6479 15.1855 0
    endloop
  endfacet
  facet normal 0.547528 -0.836788 0
    outer loop
      vertex 22.4579 15.7155 0
      vertex 22.4579 15.7155 10
      vertex 21.6479 15.1855 10
    endloop
  endfacet
  facet normal -0.229424 -0.973327 0
    outer loop
      vertex 22.6696 15.6656 0
      vertex 22.4579 15.7155 10
      vertex 22.4579 15.7155 0
    endloop
  endfacet
  facet normal -0.229424 -0.973327 0
    outer loop
      vertex 22.6696 15.6656 0
      vertex 22.6696 15.6656 10
      vertex 22.4579 15.7155 10
    endloop
  endfacet
  facet normal -0.864017 -0.503463 0
    outer loop
      vertex 22.7693 15.4945 0
      vertex 22.6696 15.6656 10
      vertex 22.6696 15.6656 0
    endloop
  endfacet
  facet normal -0.864017 -0.503463 0
    outer loop
      vertex 22.7693 15.4945 0
      vertex 22.7693 15.4945 10
      vertex 22.6696 15.6656 10
    endloop
  endfacet
  facet normal -0.06521 -0.997872 0
    outer loop
      vertex 23.083 15.474 0
      vertex 22.7693 15.4945 10
      vertex 22.7693 15.4945 0
    endloop
  endfacet
  facet normal -0.06521 -0.997872 0
    outer loop
      vertex 23.083 15.474 0
      vertex 23.083 15.474 10
      vertex 22.7693 15.4945 10
    endloop
  endfacet
  facet normal 0.698728 -0.715387 0
    outer loop
      vertex 23.4652 15.8473 0
      vertex 23.083 15.474 10
      vertex 23.083 15.474 0
    endloop
  endfacet
  facet normal 0.698728 -0.715387 0
    outer loop
      vertex 23.4652 15.8473 0
      vertex 23.4652 15.8473 10
      vertex 23.083 15.474 10
    endloop
  endfacet
  facet normal 0.0434806 -0.999054 0
    outer loop
      vertex 23.6651 15.856 0
      vertex 23.4652 15.8473 10
      vertex 23.4652 15.8473 0
    endloop
  endfacet
  facet normal 0.0434806 -0.999054 0
    outer loop
      vertex 23.6651 15.856 0
      vertex 23.6651 15.856 10
      vertex 23.4652 15.8473 10
    endloop
  endfacet
  facet normal -0.634183 -0.773183 0
    outer loop
      vertex 24.5551 15.126 0
      vertex 23.6651 15.856 10
      vertex 23.6651 15.856 0
    endloop
  endfacet
  facet normal -0.634183 -0.773183 0
    outer loop
      vertex 24.5551 15.126 0
      vertex 24.5551 15.126 10
      vertex 23.6651 15.856 10
    endloop
  endfacet
  facet normal -0.819925 -0.57247 0
    outer loop
      vertex 24.6016 15.0594 0
      vertex 24.5551 15.126 10
      vertex 24.5551 15.126 0
    endloop
  endfacet
  facet normal -0.819925 -0.57247 0
    outer loop
      vertex 24.6016 15.0594 0
      vertex 24.6016 15.0594 10
      vertex 24.5551 15.126 10
    endloop
  endfacet
  facet normal -0.944091 -0.329686 0
    outer loop
      vertex 24.7761 14.5597 0
      vertex 24.6016 15.0594 10
      vertex 24.6016 15.0594 0
    endloop
  endfacet
  facet normal -0.944091 -0.329686 0
    outer loop
      vertex 24.7761 14.5597 0
      vertex 24.7761 14.5597 10
      vertex 24.6016 15.0594 10
    endloop
  endfacet
  facet normal 0.249374 -0.968407 0
    outer loop
      vertex 25.2355 14.678 0
      vertex 24.7761 14.5597 10
      vertex 24.7761 14.5597 0
    endloop
  endfacet
  facet normal 0.249374 -0.968407 0
    outer loop
      vertex 25.2355 14.678 0
      vertex 25.2355 14.678 10
      vertex 24.7761 14.5597 10
    endloop
  endfacet
  facet normal 0.898842 -0.438272 0
    outer loop
      vertex 25.5952 15.4157 0
      vertex 25.2355 14.678 10
      vertex 25.2355 14.678 0
    endloop
  endfacet
  facet normal 0.898842 -0.438272 0
    outer loop
      vertex 25.5952 15.4157 0
      vertex 25.5952 15.4157 10
      vertex 25.2355 14.678 10
    endloop
  endfacet
  facet normal 0.783265 -0.621688 0
    outer loop
      vertex 25.6356 15.4666 0
      vertex 25.5952 15.4157 10
      vertex 25.5952 15.4157 0
    endloop
  endfacet
  facet normal 0.783265 -0.621688 0
    outer loop
      vertex 25.6356 15.4666 0
      vertex 25.6356 15.4666 10
      vertex 25.5952 15.4157 10
    endloop
  endfacet
  facet normal 0.62916 -0.777276 0
    outer loop
      vertex 26.163 15.8935 0
      vertex 25.6356 15.4666 10
      vertex 25.6356 15.4666 0
    endloop
  endfacet
  facet normal 0.62916 -0.777276 0
    outer loop
      vertex 26.163 15.8935 0
      vertex 26.163 15.8935 10
      vertex 25.6356 15.4666 10
    endloop
  endfacet
  facet normal 0.850862 0.525389 0
    outer loop
      vertex 26.0224 16.1212 0
      vertex 26.163 15.8935 10
      vertex 26.163 15.8935 0
    endloop
  endfacet
  facet normal 0.850862 0.525389 -0
    outer loop
      vertex 26.0224 16.1212 0
      vertex 26.0224 16.1212 10
      vertex 26.163 15.8935 10
    endloop
  endfacet
  facet normal 0.998779 -0.0494095 0
    outer loop
      vertex 26.0308 16.291 0
      vertex 26.0224 16.1212 10
      vertex 26.0224 16.1212 0
    endloop
  endfacet
  facet normal 0.998779 -0.0494095 0
    outer loop
      vertex 26.0308 16.291 0
      vertex 26.0308 16.291 10
      vertex 26.0224 16.1212 10
    endloop
  endfacet
  facet normal 0.794704 -0.606997 0
    outer loop
      vertex 26.5676 16.9938 0
      vertex 26.0308 16.291 10
      vertex 26.0308 16.291 0
    endloop
  endfacet
  facet normal 0.794704 -0.606997 0
    outer loop
      vertex 26.5676 16.9938 0
      vertex 26.5676 16.9938 10
      vertex 26.0308 16.291 10
    endloop
  endfacet
  facet normal 0.93409 -0.357039 0
    outer loop
      vertex 27.4199 19.2236 0
      vertex 26.5676 16.9938 10
      vertex 26.5676 16.9938 0
    endloop
  endfacet
  facet normal 0.93409 -0.357039 0
    outer loop
      vertex 27.4199 19.2236 0
      vertex 27.4199 19.2236 10
      vertex 26.5676 16.9938 10
    endloop
  endfacet
  facet normal 0.731527 -0.681812 0
    outer loop
      vertex 27.4967 19.306 0
      vertex 27.4199 19.2236 10
      vertex 27.4199 19.2236 0
    endloop
  endfacet
  facet normal 0.731527 -0.681812 0
    outer loop
      vertex 27.4967 19.306 0
      vertex 27.4967 19.306 10
      vertex 27.4199 19.2236 10
    endloop
  endfacet
  facet normal 0.42218 -0.906512 0
    outer loop
      vertex 28.1647 19.6171 0
      vertex 27.4967 19.306 10
      vertex 27.4967 19.306 0
    endloop
  endfacet
  facet normal 0.42218 -0.906512 0
    outer loop
      vertex 28.1647 19.6171 0
      vertex 28.1647 19.6171 10
      vertex 27.4967 19.306 10
    endloop
  endfacet
  facet normal 0.961054 -0.276359 0
    outer loop
      vertex 28.5858 21.0815 0
      vertex 28.1647 19.6171 10
      vertex 28.1647 19.6171 0
    endloop
  endfacet
  facet normal 0.961054 -0.276359 0
    outer loop
      vertex 28.5858 21.0815 0
      vertex 28.5858 21.0815 10
      vertex 28.1647 19.6171 10
    endloop
  endfacet
  facet normal 0.773169 -0.6342 0
    outer loop
      vertex 28.6611 21.1733 0
      vertex 28.5858 21.0815 10
      vertex 28.5858 21.0815 0
    endloop
  endfacet
  facet normal 0.773169 -0.6342 0
    outer loop
      vertex 28.6611 21.1733 0
      vertex 28.6611 21.1733 10
      vertex 28.5858 21.0815 10
    endloop
  endfacet
  facet normal 0.458868 -0.888504 0
    outer loop
      vertex 29.193 21.448 0
      vertex 28.6611 21.1733 10
      vertex 28.6611 21.1733 0
    endloop
  endfacet
  facet normal 0.458868 -0.888504 0
    outer loop
      vertex 29.193 21.448 0
      vertex 29.193 21.448 10
      vertex 28.6611 21.1733 10
    endloop
  endfacet
  facet normal 0.989014 -0.147825 0
    outer loop
      vertex 29.3416 22.4422 0
      vertex 29.193 21.448 10
      vertex 29.193 21.448 0
    endloop
  endfacet
  facet normal 0.989014 -0.147825 0
    outer loop
      vertex 29.3416 22.4422 0
      vertex 29.3416 22.4422 10
      vertex 29.193 21.448 10
    endloop
  endfacet
  facet normal 0.952815 -0.303552 0
    outer loop
      vertex 29.356 22.4874 0
      vertex 29.3416 22.4422 10
      vertex 29.3416 22.4422 0
    endloop
  endfacet
  facet normal 0.952815 -0.303552 0
    outer loop
      vertex 29.356 22.4874 0
      vertex 29.356 22.4874 10
      vertex 29.3416 22.4422 10
    endloop
  endfacet
  facet normal 0.89348 -0.449104 0
    outer loop
      vertex 30.306 24.3774 0
      vertex 29.356 22.4874 10
      vertex 29.356 22.4874 0
    endloop
  endfacet
  facet normal 0.89348 -0.449104 0
    outer loop
      vertex 30.306 24.3774 0
      vertex 30.306 24.3774 10
      vertex 29.356 22.4874 10
    endloop
  endfacet
  facet normal 0.838999 -0.544133 0
    outer loop
      vertex 30.3239 24.405 0
      vertex 30.306 24.3774 10
      vertex 30.306 24.3774 0
    endloop
  endfacet
  facet normal 0.838999 -0.544133 0
    outer loop
      vertex 30.3239 24.405 0
      vertex 30.3239 24.405 10
      vertex 30.306 24.3774 10
    endloop
  endfacet
  facet normal 0.773957 -0.633238 0
    outer loop
      vertex 30.9539 25.175 0
      vertex 30.3239 24.405 10
      vertex 30.3239 24.405 0
    endloop
  endfacet
  facet normal 0.773957 -0.633238 0
    outer loop
      vertex 30.9539 25.175 0
      vertex 30.9539 25.175 10
      vertex 30.3239 24.405 10
    endloop
  endfacet
  facet normal 0.637959 -0.77007 0
    outer loop
      vertex 30.9982 25.2117 0
      vertex 30.9539 25.175 10
      vertex 30.9539 25.175 0
    endloop
  endfacet
  facet normal 0.637959 -0.77007 0
    outer loop
      vertex 30.9982 25.2117 0
      vertex 30.9982 25.2117 10
      vertex 30.9539 25.175 10
    endloop
  endfacet
  facet normal 0.478837 -0.877904 0
    outer loop
      vertex 32.2462 25.8924 0
      vertex 30.9982 25.2117 10
      vertex 30.9982 25.2117 0
    endloop
  endfacet
  facet normal 0.478837 -0.877904 0
    outer loop
      vertex 32.2462 25.8924 0
      vertex 32.2462 25.8924 10
      vertex 30.9982 25.2117 10
    endloop
  endfacet
  facet normal 0.997497 -0.0707079 0
    outer loop
      vertex 32.3366 27.1677 0
      vertex 32.2462 25.8924 10
      vertex 32.2462 25.8924 0
    endloop
  endfacet
  facet normal 0.997497 -0.0707079 0
    outer loop
      vertex 32.3366 27.1677 0
      vertex 32.3366 27.1677 10
      vertex 32.2462 25.8924 10
    endloop
  endfacet
  facet normal 0.820422 0.571758 0
    outer loop
      vertex 32.1676 27.4102 0
      vertex 32.3366 27.1677 10
      vertex 32.3366 27.1677 0
    endloop
  endfacet
  facet normal 0.820422 0.571758 -0
    outer loop
      vertex 32.1676 27.4102 0
      vertex 32.1676 27.4102 10
      vertex 32.3366 27.1677 10
    endloop
  endfacet
  facet normal 0.271089 0.962554 0
    outer loop
      vertex 31.5093 27.5956 0
      vertex 32.1676 27.4102 10
      vertex 32.1676 27.4102 0
    endloop
  endfacet
  facet normal 0.271089 0.962554 -0
    outer loop
      vertex 31.5093 27.5956 0
      vertex 31.5093 27.5956 10
      vertex 32.1676 27.4102 10
    endloop
  endfacet
  facet normal 0.737154 0.675725 0
    outer loop
      vertex 31.4026 27.712 0
      vertex 31.5093 27.5956 10
      vertex 31.5093 27.5956 0
    endloop
  endfacet
  facet normal 0.737154 0.675725 -0
    outer loop
      vertex 31.4026 27.712 0
      vertex 31.4026 27.712 10
      vertex 31.5093 27.5956 10
    endloop
  endfacet
  facet normal 0.98245 0.186526 0
    outer loop
      vertex 31.1087 29.26 0
      vertex 31.4026 27.712 10
      vertex 31.4026 27.712 0
    endloop
  endfacet
  facet normal 0.98245 0.186526 -0
    outer loop
      vertex 31.1087 29.26 0
      vertex 31.1087 29.26 10
      vertex 31.4026 27.712 10
    endloop
  endfacet
  facet normal 0.816821 0.576891 0
    outer loop
      vertex 30.183 30.5707 0
      vertex 31.1087 29.26 10
      vertex 31.1087 29.26 0
    endloop
  endfacet
  facet normal 0.816821 0.576891 -0
    outer loop
      vertex 30.183 30.5707 0
      vertex 30.183 30.5707 10
      vertex 31.1087 29.26 10
    endloop
  endfacet
  facet normal -0.333397 0.942787 0
    outer loop
      vertex 28.6786 30.0387 0
      vertex 30.183 30.5707 10
      vertex 30.183 30.5707 0
    endloop
  endfacet
  facet normal -0.333397 0.942787 0
    outer loop
      vertex 28.6786 30.0387 0
      vertex 28.6786 30.0387 10
      vertex 30.183 30.5707 10
    endloop
  endfacet
  facet normal -0.673494 0.739193 0
    outer loop
      vertex 27.801 29.2391 0
      vertex 28.6786 30.0387 10
      vertex 28.6786 30.0387 0
    endloop
  endfacet
  facet normal -0.673494 0.739193 0
    outer loop
      vertex 27.801 29.2391 0
      vertex 27.801 29.2391 10
      vertex 28.6786 30.0387 10
    endloop
  endfacet
  facet normal -0.36102 0.932558 0
    outer loop
      vertex 27.7 29.2 0
      vertex 27.801 29.2391 10
      vertex 27.801 29.2391 0
    endloop
  endfacet
  facet normal -0.36102 0.932558 0
    outer loop
      vertex 27.7 29.2 0
      vertex 27.7 29.2 10
      vertex 27.801 29.2391 10
    endloop
  endfacet
  facet normal 0 1 0
    outer loop
      vertex 26.93 29.2 0
      vertex 27.7 29.2 10
      vertex 27.7 29.2 0
    endloop
  endfacet
  facet normal 0 1 0
    outer loop
      vertex 26.93 29.2 0
      vertex 26.93 29.2 10
      vertex 27.7 29.2 10
    endloop
  endfacet
  facet normal 0.181629 0.983367 0
    outer loop
      vertex 26.8764 29.2099 0
      vertex 26.93 29.2 10
      vertex 26.93 29.2 0
    endloop
  endfacet
  facet normal 0.181629 0.983367 -0
    outer loop
      vertex 26.8764 29.2099 0
      vertex 26.8764 29.2099 10
      vertex 26.93 29.2 10
    endloop
  endfacet
  facet normal 0.356985 0.93411 0
    outer loop
      vertex 25.3344 29.7992 0
      vertex 26.8764 29.2099 10
      vertex 26.8764 29.2099 0
    endloop
  endfacet
  facet normal 0.356985 0.93411 -0
    outer loop
      vertex 25.3344 29.7992 0
      vertex 25.3344 29.7992 10
      vertex 26.8764 29.2099 10
    endloop
  endfacet
  facet normal -0.0288436 0.999584 0
    outer loop
      vertex 23.3036 29.7406 0
      vertex 25.3344 29.7992 10
      vertex 25.3344 29.7992 0
    endloop
  endfacet
  facet normal -0.0288436 0.999584 0
    outer loop
      vertex 23.3036 29.7406 0
      vertex 23.3036 29.7406 10
      vertex 25.3344 29.7992 10
    endloop
  endfacet
  facet normal -0.279919 0.960024 0
    outer loop
      vertex 22.3968 29.4762 0
      vertex 23.3036 29.7406 10
      vertex 23.3036 29.7406 0
    endloop
  endfacet
  facet normal -0.279919 0.960024 0
    outer loop
      vertex 22.3968 29.4762 0
      vertex 22.3968 29.4762 10
      vertex 23.3036 29.7406 10
    endloop
  endfacet
  facet normal -0.68779 0.725909 0
    outer loop
      vertex 21.4732 28.6011 0
      vertex 22.3968 29.4762 10
      vertex 22.3968 29.4762 0
    endloop
  endfacet
  facet normal -0.68779 0.725909 0
    outer loop
      vertex 21.4732 28.6011 0
      vertex 21.4732 28.6011 10
      vertex 22.3968 29.4762 10
    endloop
  endfacet
  facet normal -0.316228 0.948683 0
    outer loop
      vertex 21.3529 28.561 0
      vertex 21.4732 28.6011 10
      vertex 21.4732 28.6011 0
    endloop
  endfacet
  facet normal -0.316228 0.948683 0
    outer loop
      vertex 21.3529 28.561 0
      vertex 21.3529 28.561 10
      vertex 21.4732 28.6011 10
    endloop
  endfacet
  facet normal 0.113838 0.993499 0
    outer loop
      vertex 19.4329 28.781 0
      vertex 21.3529 28.561 10
      vertex 21.3529 28.561 0
    endloop
  endfacet
  facet normal 0.113838 0.993499 -0
    outer loop
      vertex 19.4329 28.781 0
      vertex 19.4329 28.781 10
      vertex 21.3529 28.561 10
    endloop
  endfacet
  facet normal 0.319084 0.947727 0
    outer loop
      vertex 19.3732 28.8011 0
      vertex 19.4329 28.781 10
      vertex 19.4329 28.781 0
    endloop
  endfacet
  facet normal 0.319084 0.947727 -0
    outer loop
      vertex 19.3732 28.8011 0
      vertex 19.3732 28.8011 10
      vertex 19.4329 28.781 10
    endloop
  endfacet
  facet normal 0.51192 0.859033 0
    outer loop
      vertex 17.9351 29.6581 0
      vertex 19.3732 28.8011 10
      vertex 19.3732 28.8011 0
    endloop
  endfacet
  facet normal 0.51192 0.859033 -0
    outer loop
      vertex 17.9351 29.6581 0
      vertex 17.9351 29.6581 10
      vertex 19.3732 28.8011 10
    endloop
  endfacet
  facet normal 0.199291 0.97994 0
    outer loop
      vertex 17.4129 29.7643 0
      vertex 17.9351 29.6581 10
      vertex 17.9351 29.6581 0
    endloop
  endfacet
  facet normal 0.199291 0.97994 -0
    outer loop
      vertex 17.4129 29.7643 0
      vertex 17.4129 29.7643 10
      vertex 17.9351 29.6581 10
    endloop
  endfacet
  facet normal -0.358389 0.933572 0
    outer loop
      vertex 15.4738 29.0199 0
      vertex 17.4129 29.7643 10
      vertex 17.4129 29.7643 0
    endloop
  endfacet
  facet normal -0.358389 0.933572 0
    outer loop
      vertex 15.4738 29.0199 0
      vertex 15.4738 29.0199 10
      vertex 17.4129 29.7643 10
    endloop
  endfacet
  facet normal 0.218078 0.975931 0
    outer loop
      vertex 15.3118 29.0561 0
      vertex 15.4738 29.0199 10
      vertex 15.4738 29.0199 0
    endloop
  endfacet
  facet normal 0.218078 0.975931 -0
    outer loop
      vertex 15.3118 29.0561 0
      vertex 15.3118 29.0561 10
      vertex 15.4738 29.0199 10
    endloop
  endfacet
  facet normal 0.721585 0.692326 0
    outer loop
      vertex 13.9205 30.5062 0
      vertex 15.3118 29.0561 10
      vertex 15.3118 29.0561 0
    endloop
  endfacet
  facet normal 0.721585 0.692326 -0
    outer loop
      vertex 13.9205 30.5062 0
      vertex 13.9205 30.5062 10
      vertex 15.3118 29.0561 10
    endloop
  endfacet
  facet normal 0.262663 0.964888 0
    outer loop
      vertex 12.1958 30.9757 0
      vertex 13.9205 30.5062 10
      vertex 13.9205 30.5062 0
    endloop
  endfacet
  facet normal 0.262663 0.964888 -0
    outer loop
      vertex 12.1958 30.9757 0
      vertex 12.1958 30.9757 10
      vertex 13.9205 30.5062 10
    endloop
  endfacet
  facet normal -0.210377 0.97762 0
    outer loop
      vertex 9.89229 30.48 0
      vertex 12.1958 30.9757 10
      vertex 12.1958 30.9757 0
    endloop
  endfacet
  facet normal -0.210377 0.97762 0
    outer loop
      vertex 9.89229 30.48 0
      vertex 9.89229 30.48 10
      vertex 12.1958 30.9757 10
    endloop
  endfacet
  facet normal -0.585033 0.81101 0
    outer loop
      vertex 9.35539 30.0927 0
      vertex 9.89229 30.48 10
      vertex 9.89229 30.48 0
    endloop
  endfacet
  facet normal -0.585033 0.81101 0
    outer loop
      vertex 9.35539 30.0927 0
      vertex 9.35539 30.0927 10
      vertex 9.89229 30.48 10
    endloop
  endfacet
  facet normal -0.980266 0.197681 0
    outer loop
      vertex 9.12703 28.9603 0
      vertex 9.35539 30.0927 10
      vertex 9.35539 30.0927 0
    endloop
  endfacet
  facet normal -0.980266 0.197681 0
    outer loop
      vertex 9.12703 28.9603 0
      vertex 9.12703 28.9603 10
      vertex 9.35539 30.0927 10
    endloop
  endfacet
  facet normal -0.886431 0.462861 0
    outer loop
      vertex 9.08839 28.8863 0
      vertex 9.12703 28.9603 10
      vertex 9.12703 28.9603 0
    endloop
  endfacet
  facet normal -0.886431 0.462861 0
    outer loop
      vertex 9.08839 28.8863 0
      vertex 9.08839 28.8863 10
      vertex 9.12703 28.9603 10
    endloop
  endfacet
  facet normal -0.722655 0.691209 0
    outer loop
      vertex 8.25137 28.0112 0
      vertex 9.08839 28.8863 10
      vertex 9.08839 28.8863 0
    endloop
  endfacet
  facet normal -0.722655 0.691209 0
    outer loop
      vertex 8.25137 28.0112 0
      vertex 8.25137 28.0112 10
      vertex 9.08839 28.8863 10
    endloop
  endfacet
  facet normal -0.999739 -0.0228581 0
    outer loop
      vertex 8.28996 26.3234 0
      vertex 8.25137 28.0112 10
      vertex 8.25137 28.0112 0
    endloop
  endfacet
  facet normal -0.999739 -0.0228581 0
    outer loop
      vertex 8.28996 26.3234 0
      vertex 8.28996 26.3234 10
      vertex 8.25137 28.0112 10
    endloop
  endfacet
  facet normal -0.978395 0.206744 0
    outer loop
      vertex 8.27576 26.2562 0
      vertex 8.28996 26.3234 10
      vertex 8.28996 26.3234 0
    endloop
  endfacet
  facet normal -0.978395 0.206744 0
    outer loop
      vertex 8.27576 26.2562 0
      vertex 8.27576 26.2562 10
      vertex 8.28996 26.3234 10
    endloop
  endfacet
  facet normal -0.905075 0.425251 0
    outer loop
      vertex 7.92323 25.5059 0
      vertex 8.27576 26.2562 10
      vertex 8.27576 26.2562 0
    endloop
  endfacet
  facet normal -0.905075 0.425251 0
    outer loop
      vertex 7.92323 25.5059 0
      vertex 7.92323 25.5059 10
      vertex 8.27576 26.2562 10
    endloop
  endfacet
  facet normal -0.812172 -0.583418 0
    outer loop
      vertex 8.38182 24.8675 0
      vertex 7.92323 25.5059 10
      vertex 7.92323 25.5059 0
    endloop
  endfacet
  facet normal -0.812172 -0.583418 0
    outer loop
      vertex 8.38182 24.8675 0
      vertex 8.38182 24.8675 10
      vertex 7.92323 25.5059 10
    endloop
  endfacet
  facet normal -0.905906 -0.423479 0
    outer loop
      vertex 8.40524 24.8174 0
      vertex 8.38182 24.8675 10
      vertex 8.38182 24.8675 0
    endloop
  endfacet
  facet normal -0.905906 -0.423479 0
    outer loop
      vertex 8.40524 24.8174 0
      vertex 8.40524 24.8174 10
      vertex 8.38182 24.8675 10
    endloop
  endfacet
  facet normal -0.968355 -0.249576 0
    outer loop
      vertex 8.65524 23.8474 0
      vertex 8.40524 24.8174 10
      vertex 8.40524 24.8174 0
    endloop
  endfacet
  facet normal -0.968355 -0.249576 0
    outer loop
      vertex 8.65524 23.8474 0
      vertex 8.65524 23.8474 10
      vertex 8.40524 24.8174 10
    endloop
  endfacet
  facet normal -0.999671 -0.0256592 0
    outer loop
      vertex 8.65697 23.78 0
      vertex 8.65524 23.8474 10
      vertex 8.65524 23.8474 0
    endloop
  endfacet
  facet normal -0.999671 -0.0256592 0
    outer loop
      vertex 8.65697 23.78 0
      vertex 8.65697 23.78 10
      vertex 8.65524 23.8474 10
    endloop
  endfacet
  facet normal -0.9798 0.199979 0
    outer loop
      vertex 8.55696 23.29 0
      vertex 8.65697 23.78 10
      vertex 8.65697 23.78 0
    endloop
  endfacet
  facet normal -0.9798 0.199979 0
    outer loop
      vertex 8.55696 23.29 0
      vertex 8.55696 23.29 10
      vertex 8.65697 23.78 10
    endloop
  endfacet
  facet normal -0.787343 0.616516 0
    outer loop
      vertex 8.47435 23.1845 0
      vertex 8.55696 23.29 10
      vertex 8.55696 23.29 0
    endloop
  endfacet
  facet normal -0.787343 0.616516 0
    outer loop
      vertex 8.47435 23.1845 0
      vertex 8.47435 23.1845 10
      vertex 8.55696 23.29 10
    endloop
  endfacet
  facet normal -0.429089 0.903262 0
    outer loop
      vertex 8.1588 23.0346 0
      vertex 8.47435 23.1845 10
      vertex 8.47435 23.1845 0
    endloop
  endfacet
  facet normal -0.429089 0.903262 0
    outer loop
      vertex 8.1588 23.0346 0
      vertex 8.1588 23.0346 10
      vertex 8.47435 23.1845 10
    endloop
  endfacet
  facet normal -0.999918 0.0128322 0
    outer loop
      vertex 8.14999 22.3481 0
      vertex 8.1588 23.0346 10
      vertex 8.1588 23.0346 0
    endloop
  endfacet
  facet normal -0.999918 0.0128322 0
    outer loop
      vertex 8.14999 22.3481 0
      vertex 8.14999 22.3481 10
      vertex 8.1588 23.0346 10
    endloop
  endfacet
  facet normal -0.903247 0.429122 0
    outer loop
      vertex 8.09621 22.2349 0
      vertex 8.14999 22.3481 10
      vertex 8.14999 22.3481 0
    endloop
  endfacet
  facet normal -0.903247 0.429122 0
    outer loop
      vertex 8.09621 22.2349 0
      vertex 8.09621 22.2349 10
      vertex 8.14999 22.3481 10
    endloop
  endfacet
  facet normal -0.641405 0.767202 0
    outer loop
      vertex 7.51549 21.7494 0
      vertex 8.09621 22.2349 10
      vertex 8.09621 22.2349 0
    endloop
  endfacet
  facet normal -0.641405 0.767202 0
    outer loop
      vertex 7.51549 21.7494 0
      vertex 7.51549 21.7494 10
      vertex 8.09621 22.2349 10
    endloop
  endfacet
  facet normal -0.9301 0.367306 0
    outer loop
      vertex 6.9095 20.2149 0
      vertex 7.51549 21.7494 10
      vertex 7.51549 21.7494 0
    endloop
  endfacet
  facet normal -0.9301 0.367306 0
    outer loop
      vertex 6.9095 20.2149 0
      vertex 6.9095 20.2149 10
      vertex 7.51549 21.7494 10
    endloop
  endfacet
  facet normal -0.616021 0.78773 0
    outer loop
      vertex 6.78981 20.1213 0
      vertex 6.9095 20.2149 10
      vertex 6.9095 20.2149 0
    endloop
  endfacet
  facet normal -0.616021 0.78773 0
    outer loop
      vertex 6.78981 20.1213 0
      vertex 6.78981 20.1213 10
      vertex 6.9095 20.2149 10
    endloop
  endfacet
  facet normal -0.132158 0.991229 0
    outer loop
      vertex 6.31654 20.0582 0
      vertex 6.78981 20.1213 10
      vertex 6.78981 20.1213 0
    endloop
  endfacet
  facet normal -0.132158 0.991229 0
    outer loop
      vertex 6.31654 20.0582 0
      vertex 6.31654 20.0582 10
      vertex 6.78981 20.1213 10
    endloop
  endfacet
  facet normal -0.999646 0.0266133 0
    outer loop
      vertex 6.16425 14.3379 0
      vertex 6.31654 20.0582 10
      vertex 6.31654 20.0582 0
    endloop
  endfacet
  facet normal -0.999646 0.0266133 0
    outer loop
      vertex 6.16425 14.3379 0
      vertex 6.16425 14.3379 10
      vertex 6.31654 20.0582 10
    endloop
  endfacet
  facet normal 0.0499393 -0.998752 0
    outer loop
      vertex 7.33221 14.3963 0
      vertex 6.16425 14.3379 10
      vertex 6.16425 14.3379 0
    endloop
  endfacet
  facet normal 0.0499393 -0.998752 0
    outer loop
      vertex 7.33221 14.3963 0
      vertex 7.33221 14.3963 10
      vertex 6.16425 14.3379 10
    endloop
  endfacet
  facet normal 0.799974 -0.600034 0
    outer loop
      vertex 7.5 14.62 0
      vertex 7.33221 14.3963 10
      vertex 7.33221 14.3963 0
    endloop
  endfacet
  facet normal 0.799974 -0.600034 0
    outer loop
      vertex 7.5 14.62 0
      vertex 7.5 14.62 10
      vertex 7.33221 14.3963 10
    endloop
  endfacet
  facet normal 0.552998 -0.833183 0
    outer loop
      vertex 7.58362 14.6755 0
      vertex 7.5 14.62 10
      vertex 7.5 14.62 0
    endloop
  endfacet
  facet normal 0.552998 -0.833183 0
    outer loop
      vertex 7.58362 14.6755 0
      vertex 7.58362 14.6755 10
      vertex 7.5 14.62 10
    endloop
  endfacet
  facet normal 0.242536 -0.970143 0
    outer loop
      vertex 8.22362 14.8355 0
      vertex 7.58362 14.6755 10
      vertex 7.58362 14.6755 0
    endloop
  endfacet
  facet normal 0.242536 -0.970143 0
    outer loop
      vertex 8.22362 14.8355 0
      vertex 8.22362 14.8355 10
      vertex 7.58362 14.6755 10
    endloop
  endfacet
  facet normal -0.374263 -0.927322 0
    outer loop
      vertex 8.38715 14.7695 0
      vertex 8.22362 14.8355 10
      vertex 8.22362 14.8355 0
    endloop
  endfacet
  facet normal -0.374263 -0.927322 0
    outer loop
      vertex 8.38715 14.7695 0
      vertex 8.38715 14.7695 10
      vertex 8.22362 14.8355 10
    endloop
  endfacet
  facet normal -0.975944 0.218021 0
    outer loop
      vertex 8.34122 14.5639 0
      vertex 8.38715 14.7695 10
      vertex 8.38715 14.7695 0
    endloop
  endfacet
  facet normal -0.975944 0.218021 0
    outer loop
      vertex 8.34122 14.5639 0
      vertex 8.34122 14.5639 10
      vertex 8.38715 14.7695 10
    endloop
  endfacet
  facet normal -0.541647 0.840606 0
    outer loop
      vertex 8.1255 14.4249 0
      vertex 8.34122 14.5639 10
      vertex 8.34122 14.5639 0
    endloop
  endfacet
  facet normal -0.541647 0.840606 0
    outer loop
      vertex 8.1255 14.4249 0
      vertex 8.1255 14.4249 10
      vertex 8.34122 14.5639 10
    endloop
  endfacet
  facet normal -0.0776955 -0.996977 0
    outer loop
      vertex 9.86165 14.2896 0
      vertex 8.1255 14.4249 10
      vertex 8.1255 14.4249 0
    endloop
  endfacet
  facet normal -0.0776955 -0.996977 0
    outer loop
      vertex 9.86165 14.2896 0
      vertex 9.86165 14.2896 10
      vertex 8.1255 14.4249 10
    endloop
  endfacet
  facet normal -0.355207 -0.934788 0
    outer loop
      vertex 9.9406 14.2596 0
      vertex 9.86165 14.2896 10
      vertex 9.86165 14.2896 0
    endloop
  endfacet
  facet normal -0.355207 -0.934788 0
    outer loop
      vertex 9.9406 14.2596 0
      vertex 9.9406 14.2596 10
      vertex 9.86165 14.2896 10
    endloop
  endfacet
  facet normal -0.604019 -0.79697 0
    outer loop
      vertex 10.8906 13.5396 0
      vertex 9.9406 14.2596 10
      vertex 9.9406 14.2596 0
    endloop
  endfacet
  facet normal -0.604019 -0.79697 0
    outer loop
      vertex 10.8906 13.5396 0
      vertex 10.8906 13.5396 10
      vertex 9.9406 14.2596 10
    endloop
  endfacet
  facet normal -0.732793 -0.680451 0
    outer loop
      vertex 10.9257 13.5018 0
      vertex 10.8906 13.5396 10
      vertex 10.8906 13.5396 0
    endloop
  endfacet
  facet normal -0.732793 -0.680451 0
    outer loop
      vertex 10.9257 13.5018 0
      vertex 10.9257 13.5018 10
      vertex 10.8906 13.5396 10
    endloop
  endfacet
  facet normal -0.837989 -0.545687 0
    outer loop
      vertex 11.4249 12.7352 0
      vertex 10.9257 13.5018 10
      vertex 10.9257 13.5018 0
    endloop
  endfacet
  facet normal -0.837989 -0.545687 0
    outer loop
      vertex 11.4249 12.7352 0
      vertex 11.4249 12.7352 10
      vertex 10.9257 13.5018 10
    endloop
  endfacet
  facet normal 0.279951 -0.960014 0
    outer loop
      vertex 11.798 12.844 0
      vertex 11.4249 12.7352 10
      vertex 11.4249 12.7352 0
    endloop
  endfacet
  facet normal 0.279951 -0.960014 0
    outer loop
      vertex 11.798 12.844 0
      vertex 11.798 12.844 10
      vertex 11.4249 12.7352 10
    endloop
  endfacet
  facet normal -0.170541 -0.985351 0
    outer loop
      vertex 11.928 12.8215 0
      vertex 11.798 12.844 10
      vertex 11.798 12.844 0
    endloop
  endfacet
  facet normal -0.170541 -0.985351 0
    outer loop
      vertex 11.928 12.8215 0
      vertex 11.928 12.8215 10
      vertex 11.798 12.844 10
    endloop
  endfacet
  facet normal -0.58651 -0.809942 0
    outer loop
      vertex 12.218 12.6115 0
      vertex 11.928 12.8215 10
      vertex 11.928 12.8215 0
    endloop
  endfacet
  facet normal -0.58651 -0.809942 0
    outer loop
      vertex 12.218 12.6115 0
      vertex 12.218 12.6115 10
      vertex 11.928 12.8215 10
    endloop
  endfacet
  facet normal -0.95065 -0.310266 0
    outer loop
      vertex 12.2727 12.4439 0
      vertex 12.218 12.6115 10
      vertex 12.218 12.6115 0
    endloop
  endfacet
  facet normal -0.95065 -0.310266 0
    outer loop
      vertex 12.2727 12.4439 0
      vertex 12.2727 12.4439 10
      vertex 12.218 12.6115 10
    endloop
  endfacet
  facet normal -0.69778 0.716312 0
    outer loop
      vertex 12.1722 12.346 0
      vertex 12.2727 12.4439 10
      vertex 12.2727 12.4439 0
    endloop
  endfacet
  facet normal -0.69778 0.716312 0
    outer loop
      vertex 12.1722 12.346 0
      vertex 12.1722 12.346 10
      vertex 12.2727 12.4439 10
    endloop
  endfacet
  facet normal -0.281051 0.959693 0
    outer loop
      vertex 11.8881 12.2628 0
      vertex 12.1722 12.346 10
      vertex 12.1722 12.346 0
    endloop
  endfacet
  facet normal -0.281051 0.959693 0
    outer loop
      vertex 11.8881 12.2628 0
      vertex 11.8881 12.2628 10
      vertex 12.1722 12.346 10
    endloop
  endfacet
  facet normal -0.581083 -0.813844 0
    outer loop
      vertex 11.9874 12.1919 0
      vertex 11.8881 12.2628 10
      vertex 11.8881 12.2628 0
    endloop
  endfacet
  facet normal -0.581083 -0.813844 0
    outer loop
      vertex 11.9874 12.1919 0
      vertex 11.9874 12.1919 10
      vertex 11.8881 12.2628 10
    endloop
  endfacet
  facet normal 0.406138 -0.913812 0
    outer loop
      vertex 12.2691 12.3171 0
      vertex 11.9874 12.1919 10
      vertex 11.9874 12.1919 0
    endloop
  endfacet
  facet normal 0.406138 -0.913812 0
    outer loop
      vertex 12.2691 12.3171 0
      vertex 12.2691 12.3171 10
      vertex 11.9874 12.1919 10
    endloop
  endfacet
  facet normal -0.208754 -0.977968 0
    outer loop
      vertex 12.4415 12.2803 0
      vertex 12.2691 12.3171 10
      vertex 12.2691 12.3171 0
    endloop
  endfacet
  facet normal -0.208754 -0.977968 0
    outer loop
      vertex 12.4415 12.2803 0
      vertex 12.4415 12.2803 10
      vertex 12.2691 12.3171 10
    endloop
  endfacet
  facet normal -0.99992 -0.0126444 0
    outer loop
      vertex 12.444 12.0826 0
      vertex 12.4415 12.2803 10
      vertex 12.4415 12.2803 0
    endloop
  endfacet
  facet normal -0.99992 -0.0126444 0
    outer loop
      vertex 12.444 12.0826 0
      vertex 12.444 12.0826 10
      vertex 12.4415 12.2803 10
    endloop
  endfacet
  facet normal -0.760401 0.649454 0
    outer loop
      vertex 12.1279 11.7125 0
      vertex 12.444 12.0826 10
      vertex 12.444 12.0826 0
    endloop
  endfacet
  facet normal -0.760401 0.649454 0
    outer loop
      vertex 12.1279 11.7125 0
      vertex 12.1279 11.7125 10
      vertex 12.444 12.0826 10
    endloop
  endfacet
  facet normal -0.676768 -0.736196 0
    outer loop
      vertex 12.2716 11.5804 0
      vertex 12.1279 11.7125 10
      vertex 12.1279 11.7125 0
    endloop
  endfacet
  facet normal -0.676768 -0.736196 0
    outer loop
      vertex 12.2716 11.5804 0
      vertex 12.2716 11.5804 10
      vertex 12.1279 11.7125 10
    endloop
  endfacet
  facet normal -0.98034 -0.197315 0
    outer loop
      vertex 12.3064 11.4075 0
      vertex 12.2716 11.5804 10
      vertex 12.2716 11.5804 0
    endloop
  endfacet
  facet normal -0.98034 -0.197315 0
    outer loop
      vertex 12.3064 11.4075 0
      vertex 12.3064 11.4075 10
      vertex 12.2716 11.5804 10
    endloop
  endfacet
  facet normal -0.651251 0.758863 0
    outer loop
      vertex 12.2112 11.3258 0
      vertex 12.3064 11.4075 10
      vertex 12.3064 11.4075 0
    endloop
  endfacet
  facet normal -0.651251 0.758863 0
    outer loop
      vertex 12.2112 11.3258 0
      vertex 12.2112 11.3258 10
      vertex 12.3064 11.4075 10
    endloop
  endfacet
  facet normal -0.275272 0.961366 0
    outer loop
      vertex 12.1651 11.3126 0
      vertex 12.2112 11.3258 10
      vertex 12.2112 11.3258 0
    endloop
  endfacet
  facet normal -0.275272 0.961366 0
    outer loop
      vertex 12.1651 11.3126 0
      vertex 12.1651 11.3126 10
      vertex 12.2112 11.3258 10
    endloop
  endfacet
  facet normal -0.918681 -0.395001 0
    outer loop
      vertex 12.5396 10.4416 0
      vertex 12.1651 11.3126 10
      vertex 12.1651 11.3126 0
    endloop
  endfacet
  facet normal -0.918681 -0.395001 0
    outer loop
      vertex 12.5396 10.4416 0
      vertex 12.5396 10.4416 10
      vertex 12.1651 11.3126 10
    endloop
  endfacet
  facet normal -0.538124 -0.842866 0
    outer loop
      vertex 13.6734 9.71773 0
      vertex 12.5396 10.4416 10
      vertex 12.5396 10.4416 0
    endloop
  endfacet
  facet normal -0.538124 -0.842866 0
    outer loop
      vertex 13.6734 9.71773 0
      vertex 13.6734 9.71773 10
      vertex 12.5396 10.4416 10
    endloop
  endfacet
  facet normal 0.846636 -0.532173 0
    outer loop
      vertex 13.813 9.93982 0
      vertex 13.6734 9.71773 10
      vertex 13.6734 9.71773 0
    endloop
  endfacet
  facet normal 0.846636 -0.532173 0
    outer loop
      vertex 13.813 9.93982 0
      vertex 13.813 9.93982 10
      vertex 13.6734 9.71773 10
    endloop
  endfacet
endsolid OpenSCAD_Model
