solid OpenSCAD_Model
  facet normal 0 0 -1
    outer loop
      vertex 379.193 -114.318 0
      vertex 379.186 -114.421 0
      vertex 378.67 -115.055 0
    endloop
  endfacet
  facet normal 0 0 -1
    outer loop
      vertex 378.595 -115.104 0
      vertex 376.993 -117.029 0
      vertex 373.882 -116.478 0
    endloop
  endfacet
  facet normal 0 0 -1
    outer loop
      vertex 380.443 -110.043 0
      vertex 380 -111.79 0
      vertex 379.885 -111.844 0
    endloop
  endfacet
  facet normal 0 0 -1
    outer loop
      vertex 378.595 -115.104 0
      vertex 379.193 -114.318 0
      vertex 378.67 -115.055 0
    endloop
  endfacet
  facet normal 0 0 -1
    outer loop
      vertex 378.67 -115.055 0
      vertex 379.186 -114.421 0
      vertex 379.315 -114.876 0
    endloop
  endfacet
  facet normal 0 0 -1
    outer loop
      vertex 383.885 -108.005 0
      vertex 383.602 -108.284 0
      vertex 383.372 -108.134 0
    endloop
  endfacet
  facet normal -0 0 -1
    outer loop
      vertex 380.08 -112.351 0
      vertex 379.193 -114.318 0
      vertex 379.873 -112.019 0
    endloop
  endfacet
  facet normal 0 -0 -1
    outer loop
      vertex 376.1 -108.833 0
      vertex 380.387 -109.876 0
      vertex 376.003 -108.98 0
    endloop
  endfacet
  facet normal 0 0 -1
    outer loop
      vertex 377.477 -107.814 0
      vertex 377.558 -107.702 0
      vertex 380.387 -109.876 0
    endloop
  endfacet
  facet normal 0 -0 -1
    outer loop
      vertex 380.443 -110.043 0
      vertex 380.534 -110.107 0
      vertex 380 -111.79 0
    endloop
  endfacet
  facet normal 0 0 -1
    outer loop
      vertex 377.558 -107.702 0
      vertex 378.635 -106.748 0
      vertex 380.458 -109.788 0
    endloop
  endfacet
  facet normal 0 -0 -1
    outer loop
      vertex 382.667 -99.9718 0
      vertex 384.554 -100.912 0
      vertex 382.256 -101.685 0
    endloop
  endfacet
  facet normal 0 0 -1
    outer loop
      vertex 380 -111.79 0
      vertex 380.534 -110.107 0
      vertex 380.206 -111.79 0
    endloop
  endfacet
  facet normal 0 -0 -1
    outer loop
      vertex 380.387 -109.876 0
      vertex 380.443 -110.043 0
      vertex 379.885 -111.844 0
    endloop
  endfacet
  facet normal 0 -0 -1
    outer loop
      vertex 386.648 -100.88 0
      vertex 386.697 -101.245 0
      vertex 386.334 -100.957 0
    endloop
  endfacet
  facet normal 0 0 -1
    outer loop
      vertex 379.541 -106.203 0
      vertex 380.069 -105.835 0
      vertex 382.191 -108.087 0
    endloop
  endfacet
  facet normal 0 0 -1
    outer loop
      vertex 380.458 -109.788 0
      vertex 382.191 -108.087 0
      vertex 382.168 -108.262 0
    endloop
  endfacet
  facet normal 0 0 -1
    outer loop
      vertex 380.458 -109.788 0
      vertex 382.168 -108.262 0
      vertex 382.417 -108.72 0
    endloop
  endfacet
  facet normal 0 0 -1
    outer loop
      vertex 384.773 -101.011 0
      vertex 386.718 -101.97 0
      vertex 386.787 -102.176 0
    endloop
  endfacet
  facet normal -0 0 -1
    outer loop
      vertex 383.372 -108.134 0
      vertex 383.18 -108.158 0
      vertex 383.414 -107.608 0
    endloop
  endfacet
  facet normal -0 0 -1
    outer loop
      vertex 383.885 -108.005 0
      vertex 383.372 -108.134 0
      vertex 383.414 -107.608 0
    endloop
  endfacet
  facet normal 0 0 -1
    outer loop
      vertex 382.399 -108.077 0
      vertex 383.18 -108.158 0
      vertex 382.87 -108.491 0
    endloop
  endfacet
  facet normal 0 0 -1
    outer loop
      vertex 384.445 -108.558 0
      vertex 383.632 -108.493 0
      vertex 383.978 -108.084 0
    endloop
  endfacet
  facet normal 0 -0 -1
    outer loop
      vertex 383.504 -106.976 0
      vertex 383.629 -107.102 0
      vertex 383.302 -107.338 0
    endloop
  endfacet
  facet normal -0 0 -1
    outer loop
      vertex 384.456 -108.222 0
      vertex 384.445 -108.558 0
      vertex 383.978 -108.084 0
    endloop
  endfacet
  facet normal 0 0 -1
    outer loop
      vertex 383.978 -108.084 0
      vertex 383.632 -108.493 0
      vertex 383.602 -108.284 0
    endloop
  endfacet
  facet normal 0 -0 -1
    outer loop
      vertex 383.885 -108.005 0
      vertex 383.978 -108.084 0
      vertex 383.602 -108.284 0
    endloop
  endfacet
  facet normal 0 0 -1
    outer loop
      vertex 384.773 -101.011 0
      vertex 386.787 -102.176 0
      vertex 384.83 -105.863 0
    endloop
  endfacet
  facet normal 0 -0 -1
    outer loop
      vertex 383.673 -107.566 0
      vertex 383.885 -108.005 0
      vertex 383.414 -107.608 0
    endloop
  endfacet
  facet normal -0 0 -1
    outer loop
      vertex 383.414 -107.608 0
      vertex 383.18 -108.158 0
      vertex 383.257 -107.529 0
    endloop
  endfacet
  facet normal 0 0 -1
    outer loop
      vertex 383.257 -107.529 0
      vertex 383.18 -108.158 0
      vertex 382.399 -108.077 0
    endloop
  endfacet
  facet normal 0 -0 -1
    outer loop
      vertex 386.334 -100.957 0
      vertex 386.687 -101.398 0
      vertex 386.163 -100.999 0
    endloop
  endfacet
  facet normal 0 0 -1
    outer loop
      vertex 383.302 -107.338 0
      vertex 383.257 -107.529 0
      vertex 382.399 -108.077 0
    endloop
  endfacet
  facet normal 0 0 -1
    outer loop
      vertex 382.191 -108.087 0
      vertex 383.302 -107.338 0
      vertex 382.399 -108.077 0
    endloop
  endfacet
  facet normal 0 0 -1
    outer loop
      vertex 383.526 -106.746 0
      vertex 383.504 -106.976 0
      vertex 383.302 -107.338 0
    endloop
  endfacet
  facet normal 0 0 -1
    outer loop
      vertex 382.191 -108.087 0
      vertex 383.526 -106.746 0
      vertex 383.302 -107.338 0
    endloop
  endfacet
  facet normal 0 -0 -1
    outer loop
      vertex 386.787 -102.176 0
      vertex 387.082 -102.314 0
      vertex 384.83 -105.863 0
    endloop
  endfacet
  facet normal 0 0 -1
    outer loop
      vertex 386.163 -100.999 0
      vertex 386.687 -101.398 0
      vertex 386.718 -101.97 0
    endloop
  endfacet
  facet normal -0 0 -1
    outer loop
      vertex 386.851 -101.719 0
      vertex 386.718 -101.97 0
      vertex 386.687 -101.398 0
    endloop
  endfacet
  facet normal 0 0 -1
    outer loop
      vertex 386.334 -100.957 0
      vertex 386.697 -101.245 0
      vertex 386.687 -101.398 0
    endloop
  endfacet
  facet normal 0 0 -1
    outer loop
      vertex 386.697 -101.245 0
      vertex 386.648 -100.88 0
      vertex 386.823 -100.901 0
    endloop
  endfacet
  facet normal 0 0 -1
    outer loop
      vertex 386.334 -100.957 0
      vertex 386.639 -100.669 0
      vertex 386.648 -100.88 0
    endloop
  endfacet
  facet normal 0 -0 -1
    outer loop
      vertex 386.823 -100.901 0
      vertex 387.003 -100.801 0
      vertex 386.697 -101.245 0
    endloop
  endfacet
  facet normal 0 -0 -1
    outer loop
      vertex 386.163 -100.999 0
      vertex 386.718 -101.97 0
      vertex 384.773 -101.011 0
    endloop
  endfacet
  facet normal 0 0 -1
    outer loop
      vertex 372.335 -111.575 0
      vertex 372.86 -111.144 0
      vertex 373.035 -111.286 0
    endloop
  endfacet
  facet normal 0 -0 -1
    outer loop
      vertex 386.077 -100.814 0
      vertex 386.163 -100.999 0
      vertex 384.773 -101.011 0
    endloop
  endfacet
  facet normal 0 -0 -1
    outer loop
      vertex 382.256 -101.685 0
      vertex 384.773 -101.011 0
      vertex 382.199 -101.771 0
    endloop
  endfacet
  facet normal 0 0 -1
    outer loop
      vertex 386.867 -100.238 0
      vertex 386.861 -100.214 0
      vertex 387.034 -100.234 0
    endloop
  endfacet
  facet normal 0 0 -1
    outer loop
      vertex 386.639 -100.669 0
      vertex 386.834 -100.367 0
      vertex 387.034 -100.234 0
    endloop
  endfacet
  facet normal 0 0 -1
    outer loop
      vertex 386.834 -100.367 0
      vertex 386.867 -100.238 0
      vertex 387.034 -100.234 0
    endloop
  endfacet
  facet normal 0 -0 -1
    outer loop
      vertex 384.554 -100.912 0
      vertex 384.773 -101.011 0
      vertex 382.256 -101.685 0
    endloop
  endfacet
  facet normal -0 0 -1
    outer loop
      vertex 386.639 -100.669 0
      vertex 386.334 -100.957 0
      vertex 386.834 -100.367 0
    endloop
  endfacet
  facet normal 0 0 -1
    outer loop
      vertex 386.289 -100.159 0
      vertex 386.077 -100.814 0
      vertex 384.773 -101.011 0
    endloop
  endfacet
  facet normal 0 0 -1
    outer loop
      vertex 382.667 -99.9718 0
      vertex 384.284 -99.692 0
      vertex 384.554 -100.912 0
    endloop
  endfacet
  facet normal 0 0 -1
    outer loop
      vertex 382.667 -99.9718 0
      vertex 383.693 -99.1948 0
      vertex 384.284 -99.692 0
    endloop
  endfacet
  facet normal 0 0 -1
    outer loop
      vertex 382.667 -99.9718 0
      vertex 383.642 -99.0553 0
      vertex 383.693 -99.1948 0
    endloop
  endfacet
  facet normal 0 -0 -1
    outer loop
      vertex 384.773 -101.011 0
      vertex 384.83 -105.863 0
      vertex 382.199 -101.771 0
    endloop
  endfacet
  facet normal 0 0 -1
    outer loop
      vertex 380.818 -104.318 0
      vertex 380.725 -104.198 0
      vertex 381.21 -102.5 0
    endloop
  endfacet
  facet normal 0 0 -1
    outer loop
      vertex 383.677 -98.8444 0
      vertex 383.642 -99.0553 0
      vertex 382.667 -99.9718 0
    endloop
  endfacet
  facet normal 0 0 -1
    outer loop
      vertex 382.199 -101.771 0
      vertex 380.818 -104.318 0
      vertex 381.21 -102.5 0
    endloop
  endfacet
  facet normal 0 -0 -1
    outer loop
      vertex 382.199 -101.771 0
      vertex 384.83 -105.863 0
      vertex 380.818 -104.318 0
    endloop
  endfacet
  facet normal 0 0 -1
    outer loop
      vertex 380.18 -105.698 0
      vertex 380.811 -104.51 0
      vertex 383.526 -106.746 0
    endloop
  endfacet
  facet normal 0 0 -1
    outer loop
      vertex 382.191 -108.087 0
      vertex 380.069 -105.835 0
      vertex 380.18 -105.698 0
    endloop
  endfacet
  facet normal 0 0 -1
    outer loop
      vertex 382.191 -108.087 0
      vertex 380.18 -105.698 0
      vertex 383.526 -106.746 0
    endloop
  endfacet
  facet normal 0 0 -1
    outer loop
      vertex 380.811 -104.51 0
      vertex 384.83 -105.863 0
      vertex 383.526 -106.746 0
    endloop
  endfacet
  facet normal 0 -0 -1
    outer loop
      vertex 380.818 -104.318 0
      vertex 384.83 -105.863 0
      vertex 380.811 -104.51 0
    endloop
  endfacet
  facet normal 0 -0 -1
    outer loop
      vertex 380.207 -105.181 0
      vertex 380.811 -104.51 0
      vertex 380.18 -105.698 0
    endloop
  endfacet
  facet normal 0 0 -1
    outer loop
      vertex 379.265 -106.402 0
      vertex 379.541 -106.203 0
      vertex 382.191 -108.087 0
    endloop
  endfacet
  facet normal 0 0 -1
    outer loop
      vertex 379.541 -106.203 0
      vertex 379.883 -105.719 0
      vertex 380.069 -105.835 0
    endloop
  endfacet
  facet normal 0 0 -1
    outer loop
      vertex 379.265 -106.402 0
      vertex 379.382 -106.277 0
      vertex 379.541 -106.203 0
    endloop
  endfacet
  facet normal 0 0 -1
    outer loop
      vertex 380.458 -109.788 0
      vertex 379.265 -106.402 0
      vertex 382.191 -108.087 0
    endloop
  endfacet
  facet normal 0 0 -1
    outer loop
      vertex 379.541 -106.203 0
      vertex 379.863 -105.621 0
      vertex 379.883 -105.719 0
    endloop
  endfacet
  facet normal 0 0 -1
    outer loop
      vertex 379.382 -106.277 0
      vertex 379.257 -106.226 0
      vertex 379.288 -106.217 0
    endloop
  endfacet
  facet normal -0 0 -1
    outer loop
      vertex 379.382 -106.277 0
      vertex 379.265 -106.402 0
      vertex 379.257 -106.226 0
    endloop
  endfacet
  facet normal 0 -0 -1
    outer loop
      vertex 379.211 -106.109 0
      vertex 379.257 -106.226 0
      vertex 379.176 -106.125 0
    endloop
  endfacet
  facet normal 0 0 -1
    outer loop
      vertex 378.79 -106.674 0
      vertex 379.076 -106.456 0
      vertex 379.265 -106.402 0
    endloop
  endfacet
  facet normal 0 0 -1
    outer loop
      vertex 378.771 -106.499 0
      vertex 378.684 -106.404 0
      vertex 378.809 -106.33 0
    endloop
  endfacet
  facet normal -0 0 -1
    outer loop
      vertex 379.288 -106.217 0
      vertex 379.257 -106.226 0
      vertex 379.211 -106.109 0
    endloop
  endfacet
  facet normal 0 0 -1
    outer loop
      vertex 378.79 -106.674 0
      vertex 378.771 -106.499 0
      vertex 379.076 -106.456 0
    endloop
  endfacet
  facet normal 0 0 -1
    outer loop
      vertex 380.458 -109.788 0
      vertex 378.79 -106.674 0
      vertex 379.265 -106.402 0
    endloop
  endfacet
  facet normal 0 0 -1
    outer loop
      vertex 380.458 -109.788 0
      vertex 378.635 -106.748 0
      vertex 378.79 -106.674 0
    endloop
  endfacet
  facet normal -0 0 -1
    outer loop
      vertex 378.635 -106.748 0
      vertex 377.601 -107.413 0
      vertex 378.358 -106.7 0
    endloop
  endfacet
  facet normal -0 0 -1
    outer loop
      vertex 379.076 -106.456 0
      vertex 378.771 -106.499 0
      vertex 378.809 -106.33 0
    endloop
  endfacet
  facet normal 0 -0 -1
    outer loop
      vertex 377.601 -107.413 0
      vertex 378.635 -106.748 0
      vertex 377.558 -107.702 0
    endloop
  endfacet
  facet normal -0 0 -1
    outer loop
      vertex 380.458 -109.788 0
      vertex 380.387 -109.876 0
      vertex 377.558 -107.702 0
    endloop
  endfacet
  facet normal 0 0 -1
    outer loop
      vertex 376.1 -108.833 0
      vertex 377.477 -107.814 0
      vertex 380.387 -109.876 0
    endloop
  endfacet
  facet normal 0 0 -1
    outer loop
      vertex 376.1 -108.833 0
      vertex 376.084 -108.51 0
      vertex 377.477 -107.814 0
    endloop
  endfacet
  facet normal 0 0 -1
    outer loop
      vertex 376.003 -108.98 0
      vertex 380.387 -109.876 0
      vertex 379.885 -111.844 0
    endloop
  endfacet
  facet normal 0 0 -1
    outer loop
      vertex 379.873 -112.019 0
      vertex 376.003 -108.98 0
      vertex 379.885 -111.844 0
    endloop
  endfacet
  facet normal 0 -0 -1
    outer loop
      vertex 376.003 -108.98 0
      vertex 379.193 -114.318 0
      vertex 375.216 -109.203 0
    endloop
  endfacet
  facet normal -0 0 -1
    outer loop
      vertex 379.873 -112.019 0
      vertex 379.193 -114.318 0
      vertex 376.003 -108.98 0
    endloop
  endfacet
  facet normal 0 -0 -1
    outer loop
      vertex 375.869 -108.966 0
      vertex 376.003 -108.98 0
      vertex 375.216 -109.203 0
    endloop
  endfacet
  facet normal 0 -0 -1
    outer loop
      vertex 375.216 -109.203 0
      vertex 379.193 -114.318 0
      vertex 375.153 -109.228 0
    endloop
  endfacet
  facet normal 0 0 -1
    outer loop
      vertex 375.216 -109.203 0
      vertex 375.704 -108.861 0
      vertex 375.869 -108.966 0
    endloop
  endfacet
  facet normal 0 0 -1
    outer loop
      vertex 375.153 -109.228 0
      vertex 373.276 -111.136 0
      vertex 374.425 -109.34 0
    endloop
  endfacet
  facet normal 0 0 -1
    outer loop
      vertex 374.425 -109.34 0
      vertex 373.276 -111.136 0
      vertex 373.174 -110.703 0
    endloop
  endfacet
  facet normal 0 -0 -1
    outer loop
      vertex 375.153 -109.228 0
      vertex 379.193 -114.318 0
      vertex 373.276 -111.136 0
    endloop
  endfacet
  facet normal 0 -0 -1
    outer loop
      vertex 373.276 -111.136 0
      vertex 379.193 -114.318 0
      vertex 373.208 -111.298 0
    endloop
  endfacet
  facet normal 0 0 -1
    outer loop
      vertex 373.208 -111.298 0
      vertex 379.193 -114.318 0
      vertex 378.595 -115.104 0
    endloop
  endfacet
  facet normal 0 0 -1
    outer loop
      vertex 371.719 -112.151 0
      vertex 372.007 -112.135 0
      vertex 371.829 -112.424 0
    endloop
  endfacet
  facet normal 0 0 -1
    outer loop
      vertex 372.3 -112.1 0
      vertex 373.208 -111.298 0
      vertex 373.746 -116.4 0
    endloop
  endfacet
  facet normal 0 -0 -1
    outer loop
      vertex 372.335 -111.575 0
      vertex 373.035 -111.286 0
      vertex 372.3 -112.1 0
    endloop
  endfacet
  facet normal 0 0 -1
    outer loop
      vertex 372.3 -112.1 0
      vertex 373.035 -111.286 0
      vertex 373.208 -111.298 0
    endloop
  endfacet
  facet normal 0 -0 -1
    outer loop
      vertex 371.769 -113.15 0
      vertex 372.418 -115.766 0
      vertex 371.604 -113.477 0
    endloop
  endfacet
  facet normal 0 0 -1
    outer loop
      vertex 371.829 -112.424 0
      vertex 372.007 -112.135 0
      vertex 372.187 -112.235 0
    endloop
  endfacet
  facet normal 0 0 -1
    outer loop
      vertex 371.769 -113.15 0
      vertex 372.187 -112.235 0
      vertex 372.3 -112.1 0
    endloop
  endfacet
  facet normal 0 0 -1
    outer loop
      vertex 371.327 -112.824 0
      vertex 371.641 -112.622 0
      vertex 371.685 -112.995 0
    endloop
  endfacet
  facet normal -0 0 -1
    outer loop
      vertex 372.007 -112.135 0
      vertex 371.719 -112.151 0
      vertex 371.947 -111.947 0
    endloop
  endfacet
  facet normal 0 0 -1
    outer loop
      vertex 371.787 -112.595 0
      vertex 371.829 -112.424 0
      vertex 372.187 -112.235 0
    endloop
  endfacet
  facet normal 0 0 -1
    outer loop
      vertex 371.322 -112.67 0
      vertex 371.44 -112.552 0
      vertex 371.641 -112.622 0
    endloop
  endfacet
  facet normal 0 0 -1
    outer loop
      vertex 371.685 -112.995 0
      vertex 371.787 -112.595 0
      vertex 371.769 -113.15 0
    endloop
  endfacet
  facet normal 0 0 -1
    outer loop
      vertex 371.604 -113.477 0
      vertex 371.555 -113.313 0
      vertex 371.671 -113.271 0
    endloop
  endfacet
  facet normal 0 0 -1
    outer loop
      vertex 371.327 -112.824 0
      vertex 371.322 -112.67 0
      vertex 371.641 -112.622 0
    endloop
  endfacet
  facet normal 0 0 -1
    outer loop
      vertex 371.769 -113.15 0
      vertex 371.787 -112.595 0
      vertex 372.187 -112.235 0
    endloop
  endfacet
  facet normal 0 0 -1
    outer loop
      vertex 371.685 -112.995 0
      vertex 371.641 -112.622 0
      vertex 371.787 -112.595 0
    endloop
  endfacet
  facet normal 0 0 -1
    outer loop
      vertex 371.769 -113.15 0
      vertex 373.746 -116.4 0
      vertex 372.418 -115.766 0
    endloop
  endfacet
  facet normal 0 0 -1
    outer loop
      vertex 371.604 -113.477 0
      vertex 371.671 -113.271 0
      vertex 371.769 -113.15 0
    endloop
  endfacet
  facet normal 0 0 -1
    outer loop
      vertex 371.06 -113.488 0
      vertex 371.393 -113.654 0
      vertex 371.079 -113.75 0
    endloop
  endfacet
  facet normal 0 0 -1
    outer loop
      vertex 370.996 -113.645 0
      vertex 371.06 -113.488 0
      vertex 371.079 -113.75 0
    endloop
  endfacet
  facet normal 0 -0 -1
    outer loop
      vertex 371.545 -113.643 0
      vertex 372.418 -115.766 0
      vertex 371.269 -114.487 0
    endloop
  endfacet
  facet normal 0 0 -1
    outer loop
      vertex 371.269 -114.487 0
      vertex 372.418 -115.766 0
      vertex 372.219 -115.751 0
    endloop
  endfacet
  facet normal 0 0 -1
    outer loop
      vertex 370.868 -115.113 0
      vertex 371.167 -114.612 0
      vertex 371.041 -115.149 0
    endloop
  endfacet
  facet normal 0 0 -1
    outer loop
      vertex 370.729 -113.775 0
      vertex 370.996 -113.645 0
      vertex 371.079 -113.75 0
    endloop
  endfacet
  facet normal 0 0 -1
    outer loop
      vertex 371.079 -113.75 0
      vertex 371.393 -113.654 0
      vertex 371.229 -113.844 0
    endloop
  endfacet
  facet normal 0 0 -1
    outer loop
      vertex 371.186 -114.015 0
      vertex 371.229 -113.844 0
      vertex 371.545 -113.643 0
    endloop
  endfacet
  facet normal 0 0 -1
    outer loop
      vertex 371.229 -113.844 0
      vertex 371.393 -113.654 0
      vertex 371.545 -113.643 0
    endloop
  endfacet
  facet normal 0 0 -1
    outer loop
      vertex 371.182 -114.334 0
      vertex 371.186 -114.015 0
      vertex 371.269 -114.487 0
    endloop
  endfacet
  facet normal 0 0 -1
    outer loop
      vertex 371.269 -114.487 0
      vertex 371.186 -114.015 0
      vertex 371.545 -113.643 0
    endloop
  endfacet
  facet normal 0 0 -1
    outer loop
      vertex 371.182 -114.334 0
      vertex 370.939 -114.222 0
      vertex 371.186 -114.015 0
    endloop
  endfacet
  facet normal 0 0 -1
    outer loop
      vertex 371.167 -114.612 0
      vertex 371.269 -114.487 0
      vertex 372.219 -115.751 0
    endloop
  endfacet
  facet normal 0 0 -1
    outer loop
      vertex 370.125 -115.044 0
      vertex 370.123 -114.958 0
      vertex 370.415 -114.905 0
    endloop
  endfacet
  facet normal -0 0 -1
    outer loop
      vertex 370.415 -114.905 0
      vertex 370.123 -114.958 0
      vertex 371.167 -114.612 0
    endloop
  endfacet
  facet normal 0 0 -1
    outer loop
      vertex 370.623 -115.085 0
      vertex 370.589 -114.936 0
      vertex 370.868 -115.113 0
    endloop
  endfacet
  facet normal 0 0 -1
    outer loop
      vertex 370.589 -114.936 0
      vertex 370.415 -114.905 0
      vertex 371.167 -114.612 0
    endloop
  endfacet
  facet normal 0 -0 -1
    outer loop
      vertex 370.623 -115.085 0
      vertex 370.868 -115.113 0
      vertex 370.573 -115.246 0
    endloop
  endfacet
  facet normal 0 0 -1
    outer loop
      vertex 370.868 -115.113 0
      vertex 370.589 -114.936 0
      vertex 371.167 -114.612 0
    endloop
  endfacet
  facet normal 0 0 -1
    outer loop
      vertex 371.062 -115.322 0
      vertex 372.219 -115.751 0
      vertex 371.886 -116.005 0
    endloop
  endfacet
  facet normal 0 0 -1
    outer loop
      vertex 371.041 -115.149 0
      vertex 371.167 -114.612 0
      vertex 372.219 -115.751 0
    endloop
  endfacet
  facet normal 0 0 -1
    outer loop
      vertex 371.062 -115.322 0
      vertex 371.041 -115.149 0
      vertex 372.219 -115.751 0
    endloop
  endfacet
  facet normal 0 0 -1
    outer loop
      vertex 371.886 -116.005 0
      vertex 370.75 -115.893 0
      vertex 371.062 -115.322 0
    endloop
  endfacet
  facet normal 0 0 -1
    outer loop
      vertex 371.545 -113.643 0
      vertex 371.604 -113.477 0
      vertex 372.418 -115.766 0
    endloop
  endfacet
  facet normal 0 0 -1
    outer loop
      vertex 373.042 -116.418 0
      vertex 372.418 -115.766 0
      vertex 373.746 -116.4 0
    endloop
  endfacet
  facet normal 0 0 -1
    outer loop
      vertex 371.769 -113.15 0
      vertex 372.3 -112.1 0
      vertex 373.746 -116.4 0
    endloop
  endfacet
  facet normal 0 0 -1
    outer loop
      vertex 373.882 -116.478 0
      vertex 373.208 -111.298 0
      vertex 378.595 -115.104 0
    endloop
  endfacet
  facet normal 0 0 -1
    outer loop
      vertex 373.746 -116.4 0
      vertex 373.208 -111.298 0
      vertex 373.882 -116.478 0
    endloop
  endfacet
  facet normal 0 0 -1
    outer loop
      vertex 376.299 -117.239 0
      vertex 373.882 -116.478 0
      vertex 376.993 -117.029 0
    endloop
  endfacet
  facet normal 0 0 -1
    outer loop
      vertex 376.299 -117.239 0
      vertex 374.27 -117.192 0
      vertex 373.882 -116.478 0
    endloop
  endfacet
  facet normal 0 0 1
    outer loop
      vertex 378.67 -115.055 10
      vertex 379.186 -114.421 10
      vertex 379.193 -114.318 10
    endloop
  endfacet
  facet normal -0 0 1
    outer loop
      vertex 373.882 -116.478 10
      vertex 376.993 -117.029 10
      vertex 378.595 -115.104 10
    endloop
  endfacet
  facet normal 0 0 1
    outer loop
      vertex 379.885 -111.844 10
      vertex 380 -111.79 10
      vertex 380.443 -110.043 10
    endloop
  endfacet
  facet normal 0 -0 1
    outer loop
      vertex 378.67 -115.055 10
      vertex 379.193 -114.318 10
      vertex 378.595 -115.104 10
    endloop
  endfacet
  facet normal 0 0 1
    outer loop
      vertex 379.315 -114.876 10
      vertex 379.186 -114.421 10
      vertex 378.67 -115.055 10
    endloop
  endfacet
  facet normal -0 0 1
    outer loop
      vertex 383.372 -108.134 10
      vertex 383.602 -108.284 10
      vertex 383.885 -108.005 10
    endloop
  endfacet
  facet normal 0 0 1
    outer loop
      vertex 379.873 -112.019 10
      vertex 379.193 -114.318 10
      vertex 380.08 -112.351 10
    endloop
  endfacet
  facet normal -0 0 1
    outer loop
      vertex 376.003 -108.98 10
      vertex 380.387 -109.876 10
      vertex 376.1 -108.833 10
    endloop
  endfacet
  facet normal 0 0 1
    outer loop
      vertex 380.387 -109.876 10
      vertex 377.558 -107.702 10
      vertex 377.477 -107.814 10
    endloop
  endfacet
  facet normal 0 0 1
    outer loop
      vertex 380 -111.79 10
      vertex 380.534 -110.107 10
      vertex 380.443 -110.043 10
    endloop
  endfacet
  facet normal 0 0 1
    outer loop
      vertex 380.458 -109.788 10
      vertex 378.635 -106.748 10
      vertex 377.558 -107.702 10
    endloop
  endfacet
  facet normal 0 0 1
    outer loop
      vertex 382.256 -101.685 10
      vertex 384.554 -100.912 10
      vertex 382.667 -99.9718 10
    endloop
  endfacet
  facet normal 0 -0 1
    outer loop
      vertex 380.206 -111.79 10
      vertex 380.534 -110.107 10
      vertex 380 -111.79 10
    endloop
  endfacet
  facet normal 0 0 1
    outer loop
      vertex 379.885 -111.844 10
      vertex 380.443 -110.043 10
      vertex 380.387 -109.876 10
    endloop
  endfacet
  facet normal -0 0 1
    outer loop
      vertex 386.334 -100.957 10
      vertex 386.697 -101.245 10
      vertex 386.648 -100.88 10
    endloop
  endfacet
  facet normal 0 0 1
    outer loop
      vertex 382.191 -108.087 10
      vertex 380.069 -105.835 10
      vertex 379.541 -106.203 10
    endloop
  endfacet
  facet normal 0 -0 1
    outer loop
      vertex 382.168 -108.262 10
      vertex 382.191 -108.087 10
      vertex 380.458 -109.788 10
    endloop
  endfacet
  facet normal 0 0 1
    outer loop
      vertex 382.417 -108.72 10
      vertex 382.168 -108.262 10
      vertex 380.458 -109.788 10
    endloop
  endfacet
  facet normal 0 0 1
    outer loop
      vertex 386.787 -102.176 10
      vertex 386.718 -101.97 10
      vertex 384.773 -101.011 10
    endloop
  endfacet
  facet normal 0 0 1
    outer loop
      vertex 383.414 -107.608 10
      vertex 383.18 -108.158 10
      vertex 383.372 -108.134 10
    endloop
  endfacet
  facet normal 0 0 1
    outer loop
      vertex 383.414 -107.608 10
      vertex 383.372 -108.134 10
      vertex 383.885 -108.005 10
    endloop
  endfacet
  facet normal 0 -0 1
    outer loop
      vertex 382.87 -108.491 10
      vertex 383.18 -108.158 10
      vertex 382.399 -108.077 10
    endloop
  endfacet
  facet normal 0 0 1
    outer loop
      vertex 383.978 -108.084 10
      vertex 383.632 -108.493 10
      vertex 384.445 -108.558 10
    endloop
  endfacet
  facet normal 0 0 1
    outer loop
      vertex 383.302 -107.338 10
      vertex 383.629 -107.102 10
      vertex 383.504 -106.976 10
    endloop
  endfacet
  facet normal 0 0 1
    outer loop
      vertex 383.978 -108.084 10
      vertex 384.445 -108.558 10
      vertex 384.456 -108.222 10
    endloop
  endfacet
  facet normal -0 0 1
    outer loop
      vertex 383.602 -108.284 10
      vertex 383.632 -108.493 10
      vertex 383.978 -108.084 10
    endloop
  endfacet
  facet normal 0 0 1
    outer loop
      vertex 383.602 -108.284 10
      vertex 383.978 -108.084 10
      vertex 383.885 -108.005 10
    endloop
  endfacet
  facet normal 0 -0 1
    outer loop
      vertex 384.83 -105.863 10
      vertex 386.787 -102.176 10
      vertex 384.773 -101.011 10
    endloop
  endfacet
  facet normal -0 0 1
    outer loop
      vertex 383.414 -107.608 10
      vertex 383.885 -108.005 10
      vertex 383.673 -107.566 10
    endloop
  endfacet
  facet normal 0 0 1
    outer loop
      vertex 383.257 -107.529 10
      vertex 383.18 -108.158 10
      vertex 383.414 -107.608 10
    endloop
  endfacet
  facet normal -0 0 1
    outer loop
      vertex 382.399 -108.077 10
      vertex 383.18 -108.158 10
      vertex 383.257 -107.529 10
    endloop
  endfacet
  facet normal -0 0 1
    outer loop
      vertex 386.163 -100.999 10
      vertex 386.687 -101.398 10
      vertex 386.334 -100.957 10
    endloop
  endfacet
  facet normal 0 0 1
    outer loop
      vertex 382.399 -108.077 10
      vertex 383.257 -107.529 10
      vertex 383.302 -107.338 10
    endloop
  endfacet
  facet normal 0 -0 1
    outer loop
      vertex 382.399 -108.077 10
      vertex 383.302 -107.338 10
      vertex 382.191 -108.087 10
    endloop
  endfacet
  facet normal 0 0 1
    outer loop
      vertex 383.302 -107.338 10
      vertex 383.504 -106.976 10
      vertex 383.526 -106.746 10
    endloop
  endfacet
  facet normal 0 -0 1
    outer loop
      vertex 383.302 -107.338 10
      vertex 383.526 -106.746 10
      vertex 382.191 -108.087 10
    endloop
  endfacet
  facet normal 0 0 1
    outer loop
      vertex 384.83 -105.863 10
      vertex 387.082 -102.314 10
      vertex 386.787 -102.176 10
    endloop
  endfacet
  facet normal 0 0 1
    outer loop
      vertex 386.718 -101.97 10
      vertex 386.687 -101.398 10
      vertex 386.163 -100.999 10
    endloop
  endfacet
  facet normal 0 0 1
    outer loop
      vertex 386.687 -101.398 10
      vertex 386.718 -101.97 10
      vertex 386.851 -101.719 10
    endloop
  endfacet
  facet normal 0 -0 1
    outer loop
      vertex 386.687 -101.398 10
      vertex 386.697 -101.245 10
      vertex 386.334 -100.957 10
    endloop
  endfacet
  facet normal 0 0 1
    outer loop
      vertex 386.823 -100.901 10
      vertex 386.648 -100.88 10
      vertex 386.697 -101.245 10
    endloop
  endfacet
  facet normal 0 0 1
    outer loop
      vertex 386.648 -100.88 10
      vertex 386.639 -100.669 10
      vertex 386.334 -100.957 10
    endloop
  endfacet
  facet normal 0 0 1
    outer loop
      vertex 386.697 -101.245 10
      vertex 387.003 -100.801 10
      vertex 386.823 -100.901 10
    endloop
  endfacet
  facet normal -0 0 1
    outer loop
      vertex 384.773 -101.011 10
      vertex 386.718 -101.97 10
      vertex 386.163 -100.999 10
    endloop
  endfacet
  facet normal 0 0 1
    outer loop
      vertex 373.035 -111.286 10
      vertex 372.86 -111.144 10
      vertex 372.335 -111.575 10
    endloop
  endfacet
  facet normal 0 0 1
    outer loop
      vertex 384.773 -101.011 10
      vertex 386.163 -100.999 10
      vertex 386.077 -100.814 10
    endloop
  endfacet
  facet normal 0 0 1
    outer loop
      vertex 382.199 -101.771 10
      vertex 384.773 -101.011 10
      vertex 382.256 -101.685 10
    endloop
  endfacet
  facet normal 0 0 1
    outer loop
      vertex 387.034 -100.234 10
      vertex 386.861 -100.214 10
      vertex 386.867 -100.238 10
    endloop
  endfacet
  facet normal 0 0 1
    outer loop
      vertex 387.034 -100.234 10
      vertex 386.834 -100.367 10
      vertex 386.639 -100.669 10
    endloop
  endfacet
  facet normal 0 0 1
    outer loop
      vertex 387.034 -100.234 10
      vertex 386.867 -100.238 10
      vertex 386.834 -100.367 10
    endloop
  endfacet
  facet normal 0 0 1
    outer loop
      vertex 382.256 -101.685 10
      vertex 384.773 -101.011 10
      vertex 384.554 -100.912 10
    endloop
  endfacet
  facet normal 0 0 1
    outer loop
      vertex 386.834 -100.367 10
      vertex 386.334 -100.957 10
      vertex 386.639 -100.669 10
    endloop
  endfacet
  facet normal 0 0 1
    outer loop
      vertex 384.773 -101.011 10
      vertex 386.077 -100.814 10
      vertex 386.289 -100.159 10
    endloop
  endfacet
  facet normal 0 0 1
    outer loop
      vertex 384.554 -100.912 10
      vertex 384.284 -99.692 10
      vertex 382.667 -99.9718 10
    endloop
  endfacet
  facet normal 0 0 1
    outer loop
      vertex 384.284 -99.692 10
      vertex 383.693 -99.1948 10
      vertex 382.667 -99.9718 10
    endloop
  endfacet
  facet normal 0 0 1
    outer loop
      vertex 383.693 -99.1948 10
      vertex 383.642 -99.0553 10
      vertex 382.667 -99.9718 10
    endloop
  endfacet
  facet normal -0 0 1
    outer loop
      vertex 382.199 -101.771 10
      vertex 384.83 -105.863 10
      vertex 384.773 -101.011 10
    endloop
  endfacet
  facet normal 0 0 1
    outer loop
      vertex 381.21 -102.5 10
      vertex 380.725 -104.198 10
      vertex 380.818 -104.318 10
    endloop
  endfacet
  facet normal 0 0 1
    outer loop
      vertex 382.667 -99.9718 10
      vertex 383.642 -99.0553 10
      vertex 383.677 -98.8444 10
    endloop
  endfacet
  facet normal -0 0 1
    outer loop
      vertex 381.21 -102.5 10
      vertex 380.818 -104.318 10
      vertex 382.199 -101.771 10
    endloop
  endfacet
  facet normal -0 0 1
    outer loop
      vertex 380.818 -104.318 10
      vertex 384.83 -105.863 10
      vertex 382.199 -101.771 10
    endloop
  endfacet
  facet normal 0 0 1
    outer loop
      vertex 383.526 -106.746 10
      vertex 380.811 -104.51 10
      vertex 380.18 -105.698 10
    endloop
  endfacet
  facet normal 0 0 1
    outer loop
      vertex 380.18 -105.698 10
      vertex 380.069 -105.835 10
      vertex 382.191 -108.087 10
    endloop
  endfacet
  facet normal 0 0 1
    outer loop
      vertex 383.526 -106.746 10
      vertex 380.18 -105.698 10
      vertex 382.191 -108.087 10
    endloop
  endfacet
  facet normal 0 -0 1
    outer loop
      vertex 383.526 -106.746 10
      vertex 384.83 -105.863 10
      vertex 380.811 -104.51 10
    endloop
  endfacet
  facet normal -0 0 1
    outer loop
      vertex 380.811 -104.51 10
      vertex 384.83 -105.863 10
      vertex 380.818 -104.318 10
    endloop
  endfacet
  facet normal 0 0 1
    outer loop
      vertex 380.18 -105.698 10
      vertex 380.811 -104.51 10
      vertex 380.207 -105.181 10
    endloop
  endfacet
  facet normal 0 0 1
    outer loop
      vertex 382.191 -108.087 10
      vertex 379.541 -106.203 10
      vertex 379.265 -106.402 10
    endloop
  endfacet
  facet normal 0 0 1
    outer loop
      vertex 380.069 -105.835 10
      vertex 379.883 -105.719 10
      vertex 379.541 -106.203 10
    endloop
  endfacet
  facet normal 0 0 1
    outer loop
      vertex 379.541 -106.203 10
      vertex 379.382 -106.277 10
      vertex 379.265 -106.402 10
    endloop
  endfacet
  facet normal 0 0 1
    outer loop
      vertex 382.191 -108.087 10
      vertex 379.265 -106.402 10
      vertex 380.458 -109.788 10
    endloop
  endfacet
  facet normal 0 0 1
    outer loop
      vertex 379.883 -105.719 10
      vertex 379.863 -105.621 10
      vertex 379.541 -106.203 10
    endloop
  endfacet
  facet normal 0 0 1
    outer loop
      vertex 379.288 -106.217 10
      vertex 379.257 -106.226 10
      vertex 379.382 -106.277 10
    endloop
  endfacet
  facet normal 0 0 1
    outer loop
      vertex 379.257 -106.226 10
      vertex 379.265 -106.402 10
      vertex 379.382 -106.277 10
    endloop
  endfacet
  facet normal -0 0 1
    outer loop
      vertex 379.176 -106.125 10
      vertex 379.257 -106.226 10
      vertex 379.211 -106.109 10
    endloop
  endfacet
  facet normal 0 0 1
    outer loop
      vertex 379.265 -106.402 10
      vertex 379.076 -106.456 10
      vertex 378.79 -106.674 10
    endloop
  endfacet
  facet normal 0 0 1
    outer loop
      vertex 378.809 -106.33 10
      vertex 378.684 -106.404 10
      vertex 378.771 -106.499 10
    endloop
  endfacet
  facet normal 0 0 1
    outer loop
      vertex 379.211 -106.109 10
      vertex 379.257 -106.226 10
      vertex 379.288 -106.217 10
    endloop
  endfacet
  facet normal 0 0 1
    outer loop
      vertex 379.076 -106.456 10
      vertex 378.771 -106.499 10
      vertex 378.79 -106.674 10
    endloop
  endfacet
  facet normal 0 0 1
    outer loop
      vertex 379.265 -106.402 10
      vertex 378.79 -106.674 10
      vertex 380.458 -109.788 10
    endloop
  endfacet
  facet normal 0 0 1
    outer loop
      vertex 378.79 -106.674 10
      vertex 378.635 -106.748 10
      vertex 380.458 -109.788 10
    endloop
  endfacet
  facet normal 0 0 1
    outer loop
      vertex 378.358 -106.7 10
      vertex 377.601 -107.413 10
      vertex 378.635 -106.748 10
    endloop
  endfacet
  facet normal 0 0 1
    outer loop
      vertex 378.809 -106.33 10
      vertex 378.771 -106.499 10
      vertex 379.076 -106.456 10
    endloop
  endfacet
  facet normal 0 0 1
    outer loop
      vertex 377.558 -107.702 10
      vertex 378.635 -106.748 10
      vertex 377.601 -107.413 10
    endloop
  endfacet
  facet normal 0 0 1
    outer loop
      vertex 377.558 -107.702 10
      vertex 380.387 -109.876 10
      vertex 380.458 -109.788 10
    endloop
  endfacet
  facet normal 0 0 1
    outer loop
      vertex 380.387 -109.876 10
      vertex 377.477 -107.814 10
      vertex 376.1 -108.833 10
    endloop
  endfacet
  facet normal 0 0 1
    outer loop
      vertex 377.477 -107.814 10
      vertex 376.084 -108.51 10
      vertex 376.1 -108.833 10
    endloop
  endfacet
  facet normal 0 -0 1
    outer loop
      vertex 379.885 -111.844 10
      vertex 380.387 -109.876 10
      vertex 376.003 -108.98 10
    endloop
  endfacet
  facet normal 0 0 1
    outer loop
      vertex 379.885 -111.844 10
      vertex 376.003 -108.98 10
      vertex 379.873 -112.019 10
    endloop
  endfacet
  facet normal -0 0 1
    outer loop
      vertex 375.216 -109.203 10
      vertex 379.193 -114.318 10
      vertex 376.003 -108.98 10
    endloop
  endfacet
  facet normal 0 0 1
    outer loop
      vertex 376.003 -108.98 10
      vertex 379.193 -114.318 10
      vertex 379.873 -112.019 10
    endloop
  endfacet
  facet normal 0 0 1
    outer loop
      vertex 375.216 -109.203 10
      vertex 376.003 -108.98 10
      vertex 375.869 -108.966 10
    endloop
  endfacet
  facet normal -0 0 1
    outer loop
      vertex 375.153 -109.228 10
      vertex 379.193 -114.318 10
      vertex 375.216 -109.203 10
    endloop
  endfacet
  facet normal 0 0 1
    outer loop
      vertex 375.869 -108.966 10
      vertex 375.704 -108.861 10
      vertex 375.216 -109.203 10
    endloop
  endfacet
  facet normal -0 0 1
    outer loop
      vertex 374.425 -109.34 10
      vertex 373.276 -111.136 10
      vertex 375.153 -109.228 10
    endloop
  endfacet
  facet normal -0 0 1
    outer loop
      vertex 373.174 -110.703 10
      vertex 373.276 -111.136 10
      vertex 374.425 -109.34 10
    endloop
  endfacet
  facet normal -0 0 1
    outer loop
      vertex 373.276 -111.136 10
      vertex 379.193 -114.318 10
      vertex 375.153 -109.228 10
    endloop
  endfacet
  facet normal -0 0 1
    outer loop
      vertex 373.208 -111.298 10
      vertex 379.193 -114.318 10
      vertex 373.276 -111.136 10
    endloop
  endfacet
  facet normal 0 -0 1
    outer loop
      vertex 378.595 -115.104 10
      vertex 379.193 -114.318 10
      vertex 373.208 -111.298 10
    endloop
  endfacet
  facet normal 0 -0 1
    outer loop
      vertex 371.829 -112.424 10
      vertex 372.007 -112.135 10
      vertex 371.719 -112.151 10
    endloop
  endfacet
  facet normal 0 0 1
    outer loop
      vertex 373.746 -116.4 10
      vertex 373.208 -111.298 10
      vertex 372.3 -112.1 10
    endloop
  endfacet
  facet normal 0 0 1
    outer loop
      vertex 372.3 -112.1 10
      vertex 373.035 -111.286 10
      vertex 372.335 -111.575 10
    endloop
  endfacet
  facet normal 0 0 1
    outer loop
      vertex 373.208 -111.298 10
      vertex 373.035 -111.286 10
      vertex 372.3 -112.1 10
    endloop
  endfacet
  facet normal -0 0 1
    outer loop
      vertex 371.604 -113.477 10
      vertex 372.418 -115.766 10
      vertex 371.769 -113.15 10
    endloop
  endfacet
  facet normal 0 0 1
    outer loop
      vertex 372.187 -112.235 10
      vertex 372.007 -112.135 10
      vertex 371.829 -112.424 10
    endloop
  endfacet
  facet normal 0 0 1
    outer loop
      vertex 372.3 -112.1 10
      vertex 372.187 -112.235 10
      vertex 371.769 -113.15 10
    endloop
  endfacet
  facet normal 0 0 1
    outer loop
      vertex 371.685 -112.995 10
      vertex 371.641 -112.622 10
      vertex 371.327 -112.824 10
    endloop
  endfacet
  facet normal 0 0 1
    outer loop
      vertex 371.947 -111.947 10
      vertex 371.719 -112.151 10
      vertex 372.007 -112.135 10
    endloop
  endfacet
  facet normal 0 0 1
    outer loop
      vertex 372.187 -112.235 10
      vertex 371.829 -112.424 10
      vertex 371.787 -112.595 10
    endloop
  endfacet
  facet normal 0 0 1
    outer loop
      vertex 371.641 -112.622 10
      vertex 371.44 -112.552 10
      vertex 371.322 -112.67 10
    endloop
  endfacet
  facet normal 0 -0 1
    outer loop
      vertex 371.769 -113.15 10
      vertex 371.787 -112.595 10
      vertex 371.685 -112.995 10
    endloop
  endfacet
  facet normal 0 0 1
    outer loop
      vertex 371.671 -113.271 10
      vertex 371.555 -113.313 10
      vertex 371.604 -113.477 10
    endloop
  endfacet
  facet normal 0 0 1
    outer loop
      vertex 371.641 -112.622 10
      vertex 371.322 -112.67 10
      vertex 371.327 -112.824 10
    endloop
  endfacet
  facet normal 0 0 1
    outer loop
      vertex 372.187 -112.235 10
      vertex 371.787 -112.595 10
      vertex 371.769 -113.15 10
    endloop
  endfacet
  facet normal 0 0 1
    outer loop
      vertex 371.787 -112.595 10
      vertex 371.641 -112.622 10
      vertex 371.685 -112.995 10
    endloop
  endfacet
  facet normal -0 -0 1
    outer loop
      vertex 372.418 -115.766 10
      vertex 373.746 -116.4 10
      vertex 371.769 -113.15 10
    endloop
  endfacet
  facet normal 0 0 1
    outer loop
      vertex 371.769 -113.15 10
      vertex 371.671 -113.271 10
      vertex 371.604 -113.477 10
    endloop
  endfacet
  facet normal 0 -0 1
    outer loop
      vertex 371.079 -113.75 10
      vertex 371.393 -113.654 10
      vertex 371.06 -113.488 10
    endloop
  endfacet
  facet normal 0 0 1
    outer loop
      vertex 371.079 -113.75 10
      vertex 371.06 -113.488 10
      vertex 370.996 -113.645 10
    endloop
  endfacet
  facet normal -0 0 1
    outer loop
      vertex 371.269 -114.487 10
      vertex 372.418 -115.766 10
      vertex 371.545 -113.643 10
    endloop
  endfacet
  facet normal -0 -0 1
    outer loop
      vertex 372.219 -115.751 10
      vertex 372.418 -115.766 10
      vertex 371.269 -114.487 10
    endloop
  endfacet
  facet normal 0 -0 1
    outer loop
      vertex 371.041 -115.149 10
      vertex 371.167 -114.612 10
      vertex 370.868 -115.113 10
    endloop
  endfacet
  facet normal 0 0 1
    outer loop
      vertex 371.079 -113.75 10
      vertex 370.996 -113.645 10
      vertex 370.729 -113.775 10
    endloop
  endfacet
  facet normal 0 -0 1
    outer loop
      vertex 371.229 -113.844 10
      vertex 371.393 -113.654 10
      vertex 371.079 -113.75 10
    endloop
  endfacet
  facet normal 0 0 1
    outer loop
      vertex 371.545 -113.643 10
      vertex 371.229 -113.844 10
      vertex 371.186 -114.015 10
    endloop
  endfacet
  facet normal 0 0 1
    outer loop
      vertex 371.545 -113.643 10
      vertex 371.393 -113.654 10
      vertex 371.229 -113.844 10
    endloop
  endfacet
  facet normal 0 0 1
    outer loop
      vertex 371.269 -114.487 10
      vertex 371.186 -114.015 10
      vertex 371.182 -114.334 10
    endloop
  endfacet
  facet normal 0 0 1
    outer loop
      vertex 371.545 -113.643 10
      vertex 371.186 -114.015 10
      vertex 371.269 -114.487 10
    endloop
  endfacet
  facet normal 0 0 1
    outer loop
      vertex 371.186 -114.015 10
      vertex 370.939 -114.222 10
      vertex 371.182 -114.334 10
    endloop
  endfacet
  facet normal 0 0 1
    outer loop
      vertex 372.219 -115.751 10
      vertex 371.269 -114.487 10
      vertex 371.167 -114.612 10
    endloop
  endfacet
  facet normal 0 0 1
    outer loop
      vertex 370.415 -114.905 10
      vertex 370.123 -114.958 10
      vertex 370.125 -115.044 10
    endloop
  endfacet
  facet normal 0 0 1
    outer loop
      vertex 371.167 -114.612 10
      vertex 370.123 -114.958 10
      vertex 370.415 -114.905 10
    endloop
  endfacet
  facet normal 0 0 1
    outer loop
      vertex 370.868 -115.113 10
      vertex 370.589 -114.936 10
      vertex 370.623 -115.085 10
    endloop
  endfacet
  facet normal 0 0 1
    outer loop
      vertex 371.167 -114.612 10
      vertex 370.415 -114.905 10
      vertex 370.589 -114.936 10
    endloop
  endfacet
  facet normal 0 0 1
    outer loop
      vertex 370.573 -115.246 10
      vertex 370.868 -115.113 10
      vertex 370.623 -115.085 10
    endloop
  endfacet
  facet normal 0 0 1
    outer loop
      vertex 371.167 -114.612 10
      vertex 370.589 -114.936 10
      vertex 370.868 -115.113 10
    endloop
  endfacet
  facet normal 0 -0 1
    outer loop
      vertex 371.886 -116.005 10
      vertex 372.219 -115.751 10
      vertex 371.062 -115.322 10
    endloop
  endfacet
  facet normal 0 0 1
    outer loop
      vertex 372.219 -115.751 10
      vertex 371.167 -114.612 10
      vertex 371.041 -115.149 10
    endloop
  endfacet
  facet normal 0 0 1
    outer loop
      vertex 372.219 -115.751 10
      vertex 371.041 -115.149 10
      vertex 371.062 -115.322 10
    endloop
  endfacet
  facet normal 0 0 1
    outer loop
      vertex 371.062 -115.322 10
      vertex 370.75 -115.893 10
      vertex 371.886 -116.005 10
    endloop
  endfacet
  facet normal 0 0 1
    outer loop
      vertex 372.418 -115.766 10
      vertex 371.604 -113.477 10
      vertex 371.545 -113.643 10
    endloop
  endfacet
  facet normal 0 0 1
    outer loop
      vertex 373.746 -116.4 10
      vertex 372.418 -115.766 10
      vertex 373.042 -116.418 10
    endloop
  endfacet
  facet normal 0 0 1
    outer loop
      vertex 373.746 -116.4 10
      vertex 372.3 -112.1 10
      vertex 371.769 -113.15 10
    endloop
  endfacet
  facet normal 0 0 1
    outer loop
      vertex 378.595 -115.104 10
      vertex 373.208 -111.298 10
      vertex 373.882 -116.478 10
    endloop
  endfacet
  facet normal 0 0 1
    outer loop
      vertex 373.882 -116.478 10
      vertex 373.208 -111.298 10
      vertex 373.746 -116.4 10
    endloop
  endfacet
  facet normal 0 0 1
    outer loop
      vertex 376.993 -117.029 10
      vertex 373.882 -116.478 10
      vertex 376.299 -117.239 10
    endloop
  endfacet
  facet normal 0 0 1
    outer loop
      vertex 373.882 -116.478 10
      vertex 374.27 -117.192 10
      vertex 376.299 -117.239 10
    endloop
  endfacet
  facet normal 0.768647 -0.639674 0
    outer loop
      vertex 378.595 -115.104 0
      vertex 376.993 -117.029 10
      vertex 376.993 -117.029 0
    endloop
  endfacet
  facet normal 0.768647 -0.639674 0
    outer loop
      vertex 378.595 -115.104 0
      vertex 378.595 -115.104 10
      vertex 376.993 -117.029 10
    endloop
  endfacet
  facet normal 0.546949 -0.837166 0
    outer loop
      vertex 378.67 -115.055 0
      vertex 378.595 -115.104 10
      vertex 378.595 -115.104 0
    endloop
  endfacet
  facet normal 0.546949 -0.837166 0
    outer loop
      vertex 378.67 -115.055 0
      vertex 378.67 -115.055 10
      vertex 378.595 -115.104 10
    endloop
  endfacet
  facet normal 0.267413 -0.963582 0
    outer loop
      vertex 379.315 -114.876 0
      vertex 378.67 -115.055 10
      vertex 378.67 -115.055 0
    endloop
  endfacet
  facet normal 0.267413 -0.963582 0
    outer loop
      vertex 379.315 -114.876 0
      vertex 379.315 -114.876 10
      vertex 378.67 -115.055 10
    endloop
  endfacet
  facet normal 0.96208 0.272766 0
    outer loop
      vertex 379.186 -114.421 0
      vertex 379.315 -114.876 10
      vertex 379.315 -114.876 0
    endloop
  endfacet
  facet normal 0.96208 0.272766 -0
    outer loop
      vertex 379.186 -114.421 0
      vertex 379.186 -114.421 10
      vertex 379.315 -114.876 10
    endloop
  endfacet
  facet normal 0.997699 -0.0678048 0
    outer loop
      vertex 379.193 -114.318 0
      vertex 379.186 -114.421 10
      vertex 379.186 -114.421 0
    endloop
  endfacet
  facet normal 0.997699 -0.0678048 0
    outer loop
      vertex 379.193 -114.318 0
      vertex 379.193 -114.318 10
      vertex 379.186 -114.421 10
    endloop
  endfacet
  facet normal 0.9116 -0.411078 0
    outer loop
      vertex 380.08 -112.351 0
      vertex 379.193 -114.318 10
      vertex 379.193 -114.318 0
    endloop
  endfacet
  facet normal 0.9116 -0.411078 0
    outer loop
      vertex 380.08 -112.351 0
      vertex 380.08 -112.351 10
      vertex 379.193 -114.318 10
    endloop
  endfacet
  facet normal 0.848572 0.52908 0
    outer loop
      vertex 379.873 -112.019 0
      vertex 380.08 -112.351 10
      vertex 380.08 -112.351 0
    endloop
  endfacet
  facet normal 0.848572 0.52908 -0
    outer loop
      vertex 379.873 -112.019 0
      vertex 379.873 -112.019 10
      vertex 380.08 -112.351 10
    endloop
  endfacet
  facet normal 0.997657 -0.0684108 0
    outer loop
      vertex 379.885 -111.844 0
      vertex 379.873 -112.019 10
      vertex 379.873 -112.019 0
    endloop
  endfacet
  facet normal 0.997657 -0.0684108 0
    outer loop
      vertex 379.885 -111.844 0
      vertex 379.885 -111.844 10
      vertex 379.873 -112.019 10
    endloop
  endfacet
  facet normal 0.425039 -0.905175 0
    outer loop
      vertex 380 -111.79 0
      vertex 379.885 -111.844 10
      vertex 379.885 -111.844 0
    endloop
  endfacet
  facet normal 0.425039 -0.905175 0
    outer loop
      vertex 380 -111.79 0
      vertex 380 -111.79 10
      vertex 379.885 -111.844 10
    endloop
  endfacet
  facet normal 0 -1 0
    outer loop
      vertex 380.206 -111.79 0
      vertex 380 -111.79 10
      vertex 380 -111.79 0
    endloop
  endfacet
  facet normal 0 -1 0
    outer loop
      vertex 380.206 -111.79 0
      vertex 380.206 -111.79 10
      vertex 380 -111.79 10
    endloop
  endfacet
  facet normal 0.981533 -0.191291 0
    outer loop
      vertex 380.534 -110.107 0
      vertex 380.206 -111.79 10
      vertex 380.206 -111.79 0
    endloop
  endfacet
  facet normal 0.981533 -0.191291 0
    outer loop
      vertex 380.534 -110.107 0
      vertex 380.534 -110.107 10
      vertex 380.206 -111.79 10
    endloop
  endfacet
  facet normal 0.575271 0.817963 0
    outer loop
      vertex 380.443 -110.043 0
      vertex 380.534 -110.107 10
      vertex 380.534 -110.107 0
    endloop
  endfacet
  facet normal 0.575271 0.817963 -0
    outer loop
      vertex 380.443 -110.043 0
      vertex 380.443 -110.043 10
      vertex 380.534 -110.107 10
    endloop
  endfacet
  facet normal 0.948114 0.31793 0
    outer loop
      vertex 380.387 -109.876 0
      vertex 380.443 -110.043 10
      vertex 380.443 -110.043 0
    endloop
  endfacet
  facet normal 0.948114 0.31793 -0
    outer loop
      vertex 380.387 -109.876 0
      vertex 380.387 -109.876 10
      vertex 380.443 -110.043 10
    endloop
  endfacet
  facet normal 0.778274 -0.627925 0
    outer loop
      vertex 380.458 -109.788 0
      vertex 380.387 -109.876 10
      vertex 380.387 -109.876 0
    endloop
  endfacet
  facet normal 0.778274 -0.627925 0
    outer loop
      vertex 380.458 -109.788 0
      vertex 380.458 -109.788 10
      vertex 380.387 -109.876 10
    endloop
  endfacet
  facet normal 0.478664 -0.877998 0
    outer loop
      vertex 382.417 -108.72 0
      vertex 380.458 -109.788 10
      vertex 380.458 -109.788 0
    endloop
  endfacet
  facet normal 0.478664 -0.877998 0
    outer loop
      vertex 382.417 -108.72 0
      vertex 382.417 -108.72 10
      vertex 380.458 -109.788 10
    endloop
  endfacet
  facet normal 0.878555 0.477642 0
    outer loop
      vertex 382.168 -108.262 0
      vertex 382.417 -108.72 10
      vertex 382.417 -108.72 0
    endloop
  endfacet
  facet normal 0.878555 0.477642 -0
    outer loop
      vertex 382.168 -108.262 0
      vertex 382.168 -108.262 10
      vertex 382.417 -108.72 10
    endloop
  endfacet
  facet normal 0.991474 -0.130308 0
    outer loop
      vertex 382.191 -108.087 0
      vertex 382.168 -108.262 10
      vertex 382.168 -108.262 0
    endloop
  endfacet
  facet normal 0.991474 -0.130308 0
    outer loop
      vertex 382.191 -108.087 0
      vertex 382.191 -108.087 10
      vertex 382.168 -108.262 10
    endloop
  endfacet
  facet normal 0.0480215 -0.998846 0
    outer loop
      vertex 382.399 -108.077 0
      vertex 382.191 -108.087 10
      vertex 382.191 -108.087 0
    endloop
  endfacet
  facet normal 0.0480215 -0.998846 0
    outer loop
      vertex 382.399 -108.077 0
      vertex 382.399 -108.077 10
      vertex 382.191 -108.087 10
    endloop
  endfacet
  facet normal -0.660196 -0.751093 0
    outer loop
      vertex 382.87 -108.491 0
      vertex 382.399 -108.077 10
      vertex 382.399 -108.077 0
    endloop
  endfacet
  facet normal -0.660196 -0.751093 0
    outer loop
      vertex 382.87 -108.491 0
      vertex 382.87 -108.491 10
      vertex 382.399 -108.077 10
    endloop
  endfacet
  facet normal 0.731932 -0.681378 0
    outer loop
      vertex 383.18 -108.158 0
      vertex 382.87 -108.491 10
      vertex 382.87 -108.491 0
    endloop
  endfacet
  facet normal 0.731932 -0.681378 0
    outer loop
      vertex 383.18 -108.158 0
      vertex 383.18 -108.158 10
      vertex 382.87 -108.491 10
    endloop
  endfacet
  facet normal 0.124035 -0.992278 0
    outer loop
      vertex 383.372 -108.134 0
      vertex 383.18 -108.158 10
      vertex 383.18 -108.158 0
    endloop
  endfacet
  facet normal 0.124035 -0.992278 0
    outer loop
      vertex 383.372 -108.134 0
      vertex 383.372 -108.134 10
      vertex 383.18 -108.158 10
    endloop
  endfacet
  facet normal -0.546268 -0.837611 0
    outer loop
      vertex 383.602 -108.284 0
      vertex 383.372 -108.134 10
      vertex 383.372 -108.134 0
    endloop
  endfacet
  facet normal -0.546268 -0.837611 0
    outer loop
      vertex 383.602 -108.284 0
      vertex 383.602 -108.284 10
      vertex 383.372 -108.134 10
    endloop
  endfacet
  facet normal -0.989855 -0.142084 0
    outer loop
      vertex 383.632 -108.493 0
      vertex 383.602 -108.284 10
      vertex 383.602 -108.284 0
    endloop
  endfacet
  facet normal -0.989855 -0.142084 0
    outer loop
      vertex 383.632 -108.493 0
      vertex 383.632 -108.493 10
      vertex 383.602 -108.284 10
    endloop
  endfacet
  facet normal -0.0796965 -0.996819 0
    outer loop
      vertex 384.445 -108.558 0
      vertex 383.632 -108.493 10
      vertex 383.632 -108.493 0
    endloop
  endfacet
  facet normal -0.0796965 -0.996819 0
    outer loop
      vertex 384.445 -108.558 0
      vertex 384.445 -108.558 10
      vertex 383.632 -108.493 10
    endloop
  endfacet
  facet normal 0.999465 -0.0327206 0
    outer loop
      vertex 384.456 -108.222 0
      vertex 384.445 -108.558 10
      vertex 384.445 -108.558 0
    endloop
  endfacet
  facet normal 0.999465 -0.0327206 0
    outer loop
      vertex 384.456 -108.222 0
      vertex 384.456 -108.222 10
      vertex 384.445 -108.558 10
    endloop
  endfacet
  facet normal 0.277375 0.960762 0
    outer loop
      vertex 383.978 -108.084 0
      vertex 384.456 -108.222 10
      vertex 384.456 -108.222 0
    endloop
  endfacet
  facet normal 0.277375 0.960762 -0
    outer loop
      vertex 383.978 -108.084 0
      vertex 383.978 -108.084 10
      vertex 384.456 -108.222 10
    endloop
  endfacet
  facet normal 0.647411 0.762141 0
    outer loop
      vertex 383.885 -108.005 0
      vertex 383.978 -108.084 10
      vertex 383.978 -108.084 0
    endloop
  endfacet
  facet normal 0.647411 0.762141 -0
    outer loop
      vertex 383.885 -108.005 0
      vertex 383.885 -108.005 10
      vertex 383.978 -108.084 10
    endloop
  endfacet
  facet normal 0.900496 0.434864 0
    outer loop
      vertex 383.673 -107.566 0
      vertex 383.885 -108.005 10
      vertex 383.885 -108.005 0
    endloop
  endfacet
  facet normal 0.900496 0.434864 -0
    outer loop
      vertex 383.673 -107.566 0
      vertex 383.673 -107.566 10
      vertex 383.885 -108.005 10
    endloop
  endfacet
  facet normal -0.160071 0.987105 0
    outer loop
      vertex 383.414 -107.608 0
      vertex 383.673 -107.566 10
      vertex 383.673 -107.566 0
    endloop
  endfacet
  facet normal -0.160071 0.987105 0
    outer loop
      vertex 383.414 -107.608 0
      vertex 383.414 -107.608 10
      vertex 383.673 -107.566 10
    endloop
  endfacet
  facet normal 0.449488 0.893286 0
    outer loop
      vertex 383.257 -107.529 0
      vertex 383.414 -107.608 10
      vertex 383.414 -107.608 0
    endloop
  endfacet
  facet normal 0.449488 0.893286 -0
    outer loop
      vertex 383.257 -107.529 0
      vertex 383.257 -107.529 10
      vertex 383.414 -107.608 10
    endloop
  endfacet
  facet normal 0.97335 -0.229323 0
    outer loop
      vertex 383.302 -107.338 0
      vertex 383.257 -107.529 10
      vertex 383.257 -107.529 0
    endloop
  endfacet
  facet normal 0.97335 -0.229323 0
    outer loop
      vertex 383.302 -107.338 0
      vertex 383.302 -107.338 10
      vertex 383.257 -107.529 10
    endloop
  endfacet
  facet normal 0.585219 -0.810875 0
    outer loop
      vertex 383.629 -107.102 0
      vertex 383.302 -107.338 10
      vertex 383.302 -107.338 0
    endloop
  endfacet
  facet normal 0.585219 -0.810875 0
    outer loop
      vertex 383.629 -107.102 0
      vertex 383.629 -107.102 10
      vertex 383.302 -107.338 10
    endloop
  endfacet
  facet normal 0.709918 0.704284 0
    outer loop
      vertex 383.504 -106.976 0
      vertex 383.629 -107.102 10
      vertex 383.629 -107.102 0
    endloop
  endfacet
  facet normal 0.709918 0.704284 -0
    outer loop
      vertex 383.504 -106.976 0
      vertex 383.504 -106.976 10
      vertex 383.629 -107.102 10
    endloop
  endfacet
  facet normal 0.995456 -0.0952176 0
    outer loop
      vertex 383.526 -106.746 0
      vertex 383.504 -106.976 10
      vertex 383.504 -106.976 0
    endloop
  endfacet
  facet normal 0.995456 -0.0952176 0
    outer loop
      vertex 383.526 -106.746 0
      vertex 383.526 -106.746 10
      vertex 383.504 -106.976 10
    endloop
  endfacet
  facet normal 0.560694 -0.828023 0
    outer loop
      vertex 384.83 -105.863 0
      vertex 383.526 -106.746 10
      vertex 383.526 -106.746 0
    endloop
  endfacet
  facet normal 0.560694 -0.828023 0
    outer loop
      vertex 384.83 -105.863 0
      vertex 384.83 -105.863 10
      vertex 383.526 -106.746 10
    endloop
  endfacet
  facet normal 0.844356 -0.535782 0
    outer loop
      vertex 387.082 -102.314 0
      vertex 384.83 -105.863 10
      vertex 384.83 -105.863 0
    endloop
  endfacet
  facet normal 0.844356 -0.535782 0
    outer loop
      vertex 387.082 -102.314 0
      vertex 387.082 -102.314 10
      vertex 384.83 -105.863 10
    endloop
  endfacet
  facet normal 0.423726 0.905791 0
    outer loop
      vertex 386.787 -102.176 0
      vertex 387.082 -102.314 10
      vertex 387.082 -102.314 0
    endloop
  endfacet
  facet normal 0.423726 0.905791 -0
    outer loop
      vertex 386.787 -102.176 0
      vertex 386.787 -102.176 10
      vertex 387.082 -102.314 10
    endloop
  endfacet
  facet normal 0.948222 0.317608 0
    outer loop
      vertex 386.718 -101.97 0
      vertex 386.787 -102.176 10
      vertex 386.787 -102.176 0
    endloop
  endfacet
  facet normal 0.948222 0.317608 -0
    outer loop
      vertex 386.718 -101.97 0
      vertex 386.718 -101.97 10
      vertex 386.787 -102.176 10
    endloop
  endfacet
  facet normal 0.883617 -0.468211 0
    outer loop
      vertex 386.851 -101.719 0
      vertex 386.718 -101.97 10
      vertex 386.718 -101.97 0
    endloop
  endfacet
  facet normal 0.883617 -0.468211 0
    outer loop
      vertex 386.851 -101.719 0
      vertex 386.851 -101.719 10
      vertex 386.718 -101.97 10
    endloop
  endfacet
  facet normal 0.89051 0.454964 0
    outer loop
      vertex 386.687 -101.398 0
      vertex 386.851 -101.719 10
      vertex 386.851 -101.719 0
    endloop
  endfacet
  facet normal 0.89051 0.454964 -0
    outer loop
      vertex 386.687 -101.398 0
      vertex 386.687 -101.398 10
      vertex 386.851 -101.719 10
    endloop
  endfacet
  facet normal 0.997871 -0.0652203 0
    outer loop
      vertex 386.697 -101.245 0
      vertex 386.687 -101.398 10
      vertex 386.687 -101.398 0
    endloop
  endfacet
  facet normal 0.997871 -0.0652203 0
    outer loop
      vertex 386.697 -101.245 0
      vertex 386.697 -101.245 10
      vertex 386.687 -101.398 10
    endloop
  endfacet
  facet normal 0.823392 -0.567473 0
    outer loop
      vertex 387.003 -100.801 0
      vertex 386.697 -101.245 10
      vertex 386.697 -101.245 0
    endloop
  endfacet
  facet normal 0.823392 -0.567473 0
    outer loop
      vertex 387.003 -100.801 0
      vertex 387.003 -100.801 10
      vertex 386.697 -101.245 10
    endloop
  endfacet
  facet normal -0.485643 0.874157 0
    outer loop
      vertex 386.823 -100.901 0
      vertex 387.003 -100.801 10
      vertex 387.003 -100.801 0
    endloop
  endfacet
  facet normal -0.485643 0.874157 0
    outer loop
      vertex 386.823 -100.901 0
      vertex 386.823 -100.901 10
      vertex 387.003 -100.801 10
    endloop
  endfacet
  facet normal 0.119145 0.992877 0
    outer loop
      vertex 386.648 -100.88 0
      vertex 386.823 -100.901 10
      vertex 386.823 -100.901 0
    endloop
  endfacet
  facet normal 0.119145 0.992877 -0
    outer loop
      vertex 386.648 -100.88 0
      vertex 386.648 -100.88 10
      vertex 386.823 -100.901 10
    endloop
  endfacet
  facet normal 0.999092 0.0426153 0
    outer loop
      vertex 386.639 -100.669 0
      vertex 386.648 -100.88 10
      vertex 386.648 -100.88 0
    endloop
  endfacet
  facet normal 0.999092 0.0426153 -0
    outer loop
      vertex 386.639 -100.669 0
      vertex 386.639 -100.669 10
      vertex 386.648 -100.88 10
    endloop
  endfacet
  facet normal 0.740325 -0.672249 0
    outer loop
      vertex 387.034 -100.234 0
      vertex 386.639 -100.669 10
      vertex 386.639 -100.669 0
    endloop
  endfacet
  facet normal 0.740325 -0.672249 0
    outer loop
      vertex 387.034 -100.234 0
      vertex 387.034 -100.234 10
      vertex 386.639 -100.669 10
    endloop
  endfacet
  facet normal 0.114842 0.993384 0
    outer loop
      vertex 386.861 -100.214 0
      vertex 387.034 -100.234 10
      vertex 387.034 -100.234 0
    endloop
  endfacet
  facet normal 0.114842 0.993384 -0
    outer loop
      vertex 386.861 -100.214 0
      vertex 386.861 -100.214 10
      vertex 387.034 -100.234 10
    endloop
  endfacet
  facet normal -0.970143 -0.242536 0
    outer loop
      vertex 386.867 -100.238 0
      vertex 386.861 -100.214 10
      vertex 386.861 -100.214 0
    endloop
  endfacet
  facet normal -0.970143 -0.242536 0
    outer loop
      vertex 386.867 -100.238 0
      vertex 386.867 -100.238 10
      vertex 386.861 -100.214 10
    endloop
  endfacet
  facet normal -0.968803 0.247833 0
    outer loop
      vertex 386.834 -100.367 0
      vertex 386.867 -100.238 10
      vertex 386.867 -100.238 0
    endloop
  endfacet
  facet normal -0.968803 0.247833 0
    outer loop
      vertex 386.834 -100.367 0
      vertex 386.834 -100.367 10
      vertex 386.867 -100.238 10
    endloop
  endfacet
  facet normal -0.762896 0.646522 0
    outer loop
      vertex 386.334 -100.957 0
      vertex 386.834 -100.367 10
      vertex 386.834 -100.367 0
    endloop
  endfacet
  facet normal -0.762896 0.646522 0
    outer loop
      vertex 386.334 -100.957 0
      vertex 386.334 -100.957 10
      vertex 386.834 -100.367 10
    endloop
  endfacet
  facet normal -0.238525 0.971136 0
    outer loop
      vertex 386.163 -100.999 0
      vertex 386.334 -100.957 10
      vertex 386.334 -100.957 0
    endloop
  endfacet
  facet normal -0.238525 0.971136 0
    outer loop
      vertex 386.163 -100.999 0
      vertex 386.163 -100.999 10
      vertex 386.334 -100.957 10
    endloop
  endfacet
  facet normal 0.906808 0.421543 0
    outer loop
      vertex 386.077 -100.814 0
      vertex 386.163 -100.999 10
      vertex 386.163 -100.999 0
    endloop
  endfacet
  facet normal 0.906808 0.421543 -0
    outer loop
      vertex 386.077 -100.814 0
      vertex 386.077 -100.814 10
      vertex 386.163 -100.999 10
    endloop
  endfacet
  facet normal 0.951407 -0.307936 0
    outer loop
      vertex 386.289 -100.159 0
      vertex 386.077 -100.814 10
      vertex 386.077 -100.814 0
    endloop
  endfacet
  facet normal 0.951407 -0.307936 0
    outer loop
      vertex 386.289 -100.159 0
      vertex 386.289 -100.159 10
      vertex 386.077 -100.814 10
    endloop
  endfacet
  facet normal -0.489934 0.87176 0
    outer loop
      vertex 384.773 -101.011 0
      vertex 386.289 -100.159 10
      vertex 386.289 -100.159 0
    endloop
  endfacet
  facet normal -0.489934 0.87176 0
    outer loop
      vertex 384.773 -101.011 0
      vertex 384.773 -101.011 10
      vertex 386.289 -100.159 10
    endloop
  endfacet
  facet normal 0.411921 0.911219 0
    outer loop
      vertex 384.554 -100.912 0
      vertex 384.773 -101.011 10
      vertex 384.773 -101.011 0
    endloop
  endfacet
  facet normal 0.411921 0.911219 -0
    outer loop
      vertex 384.554 -100.912 0
      vertex 384.554 -100.912 10
      vertex 384.773 -101.011 10
    endloop
  endfacet
  facet normal 0.976375 0.216083 0
    outer loop
      vertex 384.284 -99.692 0
      vertex 384.554 -100.912 10
      vertex 384.554 -100.912 0
    endloop
  endfacet
  facet normal 0.976375 0.216083 -0
    outer loop
      vertex 384.284 -99.692 0
      vertex 384.284 -99.692 10
      vertex 384.554 -100.912 10
    endloop
  endfacet
  facet normal 0.643769 0.76522 0
    outer loop
      vertex 383.693 -99.1948 0
      vertex 384.284 -99.692 10
      vertex 384.284 -99.692 0
    endloop
  endfacet
  facet normal 0.643769 0.76522 -0
    outer loop
      vertex 383.693 -99.1948 0
      vertex 383.693 -99.1948 10
      vertex 384.284 -99.692 10
    endloop
  endfacet
  facet normal 0.939202 0.343364 0
    outer loop
      vertex 383.642 -99.0553 0
      vertex 383.693 -99.1948 10
      vertex 383.693 -99.1948 0
    endloop
  endfacet
  facet normal 0.939202 0.343364 -0
    outer loop
      vertex 383.642 -99.0553 0
      vertex 383.642 -99.0553 10
      vertex 383.693 -99.1948 10
    endloop
  endfacet
  facet normal 0.986507 -0.163716 0
    outer loop
      vertex 383.677 -98.8444 0
      vertex 383.642 -99.0553 10
      vertex 383.642 -99.0553 0
    endloop
  endfacet
  facet normal 0.986507 -0.163716 0
    outer loop
      vertex 383.677 -98.8444 0
      vertex 383.677 -98.8444 10
      vertex 383.642 -99.0553 10
    endloop
  endfacet
  facet normal -0.744823 0.667262 0
    outer loop
      vertex 382.667 -99.9718 0
      vertex 383.677 -98.8444 10
      vertex 383.677 -98.8444 0
    endloop
  endfacet
  facet normal -0.744823 0.667262 0
    outer loop
      vertex 382.667 -99.9718 0
      vertex 382.667 -99.9718 10
      vertex 383.677 -98.8444 10
    endloop
  endfacet
  facet normal -0.972409 0.233283 0
    outer loop
      vertex 382.256 -101.685 0
      vertex 382.667 -99.9718 10
      vertex 382.667 -99.9718 0
    endloop
  endfacet
  facet normal -0.972409 0.233283 0
    outer loop
      vertex 382.256 -101.685 0
      vertex 382.256 -101.685 10
      vertex 382.667 -99.9718 10
    endloop
  endfacet
  facet normal -0.833538 0.552462 0
    outer loop
      vertex 382.199 -101.771 0
      vertex 382.256 -101.685 10
      vertex 382.256 -101.685 0
    endloop
  endfacet
  facet normal -0.833538 0.552462 0
    outer loop
      vertex 382.199 -101.771 0
      vertex 382.199 -101.771 10
      vertex 382.256 -101.685 10
    endloop
  endfacet
  facet normal -0.593338 0.804954 0
    outer loop
      vertex 381.21 -102.5 0
      vertex 382.199 -101.771 10
      vertex 382.199 -101.771 0
    endloop
  endfacet
  facet normal -0.593338 0.804954 0
    outer loop
      vertex 381.21 -102.5 0
      vertex 381.21 -102.5 10
      vertex 382.199 -101.771 10
    endloop
  endfacet
  facet normal -0.961545 0.274646 0
    outer loop
      vertex 380.725 -104.198 0
      vertex 381.21 -102.5 10
      vertex 381.21 -102.5 0
    endloop
  endfacet
  facet normal -0.961545 0.274646 0
    outer loop
      vertex 380.725 -104.198 0
      vertex 380.725 -104.198 10
      vertex 381.21 -102.5 10
    endloop
  endfacet
  facet normal -0.790415 -0.612572 0
    outer loop
      vertex 380.818 -104.318 0
      vertex 380.725 -104.198 10
      vertex 380.725 -104.198 0
    endloop
  endfacet
  facet normal -0.790415 -0.612572 0
    outer loop
      vertex 380.818 -104.318 0
      vertex 380.818 -104.318 10
      vertex 380.725 -104.198 10
    endloop
  endfacet
  facet normal -0.999336 0.0364341 0
    outer loop
      vertex 380.811 -104.51 0
      vertex 380.818 -104.318 10
      vertex 380.818 -104.318 0
    endloop
  endfacet
  facet normal -0.999336 0.0364341 0
    outer loop
      vertex 380.811 -104.51 0
      vertex 380.811 -104.51 10
      vertex 380.818 -104.318 10
    endloop
  endfacet
  facet normal -0.743239 0.669026 0
    outer loop
      vertex 380.207 -105.181 0
      vertex 380.811 -104.51 10
      vertex 380.811 -104.51 0
    endloop
  endfacet
  facet normal -0.743239 0.669026 0
    outer loop
      vertex 380.207 -105.181 0
      vertex 380.207 -105.181 10
      vertex 380.811 -104.51 10
    endloop
  endfacet
  facet normal -0.998639 0.0521533 0
    outer loop
      vertex 380.18 -105.698 0
      vertex 380.207 -105.181 10
      vertex 380.207 -105.181 0
    endloop
  endfacet
  facet normal -0.998639 0.0521533 0
    outer loop
      vertex 380.18 -105.698 0
      vertex 380.18 -105.698 10
      vertex 380.207 -105.181 10
    endloop
  endfacet
  facet normal -0.776981 0.629524 0
    outer loop
      vertex 380.069 -105.835 0
      vertex 380.18 -105.698 10
      vertex 380.18 -105.698 0
    endloop
  endfacet
  facet normal -0.776981 0.629524 0
    outer loop
      vertex 380.069 -105.835 0
      vertex 380.069 -105.835 10
      vertex 380.18 -105.698 10
    endloop
  endfacet
  facet normal 0.529179 0.84851 0
    outer loop
      vertex 379.883 -105.719 0
      vertex 380.069 -105.835 10
      vertex 380.069 -105.835 0
    endloop
  endfacet
  facet normal 0.529179 0.84851 -0
    outer loop
      vertex 379.883 -105.719 0
      vertex 379.883 -105.719 10
      vertex 380.069 -105.835 10
    endloop
  endfacet
  facet normal 0.979804 0.19996 0
    outer loop
      vertex 379.863 -105.621 0
      vertex 379.883 -105.719 10
      vertex 379.883 -105.719 0
    endloop
  endfacet
  facet normal 0.979804 0.19996 -0
    outer loop
      vertex 379.863 -105.621 0
      vertex 379.863 -105.621 10
      vertex 379.883 -105.719 10
    endloop
  endfacet
  facet normal -0.875007 0.48411 0
    outer loop
      vertex 379.541 -106.203 0
      vertex 379.863 -105.621 10
      vertex 379.863 -105.621 0
    endloop
  endfacet
  facet normal -0.875007 0.48411 0
    outer loop
      vertex 379.541 -106.203 0
      vertex 379.541 -106.203 10
      vertex 379.863 -105.621 10
    endloop
  endfacet
  facet normal -0.421949 0.90662 0
    outer loop
      vertex 379.382 -106.277 0
      vertex 379.541 -106.203 10
      vertex 379.541 -106.203 0
    endloop
  endfacet
  facet normal -0.421949 0.90662 0
    outer loop
      vertex 379.382 -106.277 0
      vertex 379.382 -106.277 10
      vertex 379.541 -106.203 10
    endloop
  endfacet
  facet normal 0.538035 0.842922 0
    outer loop
      vertex 379.288 -106.217 0
      vertex 379.382 -106.277 10
      vertex 379.382 -106.277 0
    endloop
  endfacet
  facet normal 0.538035 0.842922 -0
    outer loop
      vertex 379.288 -106.217 0
      vertex 379.288 -106.217 10
      vertex 379.382 -106.277 10
    endloop
  endfacet
  facet normal 0.814243 0.580525 0
    outer loop
      vertex 379.211 -106.109 0
      vertex 379.288 -106.217 10
      vertex 379.288 -106.217 0
    endloop
  endfacet
  facet normal 0.814243 0.580525 -0
    outer loop
      vertex 379.211 -106.109 0
      vertex 379.211 -106.109 10
      vertex 379.288 -106.217 10
    endloop
  endfacet
  facet normal -0.41576 0.909474 0
    outer loop
      vertex 379.176 -106.125 0
      vertex 379.211 -106.109 10
      vertex 379.211 -106.109 0
    endloop
  endfacet
  facet normal -0.41576 0.909474 0
    outer loop
      vertex 379.176 -106.125 0
      vertex 379.176 -106.125 10
      vertex 379.211 -106.109 10
    endloop
  endfacet
  facet normal -0.780115 -0.625637 0
    outer loop
      vertex 379.257 -106.226 0
      vertex 379.176 -106.125 10
      vertex 379.176 -106.125 0
    endloop
  endfacet
  facet normal -0.780115 -0.625637 0
    outer loop
      vertex 379.257 -106.226 0
      vertex 379.257 -106.226 10
      vertex 379.176 -106.125 10
    endloop
  endfacet
  facet normal -0.998969 -0.0454077 0
    outer loop
      vertex 379.265 -106.402 0
      vertex 379.257 -106.226 10
      vertex 379.257 -106.226 0
    endloop
  endfacet
  facet normal -0.998969 -0.0454077 0
    outer loop
      vertex 379.265 -106.402 0
      vertex 379.265 -106.402 10
      vertex 379.257 -106.226 10
    endloop
  endfacet
  facet normal -0.274721 0.961524 0
    outer loop
      vertex 379.076 -106.456 0
      vertex 379.265 -106.402 10
      vertex 379.265 -106.402 0
    endloop
  endfacet
  facet normal -0.274721 0.961524 0
    outer loop
      vertex 379.076 -106.456 0
      vertex 379.076 -106.456 10
      vertex 379.265 -106.402 10
    endloop
  endfacet
  facet normal 0.426775 0.904358 0
    outer loop
      vertex 378.809 -106.33 0
      vertex 379.076 -106.456 10
      vertex 379.076 -106.456 0
    endloop
  endfacet
  facet normal 0.426775 0.904358 -0
    outer loop
      vertex 378.809 -106.33 0
      vertex 378.809 -106.33 10
      vertex 379.076 -106.456 10
    endloop
  endfacet
  facet normal -0.509425 0.860515 0
    outer loop
      vertex 378.684 -106.404 0
      vertex 378.809 -106.33 10
      vertex 378.809 -106.33 0
    endloop
  endfacet
  facet normal -0.509425 0.860515 0
    outer loop
      vertex 378.684 -106.404 0
      vertex 378.684 -106.404 10
      vertex 378.809 -106.33 10
    endloop
  endfacet
  facet normal -0.737476 -0.675373 0
    outer loop
      vertex 378.771 -106.499 0
      vertex 378.684 -106.404 10
      vertex 378.684 -106.404 0
    endloop
  endfacet
  facet normal -0.737476 -0.675373 0
    outer loop
      vertex 378.771 -106.499 0
      vertex 378.771 -106.499 10
      vertex 378.684 -106.404 10
    endloop
  endfacet
  facet normal -0.994158 -0.107937 0
    outer loop
      vertex 378.79 -106.674 0
      vertex 378.771 -106.499 10
      vertex 378.771 -106.499 0
    endloop
  endfacet
  facet normal -0.994158 -0.107937 0
    outer loop
      vertex 378.79 -106.674 0
      vertex 378.79 -106.674 10
      vertex 378.771 -106.499 10
    endloop
  endfacet
  facet normal -0.430837 0.90243 0
    outer loop
      vertex 378.635 -106.748 0
      vertex 378.79 -106.674 10
      vertex 378.79 -106.674 0
    endloop
  endfacet
  facet normal -0.430837 0.90243 0
    outer loop
      vertex 378.635 -106.748 0
      vertex 378.635 -106.748 10
      vertex 378.79 -106.674 10
    endloop
  endfacet
  facet normal 0.170741 0.985316 0
    outer loop
      vertex 378.358 -106.7 0
      vertex 378.635 -106.748 10
      vertex 378.635 -106.748 0
    endloop
  endfacet
  facet normal 0.170741 0.985316 -0
    outer loop
      vertex 378.358 -106.7 0
      vertex 378.358 -106.7 10
      vertex 378.635 -106.748 10
    endloop
  endfacet
  facet normal -0.685635 0.727946 0
    outer loop
      vertex 377.601 -107.413 0
      vertex 378.358 -106.7 10
      vertex 378.358 -106.7 0
    endloop
  endfacet
  facet normal -0.685635 0.727946 0
    outer loop
      vertex 377.601 -107.413 0
      vertex 377.601 -107.413 10
      vertex 378.358 -106.7 10
    endloop
  endfacet
  facet normal -0.989111 0.147169 0
    outer loop
      vertex 377.558 -107.702 0
      vertex 377.601 -107.413 10
      vertex 377.601 -107.413 0
    endloop
  endfacet
  facet normal -0.989111 0.147169 0
    outer loop
      vertex 377.558 -107.702 0
      vertex 377.558 -107.702 10
      vertex 377.601 -107.413 10
    endloop
  endfacet
  facet normal -0.810298 0.586019 0
    outer loop
      vertex 377.477 -107.814 0
      vertex 377.558 -107.702 10
      vertex 377.558 -107.702 0
    endloop
  endfacet
  facet normal -0.810298 0.586019 0
    outer loop
      vertex 377.477 -107.814 0
      vertex 377.477 -107.814 10
      vertex 377.558 -107.702 10
    endloop
  endfacet
  facet normal -0.446957 0.894556 0
    outer loop
      vertex 376.084 -108.51 0
      vertex 377.477 -107.814 10
      vertex 377.477 -107.814 0
    endloop
  endfacet
  facet normal -0.446957 0.894556 0
    outer loop
      vertex 376.084 -108.51 0
      vertex 376.084 -108.51 10
      vertex 377.477 -107.814 10
    endloop
  endfacet
  facet normal -0.998775 -0.0494749 0
    outer loop
      vertex 376.1 -108.833 0
      vertex 376.084 -108.51 10
      vertex 376.084 -108.51 0
    endloop
  endfacet
  facet normal -0.998775 -0.0494749 0
    outer loop
      vertex 376.1 -108.833 0
      vertex 376.1 -108.833 10
      vertex 376.084 -108.51 10
    endloop
  endfacet
  facet normal -0.834662 0.550763 0
    outer loop
      vertex 376.003 -108.98 0
      vertex 376.1 -108.833 10
      vertex 376.1 -108.833 0
    endloop
  endfacet
  facet normal -0.834662 0.550763 0
    outer loop
      vertex 376.003 -108.98 0
      vertex 376.003 -108.98 10
      vertex 376.1 -108.833 10
    endloop
  endfacet
  facet normal 0.103912 0.994586 0
    outer loop
      vertex 375.869 -108.966 0
      vertex 376.003 -108.98 10
      vertex 376.003 -108.98 0
    endloop
  endfacet
  facet normal 0.103912 0.994586 -0
    outer loop
      vertex 375.869 -108.966 0
      vertex 375.869 -108.966 10
      vertex 376.003 -108.98 10
    endloop
  endfacet
  facet normal 0.536875 0.843661 0
    outer loop
      vertex 375.704 -108.861 0
      vertex 375.869 -108.966 10
      vertex 375.869 -108.966 0
    endloop
  endfacet
  facet normal 0.536875 0.843661 -0
    outer loop
      vertex 375.704 -108.861 0
      vertex 375.704 -108.861 10
      vertex 375.869 -108.966 10
    endloop
  endfacet
  facet normal -0.573913 0.818916 0
    outer loop
      vertex 375.216 -109.203 0
      vertex 375.704 -108.861 10
      vertex 375.704 -108.861 0
    endloop
  endfacet
  facet normal -0.573913 0.818916 0
    outer loop
      vertex 375.216 -109.203 0
      vertex 375.216 -109.203 10
      vertex 375.704 -108.861 10
    endloop
  endfacet
  facet normal -0.368846 0.929491 0
    outer loop
      vertex 375.153 -109.228 0
      vertex 375.216 -109.203 10
      vertex 375.216 -109.203 0
    endloop
  endfacet
  facet normal -0.368846 0.929491 0
    outer loop
      vertex 375.153 -109.228 0
      vertex 375.153 -109.228 10
      vertex 375.216 -109.203 10
    endloop
  endfacet
  facet normal -0.152057 0.988372 0
    outer loop
      vertex 374.425 -109.34 0
      vertex 375.153 -109.228 10
      vertex 375.153 -109.228 0
    endloop
  endfacet
  facet normal -0.152057 0.988372 0
    outer loop
      vertex 374.425 -109.34 0
      vertex 374.425 -109.34 10
      vertex 375.153 -109.228 10
    endloop
  endfacet
  facet normal -0.736728 0.67619 0
    outer loop
      vertex 373.174 -110.703 0
      vertex 374.425 -109.34 10
      vertex 374.425 -109.34 0
    endloop
  endfacet
  facet normal -0.736728 0.67619 0
    outer loop
      vertex 373.174 -110.703 0
      vertex 373.174 -110.703 10
      vertex 374.425 -109.34 10
    endloop
  endfacet
  facet normal -0.973358 -0.22929 0
    outer loop
      vertex 373.276 -111.136 0
      vertex 373.174 -110.703 10
      vertex 373.174 -110.703 0
    endloop
  endfacet
  facet normal -0.973358 -0.22929 0
    outer loop
      vertex 373.276 -111.136 0
      vertex 373.276 -111.136 10
      vertex 373.174 -110.703 10
    endloop
  endfacet
  facet normal -0.922063 0.387039 0
    outer loop
      vertex 373.208 -111.298 0
      vertex 373.276 -111.136 10
      vertex 373.276 -111.136 0
    endloop
  endfacet
  facet normal -0.922063 0.387039 0
    outer loop
      vertex 373.208 -111.298 0
      vertex 373.208 -111.298 10
      vertex 373.276 -111.136 10
    endloop
  endfacet
  facet normal 0.0691979 0.997603 0
    outer loop
      vertex 373.035 -111.286 0
      vertex 373.208 -111.298 10
      vertex 373.208 -111.298 0
    endloop
  endfacet
  facet normal 0.0691979 0.997603 -0
    outer loop
      vertex 373.035 -111.286 0
      vertex 373.035 -111.286 10
      vertex 373.208 -111.298 10
    endloop
  endfacet
  facet normal 0.630091 0.776521 0
    outer loop
      vertex 372.86 -111.144 0
      vertex 373.035 -111.286 10
      vertex 373.035 -111.286 0
    endloop
  endfacet
  facet normal 0.630091 0.776521 -0
    outer loop
      vertex 372.86 -111.144 0
      vertex 372.86 -111.144 10
      vertex 373.035 -111.286 10
    endloop
  endfacet
  facet normal -0.63452 0.772907 0
    outer loop
      vertex 372.335 -111.575 0
      vertex 372.86 -111.144 10
      vertex 372.86 -111.144 0
    endloop
  endfacet
  facet normal -0.63452 0.772907 0
    outer loop
      vertex 372.335 -111.575 0
      vertex 372.335 -111.575 10
      vertex 372.86 -111.144 10
    endloop
  endfacet
  facet normal -0.997785 0.066519 0
    outer loop
      vertex 372.3 -112.1 0
      vertex 372.335 -111.575 10
      vertex 372.335 -111.575 0
    endloop
  endfacet
  facet normal -0.997785 0.066519 0
    outer loop
      vertex 372.3 -112.1 0
      vertex 372.3 -112.1 10
      vertex 372.335 -111.575 10
    endloop
  endfacet
  facet normal -0.766823 0.641859 0
    outer loop
      vertex 372.187 -112.235 0
      vertex 372.3 -112.1 10
      vertex 372.3 -112.1 0
    endloop
  endfacet
  facet normal -0.766823 0.641859 0
    outer loop
      vertex 372.187 -112.235 0
      vertex 372.187 -112.235 10
      vertex 372.3 -112.1 10
    endloop
  endfacet
  facet normal 0.485643 0.874157 0
    outer loop
      vertex 372.007 -112.135 0
      vertex 372.187 -112.235 10
      vertex 372.187 -112.235 0
    endloop
  endfacet
  facet normal 0.485643 0.874157 -0
    outer loop
      vertex 372.007 -112.135 0
      vertex 372.007 -112.135 10
      vertex 372.187 -112.235 10
    endloop
  endfacet
  facet normal 0.952659 0.30404 0
    outer loop
      vertex 371.947 -111.947 0
      vertex 372.007 -112.135 10
      vertex 372.007 -112.135 0
    endloop
  endfacet
  facet normal 0.952659 0.30404 -0
    outer loop
      vertex 371.947 -111.947 0
      vertex 371.947 -111.947 10
      vertex 372.007 -112.135 10
    endloop
  endfacet
  facet normal -0.666795 0.745241 0
    outer loop
      vertex 371.719 -112.151 0
      vertex 371.947 -111.947 10
      vertex 371.947 -111.947 0
    endloop
  endfacet
  facet normal -0.666795 0.745241 0
    outer loop
      vertex 371.719 -112.151 0
      vertex 371.719 -112.151 10
      vertex 371.947 -111.947 10
    endloop
  endfacet
  facet normal -0.927536 -0.373733 0
    outer loop
      vertex 371.829 -112.424 0
      vertex 371.719 -112.151 10
      vertex 371.719 -112.151 0
    endloop
  endfacet
  facet normal -0.927536 -0.373733 0
    outer loop
      vertex 371.829 -112.424 0
      vertex 371.829 -112.424 10
      vertex 371.719 -112.151 10
    endloop
  endfacet
  facet normal -0.971136 0.238525 0
    outer loop
      vertex 371.787 -112.595 0
      vertex 371.829 -112.424 10
      vertex 371.829 -112.424 0
    endloop
  endfacet
  facet normal -0.971136 0.238525 0
    outer loop
      vertex 371.787 -112.595 0
      vertex 371.787 -112.595 10
      vertex 371.829 -112.424 10
    endloop
  endfacet
  facet normal -0.181848 0.983327 0
    outer loop
      vertex 371.641 -112.622 0
      vertex 371.787 -112.595 10
      vertex 371.787 -112.595 0
    endloop
  endfacet
  facet normal -0.181848 0.983327 0
    outer loop
      vertex 371.641 -112.622 0
      vertex 371.641 -112.622 10
      vertex 371.787 -112.595 10
    endloop
  endfacet
  facet normal 0.328885 0.94437 0
    outer loop
      vertex 371.44 -112.552 0
      vertex 371.641 -112.622 10
      vertex 371.641 -112.622 0
    endloop
  endfacet
  facet normal 0.328885 0.94437 -0
    outer loop
      vertex 371.44 -112.552 0
      vertex 371.44 -112.552 10
      vertex 371.641 -112.622 10
    endloop
  endfacet
  facet normal -0.707107 0.707107 0
    outer loop
      vertex 371.322 -112.67 0
      vertex 371.44 -112.552 10
      vertex 371.44 -112.552 0
    endloop
  endfacet
  facet normal -0.707107 0.707107 0
    outer loop
      vertex 371.322 -112.67 0
      vertex 371.322 -112.67 10
      vertex 371.44 -112.552 10
    endloop
  endfacet
  facet normal -0.999473 -0.0324504 0
    outer loop
      vertex 371.327 -112.824 0
      vertex 371.322 -112.67 10
      vertex 371.322 -112.67 0
    endloop
  endfacet
  facet normal -0.999473 -0.0324504 0
    outer loop
      vertex 371.327 -112.824 0
      vertex 371.327 -112.824 10
      vertex 371.322 -112.67 10
    endloop
  endfacet
  facet normal -0.43101 -0.902347 0
    outer loop
      vertex 371.685 -112.995 0
      vertex 371.327 -112.824 10
      vertex 371.327 -112.824 0
    endloop
  endfacet
  facet normal -0.43101 -0.902347 0
    outer loop
      vertex 371.685 -112.995 0
      vertex 371.685 -112.995 10
      vertex 371.327 -112.824 10
    endloop
  endfacet
  facet normal -0.879193 -0.476466 0
    outer loop
      vertex 371.769 -113.15 0
      vertex 371.685 -112.995 10
      vertex 371.685 -112.995 0
    endloop
  endfacet
  facet normal -0.879193 -0.476466 0
    outer loop
      vertex 371.769 -113.15 0
      vertex 371.769 -113.15 10
      vertex 371.685 -112.995 10
    endloop
  endfacet
  facet normal -0.777095 0.629383 0
    outer loop
      vertex 371.671 -113.271 0
      vertex 371.769 -113.15 10
      vertex 371.769 -113.15 0
    endloop
  endfacet
  facet normal -0.777095 0.629383 0
    outer loop
      vertex 371.671 -113.271 0
      vertex 371.671 -113.271 10
      vertex 371.769 -113.15 10
    endloop
  endfacet
  facet normal -0.340441 0.940266 0
    outer loop
      vertex 371.555 -113.313 0
      vertex 371.671 -113.271 10
      vertex 371.671 -113.271 0
    endloop
  endfacet
  facet normal -0.340441 0.940266 0
    outer loop
      vertex 371.555 -113.313 0
      vertex 371.555 -113.313 10
      vertex 371.671 -113.271 10
    endloop
  endfacet
  facet normal -0.958147 -0.286276 0
    outer loop
      vertex 371.604 -113.477 0
      vertex 371.555 -113.313 10
      vertex 371.555 -113.313 0
    endloop
  endfacet
  facet normal -0.958147 -0.286276 0
    outer loop
      vertex 371.604 -113.477 0
      vertex 371.604 -113.477 10
      vertex 371.555 -113.313 10
    endloop
  endfacet
  facet normal -0.942254 0.334898 0
    outer loop
      vertex 371.545 -113.643 0
      vertex 371.604 -113.477 10
      vertex 371.604 -113.477 0
    endloop
  endfacet
  facet normal -0.942254 0.334898 0
    outer loop
      vertex 371.545 -113.643 0
      vertex 371.545 -113.643 10
      vertex 371.604 -113.477 10
    endloop
  endfacet
  facet normal -0.0721797 0.997392 0
    outer loop
      vertex 371.393 -113.654 0
      vertex 371.545 -113.643 10
      vertex 371.545 -113.643 0
    endloop
  endfacet
  facet normal -0.0721797 0.997392 0
    outer loop
      vertex 371.393 -113.654 0
      vertex 371.393 -113.654 10
      vertex 371.545 -113.643 10
    endloop
  endfacet
  facet normal 0.446138 0.894964 0
    outer loop
      vertex 371.06 -113.488 0
      vertex 371.393 -113.654 10
      vertex 371.393 -113.654 0
    endloop
  endfacet
  facet normal 0.446138 0.894964 -0
    outer loop
      vertex 371.06 -113.488 0
      vertex 371.06 -113.488 10
      vertex 371.393 -113.654 10
    endloop
  endfacet
  facet normal -0.926016 0.377484 0
    outer loop
      vertex 370.996 -113.645 0
      vertex 371.06 -113.488 10
      vertex 371.06 -113.488 0
    endloop
  endfacet
  facet normal -0.926016 0.377484 0
    outer loop
      vertex 370.996 -113.645 0
      vertex 370.996 -113.645 10
      vertex 371.06 -113.488 10
    endloop
  endfacet
  facet normal -0.43776 0.899092 0
    outer loop
      vertex 370.729 -113.775 0
      vertex 370.996 -113.645 10
      vertex 370.996 -113.645 0
    endloop
  endfacet
  facet normal -0.43776 0.899092 0
    outer loop
      vertex 370.729 -113.775 0
      vertex 370.729 -113.775 10
      vertex 370.996 -113.645 10
    endloop
  endfacet
  facet normal 0.071247 -0.997459 0
    outer loop
      vertex 371.079 -113.75 0
      vertex 370.729 -113.775 10
      vertex 370.729 -113.775 0
    endloop
  endfacet
  facet normal 0.071247 -0.997459 0
    outer loop
      vertex 371.079 -113.75 0
      vertex 371.079 -113.75 10
      vertex 370.729 -113.775 10
    endloop
  endfacet
  facet normal -0.531014 -0.847363 0
    outer loop
      vertex 371.229 -113.844 0
      vertex 371.079 -113.75 10
      vertex 371.079 -113.75 0
    endloop
  endfacet
  facet normal -0.531014 -0.847363 0
    outer loop
      vertex 371.229 -113.844 0
      vertex 371.229 -113.844 10
      vertex 371.079 -113.75 10
    endloop
  endfacet
  facet normal -0.969808 0.24387 0
    outer loop
      vertex 371.186 -114.015 0
      vertex 371.229 -113.844 10
      vertex 371.229 -113.844 0
    endloop
  endfacet
  facet normal -0.969808 0.24387 0
    outer loop
      vertex 371.186 -114.015 0
      vertex 371.186 -114.015 10
      vertex 371.229 -113.844 10
    endloop
  endfacet
  facet normal -0.642318 0.766438 0
    outer loop
      vertex 370.939 -114.222 0
      vertex 371.186 -114.015 10
      vertex 371.186 -114.015 0
    endloop
  endfacet
  facet normal -0.642318 0.766438 0
    outer loop
      vertex 370.939 -114.222 0
      vertex 370.939 -114.222 10
      vertex 371.186 -114.015 10
    endloop
  endfacet
  facet normal -0.418584 -0.908178 0
    outer loop
      vertex 371.182 -114.334 0
      vertex 370.939 -114.222 10
      vertex 370.939 -114.222 0
    endloop
  endfacet
  facet normal -0.418584 -0.908178 0
    outer loop
      vertex 371.182 -114.334 0
      vertex 371.182 -114.334 10
      vertex 370.939 -114.222 10
    endloop
  endfacet
  facet normal -0.86929 -0.494302 0
    outer loop
      vertex 371.269 -114.487 0
      vertex 371.182 -114.334 10
      vertex 371.182 -114.334 0
    endloop
  endfacet
  facet normal -0.86929 -0.494302 0
    outer loop
      vertex 371.269 -114.487 0
      vertex 371.269 -114.487 10
      vertex 371.182 -114.334 10
    endloop
  endfacet
  facet normal -0.774785 0.632225 0
    outer loop
      vertex 371.167 -114.612 0
      vertex 371.269 -114.487 10
      vertex 371.269 -114.487 0
    endloop
  endfacet
  facet normal -0.774785 0.632225 0
    outer loop
      vertex 371.167 -114.612 0
      vertex 371.167 -114.612 10
      vertex 371.269 -114.487 10
    endloop
  endfacet
  facet normal -0.314591 0.949227 0
    outer loop
      vertex 370.123 -114.958 0
      vertex 371.167 -114.612 10
      vertex 371.167 -114.612 0
    endloop
  endfacet
  facet normal -0.314591 0.949227 0
    outer loop
      vertex 370.123 -114.958 0
      vertex 370.123 -114.958 10
      vertex 371.167 -114.612 10
    endloop
  endfacet
  facet normal -0.99973 -0.0232495 0
    outer loop
      vertex 370.125 -115.044 0
      vertex 370.123 -114.958 10
      vertex 370.123 -114.958 0
    endloop
  endfacet
  facet normal -0.99973 -0.0232495 0
    outer loop
      vertex 370.125 -115.044 0
      vertex 370.125 -115.044 10
      vertex 370.123 -114.958 10
    endloop
  endfacet
  facet normal 0.432226 -0.901766 0
    outer loop
      vertex 370.415 -114.905 0
      vertex 370.125 -115.044 10
      vertex 370.125 -115.044 0
    endloop
  endfacet
  facet normal 0.432226 -0.901766 0
    outer loop
      vertex 370.415 -114.905 0
      vertex 370.415 -114.905 10
      vertex 370.125 -115.044 10
    endloop
  endfacet
  facet normal -0.175399 -0.984497 0
    outer loop
      vertex 370.589 -114.936 0
      vertex 370.415 -114.905 10
      vertex 370.415 -114.905 0
    endloop
  endfacet
  facet normal -0.175399 -0.984497 0
    outer loop
      vertex 370.589 -114.936 0
      vertex 370.589 -114.936 10
      vertex 370.415 -114.905 10
    endloop
  endfacet
  facet normal -0.97494 -0.222469 0
    outer loop
      vertex 370.623 -115.085 0
      vertex 370.589 -114.936 10
      vertex 370.589 -114.936 0
    endloop
  endfacet
  facet normal -0.97494 -0.222469 0
    outer loop
      vertex 370.623 -115.085 0
      vertex 370.623 -115.085 10
      vertex 370.589 -114.936 10
    endloop
  endfacet
  facet normal -0.955006 0.296586 0
    outer loop
      vertex 370.573 -115.246 0
      vertex 370.623 -115.085 10
      vertex 370.623 -115.085 0
    endloop
  endfacet
  facet normal -0.955006 0.296586 0
    outer loop
      vertex 370.573 -115.246 0
      vertex 370.573 -115.246 10
      vertex 370.623 -115.085 10
    endloop
  endfacet
  facet normal 0.411007 -0.911632 0
    outer loop
      vertex 370.868 -115.113 0
      vertex 370.573 -115.246 10
      vertex 370.573 -115.246 0
    endloop
  endfacet
  facet normal 0.411007 -0.911632 0
    outer loop
      vertex 370.868 -115.113 0
      vertex 370.868 -115.113 10
      vertex 370.573 -115.246 10
    endloop
  endfacet
  facet normal -0.203728 -0.979027 0
    outer loop
      vertex 371.041 -115.149 0
      vertex 370.868 -115.113 10
      vertex 370.868 -115.113 0
    endloop
  endfacet
  facet normal -0.203728 -0.979027 0
    outer loop
      vertex 371.041 -115.149 0
      vertex 371.041 -115.149 10
      vertex 370.868 -115.113 10
    endloop
  endfacet
  facet normal -0.992713 -0.120503 0
    outer loop
      vertex 371.062 -115.322 0
      vertex 371.041 -115.149 10
      vertex 371.041 -115.149 0
    endloop
  endfacet
  facet normal -0.992713 -0.120503 0
    outer loop
      vertex 371.062 -115.322 0
      vertex 371.062 -115.322 10
      vertex 371.041 -115.149 10
    endloop
  endfacet
  facet normal -0.877543 0.479498 0
    outer loop
      vertex 370.75 -115.893 0
      vertex 371.062 -115.322 10
      vertex 371.062 -115.322 0
    endloop
  endfacet
  facet normal -0.877543 0.479498 0
    outer loop
      vertex 370.75 -115.893 0
      vertex 370.75 -115.893 10
      vertex 371.062 -115.322 10
    endloop
  endfacet
  facet normal -0.0981158 -0.995175 0
    outer loop
      vertex 371.886 -116.005 0
      vertex 370.75 -115.893 10
      vertex 370.75 -115.893 0
    endloop
  endfacet
  facet normal -0.0981158 -0.995175 0
    outer loop
      vertex 371.886 -116.005 0
      vertex 371.886 -116.005 10
      vertex 370.75 -115.893 10
    endloop
  endfacet
  facet normal 0.606475 -0.795103 0
    outer loop
      vertex 372.219 -115.751 0
      vertex 371.886 -116.005 10
      vertex 371.886 -116.005 0
    endloop
  endfacet
  facet normal 0.606475 -0.795103 0
    outer loop
      vertex 372.219 -115.751 0
      vertex 372.219 -115.751 10
      vertex 371.886 -116.005 10
    endloop
  endfacet
  facet normal -0.0751637 -0.997171 0
    outer loop
      vertex 372.418 -115.766 0
      vertex 372.219 -115.751 10
      vertex 372.219 -115.751 0
    endloop
  endfacet
  facet normal -0.0751637 -0.997171 0
    outer loop
      vertex 372.418 -115.766 0
      vertex 372.418 -115.766 10
      vertex 372.219 -115.751 10
    endloop
  endfacet
  facet normal -0.722449 -0.691424 0
    outer loop
      vertex 373.042 -116.418 0
      vertex 372.418 -115.766 10
      vertex 372.418 -115.766 0
    endloop
  endfacet
  facet normal -0.722449 -0.691424 0
    outer loop
      vertex 373.042 -116.418 0
      vertex 373.042 -116.418 10
      vertex 372.418 -115.766 10
    endloop
  endfacet
  facet normal 0.0255598 -0.999673 0
    outer loop
      vertex 373.746 -116.4 0
      vertex 373.042 -116.418 10
      vertex 373.042 -116.418 0
    endloop
  endfacet
  facet normal 0.0255598 -0.999673 0
    outer loop
      vertex 373.746 -116.4 0
      vertex 373.746 -116.4 10
      vertex 373.042 -116.418 10
    endloop
  endfacet
  facet normal -0.497512 -0.867457 0
    outer loop
      vertex 373.882 -116.478 0
      vertex 373.746 -116.4 10
      vertex 373.746 -116.4 0
    endloop
  endfacet
  facet normal -0.497512 -0.867457 0
    outer loop
      vertex 373.882 -116.478 0
      vertex 373.882 -116.478 10
      vertex 373.746 -116.4 10
    endloop
  endfacet
  facet normal -0.878647 -0.477472 0
    outer loop
      vertex 374.27 -117.192 0
      vertex 373.882 -116.478 10
      vertex 373.882 -116.478 0
    endloop
  endfacet
  facet normal -0.878647 -0.477472 0
    outer loop
      vertex 374.27 -117.192 0
      vertex 374.27 -117.192 10
      vertex 373.882 -116.478 10
    endloop
  endfacet
  facet normal -0.0231579 -0.999732 0
    outer loop
      vertex 376.299 -117.239 0
      vertex 374.27 -117.192 10
      vertex 374.27 -117.192 0
    endloop
  endfacet
  facet normal -0.0231579 -0.999732 0
    outer loop
      vertex 376.299 -117.239 0
      vertex 376.299 -117.239 10
      vertex 374.27 -117.192 10
    endloop
  endfacet
  facet normal 0.289625 -0.95714 0
    outer loop
      vertex 376.993 -117.029 0
      vertex 376.299 -117.239 10
      vertex 376.299 -117.239 0
    endloop
  endfacet
  facet normal 0.289625 -0.95714 0
    outer loop
      vertex 376.993 -117.029 0
      vertex 376.993 -117.029 10
      vertex 376.299 -117.239 10
    endloop
  endfacet
endsolid OpenSCAD_Model
