solid OpenSCAD_Model
  facet normal 0 0 -1
    outer loop
      vertex 122.675 39.806 0
      vertex 122.64 39.7003 0
      vertex 120.145 38.5099 0
    endloop
  endfacet
  facet normal -0 0 -1
    outer loop
      vertex 120.077 38.4909 0
      vertex 119.076 37.9316 0
      vertex 115.713 42.923 0
    endloop
  endfacet
  facet normal 0 0 -1
    outer loop
      vertex 128.434 45.9861 0
      vertex 123.793 50.0956 0
      vertex 128.465 46.0466 0
    endloop
  endfacet
  facet normal 0 0 -1
    outer loop
      vertex 123.175 40.406 0
      vertex 122.22 45.2286 0
      vertex 123.265 40.4579 0
    endloop
  endfacet
  facet normal 0 -0 -1
    outer loop
      vertex 122.64 39.7003 0
      vertex 122.677 39.1342 0
      vertex 122.281 38.5872 0
    endloop
  endfacet
  facet normal 0 0 -1
    outer loop
      vertex 120.145 38.5099 0
      vertex 122.64 39.7003 0
      vertex 122.281 38.5872 0
    endloop
  endfacet
  facet normal 0 0 -1
    outer loop
      vertex 126.239 42.5843 0
      vertex 128.104 44.6561 0
      vertex 128.101 44.599 0
    endloop
  endfacet
  facet normal 0 0 -1
    outer loop
      vertex 122.675 39.806 0
      vertex 122.22 45.2286 0
      vertex 123.175 40.406 0
    endloop
  endfacet
  facet normal 0 0 -1
    outer loop
      vertex 124.317 55.6375 0
      vertex 124.509 56.6437 0
      vertex 124.685 56.654 0
    endloop
  endfacet
  facet normal 0 0 -1
    outer loop
      vertex 124.448 54.9749 0
      vertex 124.553 55.1663 0
      vertex 126.828 54.8197 0
    endloop
  endfacet
  facet normal 0 0 -1
    outer loop
      vertex 123.265 40.4579 0
      vertex 126.148 42.512 0
      vertex 125.203 40.7858 0
    endloop
  endfacet
  facet normal 0 0 -1
    outer loop
      vertex 131.822 49.0358 0
      vertex 131.947 51.6335 0
      vertex 132.013 51.5814 0
    endloop
  endfacet
  facet normal 0 0 -1
    outer loop
      vertex 123.793 50.0956 0
      vertex 129.242 46.9174 0
      vertex 129.155 46.8666 0
    endloop
  endfacet
  facet normal 0 0 -1
    outer loop
      vertex 126.239 42.5843 0
      vertex 128.101 44.599 0
      vertex 128.303 43.1687 0
    endloop
  endfacet
  facet normal 0 0 -1
    outer loop
      vertex 129.623 53.9006 0
      vertex 130.129 53.9457 0
      vertex 130.502 53.6823 0
    endloop
  endfacet
  facet normal 0 0 -1
    outer loop
      vertex 124.553 55.1663 0
      vertex 124.433 55.5363 0
      vertex 125.758 56.0097 0
    endloop
  endfacet
  facet normal 0 -0 -1
    outer loop
      vertex 126.894 54.7774 0
      vertex 129.564 53.9074 0
      vertex 123.779 50.2169 0
    endloop
  endfacet
  facet normal 0 0 -1
    outer loop
      vertex 129.564 53.9074 0
      vertex 123.793 50.0956 0
      vertex 123.779 50.2169 0
    endloop
  endfacet
  facet normal 0 0 -1
    outer loop
      vertex 131.947 51.6335 0
      vertex 129.564 53.9074 0
      vertex 129.623 53.9006 0
    endloop
  endfacet
  facet normal 0 0 -1
    outer loop
      vertex 129.242 46.9174 0
      vertex 130.749 48.0932 0
      vertex 129.402 46.9474 0
    endloop
  endfacet
  facet normal 0 0 -1
    outer loop
      vertex 129.402 46.9474 0
      vertex 130.749 48.0932 0
      vertex 129.562 46.8718 0
    endloop
  endfacet
  facet normal 0 0 -1
    outer loop
      vertex 129.562 46.8718 0
      vertex 129.855 46.4961 0
      vertex 129.577 46.7719 0
    endloop
  endfacet
  facet normal 0 0 -1
    outer loop
      vertex 124.135 56.9813 0
      vertex 124.351 57.08 0
      vertex 124.445 56.731 0
    endloop
  endfacet
  facet normal 0 -0 -1
    outer loop
      vertex 129.577 46.7719 0
      vertex 129.855 46.4961 0
      vertex 129.529 46.5182 0
    endloop
  endfacet
  facet normal 0 0 -1
    outer loop
      vertex 129.562 46.8718 0
      vertex 130.749 48.0932 0
      vertex 129.855 46.4961 0
    endloop
  endfacet
  facet normal -0 0 -1
    outer loop
      vertex 131.822 49.0358 0
      vertex 130.782 48.1333 0
      vertex 131.947 51.6335 0
    endloop
  endfacet
  facet normal 0 0 -1
    outer loop
      vertex 132.743 50.7036 0
      vertex 132.013 51.5814 0
      vertex 132.783 51.2628 0
    endloop
  endfacet
  facet normal -0 0 -1
    outer loop
      vertex 132.743 50.7036 0
      vertex 131.822 49.0358 0
      vertex 132.013 51.5814 0
    endloop
  endfacet
  facet normal 0 0 -1
    outer loop
      vertex 129.623 53.9006 0
      vertex 130.502 53.6823 0
      vertex 131.947 51.6335 0
    endloop
  endfacet
  facet normal -0 0 -1
    outer loop
      vertex 131.947 51.6335 0
      vertex 130.782 48.1333 0
      vertex 129.564 53.9074 0
    endloop
  endfacet
  facet normal 0 0 -1
    outer loop
      vertex 129.564 53.9074 0
      vertex 130.782 48.1333 0
      vertex 130.749 48.0932 0
    endloop
  endfacet
  facet normal 0 -0 -1
    outer loop
      vertex 129.564 53.9074 0
      vertex 130.749 48.0932 0
      vertex 123.793 50.0956 0
    endloop
  endfacet
  facet normal -0 -0 -1
    outer loop
      vertex 126.828 54.8197 0
      vertex 126.894 54.7774 0
      vertex 124.448 54.9749 0
    endloop
  endfacet
  facet normal -0 0 -1
    outer loop
      vertex 125.758 56.0097 0
      vertex 124.433 55.5363 0
      vertex 125.733 56.0487 0
    endloop
  endfacet
  facet normal 0 0 -1
    outer loop
      vertex 124.433 55.5363 0
      vertex 124.317 55.6375 0
      vertex 124.685 56.654 0
    endloop
  endfacet
  facet normal 0 0 -1
    outer loop
      vertex 124.448 54.9749 0
      vertex 123.489 54.2434 0
      vertex 123.498 54.3256 0
    endloop
  endfacet
  facet normal 0 0 -1
    outer loop
      vertex 124.509 56.6437 0
      vertex 124.317 55.6375 0
      vertex 124.067 55.6837 0
    endloop
  endfacet
  facet normal 0 -0 -1
    outer loop
      vertex 124.448 54.9749 0
      vertex 126.894 54.7774 0
      vertex 123.489 54.2434 0
    endloop
  endfacet
  facet normal 0 -0 -1
    outer loop
      vertex 123.489 54.2434 0
      vertex 126.894 54.7774 0
      vertex 122.819 52.5979 0
    endloop
  endfacet
  facet normal 0 0 -1
    outer loop
      vertex 124.685 56.654 0
      vertex 125.253 57.1196 0
      vertex 125.733 56.0487 0
    endloop
  endfacet
  facet normal 0 -0 -1
    outer loop
      vertex 122.819 52.5979 0
      vertex 123.779 50.2169 0
      vertex 122.792 51.8688 0
    endloop
  endfacet
  facet normal 0 0 -1
    outer loop
      vertex 122.313 45.3255 0
      vertex 123.793 50.0956 0
      vertex 128.434 45.9861 0
    endloop
  endfacet
  facet normal 0 -0 -1
    outer loop
      vertex 124.135 56.9813 0
      vertex 124.445 56.731 0
      vertex 124.067 55.6837 0
    endloop
  endfacet
  facet normal 0 0 -1
    outer loop
      vertex 128.104 44.6561 0
      vertex 122.313 45.3255 0
      vertex 128.434 45.9861 0
    endloop
  endfacet
  facet normal -0 0 -1
    outer loop
      vertex 124.509 56.6437 0
      vertex 124.067 55.6837 0
      vertex 124.445 56.731 0
    endloop
  endfacet
  facet normal 0 0 -1
    outer loop
      vertex 124.433 55.5363 0
      vertex 124.685 56.654 0
      vertex 125.733 56.0487 0
    endloop
  endfacet
  facet normal 0 0 -1
    outer loop
      vertex 123.431 54.7097 0
      vertex 124.448 54.9749 0
      vertex 123.498 54.3256 0
    endloop
  endfacet
  facet normal 0 0 -1
    outer loop
      vertex 124.553 55.1663 0
      vertex 125.758 56.0097 0
      vertex 126.828 54.8197 0
    endloop
  endfacet
  facet normal -0 0 -1
    outer loop
      vertex 130.749 48.0932 0
      vertex 129.242 46.9174 0
      vertex 123.793 50.0956 0
    endloop
  endfacet
  facet normal 0 0 -1
    outer loop
      vertex 122.819 52.5979 0
      vertex 126.894 54.7774 0
      vertex 123.779 50.2169 0
    endloop
  endfacet
  facet normal 0 0 -1
    outer loop
      vertex 122.22 45.2286 0
      vertex 120.145 38.5099 0
      vertex 115.713 42.923 0
    endloop
  endfacet
  facet normal 0 0 -1
    outer loop
      vertex 126.148 42.512 0
      vertex 122.22 45.2286 0
      vertex 122.313 45.3255 0
    endloop
  endfacet
  facet normal 0 0 -1
    outer loop
      vertex 123.793 50.0956 0
      vertex 129.155 46.8666 0
      vertex 128.465 46.0466 0
    endloop
  endfacet
  facet normal 0 0 -1
    outer loop
      vertex 120.077 38.4909 0
      vertex 115.713 42.923 0
      vertex 120.145 38.5099 0
    endloop
  endfacet
  facet normal 0 0 -1
    outer loop
      vertex 122.313 45.3255 0
      vertex 126.239 42.5843 0
      vertex 126.148 42.512 0
    endloop
  endfacet
  facet normal -0 0 -1
    outer loop
      vertex 128.104 44.6561 0
      vertex 126.239 42.5843 0
      vertex 122.313 45.3255 0
    endloop
  endfacet
  facet normal 0 -0 -1
    outer loop
      vertex 122.22 45.2286 0
      vertex 122.675 39.806 0
      vertex 120.145 38.5099 0
    endloop
  endfacet
  facet normal -0 0 -1
    outer loop
      vertex 126.148 42.512 0
      vertex 123.265 40.4579 0
      vertex 122.22 45.2286 0
    endloop
  endfacet
  facet normal 0 0 -1
    outer loop
      vertex 118.057 37.7031 0
      vertex 115.713 42.923 0
      vertex 119.076 37.9316 0
    endloop
  endfacet
  facet normal 0 0 1
    outer loop
      vertex 120.145 38.5099 10
      vertex 122.64 39.7003 10
      vertex 122.675 39.806 10
    endloop
  endfacet
  facet normal 0 0 1
    outer loop
      vertex 115.713 42.923 10
      vertex 119.076 37.9316 10
      vertex 120.077 38.4909 10
    endloop
  endfacet
  facet normal 0 0 1
    outer loop
      vertex 128.465 46.0466 10
      vertex 123.793 50.0956 10
      vertex 128.434 45.9861 10
    endloop
  endfacet
  facet normal 0 0 1
    outer loop
      vertex 123.265 40.4579 10
      vertex 122.22 45.2286 10
      vertex 123.175 40.406 10
    endloop
  endfacet
  facet normal 0 0 1
    outer loop
      vertex 122.281 38.5872 10
      vertex 122.677 39.1342 10
      vertex 122.64 39.7003 10
    endloop
  endfacet
  facet normal 0 -0 1
    outer loop
      vertex 122.281 38.5872 10
      vertex 122.64 39.7003 10
      vertex 120.145 38.5099 10
    endloop
  endfacet
  facet normal 0 -0 1
    outer loop
      vertex 128.101 44.599 10
      vertex 128.104 44.6561 10
      vertex 126.239 42.5843 10
    endloop
  endfacet
  facet normal 0 0 1
    outer loop
      vertex 123.175 40.406 10
      vertex 122.22 45.2286 10
      vertex 122.675 39.806 10
    endloop
  endfacet
  facet normal 0 0 1
    outer loop
      vertex 124.685 56.654 10
      vertex 124.509 56.6437 10
      vertex 124.317 55.6375 10
    endloop
  endfacet
  facet normal 0 0 1
    outer loop
      vertex 126.828 54.8197 10
      vertex 124.553 55.1663 10
      vertex 124.448 54.9749 10
    endloop
  endfacet
  facet normal 0 -0 1
    outer loop
      vertex 125.203 40.7858 10
      vertex 126.148 42.512 10
      vertex 123.265 40.4579 10
    endloop
  endfacet
  facet normal 0 0 1
    outer loop
      vertex 132.013 51.5814 10
      vertex 131.947 51.6335 10
      vertex 131.822 49.0358 10
    endloop
  endfacet
  facet normal 0 -0 1
    outer loop
      vertex 129.155 46.8666 10
      vertex 129.242 46.9174 10
      vertex 123.793 50.0956 10
    endloop
  endfacet
  facet normal 0 0 1
    outer loop
      vertex 128.303 43.1687 10
      vertex 128.101 44.599 10
      vertex 126.239 42.5843 10
    endloop
  endfacet
  facet normal 0 0 1
    outer loop
      vertex 130.502 53.6823 10
      vertex 130.129 53.9457 10
      vertex 129.623 53.9006 10
    endloop
  endfacet
  facet normal 0 0 1
    outer loop
      vertex 125.758 56.0097 10
      vertex 124.433 55.5363 10
      vertex 124.553 55.1663 10
    endloop
  endfacet
  facet normal 0 0 1
    outer loop
      vertex 123.779 50.2169 10
      vertex 129.564 53.9074 10
      vertex 126.894 54.7774 10
    endloop
  endfacet
  facet normal -0 0 1
    outer loop
      vertex 123.779 50.2169 10
      vertex 123.793 50.0956 10
      vertex 129.564 53.9074 10
    endloop
  endfacet
  facet normal 0 0 1
    outer loop
      vertex 129.623 53.9006 10
      vertex 129.564 53.9074 10
      vertex 131.947 51.6335 10
    endloop
  endfacet
  facet normal 0 -0 1
    outer loop
      vertex 129.402 46.9474 10
      vertex 130.749 48.0932 10
      vertex 129.242 46.9174 10
    endloop
  endfacet
  facet normal 0 -0 1
    outer loop
      vertex 129.562 46.8718 10
      vertex 130.749 48.0932 10
      vertex 129.402 46.9474 10
    endloop
  endfacet
  facet normal -0 -0 1
    outer loop
      vertex 129.577 46.7719 10
      vertex 129.855 46.4961 10
      vertex 129.562 46.8718 10
    endloop
  endfacet
  facet normal 0 0 1
    outer loop
      vertex 124.445 56.731 10
      vertex 124.351 57.08 10
      vertex 124.135 56.9813 10
    endloop
  endfacet
  facet normal -0 0 1
    outer loop
      vertex 129.529 46.5182 10
      vertex 129.855 46.4961 10
      vertex 129.577 46.7719 10
    endloop
  endfacet
  facet normal 0 -0 1
    outer loop
      vertex 129.855 46.4961 10
      vertex 130.749 48.0932 10
      vertex 129.562 46.8718 10
    endloop
  endfacet
  facet normal 0 0 1
    outer loop
      vertex 131.947 51.6335 10
      vertex 130.782 48.1333 10
      vertex 131.822 49.0358 10
    endloop
  endfacet
  facet normal 0 0 1
    outer loop
      vertex 132.783 51.2628 10
      vertex 132.013 51.5814 10
      vertex 132.743 50.7036 10
    endloop
  endfacet
  facet normal 0 0 1
    outer loop
      vertex 132.013 51.5814 10
      vertex 131.822 49.0358 10
      vertex 132.743 50.7036 10
    endloop
  endfacet
  facet normal 0 0 1
    outer loop
      vertex 131.947 51.6335 10
      vertex 130.502 53.6823 10
      vertex 129.623 53.9006 10
    endloop
  endfacet
  facet normal 0 0 1
    outer loop
      vertex 129.564 53.9074 10
      vertex 130.782 48.1333 10
      vertex 131.947 51.6335 10
    endloop
  endfacet
  facet normal 0 -0 1
    outer loop
      vertex 130.749 48.0932 10
      vertex 130.782 48.1333 10
      vertex 129.564 53.9074 10
    endloop
  endfacet
  facet normal -0 0 1
    outer loop
      vertex 123.793 50.0956 10
      vertex 130.749 48.0932 10
      vertex 129.564 53.9074 10
    endloop
  endfacet
  facet normal 0 0 1
    outer loop
      vertex 124.448 54.9749 10
      vertex 126.894 54.7774 10
      vertex 126.828 54.8197 10
    endloop
  endfacet
  facet normal 0 0 1
    outer loop
      vertex 125.733 56.0487 10
      vertex 124.433 55.5363 10
      vertex 125.758 56.0097 10
    endloop
  endfacet
  facet normal 0 0 1
    outer loop
      vertex 124.685 56.654 10
      vertex 124.317 55.6375 10
      vertex 124.433 55.5363 10
    endloop
  endfacet
  facet normal -0 0 1
    outer loop
      vertex 123.498 54.3256 10
      vertex 123.489 54.2434 10
      vertex 124.448 54.9749 10
    endloop
  endfacet
  facet normal -0 0 1
    outer loop
      vertex 124.067 55.6837 10
      vertex 124.317 55.6375 10
      vertex 124.509 56.6437 10
    endloop
  endfacet
  facet normal 0 0 1
    outer loop
      vertex 123.489 54.2434 10
      vertex 126.894 54.7774 10
      vertex 124.448 54.9749 10
    endloop
  endfacet
  facet normal 0 0 1
    outer loop
      vertex 122.819 52.5979 10
      vertex 126.894 54.7774 10
      vertex 123.489 54.2434 10
    endloop
  endfacet
  facet normal 0 0 1
    outer loop
      vertex 125.733 56.0487 10
      vertex 125.253 57.1196 10
      vertex 124.685 56.654 10
    endloop
  endfacet
  facet normal -0 0 1
    outer loop
      vertex 122.792 51.8688 10
      vertex 123.779 50.2169 10
      vertex 122.819 52.5979 10
    endloop
  endfacet
  facet normal 0 0 1
    outer loop
      vertex 128.434 45.9861 10
      vertex 123.793 50.0956 10
      vertex 122.313 45.3255 10
    endloop
  endfacet
  facet normal 0 0 1
    outer loop
      vertex 124.067 55.6837 10
      vertex 124.445 56.731 10
      vertex 124.135 56.9813 10
    endloop
  endfacet
  facet normal 0 0 1
    outer loop
      vertex 128.434 45.9861 10
      vertex 122.313 45.3255 10
      vertex 128.104 44.6561 10
    endloop
  endfacet
  facet normal 0 0 1
    outer loop
      vertex 124.445 56.731 10
      vertex 124.067 55.6837 10
      vertex 124.509 56.6437 10
    endloop
  endfacet
  facet normal 0 0 1
    outer loop
      vertex 125.733 56.0487 10
      vertex 124.685 56.654 10
      vertex 124.433 55.5363 10
    endloop
  endfacet
  facet normal 0 -0 1
    outer loop
      vertex 123.498 54.3256 10
      vertex 124.448 54.9749 10
      vertex 123.431 54.7097 10
    endloop
  endfacet
  facet normal 0 0 1
    outer loop
      vertex 126.828 54.8197 10
      vertex 125.758 56.0097 10
      vertex 124.553 55.1663 10
    endloop
  endfacet
  facet normal 0 0 1
    outer loop
      vertex 123.793 50.0956 10
      vertex 129.242 46.9174 10
      vertex 130.749 48.0932 10
    endloop
  endfacet
  facet normal 0 -0 1
    outer loop
      vertex 123.779 50.2169 10
      vertex 126.894 54.7774 10
      vertex 122.819 52.5979 10
    endloop
  endfacet
  facet normal -0 0 1
    outer loop
      vertex 115.713 42.923 10
      vertex 120.145 38.5099 10
      vertex 122.22 45.2286 10
    endloop
  endfacet
  facet normal 0 0 1
    outer loop
      vertex 122.313 45.3255 10
      vertex 122.22 45.2286 10
      vertex 126.148 42.512 10
    endloop
  endfacet
  facet normal 0 -0 1
    outer loop
      vertex 128.465 46.0466 10
      vertex 129.155 46.8666 10
      vertex 123.793 50.0956 10
    endloop
  endfacet
  facet normal 0 0 1
    outer loop
      vertex 120.145 38.5099 10
      vertex 115.713 42.923 10
      vertex 120.077 38.4909 10
    endloop
  endfacet
  facet normal 0 -0 1
    outer loop
      vertex 126.148 42.512 10
      vertex 126.239 42.5843 10
      vertex 122.313 45.3255 10
    endloop
  endfacet
  facet normal 0 0 1
    outer loop
      vertex 122.313 45.3255 10
      vertex 126.239 42.5843 10
      vertex 128.104 44.6561 10
    endloop
  endfacet
  facet normal 0 0 1
    outer loop
      vertex 120.145 38.5099 10
      vertex 122.675 39.806 10
      vertex 122.22 45.2286 10
    endloop
  endfacet
  facet normal 0 0 1
    outer loop
      vertex 122.22 45.2286 10
      vertex 123.265 40.4579 10
      vertex 126.148 42.512 10
    endloop
  endfacet
  facet normal 0 0 1
    outer loop
      vertex 119.076 37.9316 10
      vertex 115.713 42.923 10
      vertex 118.057 37.7031 10
    endloop
  endfacet
  facet normal 0.487767 -0.872974 0
    outer loop
      vertex 120.077 38.4909 0
      vertex 119.076 37.9316 10
      vertex 119.076 37.9316 0
    endloop
  endfacet
  facet normal 0.487767 -0.872974 0
    outer loop
      vertex 120.077 38.4909 0
      vertex 120.077 38.4909 10
      vertex 119.076 37.9316 10
    endloop
  endfacet
  facet normal 0.269105 -0.963111 0
    outer loop
      vertex 120.145 38.5099 0
      vertex 120.077 38.4909 10
      vertex 120.077 38.4909 0
    endloop
  endfacet
  facet normal 0.269105 -0.963111 0
    outer loop
      vertex 120.145 38.5099 0
      vertex 120.145 38.5099 10
      vertex 120.077 38.4909 10
    endloop
  endfacet
  facet normal 0.0361655 -0.999346 0
    outer loop
      vertex 122.281 38.5872 0
      vertex 120.145 38.5099 10
      vertex 120.145 38.5099 0
    endloop
  endfacet
  facet normal 0.0361655 -0.999346 0
    outer loop
      vertex 122.281 38.5872 0
      vertex 122.281 38.5872 10
      vertex 120.145 38.5099 10
    endloop
  endfacet
  facet normal 0.810015 -0.586409 0
    outer loop
      vertex 122.677 39.1342 0
      vertex 122.281 38.5872 10
      vertex 122.281 38.5872 0
    endloop
  endfacet
  facet normal 0.810015 -0.586409 0
    outer loop
      vertex 122.677 39.1342 0
      vertex 122.677 39.1342 10
      vertex 122.281 38.5872 10
    endloop
  endfacet
  facet normal 0.997871 0.0652203 0
    outer loop
      vertex 122.64 39.7003 0
      vertex 122.677 39.1342 10
      vertex 122.677 39.1342 0
    endloop
  endfacet
  facet normal 0.997871 0.0652203 -0
    outer loop
      vertex 122.64 39.7003 0
      vertex 122.64 39.7003 10
      vertex 122.677 39.1342 10
    endloop
  endfacet
  facet normal 0.94931 -0.314341 0
    outer loop
      vertex 122.675 39.806 0
      vertex 122.64 39.7003 10
      vertex 122.64 39.7003 0
    endloop
  endfacet
  facet normal 0.94931 -0.314341 0
    outer loop
      vertex 122.675 39.806 0
      vertex 122.675 39.806 10
      vertex 122.64 39.7003 10
    endloop
  endfacet
  facet normal 0.768221 -0.640184 0
    outer loop
      vertex 123.175 40.406 0
      vertex 122.675 39.806 10
      vertex 122.675 39.806 0
    endloop
  endfacet
  facet normal 0.768221 -0.640184 0
    outer loop
      vertex 123.175 40.406 0
      vertex 123.175 40.406 10
      vertex 122.675 39.806 10
    endloop
  endfacet
  facet normal 0.499556 -0.866282 0
    outer loop
      vertex 123.265 40.4579 0
      vertex 123.175 40.406 10
      vertex 123.175 40.406 0
    endloop
  endfacet
  facet normal 0.499556 -0.866282 0
    outer loop
      vertex 123.265 40.4579 0
      vertex 123.265 40.4579 10
      vertex 123.175 40.406 10
    endloop
  endfacet
  facet normal 0.166824 -0.985987 0
    outer loop
      vertex 125.203 40.7858 0
      vertex 123.265 40.4579 10
      vertex 123.265 40.4579 0
    endloop
  endfacet
  facet normal 0.166824 -0.985987 0
    outer loop
      vertex 125.203 40.7858 0
      vertex 125.203 40.7858 10
      vertex 123.265 40.4579 10
    endloop
  endfacet
  facet normal 0.87716 -0.480197 0
    outer loop
      vertex 126.148 42.512 0
      vertex 125.203 40.7858 10
      vertex 125.203 40.7858 0
    endloop
  endfacet
  facet normal 0.87716 -0.480197 0
    outer loop
      vertex 126.148 42.512 0
      vertex 126.148 42.512 10
      vertex 125.203 40.7858 10
    endloop
  endfacet
  facet normal 0.622068 -0.782963 0
    outer loop
      vertex 126.239 42.5843 0
      vertex 126.148 42.512 10
      vertex 126.148 42.512 0
    endloop
  endfacet
  facet normal 0.622068 -0.782963 0
    outer loop
      vertex 126.239 42.5843 0
      vertex 126.239 42.5843 10
      vertex 126.148 42.512 10
    endloop
  endfacet
  facet normal 0.27243 -0.962176 0
    outer loop
      vertex 128.303 43.1687 0
      vertex 126.239 42.5843 10
      vertex 126.239 42.5843 0
    endloop
  endfacet
  facet normal 0.27243 -0.962176 0
    outer loop
      vertex 128.303 43.1687 0
      vertex 128.303 43.1687 10
      vertex 126.239 42.5843 10
    endloop
  endfacet
  facet normal 0.990174 0.139841 0
    outer loop
      vertex 128.101 44.599 0
      vertex 128.303 43.1687 10
      vertex 128.303 43.1687 0
    endloop
  endfacet
  facet normal 0.990174 0.139841 -0
    outer loop
      vertex 128.101 44.599 0
      vertex 128.101 44.599 10
      vertex 128.303 43.1687 10
    endloop
  endfacet
  facet normal 0.998623 -0.052467 0
    outer loop
      vertex 128.104 44.6561 0
      vertex 128.101 44.599 10
      vertex 128.101 44.599 0
    endloop
  endfacet
  facet normal 0.998623 -0.052467 0
    outer loop
      vertex 128.104 44.6561 0
      vertex 128.104 44.6561 10
      vertex 128.101 44.599 10
    endloop
  endfacet
  facet normal 0.97057 -0.240818 0
    outer loop
      vertex 128.434 45.9861 0
      vertex 128.104 44.6561 10
      vertex 128.104 44.6561 0
    endloop
  endfacet
  facet normal 0.97057 -0.240818 0
    outer loop
      vertex 128.434 45.9861 0
      vertex 128.434 45.9861 10
      vertex 128.104 44.6561 10
    endloop
  endfacet
  facet normal 0.889971 -0.456018 0
    outer loop
      vertex 128.465 46.0466 0
      vertex 128.434 45.9861 10
      vertex 128.434 45.9861 0
    endloop
  endfacet
  facet normal 0.889971 -0.456018 0
    outer loop
      vertex 128.465 46.0466 0
      vertex 128.465 46.0466 10
      vertex 128.434 45.9861 10
    endloop
  endfacet
  facet normal 0.765153 -0.643848 0
    outer loop
      vertex 129.155 46.8666 0
      vertex 128.465 46.0466 10
      vertex 128.465 46.0466 0
    endloop
  endfacet
  facet normal 0.765153 -0.643848 0
    outer loop
      vertex 129.155 46.8666 0
      vertex 129.155 46.8666 10
      vertex 128.465 46.0466 10
    endloop
  endfacet
  facet normal 0.504241 -0.863563 0
    outer loop
      vertex 129.242 46.9174 0
      vertex 129.155 46.8666 10
      vertex 129.155 46.8666 0
    endloop
  endfacet
  facet normal 0.504241 -0.863563 0
    outer loop
      vertex 129.242 46.9174 0
      vertex 129.242 46.9174 10
      vertex 129.155 46.8666 10
    endloop
  endfacet
  facet normal 0.184289 -0.982872 0
    outer loop
      vertex 129.402 46.9474 0
      vertex 129.242 46.9174 10
      vertex 129.242 46.9174 0
    endloop
  endfacet
  facet normal 0.184289 -0.982872 0
    outer loop
      vertex 129.402 46.9474 0
      vertex 129.402 46.9474 10
      vertex 129.242 46.9174 10
    endloop
  endfacet
  facet normal -0.427212 -0.904152 0
    outer loop
      vertex 129.562 46.8718 0
      vertex 129.402 46.9474 10
      vertex 129.402 46.9474 0
    endloop
  endfacet
  facet normal -0.427212 -0.904152 0
    outer loop
      vertex 129.562 46.8718 0
      vertex 129.562 46.8718 10
      vertex 129.402 46.9474 10
    endloop
  endfacet
  facet normal -0.988915 -0.148486 0
    outer loop
      vertex 129.577 46.7719 0
      vertex 129.562 46.8718 10
      vertex 129.562 46.8718 0
    endloop
  endfacet
  facet normal -0.988915 -0.148486 0
    outer loop
      vertex 129.577 46.7719 0
      vertex 129.577 46.7719 10
      vertex 129.562 46.8718 10
    endloop
  endfacet
  facet normal -0.982568 0.185902 0
    outer loop
      vertex 129.529 46.5182 0
      vertex 129.577 46.7719 10
      vertex 129.577 46.7719 0
    endloop
  endfacet
  facet normal -0.982568 0.185902 0
    outer loop
      vertex 129.529 46.5182 0
      vertex 129.529 46.5182 10
      vertex 129.577 46.7719 10
    endloop
  endfacet
  facet normal -0.0676362 -0.99771 0
    outer loop
      vertex 129.855 46.4961 0
      vertex 129.529 46.5182 10
      vertex 129.529 46.5182 0
    endloop
  endfacet
  facet normal -0.0676362 -0.99771 0
    outer loop
      vertex 129.855 46.4961 0
      vertex 129.855 46.4961 10
      vertex 129.529 46.5182 10
    endloop
  endfacet
  facet normal 0.872594 -0.488447 0
    outer loop
      vertex 130.749 48.0932 0
      vertex 129.855 46.4961 10
      vertex 129.855 46.4961 0
    endloop
  endfacet
  facet normal 0.872594 -0.488447 0
    outer loop
      vertex 130.749 48.0932 0
      vertex 130.749 48.0932 10
      vertex 129.855 46.4961 10
    endloop
  endfacet
  facet normal 0.772153 -0.635437 0
    outer loop
      vertex 130.782 48.1333 0
      vertex 130.749 48.0932 10
      vertex 130.749 48.0932 0
    endloop
  endfacet
  facet normal 0.772153 -0.635437 0
    outer loop
      vertex 130.782 48.1333 0
      vertex 130.782 48.1333 10
      vertex 130.749 48.0932 10
    endloop
  endfacet
  facet normal 0.655414 -0.75527 0
    outer loop
      vertex 131.822 49.0358 0
      vertex 130.782 48.1333 10
      vertex 130.782 48.1333 0
    endloop
  endfacet
  facet normal 0.655414 -0.75527 0
    outer loop
      vertex 131.822 49.0358 0
      vertex 131.822 49.0358 10
      vertex 130.782 48.1333 10
    endloop
  endfacet
  facet normal 0.875392 -0.483413 0
    outer loop
      vertex 132.743 50.7036 0
      vertex 131.822 49.0358 10
      vertex 131.822 49.0358 0
    endloop
  endfacet
  facet normal 0.875392 -0.483413 0
    outer loop
      vertex 132.743 50.7036 0
      vertex 132.743 50.7036 10
      vertex 131.822 49.0358 10
    endloop
  endfacet
  facet normal 0.997451 -0.0713485 0
    outer loop
      vertex 132.783 51.2628 0
      vertex 132.743 50.7036 10
      vertex 132.743 50.7036 0
    endloop
  endfacet
  facet normal 0.997451 -0.0713485 0
    outer loop
      vertex 132.783 51.2628 0
      vertex 132.783 51.2628 10
      vertex 132.743 50.7036 10
    endloop
  endfacet
  facet normal 0.382331 0.924026 0
    outer loop
      vertex 132.013 51.5814 0
      vertex 132.783 51.2628 10
      vertex 132.783 51.2628 0
    endloop
  endfacet
  facet normal 0.382331 0.924026 -0
    outer loop
      vertex 132.013 51.5814 0
      vertex 132.013 51.5814 10
      vertex 132.783 51.2628 10
    endloop
  endfacet
  facet normal 0.619606 0.784913 0
    outer loop
      vertex 131.947 51.6335 0
      vertex 132.013 51.5814 10
      vertex 132.013 51.5814 0
    endloop
  endfacet
  facet normal 0.619606 0.784913 -0
    outer loop
      vertex 131.947 51.6335 0
      vertex 131.947 51.6335 10
      vertex 132.013 51.5814 10
    endloop
  endfacet
  facet normal 0.817196 0.576361 0
    outer loop
      vertex 130.502 53.6823 0
      vertex 131.947 51.6335 10
      vertex 131.947 51.6335 0
    endloop
  endfacet
  facet normal 0.817196 0.576361 -0
    outer loop
      vertex 130.502 53.6823 0
      vertex 130.502 53.6823 10
      vertex 131.947 51.6335 10
    endloop
  endfacet
  facet normal 0.576838 0.816859 0
    outer loop
      vertex 130.129 53.9457 0
      vertex 130.502 53.6823 10
      vertex 130.502 53.6823 0
    endloop
  endfacet
  facet normal 0.576838 0.816859 -0
    outer loop
      vertex 130.129 53.9457 0
      vertex 130.129 53.9457 10
      vertex 130.502 53.6823 10
    endloop
  endfacet
  facet normal -0.0887785 0.996051 0
    outer loop
      vertex 129.623 53.9006 0
      vertex 130.129 53.9457 10
      vertex 130.129 53.9457 0
    endloop
  endfacet
  facet normal -0.0887785 0.996051 0
    outer loop
      vertex 129.623 53.9006 0
      vertex 129.623 53.9006 10
      vertex 130.129 53.9457 10
    endloop
  endfacet
  facet normal 0.114496 0.993424 0
    outer loop
      vertex 129.564 53.9074 0
      vertex 129.623 53.9006 10
      vertex 129.623 53.9006 0
    endloop
  endfacet
  facet normal 0.114496 0.993424 -0
    outer loop
      vertex 129.564 53.9074 0
      vertex 129.564 53.9074 10
      vertex 129.623 53.9006 10
    endloop
  endfacet
  facet normal 0.309811 0.950798 0
    outer loop
      vertex 126.894 54.7774 0
      vertex 129.564 53.9074 10
      vertex 129.564 53.9074 0
    endloop
  endfacet
  facet normal 0.309811 0.950798 -0
    outer loop
      vertex 126.894 54.7774 0
      vertex 126.894 54.7774 10
      vertex 129.564 53.9074 10
    endloop
  endfacet
  facet normal 0.539597 0.841924 0
    outer loop
      vertex 126.828 54.8197 0
      vertex 126.894 54.7774 10
      vertex 126.894 54.7774 0
    endloop
  endfacet
  facet normal 0.539597 0.841924 -0
    outer loop
      vertex 126.828 54.8197 0
      vertex 126.828 54.8197 10
      vertex 126.894 54.7774 10
    endloop
  endfacet
  facet normal 0.743605 0.668619 0
    outer loop
      vertex 125.758 56.0097 0
      vertex 126.828 54.8197 10
      vertex 126.828 54.8197 0
    endloop
  endfacet
  facet normal 0.743605 0.668619 -0
    outer loop
      vertex 125.758 56.0097 0
      vertex 125.758 56.0097 10
      vertex 126.828 54.8197 10
    endloop
  endfacet
  facet normal 0.841879 0.539666 0
    outer loop
      vertex 125.733 56.0487 0
      vertex 125.758 56.0097 10
      vertex 125.758 56.0097 0
    endloop
  endfacet
  facet normal 0.841879 0.539666 -0
    outer loop
      vertex 125.733 56.0487 0
      vertex 125.733 56.0487 10
      vertex 125.758 56.0097 10
    endloop
  endfacet
  facet normal 0.912528 0.409014 0
    outer loop
      vertex 125.253 57.1196 0
      vertex 125.733 56.0487 10
      vertex 125.733 56.0487 0
    endloop
  endfacet
  facet normal 0.912528 0.409014 -0
    outer loop
      vertex 125.253 57.1196 0
      vertex 125.253 57.1196 10
      vertex 125.733 56.0487 10
    endloop
  endfacet
  facet normal -0.633949 0.773375 0
    outer loop
      vertex 124.685 56.654 0
      vertex 125.253 57.1196 10
      vertex 125.253 57.1196 0
    endloop
  endfacet
  facet normal -0.633949 0.773375 0
    outer loop
      vertex 124.685 56.654 0
      vertex 124.685 56.654 10
      vertex 125.253 57.1196 10
    endloop
  endfacet
  facet normal -0.0584228 0.998292 0
    outer loop
      vertex 124.509 56.6437 0
      vertex 124.685 56.654 10
      vertex 124.685 56.654 0
    endloop
  endfacet
  facet normal -0.0584228 0.998292 0
    outer loop
      vertex 124.509 56.6437 0
      vertex 124.509 56.6437 10
      vertex 124.685 56.654 10
    endloop
  endfacet
  facet normal 0.806493 0.591244 0
    outer loop
      vertex 124.445 56.731 0
      vertex 124.509 56.6437 10
      vertex 124.509 56.6437 0
    endloop
  endfacet
  facet normal 0.806493 0.591244 -0
    outer loop
      vertex 124.445 56.731 0
      vertex 124.445 56.731 10
      vertex 124.509 56.6437 10
    endloop
  endfacet
  facet normal 0.965589 0.260073 0
    outer loop
      vertex 124.351 57.08 0
      vertex 124.445 56.731 10
      vertex 124.445 56.731 0
    endloop
  endfacet
  facet normal 0.965589 0.260073 -0
    outer loop
      vertex 124.351 57.08 0
      vertex 124.351 57.08 10
      vertex 124.445 56.731 10
    endloop
  endfacet
  facet normal -0.41561 0.909543 0
    outer loop
      vertex 124.135 56.9813 0
      vertex 124.351 57.08 10
      vertex 124.351 57.08 0
    endloop
  endfacet
  facet normal -0.41561 0.909543 0
    outer loop
      vertex 124.135 56.9813 0
      vertex 124.135 56.9813 10
      vertex 124.351 57.08 10
    endloop
  endfacet
  facet normal -0.99863 0.0523326 0
    outer loop
      vertex 124.067 55.6837 0
      vertex 124.135 56.9813 10
      vertex 124.135 56.9813 0
    endloop
  endfacet
  facet normal -0.99863 0.0523326 0
    outer loop
      vertex 124.067 55.6837 0
      vertex 124.067 55.6837 10
      vertex 124.135 56.9813 10
    endloop
  endfacet
  facet normal -0.181723 -0.98335 0
    outer loop
      vertex 124.317 55.6375 0
      vertex 124.067 55.6837 10
      vertex 124.067 55.6837 0
    endloop
  endfacet
  facet normal -0.181723 -0.98335 0
    outer loop
      vertex 124.317 55.6375 0
      vertex 124.317 55.6375 10
      vertex 124.067 55.6837 10
    endloop
  endfacet
  facet normal -0.6574 -0.753542 0
    outer loop
      vertex 124.433 55.5363 0
      vertex 124.317 55.6375 10
      vertex 124.317 55.6375 0
    endloop
  endfacet
  facet normal -0.6574 -0.753542 0
    outer loop
      vertex 124.433 55.5363 0
      vertex 124.433 55.5363 10
      vertex 124.317 55.6375 10
    endloop
  endfacet
  facet normal -0.951223 -0.308505 0
    outer loop
      vertex 124.553 55.1663 0
      vertex 124.433 55.5363 10
      vertex 124.433 55.5363 0
    endloop
  endfacet
  facet normal -0.951223 -0.308505 0
    outer loop
      vertex 124.553 55.1663 0
      vertex 124.553 55.1663 10
      vertex 124.433 55.5363 10
    endloop
  endfacet
  facet normal -0.876738 0.480969 0
    outer loop
      vertex 124.448 54.9749 0
      vertex 124.553 55.1663 10
      vertex 124.553 55.1663 0
    endloop
  endfacet
  facet normal -0.876738 0.480969 0
    outer loop
      vertex 124.448 54.9749 0
      vertex 124.448 54.9749 10
      vertex 124.553 55.1663 10
    endloop
  endfacet
  facet normal -0.252329 0.967642 0
    outer loop
      vertex 123.431 54.7097 0
      vertex 124.448 54.9749 10
      vertex 124.448 54.9749 0
    endloop
  endfacet
  facet normal -0.252329 0.967642 0
    outer loop
      vertex 123.431 54.7097 0
      vertex 123.431 54.7097 10
      vertex 124.448 54.9749 10
    endloop
  endfacet
  facet normal -0.985125 -0.171839 0
    outer loop
      vertex 123.498 54.3256 0
      vertex 123.431 54.7097 10
      vertex 123.431 54.7097 0
    endloop
  endfacet
  facet normal -0.985125 -0.171839 0
    outer loop
      vertex 123.498 54.3256 0
      vertex 123.498 54.3256 10
      vertex 123.431 54.7097 10
    endloop
  endfacet
  facet normal -0.994059 0.108839 0
    outer loop
      vertex 123.489 54.2434 0
      vertex 123.498 54.3256 10
      vertex 123.498 54.3256 0
    endloop
  endfacet
  facet normal -0.994059 0.108839 0
    outer loop
      vertex 123.489 54.2434 0
      vertex 123.489 54.2434 10
      vertex 123.498 54.3256 10
    endloop
  endfacet
  facet normal -0.926169 0.377109 0
    outer loop
      vertex 122.819 52.5979 0
      vertex 123.489 54.2434 10
      vertex 123.489 54.2434 0
    endloop
  endfacet
  facet normal -0.926169 0.377109 0
    outer loop
      vertex 122.819 52.5979 0
      vertex 122.819 52.5979 10
      vertex 123.489 54.2434 10
    endloop
  endfacet
  facet normal -0.999315 0.0370066 0
    outer loop
      vertex 122.792 51.8688 0
      vertex 122.819 52.5979 10
      vertex 122.819 52.5979 0
    endloop
  endfacet
  facet normal -0.999315 0.0370066 0
    outer loop
      vertex 122.792 51.8688 0
      vertex 122.792 51.8688 10
      vertex 122.819 52.5979 10
    endloop
  endfacet
  facet normal -0.858441 -0.512913 0
    outer loop
      vertex 123.779 50.2169 0
      vertex 122.792 51.8688 10
      vertex 122.792 51.8688 0
    endloop
  endfacet
  facet normal -0.858441 -0.512913 0
    outer loop
      vertex 123.779 50.2169 0
      vertex 123.779 50.2169 10
      vertex 122.792 51.8688 10
    endloop
  endfacet
  facet normal -0.993405 -0.114655 0
    outer loop
      vertex 123.793 50.0956 0
      vertex 123.779 50.2169 10
      vertex 123.779 50.2169 0
    endloop
  endfacet
  facet normal -0.993405 -0.114655 0
    outer loop
      vertex 123.793 50.0956 0
      vertex 123.793 50.0956 10
      vertex 123.779 50.2169 10
    endloop
  endfacet
  facet normal -0.955085 0.296331 0
    outer loop
      vertex 122.313 45.3255 0
      vertex 123.793 50.0956 10
      vertex 123.793 50.0956 0
    endloop
  endfacet
  facet normal -0.955085 0.296331 0
    outer loop
      vertex 122.313 45.3255 0
      vertex 122.313 45.3255 10
      vertex 123.793 50.0956 10
    endloop
  endfacet
  facet normal -0.721477 0.692439 0
    outer loop
      vertex 122.22 45.2286 0
      vertex 122.313 45.3255 10
      vertex 122.313 45.3255 0
    endloop
  endfacet
  facet normal -0.721477 0.692439 0
    outer loop
      vertex 122.22 45.2286 0
      vertex 122.22 45.2286 10
      vertex 122.313 45.3255 10
    endloop
  endfacet
  facet normal -0.333981 0.94258 0
    outer loop
      vertex 115.713 42.923 0
      vertex 122.22 45.2286 10
      vertex 122.22 45.2286 0
    endloop
  endfacet
  facet normal -0.333981 0.94258 0
    outer loop
      vertex 115.713 42.923 0
      vertex 115.713 42.923 10
      vertex 122.22 45.2286 10
    endloop
  endfacet
  facet normal -0.912245 -0.409644 0
    outer loop
      vertex 118.057 37.7031 0
      vertex 115.713 42.923 10
      vertex 115.713 42.923 0
    endloop
  endfacet
  facet normal -0.912245 -0.409644 0
    outer loop
      vertex 118.057 37.7031 0
      vertex 118.057 37.7031 10
      vertex 115.713 42.923 10
    endloop
  endfacet
  facet normal 0.218806 -0.975768 0
    outer loop
      vertex 119.076 37.9316 0
      vertex 118.057 37.7031 10
      vertex 118.057 37.7031 0
    endloop
  endfacet
  facet normal 0.218806 -0.975768 0
    outer loop
      vertex 119.076 37.9316 0
      vertex 119.076 37.9316 10
      vertex 118.057 37.7031 10
    endloop
  endfacet
endsolid OpenSCAD_Model
