solid OpenSCAD_Model
  facet normal 0 0 -1
    outer loop
      vertex -163.656 -25.1248 10
      vertex -163.089 -26.1742 10
      vertex -163.41 -26.2693 10
    endloop
  endfacet
  facet normal 0 0 -1
    outer loop
      vertex -165.373 -23.5367 10
      vertex -166.154 -24.0025 10
      vertex -168.467 -24.0048 10
    endloop
  endfacet
  facet normal 0 0 -1
    outer loop
      vertex -163.902 -25.1685 10
      vertex -163.656 -25.1248 10
      vertex -163.737 -26.3037 10
    endloop
  endfacet
  facet normal 0 0 -1
    outer loop
      vertex -163.656 -25.1248 10
      vertex -163.4 -25.0063 10
      vertex -163.089 -26.1742 10
    endloop
  endfacet
  facet normal 0 0 -1
    outer loop
      vertex -163.089 -26.1742 10
      vertex -163.4 -25.0063 10
      vertex -162.774 -26.0185 10
    endloop
  endfacet
  facet normal 0 0 -1
    outer loop
      vertex -164.061 -26.2762 10
      vertex -163.902 -25.1685 10
      vertex -163.737 -26.3037 10
    endloop
  endfacet
  facet normal 0 0 -1
    outer loop
      vertex -162.353 -25.6968 10
      vertex -163.035 -24.653 10
      vertex -162.068 -25.3148 10
    endloop
  endfacet
  facet normal -0 0 -1
    outer loop
      vertex -162.043 -23.8551 10
      vertex -162.96 -24.2005 10
      vertex -162.318 -23.2925 10
    endloop
  endfacet
  facet normal 0 0 -1
    outer loop
      vertex -163.035 -24.653 10
      vertex -162.96 -24.2005 10
      vertex -161.91 -24.3817 10
    endloop
  endfacet
  facet normal 0 0 -1
    outer loop
      vertex -161.91 -24.3817 10
      vertex -162.96 -24.2005 10
      vertex -162.043 -23.8551 10
    endloop
  endfacet
  facet normal 0 0 -1
    outer loop
      vertex -161.919 -24.8723 10
      vertex -163.035 -24.653 10
      vertex -161.91 -24.3817 10
    endloop
  endfacet
  facet normal 0 0 -1
    outer loop
      vertex -162.353 -25.6968 10
      vertex -163.4 -25.0063 10
      vertex -163.035 -24.653 10
    endloop
  endfacet
  facet normal 0 0 -1
    outer loop
      vertex -159.068 -35.1386 10
      vertex -160.324 -37.665 10
      vertex -161.005 -36.5221 10
    endloop
  endfacet
  facet normal -0 0 -1
    outer loop
      vertex -163.902 -25.1685 10
      vertex -164.373 -26.1858 10
      vertex -164.136 -25.1372 10
    endloop
  endfacet
  facet normal 0 0 -1
    outer loop
      vertex -162.277 -27.9158 10
      vertex -160.734 -30.5045 10
      vertex -161.519 -30.9723 10
    endloop
  endfacet
  facet normal 0 0 -1
    outer loop
      vertex -162.96 -24.2005 10
      vertex -163.174 -23.6488 10
      vertex -162.318 -23.2925 10
    endloop
  endfacet
  facet normal 0 0 -1
    outer loop
      vertex -158.462 -35.5446 10
      vertex -158.167 -34.5341 10
      vertex -158.115 -35.6297 10
    endloop
  endfacet
  facet normal 0 0 -1
    outer loop
      vertex -164.951 -25.8173 10
      vertex -164.355 -25.0333 10
      vertex -164.671 -26.0323 10
    endloop
  endfacet
  facet normal 0 0 -1
    outer loop
      vertex -159.39 -29.988 10
      vertex -161.058 -27.1893 10
      vertex -158.605 -29.5201 10
    endloop
  endfacet
  facet normal 0 -0 -1
    outer loop
      vertex -163.617 -21.1134 10
      vertex -162.318 -23.2925 10
      vertex -163.8 -22.5988 10
    endloop
  endfacet
  facet normal 0 0 -1
    outer loop
      vertex -168.467 -24.0048 10
      vertex -163.617 -21.1134 10
      vertex -165.373 -23.5367 10
    endloop
  endfacet
  facet normal 0 0 -1
    outer loop
      vertex -167.862 -25.0203 10
      vertex -168.467 -24.0048 10
      vertex -166.154 -24.0025 10
    endloop
  endfacet
  facet normal 0 0 -1
    outer loop
      vertex -166.154 -24.0025 10
      vertex -164.731 -24.6142 10
      vertex -165.436 -25.2073 10
    endloop
  endfacet
  facet normal 0 0 -1
    outer loop
      vertex -164.553 -24.8589 10
      vertex -165.206 -25.5423 10
      vertex -165.436 -25.2073 10
    endloop
  endfacet
  facet normal 0 0 -1
    outer loop
      vertex -166.154 -24.0025 10
      vertex -165.373 -23.5367 10
      vertex -164.731 -24.6142 10
    endloop
  endfacet
  facet normal 0 0 -1
    outer loop
      vertex -163.8 -22.5988 10
      vertex -162.318 -23.2925 10
      vertex -163.174 -23.6488 10
    endloop
  endfacet
  facet normal 0 0 -1
    outer loop
      vertex -163.617 -21.1134 10
      vertex -163.8 -22.5988 10
      vertex -165.373 -23.5367 10
    endloop
  endfacet
  facet normal 0 0 -1
    outer loop
      vertex -163.737 -26.3037 10
      vertex -163.656 -25.1248 10
      vertex -163.41 -26.2693 10
    endloop
  endfacet
  facet normal 0 0 -1
    outer loop
      vertex -163.035 -24.653 10
      vertex -161.919 -24.8723 10
      vertex -162.068 -25.3148 10
    endloop
  endfacet
  facet normal 0 0 -1
    outer loop
      vertex -163.4 -25.0063 10
      vertex -162.353 -25.6968 10
      vertex -162.774 -26.0185 10
    endloop
  endfacet
  facet normal 0 0 -1
    outer loop
      vertex -164.373 -26.1858 10
      vertex -163.902 -25.1685 10
      vertex -164.061 -26.2762 10
    endloop
  endfacet
  facet normal 0 0 -1
    outer loop
      vertex -164.671 -26.0323 10
      vertex -164.136 -25.1372 10
      vertex -164.373 -26.1858 10
    endloop
  endfacet
  facet normal 0 0 -1
    outer loop
      vertex -164.671 -26.0323 10
      vertex -164.355 -25.0333 10
      vertex -164.136 -25.1372 10
    endloop
  endfacet
  facet normal 0 0 -1
    outer loop
      vertex -164.951 -25.8173 10
      vertex -165.206 -25.5423 10
      vertex -164.355 -25.0333 10
    endloop
  endfacet
  facet normal -0 0 -1
    outer loop
      vertex -164.355 -25.0333 10
      vertex -165.206 -25.5423 10
      vertex -164.553 -24.8589 10
    endloop
  endfacet
  facet normal -0 0 -1
    outer loop
      vertex -164.553 -24.8589 10
      vertex -165.436 -25.2073 10
      vertex -164.731 -24.6142 10
    endloop
  endfacet
  facet normal -0 0 -1
    outer loop
      vertex -156.42 -33.281 10
      vertex -157.33 -33.6286 10
      vertex -156.697 -32.7219 10
    endloop
  endfacet
  facet normal 0 0 -1
    outer loop
      vertex -163.372 -32.5527 10
      vertex -164.339 -29.145 10
      vertex -162.587 -32.0848 10
    endloop
  endfacet
  facet normal 0 0 -1
    outer loop
      vertex -157.33 -33.6286 10
      vertex -156.42 -33.281 10
      vertex -156.278 -33.8015 10
    endloop
  endfacet
  facet normal -0 0 -1
    outer loop
      vertex -159.068 -35.1386 10
      vertex -161.005 -36.5221 10
      vertex -159.835 -34.2985 10
    endloop
  endfacet
  facet normal 0 0 -1
    outer loop
      vertex -158.141 -30.2984 10
      vertex -158.324 -31.7838 10
      vertex -159.756 -32.6375 10
    endloop
  endfacet
  facet normal 0 0 -1
    outer loop
      vertex -163.062 -28.3836 10
      vertex -162.277 -27.9158 10
      vertex -161.519 -30.9723 10
    endloop
  endfacet
  facet normal -0 0 -1
    outer loop
      vertex -159.756 -32.6375 10
      vertex -162.992 -33.1898 10
      vertex -158.141 -30.2984 10
    endloop
  endfacet
  facet normal 0 0 -1
    outer loop
      vertex -158.605 -29.5201 10
      vertex -161.058 -27.1893 10
      vertex -160.879 -25.7059 10
    endloop
  endfacet
  facet normal 0 0 -1
    outer loop
      vertex -163.372 -32.5527 10
      vertex -165.729 -28.5973 10
      vertex -164.339 -29.145 10
    endloop
  endfacet
  facet normal -0 0 -1
    outer loop
      vertex -161.058 -27.1893 10
      vertex -162.277 -27.9158 10
      vertex -160.879 -25.7059 10
    endloop
  endfacet
  facet normal -0 0 -1
    outer loop
      vertex -162.277 -27.9158 10
      vertex -163.062 -28.3836 10
      vertex -160.879 -25.7059 10
    endloop
  endfacet
  facet normal -0 0 -1
    outer loop
      vertex -163.062 -28.3836 10
      vertex -165.729 -28.5973 10
      vertex -160.879 -25.7059 10
    endloop
  endfacet
  facet normal 0 0 -1
    outer loop
      vertex -164.339 -29.145 10
      vertex -165.729 -28.5973 10
      vertex -163.062 -28.3836 10
    endloop
  endfacet
  facet normal 0 0 -1
    outer loop
      vertex -157.406 -35.5556 10
      vertex -157.943 -34.5001 10
      vertex -157.714 -34.3967 10
    endloop
  endfacet
  facet normal -0 0 -1
    outer loop
      vertex -157.406 -35.5556 10
      vertex -157.757 -35.634 10
      vertex -157.943 -34.5001 10
    endloop
  endfacet
  facet normal 0 0 -1
    outer loop
      vertex -157.063 -35.3945 10
      vertex -157.714 -34.3967 10
      vertex -156.665 -35.0859 10
    endloop
  endfacet
  facet normal 0 -0 -1
    outer loop
      vertex -157.385 -34.0658 10
      vertex -156.665 -35.0859 10
      vertex -157.714 -34.3967 10
    endloop
  endfacet
  facet normal 0 0 -1
    outer loop
      vertex -157.385 -34.0658 10
      vertex -157.33 -33.6286 10
      vertex -156.278 -33.8015 10
    endloop
  endfacet
  facet normal 0 0 -1
    outer loop
      vertex -157.385 -34.0658 10
      vertex -156.278 -33.8015 10
      vertex -156.272 -34.2836 10
    endloop
  endfacet
  facet normal 0 0 -1
    outer loop
      vertex -156.401 -34.7156 10
      vertex -157.385 -34.0658 10
      vertex -156.272 -34.2836 10
    endloop
  endfacet
  facet normal 0 0 -1
    outer loop
      vertex -156.697 -32.7219 10
      vertex -157.33 -33.6286 10
      vertex -157.549 -33.0851 10
    endloop
  endfacet
  facet normal 0 -0 -1
    outer loop
      vertex -158.141 -30.2984 10
      vertex -156.697 -32.7219 10
      vertex -158.324 -31.7838 10
    endloop
  endfacet
  facet normal 0 0 -1
    outer loop
      vertex -159.835 -34.2985 10
      vertex -159.756 -32.6375 10
      vertex -158.964 -33.9663 10
    endloop
  endfacet
  facet normal 0 0 -1
    outer loop
      vertex -159.835 -34.2985 10
      vertex -160.545 -33.1074 10
      vertex -159.756 -32.6375 10
    endloop
  endfacet
  facet normal 0 0 -1
    outer loop
      vertex -159.835 -34.2985 10
      vertex -158.787 -34.2152 10
      vertex -159.068 -35.1386 10
    endloop
  endfacet
  facet normal 0 0 -1
    outer loop
      vertex -162.386 -34.2053 10
      vertex -162.992 -33.1898 10
      vertex -160.545 -33.1074 10
    endloop
  endfacet
  facet normal -0 0 -1
    outer loop
      vertex -160.545 -33.1074 10
      vertex -162.992 -33.1898 10
      vertex -159.756 -32.6375 10
    endloop
  endfacet
  facet normal 0 0 -1
    outer loop
      vertex -157.549 -33.0851 10
      vertex -158.324 -31.7838 10
      vertex -156.697 -32.7219 10
    endloop
  endfacet
  facet normal -0 0 -1
    outer loop
      vertex -156.401 -34.7156 10
      vertex -156.665 -35.0859 10
      vertex -157.385 -34.0658 10
    endloop
  endfacet
  facet normal -0 0 -1
    outer loop
      vertex -157.063 -35.3945 10
      vertex -157.406 -35.5556 10
      vertex -157.714 -34.3967 10
    endloop
  endfacet
  facet normal 0 0 -1
    outer loop
      vertex -157.943 -34.5001 10
      vertex -158.115 -35.6297 10
      vertex -158.167 -34.5341 10
    endloop
  endfacet
  facet normal 0 0 -1
    outer loop
      vertex -157.757 -35.634 10
      vertex -158.115 -35.6297 10
      vertex -157.943 -34.5001 10
    endloop
  endfacet
  facet normal 0 0 -1
    outer loop
      vertex -158.462 -35.5446 10
      vertex -158.386 -34.4986 10
      vertex -158.167 -34.5341 10
    endloop
  endfacet
  facet normal 0 0 -1
    outer loop
      vertex -158.462 -35.5446 10
      vertex -158.78 -35.3809 10
      vertex -158.386 -34.4986 10
    endloop
  endfacet
  facet normal 0 0 -1
    outer loop
      vertex -158.386 -34.4986 10
      vertex -158.78 -35.3809 10
      vertex -159.068 -35.1386 10
    endloop
  endfacet
  facet normal 0 -0 -1
    outer loop
      vertex -158.594 -34.3926 10
      vertex -158.386 -34.4986 10
      vertex -159.068 -35.1386 10
    endloop
  endfacet
  facet normal 0 -0 -1
    outer loop
      vertex -158.964 -33.9663 10
      vertex -158.787 -34.2152 10
      vertex -159.835 -34.2985 10
    endloop
  endfacet
  facet normal 0 -0 -1
    outer loop
      vertex -158.787 -34.2152 10
      vertex -158.594 -34.3926 10
      vertex -159.068 -35.1386 10
    endloop
  endfacet
  facet normal 0 -0 1
    outer loop
      vertex -163.41 -26.2693 10.8
      vertex -163.089 -26.1742 10.8
      vertex -163.656 -25.1248 10.8
    endloop
  endfacet
  facet normal 0 0 1
    outer loop
      vertex -168.467 -24.0048 10.8
      vertex -166.154 -24.0025 10.8
      vertex -165.373 -23.5367 10.8
    endloop
  endfacet
  facet normal 0 -0 1
    outer loop
      vertex -163.737 -26.3037 10.8
      vertex -163.656 -25.1248 10.8
      vertex -163.902 -25.1685 10.8
    endloop
  endfacet
  facet normal 0 0 1
    outer loop
      vertex -163.089 -26.1742 10.8
      vertex -163.4 -25.0063 10.8
      vertex -163.656 -25.1248 10.8
    endloop
  endfacet
  facet normal 0 0 1
    outer loop
      vertex -162.774 -26.0185 10.8
      vertex -163.4 -25.0063 10.8
      vertex -163.089 -26.1742 10.8
    endloop
  endfacet
  facet normal 0 0 1
    outer loop
      vertex -163.737 -26.3037 10.8
      vertex -163.902 -25.1685 10.8
      vertex -164.061 -26.2762 10.8
    endloop
  endfacet
  facet normal 0 0 1
    outer loop
      vertex -162.068 -25.3148 10.8
      vertex -163.035 -24.653 10.8
      vertex -162.353 -25.6968 10.8
    endloop
  endfacet
  facet normal 0 0 1
    outer loop
      vertex -162.318 -23.2925 10.8
      vertex -162.96 -24.2005 10.8
      vertex -162.043 -23.8551 10.8
    endloop
  endfacet
  facet normal 0 0 1
    outer loop
      vertex -161.91 -24.3817 10.8
      vertex -162.96 -24.2005 10.8
      vertex -163.035 -24.653 10.8
    endloop
  endfacet
  facet normal 0 0 1
    outer loop
      vertex -162.043 -23.8551 10.8
      vertex -162.96 -24.2005 10.8
      vertex -161.91 -24.3817 10.8
    endloop
  endfacet
  facet normal 0 0 1
    outer loop
      vertex -161.91 -24.3817 10.8
      vertex -163.035 -24.653 10.8
      vertex -161.919 -24.8723 10.8
    endloop
  endfacet
  facet normal 0 0 1
    outer loop
      vertex -163.035 -24.653 10.8
      vertex -163.4 -25.0063 10.8
      vertex -162.353 -25.6968 10.8
    endloop
  endfacet
  facet normal -0 0 1
    outer loop
      vertex -161.005 -36.5221 10.8
      vertex -160.324 -37.665 10.8
      vertex -159.068 -35.1386 10.8
    endloop
  endfacet
  facet normal 0 0 1
    outer loop
      vertex -164.136 -25.1372 10.8
      vertex -164.373 -26.1858 10.8
      vertex -163.902 -25.1685 10.8
    endloop
  endfacet
  facet normal 0 -0 1
    outer loop
      vertex -161.519 -30.9723 10.8
      vertex -160.734 -30.5045 10.8
      vertex -162.277 -27.9158 10.8
    endloop
  endfacet
  facet normal 0 0 1
    outer loop
      vertex -162.318 -23.2925 10.8
      vertex -163.174 -23.6488 10.8
      vertex -162.96 -24.2005 10.8
    endloop
  endfacet
  facet normal 0 0 1
    outer loop
      vertex -158.115 -35.6297 10.8
      vertex -158.167 -34.5341 10.8
      vertex -158.462 -35.5446 10.8
    endloop
  endfacet
  facet normal 0 -0 1
    outer loop
      vertex -164.671 -26.0323 10.8
      vertex -164.355 -25.0333 10.8
      vertex -164.951 -25.8173 10.8
    endloop
  endfacet
  facet normal 0 0 1
    outer loop
      vertex -158.605 -29.5201 10.8
      vertex -161.058 -27.1893 10.8
      vertex -159.39 -29.988 10.8
    endloop
  endfacet
  facet normal -0 0 1
    outer loop
      vertex -163.8 -22.5988 10.8
      vertex -162.318 -23.2925 10.8
      vertex -163.617 -21.1134 10.8
    endloop
  endfacet
  facet normal 0 -0 1
    outer loop
      vertex -165.373 -23.5367 10.8
      vertex -163.617 -21.1134 10.8
      vertex -168.467 -24.0048 10.8
    endloop
  endfacet
  facet normal 0 0 1
    outer loop
      vertex -166.154 -24.0025 10.8
      vertex -168.467 -24.0048 10.8
      vertex -167.862 -25.0203 10.8
    endloop
  endfacet
  facet normal 0 -0 1
    outer loop
      vertex -165.436 -25.2073 10.8
      vertex -164.731 -24.6142 10.8
      vertex -166.154 -24.0025 10.8
    endloop
  endfacet
  facet normal -0 0 1
    outer loop
      vertex -165.436 -25.2073 10.8
      vertex -165.206 -25.5423 10.8
      vertex -164.553 -24.8589 10.8
    endloop
  endfacet
  facet normal 0 0 1
    outer loop
      vertex -164.731 -24.6142 10.8
      vertex -165.373 -23.5367 10.8
      vertex -166.154 -24.0025 10.8
    endloop
  endfacet
  facet normal 0 -0 1
    outer loop
      vertex -163.174 -23.6488 10.8
      vertex -162.318 -23.2925 10.8
      vertex -163.8 -22.5988 10.8
    endloop
  endfacet
  facet normal 0 0 1
    outer loop
      vertex -165.373 -23.5367 10.8
      vertex -163.8 -22.5988 10.8
      vertex -163.617 -21.1134 10.8
    endloop
  endfacet
  facet normal 0 0 1
    outer loop
      vertex -163.41 -26.2693 10.8
      vertex -163.656 -25.1248 10.8
      vertex -163.737 -26.3037 10.8
    endloop
  endfacet
  facet normal 0 -0 1
    outer loop
      vertex -162.068 -25.3148 10.8
      vertex -161.919 -24.8723 10.8
      vertex -163.035 -24.653 10.8
    endloop
  endfacet
  facet normal 0 -0 1
    outer loop
      vertex -162.774 -26.0185 10.8
      vertex -162.353 -25.6968 10.8
      vertex -163.4 -25.0063 10.8
    endloop
  endfacet
  facet normal 0 -0 1
    outer loop
      vertex -164.061 -26.2762 10.8
      vertex -163.902 -25.1685 10.8
      vertex -164.373 -26.1858 10.8
    endloop
  endfacet
  facet normal 0 -0 1
    outer loop
      vertex -164.373 -26.1858 10.8
      vertex -164.136 -25.1372 10.8
      vertex -164.671 -26.0323 10.8
    endloop
  endfacet
  facet normal 0 0 1
    outer loop
      vertex -164.136 -25.1372 10.8
      vertex -164.355 -25.0333 10.8
      vertex -164.671 -26.0323 10.8
    endloop
  endfacet
  facet normal 0 0 1
    outer loop
      vertex -164.355 -25.0333 10.8
      vertex -165.206 -25.5423 10.8
      vertex -164.951 -25.8173 10.8
    endloop
  endfacet
  facet normal 0 0 1
    outer loop
      vertex -164.553 -24.8589 10.8
      vertex -165.206 -25.5423 10.8
      vertex -164.355 -25.0333 10.8
    endloop
  endfacet
  facet normal 0 0 1
    outer loop
      vertex -164.731 -24.6142 10.8
      vertex -165.436 -25.2073 10.8
      vertex -164.553 -24.8589 10.8
    endloop
  endfacet
  facet normal 0 0 1
    outer loop
      vertex -156.697 -32.7219 10.8
      vertex -157.33 -33.6286 10.8
      vertex -156.42 -33.281 10.8
    endloop
  endfacet
  facet normal 0 0 1
    outer loop
      vertex -162.587 -32.0848 10.8
      vertex -164.339 -29.145 10.8
      vertex -163.372 -32.5527 10.8
    endloop
  endfacet
  facet normal 0 0 1
    outer loop
      vertex -156.278 -33.8015 10.8
      vertex -156.42 -33.281 10.8
      vertex -157.33 -33.6286 10.8
    endloop
  endfacet
  facet normal 0 0 1
    outer loop
      vertex -159.835 -34.2985 10.8
      vertex -161.005 -36.5221 10.8
      vertex -159.068 -35.1386 10.8
    endloop
  endfacet
  facet normal 0 0 1
    outer loop
      vertex -159.756 -32.6375 10.8
      vertex -158.324 -31.7838 10.8
      vertex -158.141 -30.2984 10.8
    endloop
  endfacet
  facet normal 0 0 1
    outer loop
      vertex -161.519 -30.9723 10.8
      vertex -162.277 -27.9158 10.8
      vertex -163.062 -28.3836 10.8
    endloop
  endfacet
  facet normal 0 0 1
    outer loop
      vertex -158.141 -30.2984 10.8
      vertex -162.992 -33.1898 10.8
      vertex -159.756 -32.6375 10.8
    endloop
  endfacet
  facet normal 0 0 1
    outer loop
      vertex -160.879 -25.7059 10.8
      vertex -161.058 -27.1893 10.8
      vertex -158.605 -29.5201 10.8
    endloop
  endfacet
  facet normal 0 0 1
    outer loop
      vertex -164.339 -29.145 10.8
      vertex -165.729 -28.5973 10.8
      vertex -163.372 -32.5527 10.8
    endloop
  endfacet
  facet normal 0 0 1
    outer loop
      vertex -160.879 -25.7059 10.8
      vertex -162.277 -27.9158 10.8
      vertex -161.058 -27.1893 10.8
    endloop
  endfacet
  facet normal 0 0 1
    outer loop
      vertex -160.879 -25.7059 10.8
      vertex -163.062 -28.3836 10.8
      vertex -162.277 -27.9158 10.8
    endloop
  endfacet
  facet normal 0 0 1
    outer loop
      vertex -160.879 -25.7059 10.8
      vertex -165.729 -28.5973 10.8
      vertex -163.062 -28.3836 10.8
    endloop
  endfacet
  facet normal 0 0 1
    outer loop
      vertex -163.062 -28.3836 10.8
      vertex -165.729 -28.5973 10.8
      vertex -164.339 -29.145 10.8
    endloop
  endfacet
  facet normal 0 0 1
    outer loop
      vertex -157.714 -34.3967 10.8
      vertex -157.943 -34.5001 10.8
      vertex -157.406 -35.5556 10.8
    endloop
  endfacet
  facet normal 0 0 1
    outer loop
      vertex -157.943 -34.5001 10.8
      vertex -157.757 -35.634 10.8
      vertex -157.406 -35.5556 10.8
    endloop
  endfacet
  facet normal 0 0 1
    outer loop
      vertex -156.665 -35.0859 10.8
      vertex -157.714 -34.3967 10.8
      vertex -157.063 -35.3945 10.8
    endloop
  endfacet
  facet normal -0 0 1
    outer loop
      vertex -157.714 -34.3967 10.8
      vertex -156.665 -35.0859 10.8
      vertex -157.385 -34.0658 10.8
    endloop
  endfacet
  facet normal 0 0 1
    outer loop
      vertex -156.278 -33.8015 10.8
      vertex -157.33 -33.6286 10.8
      vertex -157.385 -34.0658 10.8
    endloop
  endfacet
  facet normal 0 0 1
    outer loop
      vertex -156.272 -34.2836 10.8
      vertex -156.278 -33.8015 10.8
      vertex -157.385 -34.0658 10.8
    endloop
  endfacet
  facet normal 0 0 1
    outer loop
      vertex -156.272 -34.2836 10.8
      vertex -157.385 -34.0658 10.8
      vertex -156.401 -34.7156 10.8
    endloop
  endfacet
  facet normal -0 0 1
    outer loop
      vertex -157.549 -33.0851 10.8
      vertex -157.33 -33.6286 10.8
      vertex -156.697 -32.7219 10.8
    endloop
  endfacet
  facet normal -0 0 1
    outer loop
      vertex -158.324 -31.7838 10.8
      vertex -156.697 -32.7219 10.8
      vertex -158.141 -30.2984 10.8
    endloop
  endfacet
  facet normal 0 0 1
    outer loop
      vertex -158.964 -33.9663 10.8
      vertex -159.756 -32.6375 10.8
      vertex -159.835 -34.2985 10.8
    endloop
  endfacet
  facet normal 0 0 1
    outer loop
      vertex -159.756 -32.6375 10.8
      vertex -160.545 -33.1074 10.8
      vertex -159.835 -34.2985 10.8
    endloop
  endfacet
  facet normal 0 -0 1
    outer loop
      vertex -159.068 -35.1386 10.8
      vertex -158.787 -34.2152 10.8
      vertex -159.835 -34.2985 10.8
    endloop
  endfacet
  facet normal 0 0 1
    outer loop
      vertex -160.545 -33.1074 10.8
      vertex -162.992 -33.1898 10.8
      vertex -162.386 -34.2053 10.8
    endloop
  endfacet
  facet normal 0 0 1
    outer loop
      vertex -159.756 -32.6375 10.8
      vertex -162.992 -33.1898 10.8
      vertex -160.545 -33.1074 10.8
    endloop
  endfacet
  facet normal 0 0 1
    outer loop
      vertex -156.697 -32.7219 10.8
      vertex -158.324 -31.7838 10.8
      vertex -157.549 -33.0851 10.8
    endloop
  endfacet
  facet normal 0 0 1
    outer loop
      vertex -157.385 -34.0658 10.8
      vertex -156.665 -35.0859 10.8
      vertex -156.401 -34.7156 10.8
    endloop
  endfacet
  facet normal 0 0 1
    outer loop
      vertex -157.714 -34.3967 10.8
      vertex -157.406 -35.5556 10.8
      vertex -157.063 -35.3945 10.8
    endloop
  endfacet
  facet normal -0 0 1
    outer loop
      vertex -158.167 -34.5341 10.8
      vertex -158.115 -35.6297 10.8
      vertex -157.943 -34.5001 10.8
    endloop
  endfacet
  facet normal 0 0 1
    outer loop
      vertex -157.943 -34.5001 10.8
      vertex -158.115 -35.6297 10.8
      vertex -157.757 -35.634 10.8
    endloop
  endfacet
  facet normal 0 0 1
    outer loop
      vertex -158.167 -34.5341 10.8
      vertex -158.386 -34.4986 10.8
      vertex -158.462 -35.5446 10.8
    endloop
  endfacet
  facet normal 0 0 1
    outer loop
      vertex -158.386 -34.4986 10.8
      vertex -158.78 -35.3809 10.8
      vertex -158.462 -35.5446 10.8
    endloop
  endfacet
  facet normal -0 0 1
    outer loop
      vertex -159.068 -35.1386 10.8
      vertex -158.78 -35.3809 10.8
      vertex -158.386 -34.4986 10.8
    endloop
  endfacet
  facet normal 0 0 1
    outer loop
      vertex -159.068 -35.1386 10.8
      vertex -158.386 -34.4986 10.8
      vertex -158.594 -34.3926 10.8
    endloop
  endfacet
  facet normal 0 0 1
    outer loop
      vertex -159.835 -34.2985 10.8
      vertex -158.787 -34.2152 10.8
      vertex -158.964 -33.9663 10.8
    endloop
  endfacet
  facet normal 0 0 1
    outer loop
      vertex -159.068 -35.1386 10.8
      vertex -158.594 -34.3926 10.8
      vertex -158.787 -34.2152 10.8
    endloop
  endfacet
  facet normal -0.859024 -0.511935 0
    outer loop
      vertex -165.436 -25.2073 10
      vertex -166.154 -24.0025 10.8
      vertex -166.154 -24.0025 10
    endloop
  endfacet
  facet normal -0.859024 -0.511935 0
    outer loop
      vertex -165.436 -25.2073 10
      vertex -165.436 -25.2073 10.8
      vertex -166.154 -24.0025 10.8
    endloop
  endfacet
  facet normal -0.824401 -0.566007 0
    outer loop
      vertex -165.206 -25.5423 10
      vertex -165.436 -25.2073 10.8
      vertex -165.436 -25.2073 10
    endloop
  endfacet
  facet normal -0.824401 -0.566007 0
    outer loop
      vertex -165.206 -25.5423 10
      vertex -165.206 -25.5423 10.8
      vertex -165.436 -25.2073 10.8
    endloop
  endfacet
  facet normal -0.733268 -0.67994 0
    outer loop
      vertex -164.951 -25.8173 10
      vertex -165.206 -25.5423 10.8
      vertex -165.206 -25.5423 10
    endloop
  endfacet
  facet normal -0.733268 -0.67994 0
    outer loop
      vertex -164.951 -25.8173 10
      vertex -164.951 -25.8173 10.8
      vertex -165.206 -25.5423 10.8
    endloop
  endfacet
  facet normal -0.609026 -0.79315 0
    outer loop
      vertex -164.671 -26.0323 10
      vertex -164.951 -25.8173 10.8
      vertex -164.951 -25.8173 10
    endloop
  endfacet
  facet normal -0.609026 -0.79315 0
    outer loop
      vertex -164.671 -26.0323 10
      vertex -164.671 -26.0323 10.8
      vertex -164.951 -25.8173 10.8
    endloop
  endfacet
  facet normal -0.457921 -0.888993 0
    outer loop
      vertex -164.373 -26.1858 10
      vertex -164.671 -26.0323 10.8
      vertex -164.671 -26.0323 10
    endloop
  endfacet
  facet normal -0.457921 -0.888993 0
    outer loop
      vertex -164.373 -26.1858 10
      vertex -164.373 -26.1858 10.8
      vertex -164.671 -26.0323 10.8
    endloop
  endfacet
  facet normal -0.278297 -0.960495 0
    outer loop
      vertex -164.061 -26.2762 10
      vertex -164.373 -26.1858 10.8
      vertex -164.373 -26.1858 10
    endloop
  endfacet
  facet normal -0.278297 -0.960495 0
    outer loop
      vertex -164.061 -26.2762 10
      vertex -164.061 -26.2762 10.8
      vertex -164.373 -26.1858 10.8
    endloop
  endfacet
  facet normal -0.0845725 -0.996417 0
    outer loop
      vertex -163.737 -26.3037 10
      vertex -164.061 -26.2762 10.8
      vertex -164.061 -26.2762 10
    endloop
  endfacet
  facet normal -0.0845725 -0.996417 0
    outer loop
      vertex -163.737 -26.3037 10
      vertex -163.737 -26.3037 10.8
      vertex -164.061 -26.2762 10.8
    endloop
  endfacet
  facet normal 0.104621 -0.994512 0
    outer loop
      vertex -163.41 -26.2693 10
      vertex -163.737 -26.3037 10.8
      vertex -163.737 -26.3037 10
    endloop
  endfacet
  facet normal 0.104621 -0.994512 0
    outer loop
      vertex -163.41 -26.2693 10
      vertex -163.41 -26.2693 10.8
      vertex -163.737 -26.3037 10.8
    endloop
  endfacet
  facet normal 0.284058 -0.958807 0
    outer loop
      vertex -163.089 -26.1742 10
      vertex -163.41 -26.2693 10.8
      vertex -163.41 -26.2693 10
    endloop
  endfacet
  facet normal 0.284058 -0.958807 0
    outer loop
      vertex -163.089 -26.1742 10
      vertex -163.089 -26.1742 10.8
      vertex -163.41 -26.2693 10.8
    endloop
  endfacet
  facet normal 0.443111 -0.896467 0
    outer loop
      vertex -162.774 -26.0185 10
      vertex -163.089 -26.1742 10.8
      vertex -163.089 -26.1742 10
    endloop
  endfacet
  facet normal 0.443111 -0.896467 0
    outer loop
      vertex -162.774 -26.0185 10
      vertex -162.774 -26.0185 10.8
      vertex -163.089 -26.1742 10.8
    endloop
  endfacet
  facet normal 0.607163 -0.794577 0
    outer loop
      vertex -162.353 -25.6968 10
      vertex -162.774 -26.0185 10.8
      vertex -162.774 -26.0185 10
    endloop
  endfacet
  facet normal 0.607163 -0.794577 0
    outer loop
      vertex -162.353 -25.6968 10
      vertex -162.353 -25.6968 10.8
      vertex -162.774 -26.0185 10.8
    endloop
  endfacet
  facet normal 0.801508 -0.597984 0
    outer loop
      vertex -162.068 -25.3148 10
      vertex -162.353 -25.6968 10.8
      vertex -162.353 -25.6968 10
    endloop
  endfacet
  facet normal 0.801508 -0.597984 0
    outer loop
      vertex -162.068 -25.3148 10
      vertex -162.068 -25.3148 10.8
      vertex -162.353 -25.6968 10.8
    endloop
  endfacet
  facet normal 0.947715 -0.319118 0
    outer loop
      vertex -161.919 -24.8723 10
      vertex -162.068 -25.3148 10.8
      vertex -162.068 -25.3148 10
    endloop
  endfacet
  facet normal 0.947715 -0.319118 0
    outer loop
      vertex -161.919 -24.8723 10
      vertex -161.919 -24.8723 10.8
      vertex -162.068 -25.3148 10.8
    endloop
  endfacet
  facet normal 0.999832 -0.0183418 0
    outer loop
      vertex -161.91 -24.3817 10
      vertex -161.919 -24.8723 10.8
      vertex -161.919 -24.8723 10
    endloop
  endfacet
  facet normal 0.999832 -0.0183418 0
    outer loop
      vertex -161.91 -24.3817 10
      vertex -161.91 -24.3817 10.8
      vertex -161.919 -24.8723 10.8
    endloop
  endfacet
  facet normal 0.969555 0.244874 0
    outer loop
      vertex -162.043 -23.8551 10
      vertex -161.91 -24.3817 10.8
      vertex -161.91 -24.3817 10
    endloop
  endfacet
  facet normal 0.969555 0.244874 -0
    outer loop
      vertex -162.043 -23.8551 10
      vertex -162.043 -23.8551 10.8
      vertex -161.91 -24.3817 10.8
    endloop
  endfacet
  facet normal 0.898415 0.439147 0
    outer loop
      vertex -162.318 -23.2925 10
      vertex -162.043 -23.8551 10.8
      vertex -162.043 -23.8551 10
    endloop
  endfacet
  facet normal 0.898415 0.439147 -0
    outer loop
      vertex -162.318 -23.2925 10
      vertex -162.318 -23.2925 10.8
      vertex -162.043 -23.8551 10.8
    endloop
  endfacet
  facet normal 0.858961 0.512042 0
    outer loop
      vertex -163.617 -21.1134 10
      vertex -162.318 -23.2925 10.8
      vertex -162.318 -23.2925 10
    endloop
  endfacet
  facet normal 0.858961 0.512042 -0
    outer loop
      vertex -163.617 -21.1134 10
      vertex -163.617 -21.1134 10.8
      vertex -162.318 -23.2925 10.8
    endloop
  endfacet
  facet normal -0.512072 0.858943 0
    outer loop
      vertex -168.467 -24.0048 10
      vertex -163.617 -21.1134 10.8
      vertex -163.617 -21.1134 10
    endloop
  endfacet
  facet normal -0.512072 0.858943 0
    outer loop
      vertex -168.467 -24.0048 10
      vertex -168.467 -24.0048 10.8
      vertex -163.617 -21.1134 10.8
    endloop
  endfacet
  facet normal -0.859094 -0.511818 0
    outer loop
      vertex -167.862 -25.0203 10
      vertex -168.467 -24.0048 10.8
      vertex -168.467 -24.0048 10
    endloop
  endfacet
  facet normal -0.859094 -0.511818 0
    outer loop
      vertex -167.862 -25.0203 10
      vertex -167.862 -25.0203 10.8
      vertex -168.467 -24.0048 10.8
    endloop
  endfacet
  facet normal 0.511905 -0.859042 0
    outer loop
      vertex -166.154 -24.0025 10
      vertex -167.862 -25.0203 10.8
      vertex -167.862 -25.0203 10
    endloop
  endfacet
  facet normal 0.511905 -0.859042 0
    outer loop
      vertex -166.154 -24.0025 10
      vertex -166.154 -24.0025 10.8
      vertex -167.862 -25.0203 10.8
    endloop
  endfacet
  facet normal 0.512125 -0.858911 0
    outer loop
      vertex -163.8 -22.5988 10
      vertex -163.8 -22.5988 10.8
      vertex -165.373 -23.5367 10
    endloop
  endfacet
  facet normal 0.512125 -0.858911 0
    outer loop
      vertex -165.373 -23.5367 10.8
      vertex -165.373 -23.5367 10
      vertex -163.8 -22.5988 10.8
    endloop
  endfacet
  facet normal -0.858933 -0.512088 0
    outer loop
      vertex -163.174 -23.6488 10
      vertex -163.174 -23.6488 10.8
      vertex -163.8 -22.5988 10
    endloop
  endfacet
  facet normal -0.858933 -0.512088 -0
    outer loop
      vertex -163.8 -22.5988 10.8
      vertex -163.8 -22.5988 10
      vertex -163.174 -23.6488 10.8
    endloop
  endfacet
  facet normal -0.932318 -0.361639 0
    outer loop
      vertex -162.96 -24.2005 10
      vertex -162.96 -24.2005 10.8
      vertex -163.174 -23.6488 10
    endloop
  endfacet
  facet normal -0.932318 -0.361639 -0
    outer loop
      vertex -163.174 -23.6488 10.8
      vertex -163.174 -23.6488 10
      vertex -162.96 -24.2005 10.8
    endloop
  endfacet
  facet normal -0.986541 0.163515 0
    outer loop
      vertex -163.035 -24.653 10
      vertex -163.035 -24.653 10.8
      vertex -162.96 -24.2005 10
    endloop
  endfacet
  facet normal -0.986541 0.163515 0
    outer loop
      vertex -162.96 -24.2005 10.8
      vertex -162.96 -24.2005 10
      vertex -163.035 -24.653 10.8
    endloop
  endfacet
  facet normal -0.695497 0.718529 0
    outer loop
      vertex -163.4 -25.0063 10
      vertex -163.4 -25.0063 10.8
      vertex -163.035 -24.653 10
    endloop
  endfacet
  facet normal -0.695497 0.718529 0
    outer loop
      vertex -163.035 -24.653 10.8
      vertex -163.035 -24.653 10
      vertex -163.4 -25.0063 10.8
    endloop
  endfacet
  facet normal -0.42007 0.907492 0
    outer loop
      vertex -163.656 -25.1248 10
      vertex -163.656 -25.1248 10.8
      vertex -163.4 -25.0063 10
    endloop
  endfacet
  facet normal -0.42007 0.907492 0
    outer loop
      vertex -163.4 -25.0063 10.8
      vertex -163.4 -25.0063 10
      vertex -163.656 -25.1248 10.8
    endloop
  endfacet
  facet normal -0.174904 0.984585 0
    outer loop
      vertex -163.902 -25.1685 10
      vertex -163.902 -25.1685 10.8
      vertex -163.656 -25.1248 10
    endloop
  endfacet
  facet normal -0.174904 0.984585 0
    outer loop
      vertex -163.656 -25.1248 10.8
      vertex -163.656 -25.1248 10
      vertex -163.902 -25.1685 10.8
    endloop
  endfacet
  facet normal 0.13258 0.991172 -0
    outer loop
      vertex -164.136 -25.1372 10
      vertex -164.136 -25.1372 10.8
      vertex -163.902 -25.1685 10
    endloop
  endfacet
  facet normal 0.13258 0.991172 0
    outer loop
      vertex -163.902 -25.1685 10.8
      vertex -163.902 -25.1685 10
      vertex -164.136 -25.1372 10.8
    endloop
  endfacet
  facet normal 0.428636 0.903477 -0
    outer loop
      vertex -164.355 -25.0333 10
      vertex -164.355 -25.0333 10.8
      vertex -164.136 -25.1372 10
    endloop
  endfacet
  facet normal 0.428636 0.903477 0
    outer loop
      vertex -164.136 -25.1372 10.8
      vertex -164.136 -25.1372 10
      vertex -164.355 -25.0333 10.8
    endloop
  endfacet
  facet normal 0.66097 0.750413 -0
    outer loop
      vertex -164.553 -24.8589 10
      vertex -164.553 -24.8589 10.8
      vertex -164.355 -25.0333 10
    endloop
  endfacet
  facet normal 0.66097 0.750413 0
    outer loop
      vertex -164.355 -25.0333 10.8
      vertex -164.355 -25.0333 10
      vertex -164.553 -24.8589 10.8
    endloop
  endfacet
  facet normal 0.808679 0.58825 -0
    outer loop
      vertex -164.731 -24.6142 10
      vertex -164.731 -24.6142 10.8
      vertex -164.553 -24.8589 10
    endloop
  endfacet
  facet normal 0.808679 0.58825 0
    outer loop
      vertex -164.553 -24.8589 10.8
      vertex -164.553 -24.8589 10
      vertex -164.731 -24.6142 10.8
    endloop
  endfacet
  facet normal 0.859072 0.511855 -0
    outer loop
      vertex -165.373 -23.5367 10
      vertex -165.373 -23.5367 10.8
      vertex -164.731 -24.6142 10
    endloop
  endfacet
  facet normal 0.859072 0.511855 0
    outer loop
      vertex -164.731 -24.6142 10.8
      vertex -164.731 -24.6142 10
      vertex -165.373 -23.5367 10.8
    endloop
  endfacet
  facet normal 0.859021 0.511941 0
    outer loop
      vertex -164.339 -29.145 10
      vertex -162.587 -32.0848 10.8
      vertex -162.587 -32.0848 10
    endloop
  endfacet
  facet normal 0.859021 0.511941 -0
    outer loop
      vertex -164.339 -29.145 10
      vertex -164.339 -29.145 10.8
      vertex -162.587 -32.0848 10.8
    endloop
  endfacet
  facet normal 0.51212 -0.858914 0
    outer loop
      vertex -163.062 -28.3836 10
      vertex -164.339 -29.145 10.8
      vertex -164.339 -29.145 10
    endloop
  endfacet
  facet normal 0.51212 -0.858914 0
    outer loop
      vertex -163.062 -28.3836 10
      vertex -163.062 -28.3836 10.8
      vertex -164.339 -29.145 10.8
    endloop
  endfacet
  facet normal -0.858985 -0.512 0
    outer loop
      vertex -161.519 -30.9723 10
      vertex -163.062 -28.3836 10.8
      vertex -163.062 -28.3836 10
    endloop
  endfacet
  facet normal -0.858985 -0.512 0
    outer loop
      vertex -161.519 -30.9723 10
      vertex -161.519 -30.9723 10.8
      vertex -163.062 -28.3836 10.8
    endloop
  endfacet
  facet normal 0.511919 -0.859034 0
    outer loop
      vertex -160.734 -30.5045 10
      vertex -161.519 -30.9723 10.8
      vertex -161.519 -30.9723 10
    endloop
  endfacet
  facet normal 0.511919 -0.859034 0
    outer loop
      vertex -160.734 -30.5045 10
      vertex -160.734 -30.5045 10.8
      vertex -161.519 -30.9723 10.8
    endloop
  endfacet
  facet normal 0.858985 0.512 0
    outer loop
      vertex -162.277 -27.9158 10
      vertex -160.734 -30.5045 10.8
      vertex -160.734 -30.5045 10
    endloop
  endfacet
  facet normal 0.858985 0.512 -0
    outer loop
      vertex -162.277 -27.9158 10
      vertex -162.277 -27.9158 10.8
      vertex -160.734 -30.5045 10.8
    endloop
  endfacet
  facet normal 0.511955 -0.859013 0
    outer loop
      vertex -161.058 -27.1893 10
      vertex -162.277 -27.9158 10.8
      vertex -162.277 -27.9158 10
    endloop
  endfacet
  facet normal 0.511955 -0.859013 0
    outer loop
      vertex -161.058 -27.1893 10
      vertex -161.058 -27.1893 10.8
      vertex -162.277 -27.9158 10.8
    endloop
  endfacet
  facet normal -0.859008 -0.511961 0
    outer loop
      vertex -159.39 -29.988 10
      vertex -161.058 -27.1893 10.8
      vertex -161.058 -27.1893 10
    endloop
  endfacet
  facet normal -0.859008 -0.511961 0
    outer loop
      vertex -159.39 -29.988 10
      vertex -159.39 -29.988 10.8
      vertex -161.058 -27.1893 10.8
    endloop
  endfacet
  facet normal 0.511999 -0.858986 0
    outer loop
      vertex -158.605 -29.5201 10
      vertex -159.39 -29.988 10.8
      vertex -159.39 -29.988 10
    endloop
  endfacet
  facet normal 0.511999 -0.858986 0
    outer loop
      vertex -158.605 -29.5201 10
      vertex -158.605 -29.5201 10.8
      vertex -159.39 -29.988 10.8
    endloop
  endfacet
  facet normal 0.858932 0.512089 0
    outer loop
      vertex -160.879 -25.7059 10
      vertex -158.605 -29.5201 10.8
      vertex -158.605 -29.5201 10
    endloop
  endfacet
  facet normal 0.858932 0.512089 -0
    outer loop
      vertex -160.879 -25.7059 10
      vertex -160.879 -25.7059 10.8
      vertex -158.605 -29.5201 10.8
    endloop
  endfacet
  facet normal -0.512072 0.858943 0
    outer loop
      vertex -165.729 -28.5973 10
      vertex -160.879 -25.7059 10.8
      vertex -160.879 -25.7059 10
    endloop
  endfacet
  facet normal -0.512072 0.858943 0
    outer loop
      vertex -165.729 -28.5973 10
      vertex -165.729 -28.5973 10.8
      vertex -160.879 -25.7059 10.8
    endloop
  endfacet
  facet normal -0.859045 -0.5119 0
    outer loop
      vertex -163.372 -32.5527 10
      vertex -165.729 -28.5973 10.8
      vertex -165.729 -28.5973 10
    endloop
  endfacet
  facet normal -0.859045 -0.5119 0
    outer loop
      vertex -163.372 -32.5527 10
      vertex -163.372 -32.5527 10.8
      vertex -165.729 -28.5973 10.8
    endloop
  endfacet
  facet normal 0.511999 -0.858986 0
    outer loop
      vertex -162.587 -32.0848 10
      vertex -163.372 -32.5527 10.8
      vertex -163.372 -32.5527 10
    endloop
  endfacet
  facet normal 0.511999 -0.858986 0
    outer loop
      vertex -162.587 -32.0848 10
      vertex -162.587 -32.0848 10.8
      vertex -163.372 -32.5527 10.8
    endloop
  endfacet
  facet normal -0.858972 -0.512023 0
    outer loop
      vertex -159.835 -34.2985 10
      vertex -160.545 -33.1074 10.8
      vertex -160.545 -33.1074 10
    endloop
  endfacet
  facet normal -0.858972 -0.512023 0
    outer loop
      vertex -159.835 -34.2985 10
      vertex -159.835 -34.2985 10.8
      vertex -160.545 -33.1074 10.8
    endloop
  endfacet
  facet normal -0.88497 0.465648 0
    outer loop
      vertex -161.005 -36.5221 10
      vertex -159.835 -34.2985 10.8
      vertex -159.835 -34.2985 10
    endloop
  endfacet
  facet normal -0.88497 0.465648 0
    outer loop
      vertex -161.005 -36.5221 10
      vertex -161.005 -36.5221 10.8
      vertex -159.835 -34.2985 10.8
    endloop
  endfacet
  facet normal -0.859061 -0.511874 0
    outer loop
      vertex -160.324 -37.665 10
      vertex -161.005 -36.5221 10.8
      vertex -161.005 -36.5221 10
    endloop
  endfacet
  facet normal -0.859061 -0.511874 0
    outer loop
      vertex -160.324 -37.665 10
      vertex -160.324 -37.665 10.8
      vertex -161.005 -36.5221 10.8
    endloop
  endfacet
  facet normal 0.895446 -0.445171 0
    outer loop
      vertex -159.068 -35.1386 10
      vertex -160.324 -37.665 10.8
      vertex -160.324 -37.665 10
    endloop
  endfacet
  facet normal 0.895446 -0.445171 0
    outer loop
      vertex -159.068 -35.1386 10
      vertex -159.068 -35.1386 10.8
      vertex -160.324 -37.665 10.8
    endloop
  endfacet
  facet normal -0.643784 -0.765207 0
    outer loop
      vertex -158.78 -35.3809 10
      vertex -159.068 -35.1386 10.8
      vertex -159.068 -35.1386 10
    endloop
  endfacet
  facet normal -0.643784 -0.765207 0
    outer loop
      vertex -158.78 -35.3809 10
      vertex -158.78 -35.3809 10.8
      vertex -159.068 -35.1386 10.8
    endloop
  endfacet
  facet normal -0.457695 -0.889109 0
    outer loop
      vertex -158.462 -35.5446 10
      vertex -158.78 -35.3809 10.8
      vertex -158.78 -35.3809 10
    endloop
  endfacet
  facet normal -0.457695 -0.889109 0
    outer loop
      vertex -158.462 -35.5446 10
      vertex -158.462 -35.5446 10.8
      vertex -158.78 -35.3809 10.8
    endloop
  endfacet
  facet normal -0.238187 -0.971219 0
    outer loop
      vertex -158.115 -35.6297 10
      vertex -158.462 -35.5446 10.8
      vertex -158.462 -35.5446 10
    endloop
  endfacet
  facet normal -0.238187 -0.971219 0
    outer loop
      vertex -158.115 -35.6297 10
      vertex -158.115 -35.6297 10.8
      vertex -158.462 -35.5446 10.8
    endloop
  endfacet
  facet normal -0.0120103 -0.999928 0
    outer loop
      vertex -157.757 -35.634 10
      vertex -158.115 -35.6297 10.8
      vertex -158.115 -35.6297 10
    endloop
  endfacet
  facet normal -0.0120103 -0.999928 0
    outer loop
      vertex -157.757 -35.634 10
      vertex -157.757 -35.634 10.8
      vertex -158.115 -35.6297 10.8
    endloop
  endfacet
  facet normal 0.21799 -0.975951 0
    outer loop
      vertex -157.406 -35.5556 10
      vertex -157.757 -35.634 10.8
      vertex -157.757 -35.634 10
    endloop
  endfacet
  facet normal 0.21799 -0.975951 0
    outer loop
      vertex -157.406 -35.5556 10
      vertex -157.406 -35.5556 10.8
      vertex -157.757 -35.634 10.8
    endloop
  endfacet
  facet normal 0.425123 -0.905135 0
    outer loop
      vertex -157.063 -35.3945 10
      vertex -157.406 -35.5556 10.8
      vertex -157.406 -35.5556 10
    endloop
  endfacet
  facet normal 0.425123 -0.905135 0
    outer loop
      vertex -157.063 -35.3945 10
      vertex -157.063 -35.3945 10.8
      vertex -157.406 -35.5556 10.8
    endloop
  endfacet
  facet normal 0.612758 -0.790271 0
    outer loop
      vertex -156.665 -35.0859 10
      vertex -157.063 -35.3945 10.8
      vertex -157.063 -35.3945 10
    endloop
  endfacet
  facet normal 0.612758 -0.790271 0
    outer loop
      vertex -156.665 -35.0859 10
      vertex -156.665 -35.0859 10.8
      vertex -157.063 -35.3945 10.8
    endloop
  endfacet
  facet normal 0.814253 -0.58051 0
    outer loop
      vertex -156.401 -34.7156 10
      vertex -156.665 -35.0859 10.8
      vertex -156.665 -35.0859 10
    endloop
  endfacet
  facet normal 0.814253 -0.58051 0
    outer loop
      vertex -156.401 -34.7156 10
      vertex -156.401 -34.7156 10.8
      vertex -156.665 -35.0859 10.8
    endloop
  endfacet
  facet normal 0.958192 -0.286127 0
    outer loop
      vertex -156.272 -34.2836 10
      vertex -156.401 -34.7156 10.8
      vertex -156.401 -34.7156 10
    endloop
  endfacet
  facet normal 0.958192 -0.286127 0
    outer loop
      vertex -156.272 -34.2836 10
      vertex -156.272 -34.2836 10.8
      vertex -156.401 -34.7156 10.8
    endloop
  endfacet
  facet normal 0.999923 0.0124446 0
    outer loop
      vertex -156.278 -33.8015 10
      vertex -156.272 -34.2836 10.8
      vertex -156.272 -34.2836 10
    endloop
  endfacet
  facet normal 0.999923 0.0124446 -0
    outer loop
      vertex -156.278 -33.8015 10
      vertex -156.278 -33.8015 10.8
      vertex -156.272 -34.2836 10.8
    endloop
  endfacet
  facet normal 0.964742 0.263196 0
    outer loop
      vertex -156.42 -33.281 10
      vertex -156.278 -33.8015 10.8
      vertex -156.278 -33.8015 10
    endloop
  endfacet
  facet normal 0.964742 0.263196 -0
    outer loop
      vertex -156.42 -33.281 10
      vertex -156.42 -33.281 10.8
      vertex -156.278 -33.8015 10.8
    endloop
  endfacet
  facet normal 0.896056 0.443941 0
    outer loop
      vertex -156.697 -32.7219 10
      vertex -156.42 -33.281 10.8
      vertex -156.42 -33.281 10
    endloop
  endfacet
  facet normal 0.896056 0.443941 -0
    outer loop
      vertex -156.697 -32.7219 10
      vertex -156.697 -32.7219 10.8
      vertex -156.42 -33.281 10.8
    endloop
  endfacet
  facet normal 0.859068 0.511861 0
    outer loop
      vertex -158.141 -30.2984 10
      vertex -156.697 -32.7219 10.8
      vertex -156.697 -32.7219 10
    endloop
  endfacet
  facet normal 0.859068 0.511861 -0
    outer loop
      vertex -158.141 -30.2984 10
      vertex -158.141 -30.2984 10.8
      vertex -156.697 -32.7219 10.8
    endloop
  endfacet
  facet normal -0.511994 0.858989 0
    outer loop
      vertex -162.992 -33.1898 10
      vertex -158.141 -30.2984 10.8
      vertex -158.141 -30.2984 10
    endloop
  endfacet
  facet normal -0.511994 0.858989 0
    outer loop
      vertex -162.992 -33.1898 10
      vertex -162.992 -33.1898 10.8
      vertex -158.141 -30.2984 10.8
    endloop
  endfacet
  facet normal -0.858722 -0.512442 0
    outer loop
      vertex -162.386 -34.2053 10
      vertex -162.992 -33.1898 10.8
      vertex -162.992 -33.1898 10
    endloop
  endfacet
  facet normal -0.858722 -0.512442 0
    outer loop
      vertex -162.386 -34.2053 10
      vertex -162.386 -34.2053 10.8
      vertex -162.992 -33.1898 10.8
    endloop
  endfacet
  facet normal 0.512196 -0.858869 0
    outer loop
      vertex -160.545 -33.1074 10
      vertex -162.386 -34.2053 10.8
      vertex -162.386 -34.2053 10
    endloop
  endfacet
  facet normal 0.512196 -0.858869 0
    outer loop
      vertex -160.545 -33.1074 10
      vertex -160.545 -33.1074 10.8
      vertex -162.386 -34.2053 10.8
    endloop
  endfacet
  facet normal 0.512068 -0.858945 0
    outer loop
      vertex -158.324 -31.7838 10
      vertex -158.324 -31.7838 10.8
      vertex -159.756 -32.6375 10
    endloop
  endfacet
  facet normal 0.512068 -0.858945 0
    outer loop
      vertex -159.756 -32.6375 10.8
      vertex -159.756 -32.6375 10
      vertex -158.324 -31.7838 10.8
    endloop
  endfacet
  facet normal -0.859172 -0.511687 0
    outer loop
      vertex -157.549 -33.0851 10
      vertex -157.549 -33.0851 10.8
      vertex -158.324 -31.7838 10
    endloop
  endfacet
  facet normal -0.859172 -0.511687 -0
    outer loop
      vertex -158.324 -31.7838 10.8
      vertex -158.324 -31.7838 10
      vertex -157.549 -33.0851 10.8
    endloop
  endfacet
  facet normal -0.927532 -0.373743 0
    outer loop
      vertex -157.33 -33.6286 10
      vertex -157.33 -33.6286 10.8
      vertex -157.549 -33.0851 10
    endloop
  endfacet
  facet normal -0.927532 -0.373743 -0
    outer loop
      vertex -157.549 -33.0851 10.8
      vertex -157.549 -33.0851 10
      vertex -157.33 -33.6286 10.8
    endloop
  endfacet
  facet normal -0.99218 0.124817 0
    outer loop
      vertex -157.385 -34.0658 10
      vertex -157.385 -34.0658 10.8
      vertex -157.33 -33.6286 10
    endloop
  endfacet
  facet normal -0.99218 0.124817 0
    outer loop
      vertex -157.33 -33.6286 10.8
      vertex -157.33 -33.6286 10
      vertex -157.385 -34.0658 10.8
    endloop
  endfacet
  facet normal -0.70914 0.705068 0
    outer loop
      vertex -157.714 -34.3967 10
      vertex -157.714 -34.3967 10.8
      vertex -157.385 -34.0658 10
    endloop
  endfacet
  facet normal -0.70914 0.705068 0
    outer loop
      vertex -157.385 -34.0658 10.8
      vertex -157.385 -34.0658 10
      vertex -157.714 -34.3967 10.8
    endloop
  endfacet
  facet normal -0.411523 0.911399 0
    outer loop
      vertex -157.943 -34.5001 10
      vertex -157.943 -34.5001 10.8
      vertex -157.714 -34.3967 10
    endloop
  endfacet
  facet normal -0.411523 0.911399 0
    outer loop
      vertex -157.714 -34.3967 10.8
      vertex -157.714 -34.3967 10
      vertex -157.943 -34.5001 10.8
    endloop
  endfacet
  facet normal -0.150067 0.988676 0
    outer loop
      vertex -158.167 -34.5341 10
      vertex -158.167 -34.5341 10.8
      vertex -157.943 -34.5001 10
    endloop
  endfacet
  facet normal -0.150067 0.988676 0
    outer loop
      vertex -157.943 -34.5001 10.8
      vertex -157.943 -34.5001 10
      vertex -158.167 -34.5341 10.8
    endloop
  endfacet
  facet normal 0.160012 0.987115 -0
    outer loop
      vertex -158.386 -34.4986 10
      vertex -158.386 -34.4986 10.8
      vertex -158.167 -34.5341 10
    endloop
  endfacet
  facet normal 0.160012 0.987115 0
    outer loop
      vertex -158.167 -34.5341 10.8
      vertex -158.167 -34.5341 10
      vertex -158.386 -34.4986 10.8
    endloop
  endfacet
  facet normal 0.454054 0.890974 -0
    outer loop
      vertex -158.594 -34.3926 10
      vertex -158.594 -34.3926 10.8
      vertex -158.386 -34.4986 10
    endloop
  endfacet
  facet normal 0.454054 0.890974 0
    outer loop
      vertex -158.386 -34.4986 10.8
      vertex -158.386 -34.4986 10
      vertex -158.594 -34.3926 10.8
    endloop
  endfacet
  facet normal 0.676726 0.736235 -0
    outer loop
      vertex -158.787 -34.2152 10
      vertex -158.787 -34.2152 10.8
      vertex -158.594 -34.3926 10
    endloop
  endfacet
  facet normal 0.676726 0.736235 0
    outer loop
      vertex -158.594 -34.3926 10.8
      vertex -158.594 -34.3926 10
      vertex -158.787 -34.2152 10.8
    endloop
  endfacet
  facet normal 0.814948 0.579533 -0
    outer loop
      vertex -158.964 -33.9663 10
      vertex -158.964 -33.9663 10.8
      vertex -158.787 -34.2152 10
    endloop
  endfacet
  facet normal 0.814948 0.579533 0
    outer loop
      vertex -158.787 -34.2152 10.8
      vertex -158.787 -34.2152 10
      vertex -158.964 -33.9663 10.8
    endloop
  endfacet
  facet normal 0.858995 0.511984 -0
    outer loop
      vertex -159.756 -32.6375 10
      vertex -159.756 -32.6375 10.8
      vertex -158.964 -33.9663 10
    endloop
  endfacet
  facet normal 0.858995 0.511984 0
    outer loop
      vertex -158.964 -33.9663 10.8
      vertex -158.964 -33.9663 10
      vertex -159.756 -32.6375 10.8
    endloop
  endfacet
endsolid OpenSCAD_Model
