solid OpenSCAD_Model
  facet normal 0 0 -1
    outer loop
      vertex 272.037 30.452 0
      vertex 271.679 31.1575 0
      vertex 272.011 31.1145 0
    endloop
  endfacet
  facet normal 0 0 -1
    outer loop
      vertex 275.048 29.2434 0
      vertex 275.698 29.1035 0
      vertex 275.438 29.1 0
    endloop
  endfacet
  facet normal 0 0 -1
    outer loop
      vertex 274.053 30.914 0
      vertex 274.505 30.753 0
      vertex 274.427 30.5242 0
    endloop
  endfacet
  facet normal 0 0 -1
    outer loop
      vertex 272.129 31.3185 0
      vertex 271.879 31.496 0
      vertex 272.409 31.3585 0
    endloop
  endfacet
  facet normal 0 0 -1
    outer loop
      vertex 274.139 31.0328 0
      vertex 274.175 31.345 0
      vertex 274.505 30.753 0
    endloop
  endfacet
  facet normal 0 0 -1
    outer loop
      vertex 273.796 30.2652 0
      vertex 274.427 30.5242 0
      vertex 273.841 30.1998 0
    endloop
  endfacet
  facet normal 0 0 -1
    outer loop
      vertex 272.129 31.3185 0
      vertex 272.011 31.1145 0
      vertex 271.849 31.3075 0
    endloop
  endfacet
  facet normal 0 0 -1
    outer loop
      vertex 271.36 40.8297 0
      vertex 270.794 41.2219 0
      vertex 271.376 40.8871 0
    endloop
  endfacet
  facet normal 0 0 -1
    outer loop
      vertex 274.505 30.753 0
      vertex 274.989 30.9604 0
      vertex 274.982 30.9037 0
    endloop
  endfacet
  facet normal 0 0 -1
    outer loop
      vertex 274.505 30.753 0
      vertex 274.175 31.345 0
      vertex 274.989 30.9604 0
    endloop
  endfacet
  facet normal 0 0 -1
    outer loop
      vertex 270.145 36.0051 0
      vertex 267.64 36.2813 0
      vertex 267.61 39.811 0
    endloop
  endfacet
  facet normal 0 0 -1
    outer loop
      vertex 274.053 30.914 0
      vertex 274.139 31.0328 0
      vertex 274.505 30.753 0
    endloop
  endfacet
  facet normal 0 0 -1
    outer loop
      vertex 271.767 31.6869 0
      vertex 272.499 31.9876 0
      vertex 271.879 31.496 0
    endloop
  endfacet
  facet normal 0 0 -1
    outer loop
      vertex 273.623 30.714 0
      vertex 274.053 30.914 0
      vertex 273.796 30.2652 0
    endloop
  endfacet
  facet normal 0 0 -1
    outer loop
      vertex 273.796 30.2652 0
      vertex 274.053 30.914 0
      vertex 274.427 30.5242 0
    endloop
  endfacet
  facet normal 0 -0 -1
    outer loop
      vertex 271.879 31.496 0
      vertex 272.129 31.3185 0
      vertex 271.849 31.3075 0
    endloop
  endfacet
  facet normal 0 0 -1
    outer loop
      vertex 267.719 32.6302 0
      vertex 267.81 33.4484 0
      vertex 267.819 32.6512 0
    endloop
  endfacet
  facet normal 0 0 -1
    outer loop
      vertex 272.037 30.452 0
      vertex 271.508 31.1383 0
      vertex 271.679 31.1575 0
    endloop
  endfacet
  facet normal 0 0 -1
    outer loop
      vertex 270.137 32.7135 0
      vertex 269.95 31.2014 0
      vertex 268.828 32.4555 0
    endloop
  endfacet
  facet normal 0 0 -1
    outer loop
      vertex 272.076 30.412 0
      vertex 272.037 30.452 0
      vertex 272.011 31.1145 0
    endloop
  endfacet
  facet normal 0 0 -1
    outer loop
      vertex 272.399 29.9176 0
      vertex 272.076 30.412 0
      vertex 272.44 30.0365 0
    endloop
  endfacet
  facet normal -0 0 -1
    outer loop
      vertex 274.933 29.4186 0
      vertex 274.139 29.3523 0
      vertex 274.991 29.7163 0
    endloop
  endfacet
  facet normal 0 0 -1
    outer loop
      vertex 266.979 33.4936 0
      vertex 267.912 33.5921 0
      vertex 267.27 33.3915 0
    endloop
  endfacet
  facet normal 0 -0 -1
    outer loop
      vertex 267.64 36.2813 0
      vertex 269.632 34.5479 0
      vertex 267.533 36.1362 0
    endloop
  endfacet
  facet normal 0 0 -1
    outer loop
      vertex 268.845 33.0236 0
      vertex 269.626 34.4033 0
      vertex 270.265 33.1145 0
    endloop
  endfacet
  facet normal 0 0 -1
    outer loop
      vertex 271.3 39.8997 0
      vertex 270.794 41.2219 0
      vertex 271.36 40.8297 0
    endloop
  endfacet
  facet normal 0 0 -1
    outer loop
      vertex 267.61 39.811 0
      vertex 269.094 41.9527 0
      vertex 270.709 41.233 0
    endloop
  endfacet
  facet normal 0 0 -1
    outer loop
      vertex 269.632 34.5479 0
      vertex 270.06 35.8626 0
      vertex 270.088 35.2986 0
    endloop
  endfacet
  facet normal 0 0 -1
    outer loop
      vertex 271.648 41.4315 0
      vertex 271.376 40.8871 0
      vertex 271.326 41.3584 0
    endloop
  endfacet
  facet normal 0 -0 -1
    outer loop
      vertex 271.324 39.8089 0
      vertex 272.092 38.6132 0
      vertex 271.292 36.5594 0
    endloop
  endfacet
  facet normal 0 0 -1
    outer loop
      vertex 270.145 36.0051 0
      vertex 271.324 39.8089 0
      vertex 271.292 36.5594 0
    endloop
  endfacet
  facet normal 0 0 -1
    outer loop
      vertex 270.794 41.2219 0
      vertex 271.224 41.2919 0
      vertex 271.376 40.8871 0
    endloop
  endfacet
  facet normal 0 0 -1
    outer loop
      vertex 271.376 40.8871 0
      vertex 271.224 41.2919 0
      vertex 271.326 41.3584 0
    endloop
  endfacet
  facet normal 0 0 -1
    outer loop
      vertex 271.509 41.6402 0
      vertex 271.584 41.6228 0
      vertex 271.648 41.4315 0
    endloop
  endfacet
  facet normal 0 0 -1
    outer loop
      vertex 271.326 41.3584 0
      vertex 271.509 41.6402 0
      vertex 271.648 41.4315 0
    endloop
  endfacet
  facet normal 0 0 -1
    outer loop
      vertex 271.3 39.8997 0
      vertex 270.709 41.233 0
      vertex 270.794 41.2219 0
    endloop
  endfacet
  facet normal 0 -0 -1
    outer loop
      vertex 268.122 41.7336 0
      vertex 269.094 41.9527 0
      vertex 267.61 39.811 0
    endloop
  endfacet
  facet normal 0 0 -1
    outer loop
      vertex 267.61 39.811 0
      vertex 270.709 41.233 0
      vertex 271.3 39.8997 0
    endloop
  endfacet
  facet normal 0 0 -1
    outer loop
      vertex 271.324 39.8089 0
      vertex 267.61 39.811 0
      vertex 271.3 39.8997 0
    endloop
  endfacet
  facet normal -0 0 -1
    outer loop
      vertex 271.324 39.8089 0
      vertex 270.145 36.0051 0
      vertex 267.61 39.811 0
    endloop
  endfacet
  facet normal -0 0 -1
    outer loop
      vertex 270.145 36.0051 0
      vertex 270.06 35.8626 0
      vertex 267.64 36.2813 0
    endloop
  endfacet
  facet normal 0 0 -1
    outer loop
      vertex 267.64 36.2813 0
      vertex 270.06 35.8626 0
      vertex 269.632 34.5479 0
    endloop
  endfacet
  facet normal 0 0 -1
    outer loop
      vertex 267.27 33.3915 0
      vertex 267.912 33.5921 0
      vertex 267.81 33.4484 0
    endloop
  endfacet
  facet normal 0 0 -1
    outer loop
      vertex 266.979 33.4936 0
      vertex 267.063 35.9962 0
      vertex 267.912 33.5921 0
    endloop
  endfacet
  facet normal 0 0 -1
    outer loop
      vertex 266.921 36.0272 0
      vertex 267.063 35.9962 0
      vertex 266.979 33.4936 0
    endloop
  endfacet
  facet normal 0 0 -1
    outer loop
      vertex 267.81 33.4484 0
      vertex 267.352 33.3204 0
      vertex 267.27 33.3915 0
    endloop
  endfacet
  facet normal 0 0 -1
    outer loop
      vertex 266.979 33.4936 0
      vertex 266.329 36.5462 0
      vertex 266.921 36.0272 0
    endloop
  endfacet
  facet normal 0 0 -1
    outer loop
      vertex 270.142 32.8177 0
      vertex 268.909 32.8825 0
      vertex 270.265 33.1145 0
    endloop
  endfacet
  facet normal 0 0 -1
    outer loop
      vertex 270.137 32.7135 0
      vertex 268.909 32.8825 0
      vertex 270.142 32.8177 0
    endloop
  endfacet
  facet normal 0 0 -1
    outer loop
      vertex 269.162 30.8333 0
      vertex 268.625 31.2757 0
      vertex 269.883 31.1534 0
    endloop
  endfacet
  facet normal 0 0 -1
    outer loop
      vertex 267.719 32.6302 0
      vertex 267.352 33.3204 0
      vertex 267.81 33.4484 0
    endloop
  endfacet
  facet normal 0 0 -1
    outer loop
      vertex 267.533 36.1362 0
      vertex 269.632 34.5479 0
      vertex 268.045 33.5736 0
    endloop
  endfacet
  facet normal 0 0 -1
    outer loop
      vertex 268.045 33.5736 0
      vertex 267.912 33.5921 0
      vertex 267.533 36.1362 0
    endloop
  endfacet
  facet normal 0 0 -1
    outer loop
      vertex 267.912 33.5921 0
      vertex 267.063 35.9962 0
      vertex 267.533 36.1362 0
    endloop
  endfacet
  facet normal 0 0 -1
    outer loop
      vertex 268.845 33.0236 0
      vertex 268.045 33.5736 0
      vertex 269.626 34.4033 0
    endloop
  endfacet
  facet normal 0 0 -1
    outer loop
      vertex 268.045 33.5736 0
      vertex 269.632 34.5479 0
      vertex 269.626 34.4033 0
    endloop
  endfacet
  facet normal 0 0 -1
    outer loop
      vertex 268.845 33.0236 0
      vertex 270.265 33.1145 0
      vertex 268.909 32.8825 0
    endloop
  endfacet
  facet normal 0 -0 -1
    outer loop
      vertex 268.909 32.8825 0
      vertex 270.137 32.7135 0
      vertex 268.869 32.5425 0
    endloop
  endfacet
  facet normal 0 -0 -1
    outer loop
      vertex 268.869 32.5425 0
      vertex 270.137 32.7135 0
      vertex 268.828 32.4555 0
    endloop
  endfacet
  facet normal 0 0 -1
    outer loop
      vertex 268.193 31.802 0
      vertex 268.474 31.2993 0
      vertex 268.22 31.1976 0
    endloop
  endfacet
  facet normal 0 0 -1
    outer loop
      vertex 269.883 31.1534 0
      vertex 268.625 31.2757 0
      vertex 268.828 32.4555 0
    endloop
  endfacet
  facet normal -0 0 -1
    outer loop
      vertex 270.447 31.7635 0
      vertex 269.95 31.2014 0
      vertex 270.137 32.7135 0
    endloop
  endfacet
  facet normal 0 0 -1
    outer loop
      vertex 268.625 31.2757 0
      vertex 268.193 31.802 0
      vertex 268.828 32.4555 0
    endloop
  endfacet
  facet normal 0 0 -1
    outer loop
      vertex 268.474 31.2993 0
      vertex 268.193 31.802 0
      vertex 268.625 31.2757 0
    endloop
  endfacet
  facet normal 0 0 -1
    outer loop
      vertex 268.828 32.4555 0
      vertex 269.95 31.2014 0
      vertex 269.883 31.1534 0
    endloop
  endfacet
  facet normal 0 0 -1
    outer loop
      vertex 274.139 29.3523 0
      vertex 273.841 30.1998 0
      vertex 274.427 30.5242 0
    endloop
  endfacet
  facet normal 0 -0 -1
    outer loop
      vertex 270.447 31.7635 0
      vertex 270.518 31.6783 0
      vertex 269.95 31.2014 0
    endloop
  endfacet
  facet normal 0 0 -1
    outer loop
      vertex 269.162 30.8333 0
      vertex 269.883 31.1534 0
      vertex 269.585 30.7795 0
    endloop
  endfacet
  facet normal 0 0 -1
    outer loop
      vertex 269.95 31.2014 0
      vertex 270.518 31.6783 0
      vertex 270.57 31.4214 0
    endloop
  endfacet
  facet normal 0 0 -1
    outer loop
      vertex 270.57 31.4214 0
      vertex 270.518 31.6783 0
      vertex 270.707 31.4021 0
    endloop
  endfacet
  facet normal 0 0 -1
    outer loop
      vertex 270.707 31.4021 0
      vertex 270.518 31.6783 0
      vertex 271.508 31.1383 0
    endloop
  endfacet
  facet normal -0 -0 -1
    outer loop
      vertex 271.508 31.1383 0
      vertex 272.037 30.452 0
      vertex 270.707 31.4021 0
    endloop
  endfacet
  facet normal 0 0 -1
    outer loop
      vertex 274.933 29.4186 0
      vertex 274.759 29.0904 0
      vertex 274.139 29.3523 0
    endloop
  endfacet
  facet normal 0 0 -1
    outer loop
      vertex 272.409 31.3585 0
      vertex 271.879 31.496 0
      vertex 272.499 31.9876 0
    endloop
  endfacet
  facet normal 0 0 -1
    outer loop
      vertex 272.011 31.1145 0
      vertex 271.679 31.1575 0
      vertex 271.849 31.3075 0
    endloop
  endfacet
  facet normal 0 0 -1
    outer loop
      vertex 272.076 30.412 0
      vertex 272.011 31.1145 0
      vertex 272.44 30.0365 0
    endloop
  endfacet
  facet normal 0 0 -1
    outer loop
      vertex 272.409 31.3585 0
      vertex 272.499 31.9876 0
      vertex 272.526 31.3251 0
    endloop
  endfacet
  facet normal 0 0 -1
    outer loop
      vertex 273.419 30.7984 0
      vertex 272.526 31.3251 0
      vertex 273.072 31.747 0
    endloop
  endfacet
  facet normal 0 0 -1
    outer loop
      vertex 272.526 31.3251 0
      vertex 272.499 31.9876 0
      vertex 273.072 31.747 0
    endloop
  endfacet
  facet normal -0 -0 -1
    outer loop
      vertex 273.623 30.714 0
      vertex 273.796 30.2652 0
      vertex 273.419 30.7984 0
    endloop
  endfacet
  facet normal -0 0 -1
    outer loop
      vertex 274.991 29.7163 0
      vertex 274.139 29.3523 0
      vertex 274.427 30.5242 0
    endloop
  endfacet
  facet normal -0 -0 -1
    outer loop
      vertex 273.419 30.7984 0
      vertex 273.796 30.2652 0
      vertex 272.526 31.3251 0
    endloop
  endfacet
  facet normal 0 -0 -1
    outer loop
      vertex 274.933 29.4186 0
      vertex 275.048 29.2434 0
      vertex 274.759 29.0904 0
    endloop
  endfacet
  facet normal 0 -0 -1
    outer loop
      vertex 275.048 29.2434 0
      vertex 275.438 29.1 0
      vertex 274.759 29.0904 0
    endloop
  endfacet
  facet normal 0 0 -1
    outer loop
      vertex 275.438 29.1 0
      vertex 275.698 29.1035 0
      vertex 275.583 28.9059 0
    endloop
  endfacet
  facet normal 0 -0 -1
    outer loop
      vertex 275.583 28.9059 0
      vertex 275.698 29.1035 0
      vertex 275.581 28.4061 0
    endloop
  endfacet
  facet normal 0 0 -1
    outer loop
      vertex 275.456 28.4915 0
      vertex 275.583 28.9059 0
      vertex 275.581 28.4061 0
    endloop
  endfacet
  facet normal 0 0 1
    outer loop
      vertex 272.011 31.1145 10
      vertex 271.679 31.1575 10
      vertex 272.037 30.452 10
    endloop
  endfacet
  facet normal 0 -0 1
    outer loop
      vertex 275.438 29.1 10
      vertex 275.698 29.1035 10
      vertex 275.048 29.2434 10
    endloop
  endfacet
  facet normal 0 -0 1
    outer loop
      vertex 274.427 30.5242 10
      vertex 274.505 30.753 10
      vertex 274.053 30.914 10
    endloop
  endfacet
  facet normal 0 0 1
    outer loop
      vertex 272.409 31.3585 10
      vertex 271.879 31.496 10
      vertex 272.129 31.3185 10
    endloop
  endfacet
  facet normal 0 0 1
    outer loop
      vertex 274.505 30.753 10
      vertex 274.175 31.345 10
      vertex 274.139 31.0328 10
    endloop
  endfacet
  facet normal 0 -0 1
    outer loop
      vertex 273.841 30.1998 10
      vertex 274.427 30.5242 10
      vertex 273.796 30.2652 10
    endloop
  endfacet
  facet normal -0 0 1
    outer loop
      vertex 271.849 31.3075 10
      vertex 272.011 31.1145 10
      vertex 272.129 31.3185 10
    endloop
  endfacet
  facet normal 0 0 1
    outer loop
      vertex 271.376 40.8871 10
      vertex 270.794 41.2219 10
      vertex 271.36 40.8297 10
    endloop
  endfacet
  facet normal 0 -0 1
    outer loop
      vertex 274.982 30.9037 10
      vertex 274.989 30.9604 10
      vertex 274.505 30.753 10
    endloop
  endfacet
  facet normal 0 0 1
    outer loop
      vertex 274.989 30.9604 10
      vertex 274.175 31.345 10
      vertex 274.505 30.753 10
    endloop
  endfacet
  facet normal 0 0 1
    outer loop
      vertex 267.61 39.811 10
      vertex 267.64 36.2813 10
      vertex 270.145 36.0051 10
    endloop
  endfacet
  facet normal 0 0 1
    outer loop
      vertex 274.505 30.753 10
      vertex 274.139 31.0328 10
      vertex 274.053 30.914 10
    endloop
  endfacet
  facet normal 0 -0 1
    outer loop
      vertex 271.879 31.496 10
      vertex 272.499 31.9876 10
      vertex 271.767 31.6869 10
    endloop
  endfacet
  facet normal 0 -0 1
    outer loop
      vertex 273.796 30.2652 10
      vertex 274.053 30.914 10
      vertex 273.623 30.714 10
    endloop
  endfacet
  facet normal 0 0 1
    outer loop
      vertex 274.427 30.5242 10
      vertex 274.053 30.914 10
      vertex 273.796 30.2652 10
    endloop
  endfacet
  facet normal 0 0 1
    outer loop
      vertex 271.849 31.3075 10
      vertex 272.129 31.3185 10
      vertex 271.879 31.496 10
    endloop
  endfacet
  facet normal 0 0 1
    outer loop
      vertex 267.819 32.6512 10
      vertex 267.81 33.4484 10
      vertex 267.719 32.6302 10
    endloop
  endfacet
  facet normal 0 0 1
    outer loop
      vertex 271.679 31.1575 10
      vertex 271.508 31.1383 10
      vertex 272.037 30.452 10
    endloop
  endfacet
  facet normal -0 0 1
    outer loop
      vertex 268.828 32.4555 10
      vertex 269.95 31.2014 10
      vertex 270.137 32.7135 10
    endloop
  endfacet
  facet normal 0 0 1
    outer loop
      vertex 272.011 31.1145 10
      vertex 272.037 30.452 10
      vertex 272.076 30.412 10
    endloop
  endfacet
  facet normal 0 0 1
    outer loop
      vertex 272.44 30.0365 10
      vertex 272.076 30.412 10
      vertex 272.399 29.9176 10
    endloop
  endfacet
  facet normal 0 0 1
    outer loop
      vertex 274.991 29.7163 10
      vertex 274.139 29.3523 10
      vertex 274.933 29.4186 10
    endloop
  endfacet
  facet normal 0 -0 1
    outer loop
      vertex 267.27 33.3915 10
      vertex 267.912 33.5921 10
      vertex 266.979 33.4936 10
    endloop
  endfacet
  facet normal -0 0 1
    outer loop
      vertex 267.533 36.1362 10
      vertex 269.632 34.5479 10
      vertex 267.64 36.2813 10
    endloop
  endfacet
  facet normal 0 0 1
    outer loop
      vertex 270.265 33.1145 10
      vertex 269.626 34.4033 10
      vertex 268.845 33.0236 10
    endloop
  endfacet
  facet normal 0 0 1
    outer loop
      vertex 271.36 40.8297 10
      vertex 270.794 41.2219 10
      vertex 271.3 39.8997 10
    endloop
  endfacet
  facet normal 0 0 1
    outer loop
      vertex 270.709 41.233 10
      vertex 269.094 41.9527 10
      vertex 267.61 39.811 10
    endloop
  endfacet
  facet normal 0 0 1
    outer loop
      vertex 270.088 35.2986 10
      vertex 270.06 35.8626 10
      vertex 269.632 34.5479 10
    endloop
  endfacet
  facet normal -0 0 1
    outer loop
      vertex 271.326 41.3584 10
      vertex 271.376 40.8871 10
      vertex 271.648 41.4315 10
    endloop
  endfacet
  facet normal 0 0 1
    outer loop
      vertex 271.292 36.5594 10
      vertex 272.092 38.6132 10
      vertex 271.324 39.8089 10
    endloop
  endfacet
  facet normal 0 -0 1
    outer loop
      vertex 271.292 36.5594 10
      vertex 271.324 39.8089 10
      vertex 270.145 36.0051 10
    endloop
  endfacet
  facet normal 0 0 1
    outer loop
      vertex 271.376 40.8871 10
      vertex 271.224 41.2919 10
      vertex 270.794 41.2219 10
    endloop
  endfacet
  facet normal 0 0 1
    outer loop
      vertex 271.326 41.3584 10
      vertex 271.224 41.2919 10
      vertex 271.376 40.8871 10
    endloop
  endfacet
  facet normal 0 0 1
    outer loop
      vertex 271.648 41.4315 10
      vertex 271.584 41.6228 10
      vertex 271.509 41.6402 10
    endloop
  endfacet
  facet normal 0 0 1
    outer loop
      vertex 271.648 41.4315 10
      vertex 271.509 41.6402 10
      vertex 271.326 41.3584 10
    endloop
  endfacet
  facet normal 0 0 1
    outer loop
      vertex 270.794 41.2219 10
      vertex 270.709 41.233 10
      vertex 271.3 39.8997 10
    endloop
  endfacet
  facet normal 0 0 1
    outer loop
      vertex 267.61 39.811 10
      vertex 269.094 41.9527 10
      vertex 268.122 41.7336 10
    endloop
  endfacet
  facet normal 0 0 1
    outer loop
      vertex 271.3 39.8997 10
      vertex 270.709 41.233 10
      vertex 267.61 39.811 10
    endloop
  endfacet
  facet normal 0 0 1
    outer loop
      vertex 271.3 39.8997 10
      vertex 267.61 39.811 10
      vertex 271.324 39.8089 10
    endloop
  endfacet
  facet normal 0 0 1
    outer loop
      vertex 267.61 39.811 10
      vertex 270.145 36.0051 10
      vertex 271.324 39.8089 10
    endloop
  endfacet
  facet normal 0 0 1
    outer loop
      vertex 267.64 36.2813 10
      vertex 270.06 35.8626 10
      vertex 270.145 36.0051 10
    endloop
  endfacet
  facet normal 0 -0 1
    outer loop
      vertex 269.632 34.5479 10
      vertex 270.06 35.8626 10
      vertex 267.64 36.2813 10
    endloop
  endfacet
  facet normal 0 -0 1
    outer loop
      vertex 267.81 33.4484 10
      vertex 267.912 33.5921 10
      vertex 267.27 33.3915 10
    endloop
  endfacet
  facet normal 0 0 1
    outer loop
      vertex 267.912 33.5921 10
      vertex 267.063 35.9962 10
      vertex 266.979 33.4936 10
    endloop
  endfacet
  facet normal 0 -0 1
    outer loop
      vertex 266.979 33.4936 10
      vertex 267.063 35.9962 10
      vertex 266.921 36.0272 10
    endloop
  endfacet
  facet normal -0 0 1
    outer loop
      vertex 267.27 33.3915 10
      vertex 267.352 33.3204 10
      vertex 267.81 33.4484 10
    endloop
  endfacet
  facet normal 0 0 1
    outer loop
      vertex 266.921 36.0272 10
      vertex 266.329 36.5462 10
      vertex 266.979 33.4936 10
    endloop
  endfacet
  facet normal 0 0 1
    outer loop
      vertex 270.265 33.1145 10
      vertex 268.909 32.8825 10
      vertex 270.142 32.8177 10
    endloop
  endfacet
  facet normal 0 0 1
    outer loop
      vertex 270.142 32.8177 10
      vertex 268.909 32.8825 10
      vertex 270.137 32.7135 10
    endloop
  endfacet
  facet normal 0 0 1
    outer loop
      vertex 269.883 31.1534 10
      vertex 268.625 31.2757 10
      vertex 269.162 30.8333 10
    endloop
  endfacet
  facet normal 0 0 1
    outer loop
      vertex 267.81 33.4484 10
      vertex 267.352 33.3204 10
      vertex 267.719 32.6302 10
    endloop
  endfacet
  facet normal 0 -0 1
    outer loop
      vertex 268.045 33.5736 10
      vertex 269.632 34.5479 10
      vertex 267.533 36.1362 10
    endloop
  endfacet
  facet normal 0 0 1
    outer loop
      vertex 267.533 36.1362 10
      vertex 267.912 33.5921 10
      vertex 268.045 33.5736 10
    endloop
  endfacet
  facet normal 0 0 1
    outer loop
      vertex 267.533 36.1362 10
      vertex 267.063 35.9962 10
      vertex 267.912 33.5921 10
    endloop
  endfacet
  facet normal 0 0 1
    outer loop
      vertex 269.626 34.4033 10
      vertex 268.045 33.5736 10
      vertex 268.845 33.0236 10
    endloop
  endfacet
  facet normal 0 -0 1
    outer loop
      vertex 269.626 34.4033 10
      vertex 269.632 34.5479 10
      vertex 268.045 33.5736 10
    endloop
  endfacet
  facet normal 0 -0 1
    outer loop
      vertex 268.909 32.8825 10
      vertex 270.265 33.1145 10
      vertex 268.845 33.0236 10
    endloop
  endfacet
  facet normal 0 0 1
    outer loop
      vertex 268.869 32.5425 10
      vertex 270.137 32.7135 10
      vertex 268.909 32.8825 10
    endloop
  endfacet
  facet normal 0 0 1
    outer loop
      vertex 268.828 32.4555 10
      vertex 270.137 32.7135 10
      vertex 268.869 32.5425 10
    endloop
  endfacet
  facet normal 0 -0 1
    outer loop
      vertex 268.22 31.1976 10
      vertex 268.474 31.2993 10
      vertex 268.193 31.802 10
    endloop
  endfacet
  facet normal 0 0 1
    outer loop
      vertex 268.828 32.4555 10
      vertex 268.625 31.2757 10
      vertex 269.883 31.1534 10
    endloop
  endfacet
  facet normal 0 0 1
    outer loop
      vertex 270.137 32.7135 10
      vertex 269.95 31.2014 10
      vertex 270.447 31.7635 10
    endloop
  endfacet
  facet normal 0 0 1
    outer loop
      vertex 268.828 32.4555 10
      vertex 268.193 31.802 10
      vertex 268.625 31.2757 10
    endloop
  endfacet
  facet normal 0 0 1
    outer loop
      vertex 268.625 31.2757 10
      vertex 268.193 31.802 10
      vertex 268.474 31.2993 10
    endloop
  endfacet
  facet normal 0 -0 1
    outer loop
      vertex 269.883 31.1534 10
      vertex 269.95 31.2014 10
      vertex 268.828 32.4555 10
    endloop
  endfacet
  facet normal 0 0 1
    outer loop
      vertex 274.427 30.5242 10
      vertex 273.841 30.1998 10
      vertex 274.139 29.3523 10
    endloop
  endfacet
  facet normal 0 0 1
    outer loop
      vertex 269.95 31.2014 10
      vertex 270.518 31.6783 10
      vertex 270.447 31.7635 10
    endloop
  endfacet
  facet normal 0 -0 1
    outer loop
      vertex 269.585 30.7795 10
      vertex 269.883 31.1534 10
      vertex 269.162 30.8333 10
    endloop
  endfacet
  facet normal 0 0 1
    outer loop
      vertex 270.57 31.4214 10
      vertex 270.518 31.6783 10
      vertex 269.95 31.2014 10
    endloop
  endfacet
  facet normal 0 0 1
    outer loop
      vertex 270.707 31.4021 10
      vertex 270.518 31.6783 10
      vertex 270.57 31.4214 10
    endloop
  endfacet
  facet normal 0 0 1
    outer loop
      vertex 271.508 31.1383 10
      vertex 270.518 31.6783 10
      vertex 270.707 31.4021 10
    endloop
  endfacet
  facet normal 0 0 1
    outer loop
      vertex 270.707 31.4021 10
      vertex 272.037 30.452 10
      vertex 271.508 31.1383 10
    endloop
  endfacet
  facet normal -0 0 1
    outer loop
      vertex 274.139 29.3523 10
      vertex 274.759 29.0904 10
      vertex 274.933 29.4186 10
    endloop
  endfacet
  facet normal 0 0 1
    outer loop
      vertex 272.499 31.9876 10
      vertex 271.879 31.496 10
      vertex 272.409 31.3585 10
    endloop
  endfacet
  facet normal 0 0 1
    outer loop
      vertex 271.849 31.3075 10
      vertex 271.679 31.1575 10
      vertex 272.011 31.1145 10
    endloop
  endfacet
  facet normal 0 0 1
    outer loop
      vertex 272.44 30.0365 10
      vertex 272.011 31.1145 10
      vertex 272.076 30.412 10
    endloop
  endfacet
  facet normal 0 0 1
    outer loop
      vertex 272.526 31.3251 10
      vertex 272.499 31.9876 10
      vertex 272.409 31.3585 10
    endloop
  endfacet
  facet normal 0 0 1
    outer loop
      vertex 273.072 31.747 10
      vertex 272.526 31.3251 10
      vertex 273.419 30.7984 10
    endloop
  endfacet
  facet normal 0 0 1
    outer loop
      vertex 273.072 31.747 10
      vertex 272.499 31.9876 10
      vertex 272.526 31.3251 10
    endloop
  endfacet
  facet normal 0 0 1
    outer loop
      vertex 273.419 30.7984 10
      vertex 273.796 30.2652 10
      vertex 273.623 30.714 10
    endloop
  endfacet
  facet normal 0 0 1
    outer loop
      vertex 274.427 30.5242 10
      vertex 274.139 29.3523 10
      vertex 274.991 29.7163 10
    endloop
  endfacet
  facet normal 0 0 1
    outer loop
      vertex 272.526 31.3251 10
      vertex 273.796 30.2652 10
      vertex 273.419 30.7984 10
    endloop
  endfacet
  facet normal 0 0 1
    outer loop
      vertex 274.759 29.0904 10
      vertex 275.048 29.2434 10
      vertex 274.933 29.4186 10
    endloop
  endfacet
  facet normal 0 0 1
    outer loop
      vertex 274.759 29.0904 10
      vertex 275.438 29.1 10
      vertex 275.048 29.2434 10
    endloop
  endfacet
  facet normal 0 -0 1
    outer loop
      vertex 275.583 28.9059 10
      vertex 275.698 29.1035 10
      vertex 275.438 29.1 10
    endloop
  endfacet
  facet normal 0 0 1
    outer loop
      vertex 275.581 28.4061 10
      vertex 275.698 29.1035 10
      vertex 275.583 28.9059 10
    endloop
  endfacet
  facet normal 0 -0 1
    outer loop
      vertex 275.581 28.4061 10
      vertex 275.583 28.9059 10
      vertex 275.456 28.4915 10
    endloop
  endfacet
  facet normal 0.210412 0.977613 0
    outer loop
      vertex 275.048 29.2434 0
      vertex 275.698 29.1035 10
      vertex 275.698 29.1035 0
    endloop
  endfacet
  facet normal 0.210412 0.977613 -0
    outer loop
      vertex 275.048 29.2434 0
      vertex 275.048 29.2434 10
      vertex 275.698 29.1035 10
    endloop
  endfacet
  facet normal 0.835993 0.54874 0
    outer loop
      vertex 274.933 29.4186 0
      vertex 275.048 29.2434 10
      vertex 275.048 29.2434 0
    endloop
  endfacet
  facet normal 0.835993 0.54874 -0
    outer loop
      vertex 274.933 29.4186 0
      vertex 274.933 29.4186 10
      vertex 275.048 29.2434 10
    endloop
  endfacet
  facet normal 0.981545 -0.191231 0
    outer loop
      vertex 274.991 29.7163 0
      vertex 274.933 29.4186 10
      vertex 274.933 29.4186 0
    endloop
  endfacet
  facet normal 0.981545 -0.191231 0
    outer loop
      vertex 274.991 29.7163 0
      vertex 274.991 29.7163 10
      vertex 274.933 29.4186 10
    endloop
  endfacet
  facet normal 0.819961 0.57242 0
    outer loop
      vertex 274.427 30.5242 0
      vertex 274.991 29.7163 10
      vertex 274.991 29.7163 0
    endloop
  endfacet
  facet normal 0.819961 0.57242 -0
    outer loop
      vertex 274.427 30.5242 0
      vertex 274.427 30.5242 10
      vertex 274.991 29.7163 10
    endloop
  endfacet
  facet normal 0.94651 -0.322674 0
    outer loop
      vertex 274.505 30.753 0
      vertex 274.427 30.5242 10
      vertex 274.427 30.5242 0
    endloop
  endfacet
  facet normal 0.94651 -0.322674 0
    outer loop
      vertex 274.505 30.753 0
      vertex 274.505 30.753 10
      vertex 274.427 30.5242 10
    endloop
  endfacet
  facet normal 0.301256 -0.953543 0
    outer loop
      vertex 274.982 30.9037 0
      vertex 274.505 30.753 10
      vertex 274.505 30.753 0
    endloop
  endfacet
  facet normal 0.301256 -0.953543 0
    outer loop
      vertex 274.982 30.9037 0
      vertex 274.982 30.9037 10
      vertex 274.505 30.753 10
    endloop
  endfacet
  facet normal 0.992465 -0.122527 0
    outer loop
      vertex 274.989 30.9604 0
      vertex 274.982 30.9037 10
      vertex 274.982 30.9037 0
    endloop
  endfacet
  facet normal 0.992465 -0.122527 0
    outer loop
      vertex 274.989 30.9604 0
      vertex 274.989 30.9604 10
      vertex 274.982 30.9037 10
    endloop
  endfacet
  facet normal 0.427198 0.904158 0
    outer loop
      vertex 274.175 31.345 0
      vertex 274.989 30.9604 10
      vertex 274.989 30.9604 0
    endloop
  endfacet
  facet normal 0.427198 0.904158 -0
    outer loop
      vertex 274.175 31.345 0
      vertex 274.175 31.345 10
      vertex 274.989 30.9604 10
    endloop
  endfacet
  facet normal -0.993417 0.114552 0
    outer loop
      vertex 274.139 31.0328 0
      vertex 274.175 31.345 10
      vertex 274.175 31.345 0
    endloop
  endfacet
  facet normal -0.993417 0.114552 0
    outer loop
      vertex 274.139 31.0328 0
      vertex 274.139 31.0328 10
      vertex 274.175 31.345 10
    endloop
  endfacet
  facet normal -0.810031 0.586386 0
    outer loop
      vertex 274.053 30.914 0
      vertex 274.139 31.0328 10
      vertex 274.139 31.0328 0
    endloop
  endfacet
  facet normal -0.810031 0.586386 0
    outer loop
      vertex 274.053 30.914 0
      vertex 274.053 30.914 10
      vertex 274.139 31.0328 10
    endloop
  endfacet
  facet normal -0.421731 0.906721 0
    outer loop
      vertex 273.623 30.714 0
      vertex 274.053 30.914 10
      vertex 274.053 30.914 0
    endloop
  endfacet
  facet normal -0.421731 0.906721 0
    outer loop
      vertex 273.623 30.714 0
      vertex 273.623 30.714 10
      vertex 274.053 30.914 10
    endloop
  endfacet
  facet normal 0.382298 0.924039 0
    outer loop
      vertex 273.419 30.7984 0
      vertex 273.623 30.714 10
      vertex 273.623 30.714 0
    endloop
  endfacet
  facet normal 0.382298 0.924039 -0
    outer loop
      vertex 273.419 30.7984 0
      vertex 273.419 30.7984 10
      vertex 273.623 30.714 10
    endloop
  endfacet
  facet normal 0.939138 0.343539 0
    outer loop
      vertex 273.072 31.747 0
      vertex 273.419 30.7984 10
      vertex 273.419 30.7984 0
    endloop
  endfacet
  facet normal 0.939138 0.343539 -0
    outer loop
      vertex 273.072 31.747 0
      vertex 273.072 31.747 10
      vertex 273.419 30.7984 10
    endloop
  endfacet
  facet normal 0.38715 0.922017 0
    outer loop
      vertex 272.499 31.9876 0
      vertex 273.072 31.747 10
      vertex 273.072 31.747 0
    endloop
  endfacet
  facet normal 0.38715 0.922017 -0
    outer loop
      vertex 272.499 31.9876 0
      vertex 272.499 31.9876 10
      vertex 273.072 31.747 10
    endloop
  endfacet
  facet normal -0.379981 0.924994 0
    outer loop
      vertex 271.767 31.6869 0
      vertex 272.499 31.9876 10
      vertex 272.499 31.9876 0
    endloop
  endfacet
  facet normal -0.379981 0.924994 0
    outer loop
      vertex 271.767 31.6869 0
      vertex 271.767 31.6869 10
      vertex 272.499 31.9876 10
    endloop
  endfacet
  facet normal -0.862514 -0.506033 0
    outer loop
      vertex 271.879 31.496 0
      vertex 271.767 31.6869 10
      vertex 271.767 31.6869 0
    endloop
  endfacet
  facet normal -0.862514 -0.506033 0
    outer loop
      vertex 271.879 31.496 0
      vertex 271.879 31.496 10
      vertex 271.767 31.6869 10
    endloop
  endfacet
  facet normal -0.987571 0.157173 0
    outer loop
      vertex 271.849 31.3075 0
      vertex 271.879 31.496 10
      vertex 271.879 31.496 0
    endloop
  endfacet
  facet normal -0.987571 0.157173 0
    outer loop
      vertex 271.849 31.3075 0
      vertex 271.849 31.3075 10
      vertex 271.879 31.496 10
    endloop
  endfacet
  facet normal -0.661622 0.749838 0
    outer loop
      vertex 271.679 31.1575 0
      vertex 271.849 31.3075 10
      vertex 271.849 31.3075 0
    endloop
  endfacet
  facet normal -0.661622 0.749838 0
    outer loop
      vertex 271.679 31.1575 0
      vertex 271.679 31.1575 10
      vertex 271.849 31.3075 10
    endloop
  endfacet
  facet normal -0.11158 0.993756 0
    outer loop
      vertex 271.508 31.1383 0
      vertex 271.679 31.1575 10
      vertex 271.679 31.1575 0
    endloop
  endfacet
  facet normal -0.11158 0.993756 0
    outer loop
      vertex 271.508 31.1383 0
      vertex 271.508 31.1383 10
      vertex 271.679 31.1575 10
    endloop
  endfacet
  facet normal 0.478852 0.877896 0
    outer loop
      vertex 270.518 31.6783 0
      vertex 271.508 31.1383 10
      vertex 271.508 31.1383 0
    endloop
  endfacet
  facet normal 0.478852 0.877896 -0
    outer loop
      vertex 270.518 31.6783 0
      vertex 270.518 31.6783 10
      vertex 271.508 31.1383 10
    endloop
  endfacet
  facet normal 0.768221 0.640184 0
    outer loop
      vertex 270.447 31.7635 0
      vertex 270.518 31.6783 10
      vertex 270.518 31.6783 0
    endloop
  endfacet
  facet normal 0.768221 0.640184 -0
    outer loop
      vertex 270.447 31.7635 0
      vertex 270.447 31.7635 10
      vertex 270.518 31.6783 10
    endloop
  endfacet
  facet normal 0.950666 0.310217 0
    outer loop
      vertex 270.137 32.7135 0
      vertex 270.447 31.7635 10
      vertex 270.447 31.7635 0
    endloop
  endfacet
  facet normal 0.950666 0.310217 -0
    outer loop
      vertex 270.137 32.7135 0
      vertex 270.137 32.7135 10
      vertex 270.447 31.7635 10
    endloop
  endfacet
  facet normal 0.998851 -0.0479295 0
    outer loop
      vertex 270.142 32.8177 0
      vertex 270.137 32.7135 10
      vertex 270.137 32.7135 0
    endloop
  endfacet
  facet normal 0.998851 -0.0479295 0
    outer loop
      vertex 270.142 32.8177 0
      vertex 270.142 32.8177 10
      vertex 270.137 32.7135 10
    endloop
  endfacet
  facet normal 0.923812 -0.382847 0
    outer loop
      vertex 270.265 33.1145 0
      vertex 270.142 32.8177 10
      vertex 270.142 32.8177 0
    endloop
  endfacet
  facet normal 0.923812 -0.382847 0
    outer loop
      vertex 270.265 33.1145 0
      vertex 270.265 33.1145 10
      vertex 270.142 32.8177 10
    endloop
  endfacet
  facet normal 0.895924 0.444208 0
    outer loop
      vertex 269.626 34.4033 0
      vertex 270.265 33.1145 10
      vertex 270.265 33.1145 0
    endloop
  endfacet
  facet normal 0.895924 0.444208 -0
    outer loop
      vertex 269.626 34.4033 0
      vertex 269.626 34.4033 10
      vertex 270.265 33.1145 10
    endloop
  endfacet
  facet normal 0.99914 -0.0414581 0
    outer loop
      vertex 269.632 34.5479 0
      vertex 269.626 34.4033 10
      vertex 269.626 34.4033 0
    endloop
  endfacet
  facet normal 0.99914 -0.0414581 0
    outer loop
      vertex 269.632 34.5479 0
      vertex 269.632 34.5479 10
      vertex 269.626 34.4033 10
    endloop
  endfacet
  facet normal 0.854677 -0.519159 0
    outer loop
      vertex 270.088 35.2986 0
      vertex 269.632 34.5479 10
      vertex 269.632 34.5479 0
    endloop
  endfacet
  facet normal 0.854677 -0.519159 0
    outer loop
      vertex 270.088 35.2986 0
      vertex 270.088 35.2986 10
      vertex 269.632 34.5479 10
    endloop
  endfacet
  facet normal 0.99877 0.0495843 0
    outer loop
      vertex 270.06 35.8626 0
      vertex 270.088 35.2986 10
      vertex 270.088 35.2986 0
    endloop
  endfacet
  facet normal 0.99877 0.0495843 -0
    outer loop
      vertex 270.06 35.8626 0
      vertex 270.06 35.8626 10
      vertex 270.088 35.2986 10
    endloop
  endfacet
  facet normal 0.85882 -0.512278 0
    outer loop
      vertex 270.145 36.0051 0
      vertex 270.06 35.8626 10
      vertex 270.06 35.8626 0
    endloop
  endfacet
  facet normal 0.85882 -0.512278 0
    outer loop
      vertex 270.145 36.0051 0
      vertex 270.145 36.0051 10
      vertex 270.06 35.8626 10
    endloop
  endfacet
  facet normal 0.435116 -0.900375 0
    outer loop
      vertex 271.292 36.5594 0
      vertex 270.145 36.0051 10
      vertex 270.145 36.0051 0
    endloop
  endfacet
  facet normal 0.435116 -0.900375 0
    outer loop
      vertex 271.292 36.5594 0
      vertex 271.292 36.5594 10
      vertex 270.145 36.0051 10
    endloop
  endfacet
  facet normal 0.931805 -0.362959 0
    outer loop
      vertex 272.092 38.6132 0
      vertex 271.292 36.5594 10
      vertex 271.292 36.5594 0
    endloop
  endfacet
  facet normal 0.931805 -0.362959 0
    outer loop
      vertex 272.092 38.6132 0
      vertex 272.092 38.6132 10
      vertex 271.292 36.5594 10
    endloop
  endfacet
  facet normal 0.841391 0.540427 0
    outer loop
      vertex 271.324 39.8089 0
      vertex 272.092 38.6132 10
      vertex 272.092 38.6132 0
    endloop
  endfacet
  facet normal 0.841391 0.540427 -0
    outer loop
      vertex 271.324 39.8089 0
      vertex 271.324 39.8089 10
      vertex 272.092 38.6132 10
    endloop
  endfacet
  facet normal 0.966798 0.255541 0
    outer loop
      vertex 271.3 39.8997 0
      vertex 271.324 39.8089 10
      vertex 271.324 39.8089 0
    endloop
  endfacet
  facet normal 0.966798 0.255541 -0
    outer loop
      vertex 271.3 39.8997 0
      vertex 271.3 39.8997 10
      vertex 271.324 39.8089 10
    endloop
  endfacet
  facet normal 0.997925 -0.0643823 0
    outer loop
      vertex 271.36 40.8297 0
      vertex 271.3 39.8997 10
      vertex 271.3 39.8997 0
    endloop
  endfacet
  facet normal 0.997925 -0.0643823 0
    outer loop
      vertex 271.36 40.8297 0
      vertex 271.36 40.8297 10
      vertex 271.3 39.8997 10
    endloop
  endfacet
  facet normal 0.963277 -0.268509 0
    outer loop
      vertex 271.376 40.8871 0
      vertex 271.36 40.8297 10
      vertex 271.36 40.8297 0
    endloop
  endfacet
  facet normal 0.963277 -0.268509 0
    outer loop
      vertex 271.376 40.8871 0
      vertex 271.376 40.8871 10
      vertex 271.36 40.8297 10
    endloop
  endfacet
  facet normal 0.894559 -0.446951 0
    outer loop
      vertex 271.648 41.4315 0
      vertex 271.376 40.8871 10
      vertex 271.376 40.8871 0
    endloop
  endfacet
  facet normal 0.894559 -0.446951 0
    outer loop
      vertex 271.648 41.4315 0
      vertex 271.648 41.4315 10
      vertex 271.376 40.8871 10
    endloop
  endfacet
  facet normal 0.948336 0.317269 0
    outer loop
      vertex 271.584 41.6228 0
      vertex 271.648 41.4315 10
      vertex 271.648 41.4315 0
    endloop
  endfacet
  facet normal 0.948336 0.317269 -0
    outer loop
      vertex 271.584 41.6228 0
      vertex 271.584 41.6228 10
      vertex 271.648 41.4315 10
    endloop
  endfacet
  facet normal 0.225998 0.974128 0
    outer loop
      vertex 271.509 41.6402 0
      vertex 271.584 41.6228 10
      vertex 271.584 41.6228 0
    endloop
  endfacet
  facet normal 0.225998 0.974128 -0
    outer loop
      vertex 271.509 41.6402 0
      vertex 271.509 41.6402 10
      vertex 271.584 41.6228 10
    endloop
  endfacet
  facet normal -0.838675 0.544633 0
    outer loop
      vertex 271.326 41.3584 0
      vertex 271.509 41.6402 10
      vertex 271.509 41.6402 0
    endloop
  endfacet
  facet normal -0.838675 0.544633 0
    outer loop
      vertex 271.326 41.3584 0
      vertex 271.326 41.3584 10
      vertex 271.509 41.6402 10
    endloop
  endfacet
  facet normal -0.546143 0.837692 0
    outer loop
      vertex 271.224 41.2919 0
      vertex 271.326 41.3584 10
      vertex 271.326 41.3584 0
    endloop
  endfacet
  facet normal -0.546143 0.837692 0
    outer loop
      vertex 271.224 41.2919 0
      vertex 271.224 41.2919 10
      vertex 271.326 41.3584 10
    endloop
  endfacet
  facet normal -0.160676 0.987007 0
    outer loop
      vertex 270.794 41.2219 0
      vertex 271.224 41.2919 10
      vertex 271.224 41.2919 0
    endloop
  endfacet
  facet normal -0.160676 0.987007 0
    outer loop
      vertex 270.794 41.2219 0
      vertex 270.794 41.2219 10
      vertex 271.224 41.2919 10
    endloop
  endfacet
  facet normal 0.129489 0.991581 0
    outer loop
      vertex 270.709 41.233 0
      vertex 270.794 41.2219 10
      vertex 270.794 41.2219 0
    endloop
  endfacet
  facet normal 0.129489 0.991581 -0
    outer loop
      vertex 270.709 41.233 0
      vertex 270.709 41.233 10
      vertex 270.794 41.2219 10
    endloop
  endfacet
  facet normal 0.407046 0.913408 0
    outer loop
      vertex 269.094 41.9527 0
      vertex 270.709 41.233 10
      vertex 270.709 41.233 0
    endloop
  endfacet
  facet normal 0.407046 0.913408 -0
    outer loop
      vertex 269.094 41.9527 0
      vertex 269.094 41.9527 10
      vertex 270.709 41.233 10
    endloop
  endfacet
  facet normal -0.219894 0.975524 0
    outer loop
      vertex 268.122 41.7336 0
      vertex 269.094 41.9527 10
      vertex 269.094 41.9527 0
    endloop
  endfacet
  facet normal -0.219894 0.975524 0
    outer loop
      vertex 268.122 41.7336 0
      vertex 268.122 41.7336 10
      vertex 269.094 41.9527 10
    endloop
  endfacet
  facet normal -0.966322 0.257337 0
    outer loop
      vertex 267.61 39.811 0
      vertex 268.122 41.7336 10
      vertex 268.122 41.7336 0
    endloop
  endfacet
  facet normal -0.966322 0.257337 0
    outer loop
      vertex 267.61 39.811 0
      vertex 267.61 39.811 10
      vertex 268.122 41.7336 10
    endloop
  endfacet
  facet normal -0.999964 -0.008499 0
    outer loop
      vertex 267.64 36.2813 0
      vertex 267.61 39.811 10
      vertex 267.61 39.811 0
    endloop
  endfacet
  facet normal -0.999964 -0.008499 0
    outer loop
      vertex 267.64 36.2813 0
      vertex 267.64 36.2813 10
      vertex 267.61 39.811 10
    endloop
  endfacet
  facet normal -0.804833 0.593502 0
    outer loop
      vertex 267.533 36.1362 0
      vertex 267.64 36.2813 10
      vertex 267.64 36.2813 0
    endloop
  endfacet
  facet normal -0.804833 0.593502 0
    outer loop
      vertex 267.533 36.1362 0
      vertex 267.533 36.1362 10
      vertex 267.64 36.2813 10
    endloop
  endfacet
  facet normal -0.285477 0.958386 0
    outer loop
      vertex 267.063 35.9962 0
      vertex 267.533 36.1362 10
      vertex 267.533 36.1362 0
    endloop
  endfacet
  facet normal -0.285477 0.958386 0
    outer loop
      vertex 267.063 35.9962 0
      vertex 267.063 35.9962 10
      vertex 267.533 36.1362 10
    endloop
  endfacet
  facet normal 0.213286 0.97699 0
    outer loop
      vertex 266.921 36.0272 0
      vertex 267.063 35.9962 10
      vertex 267.063 35.9962 0
    endloop
  endfacet
  facet normal 0.213286 0.97699 -0
    outer loop
      vertex 266.921 36.0272 0
      vertex 266.921 36.0272 10
      vertex 267.063 35.9962 10
    endloop
  endfacet
  facet normal 0.659224 0.751947 0
    outer loop
      vertex 266.329 36.5462 0
      vertex 266.921 36.0272 10
      vertex 266.921 36.0272 0
    endloop
  endfacet
  facet normal 0.659224 0.751947 -0
    outer loop
      vertex 266.329 36.5462 0
      vertex 266.329 36.5462 10
      vertex 266.921 36.0272 10
    endloop
  endfacet
  facet normal -0.978073 -0.208264 0
    outer loop
      vertex 266.979 33.4936 0
      vertex 266.329 36.5462 10
      vertex 266.329 36.5462 0
    endloop
  endfacet
  facet normal -0.978073 -0.208264 0
    outer loop
      vertex 266.979 33.4936 0
      vertex 266.979 33.4936 10
      vertex 266.329 36.5462 10
    endloop
  endfacet
  facet normal -0.331073 -0.943605 0
    outer loop
      vertex 267.27 33.3915 0
      vertex 266.979 33.4936 10
      vertex 266.979 33.4936 0
    endloop
  endfacet
  facet normal -0.331073 -0.943605 0
    outer loop
      vertex 267.27 33.3915 0
      vertex 267.27 33.3915 10
      vertex 266.979 33.4936 10
    endloop
  endfacet
  facet normal -0.655106 -0.755537 0
    outer loop
      vertex 267.352 33.3204 0
      vertex 267.27 33.3915 10
      vertex 267.27 33.3915 0
    endloop
  endfacet
  facet normal -0.655106 -0.755537 0
    outer loop
      vertex 267.352 33.3204 0
      vertex 267.352 33.3204 10
      vertex 267.27 33.3915 10
    endloop
  endfacet
  facet normal -0.88294 -0.469486 0
    outer loop
      vertex 267.719 32.6302 0
      vertex 267.352 33.3204 10
      vertex 267.352 33.3204 0
    endloop
  endfacet
  facet normal -0.88294 -0.469486 0
    outer loop
      vertex 267.719 32.6302 0
      vertex 267.719 32.6302 10
      vertex 267.352 33.3204 10
    endloop
  endfacet
  facet normal 0.205517 -0.978653 0
    outer loop
      vertex 267.819 32.6512 0
      vertex 267.719 32.6302 10
      vertex 267.719 32.6302 0
    endloop
  endfacet
  facet normal 0.205517 -0.978653 0
    outer loop
      vertex 267.819 32.6512 0
      vertex 267.819 32.6512 10
      vertex 267.719 32.6302 10
    endloop
  endfacet
  facet normal 0.999936 0.0112888 0
    outer loop
      vertex 267.81 33.4484 0
      vertex 267.819 32.6512 10
      vertex 267.819 32.6512 0
    endloop
  endfacet
  facet normal 0.999936 0.0112888 -0
    outer loop
      vertex 267.81 33.4484 0
      vertex 267.81 33.4484 10
      vertex 267.819 32.6512 10
    endloop
  endfacet
  facet normal 0.815455 -0.57882 0
    outer loop
      vertex 267.912 33.5921 0
      vertex 267.81 33.4484 10
      vertex 267.81 33.4484 0
    endloop
  endfacet
  facet normal 0.815455 -0.57882 0
    outer loop
      vertex 267.912 33.5921 0
      vertex 267.912 33.5921 10
      vertex 267.81 33.4484 10
    endloop
  endfacet
  facet normal -0.137771 -0.990464 0
    outer loop
      vertex 268.045 33.5736 0
      vertex 267.912 33.5921 10
      vertex 267.912 33.5921 0
    endloop
  endfacet
  facet normal -0.137771 -0.990464 0
    outer loop
      vertex 268.045 33.5736 0
      vertex 268.045 33.5736 10
      vertex 267.912 33.5921 10
    endloop
  endfacet
  facet normal -0.566529 -0.824042 0
    outer loop
      vertex 268.845 33.0236 0
      vertex 268.045 33.5736 10
      vertex 268.045 33.5736 0
    endloop
  endfacet
  facet normal -0.566529 -0.824042 0
    outer loop
      vertex 268.845 33.0236 0
      vertex 268.845 33.0236 10
      vertex 268.045 33.5736 10
    endloop
  endfacet
  facet normal -0.910698 -0.413073 0
    outer loop
      vertex 268.909 32.8825 0
      vertex 268.845 33.0236 10
      vertex 268.845 33.0236 0
    endloop
  endfacet
  facet normal -0.910698 -0.413073 0
    outer loop
      vertex 268.909 32.8825 0
      vertex 268.909 32.8825 10
      vertex 268.845 33.0236 10
    endloop
  endfacet
  facet normal -0.993151 0.116841 0
    outer loop
      vertex 268.869 32.5425 0
      vertex 268.909 32.8825 10
      vertex 268.909 32.8825 0
    endloop
  endfacet
  facet normal -0.993151 0.116841 0
    outer loop
      vertex 268.869 32.5425 0
      vertex 268.869 32.5425 10
      vertex 268.909 32.8825 10
    endloop
  endfacet
  facet normal -0.904583 0.426298 0
    outer loop
      vertex 268.828 32.4555 0
      vertex 268.869 32.5425 10
      vertex 268.869 32.5425 0
    endloop
  endfacet
  facet normal -0.904583 0.426298 0
    outer loop
      vertex 268.828 32.4555 0
      vertex 268.828 32.4555 10
      vertex 268.869 32.5425 10
    endloop
  endfacet
  facet normal -0.717185 0.696882 0
    outer loop
      vertex 268.193 31.802 0
      vertex 268.828 32.4555 10
      vertex 268.828 32.4555 0
    endloop
  endfacet
  facet normal -0.717185 0.696882 0
    outer loop
      vertex 268.193 31.802 0
      vertex 268.193 31.802 10
      vertex 268.828 32.4555 10
    endloop
  endfacet
  facet normal -0.999004 -0.0446279 0
    outer loop
      vertex 268.22 31.1976 0
      vertex 268.193 31.802 10
      vertex 268.193 31.802 0
    endloop
  endfacet
  facet normal -0.999004 -0.0446279 0
    outer loop
      vertex 268.22 31.1976 0
      vertex 268.22 31.1976 10
      vertex 268.193 31.802 10
    endloop
  endfacet
  facet normal 0.371706 -0.928351 0
    outer loop
      vertex 268.474 31.2993 0
      vertex 268.22 31.1976 10
      vertex 268.22 31.1976 0
    endloop
  endfacet
  facet normal 0.371706 -0.928351 0
    outer loop
      vertex 268.474 31.2993 0
      vertex 268.474 31.2993 10
      vertex 268.22 31.1976 10
    endloop
  endfacet
  facet normal -0.154417 -0.988006 0
    outer loop
      vertex 268.625 31.2757 0
      vertex 268.474 31.2993 10
      vertex 268.474 31.2993 0
    endloop
  endfacet
  facet normal -0.154417 -0.988006 0
    outer loop
      vertex 268.625 31.2757 0
      vertex 268.625 31.2757 10
      vertex 268.474 31.2993 10
    endloop
  endfacet
  facet normal -0.635848 -0.771814 0
    outer loop
      vertex 269.162 30.8333 0
      vertex 268.625 31.2757 10
      vertex 268.625 31.2757 0
    endloop
  endfacet
  facet normal -0.635848 -0.771814 0
    outer loop
      vertex 269.162 30.8333 0
      vertex 269.162 30.8333 10
      vertex 268.625 31.2757 10
    endloop
  endfacet
  facet normal -0.12617 -0.992009 0
    outer loop
      vertex 269.585 30.7795 0
      vertex 269.162 30.8333 10
      vertex 269.162 30.8333 0
    endloop
  endfacet
  facet normal -0.12617 -0.992009 0
    outer loop
      vertex 269.585 30.7795 0
      vertex 269.585 30.7795 10
      vertex 269.162 30.8333 10
    endloop
  endfacet
  facet normal 0.78201 -0.623266 0
    outer loop
      vertex 269.883 31.1534 0
      vertex 269.585 30.7795 10
      vertex 269.585 30.7795 0
    endloop
  endfacet
  facet normal 0.78201 -0.623266 0
    outer loop
      vertex 269.883 31.1534 0
      vertex 269.883 31.1534 10
      vertex 269.585 30.7795 10
    endloop
  endfacet
  facet normal 0.582385 -0.812913 0
    outer loop
      vertex 269.95 31.2014 0
      vertex 269.883 31.1534 10
      vertex 269.883 31.1534 0
    endloop
  endfacet
  facet normal 0.582385 -0.812913 0
    outer loop
      vertex 269.95 31.2014 0
      vertex 269.95 31.2014 10
      vertex 269.883 31.1534 10
    endloop
  endfacet
  facet normal 0.33441 -0.942428 0
    outer loop
      vertex 270.57 31.4214 0
      vertex 269.95 31.2014 10
      vertex 269.95 31.2014 0
    endloop
  endfacet
  facet normal 0.33441 -0.942428 0
    outer loop
      vertex 270.57 31.4214 0
      vertex 270.57 31.4214 10
      vertex 269.95 31.2014 10
    endloop
  endfacet
  facet normal -0.139498 -0.990222 0
    outer loop
      vertex 270.707 31.4021 0
      vertex 270.57 31.4214 10
      vertex 270.57 31.4214 0
    endloop
  endfacet
  facet normal -0.139498 -0.990222 0
    outer loop
      vertex 270.707 31.4021 0
      vertex 270.707 31.4021 10
      vertex 270.57 31.4214 10
    endloop
  endfacet
  facet normal -0.581279 -0.813705 0
    outer loop
      vertex 272.037 30.452 0
      vertex 270.707 31.4021 10
      vertex 270.707 31.4021 0
    endloop
  endfacet
  facet normal -0.581279 -0.813705 0
    outer loop
      vertex 272.037 30.452 0
      vertex 272.037 30.452 10
      vertex 270.707 31.4021 10
    endloop
  endfacet
  facet normal -0.716 -0.6981 0
    outer loop
      vertex 272.076 30.412 0
      vertex 272.037 30.452 10
      vertex 272.037 30.452 0
    endloop
  endfacet
  facet normal -0.716 -0.6981 0
    outer loop
      vertex 272.076 30.412 0
      vertex 272.076 30.412 10
      vertex 272.037 30.452 10
    endloop
  endfacet
  facet normal -0.837172 -0.546939 0
    outer loop
      vertex 272.399 29.9176 0
      vertex 272.076 30.412 10
      vertex 272.076 30.412 0
    endloop
  endfacet
  facet normal -0.837172 -0.546939 0
    outer loop
      vertex 272.399 29.9176 0
      vertex 272.399 29.9176 10
      vertex 272.076 30.412 10
    endloop
  endfacet
  facet normal 0.945373 -0.325991 0
    outer loop
      vertex 272.44 30.0365 0
      vertex 272.399 29.9176 10
      vertex 272.399 29.9176 0
    endloop
  endfacet
  facet normal 0.945373 -0.325991 0
    outer loop
      vertex 272.44 30.0365 0
      vertex 272.44 30.0365 10
      vertex 272.399 29.9176 10
    endloop
  endfacet
  facet normal 0.929129 0.369755 0
    outer loop
      vertex 272.011 31.1145 0
      vertex 272.44 30.0365 10
      vertex 272.44 30.0365 0
    endloop
  endfacet
  facet normal 0.929129 0.369755 -0
    outer loop
      vertex 272.011 31.1145 0
      vertex 272.011 31.1145 10
      vertex 272.44 30.0365 10
    endloop
  endfacet
  facet normal 0.86562 -0.500702 0
    outer loop
      vertex 272.129 31.3185 0
      vertex 272.011 31.1145 10
      vertex 272.011 31.1145 0
    endloop
  endfacet
  facet normal 0.86562 -0.500702 0
    outer loop
      vertex 272.129 31.3185 0
      vertex 272.129 31.3185 10
      vertex 272.011 31.1145 10
    endloop
  endfacet
  facet normal 0.141421 -0.989949 0
    outer loop
      vertex 272.409 31.3585 0
      vertex 272.129 31.3185 10
      vertex 272.129 31.3185 0
    endloop
  endfacet
  facet normal 0.141421 -0.989949 0
    outer loop
      vertex 272.409 31.3585 0
      vertex 272.409 31.3585 10
      vertex 272.129 31.3185 10
    endloop
  endfacet
  facet normal -0.274504 -0.961586 0
    outer loop
      vertex 272.526 31.3251 0
      vertex 272.409 31.3585 10
      vertex 272.409 31.3585 0
    endloop
  endfacet
  facet normal -0.274504 -0.961586 0
    outer loop
      vertex 272.526 31.3251 0
      vertex 272.526 31.3251 10
      vertex 272.409 31.3585 10
    endloop
  endfacet
  facet normal -0.640743 -0.767755 0
    outer loop
      vertex 273.796 30.2652 0
      vertex 272.526 31.3251 10
      vertex 272.526 31.3251 0
    endloop
  endfacet
  facet normal -0.640743 -0.767755 0
    outer loop
      vertex 273.796 30.2652 0
      vertex 273.796 30.2652 10
      vertex 272.526 31.3251 10
    endloop
  endfacet
  facet normal -0.823821 -0.56685 0
    outer loop
      vertex 273.841 30.1998 0
      vertex 273.796 30.2652 10
      vertex 273.796 30.2652 0
    endloop
  endfacet
  facet normal -0.823821 -0.56685 0
    outer loop
      vertex 273.841 30.1998 0
      vertex 273.841 30.1998 10
      vertex 273.796 30.2652 10
    endloop
  endfacet
  facet normal -0.94338 -0.331714 0
    outer loop
      vertex 274.139 29.3523 0
      vertex 273.841 30.1998 10
      vertex 273.841 30.1998 0
    endloop
  endfacet
  facet normal -0.94338 -0.331714 0
    outer loop
      vertex 274.139 29.3523 0
      vertex 274.139 29.3523 10
      vertex 273.841 30.1998 10
    endloop
  endfacet
  facet normal -0.389126 -0.921184 0
    outer loop
      vertex 274.759 29.0904 0
      vertex 274.139 29.3523 10
      vertex 274.139 29.3523 0
    endloop
  endfacet
  facet normal -0.389126 -0.921184 0
    outer loop
      vertex 274.759 29.0904 0
      vertex 274.759 29.0904 10
      vertex 274.139 29.3523 10
    endloop
  endfacet
  facet normal 0.014137 -0.9999 0
    outer loop
      vertex 275.438 29.1 0
      vertex 274.759 29.0904 10
      vertex 274.759 29.0904 0
    endloop
  endfacet
  facet normal 0.014137 -0.9999 0
    outer loop
      vertex 275.438 29.1 0
      vertex 275.438 29.1 10
      vertex 274.759 29.0904 10
    endloop
  endfacet
  facet normal -0.801138 -0.59848 0
    outer loop
      vertex 275.583 28.9059 0
      vertex 275.438 29.1 10
      vertex 275.438 29.1 0
    endloop
  endfacet
  facet normal -0.801138 -0.59848 0
    outer loop
      vertex 275.583 28.9059 0
      vertex 275.583 28.9059 10
      vertex 275.438 29.1 10
    endloop
  endfacet
  facet normal -0.956108 0.293016 0
    outer loop
      vertex 275.456 28.4915 0
      vertex 275.583 28.9059 10
      vertex 275.583 28.9059 0
    endloop
  endfacet
  facet normal -0.956108 0.293016 0
    outer loop
      vertex 275.456 28.4915 0
      vertex 275.456 28.4915 10
      vertex 275.583 28.9059 10
    endloop
  endfacet
  facet normal -0.564115 -0.825696 0
    outer loop
      vertex 275.581 28.4061 0
      vertex 275.456 28.4915 10
      vertex 275.456 28.4915 0
    endloop
  endfacet
  facet normal -0.564115 -0.825696 0
    outer loop
      vertex 275.581 28.4061 0
      vertex 275.581 28.4061 10
      vertex 275.456 28.4915 10
    endloop
  endfacet
  facet normal 0.986218 -0.165454 0
    outer loop
      vertex 275.698 29.1035 0
      vertex 275.581 28.4061 10
      vertex 275.581 28.4061 0
    endloop
  endfacet
  facet normal 0.986218 -0.165454 0
    outer loop
      vertex 275.698 29.1035 0
      vertex 275.698 29.1035 10
      vertex 275.581 28.4061 10
    endloop
  endfacet
endsolid OpenSCAD_Model
