solid OpenSCAD_Model
  facet normal 0 -0 -1
    outer loop
      vertex 333.016 -22.5162 0
      vertex 333.443 -23.5042 0
      vertex 332.889 -23.0173 0
    endloop
  endfacet
  facet normal 0 -0 -1
    outer loop
      vertex 334.211 -23.1326 0
      vertex 334.514 -23.4559 0
      vertex 334.029 -23.6617 0
    endloop
  endfacet
  facet normal 0 0 -1
    outer loop
      vertex 334.189 -22.9576 0
      vertex 333.016 -22.5162 0
      vertex 334.294 -22.8823 0
    endloop
  endfacet
  facet normal 0 0 -1
    outer loop
      vertex 332.811 -22.9815 0
      vertex 333.016 -22.5162 0
      vertex 332.889 -23.0173 0
    endloop
  endfacet
  facet normal 0 0 -1
    outer loop
      vertex 332.668 -21.9704 0
      vertex 332.918 -22.4404 0
      vertex 332.811 -22.9815 0
    endloop
  endfacet
  facet normal 0 0 -1
    outer loop
      vertex 334.294 -22.8823 0
      vertex 333.016 -22.5162 0
      vertex 334.47 -22.851 0
    endloop
  endfacet
  facet normal 0 0 -1
    outer loop
      vertex 326.737 -20.2514 0
      vertex 329.353 -19.2022 0
      vertex 326.816 -20.8632 0
    endloop
  endfacet
  facet normal 0 0 -1
    outer loop
      vertex 332.811 -22.9815 0
      vertex 331.662 -21.3452 0
      vertex 332.668 -21.9704 0
    endloop
  endfacet
  facet normal 0 0 -1
    outer loop
      vertex 332.668 -21.9704 0
      vertex 331.662 -21.3452 0
      vertex 332.735 -21.7649 0
    endloop
  endfacet
  facet normal -0 0 -1
    outer loop
      vertex 329.038 -18.1572 0
      vertex 326.638 -20.0779 0
      vertex 326.997 -16.5581 0
    endloop
  endfacet
  facet normal 0 0 -1
    outer loop
      vertex 326.422 -15.2798 0
      vertex 323.829 -12.1611 0
      vertex 326.476 -15.0957 0
    endloop
  endfacet
  facet normal 0 0 -1
    outer loop
      vertex 332.735 -21.7649 0
      vertex 331.662 -21.3452 0
      vertex 332.926 -21.6726 0
    endloop
  endfacet
  facet normal 0 0 -1
    outer loop
      vertex 328.437 -22.3482 0
      vertex 330.185 -20.3499 0
      vertex 331.552 -21.2212 0
    endloop
  endfacet
  facet normal -0 0 -1
    outer loop
      vertex 317.942 -19.0257 0
      vertex 316.981 -20.6561 0
      vertex 317.306 -18.7625 0
    endloop
  endfacet
  facet normal 0 0 -1
    outer loop
      vertex 331.552 -21.2212 0
      vertex 330.185 -20.3499 0
      vertex 331.421 -20.3048 0
    endloop
  endfacet
  facet normal -0 0 -1
    outer loop
      vertex 318.916 -18.1641 0
      vertex 316.77 -18.4035 0
      vertex 318.794 -17.9034 0
    endloop
  endfacet
  facet normal 0 0 -1
    outer loop
      vertex 322.255 -17.2599 0
      vertex 322.047 -16.9299 0
      vertex 324.558 -17.8649 0
    endloop
  endfacet
  facet normal 0 0 -1
    outer loop
      vertex 316.527 -18.7951 0
      vertex 316.123 -20.3298 0
      vertex 316.063 -20.3201 0
    endloop
  endfacet
  facet normal 0 0 -1
    outer loop
      vertex 330.039 -20.2511 0
      vertex 329.353 -19.2022 0
      vertex 329.765 -19.4951 0
    endloop
  endfacet
  facet normal 0 -0 -1
    outer loop
      vertex 317.542 -7.52745 0
      vertex 320.067 -8.58464 0
      vertex 313.43 -14.1298 0
    endloop
  endfacet
  facet normal 0 -0 -1
    outer loop
      vertex 326.952 -16.4998 0
      vertex 326.997 -16.5581 0
      vertex 324.644 -17.9258 0
    endloop
  endfacet
  facet normal 0 0 -1
    outer loop
      vertex 320.067 -8.58464 0
      vertex 317.542 -7.52745 0
      vertex 318.852 -7.7718 0
    endloop
  endfacet
  facet normal 0 0 -1
    outer loop
      vertex 313.43 -15.38 0
      vertex 315.875 -18.24 0
      vertex 313.43 -20.2691 0
    endloop
  endfacet
  facet normal 0 0 -1
    outer loop
      vertex 323.829 -12.1611 0
      vertex 327.844 -13.6083 0
      vertex 326.846 -14.8457 0
    endloop
  endfacet
  facet normal 0 -0 -1
    outer loop
      vertex 327.844 -13.6083 0
      vertex 328.307 -14.1254 0
      vertex 326.918 -14.8205 0
    endloop
  endfacet
  facet normal 0 0 -1
    outer loop
      vertex 318.828 -17.7303 0
      vertex 318.794 -17.9034 0
      vertex 316.77 -18.4035 0
    endloop
  endfacet
  facet normal 0 0 -1
    outer loop
      vertex 326.918 -14.8205 0
      vertex 328.307 -14.1254 0
      vertex 328.381 -14.7031 0
    endloop
  endfacet
  facet normal 0 0 -1
    outer loop
      vertex 326.846 -14.8457 0
      vertex 327.844 -13.6083 0
      vertex 326.918 -14.8205 0
    endloop
  endfacet
  facet normal 0 0 -1
    outer loop
      vertex 326.476 -15.0957 0
      vertex 323.829 -12.1611 0
      vertex 326.846 -14.8457 0
    endloop
  endfacet
  facet normal 0 0 -1
    outer loop
      vertex 313.424 -14.171 0
      vertex 313.43 -14.1298 0
      vertex 319.117 -16.5309 0
    endloop
  endfacet
  facet normal 0 0 -1
    outer loop
      vertex 320.142 -8.60977 0
      vertex 321.001 -8.657 0
      vertex 322.323 -9.78412 0
    endloop
  endfacet
  facet normal 0 0 -1
    outer loop
      vertex 322.398 -9.81844 0
      vertex 322.898 -9.89114 0
      vertex 323.778 -10.7888 0
    endloop
  endfacet
  facet normal 0 0 -1
    outer loop
      vertex 323.73 -12.0142 0
      vertex 322.398 -9.81844 0
      vertex 323.778 -10.7888 0
    endloop
  endfacet
  facet normal 0 0 -1
    outer loop
      vertex 323.73 -12.0142 0
      vertex 322.323 -9.78412 0
      vertex 322.398 -9.81844 0
    endloop
  endfacet
  facet normal 0 0 -1
    outer loop
      vertex 313.43 -14.1298 0
      vertex 317.518 -7.52078 0
      vertex 317.542 -7.52745 0
    endloop
  endfacet
  facet normal 0 0 -1
    outer loop
      vertex 316.297 -18.0637 0
      vertex 313.43 -15.38 0
      vertex 319.117 -16.5309 0
    endloop
  endfacet
  facet normal 0 -0 -1
    outer loop
      vertex 313.424 -14.171 0
      vertex 313.43 -15.38 0
      vertex 313.404 -15.296 0
    endloop
  endfacet
  facet normal -0 0 -1
    outer loop
      vertex 317.518 -7.52078 0
      vertex 313.43 -14.1298 0
      vertex 313.42 -6.015 0
    endloop
  endfacet
  facet normal 0 0 -1
    outer loop
      vertex 313.193 -14.9838 0
      vertex 313.424 -14.171 0
      vertex 313.404 -15.296 0
    endloop
  endfacet
  facet normal 0 0 -1
    outer loop
      vertex 316.622 -18.8195 0
      vertex 317.306 -18.7625 0
      vertex 316.981 -20.6561 0
    endloop
  endfacet
  facet normal 0 -0 -1
    outer loop
      vertex 316.527 -18.7951 0
      vertex 316.622 -18.8195 0
      vertex 316.123 -20.3298 0
    endloop
  endfacet
  facet normal -0 0 -1
    outer loop
      vertex 318.466 -19.6036 0
      vertex 318.446 -19.9053 0
      vertex 317.942 -19.0257 0
    endloop
  endfacet
  facet normal 0 -0 -1
    outer loop
      vertex 317.942 -19.0257 0
      vertex 318.446 -19.9053 0
      vertex 316.981 -20.6561 0
    endloop
  endfacet
  facet normal -0 0 -1
    outer loop
      vertex 319.674 -17.6737 0
      vertex 318.943 -17.6906 0
      vertex 319.101 -16.7065 0
    endloop
  endfacet
  facet normal -0 0 -1
    outer loop
      vertex 326.952 -16.4998 0
      vertex 324.558 -17.8649 0
      vertex 326.422 -15.2798 0
    endloop
  endfacet
  facet normal 0 0 -1
    outer loop
      vertex 322.047 -16.9299 0
      vertex 323.829 -12.1611 0
      vertex 326.422 -15.2798 0
    endloop
  endfacet
  facet normal 0 0 -1
    outer loop
      vertex 330.039 -20.2511 0
      vertex 328.437 -22.3482 0
      vertex 326.816 -20.8632 0
    endloop
  endfacet
  facet normal 0 0 -1
    outer loop
      vertex 326.659 -20.612 0
      vertex 326.737 -20.2514 0
      vertex 326.816 -20.8632 0
    endloop
  endfacet
  facet normal 0 0 -1
    outer loop
      vertex 326.737 -20.2514 0
      vertex 329.295 -19.1187 0
      vertex 329.353 -19.2022 0
    endloop
  endfacet
  facet normal 0 -0 -1
    outer loop
      vertex 330.039 -20.2511 0
      vertex 330.185 -20.3499 0
      vertex 328.437 -22.3482 0
    endloop
  endfacet
  facet normal -0 0 -1
    outer loop
      vertex 315.987 -18.1337 0
      vertex 315.875 -18.24 0
      vertex 313.43 -15.38 0
    endloop
  endfacet
  facet normal 0 0 -1
    outer loop
      vertex 316.77 -18.4035 0
      vertex 316.43 -18.0984 0
      vertex 318.828 -17.7303 0
    endloop
  endfacet
  facet normal 0 0 -1
    outer loop
      vertex 316.981 -20.6561 0
      vertex 316.123 -20.3298 0
      vertex 316.622 -18.8195 0
    endloop
  endfacet
  facet normal 0 0 -1
    outer loop
      vertex 316.063 -20.3201 0
      vertex 315.937 -18.4051 0
      vertex 316.527 -18.7951 0
    endloop
  endfacet
  facet normal -0 0 -1
    outer loop
      vertex 316.063 -20.3201 0
      vertex 313.672 -20.428 0
      vertex 315.937 -18.4051 0
    endloop
  endfacet
  facet normal 0 -0 -1
    outer loop
      vertex 315.875 -18.24 0
      vertex 315.937 -18.4051 0
      vertex 313.43 -20.2691 0
    endloop
  endfacet
  facet normal 0 0 -1
    outer loop
      vertex 315.937 -18.4051 0
      vertex 313.672 -20.428 0
      vertex 313.43 -20.2691 0
    endloop
  endfacet
  facet normal 0 0 -1
    outer loop
      vertex 315.987 -18.1337 0
      vertex 313.43 -15.38 0
      vertex 316.297 -18.0637 0
    endloop
  endfacet
  facet normal 0 0 -1
    outer loop
      vertex 316.297 -18.0637 0
      vertex 319.117 -16.5309 0
      vertex 316.43 -18.0984 0
    endloop
  endfacet
  facet normal -0 0 -1
    outer loop
      vertex 319.101 -16.7065 0
      vertex 316.43 -18.0984 0
      vertex 319.117 -16.5309 0
    endloop
  endfacet
  facet normal 0 0 -1
    outer loop
      vertex 319.101 -16.7065 0
      vertex 318.943 -17.6906 0
      vertex 318.828 -17.7303 0
    endloop
  endfacet
  facet normal -0 0 -1
    outer loop
      vertex 318.828 -17.7303 0
      vertex 316.43 -18.0984 0
      vertex 319.101 -16.7065 0
    endloop
  endfacet
  facet normal 0 0 -1
    outer loop
      vertex 322.047 -16.9299 0
      vertex 321.946 -16.8623 0
      vertex 323.829 -12.1611 0
    endloop
  endfacet
  facet normal 0 0 -1
    outer loop
      vertex 313.424 -14.171 0
      vertex 319.117 -16.5309 0
      vertex 313.43 -15.38 0
    endloop
  endfacet
  facet normal -0 0 -1
    outer loop
      vertex 322.323 -9.78412 0
      vertex 319.308 -16.5017 0
      vertex 320.142 -8.60977 0
    endloop
  endfacet
  facet normal 0 0 -1
    outer loop
      vertex 318.943 -17.6906 0
      vertex 319.674 -17.6737 0
      vertex 319.583 -17.7455 0
    endloop
  endfacet
  facet normal 0 0 -1
    outer loop
      vertex 320.326 -17.1181 0
      vertex 319.308 -16.5017 0
      vertex 321.061 -16.7368 0
    endloop
  endfacet
  facet normal 0 -0 -1
    outer loop
      vertex 322.323 -9.78412 0
      vertex 323.73 -12.0142 0
      vertex 319.308 -16.5017 0
    endloop
  endfacet
  facet normal 0 0 -1
    outer loop
      vertex 319.308 -16.5017 0
      vertex 320.067 -8.58464 0
      vertex 320.142 -8.60977 0
    endloop
  endfacet
  facet normal 0 0 -1
    outer loop
      vertex 319.117 -16.5309 0
      vertex 320.067 -8.58464 0
      vertex 319.308 -16.5017 0
    endloop
  endfacet
  facet normal 0 0 -1
    outer loop
      vertex 319.117 -16.5309 0
      vertex 313.43 -14.1298 0
      vertex 320.067 -8.58464 0
    endloop
  endfacet
  facet normal 0 0 -1
    outer loop
      vertex 321.061 -16.7368 0
      vertex 319.308 -16.5017 0
      vertex 321.156 -16.7223 0
    endloop
  endfacet
  facet normal 0 0 -1
    outer loop
      vertex 321.156 -16.7223 0
      vertex 323.73 -12.0142 0
      vertex 323.829 -12.1611 0
    endloop
  endfacet
  facet normal 0 0 -1
    outer loop
      vertex 319.308 -16.5017 0
      vertex 323.73 -12.0142 0
      vertex 321.156 -16.7223 0
    endloop
  endfacet
  facet normal 0 0 -1
    outer loop
      vertex 321.946 -16.8623 0
      vertex 321.156 -16.7223 0
      vertex 323.829 -12.1611 0
    endloop
  endfacet
  facet normal 0 0 -1
    outer loop
      vertex 324.558 -17.8649 0
      vertex 322.047 -16.9299 0
      vertex 326.422 -15.2798 0
    endloop
  endfacet
  facet normal 0 0 -1
    outer loop
      vertex 325.946 -19.844 0
      vertex 324.644 -17.9258 0
      vertex 326.997 -16.5581 0
    endloop
  endfacet
  facet normal 0 0 -1
    outer loop
      vertex 326.638 -20.0779 0
      vertex 325.946 -19.844 0
      vertex 326.997 -16.5581 0
    endloop
  endfacet
  facet normal 0 0 -1
    outer loop
      vertex 324.644 -17.9258 0
      vertex 324.558 -17.8649 0
      vertex 326.952 -16.4998 0
    endloop
  endfacet
  facet normal -0 0 -1
    outer loop
      vertex 329.295 -19.1187 0
      vertex 326.638 -20.0779 0
      vertex 329.038 -18.1572 0
    endloop
  endfacet
  facet normal 0 0 -1
    outer loop
      vertex 329.295 -19.1187 0
      vertex 326.737 -20.2514 0
      vertex 326.638 -20.0779 0
    endloop
  endfacet
  facet normal 0 0 -1
    outer loop
      vertex 326.816 -20.8632 0
      vertex 329.353 -19.2022 0
      vertex 330.039 -20.2511 0
    endloop
  endfacet
  facet normal 0 0 -1
    outer loop
      vertex 328.437 -22.3482 0
      vertex 331.552 -21.2212 0
      vertex 331.662 -21.3452 0
    endloop
  endfacet
  facet normal 0 0 -1
    outer loop
      vertex 332.811 -22.9815 0
      vertex 328.437 -22.3482 0
      vertex 331.662 -21.3452 0
    endloop
  endfacet
  facet normal -0 0 -1
    outer loop
      vertex 334.211 -23.1326 0
      vertex 333.443 -23.5042 0
      vertex 334.189 -22.9576 0
    endloop
  endfacet
  facet normal -0 0 -1
    outer loop
      vertex 333.016 -22.5162 0
      vertex 332.811 -22.9815 0
      vertex 332.918 -22.4404 0
    endloop
  endfacet
  facet normal 0 0 -1
    outer loop
      vertex 334.211 -23.1326 0
      vertex 334.029 -23.6617 0
      vertex 333.443 -23.5042 0
    endloop
  endfacet
  facet normal 0 0 -1
    outer loop
      vertex 333.443 -23.5042 0
      vertex 333.016 -22.5162 0
      vertex 334.189 -22.9576 0
    endloop
  endfacet
  facet normal -0 0 1
    outer loop
      vertex 332.889 -23.0173 10
      vertex 333.443 -23.5042 10
      vertex 333.016 -22.5162 10
    endloop
  endfacet
  facet normal 0 0 1
    outer loop
      vertex 334.029 -23.6617 10
      vertex 334.514 -23.4559 10
      vertex 334.211 -23.1326 10
    endloop
  endfacet
  facet normal 0 0 1
    outer loop
      vertex 334.294 -22.8823 10
      vertex 333.016 -22.5162 10
      vertex 334.189 -22.9576 10
    endloop
  endfacet
  facet normal 0 -0 1
    outer loop
      vertex 332.889 -23.0173 10
      vertex 333.016 -22.5162 10
      vertex 332.811 -22.9815 10
    endloop
  endfacet
  facet normal 0 -0 1
    outer loop
      vertex 332.811 -22.9815 10
      vertex 332.918 -22.4404 10
      vertex 332.668 -21.9704 10
    endloop
  endfacet
  facet normal 0 0 1
    outer loop
      vertex 334.47 -22.851 10
      vertex 333.016 -22.5162 10
      vertex 334.294 -22.8823 10
    endloop
  endfacet
  facet normal 0 -0 1
    outer loop
      vertex 326.816 -20.8632 10
      vertex 329.353 -19.2022 10
      vertex 326.737 -20.2514 10
    endloop
  endfacet
  facet normal 0 0 1
    outer loop
      vertex 332.668 -21.9704 10
      vertex 331.662 -21.3452 10
      vertex 332.811 -22.9815 10
    endloop
  endfacet
  facet normal 0 0 1
    outer loop
      vertex 332.735 -21.7649 10
      vertex 331.662 -21.3452 10
      vertex 332.668 -21.9704 10
    endloop
  endfacet
  facet normal 0 0 1
    outer loop
      vertex 326.997 -16.5581 10
      vertex 326.638 -20.0779 10
      vertex 329.038 -18.1572 10
    endloop
  endfacet
  facet normal 0 0 1
    outer loop
      vertex 326.476 -15.0957 10
      vertex 323.829 -12.1611 10
      vertex 326.422 -15.2798 10
    endloop
  endfacet
  facet normal 0 0 1
    outer loop
      vertex 332.926 -21.6726 10
      vertex 331.662 -21.3452 10
      vertex 332.735 -21.7649 10
    endloop
  endfacet
  facet normal 0 0 1
    outer loop
      vertex 331.552 -21.2212 10
      vertex 330.185 -20.3499 10
      vertex 328.437 -22.3482 10
    endloop
  endfacet
  facet normal 0 0 1
    outer loop
      vertex 317.306 -18.7625 10
      vertex 316.981 -20.6561 10
      vertex 317.942 -19.0257 10
    endloop
  endfacet
  facet normal 0 0 1
    outer loop
      vertex 331.421 -20.3048 10
      vertex 330.185 -20.3499 10
      vertex 331.552 -21.2212 10
    endloop
  endfacet
  facet normal 0 0 1
    outer loop
      vertex 318.794 -17.9034 10
      vertex 316.77 -18.4035 10
      vertex 318.916 -18.1641 10
    endloop
  endfacet
  facet normal 0 0 1
    outer loop
      vertex 324.558 -17.8649 10
      vertex 322.047 -16.9299 10
      vertex 322.255 -17.2599 10
    endloop
  endfacet
  facet normal -0 0 1
    outer loop
      vertex 316.063 -20.3201 10
      vertex 316.123 -20.3298 10
      vertex 316.527 -18.7951 10
    endloop
  endfacet
  facet normal 0 0 1
    outer loop
      vertex 329.765 -19.4951 10
      vertex 329.353 -19.2022 10
      vertex 330.039 -20.2511 10
    endloop
  endfacet
  facet normal 0 0 1
    outer loop
      vertex 313.43 -14.1298 10
      vertex 320.067 -8.58464 10
      vertex 317.542 -7.52745 10
    endloop
  endfacet
  facet normal 0 0 1
    outer loop
      vertex 324.644 -17.9258 10
      vertex 326.997 -16.5581 10
      vertex 326.952 -16.4998 10
    endloop
  endfacet
  facet normal 0 0 1
    outer loop
      vertex 318.852 -7.7718 10
      vertex 317.542 -7.52745 10
      vertex 320.067 -8.58464 10
    endloop
  endfacet
  facet normal 0 0 1
    outer loop
      vertex 313.43 -20.2691 10
      vertex 315.875 -18.24 10
      vertex 313.43 -15.38 10
    endloop
  endfacet
  facet normal 0 -0 1
    outer loop
      vertex 326.846 -14.8457 10
      vertex 327.844 -13.6083 10
      vertex 323.829 -12.1611 10
    endloop
  endfacet
  facet normal 0 0 1
    outer loop
      vertex 326.918 -14.8205 10
      vertex 328.307 -14.1254 10
      vertex 327.844 -13.6083 10
    endloop
  endfacet
  facet normal 0 0 1
    outer loop
      vertex 316.77 -18.4035 10
      vertex 318.794 -17.9034 10
      vertex 318.828 -17.7303 10
    endloop
  endfacet
  facet normal 0 0 1
    outer loop
      vertex 328.381 -14.7031 10
      vertex 328.307 -14.1254 10
      vertex 326.918 -14.8205 10
    endloop
  endfacet
  facet normal 0 -0 1
    outer loop
      vertex 326.918 -14.8205 10
      vertex 327.844 -13.6083 10
      vertex 326.846 -14.8457 10
    endloop
  endfacet
  facet normal 0 0 1
    outer loop
      vertex 326.846 -14.8457 10
      vertex 323.829 -12.1611 10
      vertex 326.476 -15.0957 10
    endloop
  endfacet
  facet normal 0 0 1
    outer loop
      vertex 319.117 -16.5309 10
      vertex 313.43 -14.1298 10
      vertex 313.424 -14.171 10
    endloop
  endfacet
  facet normal 0 0 1
    outer loop
      vertex 322.323 -9.78412 10
      vertex 321.001 -8.657 10
      vertex 320.142 -8.60977 10
    endloop
  endfacet
  facet normal 0 0 1
    outer loop
      vertex 323.778 -10.7888 10
      vertex 322.898 -9.89114 10
      vertex 322.398 -9.81844 10
    endloop
  endfacet
  facet normal 0 0 1
    outer loop
      vertex 323.778 -10.7888 10
      vertex 322.398 -9.81844 10
      vertex 323.73 -12.0142 10
    endloop
  endfacet
  facet normal 0 0 1
    outer loop
      vertex 322.398 -9.81844 10
      vertex 322.323 -9.78412 10
      vertex 323.73 -12.0142 10
    endloop
  endfacet
  facet normal 0 0 1
    outer loop
      vertex 317.542 -7.52745 10
      vertex 317.518 -7.52078 10
      vertex 313.43 -14.1298 10
    endloop
  endfacet
  facet normal 0 0 1
    outer loop
      vertex 319.117 -16.5309 10
      vertex 313.43 -15.38 10
      vertex 316.297 -18.0637 10
    endloop
  endfacet
  facet normal -0 0 1
    outer loop
      vertex 313.404 -15.296 10
      vertex 313.43 -15.38 10
      vertex 313.424 -14.171 10
    endloop
  endfacet
  facet normal 0 0 1
    outer loop
      vertex 313.42 -6.015 10
      vertex 313.43 -14.1298 10
      vertex 317.518 -7.52078 10
    endloop
  endfacet
  facet normal 0 -0 1
    outer loop
      vertex 313.404 -15.296 10
      vertex 313.424 -14.171 10
      vertex 313.193 -14.9838 10
    endloop
  endfacet
  facet normal 0 -0 1
    outer loop
      vertex 316.981 -20.6561 10
      vertex 317.306 -18.7625 10
      vertex 316.622 -18.8195 10
    endloop
  endfacet
  facet normal 0 0 1
    outer loop
      vertex 316.123 -20.3298 10
      vertex 316.622 -18.8195 10
      vertex 316.527 -18.7951 10
    endloop
  endfacet
  facet normal 0 0 1
    outer loop
      vertex 317.942 -19.0257 10
      vertex 318.446 -19.9053 10
      vertex 318.466 -19.6036 10
    endloop
  endfacet
  facet normal 0 0 1
    outer loop
      vertex 316.981 -20.6561 10
      vertex 318.446 -19.9053 10
      vertex 317.942 -19.0257 10
    endloop
  endfacet
  facet normal 0 0 1
    outer loop
      vertex 319.101 -16.7065 10
      vertex 318.943 -17.6906 10
      vertex 319.674 -17.6737 10
    endloop
  endfacet
  facet normal 0 0 1
    outer loop
      vertex 326.422 -15.2798 10
      vertex 324.558 -17.8649 10
      vertex 326.952 -16.4998 10
    endloop
  endfacet
  facet normal 0 0 1
    outer loop
      vertex 326.422 -15.2798 10
      vertex 323.829 -12.1611 10
      vertex 322.047 -16.9299 10
    endloop
  endfacet
  facet normal -0 0 1
    outer loop
      vertex 326.816 -20.8632 10
      vertex 328.437 -22.3482 10
      vertex 330.039 -20.2511 10
    endloop
  endfacet
  facet normal 0 0 1
    outer loop
      vertex 326.816 -20.8632 10
      vertex 326.737 -20.2514 10
      vertex 326.659 -20.612 10
    endloop
  endfacet
  facet normal 0 0 1
    outer loop
      vertex 329.353 -19.2022 10
      vertex 329.295 -19.1187 10
      vertex 326.737 -20.2514 10
    endloop
  endfacet
  facet normal 0 0 1
    outer loop
      vertex 328.437 -22.3482 10
      vertex 330.185 -20.3499 10
      vertex 330.039 -20.2511 10
    endloop
  endfacet
  facet normal 0 0 1
    outer loop
      vertex 313.43 -15.38 10
      vertex 315.875 -18.24 10
      vertex 315.987 -18.1337 10
    endloop
  endfacet
  facet normal 0 0 1
    outer loop
      vertex 318.828 -17.7303 10
      vertex 316.43 -18.0984 10
      vertex 316.77 -18.4035 10
    endloop
  endfacet
  facet normal 0 0 1
    outer loop
      vertex 316.622 -18.8195 10
      vertex 316.123 -20.3298 10
      vertex 316.981 -20.6561 10
    endloop
  endfacet
  facet normal 0 0 1
    outer loop
      vertex 316.527 -18.7951 10
      vertex 315.937 -18.4051 10
      vertex 316.063 -20.3201 10
    endloop
  endfacet
  facet normal 0 0 1
    outer loop
      vertex 315.937 -18.4051 10
      vertex 313.672 -20.428 10
      vertex 316.063 -20.3201 10
    endloop
  endfacet
  facet normal 0 0 1
    outer loop
      vertex 313.43 -20.2691 10
      vertex 315.937 -18.4051 10
      vertex 315.875 -18.24 10
    endloop
  endfacet
  facet normal -0 0 1
    outer loop
      vertex 313.43 -20.2691 10
      vertex 313.672 -20.428 10
      vertex 315.937 -18.4051 10
    endloop
  endfacet
  facet normal 0 0 1
    outer loop
      vertex 316.297 -18.0637 10
      vertex 313.43 -15.38 10
      vertex 315.987 -18.1337 10
    endloop
  endfacet
  facet normal 0 -0 1
    outer loop
      vertex 316.43 -18.0984 10
      vertex 319.117 -16.5309 10
      vertex 316.297 -18.0637 10
    endloop
  endfacet
  facet normal 0 0 1
    outer loop
      vertex 319.117 -16.5309 10
      vertex 316.43 -18.0984 10
      vertex 319.101 -16.7065 10
    endloop
  endfacet
  facet normal 0 0 1
    outer loop
      vertex 318.828 -17.7303 10
      vertex 318.943 -17.6906 10
      vertex 319.101 -16.7065 10
    endloop
  endfacet
  facet normal 0 0 1
    outer loop
      vertex 319.101 -16.7065 10
      vertex 316.43 -18.0984 10
      vertex 318.828 -17.7303 10
    endloop
  endfacet
  facet normal 0 0 1
    outer loop
      vertex 323.829 -12.1611 10
      vertex 321.946 -16.8623 10
      vertex 322.047 -16.9299 10
    endloop
  endfacet
  facet normal -0 -0 1
    outer loop
      vertex 313.43 -15.38 10
      vertex 319.117 -16.5309 10
      vertex 313.424 -14.171 10
    endloop
  endfacet
  facet normal 0 0 1
    outer loop
      vertex 320.142 -8.60977 10
      vertex 319.308 -16.5017 10
      vertex 322.323 -9.78412 10
    endloop
  endfacet
  facet normal 0 -0 1
    outer loop
      vertex 319.583 -17.7455 10
      vertex 319.674 -17.6737 10
      vertex 318.943 -17.6906 10
    endloop
  endfacet
  facet normal 0 0 1
    outer loop
      vertex 321.061 -16.7368 10
      vertex 319.308 -16.5017 10
      vertex 320.326 -17.1181 10
    endloop
  endfacet
  facet normal 0 0 1
    outer loop
      vertex 319.308 -16.5017 10
      vertex 323.73 -12.0142 10
      vertex 322.323 -9.78412 10
    endloop
  endfacet
  facet normal 0 0 1
    outer loop
      vertex 320.142 -8.60977 10
      vertex 320.067 -8.58464 10
      vertex 319.308 -16.5017 10
    endloop
  endfacet
  facet normal 0 -0 1
    outer loop
      vertex 319.308 -16.5017 10
      vertex 320.067 -8.58464 10
      vertex 319.117 -16.5309 10
    endloop
  endfacet
  facet normal 0 0 1
    outer loop
      vertex 320.067 -8.58464 10
      vertex 313.43 -14.1298 10
      vertex 319.117 -16.5309 10
    endloop
  endfacet
  facet normal 0 0 1
    outer loop
      vertex 321.156 -16.7223 10
      vertex 319.308 -16.5017 10
      vertex 321.061 -16.7368 10
    endloop
  endfacet
  facet normal 0 0 1
    outer loop
      vertex 323.829 -12.1611 10
      vertex 323.73 -12.0142 10
      vertex 321.156 -16.7223 10
    endloop
  endfacet
  facet normal 0 -0 1
    outer loop
      vertex 321.156 -16.7223 10
      vertex 323.73 -12.0142 10
      vertex 319.308 -16.5017 10
    endloop
  endfacet
  facet normal 0 0 1
    outer loop
      vertex 323.829 -12.1611 10
      vertex 321.156 -16.7223 10
      vertex 321.946 -16.8623 10
    endloop
  endfacet
  facet normal 0 0 1
    outer loop
      vertex 326.422 -15.2798 10
      vertex 322.047 -16.9299 10
      vertex 324.558 -17.8649 10
    endloop
  endfacet
  facet normal 0 0 1
    outer loop
      vertex 326.997 -16.5581 10
      vertex 324.644 -17.9258 10
      vertex 325.946 -19.844 10
    endloop
  endfacet
  facet normal 0 0 1
    outer loop
      vertex 326.997 -16.5581 10
      vertex 325.946 -19.844 10
      vertex 326.638 -20.0779 10
    endloop
  endfacet
  facet normal 0 0 1
    outer loop
      vertex 326.952 -16.4998 10
      vertex 324.558 -17.8649 10
      vertex 324.644 -17.9258 10
    endloop
  endfacet
  facet normal 0 0 1
    outer loop
      vertex 329.038 -18.1572 10
      vertex 326.638 -20.0779 10
      vertex 329.295 -19.1187 10
    endloop
  endfacet
  facet normal -0 0 1
    outer loop
      vertex 326.638 -20.0779 10
      vertex 326.737 -20.2514 10
      vertex 329.295 -19.1187 10
    endloop
  endfacet
  facet normal 0 0 1
    outer loop
      vertex 330.039 -20.2511 10
      vertex 329.353 -19.2022 10
      vertex 326.816 -20.8632 10
    endloop
  endfacet
  facet normal 0 0 1
    outer loop
      vertex 331.662 -21.3452 10
      vertex 331.552 -21.2212 10
      vertex 328.437 -22.3482 10
    endloop
  endfacet
  facet normal 0 0 1
    outer loop
      vertex 331.662 -21.3452 10
      vertex 328.437 -22.3482 10
      vertex 332.811 -22.9815 10
    endloop
  endfacet
  facet normal 0 0 1
    outer loop
      vertex 334.189 -22.9576 10
      vertex 333.443 -23.5042 10
      vertex 334.211 -23.1326 10
    endloop
  endfacet
  facet normal 0 0 1
    outer loop
      vertex 332.918 -22.4404 10
      vertex 332.811 -22.9815 10
      vertex 333.016 -22.5162 10
    endloop
  endfacet
  facet normal -0 0 1
    outer loop
      vertex 333.443 -23.5042 10
      vertex 334.029 -23.6617 10
      vertex 334.211 -23.1326 10
    endloop
  endfacet
  facet normal 0 0 1
    outer loop
      vertex 334.189 -22.9576 10
      vertex 333.016 -22.5162 10
      vertex 333.443 -23.5042 10
    endloop
  endfacet
  facet normal 0.729643 0.683829 0
    outer loop
      vertex 334.211 -23.1326 0
      vertex 334.514 -23.4559 10
      vertex 334.514 -23.4559 0
    endloop
  endfacet
  facet normal 0.729643 0.683829 -0
    outer loop
      vertex 334.211 -23.1326 0
      vertex 334.211 -23.1326 10
      vertex 334.514 -23.4559 10
    endloop
  endfacet
  facet normal 0.99219 0.124733 0
    outer loop
      vertex 334.189 -22.9576 0
      vertex 334.211 -23.1326 10
      vertex 334.211 -23.1326 0
    endloop
  endfacet
  facet normal 0.99219 0.124733 -0
    outer loop
      vertex 334.189 -22.9576 0
      vertex 334.189 -22.9576 10
      vertex 334.211 -23.1326 10
    endloop
  endfacet
  facet normal 0.582775 -0.812634 0
    outer loop
      vertex 334.294 -22.8823 0
      vertex 334.189 -22.9576 10
      vertex 334.189 -22.9576 0
    endloop
  endfacet
  facet normal 0.582775 -0.812634 0
    outer loop
      vertex 334.294 -22.8823 0
      vertex 334.294 -22.8823 10
      vertex 334.189 -22.9576 10
    endloop
  endfacet
  facet normal 0.175094 -0.984552 0
    outer loop
      vertex 334.47 -22.851 0
      vertex 334.294 -22.8823 10
      vertex 334.294 -22.8823 0
    endloop
  endfacet
  facet normal 0.175094 -0.984552 0
    outer loop
      vertex 334.47 -22.851 0
      vertex 334.47 -22.851 10
      vertex 334.294 -22.8823 10
    endloop
  endfacet
  facet normal 0.22439 0.9745 0
    outer loop
      vertex 333.016 -22.5162 0
      vertex 334.47 -22.851 10
      vertex 334.47 -22.851 0
    endloop
  endfacet
  facet normal 0.22439 0.9745 -0
    outer loop
      vertex 333.016 -22.5162 0
      vertex 333.016 -22.5162 10
      vertex 334.47 -22.851 10
    endloop
  endfacet
  facet normal 0.611815 0.791001 0
    outer loop
      vertex 332.918 -22.4404 0
      vertex 333.016 -22.5162 10
      vertex 333.016 -22.5162 0
    endloop
  endfacet
  facet normal 0.611815 0.791001 -0
    outer loop
      vertex 332.918 -22.4404 0
      vertex 332.918 -22.4404 10
      vertex 333.016 -22.5162 10
    endloop
  endfacet
  facet normal 0.882872 0.469613 0
    outer loop
      vertex 332.668 -21.9704 0
      vertex 332.918 -22.4404 10
      vertex 332.918 -22.4404 0
    endloop
  endfacet
  facet normal 0.882872 0.469613 -0
    outer loop
      vertex 332.668 -21.9704 0
      vertex 332.668 -21.9704 10
      vertex 332.918 -22.4404 10
    endloop
  endfacet
  facet normal 0.950745 -0.309975 0
    outer loop
      vertex 332.735 -21.7649 0
      vertex 332.668 -21.9704 10
      vertex 332.668 -21.9704 0
    endloop
  endfacet
  facet normal 0.950745 -0.309975 0
    outer loop
      vertex 332.735 -21.7649 0
      vertex 332.735 -21.7649 10
      vertex 332.668 -21.9704 10
    endloop
  endfacet
  facet normal 0.435105 -0.90038 0
    outer loop
      vertex 332.926 -21.6726 0
      vertex 332.735 -21.7649 10
      vertex 332.735 -21.7649 0
    endloop
  endfacet
  facet normal 0.435105 -0.90038 0
    outer loop
      vertex 332.926 -21.6726 0
      vertex 332.926 -21.6726 10
      vertex 332.735 -21.7649 10
    endloop
  endfacet
  facet normal 0.250744 0.968053 0
    outer loop
      vertex 331.662 -21.3452 0
      vertex 332.926 -21.6726 10
      vertex 332.926 -21.6726 0
    endloop
  endfacet
  facet normal 0.250744 0.968053 -0
    outer loop
      vertex 331.662 -21.3452 0
      vertex 331.662 -21.3452 10
      vertex 332.926 -21.6726 10
    endloop
  endfacet
  facet normal 0.748075 0.663615 0
    outer loop
      vertex 331.552 -21.2212 0
      vertex 331.662 -21.3452 10
      vertex 331.662 -21.3452 0
    endloop
  endfacet
  facet normal 0.748075 0.663615 -0
    outer loop
      vertex 331.552 -21.2212 0
      vertex 331.552 -21.2212 10
      vertex 331.662 -21.3452 10
    endloop
  endfacet
  facet normal 0.989937 0.141512 0
    outer loop
      vertex 331.421 -20.3048 0
      vertex 331.552 -21.2212 10
      vertex 331.552 -21.2212 0
    endloop
  endfacet
  facet normal 0.989937 0.141512 -0
    outer loop
      vertex 331.421 -20.3048 0
      vertex 331.421 -20.3048 10
      vertex 331.552 -21.2212 10
    endloop
  endfacet
  facet normal -0.0364644 0.999335 0
    outer loop
      vertex 330.185 -20.3499 0
      vertex 331.421 -20.3048 10
      vertex 331.421 -20.3048 0
    endloop
  endfacet
  facet normal -0.0364644 0.999335 0
    outer loop
      vertex 330.185 -20.3499 0
      vertex 330.185 -20.3499 10
      vertex 331.421 -20.3048 10
    endloop
  endfacet
  facet normal 0.560447 0.82819 0
    outer loop
      vertex 330.039 -20.2511 0
      vertex 330.185 -20.3499 10
      vertex 330.185 -20.3499 0
    endloop
  endfacet
  facet normal 0.560447 0.82819 -0
    outer loop
      vertex 330.039 -20.2511 0
      vertex 330.039 -20.2511 10
      vertex 330.185 -20.3499 10
    endloop
  endfacet
  facet normal 0.940156 0.340744 0
    outer loop
      vertex 329.765 -19.4951 0
      vertex 330.039 -20.2511 10
      vertex 330.039 -20.2511 0
    endloop
  endfacet
  facet normal 0.940156 0.340744 -0
    outer loop
      vertex 329.765 -19.4951 0
      vertex 329.765 -19.4951 10
      vertex 330.039 -20.2511 10
    endloop
  endfacet
  facet normal 0.579422 0.815028 0
    outer loop
      vertex 329.353 -19.2022 0
      vertex 329.765 -19.4951 10
      vertex 329.765 -19.4951 0
    endloop
  endfacet
  facet normal 0.579422 0.815028 -0
    outer loop
      vertex 329.353 -19.2022 0
      vertex 329.353 -19.2022 10
      vertex 329.765 -19.4951 10
    endloop
  endfacet
  facet normal 0.821306 0.570488 0
    outer loop
      vertex 329.295 -19.1187 0
      vertex 329.353 -19.2022 10
      vertex 329.353 -19.2022 0
    endloop
  endfacet
  facet normal 0.821306 0.570488 -0
    outer loop
      vertex 329.295 -19.1187 0
      vertex 329.295 -19.1187 10
      vertex 329.353 -19.2022 10
    endloop
  endfacet
  facet normal 0.966085 0.258225 0
    outer loop
      vertex 329.038 -18.1572 0
      vertex 329.295 -19.1187 10
      vertex 329.295 -19.1187 0
    endloop
  endfacet
  facet normal 0.966085 0.258225 -0
    outer loop
      vertex 329.038 -18.1572 0
      vertex 329.038 -18.1572 10
      vertex 329.295 -19.1187 10
    endloop
  endfacet
  facet normal 0.616738 0.787169 0
    outer loop
      vertex 326.997 -16.5581 0
      vertex 329.038 -18.1572 10
      vertex 329.038 -18.1572 0
    endloop
  endfacet
  facet normal 0.616738 0.787169 -0
    outer loop
      vertex 326.997 -16.5581 0
      vertex 326.997 -16.5581 10
      vertex 329.038 -18.1572 10
    endloop
  endfacet
  facet normal 0.791613 0.611022 0
    outer loop
      vertex 326.952 -16.4998 0
      vertex 326.997 -16.5581 10
      vertex 326.997 -16.5581 0
    endloop
  endfacet
  facet normal 0.791613 0.611022 -0
    outer loop
      vertex 326.952 -16.4998 0
      vertex 326.952 -16.4998 10
      vertex 326.997 -16.5581 10
    endloop
  endfacet
  facet normal 0.91719 0.398451 0
    outer loop
      vertex 326.422 -15.2798 0
      vertex 326.952 -16.4998 10
      vertex 326.952 -16.4998 0
    endloop
  endfacet
  facet normal 0.91719 0.398451 -0
    outer loop
      vertex 326.422 -15.2798 0
      vertex 326.422 -15.2798 10
      vertex 326.952 -16.4998 10
    endloop
  endfacet
  facet normal 0.959573 -0.281461 0
    outer loop
      vertex 326.476 -15.0957 0
      vertex 326.422 -15.2798 10
      vertex 326.422 -15.2798 0
    endloop
  endfacet
  facet normal 0.959573 -0.281461 0
    outer loop
      vertex 326.476 -15.0957 0
      vertex 326.476 -15.0957 10
      vertex 326.422 -15.2798 10
    endloop
  endfacet
  facet normal 0.559857 -0.828589 0
    outer loop
      vertex 326.846 -14.8457 0
      vertex 326.476 -15.0957 10
      vertex 326.476 -15.0957 0
    endloop
  endfacet
  facet normal 0.559857 -0.828589 0
    outer loop
      vertex 326.846 -14.8457 0
      vertex 326.846 -14.8457 10
      vertex 326.476 -15.0957 10
    endloop
  endfacet
  facet normal 0.33035 -0.943858 0
    outer loop
      vertex 326.918 -14.8205 0
      vertex 326.846 -14.8457 10
      vertex 326.846 -14.8457 0
    endloop
  endfacet
  facet normal 0.33035 -0.943858 0
    outer loop
      vertex 326.918 -14.8205 0
      vertex 326.918 -14.8205 10
      vertex 326.846 -14.8457 10
    endloop
  endfacet
  facet normal 0.0799889 -0.996796 0
    outer loop
      vertex 328.381 -14.7031 0
      vertex 326.918 -14.8205 10
      vertex 326.918 -14.8205 0
    endloop
  endfacet
  facet normal 0.0799889 -0.996796 0
    outer loop
      vertex 328.381 -14.7031 0
      vertex 328.381 -14.7031 10
      vertex 326.918 -14.8205 10
    endloop
  endfacet
  facet normal 0.991896 0.127056 0
    outer loop
      vertex 328.307 -14.1254 0
      vertex 328.381 -14.7031 10
      vertex 328.381 -14.7031 0
    endloop
  endfacet
  facet normal 0.991896 0.127056 -0
    outer loop
      vertex 328.307 -14.1254 0
      vertex 328.307 -14.1254 10
      vertex 328.381 -14.7031 10
    endloop
  endfacet
  facet normal 0.745004 0.66706 0
    outer loop
      vertex 327.844 -13.6083 0
      vertex 328.307 -14.1254 10
      vertex 328.307 -14.1254 0
    endloop
  endfacet
  facet normal 0.745004 0.66706 -0
    outer loop
      vertex 327.844 -13.6083 0
      vertex 327.844 -13.6083 10
      vertex 328.307 -14.1254 10
    endloop
  endfacet
  facet normal 0.339093 0.940753 0
    outer loop
      vertex 323.829 -12.1611 0
      vertex 327.844 -13.6083 10
      vertex 327.844 -13.6083 0
    endloop
  endfacet
  facet normal 0.339093 0.940753 -0
    outer loop
      vertex 323.829 -12.1611 0
      vertex 323.829 -12.1611 10
      vertex 327.844 -13.6083 10
    endloop
  endfacet
  facet normal 0.829261 0.558862 0
    outer loop
      vertex 323.73 -12.0142 0
      vertex 323.829 -12.1611 10
      vertex 323.829 -12.1611 0
    endloop
  endfacet
  facet normal 0.829261 0.558862 -0
    outer loop
      vertex 323.73 -12.0142 0
      vertex 323.73 -12.0142 10
      vertex 323.829 -12.1611 10
    endloop
  endfacet
  facet normal 0.999234 -0.0391409 0
    outer loop
      vertex 323.778 -10.7888 0
      vertex 323.73 -12.0142 10
      vertex 323.73 -12.0142 0
    endloop
  endfacet
  facet normal 0.999234 -0.0391409 0
    outer loop
      vertex 323.778 -10.7888 0
      vertex 323.778 -10.7888 10
      vertex 323.73 -12.0142 10
    endloop
  endfacet
  facet normal 0.714096 0.700048 0
    outer loop
      vertex 322.898 -9.89114 0
      vertex 323.778 -10.7888 10
      vertex 323.778 -10.7888 0
    endloop
  endfacet
  facet normal 0.714096 0.700048 -0
    outer loop
      vertex 322.898 -9.89114 0
      vertex 322.898 -9.89114 10
      vertex 323.778 -10.7888 10
    endloop
  endfacet
  facet normal 0.143887 0.989594 0
    outer loop
      vertex 322.398 -9.81844 0
      vertex 322.898 -9.89114 10
      vertex 322.898 -9.89114 0
    endloop
  endfacet
  facet normal 0.143887 0.989594 -0
    outer loop
      vertex 322.398 -9.81844 0
      vertex 322.398 -9.81844 10
      vertex 322.898 -9.89114 10
    endloop
  endfacet
  facet normal 0.416104 0.909317 0
    outer loop
      vertex 322.323 -9.78412 0
      vertex 322.398 -9.81844 10
      vertex 322.398 -9.81844 0
    endloop
  endfacet
  facet normal 0.416104 0.909317 -0
    outer loop
      vertex 322.323 -9.78412 0
      vertex 322.323 -9.78412 10
      vertex 322.398 -9.81844 10
    endloop
  endfacet
  facet normal 0.648791 0.760967 0
    outer loop
      vertex 321.001 -8.657 0
      vertex 322.323 -9.78412 10
      vertex 322.323 -9.78412 0
    endloop
  endfacet
  facet normal 0.648791 0.760967 -0
    outer loop
      vertex 321.001 -8.657 0
      vertex 321.001 -8.657 10
      vertex 322.323 -9.78412 10
    endloop
  endfacet
  facet normal 0.0548996 0.998492 0
    outer loop
      vertex 320.142 -8.60977 0
      vertex 321.001 -8.657 10
      vertex 321.001 -8.657 0
    endloop
  endfacet
  facet normal 0.0548996 0.998492 -0
    outer loop
      vertex 320.142 -8.60977 0
      vertex 320.142 -8.60977 10
      vertex 321.001 -8.657 10
    endloop
  endfacet
  facet normal 0.317707 0.948189 0
    outer loop
      vertex 320.067 -8.58464 0
      vertex 320.142 -8.60977 10
      vertex 320.142 -8.60977 0
    endloop
  endfacet
  facet normal 0.317707 0.948189 -0
    outer loop
      vertex 320.067 -8.58464 0
      vertex 320.067 -8.58464 10
      vertex 320.142 -8.60977 10
    endloop
  endfacet
  facet normal 0.556044 0.831153 0
    outer loop
      vertex 318.852 -7.7718 0
      vertex 320.067 -8.58464 10
      vertex 320.067 -8.58464 0
    endloop
  endfacet
  facet normal 0.556044 0.831153 -0
    outer loop
      vertex 318.852 -7.7718 0
      vertex 318.852 -7.7718 10
      vertex 320.067 -8.58464 10
    endloop
  endfacet
  facet normal 0.183364 0.983045 0
    outer loop
      vertex 317.542 -7.52745 0
      vertex 318.852 -7.7718 10
      vertex 318.852 -7.7718 0
    endloop
  endfacet
  facet normal 0.183364 0.983045 -0
    outer loop
      vertex 317.542 -7.52745 0
      vertex 317.542 -7.52745 10
      vertex 318.852 -7.7718 10
    endloop
  endfacet
  facet normal 0.267768 0.963483 0
    outer loop
      vertex 317.518 -7.52078 0
      vertex 317.542 -7.52745 10
      vertex 317.542 -7.52745 0
    endloop
  endfacet
  facet normal 0.267768 0.963483 -0
    outer loop
      vertex 317.518 -7.52078 0
      vertex 317.518 -7.52078 10
      vertex 317.542 -7.52745 10
    endloop
  endfacet
  facet normal 0.344897 0.938641 0
    outer loop
      vertex 313.42 -6.015 0
      vertex 317.518 -7.52078 10
      vertex 317.518 -7.52078 0
    endloop
  endfacet
  facet normal 0.344897 0.938641 -0
    outer loop
      vertex 313.42 -6.015 0
      vertex 313.42 -6.015 10
      vertex 317.518 -7.52078 10
    endloop
  endfacet
  facet normal -0.999999 -0.00123232 0
    outer loop
      vertex 313.43 -14.1298 0
      vertex 313.42 -6.015 10
      vertex 313.42 -6.015 0
    endloop
  endfacet
  facet normal -0.999999 -0.00123232 0
    outer loop
      vertex 313.43 -14.1298 0
      vertex 313.43 -14.1298 10
      vertex 313.42 -6.015 10
    endloop
  endfacet
  facet normal -0.989562 0.144111 0
    outer loop
      vertex 313.424 -14.171 0
      vertex 313.43 -14.1298 10
      vertex 313.43 -14.1298 0
    endloop
  endfacet
  facet normal -0.989562 0.144111 0
    outer loop
      vertex 313.424 -14.171 0
      vertex 313.424 -14.171 10
      vertex 313.43 -14.1298 10
    endloop
  endfacet
  facet normal -0.961907 0.273377 0
    outer loop
      vertex 313.193 -14.9838 0
      vertex 313.424 -14.171 10
      vertex 313.424 -14.171 0
    endloop
  endfacet
  facet normal -0.961907 0.273377 0
    outer loop
      vertex 313.193 -14.9838 0
      vertex 313.193 -14.9838 10
      vertex 313.424 -14.171 10
    endloop
  endfacet
  facet normal -0.828522 -0.559956 0
    outer loop
      vertex 313.404 -15.296 0
      vertex 313.193 -14.9838 10
      vertex 313.193 -14.9838 0
    endloop
  endfacet
  facet normal -0.828522 -0.559956 0
    outer loop
      vertex 313.404 -15.296 0
      vertex 313.404 -15.296 10
      vertex 313.193 -14.9838 10
    endloop
  endfacet
  facet normal -0.955286 -0.295684 0
    outer loop
      vertex 313.43 -15.38 0
      vertex 313.404 -15.296 10
      vertex 313.404 -15.296 0
    endloop
  endfacet
  facet normal -0.955286 -0.295684 0
    outer loop
      vertex 313.43 -15.38 0
      vertex 313.43 -15.38 10
      vertex 313.404 -15.296 10
    endloop
  endfacet
  facet normal -1 0 0
    outer loop
      vertex 313.43 -20.2691 0
      vertex 313.43 -15.38 10
      vertex 313.43 -15.38 0
    endloop
  endfacet
  facet normal -1 0 0
    outer loop
      vertex 313.43 -20.2691 0
      vertex 313.43 -20.2691 10
      vertex 313.43 -15.38 10
    endloop
  endfacet
  facet normal -0.548868 -0.835909 0
    outer loop
      vertex 313.672 -20.428 0
      vertex 313.43 -20.2691 10
      vertex 313.43 -20.2691 0
    endloop
  endfacet
  facet normal -0.548868 -0.835909 0
    outer loop
      vertex 313.672 -20.428 0
      vertex 313.672 -20.428 10
      vertex 313.43 -20.2691 10
    endloop
  endfacet
  facet normal 0.0450817 -0.998983 0
    outer loop
      vertex 316.063 -20.3201 0
      vertex 313.672 -20.428 10
      vertex 313.672 -20.428 0
    endloop
  endfacet
  facet normal 0.0450817 -0.998983 0
    outer loop
      vertex 316.063 -20.3201 0
      vertex 316.063 -20.3201 10
      vertex 313.672 -20.428 10
    endloop
  endfacet
  facet normal -0.159595 -0.987183 0
    outer loop
      vertex 316.123 -20.3298 0
      vertex 316.063 -20.3201 10
      vertex 316.063 -20.3201 0
    endloop
  endfacet
  facet normal -0.159595 -0.987183 0
    outer loop
      vertex 316.123 -20.3298 0
      vertex 316.123 -20.3298 10
      vertex 316.063 -20.3201 10
    endloop
  endfacet
  facet normal -0.355465 -0.934689 0
    outer loop
      vertex 316.981 -20.6561 0
      vertex 316.123 -20.3298 10
      vertex 316.123 -20.3298 0
    endloop
  endfacet
  facet normal -0.355465 -0.934689 0
    outer loop
      vertex 316.981 -20.6561 0
      vertex 316.981 -20.6561 10
      vertex 316.123 -20.3298 10
    endloop
  endfacet
  facet normal 0.456085 -0.889936 0
    outer loop
      vertex 318.446 -19.9053 0
      vertex 316.981 -20.6561 10
      vertex 316.981 -20.6561 0
    endloop
  endfacet
  facet normal 0.456085 -0.889936 0
    outer loop
      vertex 318.446 -19.9053 0
      vertex 318.446 -19.9053 10
      vertex 316.981 -20.6561 10
    endloop
  endfacet
  facet normal 0.99781 -0.0661458 0
    outer loop
      vertex 318.466 -19.6036 0
      vertex 318.446 -19.9053 10
      vertex 318.446 -19.9053 0
    endloop
  endfacet
  facet normal 0.99781 -0.0661458 0
    outer loop
      vertex 318.466 -19.6036 0
      vertex 318.466 -19.6036 10
      vertex 318.446 -19.9053 10
    endloop
  endfacet
  facet normal 0.74081 0.671715 0
    outer loop
      vertex 317.942 -19.0257 0
      vertex 318.466 -19.6036 10
      vertex 318.466 -19.6036 0
    endloop
  endfacet
  facet normal 0.74081 0.671715 -0
    outer loop
      vertex 317.942 -19.0257 0
      vertex 317.942 -19.0257 10
      vertex 318.466 -19.6036 10
    endloop
  endfacet
  facet normal 0.382386 0.924003 0
    outer loop
      vertex 317.306 -18.7625 0
      vertex 317.942 -19.0257 10
      vertex 317.942 -19.0257 0
    endloop
  endfacet
  facet normal 0.382386 0.924003 -0
    outer loop
      vertex 317.306 -18.7625 0
      vertex 317.306 -18.7625 10
      vertex 317.942 -19.0257 10
    endloop
  endfacet
  facet normal -0.0830455 0.996546 0
    outer loop
      vertex 316.622 -18.8195 0
      vertex 317.306 -18.7625 10
      vertex 317.306 -18.7625 0
    endloop
  endfacet
  facet normal -0.0830455 0.996546 0
    outer loop
      vertex 316.622 -18.8195 0
      vertex 316.622 -18.8195 10
      vertex 317.306 -18.7625 10
    endloop
  endfacet
  facet normal 0.248768 0.968563 0
    outer loop
      vertex 316.527 -18.7951 0
      vertex 316.622 -18.8195 10
      vertex 316.622 -18.8195 0
    endloop
  endfacet
  facet normal 0.248768 0.968563 -0
    outer loop
      vertex 316.527 -18.7951 0
      vertex 316.527 -18.7951 10
      vertex 316.622 -18.8195 10
    endloop
  endfacet
  facet normal 0.551433 0.834219 0
    outer loop
      vertex 315.937 -18.4051 0
      vertex 316.527 -18.7951 10
      vertex 316.527 -18.7951 0
    endloop
  endfacet
  facet normal 0.551433 0.834219 -0
    outer loop
      vertex 315.937 -18.4051 0
      vertex 315.937 -18.4051 10
      vertex 316.527 -18.7951 10
    endloop
  endfacet
  facet normal 0.936166 0.351558 0
    outer loop
      vertex 315.875 -18.24 0
      vertex 315.937 -18.4051 10
      vertex 315.937 -18.4051 0
    endloop
  endfacet
  facet normal 0.936166 0.351558 -0
    outer loop
      vertex 315.875 -18.24 0
      vertex 315.875 -18.24 10
      vertex 315.937 -18.4051 10
    endloop
  endfacet
  facet normal 0.688409 -0.725323 0
    outer loop
      vertex 315.987 -18.1337 0
      vertex 315.875 -18.24 10
      vertex 315.875 -18.24 0
    endloop
  endfacet
  facet normal 0.688409 -0.725323 0
    outer loop
      vertex 315.987 -18.1337 0
      vertex 315.987 -18.1337 10
      vertex 315.875 -18.24 10
    endloop
  endfacet
  facet normal 0.220261 -0.975441 0
    outer loop
      vertex 316.297 -18.0637 0
      vertex 315.987 -18.1337 10
      vertex 315.987 -18.1337 0
    endloop
  endfacet
  facet normal 0.220261 -0.975441 0
    outer loop
      vertex 316.297 -18.0637 0
      vertex 316.297 -18.0637 10
      vertex 315.987 -18.1337 10
    endloop
  endfacet
  facet normal -0.252452 -0.96761 0
    outer loop
      vertex 316.43 -18.0984 0
      vertex 316.297 -18.0637 10
      vertex 316.297 -18.0637 0
    endloop
  endfacet
  facet normal -0.252452 -0.96761 0
    outer loop
      vertex 316.43 -18.0984 0
      vertex 316.43 -18.0984 10
      vertex 316.297 -18.0637 10
    endloop
  endfacet
  facet normal -0.667876 -0.744273 0
    outer loop
      vertex 316.77 -18.4035 0
      vertex 316.43 -18.0984 10
      vertex 316.43 -18.0984 0
    endloop
  endfacet
  facet normal -0.667876 -0.744273 0
    outer loop
      vertex 316.77 -18.4035 0
      vertex 316.77 -18.4035 10
      vertex 316.43 -18.0984 10
    endloop
  endfacet
  facet normal 0.110869 -0.993835 0
    outer loop
      vertex 318.916 -18.1641 0
      vertex 316.77 -18.4035 10
      vertex 316.77 -18.4035 0
    endloop
  endfacet
  facet normal 0.110869 -0.993835 0
    outer loop
      vertex 318.916 -18.1641 0
      vertex 318.916 -18.1641 10
      vertex 316.77 -18.4035 10
    endloop
  endfacet
  facet normal 0.90573 0.423855 0
    outer loop
      vertex 318.794 -17.9034 0
      vertex 318.916 -18.1641 10
      vertex 318.916 -18.1641 0
    endloop
  endfacet
  facet normal 0.90573 0.423855 -0
    outer loop
      vertex 318.794 -17.9034 0
      vertex 318.794 -17.9034 10
      vertex 318.916 -18.1641 10
    endloop
  endfacet
  facet normal 0.981251 -0.192736 0
    outer loop
      vertex 318.828 -17.7303 0
      vertex 318.794 -17.9034 10
      vertex 318.794 -17.9034 0
    endloop
  endfacet
  facet normal 0.981251 -0.192736 0
    outer loop
      vertex 318.828 -17.7303 0
      vertex 318.828 -17.7303 10
      vertex 318.794 -17.9034 10
    endloop
  endfacet
  facet normal 0.32632 -0.945259 0
    outer loop
      vertex 318.943 -17.6906 0
      vertex 318.828 -17.7303 10
      vertex 318.828 -17.7303 0
    endloop
  endfacet
  facet normal 0.32632 -0.945259 0
    outer loop
      vertex 318.943 -17.6906 0
      vertex 318.943 -17.6906 10
      vertex 318.828 -17.7303 10
    endloop
  endfacet
  facet normal -0.0854674 -0.996341 0
    outer loop
      vertex 319.583 -17.7455 0
      vertex 318.943 -17.6906 10
      vertex 318.943 -17.6906 0
    endloop
  endfacet
  facet normal -0.0854674 -0.996341 0
    outer loop
      vertex 319.583 -17.7455 0
      vertex 319.583 -17.7455 10
      vertex 318.943 -17.6906 10
    endloop
  endfacet
  facet normal 0.61942 -0.785059 0
    outer loop
      vertex 319.674 -17.6737 0
      vertex 319.583 -17.7455 10
      vertex 319.583 -17.7455 0
    endloop
  endfacet
  facet normal 0.61942 -0.785059 0
    outer loop
      vertex 319.674 -17.6737 0
      vertex 319.674 -17.6737 10
      vertex 319.583 -17.7455 10
    endloop
  endfacet
  facet normal 0.860352 0.5097 0
    outer loop
      vertex 319.101 -16.7065 0
      vertex 319.674 -17.6737 10
      vertex 319.674 -17.6737 0
    endloop
  endfacet
  facet normal 0.860352 0.5097 -0
    outer loop
      vertex 319.101 -16.7065 0
      vertex 319.101 -16.7065 10
      vertex 319.674 -17.6737 10
    endloop
  endfacet
  facet normal 0.995875 -0.0907403 0
    outer loop
      vertex 319.117 -16.5309 0
      vertex 319.101 -16.7065 10
      vertex 319.101 -16.7065 0
    endloop
  endfacet
  facet normal 0.995875 -0.0907403 0
    outer loop
      vertex 319.117 -16.5309 0
      vertex 319.117 -16.5309 10
      vertex 319.101 -16.7065 10
    endloop
  endfacet
  facet normal 0.151124 -0.988515 0
    outer loop
      vertex 319.308 -16.5017 0
      vertex 319.117 -16.5309 10
      vertex 319.117 -16.5309 0
    endloop
  endfacet
  facet normal 0.151124 -0.988515 0
    outer loop
      vertex 319.308 -16.5017 0
      vertex 319.308 -16.5017 10
      vertex 319.117 -16.5309 10
    endloop
  endfacet
  facet normal -0.517952 -0.85541 0
    outer loop
      vertex 320.326 -17.1181 0
      vertex 319.308 -16.5017 10
      vertex 319.308 -16.5017 0
    endloop
  endfacet
  facet normal -0.517952 -0.85541 0
    outer loop
      vertex 320.326 -17.1181 0
      vertex 320.326 -17.1181 10
      vertex 319.308 -16.5017 10
    endloop
  endfacet
  facet normal 0.460497 -0.887661 0
    outer loop
      vertex 321.061 -16.7368 0
      vertex 320.326 -17.1181 10
      vertex 320.326 -17.1181 0
    endloop
  endfacet
  facet normal 0.460497 -0.887661 0
    outer loop
      vertex 321.061 -16.7368 0
      vertex 321.061 -16.7368 10
      vertex 320.326 -17.1181 10
    endloop
  endfacet
  facet normal 0.150884 -0.988551 0
    outer loop
      vertex 321.156 -16.7223 0
      vertex 321.061 -16.7368 10
      vertex 321.061 -16.7368 0
    endloop
  endfacet
  facet normal 0.150884 -0.988551 0
    outer loop
      vertex 321.156 -16.7223 0
      vertex 321.156 -16.7223 10
      vertex 321.061 -16.7368 10
    endloop
  endfacet
  facet normal -0.174496 -0.984658 0
    outer loop
      vertex 321.946 -16.8623 0
      vertex 321.156 -16.7223 10
      vertex 321.156 -16.7223 0
    endloop
  endfacet
  facet normal -0.174496 -0.984658 0
    outer loop
      vertex 321.946 -16.8623 0
      vertex 321.946 -16.8623 10
      vertex 321.156 -16.7223 10
    endloop
  endfacet
  facet normal -0.556218 -0.831036 0
    outer loop
      vertex 322.047 -16.9299 0
      vertex 321.946 -16.8623 10
      vertex 321.946 -16.8623 0
    endloop
  endfacet
  facet normal -0.556218 -0.831036 0
    outer loop
      vertex 322.047 -16.9299 0
      vertex 322.047 -16.9299 10
      vertex 321.946 -16.8623 10
    endloop
  endfacet
  facet normal -0.845976 -0.533221 0
    outer loop
      vertex 322.255 -17.2599 0
      vertex 322.047 -16.9299 10
      vertex 322.047 -16.9299 0
    endloop
  endfacet
  facet normal -0.845976 -0.533221 0
    outer loop
      vertex 322.255 -17.2599 0
      vertex 322.255 -17.2599 10
      vertex 322.047 -16.9299 10
    endloop
  endfacet
  facet normal -0.25408 -0.967183 0
    outer loop
      vertex 324.558 -17.8649 0
      vertex 322.255 -17.2599 10
      vertex 322.255 -17.2599 0
    endloop
  endfacet
  facet normal -0.25408 -0.967183 0
    outer loop
      vertex 324.558 -17.8649 0
      vertex 324.558 -17.8649 10
      vertex 322.255 -17.2599 10
    endloop
  endfacet
  facet normal -0.577912 -0.816099 0
    outer loop
      vertex 324.644 -17.9258 0
      vertex 324.558 -17.8649 10
      vertex 324.558 -17.8649 0
    endloop
  endfacet
  facet normal -0.577912 -0.816099 0
    outer loop
      vertex 324.644 -17.9258 0
      vertex 324.644 -17.9258 10
      vertex 324.558 -17.8649 10
    endloop
  endfacet
  facet normal -0.827403 -0.561609 0
    outer loop
      vertex 325.946 -19.844 0
      vertex 324.644 -17.9258 10
      vertex 324.644 -17.9258 0
    endloop
  endfacet
  facet normal -0.827403 -0.561609 0
    outer loop
      vertex 325.946 -19.844 0
      vertex 325.946 -19.844 10
      vertex 324.644 -17.9258 10
    endloop
  endfacet
  facet normal -0.320209 -0.947347 0
    outer loop
      vertex 326.638 -20.0779 0
      vertex 325.946 -19.844 10
      vertex 325.946 -19.844 0
    endloop
  endfacet
  facet normal -0.320209 -0.947347 0
    outer loop
      vertex 326.638 -20.0779 0
      vertex 326.638 -20.0779 10
      vertex 325.946 -19.844 10
    endloop
  endfacet
  facet normal -0.868551 -0.4956 0
    outer loop
      vertex 326.737 -20.2514 0
      vertex 326.638 -20.0779 10
      vertex 326.638 -20.0779 0
    endloop
  endfacet
  facet normal -0.868551 -0.4956 0
    outer loop
      vertex 326.737 -20.2514 0
      vertex 326.737 -20.2514 10
      vertex 326.638 -20.0779 10
    endloop
  endfacet
  facet normal -0.977396 0.211417 0
    outer loop
      vertex 326.659 -20.612 0
      vertex 326.737 -20.2514 10
      vertex 326.737 -20.2514 0
    endloop
  endfacet
  facet normal -0.977396 0.211417 0
    outer loop
      vertex 326.659 -20.612 0
      vertex 326.659 -20.612 10
      vertex 326.737 -20.2514 10
    endloop
  endfacet
  facet normal -0.847998 -0.529999 0
    outer loop
      vertex 326.816 -20.8632 0
      vertex 326.659 -20.612 10
      vertex 326.659 -20.612 0
    endloop
  endfacet
  facet normal -0.847998 -0.529999 0
    outer loop
      vertex 326.816 -20.8632 0
      vertex 326.816 -20.8632 10
      vertex 326.659 -20.612 10
    endloop
  endfacet
  facet normal -0.675498 -0.737362 0
    outer loop
      vertex 328.437 -22.3482 0
      vertex 326.816 -20.8632 10
      vertex 326.816 -20.8632 0
    endloop
  endfacet
  facet normal -0.675498 -0.737362 0
    outer loop
      vertex 328.437 -22.3482 0
      vertex 328.437 -22.3482 10
      vertex 326.816 -20.8632 10
    endloop
  endfacet
  facet normal -0.143293 -0.98968 0
    outer loop
      vertex 332.811 -22.9815 0
      vertex 328.437 -22.3482 10
      vertex 328.437 -22.3482 0
    endloop
  endfacet
  facet normal -0.143293 -0.98968 0
    outer loop
      vertex 332.811 -22.9815 0
      vertex 332.811 -22.9815 10
      vertex 328.437 -22.3482 10
    endloop
  endfacet
  facet normal -0.417136 -0.908844 0
    outer loop
      vertex 332.889 -23.0173 0
      vertex 332.811 -22.9815 10
      vertex 332.811 -22.9815 0
    endloop
  endfacet
  facet normal -0.417136 -0.908844 0
    outer loop
      vertex 332.889 -23.0173 0
      vertex 332.889 -23.0173 10
      vertex 332.811 -22.9815 10
    endloop
  endfacet
  facet normal -0.660154 -0.75113 0
    outer loop
      vertex 333.443 -23.5042 0
      vertex 332.889 -23.0173 10
      vertex 332.889 -23.0173 0
    endloop
  endfacet
  facet normal -0.660154 -0.75113 0
    outer loop
      vertex 333.443 -23.5042 0
      vertex 333.443 -23.5042 10
      vertex 332.889 -23.0173 10
    endloop
  endfacet
  facet normal -0.25956 -0.965727 0
    outer loop
      vertex 334.029 -23.6617 0
      vertex 333.443 -23.5042 10
      vertex 333.443 -23.5042 0
    endloop
  endfacet
  facet normal -0.25956 -0.965727 0
    outer loop
      vertex 334.029 -23.6617 0
      vertex 334.029 -23.6617 10
      vertex 333.443 -23.5042 10
    endloop
  endfacet
  facet normal 0.390618 -0.920553 0
    outer loop
      vertex 334.514 -23.4559 0
      vertex 334.029 -23.6617 10
      vertex 334.029 -23.6617 0
    endloop
  endfacet
  facet normal 0.390618 -0.920553 0
    outer loop
      vertex 334.514 -23.4559 0
      vertex 334.514 -23.4559 10
      vertex 334.029 -23.6617 10
    endloop
  endfacet
endsolid OpenSCAD_Model
