solid OpenSCAD_Model
  facet normal 0 0 -1
    outer loop
      vertex 283.044 94.7108 0
      vertex 282.415 92.3699 0
      vertex 282.309 92.3206 0
    endloop
  endfacet
  facet normal 0 0 -1
    outer loop
      vertex 280.18 91.1824 0
      vertex 280.736 91.1941 0
      vertex 280.248 91.1077 0
    endloop
  endfacet
  facet normal 0 0 -1
    outer loop
      vertex 279.56 91.5124 0
      vertex 280.736 91.1941 0
      vertex 280.18 91.1824 0
    endloop
  endfacet
  facet normal 0 -0 -1
    outer loop
      vertex 276.551 97.3663 0
      vertex 276.879 96.6506 0
      vertex 276.491 96.9375 0
    endloop
  endfacet
  facet normal 0 0 -1
    outer loop
      vertex 281.369 91.2806 0
      vertex 281.332 91.2072 0
      vertex 280.882 91.2064 0
    endloop
  endfacet
  facet normal 0 0 -1
    outer loop
      vertex 280.248 91.1077 0
      vertex 280.736 91.1941 0
      vertex 280.328 90.9173 0
    endloop
  endfacet
  facet normal 0 -0 -1
    outer loop
      vertex 283.885 94.3724 0
      vertex 284.458 92.4377 0
      vertex 282.415 92.3699 0
    endloop
  endfacet
  facet normal 0 0 -1
    outer loop
      vertex 282.309 92.3206 0
      vertex 279.16 93.3506 0
      vertex 283.044 94.7108 0
    endloop
  endfacet
  facet normal 0 0 -1
    outer loop
      vertex 280.882 91.2064 0
      vertex 281.332 91.2072 0
      vertex 281.297 91.0165 0
    endloop
  endfacet
  facet normal 0 -0 -1
    outer loop
      vertex 289.026 105.807 0
      vertex 289.29 105.263 0
      vertex 288.701 105.787 0
    endloop
  endfacet
  facet normal 0 0 -1
    outer loop
      vertex 282.309 92.3206 0
      vertex 281.369 91.2806 0
      vertex 280.882 91.2064 0
    endloop
  endfacet
  facet normal -0 0 -1
    outer loop
      vertex 282.309 92.3206 0
      vertex 280.882 91.2064 0
      vertex 279.16 93.3506 0
    endloop
  endfacet
  facet normal -0 0 -1
    outer loop
      vertex 283.885 94.3724 0
      vertex 282.415 92.3699 0
      vertex 283.044 94.7108 0
    endloop
  endfacet
  facet normal 0 0 -1
    outer loop
      vertex 283.885 94.3724 0
      vertex 285.077 93.1717 0
      vertex 284.458 92.4377 0
    endloop
  endfacet
  facet normal 0 0 -1
    outer loop
      vertex 279.16 93.3506 0
      vertex 279.065 93.4995 0
      vertex 282.964 94.9133 0
    endloop
  endfacet
  facet normal 0 0 -1
    outer loop
      vertex 288.237 104.221 0
      vertex 288.366 104.336 0
      vertex 289.29 103.661 0
    endloop
  endfacet
  facet normal 0 0 -1
    outer loop
      vertex 282.964 94.9133 0
      vertex 278.728 95.7936 0
      vertex 283.24 96.249 0
    endloop
  endfacet
  facet normal -0 0 -1
    outer loop
      vertex 283.288 95.6079 0
      vertex 282.964 94.9133 0
      vertex 283.24 96.249 0
    endloop
  endfacet
  facet normal 0 0 -1
    outer loop
      vertex 283.24 96.249 0
      vertex 280.008 99.6326 0
      vertex 283.291 96.3727 0
    endloop
  endfacet
  facet normal 0 -0 -1
    outer loop
      vertex 281.467 101.862 0
      vertex 282.504 101.535 0
      vertex 281.234 101.077 0
    endloop
  endfacet
  facet normal 0 0 -1
    outer loop
      vertex 281.206 101.024 0
      vertex 281.234 101.077 0
      vertex 282.591 101.483 0
    endloop
  endfacet
  facet normal 0 0 -1
    outer loop
      vertex 288.2 102.177 0
      vertex 286.619 103.049 0
      vertex 288.23 102.261 0
    endloop
  endfacet
  facet normal 0 0 -1
    outer loop
      vertex 285.226 101.796 0
      vertex 286.511 102.99 0
      vertex 288.2 102.177 0
    endloop
  endfacet
  facet normal 0 0 -1
    outer loop
      vertex 288.23 102.261 0
      vertex 287.441 104.128 0
      vertex 288.237 104.221 0
    endloop
  endfacet
  facet normal 0 -0 -1
    outer loop
      vertex 286.619 103.049 0
      vertex 288.2 102.177 0
      vertex 286.511 102.99 0
    endloop
  endfacet
  facet normal 0 -0 -1
    outer loop
      vertex 289.29 105.263 0
      vertex 289.319 105.181 0
      vertex 288.366 104.336 0
    endloop
  endfacet
  facet normal 0 0 -1
    outer loop
      vertex 287.356 99.3855 0
      vertex 288.2 102.177 0
      vertex 288.094 99.7367 0
    endloop
  endfacet
  facet normal 0 0 -1
    outer loop
      vertex 288.366 104.336 0
      vertex 289.319 105.181 0
      vertex 289.322 103.692 0
    endloop
  endfacet
  facet normal 0 -0 -1
    outer loop
      vertex 288.701 105.787 0
      vertex 289.29 105.263 0
      vertex 288.366 104.336 0
    endloop
  endfacet
  facet normal 0 0 -1
    outer loop
      vertex 289.026 105.807 0
      vertex 289.273 105.63 0
      vertex 289.29 105.263 0
    endloop
  endfacet
  facet normal 0 0 -1
    outer loop
      vertex 289.322 103.692 0
      vertex 289.319 105.181 0
      vertex 289.822 104.052 0
    endloop
  endfacet
  facet normal 0 0 -1
    outer loop
      vertex 289.822 104.052 0
      vertex 289.319 105.181 0
      vertex 289.91 104.08 0
    endloop
  endfacet
  facet normal 0 0 -1
    outer loop
      vertex 289.91 104.08 0
      vertex 289.319 105.181 0
      vertex 290.124 104.08 0
    endloop
  endfacet
  facet normal 0 0 -1
    outer loop
      vertex 288.366 104.336 0
      vertex 289.322 103.692 0
      vertex 289.29 103.661 0
    endloop
  endfacet
  facet normal 0 -0 -1
    outer loop
      vertex 287.441 104.128 0
      vertex 288.23 102.261 0
      vertex 286.619 103.049 0
    endloop
  endfacet
  facet normal 0 0 -1
    outer loop
      vertex 285.226 101.796 0
      vertex 285.225 101.926 0
      vertex 286.511 102.99 0
    endloop
  endfacet
  facet normal 0 0 -1
    outer loop
      vertex 287.356 99.3855 0
      vertex 285.226 101.796 0
      vertex 288.2 102.177 0
    endloop
  endfacet
  facet normal 0 -0 -1
    outer loop
      vertex 288.237 104.221 0
      vertex 289.29 103.661 0
      vertex 288.23 102.261 0
    endloop
  endfacet
  facet normal 0 0 -1
    outer loop
      vertex 285.225 101.926 0
      vertex 284.771 102.857 0
      vertex 286.511 102.99 0
    endloop
  endfacet
  facet normal 0 0 -1
    outer loop
      vertex 284.751 101.053 0
      vertex 287.317 99.359 0
      vertex 285.502 97.6423 0
    endloop
  endfacet
  facet normal 0 0 -1
    outer loop
      vertex 284.324 97.2628 0
      vertex 284.751 101.053 0
      vertex 285.502 97.6423 0
    endloop
  endfacet
  facet normal 0 0 -1
    outer loop
      vertex 281.234 101.077 0
      vertex 282.504 101.535 0
      vertex 282.591 101.483 0
    endloop
  endfacet
  facet normal 0 0 -1
    outer loop
      vertex 287.356 99.3855 0
      vertex 284.916 101.136 0
      vertex 285.226 101.796 0
    endloop
  endfacet
  facet normal 0 -0 -1
    outer loop
      vertex 284.916 101.136 0
      vertex 287.317 99.359 0
      vertex 284.751 101.053 0
    endloop
  endfacet
  facet normal -0 0 -1
    outer loop
      vertex 287.356 99.3855 0
      vertex 287.317 99.359 0
      vertex 284.916 101.136 0
    endloop
  endfacet
  facet normal 0 0 -1
    outer loop
      vertex 284.324 97.2628 0
      vertex 282.591 101.483 0
      vertex 284.751 101.053 0
    endloop
  endfacet
  facet normal -0 0 -1
    outer loop
      vertex 284.324 97.2628 0
      vertex 284.271 97.2327 0
      vertex 282.591 101.483 0
    endloop
  endfacet
  facet normal 0 0 -1
    outer loop
      vertex 282.504 101.535 0
      vertex 281.467 101.862 0
      vertex 281.977 102.174 0
    endloop
  endfacet
  facet normal 0 0 -1
    outer loop
      vertex 281.206 101.024 0
      vertex 282.591 101.483 0
      vertex 284.271 97.2327 0
    endloop
  endfacet
  facet normal 0 0 -1
    outer loop
      vertex 280.096 99.6843 0
      vertex 281.206 101.024 0
      vertex 284.271 97.2327 0
    endloop
  endfacet
  facet normal 0 0 -1
    outer loop
      vertex 283.291 96.3727 0
      vertex 280.096 99.6843 0
      vertex 284.271 97.2327 0
    endloop
  endfacet
  facet normal 0 0 -1
    outer loop
      vertex 283.291 96.3727 0
      vertex 280.008 99.6326 0
      vertex 280.096 99.6843 0
    endloop
  endfacet
  facet normal 0 0 -1
    outer loop
      vertex 277.622 98.3608 0
      vertex 279.456 99.528 0
      vertex 278.649 95.9033 0
    endloop
  endfacet
  facet normal 0 0 -1
    outer loop
      vertex 276.551 97.3663 0
      vertex 277.349 96.5733 0
      vertex 276.879 96.6506 0
    endloop
  endfacet
  facet normal 0 0 -1
    outer loop
      vertex 276.931 96.5799 0
      vertex 276.879 96.6506 0
      vertex 277.159 96.5291 0
    endloop
  endfacet
  facet normal 0 0 -1
    outer loop
      vertex 276.879 96.6506 0
      vertex 277.349 96.5733 0
      vertex 277.159 96.5291 0
    endloop
  endfacet
  facet normal 0 0 -1
    outer loop
      vertex 278.649 95.9033 0
      vertex 280.008 99.6326 0
      vertex 278.728 95.7936 0
    endloop
  endfacet
  facet normal 0 0 -1
    outer loop
      vertex 278.83 95.0253 0
      vertex 278.838 95.1036 0
      vertex 282.964 94.9133 0
    endloop
  endfacet
  facet normal 0 0 -1
    outer loop
      vertex 276.931 96.5799 0
      vertex 277.159 96.5291 0
      vertex 277.017 96.3367 0
    endloop
  endfacet
  facet normal 0 0 -1
    outer loop
      vertex 278.257 91.799 0
      vertex 277.636 92.0159 0
      vertex 278.039 92.8686 0
    endloop
  endfacet
  facet normal 0 -0 -1
    outer loop
      vertex 277.622 98.3608 0
      vertex 278.649 95.9033 0
      vertex 277.349 96.5733 0
    endloop
  endfacet
  facet normal 0 0 -1
    outer loop
      vertex 280.736 91.1941 0
      vertex 279.56 91.5124 0
      vertex 279.16 93.3506 0
    endloop
  endfacet
  facet normal 0 0 -1
    outer loop
      vertex 279.065 93.4995 0
      vertex 278.83 95.0253 0
      vertex 282.964 94.9133 0
    endloop
  endfacet
  facet normal 0 0 -1
    outer loop
      vertex 276.551 97.3663 0
      vertex 277.622 98.3608 0
      vertex 277.349 96.5733 0
    endloop
  endfacet
  facet normal 0 -0 -1
    outer loop
      vertex 279.456 99.528 0
      vertex 280.008 99.6326 0
      vertex 278.649 95.9033 0
    endloop
  endfacet
  facet normal 0 0 -1
    outer loop
      vertex 278.728 95.7936 0
      vertex 280.008 99.6326 0
      vertex 283.24 96.249 0
    endloop
  endfacet
  facet normal 0 0 -1
    outer loop
      vertex 278.838 95.1036 0
      vertex 278.728 95.7936 0
      vertex 282.964 94.9133 0
    endloop
  endfacet
  facet normal 0 0 -1
    outer loop
      vertex 279.065 93.4995 0
      vertex 278.344 93.7845 0
      vertex 278.83 95.0253 0
    endloop
  endfacet
  facet normal 0 0 -1
    outer loop
      vertex 279.56 91.5124 0
      vertex 279.059 93.2181 0
      vertex 279.16 93.3506 0
    endloop
  endfacet
  facet normal -0 0 -1
    outer loop
      vertex 279.56 91.5124 0
      vertex 279.396 91.4969 0
      vertex 279.059 93.2181 0
    endloop
  endfacet
  facet normal 0 0 -1
    outer loop
      vertex 279.16 93.3506 0
      vertex 282.964 94.9133 0
      vertex 283.044 94.7108 0
    endloop
  endfacet
  facet normal 0 0 -1
    outer loop
      vertex 278.257 91.799 0
      vertex 278.039 92.8686 0
      vertex 279.059 93.2181 0
    endloop
  endfacet
  facet normal 0 0 -1
    outer loop
      vertex 280.736 91.1941 0
      vertex 279.16 93.3506 0
      vertex 280.882 91.2064 0
    endloop
  endfacet
  facet normal 0 0 -1
    outer loop
      vertex 277.589 91.9589 0
      vertex 277.636 92.0159 0
      vertex 278.257 91.799 0
    endloop
  endfacet
  facet normal 0 0 -1
    outer loop
      vertex 277.489 91.8859 0
      vertex 277.589 91.9589 0
      vertex 278.257 91.799 0
    endloop
  endfacet
  facet normal 0 0 -1
    outer loop
      vertex 278.257 91.799 0
      vertex 279.059 93.2181 0
      vertex 278.387 91.68 0
    endloop
  endfacet
  facet normal 0 0 -1
    outer loop
      vertex 278.339 91.5372 0
      vertex 278.387 91.68 0
      vertex 278.517 91.1223 0
    endloop
  endfacet
  facet normal 0 0 -1
    outer loop
      vertex 278.387 91.68 0
      vertex 279.059 93.2181 0
      vertex 279.396 91.4969 0
    endloop
  endfacet
  facet normal 0 0 -1
    outer loop
      vertex 278.517 91.1223 0
      vertex 278.387 91.68 0
      vertex 279.396 91.4969 0
    endloop
  endfacet
  facet normal 0 0 -1
    outer loop
      vertex 278.517 91.1223 0
      vertex 278.045 91.2796 0
      vertex 278.339 91.5372 0
    endloop
  endfacet
  facet normal 0 0 -1
    outer loop
      vertex 278.651 90.8974 0
      vertex 278.614 91.0223 0
      vertex 279.396 91.4969 0
    endloop
  endfacet
  facet normal 0 0 -1
    outer loop
      vertex 278.614 91.0223 0
      vertex 278.517 91.1223 0
      vertex 279.396 91.4969 0
    endloop
  endfacet
  facet normal 0 0 1
    outer loop
      vertex 282.309 92.3206 10
      vertex 282.415 92.3699 10
      vertex 283.044 94.7108 10
    endloop
  endfacet
  facet normal 0 -0 1
    outer loop
      vertex 280.248 91.1077 10
      vertex 280.736 91.1941 10
      vertex 280.18 91.1824 10
    endloop
  endfacet
  facet normal 0 -0 1
    outer loop
      vertex 280.18 91.1824 10
      vertex 280.736 91.1941 10
      vertex 279.56 91.5124 10
    endloop
  endfacet
  facet normal -0 0 1
    outer loop
      vertex 276.491 96.9375 10
      vertex 276.879 96.6506 10
      vertex 276.551 97.3663 10
    endloop
  endfacet
  facet normal 0 0 1
    outer loop
      vertex 280.882 91.2064 10
      vertex 281.332 91.2072 10
      vertex 281.369 91.2806 10
    endloop
  endfacet
  facet normal 0 -0 1
    outer loop
      vertex 280.328 90.9173 10
      vertex 280.736 91.1941 10
      vertex 280.248 91.1077 10
    endloop
  endfacet
  facet normal 0 0 1
    outer loop
      vertex 282.415 92.3699 10
      vertex 284.458 92.4377 10
      vertex 283.885 94.3724 10
    endloop
  endfacet
  facet normal 0 0 1
    outer loop
      vertex 283.044 94.7108 10
      vertex 279.16 93.3506 10
      vertex 282.309 92.3206 10
    endloop
  endfacet
  facet normal 0 -0 1
    outer loop
      vertex 281.297 91.0165 10
      vertex 281.332 91.2072 10
      vertex 280.882 91.2064 10
    endloop
  endfacet
  facet normal -0 0 1
    outer loop
      vertex 288.701 105.787 10
      vertex 289.29 105.263 10
      vertex 289.026 105.807 10
    endloop
  endfacet
  facet normal 0 0 1
    outer loop
      vertex 280.882 91.2064 10
      vertex 281.369 91.2806 10
      vertex 282.309 92.3206 10
    endloop
  endfacet
  facet normal 0 0 1
    outer loop
      vertex 279.16 93.3506 10
      vertex 280.882 91.2064 10
      vertex 282.309 92.3206 10
    endloop
  endfacet
  facet normal 0 0 1
    outer loop
      vertex 283.044 94.7108 10
      vertex 282.415 92.3699 10
      vertex 283.885 94.3724 10
    endloop
  endfacet
  facet normal 0 -0 1
    outer loop
      vertex 284.458 92.4377 10
      vertex 285.077 93.1717 10
      vertex 283.885 94.3724 10
    endloop
  endfacet
  facet normal 0 0 1
    outer loop
      vertex 282.964 94.9133 10
      vertex 279.065 93.4995 10
      vertex 279.16 93.3506 10
    endloop
  endfacet
  facet normal 0 0 1
    outer loop
      vertex 289.29 103.661 10
      vertex 288.366 104.336 10
      vertex 288.237 104.221 10
    endloop
  endfacet
  facet normal 0 0 1
    outer loop
      vertex 283.24 96.249 10
      vertex 278.728 95.7936 10
      vertex 282.964 94.9133 10
    endloop
  endfacet
  facet normal 0 0 1
    outer loop
      vertex 283.24 96.249 10
      vertex 282.964 94.9133 10
      vertex 283.288 95.6079 10
    endloop
  endfacet
  facet normal 0 0 1
    outer loop
      vertex 283.291 96.3727 10
      vertex 280.008 99.6326 10
      vertex 283.24 96.249 10
    endloop
  endfacet
  facet normal 0 0 1
    outer loop
      vertex 281.234 101.077 10
      vertex 282.504 101.535 10
      vertex 281.467 101.862 10
    endloop
  endfacet
  facet normal 0 0 1
    outer loop
      vertex 282.591 101.483 10
      vertex 281.234 101.077 10
      vertex 281.206 101.024 10
    endloop
  endfacet
  facet normal 0 0 1
    outer loop
      vertex 288.23 102.261 10
      vertex 286.619 103.049 10
      vertex 288.2 102.177 10
    endloop
  endfacet
  facet normal 0 0 1
    outer loop
      vertex 288.2 102.177 10
      vertex 286.511 102.99 10
      vertex 285.226 101.796 10
    endloop
  endfacet
  facet normal 0 0 1
    outer loop
      vertex 288.237 104.221 10
      vertex 287.441 104.128 10
      vertex 288.23 102.261 10
    endloop
  endfacet
  facet normal -0 0 1
    outer loop
      vertex 286.511 102.99 10
      vertex 288.2 102.177 10
      vertex 286.619 103.049 10
    endloop
  endfacet
  facet normal 0 0 1
    outer loop
      vertex 288.366 104.336 10
      vertex 289.319 105.181 10
      vertex 289.29 105.263 10
    endloop
  endfacet
  facet normal 0 -0 1
    outer loop
      vertex 288.094 99.7367 10
      vertex 288.2 102.177 10
      vertex 287.356 99.3855 10
    endloop
  endfacet
  facet normal 0 0 1
    outer loop
      vertex 289.322 103.692 10
      vertex 289.319 105.181 10
      vertex 288.366 104.336 10
    endloop
  endfacet
  facet normal 0 0 1
    outer loop
      vertex 288.366 104.336 10
      vertex 289.29 105.263 10
      vertex 288.701 105.787 10
    endloop
  endfacet
  facet normal 0 0 1
    outer loop
      vertex 289.29 105.263 10
      vertex 289.273 105.63 10
      vertex 289.026 105.807 10
    endloop
  endfacet
  facet normal 0 0 1
    outer loop
      vertex 289.822 104.052 10
      vertex 289.319 105.181 10
      vertex 289.322 103.692 10
    endloop
  endfacet
  facet normal 0 0 1
    outer loop
      vertex 289.91 104.08 10
      vertex 289.319 105.181 10
      vertex 289.822 104.052 10
    endloop
  endfacet
  facet normal 0 0 1
    outer loop
      vertex 290.124 104.08 10
      vertex 289.319 105.181 10
      vertex 289.91 104.08 10
    endloop
  endfacet
  facet normal 0 -0 1
    outer loop
      vertex 289.29 103.661 10
      vertex 289.322 103.692 10
      vertex 288.366 104.336 10
    endloop
  endfacet
  facet normal -0 0 1
    outer loop
      vertex 286.619 103.049 10
      vertex 288.23 102.261 10
      vertex 287.441 104.128 10
    endloop
  endfacet
  facet normal 0 0 1
    outer loop
      vertex 286.511 102.99 10
      vertex 285.225 101.926 10
      vertex 285.226 101.796 10
    endloop
  endfacet
  facet normal 0 0 1
    outer loop
      vertex 288.2 102.177 10
      vertex 285.226 101.796 10
      vertex 287.356 99.3855 10
    endloop
  endfacet
  facet normal 0 0 1
    outer loop
      vertex 288.23 102.261 10
      vertex 289.29 103.661 10
      vertex 288.237 104.221 10
    endloop
  endfacet
  facet normal 0 0 1
    outer loop
      vertex 286.511 102.99 10
      vertex 284.771 102.857 10
      vertex 285.225 101.926 10
    endloop
  endfacet
  facet normal 0 -0 1
    outer loop
      vertex 285.502 97.6423 10
      vertex 287.317 99.359 10
      vertex 284.751 101.053 10
    endloop
  endfacet
  facet normal 0 0 1
    outer loop
      vertex 285.502 97.6423 10
      vertex 284.751 101.053 10
      vertex 284.324 97.2628 10
    endloop
  endfacet
  facet normal 0 0 1
    outer loop
      vertex 282.591 101.483 10
      vertex 282.504 101.535 10
      vertex 281.234 101.077 10
    endloop
  endfacet
  facet normal 0 0 1
    outer loop
      vertex 285.226 101.796 10
      vertex 284.916 101.136 10
      vertex 287.356 99.3855 10
    endloop
  endfacet
  facet normal -0 0 1
    outer loop
      vertex 284.751 101.053 10
      vertex 287.317 99.359 10
      vertex 284.916 101.136 10
    endloop
  endfacet
  facet normal 0 0 1
    outer loop
      vertex 284.916 101.136 10
      vertex 287.317 99.359 10
      vertex 287.356 99.3855 10
    endloop
  endfacet
  facet normal 0 0 1
    outer loop
      vertex 284.751 101.053 10
      vertex 282.591 101.483 10
      vertex 284.324 97.2628 10
    endloop
  endfacet
  facet normal 0 0 1
    outer loop
      vertex 282.591 101.483 10
      vertex 284.271 97.2327 10
      vertex 284.324 97.2628 10
    endloop
  endfacet
  facet normal 0 0 1
    outer loop
      vertex 281.977 102.174 10
      vertex 281.467 101.862 10
      vertex 282.504 101.535 10
    endloop
  endfacet
  facet normal 0 0 1
    outer loop
      vertex 284.271 97.2327 10
      vertex 282.591 101.483 10
      vertex 281.206 101.024 10
    endloop
  endfacet
  facet normal 0 0 1
    outer loop
      vertex 284.271 97.2327 10
      vertex 281.206 101.024 10
      vertex 280.096 99.6843 10
    endloop
  endfacet
  facet normal 0 0 1
    outer loop
      vertex 284.271 97.2327 10
      vertex 280.096 99.6843 10
      vertex 283.291 96.3727 10
    endloop
  endfacet
  facet normal 0 0 1
    outer loop
      vertex 280.096 99.6843 10
      vertex 280.008 99.6326 10
      vertex 283.291 96.3727 10
    endloop
  endfacet
  facet normal 0 -0 1
    outer loop
      vertex 278.649 95.9033 10
      vertex 279.456 99.528 10
      vertex 277.622 98.3608 10
    endloop
  endfacet
  facet normal -0 -0 1
    outer loop
      vertex 276.879 96.6506 10
      vertex 277.349 96.5733 10
      vertex 276.551 97.3663 10
    endloop
  endfacet
  facet normal 0 0 1
    outer loop
      vertex 277.159 96.5291 10
      vertex 276.879 96.6506 10
      vertex 276.931 96.5799 10
    endloop
  endfacet
  facet normal 0 -0 1
    outer loop
      vertex 277.159 96.5291 10
      vertex 277.349 96.5733 10
      vertex 276.879 96.6506 10
    endloop
  endfacet
  facet normal 0 -0 1
    outer loop
      vertex 278.728 95.7936 10
      vertex 280.008 99.6326 10
      vertex 278.649 95.9033 10
    endloop
  endfacet
  facet normal 0 0 1
    outer loop
      vertex 282.964 94.9133 10
      vertex 278.838 95.1036 10
      vertex 278.83 95.0253 10
    endloop
  endfacet
  facet normal 0 -0 1
    outer loop
      vertex 277.017 96.3367 10
      vertex 277.159 96.5291 10
      vertex 276.931 96.5799 10
    endloop
  endfacet
  facet normal 0 0 1
    outer loop
      vertex 278.039 92.8686 10
      vertex 277.636 92.0159 10
      vertex 278.257 91.799 10
    endloop
  endfacet
  facet normal -0 0 1
    outer loop
      vertex 277.349 96.5733 10
      vertex 278.649 95.9033 10
      vertex 277.622 98.3608 10
    endloop
  endfacet
  facet normal 0 0 1
    outer loop
      vertex 279.16 93.3506 10
      vertex 279.56 91.5124 10
      vertex 280.736 91.1941 10
    endloop
  endfacet
  facet normal 0 0 1
    outer loop
      vertex 282.964 94.9133 10
      vertex 278.83 95.0253 10
      vertex 279.065 93.4995 10
    endloop
  endfacet
  facet normal 0 -0 1
    outer loop
      vertex 277.349 96.5733 10
      vertex 277.622 98.3608 10
      vertex 276.551 97.3663 10
    endloop
  endfacet
  facet normal 0 0 1
    outer loop
      vertex 278.649 95.9033 10
      vertex 280.008 99.6326 10
      vertex 279.456 99.528 10
    endloop
  endfacet
  facet normal 0 0 1
    outer loop
      vertex 283.24 96.249 10
      vertex 280.008 99.6326 10
      vertex 278.728 95.7936 10
    endloop
  endfacet
  facet normal 0 0 1
    outer loop
      vertex 282.964 94.9133 10
      vertex 278.728 95.7936 10
      vertex 278.838 95.1036 10
    endloop
  endfacet
  facet normal 0 0 1
    outer loop
      vertex 278.83 95.0253 10
      vertex 278.344 93.7845 10
      vertex 279.065 93.4995 10
    endloop
  endfacet
  facet normal 0 0 1
    outer loop
      vertex 279.16 93.3506 10
      vertex 279.059 93.2181 10
      vertex 279.56 91.5124 10
    endloop
  endfacet
  facet normal 0 0 1
    outer loop
      vertex 279.059 93.2181 10
      vertex 279.396 91.4969 10
      vertex 279.56 91.5124 10
    endloop
  endfacet
  facet normal 0 0 1
    outer loop
      vertex 283.044 94.7108 10
      vertex 282.964 94.9133 10
      vertex 279.16 93.3506 10
    endloop
  endfacet
  facet normal 0 0 1
    outer loop
      vertex 279.059 93.2181 10
      vertex 278.039 92.8686 10
      vertex 278.257 91.799 10
    endloop
  endfacet
  facet normal 0 0 1
    outer loop
      vertex 280.882 91.2064 10
      vertex 279.16 93.3506 10
      vertex 280.736 91.1941 10
    endloop
  endfacet
  facet normal 0 0 1
    outer loop
      vertex 278.257 91.799 10
      vertex 277.636 92.0159 10
      vertex 277.589 91.9589 10
    endloop
  endfacet
  facet normal 0 0 1
    outer loop
      vertex 278.257 91.799 10
      vertex 277.589 91.9589 10
      vertex 277.489 91.8859 10
    endloop
  endfacet
  facet normal 0 -0 1
    outer loop
      vertex 278.387 91.68 10
      vertex 279.059 93.2181 10
      vertex 278.257 91.799 10
    endloop
  endfacet
  facet normal 0 0 1
    outer loop
      vertex 278.517 91.1223 10
      vertex 278.387 91.68 10
      vertex 278.339 91.5372 10
    endloop
  endfacet
  facet normal 0 0 1
    outer loop
      vertex 279.396 91.4969 10
      vertex 279.059 93.2181 10
      vertex 278.387 91.68 10
    endloop
  endfacet
  facet normal 0 0 1
    outer loop
      vertex 279.396 91.4969 10
      vertex 278.387 91.68 10
      vertex 278.517 91.1223 10
    endloop
  endfacet
  facet normal 0 0 1
    outer loop
      vertex 278.339 91.5372 10
      vertex 278.045 91.2796 10
      vertex 278.517 91.1223 10
    endloop
  endfacet
  facet normal 0 0 1
    outer loop
      vertex 279.396 91.4969 10
      vertex 278.614 91.0223 10
      vertex 278.651 90.8974 10
    endloop
  endfacet
  facet normal 0 0 1
    outer loop
      vertex 279.396 91.4969 10
      vertex 278.517 91.1223 10
      vertex 278.614 91.0223 10
    endloop
  endfacet
  facet normal 0.0940929 -0.995563 0
    outer loop
      vertex 279.56 91.5124 0
      vertex 279.396 91.4969 10
      vertex 279.396 91.4969 0
    endloop
  endfacet
  facet normal 0.0940929 -0.995563 0
    outer loop
      vertex 279.56 91.5124 0
      vertex 279.56 91.5124 10
      vertex 279.396 91.4969 10
    endloop
  endfacet
  facet normal -0.469849 -0.882747 0
    outer loop
      vertex 280.18 91.1824 0
      vertex 279.56 91.5124 10
      vertex 279.56 91.5124 0
    endloop
  endfacet
  facet normal -0.469849 -0.882747 0
    outer loop
      vertex 280.18 91.1824 0
      vertex 280.18 91.1824 10
      vertex 279.56 91.5124 10
    endloop
  endfacet
  facet normal -0.739492 -0.673165 0
    outer loop
      vertex 280.248 91.1077 0
      vertex 280.18 91.1824 10
      vertex 280.18 91.1824 0
    endloop
  endfacet
  facet normal -0.739492 -0.673165 0
    outer loop
      vertex 280.248 91.1077 0
      vertex 280.248 91.1077 10
      vertex 280.18 91.1824 10
    endloop
  endfacet
  facet normal -0.921927 -0.387364 0
    outer loop
      vertex 280.328 90.9173 0
      vertex 280.248 91.1077 10
      vertex 280.248 91.1077 0
    endloop
  endfacet
  facet normal -0.921927 -0.387364 0
    outer loop
      vertex 280.328 90.9173 0
      vertex 280.328 90.9173 10
      vertex 280.248 91.1077 10
    endloop
  endfacet
  facet normal 0.561422 -0.82753 0
    outer loop
      vertex 280.736 91.1941 0
      vertex 280.328 90.9173 10
      vertex 280.328 90.9173 0
    endloop
  endfacet
  facet normal 0.561422 -0.82753 0
    outer loop
      vertex 280.736 91.1941 0
      vertex 280.736 91.1941 10
      vertex 280.328 90.9173 10
    endloop
  endfacet
  facet normal 0.0839492 -0.99647 0
    outer loop
      vertex 280.882 91.2064 0
      vertex 280.736 91.1941 10
      vertex 280.736 91.1941 0
    endloop
  endfacet
  facet normal 0.0839492 -0.99647 0
    outer loop
      vertex 280.882 91.2064 0
      vertex 280.882 91.2064 10
      vertex 280.736 91.1941 10
    endloop
  endfacet
  facet normal -0.416096 -0.909321 0
    outer loop
      vertex 281.297 91.0165 0
      vertex 280.882 91.2064 10
      vertex 280.882 91.2064 0
    endloop
  endfacet
  facet normal -0.416096 -0.909321 0
    outer loop
      vertex 281.297 91.0165 0
      vertex 281.297 91.0165 10
      vertex 280.882 91.2064 10
    endloop
  endfacet
  facet normal 0.983571 -0.180519 0
    outer loop
      vertex 281.332 91.2072 0
      vertex 281.297 91.0165 10
      vertex 281.297 91.0165 0
    endloop
  endfacet
  facet normal 0.983571 -0.180519 0
    outer loop
      vertex 281.332 91.2072 0
      vertex 281.332 91.2072 10
      vertex 281.297 91.0165 10
    endloop
  endfacet
  facet normal 0.892963 -0.450131 0
    outer loop
      vertex 281.369 91.2806 0
      vertex 281.332 91.2072 10
      vertex 281.332 91.2072 0
    endloop
  endfacet
  facet normal 0.892963 -0.450131 0
    outer loop
      vertex 281.369 91.2806 0
      vertex 281.369 91.2806 10
      vertex 281.332 91.2072 10
    endloop
  endfacet
  facet normal 0.741874 -0.67054 0
    outer loop
      vertex 282.309 92.3206 0
      vertex 281.369 91.2806 10
      vertex 281.369 91.2806 0
    endloop
  endfacet
  facet normal 0.741874 -0.67054 0
    outer loop
      vertex 282.309 92.3206 0
      vertex 282.309 92.3206 10
      vertex 281.369 91.2806 10
    endloop
  endfacet
  facet normal 0.421714 -0.906729 0
    outer loop
      vertex 282.415 92.3699 0
      vertex 282.309 92.3206 10
      vertex 282.309 92.3206 0
    endloop
  endfacet
  facet normal 0.421714 -0.906729 0
    outer loop
      vertex 282.415 92.3699 0
      vertex 282.415 92.3699 10
      vertex 282.309 92.3206 10
    endloop
  endfacet
  facet normal 0.0331682 -0.99945 0
    outer loop
      vertex 284.458 92.4377 0
      vertex 282.415 92.3699 10
      vertex 282.415 92.3699 0
    endloop
  endfacet
  facet normal 0.0331682 -0.99945 0
    outer loop
      vertex 284.458 92.4377 0
      vertex 284.458 92.4377 10
      vertex 282.415 92.3699 10
    endloop
  endfacet
  facet normal 0.764452 -0.644681 0
    outer loop
      vertex 285.077 93.1717 0
      vertex 284.458 92.4377 10
      vertex 284.458 92.4377 0
    endloop
  endfacet
  facet normal 0.764452 -0.644681 0
    outer loop
      vertex 285.077 93.1717 0
      vertex 285.077 93.1717 10
      vertex 284.458 92.4377 10
    endloop
  endfacet
  facet normal 0.709673 0.704531 0
    outer loop
      vertex 283.885 94.3724 0
      vertex 285.077 93.1717 10
      vertex 285.077 93.1717 0
    endloop
  endfacet
  facet normal 0.709673 0.704531 -0
    outer loop
      vertex 283.885 94.3724 0
      vertex 283.885 94.3724 10
      vertex 285.077 93.1717 10
    endloop
  endfacet
  facet normal 0.373292 0.927714 0
    outer loop
      vertex 283.044 94.7108 0
      vertex 283.885 94.3724 10
      vertex 283.885 94.3724 0
    endloop
  endfacet
  facet normal 0.373292 0.927714 -0
    outer loop
      vertex 283.044 94.7108 0
      vertex 283.044 94.7108 10
      vertex 283.885 94.3724 10
    endloop
  endfacet
  facet normal 0.930052 0.367428 0
    outer loop
      vertex 282.964 94.9133 0
      vertex 283.044 94.7108 10
      vertex 283.044 94.7108 0
    endloop
  endfacet
  facet normal 0.930052 0.367428 -0
    outer loop
      vertex 282.964 94.9133 0
      vertex 282.964 94.9133 10
      vertex 283.044 94.7108 10
    endloop
  endfacet
  facet normal 0.906256 -0.422728 0
    outer loop
      vertex 283.288 95.6079 0
      vertex 282.964 94.9133 10
      vertex 282.964 94.9133 0
    endloop
  endfacet
  facet normal 0.906256 -0.422728 0
    outer loop
      vertex 283.288 95.6079 0
      vertex 283.288 95.6079 10
      vertex 282.964 94.9133 10
    endloop
  endfacet
  facet normal 0.997209 0.0746623 0
    outer loop
      vertex 283.24 96.249 0
      vertex 283.288 95.6079 10
      vertex 283.288 95.6079 0
    endloop
  endfacet
  facet normal 0.997209 0.0746623 -0
    outer loop
      vertex 283.24 96.249 0
      vertex 283.24 96.249 10
      vertex 283.288 95.6079 10
    endloop
  endfacet
  facet normal 0.924508 -0.381163 0
    outer loop
      vertex 283.291 96.3727 0
      vertex 283.24 96.249 10
      vertex 283.24 96.249 0
    endloop
  endfacet
  facet normal 0.924508 -0.381163 0
    outer loop
      vertex 283.291 96.3727 0
      vertex 283.291 96.3727 10
      vertex 283.24 96.249 10
    endloop
  endfacet
  facet normal 0.65959 -0.751626 0
    outer loop
      vertex 284.271 97.2327 0
      vertex 283.291 96.3727 10
      vertex 283.291 96.3727 0
    endloop
  endfacet
  facet normal 0.65959 -0.751626 0
    outer loop
      vertex 284.271 97.2327 0
      vertex 284.271 97.2327 10
      vertex 283.291 96.3727 10
    endloop
  endfacet
  facet normal 0.49384 -0.869553 0
    outer loop
      vertex 284.324 97.2628 0
      vertex 284.271 97.2327 10
      vertex 284.271 97.2327 0
    endloop
  endfacet
  facet normal 0.49384 -0.869553 0
    outer loop
      vertex 284.324 97.2628 0
      vertex 284.324 97.2628 10
      vertex 284.271 97.2327 10
    endloop
  endfacet
  facet normal 0.306637 -0.951827 0
    outer loop
      vertex 285.502 97.6423 0
      vertex 284.324 97.2628 10
      vertex 284.324 97.2628 0
    endloop
  endfacet
  facet normal 0.306637 -0.951827 0
    outer loop
      vertex 285.502 97.6423 0
      vertex 285.502 97.6423 10
      vertex 284.324 97.2628 10
    endloop
  endfacet
  facet normal 0.687159 -0.726507 0
    outer loop
      vertex 287.317 99.359 0
      vertex 285.502 97.6423 10
      vertex 285.502 97.6423 0
    endloop
  endfacet
  facet normal 0.687159 -0.726507 0
    outer loop
      vertex 287.317 99.359 0
      vertex 287.317 99.359 10
      vertex 285.502 97.6423 10
    endloop
  endfacet
  facet normal 0.56202 -0.827124 0
    outer loop
      vertex 287.356 99.3855 0
      vertex 287.317 99.359 10
      vertex 287.317 99.359 0
    endloop
  endfacet
  facet normal 0.56202 -0.827124 0
    outer loop
      vertex 287.356 99.3855 0
      vertex 287.356 99.3855 10
      vertex 287.317 99.359 10
    endloop
  endfacet
  facet normal 0.429706 -0.902969 0
    outer loop
      vertex 288.094 99.7367 0
      vertex 287.356 99.3855 10
      vertex 287.356 99.3855 0
    endloop
  endfacet
  facet normal 0.429706 -0.902969 0
    outer loop
      vertex 288.094 99.7367 0
      vertex 288.094 99.7367 10
      vertex 287.356 99.3855 10
    endloop
  endfacet
  facet normal 0.999058 -0.0433964 0
    outer loop
      vertex 288.2 102.177 0
      vertex 288.094 99.7367 10
      vertex 288.094 99.7367 0
    endloop
  endfacet
  facet normal 0.999058 -0.0433964 0
    outer loop
      vertex 288.2 102.177 0
      vertex 288.2 102.177 10
      vertex 288.094 99.7367 10
    endloop
  endfacet
  facet normal 0.941742 -0.336336 0
    outer loop
      vertex 288.23 102.261 0
      vertex 288.2 102.177 10
      vertex 288.2 102.177 0
    endloop
  endfacet
  facet normal 0.941742 -0.336336 0
    outer loop
      vertex 288.23 102.261 0
      vertex 288.23 102.261 10
      vertex 288.2 102.177 10
    endloop
  endfacet
  facet normal 0.797258 -0.603638 0
    outer loop
      vertex 289.29 103.661 0
      vertex 288.23 102.261 10
      vertex 288.23 102.261 0
    endloop
  endfacet
  facet normal 0.797258 -0.603638 0
    outer loop
      vertex 289.29 103.661 0
      vertex 289.29 103.661 10
      vertex 288.23 102.261 10
    endloop
  endfacet
  facet normal 0.695795 -0.71824 0
    outer loop
      vertex 289.322 103.692 0
      vertex 289.29 103.661 10
      vertex 289.29 103.661 0
    endloop
  endfacet
  facet normal 0.695795 -0.71824 0
    outer loop
      vertex 289.322 103.692 0
      vertex 289.322 103.692 10
      vertex 289.29 103.661 10
    endloop
  endfacet
  facet normal 0.584305 -0.811534 0
    outer loop
      vertex 289.822 104.052 0
      vertex 289.322 103.692 10
      vertex 289.322 103.692 0
    endloop
  endfacet
  facet normal 0.584305 -0.811534 0
    outer loop
      vertex 289.822 104.052 0
      vertex 289.822 104.052 10
      vertex 289.322 103.692 10
    endloop
  endfacet
  facet normal 0.303204 -0.952926 0
    outer loop
      vertex 289.91 104.08 0
      vertex 289.822 104.052 10
      vertex 289.822 104.052 0
    endloop
  endfacet
  facet normal 0.303204 -0.952926 0
    outer loop
      vertex 289.91 104.08 0
      vertex 289.91 104.08 10
      vertex 289.822 104.052 10
    endloop
  endfacet
  facet normal 0 -1 0
    outer loop
      vertex 290.124 104.08 0
      vertex 289.91 104.08 10
      vertex 289.91 104.08 0
    endloop
  endfacet
  facet normal 0 -1 0
    outer loop
      vertex 290.124 104.08 0
      vertex 290.124 104.08 10
      vertex 289.91 104.08 10
    endloop
  endfacet
  facet normal 0.807243 0.590219 0
    outer loop
      vertex 289.319 105.181 0
      vertex 290.124 104.08 10
      vertex 290.124 104.08 0
    endloop
  endfacet
  facet normal 0.807243 0.590219 -0
    outer loop
      vertex 289.319 105.181 0
      vertex 289.319 105.181 10
      vertex 290.124 104.08 10
    endloop
  endfacet
  facet normal 0.942778 0.333421 0
    outer loop
      vertex 289.29 105.263 0
      vertex 289.319 105.181 10
      vertex 289.319 105.181 0
    endloop
  endfacet
  facet normal 0.942778 0.333421 -0
    outer loop
      vertex 289.29 105.263 0
      vertex 289.29 105.263 10
      vertex 289.319 105.181 10
    endloop
  endfacet
  facet normal 0.998929 0.0462719 0
    outer loop
      vertex 289.273 105.63 0
      vertex 289.29 105.263 10
      vertex 289.29 105.263 0
    endloop
  endfacet
  facet normal 0.998929 0.0462719 -0
    outer loop
      vertex 289.273 105.63 0
      vertex 289.273 105.63 10
      vertex 289.29 105.263 10
    endloop
  endfacet
  facet normal 0.582483 0.812843 0
    outer loop
      vertex 289.026 105.807 0
      vertex 289.273 105.63 10
      vertex 289.273 105.63 0
    endloop
  endfacet
  facet normal 0.582483 0.812843 -0
    outer loop
      vertex 289.026 105.807 0
      vertex 289.026 105.807 10
      vertex 289.273 105.63 10
    endloop
  endfacet
  facet normal -0.0614223 0.998112 0
    outer loop
      vertex 288.701 105.787 0
      vertex 289.026 105.807 10
      vertex 289.026 105.807 0
    endloop
  endfacet
  facet normal -0.0614223 0.998112 0
    outer loop
      vertex 288.701 105.787 0
      vertex 288.701 105.787 10
      vertex 289.026 105.807 10
    endloop
  endfacet
  facet normal -0.974369 0.224958 0
    outer loop
      vertex 288.366 104.336 0
      vertex 288.701 105.787 10
      vertex 288.701 105.787 0
    endloop
  endfacet
  facet normal -0.974369 0.224958 0
    outer loop
      vertex 288.366 104.336 0
      vertex 288.366 104.336 10
      vertex 288.701 105.787 10
    endloop
  endfacet
  facet normal -0.665441 0.746451 0
    outer loop
      vertex 288.237 104.221 0
      vertex 288.366 104.336 10
      vertex 288.366 104.336 0
    endloop
  endfacet
  facet normal -0.665441 0.746451 0
    outer loop
      vertex 288.237 104.221 0
      vertex 288.237 104.221 10
      vertex 288.366 104.336 10
    endloop
  endfacet
  facet normal -0.116045 0.993244 0
    outer loop
      vertex 287.441 104.128 0
      vertex 288.237 104.221 10
      vertex 288.237 104.221 0
    endloop
  endfacet
  facet normal -0.116045 0.993244 0
    outer loop
      vertex 287.441 104.128 0
      vertex 287.441 104.128 10
      vertex 288.237 104.221 10
    endloop
  endfacet
  facet normal -0.795466 0.605999 0
    outer loop
      vertex 286.619 103.049 0
      vertex 287.441 104.128 10
      vertex 287.441 104.128 0
    endloop
  endfacet
  facet normal -0.795466 0.605999 0
    outer loop
      vertex 286.619 103.049 0
      vertex 286.619 103.049 10
      vertex 287.441 104.128 10
    endloop
  endfacet
  facet normal -0.479421 0.877585 0
    outer loop
      vertex 286.511 102.99 0
      vertex 286.619 103.049 10
      vertex 286.619 103.049 0
    endloop
  endfacet
  facet normal -0.479421 0.877585 0
    outer loop
      vertex 286.511 102.99 0
      vertex 286.511 102.99 10
      vertex 286.619 103.049 10
    endloop
  endfacet
  facet normal -0.0762145 0.997091 0
    outer loop
      vertex 284.771 102.857 0
      vertex 286.511 102.99 10
      vertex 286.511 102.99 0
    endloop
  endfacet
  facet normal -0.0762145 0.997091 0
    outer loop
      vertex 284.771 102.857 0
      vertex 284.771 102.857 10
      vertex 286.511 102.99 10
    endloop
  endfacet
  facet normal -0.898824 -0.43831 0
    outer loop
      vertex 285.225 101.926 0
      vertex 284.771 102.857 10
      vertex 284.771 102.857 0
    endloop
  endfacet
  facet normal -0.898824 -0.43831 0
    outer loop
      vertex 285.225 101.926 0
      vertex 285.225 101.926 10
      vertex 284.771 102.857 10
    endloop
  endfacet
  facet normal -0.99997 -0.00769208 0
    outer loop
      vertex 285.226 101.796 0
      vertex 285.225 101.926 10
      vertex 285.225 101.926 0
    endloop
  endfacet
  facet normal -0.99997 -0.00769208 0
    outer loop
      vertex 285.226 101.796 0
      vertex 285.226 101.796 10
      vertex 285.225 101.926 10
    endloop
  endfacet
  facet normal -0.905129 0.425136 0
    outer loop
      vertex 284.916 101.136 0
      vertex 285.226 101.796 10
      vertex 285.226 101.796 0
    endloop
  endfacet
  facet normal -0.905129 0.425136 0
    outer loop
      vertex 284.916 101.136 0
      vertex 284.916 101.136 10
      vertex 285.226 101.796 10
    endloop
  endfacet
  facet normal -0.449378 0.893342 0
    outer loop
      vertex 284.751 101.053 0
      vertex 284.916 101.136 10
      vertex 284.916 101.136 0
    endloop
  endfacet
  facet normal -0.449378 0.893342 0
    outer loop
      vertex 284.751 101.053 0
      vertex 284.751 101.053 10
      vertex 284.916 101.136 10
    endloop
  endfacet
  facet normal 0.195243 0.980755 0
    outer loop
      vertex 282.591 101.483 0
      vertex 284.751 101.053 10
      vertex 284.751 101.053 0
    endloop
  endfacet
  facet normal 0.195243 0.980755 -0
    outer loop
      vertex 282.591 101.483 0
      vertex 282.591 101.483 10
      vertex 284.751 101.053 10
    endloop
  endfacet
  facet normal 0.513044 0.858362 0
    outer loop
      vertex 282.504 101.535 0
      vertex 282.591 101.483 10
      vertex 282.591 101.483 0
    endloop
  endfacet
  facet normal 0.513044 0.858362 -0
    outer loop
      vertex 282.504 101.535 0
      vertex 282.504 101.535 10
      vertex 282.591 101.483 10
    endloop
  endfacet
  facet normal 0.771477 0.636257 0
    outer loop
      vertex 281.977 102.174 0
      vertex 282.504 101.535 10
      vertex 282.504 101.535 0
    endloop
  endfacet
  facet normal 0.771477 0.636257 -0
    outer loop
      vertex 281.977 102.174 0
      vertex 281.977 102.174 10
      vertex 282.504 101.535 10
    endloop
  endfacet
  facet normal -0.521856 0.853034 0
    outer loop
      vertex 281.467 101.862 0
      vertex 281.977 102.174 10
      vertex 281.977 102.174 0
    endloop
  endfacet
  facet normal -0.521856 0.853034 0
    outer loop
      vertex 281.467 101.862 0
      vertex 281.467 101.862 10
      vertex 281.977 102.174 10
    endloop
  endfacet
  facet normal -0.958662 0.284546 0
    outer loop
      vertex 281.234 101.077 0
      vertex 281.467 101.862 10
      vertex 281.467 101.862 0
    endloop
  endfacet
  facet normal -0.958662 0.284546 0
    outer loop
      vertex 281.234 101.077 0
      vertex 281.234 101.077 10
      vertex 281.467 101.862 10
    endloop
  endfacet
  facet normal -0.884193 0.467121 0
    outer loop
      vertex 281.206 101.024 0
      vertex 281.234 101.077 10
      vertex 281.234 101.077 0
    endloop
  endfacet
  facet normal -0.884193 0.467121 0
    outer loop
      vertex 281.206 101.024 0
      vertex 281.206 101.024 10
      vertex 281.234 101.077 10
    endloop
  endfacet
  facet normal -0.770032 0.638005 0
    outer loop
      vertex 280.096 99.6843 0
      vertex 281.206 101.024 10
      vertex 281.206 101.024 0
    endloop
  endfacet
  facet normal -0.770032 0.638005 0
    outer loop
      vertex 280.096 99.6843 0
      vertex 280.096 99.6843 10
      vertex 281.206 101.024 10
    endloop
  endfacet
  facet normal -0.506549 0.862211 0
    outer loop
      vertex 280.008 99.6326 0
      vertex 280.096 99.6843 10
      vertex 280.096 99.6843 0
    endloop
  endfacet
  facet normal -0.506549 0.862211 0
    outer loop
      vertex 280.008 99.6326 0
      vertex 280.008 99.6326 10
      vertex 280.096 99.6843 10
    endloop
  endfacet
  facet normal -0.18618 0.982516 0
    outer loop
      vertex 279.456 99.528 0
      vertex 280.008 99.6326 10
      vertex 280.008 99.6326 0
    endloop
  endfacet
  facet normal -0.18618 0.982516 0
    outer loop
      vertex 279.456 99.528 0
      vertex 279.456 99.528 10
      vertex 280.008 99.6326 10
    endloop
  endfacet
  facet normal -0.536911 0.843639 0
    outer loop
      vertex 277.622 98.3608 0
      vertex 279.456 99.528 10
      vertex 279.456 99.528 0
    endloop
  endfacet
  facet normal -0.536911 0.843639 0
    outer loop
      vertex 277.622 98.3608 0
      vertex 277.622 98.3608 10
      vertex 279.456 99.528 10
    endloop
  endfacet
  facet normal -0.680451 0.732793 0
    outer loop
      vertex 276.551 97.3663 0
      vertex 277.622 98.3608 10
      vertex 277.622 98.3608 0
    endloop
  endfacet
  facet normal -0.680451 0.732793 0
    outer loop
      vertex 276.551 97.3663 0
      vertex 276.551 97.3663 10
      vertex 277.622 98.3608 10
    endloop
  endfacet
  facet normal -0.990352 0.138575 0
    outer loop
      vertex 276.491 96.9375 0
      vertex 276.551 97.3663 10
      vertex 276.551 97.3663 0
    endloop
  endfacet
  facet normal -0.990352 0.138575 0
    outer loop
      vertex 276.491 96.9375 0
      vertex 276.491 96.9375 10
      vertex 276.551 97.3663 10
    endloop
  endfacet
  facet normal -0.594548 -0.80406 0
    outer loop
      vertex 276.879 96.6506 0
      vertex 276.491 96.9375 10
      vertex 276.491 96.9375 0
    endloop
  endfacet
  facet normal -0.594548 -0.80406 0
    outer loop
      vertex 276.879 96.6506 0
      vertex 276.879 96.6506 10
      vertex 276.491 96.9375 10
    endloop
  endfacet
  facet normal -0.805571 -0.592499 0
    outer loop
      vertex 276.931 96.5799 0
      vertex 276.879 96.6506 10
      vertex 276.879 96.6506 0
    endloop
  endfacet
  facet normal -0.805571 -0.592499 0
    outer loop
      vertex 276.931 96.5799 0
      vertex 276.931 96.5799 10
      vertex 276.879 96.6506 10
    endloop
  endfacet
  facet normal -0.94279 -0.333388 0
    outer loop
      vertex 277.017 96.3367 0
      vertex 276.931 96.5799 10
      vertex 276.931 96.5799 0
    endloop
  endfacet
  facet normal -0.94279 -0.333388 0
    outer loop
      vertex 277.017 96.3367 0
      vertex 277.017 96.3367 10
      vertex 276.931 96.5799 10
    endloop
  endfacet
  facet normal 0.804593 -0.593827 0
    outer loop
      vertex 277.159 96.5291 0
      vertex 277.017 96.3367 10
      vertex 277.017 96.3367 0
    endloop
  endfacet
  facet normal 0.804593 -0.593827 0
    outer loop
      vertex 277.159 96.5291 0
      vertex 277.159 96.5291 10
      vertex 277.017 96.3367 10
    endloop
  endfacet
  facet normal 0.226581 -0.973992 0
    outer loop
      vertex 277.349 96.5733 0
      vertex 277.159 96.5291 10
      vertex 277.159 96.5291 0
    endloop
  endfacet
  facet normal 0.226581 -0.973992 0
    outer loop
      vertex 277.349 96.5733 0
      vertex 277.349 96.5733 10
      vertex 277.159 96.5291 10
    endloop
  endfacet
  facet normal -0.45812 -0.88889 0
    outer loop
      vertex 278.649 95.9033 0
      vertex 277.349 96.5733 10
      vertex 277.349 96.5733 0
    endloop
  endfacet
  facet normal -0.45812 -0.88889 0
    outer loop
      vertex 278.649 95.9033 0
      vertex 278.649 95.9033 10
      vertex 277.349 96.5733 10
    endloop
  endfacet
  facet normal -0.811478 -0.584383 0
    outer loop
      vertex 278.728 95.7936 0
      vertex 278.649 95.9033 10
      vertex 278.649 95.9033 0
    endloop
  endfacet
  facet normal -0.811478 -0.584383 0
    outer loop
      vertex 278.728 95.7936 0
      vertex 278.728 95.7936 10
      vertex 278.649 95.9033 10
    endloop
  endfacet
  facet normal -0.98753 -0.157432 0
    outer loop
      vertex 278.838 95.1036 0
      vertex 278.728 95.7936 10
      vertex 278.728 95.7936 0
    endloop
  endfacet
  facet normal -0.98753 -0.157432 0
    outer loop
      vertex 278.838 95.1036 0
      vertex 278.838 95.1036 10
      vertex 278.728 95.7936 10
    endloop
  endfacet
  facet normal -0.994821 0.101642 0
    outer loop
      vertex 278.83 95.0253 0
      vertex 278.838 95.1036 10
      vertex 278.838 95.1036 0
    endloop
  endfacet
  facet normal -0.994821 0.101642 0
    outer loop
      vertex 278.83 95.0253 0
      vertex 278.83 95.0253 10
      vertex 278.838 95.1036 10
    endloop
  endfacet
  facet normal -0.931123 0.364705 0
    outer loop
      vertex 278.344 93.7845 0
      vertex 278.83 95.0253 10
      vertex 278.83 95.0253 0
    endloop
  endfacet
  facet normal -0.931123 0.364705 0
    outer loop
      vertex 278.344 93.7845 0
      vertex 278.344 93.7845 10
      vertex 278.83 95.0253 10
    endloop
  endfacet
  facet normal -0.367607 -0.929981 0
    outer loop
      vertex 279.065 93.4995 0
      vertex 278.344 93.7845 10
      vertex 278.344 93.7845 0
    endloop
  endfacet
  facet normal -0.367607 -0.929981 0
    outer loop
      vertex 279.065 93.4995 0
      vertex 279.065 93.4995 10
      vertex 278.344 93.7845 10
    endloop
  endfacet
  facet normal -0.843031 -0.537864 0
    outer loop
      vertex 279.16 93.3506 0
      vertex 279.065 93.4995 10
      vertex 279.065 93.4995 0
    endloop
  endfacet
  facet normal -0.843031 -0.537864 0
    outer loop
      vertex 279.16 93.3506 0
      vertex 279.16 93.3506 10
      vertex 279.065 93.4995 10
    endloop
  endfacet
  facet normal -0.795294 0.606224 0
    outer loop
      vertex 279.059 93.2181 0
      vertex 279.16 93.3506 10
      vertex 279.16 93.3506 0
    endloop
  endfacet
  facet normal -0.795294 0.606224 0
    outer loop
      vertex 279.059 93.2181 0
      vertex 279.059 93.2181 10
      vertex 279.16 93.3506 10
    endloop
  endfacet
  facet normal -0.324146 0.946007 0
    outer loop
      vertex 278.039 92.8686 0
      vertex 279.059 93.2181 10
      vertex 279.059 93.2181 0
    endloop
  endfacet
  facet normal -0.324146 0.946007 0
    outer loop
      vertex 278.039 92.8686 0
      vertex 278.039 92.8686 10
      vertex 279.059 93.2181 10
    endloop
  endfacet
  facet normal -0.904111 0.427298 0
    outer loop
      vertex 277.636 92.0159 0
      vertex 278.039 92.8686 10
      vertex 278.039 92.8686 0
    endloop
  endfacet
  facet normal -0.904111 0.427298 0
    outer loop
      vertex 277.636 92.0159 0
      vertex 277.636 92.0159 10
      vertex 278.039 92.8686 10
    endloop
  endfacet
  facet normal -0.771539 0.636182 0
    outer loop
      vertex 277.589 91.9589 0
      vertex 277.636 92.0159 10
      vertex 277.636 92.0159 0
    endloop
  endfacet
  facet normal -0.771539 0.636182 0
    outer loop
      vertex 277.589 91.9589 0
      vertex 277.589 91.9589 10
      vertex 277.636 92.0159 10
    endloop
  endfacet
  facet normal -0.589612 0.807687 0
    outer loop
      vertex 277.489 91.8859 0
      vertex 277.589 91.9589 10
      vertex 277.589 91.9589 0
    endloop
  endfacet
  facet normal -0.589612 0.807687 0
    outer loop
      vertex 277.489 91.8859 0
      vertex 277.489 91.8859 10
      vertex 277.589 91.9589 10
    endloop
  endfacet
  facet normal -0.112434 -0.993659 0
    outer loop
      vertex 278.257 91.799 0
      vertex 277.489 91.8859 10
      vertex 277.489 91.8859 0
    endloop
  endfacet
  facet normal -0.112434 -0.993659 0
    outer loop
      vertex 278.257 91.799 0
      vertex 278.257 91.799 10
      vertex 277.489 91.8859 10
    endloop
  endfacet
  facet normal -0.675211 -0.737625 0
    outer loop
      vertex 278.387 91.68 0
      vertex 278.257 91.799 10
      vertex 278.257 91.799 0
    endloop
  endfacet
  facet normal -0.675211 -0.737625 0
    outer loop
      vertex 278.387 91.68 0
      vertex 278.387 91.68 10
      vertex 278.257 91.799 10
    endloop
  endfacet
  facet normal -0.947884 0.318616 0
    outer loop
      vertex 278.339 91.5372 0
      vertex 278.387 91.68 10
      vertex 278.387 91.68 0
    endloop
  endfacet
  facet normal -0.947884 0.318616 0
    outer loop
      vertex 278.339 91.5372 0
      vertex 278.339 91.5372 10
      vertex 278.387 91.68 10
    endloop
  endfacet
  facet normal -0.659012 0.752133 0
    outer loop
      vertex 278.045 91.2796 0
      vertex 278.339 91.5372 10
      vertex 278.339 91.5372 0
    endloop
  endfacet
  facet normal -0.659012 0.752133 0
    outer loop
      vertex 278.045 91.2796 0
      vertex 278.045 91.2796 10
      vertex 278.339 91.5372 10
    endloop
  endfacet
  facet normal -0.316167 -0.948703 0
    outer loop
      vertex 278.517 91.1223 0
      vertex 278.045 91.2796 10
      vertex 278.045 91.2796 0
    endloop
  endfacet
  facet normal -0.316167 -0.948703 0
    outer loop
      vertex 278.517 91.1223 0
      vertex 278.517 91.1223 10
      vertex 278.045 91.2796 10
    endloop
  endfacet
  facet normal -0.717792 -0.696258 0
    outer loop
      vertex 278.614 91.0223 0
      vertex 278.517 91.1223 10
      vertex 278.517 91.1223 0
    endloop
  endfacet
  facet normal -0.717792 -0.696258 0
    outer loop
      vertex 278.614 91.0223 0
      vertex 278.614 91.0223 10
      vertex 278.517 91.1223 10
    endloop
  endfacet
  facet normal -0.958814 -0.284036 0
    outer loop
      vertex 278.651 90.8974 0
      vertex 278.614 91.0223 10
      vertex 278.614 91.0223 0
    endloop
  endfacet
  facet normal -0.958814 -0.284036 0
    outer loop
      vertex 278.651 90.8974 0
      vertex 278.651 90.8974 10
      vertex 278.614 91.0223 10
    endloop
  endfacet
  facet normal 0.626924 -0.77908 0
    outer loop
      vertex 279.396 91.4969 0
      vertex 278.651 90.8974 10
      vertex 278.651 90.8974 0
    endloop
  endfacet
  facet normal 0.626924 -0.77908 0
    outer loop
      vertex 279.396 91.4969 0
      vertex 279.396 91.4969 10
      vertex 278.651 90.8974 10
    endloop
  endfacet
endsolid OpenSCAD_Model
