solid OpenSCAD_Model
  facet normal 0 0 -1
    outer loop
      vertex -19.905 93.4917 0
      vertex -19.4499 92.9917 0
      vertex -19.5818 93.0266 0
    endloop
  endfacet
  facet normal 0 -0 -1
    outer loop
      vertex -16.8175 90.2226 0
      vertex -16.6278 89.2022 0
      vertex -17.4329 88.7869 0
    endloop
  endfacet
  facet normal 0 0 -1
    outer loop
      vertex -19.4499 92.9917 0
      vertex -19.4525 94.3582 0
      vertex -19.1599 92.7317 0
    endloop
  endfacet
  facet normal 0 0 -1
    outer loop
      vertex -19.1228 92.5593 0
      vertex -19.4402 89.8279 0
      vertex -19.2786 92.4712 0
    endloop
  endfacet
  facet normal 0 -0 -1
    outer loop
      vertex -19.7287 94.1597 0
      vertex -19.4499 92.9917 0
      vertex -19.905 93.4917 0
    endloop
  endfacet
  facet normal 0 0 -1
    outer loop
      vertex -16.6554 90.7458 0
      vertex -16.4441 92.6257 0
      vertex -15.9141 91.8457 0
    endloop
  endfacet
  facet normal 0 0 -1
    outer loop
      vertex -16.6554 90.7458 0
      vertex -15.9141 91.8457 0
      vertex -15.7916 91.7855 0
    endloop
  endfacet
  facet normal 0 0 -1
    outer loop
      vertex -19.5015 97.4124 0
      vertex -19.4926 97.498 0
      vertex -16.858 96.2641 0
    endloop
  endfacet
  facet normal 0 0 -1
    outer loop
      vertex -20.6868 95.1663 0
      vertex -19.6071 94.6142 0
      vertex -19.9671 94.4342 0
    endloop
  endfacet
  facet normal 0 0 -1
    outer loop
      vertex -20.1915 95.7524 0
      vertex -19.5015 97.4124 0
      vertex -16.8824 96.0894 0
    endloop
  endfacet
  facet normal 0 -0 -1
    outer loop
      vertex -16.0724 94.5695 0
      vertex -16.0137 94.5094 0
      vertex -16.3062 93.5211 0
    endloop
  endfacet
  facet normal 0 0 -1
    outer loop
      vertex -19.3102 102.139 0
      vertex -18.0616 102.322 0
      vertex -19.1502 99.3385 0
    endloop
  endfacet
  facet normal 0 0 -1
    outer loop
      vertex -16.3062 93.5211 0
      vertex -16.0137 94.5094 0
      vertex -15.7621 94.3674 0
    endloop
  endfacet
  facet normal 0 0 -1
    outer loop
      vertex -15.5043 100.198 0
      vertex -18.0616 102.322 0
      vertex -16.4694 102.381 0
    endloop
  endfacet
  facet normal 0 0 -1
    outer loop
      vertex -16.8824 96.0894 0
      vertex -19.4331 94.5853 0
      vertex -20.1915 95.7524 0
    endloop
  endfacet
  facet normal 0 0 -1
    outer loop
      vertex -19.4926 97.498 0
      vertex -19.5659 97.8826 0
      vertex -15.7371 97.725 0
    endloop
  endfacet
  facet normal 0 0 -1
    outer loop
      vertex -15.7507 97.5309 0
      vertex -15.8874 96.366 0
      vertex -16.7597 96.3097 0
    endloop
  endfacet
  facet normal -0 0 -1
    outer loop
      vertex -15.5043 100.198 0
      vertex -15.5486 100.07 0
      vertex -18.0616 102.322 0
    endloop
  endfacet
  facet normal 0 -0 -1
    outer loop
      vertex -15.7507 97.5309 0
      vertex -15.6344 96.6269 0
      vertex -15.8874 96.366 0
    endloop
  endfacet
  facet normal 0 0 -1
    outer loop
      vertex -15.7507 97.5309 0
      vertex -15.484 97.1697 0
      vertex -15.6344 96.6269 0
    endloop
  endfacet
  facet normal 0 0 -1
    outer loop
      vertex -15.7371 97.725 0
      vertex -15.7507 97.5309 0
      vertex -16.7597 96.3097 0
    endloop
  endfacet
  facet normal -0 0 -1
    outer loop
      vertex -14.6867 102.019 0
      vertex -15.5043 100.198 0
      vertex -16.3583 102.411 0
    endloop
  endfacet
  facet normal 0 0 -1
    outer loop
      vertex -16.858 96.2641 0
      vertex -15.7371 97.725 0
      vertex -16.7597 96.3097 0
    endloop
  endfacet
  facet normal 0 0 -1
    outer loop
      vertex -15.7371 97.725 0
      vertex -15.5486 100.07 0
      vertex -15.2886 98.1824 0
    endloop
  endfacet
  facet normal 0 -0 -1
    outer loop
      vertex -15.8357 102.815 0
      vertex -14.6867 102.019 0
      vertex -16.3583 102.411 0
    endloop
  endfacet
  facet normal 0 0 -1
    outer loop
      vertex -15.5043 100.198 0
      vertex -14.6867 102.019 0
      vertex -14.5656 101.902 0
    endloop
  endfacet
  facet normal 0 0 -1
    outer loop
      vertex -14.5656 101.902 0
      vertex -14.1109 101.824 0
      vertex -14.0022 101.653 0
    endloop
  endfacet
  facet normal 0 0 -1
    outer loop
      vertex -15.5043 100.198 0
      vertex -14.5656 101.902 0
      vertex -14.0022 101.653 0
    endloop
  endfacet
  facet normal 0 0 -1
    outer loop
      vertex -15.8357 102.815 0
      vertex -14.834 102.712 0
      vertex -14.6867 102.019 0
    endloop
  endfacet
  facet normal 0 0 -1
    outer loop
      vertex -15.7371 97.725 0
      vertex -19.156 99.288 0
      vertex -15.5486 100.07 0
    endloop
  endfacet
  facet normal 0 -0 -1
    outer loop
      vertex -16.3583 102.411 0
      vertex -15.5043 100.198 0
      vertex -16.4694 102.381 0
    endloop
  endfacet
  facet normal -0 0 -1
    outer loop
      vertex -16.4694 102.381 0
      vertex -18.0616 102.322 0
      vertex -17.5791 102.526 0
    endloop
  endfacet
  facet normal 0 0 -1
    outer loop
      vertex -18.4077 102.641 0
      vertex -19.3858 102.74 0
      vertex -18.4096 102.796 0
    endloop
  endfacet
  facet normal 0 0 -1
    outer loop
      vertex -19.3102 102.139 0
      vertex -18.2477 102.381 0
      vertex -18.0616 102.322 0
    endloop
  endfacet
  facet normal 0 0 -1
    outer loop
      vertex -19.3778 102.255 0
      vertex -18.4077 102.641 0
      vertex -19.3102 102.139 0
    endloop
  endfacet
  facet normal 0 0 -1
    outer loop
      vertex -19.3778 102.255 0
      vertex -19.3858 102.74 0
      vertex -18.4077 102.641 0
    endloop
  endfacet
  facet normal 0 0 -1
    outer loop
      vertex -19.3778 102.255 0
      vertex -19.5587 102.374 0
      vertex -19.3858 102.74 0
    endloop
  endfacet
  facet normal 0 0 -1
    outer loop
      vertex -19.156 99.288 0
      vertex -19.1502 99.3385 0
      vertex -15.5486 100.07 0
    endloop
  endfacet
  facet normal 0 0 -1
    outer loop
      vertex -18.4096 102.796 0
      vertex -18.4078 103.251 0
      vertex -18.2525 103.065 0
    endloop
  endfacet
  facet normal -0 0 -1
    outer loop
      vertex -18.4096 102.796 0
      vertex -19.3858 102.74 0
      vertex -18.4078 103.251 0
    endloop
  endfacet
  facet normal 0 0 -1
    outer loop
      vertex -15.7371 97.725 0
      vertex -19.5659 97.8826 0
      vertex -19.156 99.288 0
    endloop
  endfacet
  facet normal 0 0 -1
    outer loop
      vertex -19.3102 102.139 0
      vertex -18.4077 102.641 0
      vertex -18.2477 102.381 0
    endloop
  endfacet
  facet normal 0 0 -1
    outer loop
      vertex -19.1502 99.3385 0
      vertex -18.0616 102.322 0
      vertex -15.5486 100.07 0
    endloop
  endfacet
  facet normal 0 0 -1
    outer loop
      vertex -16.858 96.2641 0
      vertex -19.4926 97.498 0
      vertex -15.7371 97.725 0
    endloop
  endfacet
  facet normal 0 0 -1
    outer loop
      vertex -16.8824 96.0894 0
      vertex -19.5015 97.4124 0
      vertex -16.858 96.2641 0
    endloop
  endfacet
  facet normal -0 0 -1
    outer loop
      vertex -16.0724 94.5695 0
      vertex -16.3062 93.5211 0
      vertex -19.4331 94.5853 0
    endloop
  endfacet
  facet normal 0 0 -1
    outer loop
      vertex -20.0335 94.3684 0
      vertex -20.3935 93.6664 0
      vertex -20.8789 93.647 0
    endloop
  endfacet
  facet normal 0 -0 -1
    outer loop
      vertex -20.6868 95.1663 0
      vertex -20.0335 94.3684 0
      vertex -20.8789 93.647 0
    endloop
  endfacet
  facet normal 0 0 -1
    outer loop
      vertex -19.4525 94.3582 0
      vertex -16.3062 93.5211 0
      vertex -16.3273 93.4682 0
    endloop
  endfacet
  facet normal 0 0 -1
    outer loop
      vertex -20.3454 92.8606 0
      vertex -19.984 93.3953 0
      vertex -19.5818 93.0266 0
    endloop
  endfacet
  facet normal 0 0 -1
    outer loop
      vertex -19.1228 92.5593 0
      vertex -16.4673 92.7383 0
      vertex -16.4441 92.6257 0
    endloop
  endfacet
  facet normal 0 -0 -1
    outer loop
      vertex -19.4331 94.5853 0
      vertex -16.3062 93.5211 0
      vertex -19.4525 94.3582 0
    endloop
  endfacet
  facet normal 0 0 -1
    outer loop
      vertex -20.0335 94.3684 0
      vertex -20.6868 95.1663 0
      vertex -19.9671 94.4342 0
    endloop
  endfacet
  facet normal 0 0 -1
    outer loop
      vertex -19.6071 94.6142 0
      vertex -20.2164 95.7121 0
      vertex -20.1915 95.7524 0
    endloop
  endfacet
  facet normal 0 0 -1
    outer loop
      vertex -20.6868 95.1663 0
      vertex -20.2164 95.7121 0
      vertex -19.6071 94.6142 0
    endloop
  endfacet
  facet normal 0 0 -1
    outer loop
      vertex -19.4331 94.5853 0
      vertex -19.6071 94.6142 0
      vertex -20.1915 95.7524 0
    endloop
  endfacet
  facet normal 0 0 -1
    outer loop
      vertex -16.0724 94.5695 0
      vertex -19.4331 94.5853 0
      vertex -16.8824 96.0894 0
    endloop
  endfacet
  facet normal 0 0 -1
    outer loop
      vertex -19.7287 94.1597 0
      vertex -19.4525 94.3582 0
      vertex -19.4499 92.9917 0
    endloop
  endfacet
  facet normal 0 -0 -1
    outer loop
      vertex -19.905 93.4917 0
      vertex -19.5818 93.0266 0
      vertex -19.984 93.3953 0
    endloop
  endfacet
  facet normal 0 0 -1
    outer loop
      vertex -19.984 93.3953 0
      vertex -20.3454 92.8606 0
      vertex -20.3954 93.1936 0
    endloop
  endfacet
  facet normal 0 0 -1
    outer loop
      vertex -16.6826 90.6964 0
      vertex -19.1228 92.5593 0
      vertex -16.6554 90.7458 0
    endloop
  endfacet
  facet normal -0 0 -1
    outer loop
      vertex -16.6826 90.6964 0
      vertex -19.4402 89.8279 0
      vertex -19.1228 92.5593 0
    endloop
  endfacet
  facet normal -0 0 -1
    outer loop
      vertex -16.3273 93.4682 0
      vertex -19.1599 92.7317 0
      vertex -19.4525 94.3582 0
    endloop
  endfacet
  facet normal 0 0 -1
    outer loop
      vertex -19.1599 92.7317 0
      vertex -16.4673 92.7383 0
      vertex -19.1228 92.5593 0
    endloop
  endfacet
  facet normal 0 0 -1
    outer loop
      vertex -16.3273 93.4682 0
      vertex -16.4673 92.7383 0
      vertex -19.1599 92.7317 0
    endloop
  endfacet
  facet normal 0 0 -1
    outer loop
      vertex -19.1228 92.5593 0
      vertex -16.4441 92.6257 0
      vertex -16.6554 90.7458 0
    endloop
  endfacet
  facet normal -0 0 -1
    outer loop
      vertex -16.8127 90.2964 0
      vertex -19.4402 89.8279 0
      vertex -16.6826 90.6964 0
    endloop
  endfacet
  facet normal 0 0 -1
    outer loop
      vertex -16.8127 90.2964 0
      vertex -16.8175 90.2226 0
      vertex -19.4402 89.8279 0
    endloop
  endfacet
  facet normal 0 0 -1
    outer loop
      vertex -19.5808 92.5089 0
      vertex -19.2786 92.4712 0
      vertex -19.4402 89.8279 0
    endloop
  endfacet
  facet normal 0 0 -1
    outer loop
      vertex -19.4493 89.768 0
      vertex -19.4402 89.8279 0
      vertex -19.0822 89.0974 0
    endloop
  endfacet
  facet normal 0 0 -1
    outer loop
      vertex -19.149 89.0948 0
      vertex -19.4493 89.768 0
      vertex -19.0822 89.0974 0
    endloop
  endfacet
  facet normal -0 0 -1
    outer loop
      vertex -19.149 89.0948 0
      vertex -19.7587 88.9304 0
      vertex -19.4493 89.768 0
    endloop
  endfacet
  facet normal 0 0 -1
    outer loop
      vertex -17.4329 88.7869 0
      vertex -19.0822 89.0974 0
      vertex -16.8175 90.2226 0
    endloop
  endfacet
  facet normal 0 0 -1
    outer loop
      vertex -19.0822 89.0974 0
      vertex -19.4402 89.8279 0
      vertex -16.8175 90.2226 0
    endloop
  endfacet
  facet normal -0 -0 1
    outer loop
      vertex -19.5818 93.0266 10
      vertex -19.4499 92.9917 10
      vertex -19.905 93.4917 10
    endloop
  endfacet
  facet normal 0 0 1
    outer loop
      vertex -17.4329 88.7869 10
      vertex -16.6278 89.2022 10
      vertex -16.8175 90.2226 10
    endloop
  endfacet
  facet normal 0 0 1
    outer loop
      vertex -19.1599 92.7317 10
      vertex -19.4525 94.3582 10
      vertex -19.4499 92.9917 10
    endloop
  endfacet
  facet normal -0 0 1
    outer loop
      vertex -19.2786 92.4712 10
      vertex -19.4402 89.8279 10
      vertex -19.1228 92.5593 10
    endloop
  endfacet
  facet normal -0 0 1
    outer loop
      vertex -19.905 93.4917 10
      vertex -19.4499 92.9917 10
      vertex -19.7287 94.1597 10
    endloop
  endfacet
  facet normal 0 0 1
    outer loop
      vertex -15.9141 91.8457 10
      vertex -16.4441 92.6257 10
      vertex -16.6554 90.7458 10
    endloop
  endfacet
  facet normal 0 0 1
    outer loop
      vertex -15.7916 91.7855 10
      vertex -15.9141 91.8457 10
      vertex -16.6554 90.7458 10
    endloop
  endfacet
  facet normal 0 0 1
    outer loop
      vertex -16.858 96.2641 10
      vertex -19.4926 97.498 10
      vertex -19.5015 97.4124 10
    endloop
  endfacet
  facet normal 0 -0 1
    outer loop
      vertex -19.9671 94.4342 10
      vertex -19.6071 94.6142 10
      vertex -20.6868 95.1663 10
    endloop
  endfacet
  facet normal 0 0 1
    outer loop
      vertex -16.8824 96.0894 10
      vertex -19.5015 97.4124 10
      vertex -20.1915 95.7524 10
    endloop
  endfacet
  facet normal 0 0 1
    outer loop
      vertex -16.3062 93.5211 10
      vertex -16.0137 94.5094 10
      vertex -16.0724 94.5695 10
    endloop
  endfacet
  facet normal 0 -0 1
    outer loop
      vertex -19.1502 99.3385 10
      vertex -18.0616 102.322 10
      vertex -19.3102 102.139 10
    endloop
  endfacet
  facet normal 0 0 1
    outer loop
      vertex -15.7621 94.3674 10
      vertex -16.0137 94.5094 10
      vertex -16.3062 93.5211 10
    endloop
  endfacet
  facet normal 0 0 1
    outer loop
      vertex -16.4694 102.381 10
      vertex -18.0616 102.322 10
      vertex -15.5043 100.198 10
    endloop
  endfacet
  facet normal -0 0 1
    outer loop
      vertex -20.1915 95.7524 10
      vertex -19.4331 94.5853 10
      vertex -16.8824 96.0894 10
    endloop
  endfacet
  facet normal 0 0 1
    outer loop
      vertex -15.7371 97.725 10
      vertex -19.5659 97.8826 10
      vertex -19.4926 97.498 10
    endloop
  endfacet
  facet normal 0 0 1
    outer loop
      vertex -16.7597 96.3097 10
      vertex -15.8874 96.366 10
      vertex -15.7507 97.5309 10
    endloop
  endfacet
  facet normal 0 0 1
    outer loop
      vertex -18.0616 102.322 10
      vertex -15.5486 100.07 10
      vertex -15.5043 100.198 10
    endloop
  endfacet
  facet normal 0 0 1
    outer loop
      vertex -15.8874 96.366 10
      vertex -15.6344 96.6269 10
      vertex -15.7507 97.5309 10
    endloop
  endfacet
  facet normal 0 -0 1
    outer loop
      vertex -15.6344 96.6269 10
      vertex -15.484 97.1697 10
      vertex -15.7507 97.5309 10
    endloop
  endfacet
  facet normal 0 0 1
    outer loop
      vertex -16.7597 96.3097 10
      vertex -15.7507 97.5309 10
      vertex -15.7371 97.725 10
    endloop
  endfacet
  facet normal 0 0 1
    outer loop
      vertex -16.3583 102.411 10
      vertex -15.5043 100.198 10
      vertex -14.6867 102.019 10
    endloop
  endfacet
  facet normal 0 -0 1
    outer loop
      vertex -16.7597 96.3097 10
      vertex -15.7371 97.725 10
      vertex -16.858 96.2641 10
    endloop
  endfacet
  facet normal 0 0 1
    outer loop
      vertex -15.2886 98.1824 10
      vertex -15.5486 100.07 10
      vertex -15.7371 97.725 10
    endloop
  endfacet
  facet normal -0 0 1
    outer loop
      vertex -16.3583 102.411 10
      vertex -14.6867 102.019 10
      vertex -15.8357 102.815 10
    endloop
  endfacet
  facet normal 0 0 1
    outer loop
      vertex -14.5656 101.902 10
      vertex -14.6867 102.019 10
      vertex -15.5043 100.198 10
    endloop
  endfacet
  facet normal 0 0 1
    outer loop
      vertex -14.0022 101.653 10
      vertex -14.1109 101.824 10
      vertex -14.5656 101.902 10
    endloop
  endfacet
  facet normal 0 0 1
    outer loop
      vertex -14.0022 101.653 10
      vertex -14.5656 101.902 10
      vertex -15.5043 100.198 10
    endloop
  endfacet
  facet normal 0 0 1
    outer loop
      vertex -14.6867 102.019 10
      vertex -14.834 102.712 10
      vertex -15.8357 102.815 10
    endloop
  endfacet
  facet normal 0 0 1
    outer loop
      vertex -15.5486 100.07 10
      vertex -19.156 99.288 10
      vertex -15.7371 97.725 10
    endloop
  endfacet
  facet normal -0 0 1
    outer loop
      vertex -16.4694 102.381 10
      vertex -15.5043 100.198 10
      vertex -16.3583 102.411 10
    endloop
  endfacet
  facet normal 0 0 1
    outer loop
      vertex -17.5791 102.526 10
      vertex -18.0616 102.322 10
      vertex -16.4694 102.381 10
    endloop
  endfacet
  facet normal 0 0 1
    outer loop
      vertex -18.4096 102.796 10
      vertex -19.3858 102.74 10
      vertex -18.4077 102.641 10
    endloop
  endfacet
  facet normal 0 0 1
    outer loop
      vertex -18.0616 102.322 10
      vertex -18.2477 102.381 10
      vertex -19.3102 102.139 10
    endloop
  endfacet
  facet normal 0 -0 1
    outer loop
      vertex -19.3102 102.139 10
      vertex -18.4077 102.641 10
      vertex -19.3778 102.255 10
    endloop
  endfacet
  facet normal 0 0 1
    outer loop
      vertex -18.4077 102.641 10
      vertex -19.3858 102.74 10
      vertex -19.3778 102.255 10
    endloop
  endfacet
  facet normal 0 0 1
    outer loop
      vertex -19.3858 102.74 10
      vertex -19.5587 102.374 10
      vertex -19.3778 102.255 10
    endloop
  endfacet
  facet normal 0 0 1
    outer loop
      vertex -15.5486 100.07 10
      vertex -19.1502 99.3385 10
      vertex -19.156 99.288 10
    endloop
  endfacet
  facet normal 0 0 1
    outer loop
      vertex -18.2525 103.065 10
      vertex -18.4078 103.251 10
      vertex -18.4096 102.796 10
    endloop
  endfacet
  facet normal 0 0 1
    outer loop
      vertex -18.4078 103.251 10
      vertex -19.3858 102.74 10
      vertex -18.4096 102.796 10
    endloop
  endfacet
  facet normal 0 0 1
    outer loop
      vertex -19.156 99.288 10
      vertex -19.5659 97.8826 10
      vertex -15.7371 97.725 10
    endloop
  endfacet
  facet normal 0 0 1
    outer loop
      vertex -18.2477 102.381 10
      vertex -18.4077 102.641 10
      vertex -19.3102 102.139 10
    endloop
  endfacet
  facet normal 0 0 1
    outer loop
      vertex -15.5486 100.07 10
      vertex -18.0616 102.322 10
      vertex -19.1502 99.3385 10
    endloop
  endfacet
  facet normal 0 0 1
    outer loop
      vertex -15.7371 97.725 10
      vertex -19.4926 97.498 10
      vertex -16.858 96.2641 10
    endloop
  endfacet
  facet normal 0 0 1
    outer loop
      vertex -16.858 96.2641 10
      vertex -19.5015 97.4124 10
      vertex -16.8824 96.0894 10
    endloop
  endfacet
  facet normal 0 0 1
    outer loop
      vertex -19.4331 94.5853 10
      vertex -16.3062 93.5211 10
      vertex -16.0724 94.5695 10
    endloop
  endfacet
  facet normal 0 0 1
    outer loop
      vertex -20.8789 93.647 10
      vertex -20.3935 93.6664 10
      vertex -20.0335 94.3684 10
    endloop
  endfacet
  facet normal 0 0 1
    outer loop
      vertex -20.8789 93.647 10
      vertex -20.0335 94.3684 10
      vertex -20.6868 95.1663 10
    endloop
  endfacet
  facet normal 0 -0 1
    outer loop
      vertex -16.3273 93.4682 10
      vertex -16.3062 93.5211 10
      vertex -19.4525 94.3582 10
    endloop
  endfacet
  facet normal 0 0 1
    outer loop
      vertex -19.5818 93.0266 10
      vertex -19.984 93.3953 10
      vertex -20.3454 92.8606 10
    endloop
  endfacet
  facet normal 0 0 1
    outer loop
      vertex -16.4441 92.6257 10
      vertex -16.4673 92.7383 10
      vertex -19.1228 92.5593 10
    endloop
  endfacet
  facet normal -0 0 1
    outer loop
      vertex -19.4525 94.3582 10
      vertex -16.3062 93.5211 10
      vertex -19.4331 94.5853 10
    endloop
  endfacet
  facet normal 0 0 1
    outer loop
      vertex -19.9671 94.4342 10
      vertex -20.6868 95.1663 10
      vertex -20.0335 94.3684 10
    endloop
  endfacet
  facet normal 0 0 1
    outer loop
      vertex -20.1915 95.7524 10
      vertex -20.2164 95.7121 10
      vertex -19.6071 94.6142 10
    endloop
  endfacet
  facet normal 0 0 1
    outer loop
      vertex -19.6071 94.6142 10
      vertex -20.2164 95.7121 10
      vertex -20.6868 95.1663 10
    endloop
  endfacet
  facet normal 0 0 1
    outer loop
      vertex -20.1915 95.7524 10
      vertex -19.6071 94.6142 10
      vertex -19.4331 94.5853 10
    endloop
  endfacet
  facet normal 0 0 1
    outer loop
      vertex -16.8824 96.0894 10
      vertex -19.4331 94.5853 10
      vertex -16.0724 94.5695 10
    endloop
  endfacet
  facet normal 0 0 1
    outer loop
      vertex -19.4499 92.9917 10
      vertex -19.4525 94.3582 10
      vertex -19.7287 94.1597 10
    endloop
  endfacet
  facet normal -0 0 1
    outer loop
      vertex -19.984 93.3953 10
      vertex -19.5818 93.0266 10
      vertex -19.905 93.4917 10
    endloop
  endfacet
  facet normal -0 0 1
    outer loop
      vertex -20.3954 93.1936 10
      vertex -20.3454 92.8606 10
      vertex -19.984 93.3953 10
    endloop
  endfacet
  facet normal 0 0 1
    outer loop
      vertex -16.6554 90.7458 10
      vertex -19.1228 92.5593 10
      vertex -16.6826 90.6964 10
    endloop
  endfacet
  facet normal 0 0 1
    outer loop
      vertex -19.1228 92.5593 10
      vertex -19.4402 89.8279 10
      vertex -16.6826 90.6964 10
    endloop
  endfacet
  facet normal 0 0 1
    outer loop
      vertex -19.4525 94.3582 10
      vertex -19.1599 92.7317 10
      vertex -16.3273 93.4682 10
    endloop
  endfacet
  facet normal 0 -0 1
    outer loop
      vertex -19.1228 92.5593 10
      vertex -16.4673 92.7383 10
      vertex -19.1599 92.7317 10
    endloop
  endfacet
  facet normal 0 0 1
    outer loop
      vertex -19.1599 92.7317 10
      vertex -16.4673 92.7383 10
      vertex -16.3273 93.4682 10
    endloop
  endfacet
  facet normal 0 -0 1
    outer loop
      vertex -16.6554 90.7458 10
      vertex -16.4441 92.6257 10
      vertex -19.1228 92.5593 10
    endloop
  endfacet
  facet normal 0 0 1
    outer loop
      vertex -16.6826 90.6964 10
      vertex -19.4402 89.8279 10
      vertex -16.8127 90.2964 10
    endloop
  endfacet
  facet normal 0 0 1
    outer loop
      vertex -19.4402 89.8279 10
      vertex -16.8175 90.2226 10
      vertex -16.8127 90.2964 10
    endloop
  endfacet
  facet normal 0 -0 1
    outer loop
      vertex -19.4402 89.8279 10
      vertex -19.2786 92.4712 10
      vertex -19.5808 92.5089 10
    endloop
  endfacet
  facet normal 0 0 1
    outer loop
      vertex -19.0822 89.0974 10
      vertex -19.4402 89.8279 10
      vertex -19.4493 89.768 10
    endloop
  endfacet
  facet normal 0 0 1
    outer loop
      vertex -19.0822 89.0974 10
      vertex -19.4493 89.768 10
      vertex -19.149 89.0948 10
    endloop
  endfacet
  facet normal 0 0 1
    outer loop
      vertex -19.4493 89.768 10
      vertex -19.7587 88.9304 10
      vertex -19.149 89.0948 10
    endloop
  endfacet
  facet normal 0 0 1
    outer loop
      vertex -16.8175 90.2226 10
      vertex -19.0822 89.0974 10
      vertex -17.4329 88.7869 10
    endloop
  endfacet
  facet normal 0 0 1
    outer loop
      vertex -16.8175 90.2226 10
      vertex -19.4402 89.8279 10
      vertex -19.0822 89.0974 10
    endloop
  endfacet
  facet normal 0.983155 0.182776 0
    outer loop
      vertex -16.8175 90.2226 0
      vertex -16.6278 89.2022 10
      vertex -16.6278 89.2022 0
    endloop
  endfacet
  facet normal 0.983155 0.182776 -0
    outer loop
      vertex -16.8175 90.2226 0
      vertex -16.8175 90.2226 10
      vertex -16.6278 89.2022 10
    endloop
  endfacet
  facet normal 0.997892 -0.0649035 0
    outer loop
      vertex -16.8127 90.2964 0
      vertex -16.8175 90.2226 10
      vertex -16.8175 90.2226 0
    endloop
  endfacet
  facet normal 0.997892 -0.0649035 0
    outer loop
      vertex -16.8127 90.2964 0
      vertex -16.8127 90.2964 10
      vertex -16.8175 90.2226 10
    endloop
  endfacet
  facet normal 0.950964 -0.309301 0
    outer loop
      vertex -16.6826 90.6964 0
      vertex -16.8127 90.2964 10
      vertex -16.8127 90.2964 0
    endloop
  endfacet
  facet normal 0.950964 -0.309301 0
    outer loop
      vertex -16.6826 90.6964 0
      vertex -16.6826 90.6964 10
      vertex -16.8127 90.2964 10
    endloop
  endfacet
  facet normal 0.875991 -0.482327 0
    outer loop
      vertex -16.6554 90.7458 0
      vertex -16.6826 90.6964 10
      vertex -16.6826 90.6964 0
    endloop
  endfacet
  facet normal 0.875991 -0.482327 0
    outer loop
      vertex -16.6554 90.7458 0
      vertex -16.6554 90.7458 10
      vertex -16.6826 90.6964 10
    endloop
  endfacet
  facet normal 0.769172 -0.639041 0
    outer loop
      vertex -15.7916 91.7855 0
      vertex -16.6554 90.7458 10
      vertex -16.6554 90.7458 0
    endloop
  endfacet
  facet normal 0.769172 -0.639041 0
    outer loop
      vertex -15.7916 91.7855 0
      vertex -15.7916 91.7855 10
      vertex -16.6554 90.7458 10
    endloop
  endfacet
  facet normal 0.441049 0.897483 0
    outer loop
      vertex -15.9141 91.8457 0
      vertex -15.7916 91.7855 10
      vertex -15.7916 91.7855 0
    endloop
  endfacet
  facet normal 0.441049 0.897483 -0
    outer loop
      vertex -15.9141 91.8457 0
      vertex -15.9141 91.8457 10
      vertex -15.7916 91.7855 10
    endloop
  endfacet
  facet normal 0.827124 0.56202 0
    outer loop
      vertex -16.4441 92.6257 0
      vertex -15.9141 91.8457 10
      vertex -15.9141 91.8457 0
    endloop
  endfacet
  facet normal 0.827124 0.56202 -0
    outer loop
      vertex -16.4441 92.6257 0
      vertex -16.4441 92.6257 10
      vertex -15.9141 91.8457 10
    endloop
  endfacet
  facet normal 0.979427 0.2018 0
    outer loop
      vertex -16.4673 92.7383 0
      vertex -16.4441 92.6257 10
      vertex -16.4441 92.6257 0
    endloop
  endfacet
  facet normal 0.979427 0.2018 -0
    outer loop
      vertex -16.4673 92.7383 0
      vertex -16.4673 92.7383 10
      vertex -16.4441 92.6257 10
    endloop
  endfacet
  facet normal 0.982098 -0.188373 0
    outer loop
      vertex -16.3273 93.4682 0
      vertex -16.4673 92.7383 10
      vertex -16.4673 92.7383 0
    endloop
  endfacet
  facet normal 0.982098 -0.188373 0
    outer loop
      vertex -16.3273 93.4682 0
      vertex -16.3273 93.4682 10
      vertex -16.4673 92.7383 10
    endloop
  endfacet
  facet normal 0.92884 -0.370482 0
    outer loop
      vertex -16.3062 93.5211 0
      vertex -16.3273 93.4682 10
      vertex -16.3273 93.4682 0
    endloop
  endfacet
  facet normal 0.92884 -0.370482 0
    outer loop
      vertex -16.3062 93.5211 0
      vertex -16.3062 93.5211 10
      vertex -16.3273 93.4682 10
    endloop
  endfacet
  facet normal 0.841156 -0.540793 0
    outer loop
      vertex -15.7621 94.3674 0
      vertex -16.3062 93.5211 10
      vertex -16.3062 93.5211 0
    endloop
  endfacet
  facet normal 0.841156 -0.540793 0
    outer loop
      vertex -15.7621 94.3674 0
      vertex -15.7621 94.3674 10
      vertex -16.3062 93.5211 10
    endloop
  endfacet
  facet normal 0.49151 0.870872 0
    outer loop
      vertex -16.0137 94.5094 0
      vertex -15.7621 94.3674 10
      vertex -15.7621 94.3674 0
    endloop
  endfacet
  facet normal 0.49151 0.870872 -0
    outer loop
      vertex -16.0137 94.5094 0
      vertex -16.0137 94.5094 10
      vertex -15.7621 94.3674 10
    endloop
  endfacet
  facet normal 0.71539 0.698725 0
    outer loop
      vertex -16.0724 94.5695 0
      vertex -16.0137 94.5094 10
      vertex -16.0137 94.5094 0
    endloop
  endfacet
  facet normal 0.71539 0.698725 -0
    outer loop
      vertex -16.0724 94.5695 0
      vertex -16.0724 94.5695 10
      vertex -16.0137 94.5094 10
    endloop
  endfacet
  facet normal 0.882501 0.470311 0
    outer loop
      vertex -16.8824 96.0894 0
      vertex -16.0724 94.5695 10
      vertex -16.0724 94.5695 0
    endloop
  endfacet
  facet normal 0.882501 0.470311 -0
    outer loop
      vertex -16.8824 96.0894 0
      vertex -16.8824 96.0894 10
      vertex -16.0724 94.5695 10
    endloop
  endfacet
  facet normal 0.990387 -0.138325 0
    outer loop
      vertex -16.858 96.2641 0
      vertex -16.8824 96.0894 10
      vertex -16.8824 96.0894 0
    endloop
  endfacet
  facet normal 0.990387 -0.138325 0
    outer loop
      vertex -16.858 96.2641 0
      vertex -16.858 96.2641 10
      vertex -16.8824 96.0894 10
    endloop
  endfacet
  facet normal 0.420813 -0.907147 0
    outer loop
      vertex -16.7597 96.3097 0
      vertex -16.858 96.2641 10
      vertex -16.858 96.2641 0
    endloop
  endfacet
  facet normal 0.420813 -0.907147 0
    outer loop
      vertex -16.7597 96.3097 0
      vertex -16.7597 96.3097 10
      vertex -16.858 96.2641 10
    endloop
  endfacet
  facet normal 0.064408 -0.997924 0
    outer loop
      vertex -15.8874 96.366 0
      vertex -16.7597 96.3097 10
      vertex -16.7597 96.3097 0
    endloop
  endfacet
  facet normal 0.064408 -0.997924 0
    outer loop
      vertex -15.8874 96.366 0
      vertex -15.8874 96.366 10
      vertex -16.7597 96.3097 10
    endloop
  endfacet
  facet normal 0.717892 -0.696154 0
    outer loop
      vertex -15.6344 96.6269 0
      vertex -15.8874 96.366 10
      vertex -15.8874 96.366 0
    endloop
  endfacet
  facet normal 0.717892 -0.696154 0
    outer loop
      vertex -15.6344 96.6269 0
      vertex -15.6344 96.6269 10
      vertex -15.8874 96.366 10
    endloop
  endfacet
  facet normal 0.963691 -0.267021 0
    outer loop
      vertex -15.484 97.1697 0
      vertex -15.6344 96.6269 10
      vertex -15.6344 96.6269 0
    endloop
  endfacet
  facet normal 0.963691 -0.267021 0
    outer loop
      vertex -15.484 97.1697 0
      vertex -15.484 97.1697 10
      vertex -15.6344 96.6269 10
    endloop
  endfacet
  facet normal 0.804468 0.593996 0
    outer loop
      vertex -15.7507 97.5309 0
      vertex -15.484 97.1697 10
      vertex -15.484 97.1697 0
    endloop
  endfacet
  facet normal 0.804468 0.593996 -0
    outer loop
      vertex -15.7507 97.5309 0
      vertex -15.7507 97.5309 10
      vertex -15.484 97.1697 10
    endloop
  endfacet
  facet normal 0.997554 -0.0698956 0
    outer loop
      vertex -15.7371 97.725 0
      vertex -15.7507 97.5309 10
      vertex -15.7507 97.5309 0
    endloop
  endfacet
  facet normal 0.997554 -0.0698956 0
    outer loop
      vertex -15.7371 97.725 0
      vertex -15.7371 97.725 10
      vertex -15.7507 97.5309 10
    endloop
  endfacet
  facet normal 0.714019 -0.700126 0
    outer loop
      vertex -15.2886 98.1824 0
      vertex -15.7371 97.725 10
      vertex -15.7371 97.725 0
    endloop
  endfacet
  facet normal 0.714019 -0.700126 0
    outer loop
      vertex -15.2886 98.1824 0
      vertex -15.2886 98.1824 10
      vertex -15.7371 97.725 10
    endloop
  endfacet
  facet normal 0.990647 0.136453 0
    outer loop
      vertex -15.5486 100.07 0
      vertex -15.2886 98.1824 10
      vertex -15.2886 98.1824 0
    endloop
  endfacet
  facet normal 0.990647 0.136453 -0
    outer loop
      vertex -15.5486 100.07 0
      vertex -15.5486 100.07 10
      vertex -15.2886 98.1824 10
    endloop
  endfacet
  facet normal 0.945004 -0.32706 0
    outer loop
      vertex -15.5043 100.198 0
      vertex -15.5486 100.07 10
      vertex -15.5486 100.07 0
    endloop
  endfacet
  facet normal 0.945004 -0.32706 0
    outer loop
      vertex -15.5043 100.198 0
      vertex -15.5043 100.198 10
      vertex -15.5486 100.07 10
    endloop
  endfacet
  facet normal 0.695756 -0.718278 0
    outer loop
      vertex -14.0022 101.653 0
      vertex -15.5043 100.198 10
      vertex -15.5043 100.198 0
    endloop
  endfacet
  facet normal 0.695756 -0.718278 0
    outer loop
      vertex -14.0022 101.653 0
      vertex -14.0022 101.653 10
      vertex -15.5043 100.198 10
    endloop
  endfacet
  facet normal 0.843926 0.53646 0
    outer loop
      vertex -14.1109 101.824 0
      vertex -14.0022 101.653 10
      vertex -14.0022 101.653 0
    endloop
  endfacet
  facet normal 0.843926 0.53646 -0
    outer loop
      vertex -14.1109 101.824 0
      vertex -14.1109 101.824 10
      vertex -14.0022 101.653 10
    endloop
  endfacet
  facet normal 0.169072 0.985604 0
    outer loop
      vertex -14.5656 101.902 0
      vertex -14.1109 101.824 10
      vertex -14.1109 101.824 0
    endloop
  endfacet
  facet normal 0.169072 0.985604 -0
    outer loop
      vertex -14.5656 101.902 0
      vertex -14.5656 101.902 10
      vertex -14.1109 101.824 10
    endloop
  endfacet
  facet normal 0.694828 0.719176 0
    outer loop
      vertex -14.6867 102.019 0
      vertex -14.5656 101.902 10
      vertex -14.5656 101.902 0
    endloop
  endfacet
  facet normal 0.694828 0.719176 -0
    outer loop
      vertex -14.6867 102.019 0
      vertex -14.6867 102.019 10
      vertex -14.5656 101.902 10
    endloop
  endfacet
  facet normal 0.978148 0.207909 0
    outer loop
      vertex -14.834 102.712 0
      vertex -14.6867 102.019 10
      vertex -14.6867 102.019 0
    endloop
  endfacet
  facet normal 0.978148 0.207909 -0
    outer loop
      vertex -14.834 102.712 0
      vertex -14.834 102.712 10
      vertex -14.6867 102.019 10
    endloop
  endfacet
  facet normal 0.102286 0.994755 0
    outer loop
      vertex -15.8357 102.815 0
      vertex -14.834 102.712 10
      vertex -14.834 102.712 0
    endloop
  endfacet
  facet normal 0.102286 0.994755 -0
    outer loop
      vertex -15.8357 102.815 0
      vertex -15.8357 102.815 10
      vertex -14.834 102.712 10
    endloop
  endfacet
  facet normal -0.611611 0.791158 0
    outer loop
      vertex -16.3583 102.411 0
      vertex -15.8357 102.815 10
      vertex -15.8357 102.815 0
    endloop
  endfacet
  facet normal -0.611611 0.791158 0
    outer loop
      vertex -16.3583 102.411 0
      vertex -16.3583 102.411 10
      vertex -15.8357 102.815 10
    endloop
  endfacet
  facet normal -0.26069 0.965423 0
    outer loop
      vertex -16.4694 102.381 0
      vertex -16.3583 102.411 10
      vertex -16.3583 102.411 0
    endloop
  endfacet
  facet normal -0.26069 0.965423 0
    outer loop
      vertex -16.4694 102.381 0
      vertex -16.4694 102.381 10
      vertex -16.3583 102.411 10
    endloop
  endfacet
  facet normal 0.129565 0.991571 0
    outer loop
      vertex -17.5791 102.526 0
      vertex -16.4694 102.381 10
      vertex -16.4694 102.381 0
    endloop
  endfacet
  facet normal 0.129565 0.991571 -0
    outer loop
      vertex -17.5791 102.526 0
      vertex -17.5791 102.526 10
      vertex -16.4694 102.381 10
    endloop
  endfacet
  facet normal -0.389422 0.921059 0
    outer loop
      vertex -18.0616 102.322 0
      vertex -17.5791 102.526 10
      vertex -17.5791 102.526 0
    endloop
  endfacet
  facet normal -0.389422 0.921059 0
    outer loop
      vertex -18.0616 102.322 0
      vertex -18.0616 102.322 10
      vertex -17.5791 102.526 10
    endloop
  endfacet
  facet normal 0.30221 0.953241 0
    outer loop
      vertex -18.2477 102.381 0
      vertex -18.0616 102.322 10
      vertex -18.0616 102.322 0
    endloop
  endfacet
  facet normal 0.30221 0.953241 -0
    outer loop
      vertex -18.2477 102.381 0
      vertex -18.2477 102.381 10
      vertex -18.0616 102.322 10
    endloop
  endfacet
  facet normal 0.851658 0.524097 0
    outer loop
      vertex -18.4077 102.641 0
      vertex -18.2477 102.381 10
      vertex -18.2477 102.381 0
    endloop
  endfacet
  facet normal 0.851658 0.524097 -0
    outer loop
      vertex -18.4077 102.641 0
      vertex -18.4077 102.641 10
      vertex -18.2477 102.381 10
    endloop
  endfacet
  facet normal 0.999925 0.0122571 0
    outer loop
      vertex -18.4096 102.796 0
      vertex -18.4077 102.641 10
      vertex -18.4077 102.641 0
    endloop
  endfacet
  facet normal 0.999925 0.0122571 -0
    outer loop
      vertex -18.4096 102.796 0
      vertex -18.4096 102.796 10
      vertex -18.4077 102.641 10
    endloop
  endfacet
  facet normal 0.863523 -0.50431 0
    outer loop
      vertex -18.2525 103.065 0
      vertex -18.4096 102.796 10
      vertex -18.4096 102.796 0
    endloop
  endfacet
  facet normal 0.863523 -0.50431 0
    outer loop
      vertex -18.2525 103.065 0
      vertex -18.2525 103.065 10
      vertex -18.4096 102.796 10
    endloop
  endfacet
  facet normal 0.767612 0.640915 0
    outer loop
      vertex -18.4078 103.251 0
      vertex -18.2525 103.065 10
      vertex -18.2525 103.065 0
    endloop
  endfacet
  facet normal 0.767612 0.640915 -0
    outer loop
      vertex -18.4078 103.251 0
      vertex -18.4078 103.251 10
      vertex -18.2525 103.065 10
    endloop
  endfacet
  facet normal -0.463092 0.88631 0
    outer loop
      vertex -19.3858 102.74 0
      vertex -18.4078 103.251 10
      vertex -18.4078 103.251 0
    endloop
  endfacet
  facet normal -0.463092 0.88631 0
    outer loop
      vertex -19.3858 102.74 0
      vertex -19.3858 102.74 10
      vertex -18.4078 103.251 10
    endloop
  endfacet
  facet normal -0.904185 0.427141 0
    outer loop
      vertex -19.5587 102.374 0
      vertex -19.3858 102.74 10
      vertex -19.3858 102.74 0
    endloop
  endfacet
  facet normal -0.904185 0.427141 0
    outer loop
      vertex -19.5587 102.374 0
      vertex -19.5587 102.374 10
      vertex -19.3858 102.74 10
    endloop
  endfacet
  facet normal -0.549574 -0.835445 0
    outer loop
      vertex -19.3778 102.255 0
      vertex -19.5587 102.374 10
      vertex -19.5587 102.374 0
    endloop
  endfacet
  facet normal -0.549574 -0.835445 0
    outer loop
      vertex -19.3778 102.255 0
      vertex -19.3778 102.255 10
      vertex -19.5587 102.374 10
    endloop
  endfacet
  facet normal -0.863995 -0.5035 0
    outer loop
      vertex -19.3102 102.139 0
      vertex -19.3778 102.255 10
      vertex -19.3778 102.255 0
    endloop
  endfacet
  facet normal -0.863995 -0.5035 0
    outer loop
      vertex -19.3102 102.139 0
      vertex -19.3102 102.139 10
      vertex -19.3778 102.255 10
    endloop
  endfacet
  facet normal -0.998372 -0.0570396 0
    outer loop
      vertex -19.1502 99.3385 0
      vertex -19.3102 102.139 10
      vertex -19.3102 102.139 0
    endloop
  endfacet
  facet normal -0.998372 -0.0570396 0
    outer loop
      vertex -19.1502 99.3385 0
      vertex -19.1502 99.3385 10
      vertex -19.3102 102.139 10
    endloop
  endfacet
  facet normal -0.993469 0.114101 0
    outer loop
      vertex -19.156 99.288 0
      vertex -19.1502 99.3385 10
      vertex -19.1502 99.3385 0
    endloop
  endfacet
  facet normal -0.993469 0.114101 0
    outer loop
      vertex -19.156 99.288 0
      vertex -19.156 99.288 10
      vertex -19.1502 99.3385 10
    endloop
  endfacet
  facet normal -0.960002 0.279995 0
    outer loop
      vertex -19.5659 97.8826 0
      vertex -19.156 99.288 10
      vertex -19.156 99.288 0
    endloop
  endfacet
  facet normal -0.960002 0.279995 0
    outer loop
      vertex -19.5659 97.8826 0
      vertex -19.5659 97.8826 10
      vertex -19.156 99.288 10
    endloop
  endfacet
  facet normal -0.982318 -0.187218 0
    outer loop
      vertex -19.4926 97.498 0
      vertex -19.5659 97.8826 10
      vertex -19.5659 97.8826 0
    endloop
  endfacet
  facet normal -0.982318 -0.187218 0
    outer loop
      vertex -19.4926 97.498 0
      vertex -19.4926 97.498 10
      vertex -19.5659 97.8826 10
    endloop
  endfacet
  facet normal -0.994638 0.103415 0
    outer loop
      vertex -19.5015 97.4124 0
      vertex -19.4926 97.498 10
      vertex -19.4926 97.498 0
    endloop
  endfacet
  facet normal -0.994638 0.103415 0
    outer loop
      vertex -19.5015 97.4124 0
      vertex -19.5015 97.4124 10
      vertex -19.4926 97.498 10
    endloop
  endfacet
  facet normal -0.923406 0.383825 0
    outer loop
      vertex -20.1915 95.7524 0
      vertex -19.5015 97.4124 10
      vertex -19.5015 97.4124 0
    endloop
  endfacet
  facet normal -0.923406 0.383825 0
    outer loop
      vertex -20.1915 95.7524 0
      vertex -20.1915 95.7524 10
      vertex -19.5015 97.4124 10
    endloop
  endfacet
  facet normal -0.850715 0.525628 0
    outer loop
      vertex -20.2164 95.7121 0
      vertex -20.1915 95.7524 10
      vertex -20.1915 95.7524 0
    endloop
  endfacet
  facet normal -0.850715 0.525628 0
    outer loop
      vertex -20.2164 95.7121 0
      vertex -20.2164 95.7121 10
      vertex -20.1915 95.7524 10
    endloop
  endfacet
  facet normal -0.75749 0.652846 0
    outer loop
      vertex -20.6868 95.1663 0
      vertex -20.2164 95.7121 10
      vertex -20.2164 95.7121 0
    endloop
  endfacet
  facet normal -0.75749 0.652846 0
    outer loop
      vertex -20.6868 95.1663 0
      vertex -20.6868 95.1663 10
      vertex -20.2164 95.7121 10
    endloop
  endfacet
  facet normal -0.992101 0.125441 0
    outer loop
      vertex -20.8789 93.647 0
      vertex -20.6868 95.1663 10
      vertex -20.6868 95.1663 0
    endloop
  endfacet
  facet normal -0.992101 0.125441 0
    outer loop
      vertex -20.8789 93.647 0
      vertex -20.8789 93.647 10
      vertex -20.6868 95.1663 10
    endloop
  endfacet
  facet normal 0.0399352 -0.999202 0
    outer loop
      vertex -20.3935 93.6664 0
      vertex -20.8789 93.647 10
      vertex -20.8789 93.647 0
    endloop
  endfacet
  facet normal 0.0399352 -0.999202 0
    outer loop
      vertex -20.3935 93.6664 0
      vertex -20.3935 93.6664 10
      vertex -20.8789 93.647 10
    endloop
  endfacet
  facet normal 0.889817 -0.456317 0
    outer loop
      vertex -20.0335 94.3684 0
      vertex -20.3935 93.6664 10
      vertex -20.3935 93.6664 0
    endloop
  endfacet
  facet normal 0.889817 -0.456317 0
    outer loop
      vertex -20.0335 94.3684 0
      vertex -20.0335 94.3684 10
      vertex -20.3935 93.6664 10
    endloop
  endfacet
  facet normal 0.70389 -0.710309 0
    outer loop
      vertex -19.9671 94.4342 0
      vertex -20.0335 94.3684 10
      vertex -20.0335 94.3684 0
    endloop
  endfacet
  facet normal 0.70389 -0.710309 0
    outer loop
      vertex -19.9671 94.4342 0
      vertex -19.9671 94.4342 10
      vertex -20.0335 94.3684 10
    endloop
  endfacet
  facet normal 0.447214 -0.894427 0
    outer loop
      vertex -19.6071 94.6142 0
      vertex -19.9671 94.4342 10
      vertex -19.9671 94.4342 0
    endloop
  endfacet
  facet normal 0.447214 -0.894427 0
    outer loop
      vertex -19.6071 94.6142 0
      vertex -19.6071 94.6142 10
      vertex -19.9671 94.4342 10
    endloop
  endfacet
  facet normal -0.163847 -0.986486 0
    outer loop
      vertex -19.4331 94.5853 0
      vertex -19.6071 94.6142 10
      vertex -19.6071 94.6142 0
    endloop
  endfacet
  facet normal -0.163847 -0.986486 0
    outer loop
      vertex -19.4331 94.5853 0
      vertex -19.4331 94.5853 10
      vertex -19.6071 94.6142 10
    endloop
  endfacet
  facet normal -0.996371 0.0851149 0
    outer loop
      vertex -19.4525 94.3582 0
      vertex -19.4331 94.5853 10
      vertex -19.4331 94.5853 0
    endloop
  endfacet
  facet normal -0.996371 0.0851149 0
    outer loop
      vertex -19.4525 94.3582 0
      vertex -19.4525 94.3582 10
      vertex -19.4331 94.5853 10
    endloop
  endfacet
  facet normal -0.5836 0.812041 0
    outer loop
      vertex -19.7287 94.1597 0
      vertex -19.4525 94.3582 10
      vertex -19.4525 94.3582 0
    endloop
  endfacet
  facet normal -0.5836 0.812041 0
    outer loop
      vertex -19.7287 94.1597 0
      vertex -19.7287 94.1597 10
      vertex -19.4525 94.3582 10
    endloop
  endfacet
  facet normal -0.966892 0.255184 0
    outer loop
      vertex -19.905 93.4917 0
      vertex -19.7287 94.1597 10
      vertex -19.7287 94.1597 0
    endloop
  endfacet
  facet normal -0.966892 0.255184 0
    outer loop
      vertex -19.905 93.4917 0
      vertex -19.905 93.4917 10
      vertex -19.7287 94.1597 10
    endloop
  endfacet
  facet normal -0.773457 0.633849 0
    outer loop
      vertex -19.984 93.3953 0
      vertex -19.905 93.4917 10
      vertex -19.905 93.4917 0
    endloop
  endfacet
  facet normal -0.773457 0.633849 0
    outer loop
      vertex -19.984 93.3953 0
      vertex -19.984 93.3953 10
      vertex -19.905 93.4917 10
    endloop
  endfacet
  facet normal -0.440216 0.897892 0
    outer loop
      vertex -20.3954 93.1936 0
      vertex -19.984 93.3953 10
      vertex -19.984 93.3953 0
    endloop
  endfacet
  facet normal -0.440216 0.897892 0
    outer loop
      vertex -20.3954 93.1936 0
      vertex -20.3954 93.1936 10
      vertex -19.984 93.3953 10
    endloop
  endfacet
  facet normal -0.988915 -0.148486 0
    outer loop
      vertex -20.3454 92.8606 0
      vertex -20.3954 93.1936 10
      vertex -20.3954 93.1936 0
    endloop
  endfacet
  facet normal -0.988915 -0.148486 0
    outer loop
      vertex -20.3454 92.8606 0
      vertex -20.3454 92.8606 10
      vertex -20.3954 93.1936 10
    endloop
  endfacet
  facet normal 0.21243 -0.977176 0
    outer loop
      vertex -19.5818 93.0266 0
      vertex -20.3454 92.8606 10
      vertex -20.3454 92.8606 0
    endloop
  endfacet
  facet normal 0.21243 -0.977176 0
    outer loop
      vertex -19.5818 93.0266 0
      vertex -19.5818 93.0266 10
      vertex -20.3454 92.8606 10
    endloop
  endfacet
  facet normal -0.255792 -0.966732 0
    outer loop
      vertex -19.4499 92.9917 0
      vertex -19.5818 93.0266 10
      vertex -19.5818 93.0266 0
    endloop
  endfacet
  facet normal -0.255792 -0.966732 0
    outer loop
      vertex -19.4499 92.9917 0
      vertex -19.4499 92.9917 10
      vertex -19.5818 93.0266 10
    endloop
  endfacet
  facet normal -0.667545 -0.744569 0
    outer loop
      vertex -19.1599 92.7317 0
      vertex -19.4499 92.9917 10
      vertex -19.4499 92.9917 0
    endloop
  endfacet
  facet normal -0.667545 -0.744569 0
    outer loop
      vertex -19.1599 92.7317 0
      vertex -19.1599 92.7317 10
      vertex -19.4499 92.9917 10
    endloop
  endfacet
  facet normal -0.977619 -0.210381 0
    outer loop
      vertex -19.1228 92.5593 0
      vertex -19.1599 92.7317 10
      vertex -19.1599 92.7317 0
    endloop
  endfacet
  facet normal -0.977619 -0.210381 0
    outer loop
      vertex -19.1228 92.5593 0
      vertex -19.1228 92.5593 10
      vertex -19.1599 92.7317 10
    endloop
  endfacet
  facet normal -0.492223 0.870469 0
    outer loop
      vertex -19.2786 92.4712 0
      vertex -19.1228 92.5593 10
      vertex -19.1228 92.5593 0
    endloop
  endfacet
  facet normal -0.492223 0.870469 0
    outer loop
      vertex -19.2786 92.4712 0
      vertex -19.2786 92.4712 10
      vertex -19.1228 92.5593 10
    endloop
  endfacet
  facet normal 0.123792 0.992308 0
    outer loop
      vertex -19.5808 92.5089 0
      vertex -19.2786 92.4712 10
      vertex -19.2786 92.4712 0
    endloop
  endfacet
  facet normal 0.123792 0.992308 -0
    outer loop
      vertex -19.5808 92.5089 0
      vertex -19.5808 92.5089 10
      vertex -19.2786 92.4712 10
    endloop
  endfacet
  facet normal -0.998628 -0.0523712 0
    outer loop
      vertex -19.4402 89.8279 0
      vertex -19.5808 92.5089 10
      vertex -19.5808 92.5089 0
    endloop
  endfacet
  facet normal -0.998628 -0.0523712 0
    outer loop
      vertex -19.4402 89.8279 0
      vertex -19.4402 89.8279 10
      vertex -19.5808 92.5089 10
    endloop
  endfacet
  facet normal -0.988656 0.150197 0
    outer loop
      vertex -19.4493 89.768 0
      vertex -19.4402 89.8279 10
      vertex -19.4402 89.8279 0
    endloop
  endfacet
  facet normal -0.988656 0.150197 0
    outer loop
      vertex -19.4493 89.768 0
      vertex -19.4493 89.768 10
      vertex -19.4402 89.8279 10
    endloop
  endfacet
  facet normal -0.938048 0.346504 0
    outer loop
      vertex -19.7587 88.9304 0
      vertex -19.4493 89.768 10
      vertex -19.4493 89.768 0
    endloop
  endfacet
  facet normal -0.938048 0.346504 0
    outer loop
      vertex -19.7587 88.9304 0
      vertex -19.7587 88.9304 10
      vertex -19.4493 89.768 10
    endloop
  endfacet
  facet normal 0.260343 -0.965516 0
    outer loop
      vertex -19.149 89.0948 0
      vertex -19.7587 88.9304 10
      vertex -19.7587 88.9304 0
    endloop
  endfacet
  facet normal 0.260343 -0.965516 0
    outer loop
      vertex -19.149 89.0948 0
      vertex -19.149 89.0948 10
      vertex -19.7587 88.9304 10
    endloop
  endfacet
  facet normal 0.0388927 -0.999243 0
    outer loop
      vertex -19.0822 89.0974 0
      vertex -19.149 89.0948 10
      vertex -19.149 89.0948 0
    endloop
  endfacet
  facet normal 0.0388927 -0.999243 0
    outer loop
      vertex -19.0822 89.0974 0
      vertex -19.0822 89.0974 10
      vertex -19.149 89.0948 10
    endloop
  endfacet
  facet normal -0.185012 -0.982736 0
    outer loop
      vertex -17.4329 88.7869 0
      vertex -19.0822 89.0974 10
      vertex -19.0822 89.0974 0
    endloop
  endfacet
  facet normal -0.185012 -0.982736 0
    outer loop
      vertex -17.4329 88.7869 0
      vertex -17.4329 88.7869 10
      vertex -19.0822 89.0974 10
    endloop
  endfacet
  facet normal 0.458438 -0.888727 0
    outer loop
      vertex -16.6278 89.2022 0
      vertex -17.4329 88.7869 10
      vertex -17.4329 88.7869 0
    endloop
  endfacet
  facet normal 0.458438 -0.888727 0
    outer loop
      vertex -16.6278 89.2022 0
      vertex -16.6278 89.2022 10
      vertex -17.4329 88.7869 10
    endloop
  endfacet
endsolid OpenSCAD_Model
