solid OpenSCAD_Model
  facet normal 0 0 -1
    outer loop
      vertex 65.1477 14.4575 10
      vertex 65.6411 15.0918 10
      vertex 65.7706 14.9502 10
    endloop
  endfacet
  facet normal 0 0 -1
    outer loop
      vertex 65.0659 15.3277 10
      vertex 64.9112 14.6192 10
      vertex 64.7413 14.6565 10
    endloop
  endfacet
  facet normal -0 0 -1
    outer loop
      vertex 65.4868 15.2003 10
      vertex 65.0477 14.555 10
      vertex 65.2982 15.2781 10
    endloop
  endfacet
  facet normal 0 -0 -1
    outer loop
      vertex 71.4446 15.4657 10
      vertex 71.9315 14.9399 10
      vertex 71.2823 14.8368 10
    endloop
  endfacet
  facet normal 0 0 -1
    outer loop
      vertex 70.7533 14.8994 10
      vertex 70.3393 15.1285 10
      vertex 70.9271 15.6202 10
    endloop
  endfacet
  facet normal 0 -0 -1
    outer loop
      vertex 65.0659 15.3277 10
      vertex 65.2982 15.2781 10
      vertex 64.9112 14.6192 10
    endloop
  endfacet
  facet normal 0 0 -1
    outer loop
      vertex 71.5228 17.244 10
      vertex 71.3221 16.5592 10
      vertex 71.1273 17.2349 10
    endloop
  endfacet
  facet normal 0 0 -1
    outer loop
      vertex 65.2982 15.2781 10
      vertex 65.0477 14.555 10
      vertex 64.9112 14.6192 10
    endloop
  endfacet
  facet normal 0 -0 -1
    outer loop
      vertex 70.7393 17.2863 10
      vertex 70.8865 17.249 10
      vertex 70.7054 16.5638 10
    endloop
  endfacet
  facet normal 0 0 -1
    outer loop
      vertex 64.4752 14.6671 10
      vertex 64.7352 15.3475 10
      vertex 64.7413 14.6565 10
    endloop
  endfacet
  facet normal -0 0 -1
    outer loop
      vertex 70.6245 17.3468 10
      vertex 69.9894 16.8606 10
      vertex 70.5411 17.4368 10
    endloop
  endfacet
  facet normal 0 0 -1
    outer loop
      vertex 65.0477 14.555 10
      vertex 65.6411 15.0918 10
      vertex 65.1477 14.4575 10
    endloop
  endfacet
  facet normal -0 0 -1
    outer loop
      vertex 65.948 14.5618 10
      vertex 65.2086 14.3203 10
      vertex 65.8734 14.7741 10
    endloop
  endfacet
  facet normal 0 0 -1
    outer loop
      vertex 64.2511 15.3363 10
      vertex 64.7352 15.3475 10
      vertex 64.4752 14.6671 10
    endloop
  endfacet
  facet normal 0 0 -1
    outer loop
      vertex 64.0503 14.6515 10
      vertex 63.8555 15.3272 10
      vertex 64.2511 15.3363 10
    endloop
  endfacet
  facet normal 0 -0 -1
    outer loop
      vertex 63.4676 15.3786 10
      vertex 63.6147 15.3413 10
      vertex 63.4337 14.6561 10
    endloop
  endfacet
  facet normal 0 0 -1
    outer loop
      vertex 63.3527 15.439 10
      vertex 63.1042 14.7179 10
      vertex 62.96 14.7741 10
    endloop
  endfacet
  facet normal 0 -0 -1
    outer loop
      vertex 63.2694 15.5291 10
      vertex 63.3527 15.439 10
      vertex 62.7177 14.9529 10
    endloop
  endfacet
  facet normal 0 0 -1
    outer loop
      vertex 62.5383 15.2317 10
      vertex 63.2694 15.5291 10
      vertex 62.6193 15.0788 10
    endloop
  endfacet
  facet normal 0 0 -1
    outer loop
      vertex 62.4769 15.4135 10
      vertex 63.2164 15.6551 10
      vertex 62.5383 15.2317 10
    endloop
  endfacet
  facet normal 0 0 -1
    outer loop
      vertex 62.4769 15.4135 10
      vertex 62.4551 15.8795 10
      vertex 63.2164 15.6551 10
    endloop
  endfacet
  facet normal 0 0 -1
    outer loop
      vertex 63.2164 15.6551 10
      vertex 62.4551 15.8795 10
      vertex 62.6517 16.2775 10
    endloop
  endfacet
  facet normal 0 0 -1
    outer loop
      vertex 63.3052 16.0308 10
      vertex 62.6517 16.2775 10
      vertex 63.0603 16.5977 10
    endloop
  endfacet
  facet normal 0 0 -1
    outer loop
      vertex 63.6746 16.8298 10
      vertex 64.289 16.9337 10
      vertex 64.1018 16.3251 10
    endloop
  endfacet
  facet normal 0 0 -1
    outer loop
      vertex 64.289 16.9337 10
      vertex 64.7608 16.8854 10
      vertex 64.3404 16.2912 10
    endloop
  endfacet
  facet normal 0 -0 -1
    outer loop
      vertex 64.7608 16.8854 10
      vertex 65.1184 16.675 10
      vertex 64.5266 16.1799 10
    endloop
  endfacet
  facet normal 0 0 -1
    outer loop
      vertex 64.6687 15.9941 10
      vertex 65.1184 16.675 10
      vertex 65.3905 16.2925 10
    endloop
  endfacet
  facet normal 0 0 -1
    outer loop
      vertex 64.5266 16.1799 10
      vertex 65.1184 16.675 10
      vertex 64.6687 15.9941 10
    endloop
  endfacet
  facet normal 0 0 -1
    outer loop
      vertex 64.3404 16.2912 10
      vertex 64.7608 16.8854 10
      vertex 64.5266 16.1799 10
    endloop
  endfacet
  facet normal 0 0 -1
    outer loop
      vertex 72.0131 16.5642 10
      vertex 72.3377 17.2354 10
      vertex 72.183 16.5269 10
    endloop
  endfacet
  facet normal 0 0 -1
    outer loop
      vertex 64.1018 16.3251 10
      vertex 64.289 16.9337 10
      vertex 64.3404 16.2912 10
    endloop
  endfacet
  facet normal 0 0 -1
    outer loop
      vertex 72.4195 16.3652 10
      vertex 72.9129 16.9995 10
      vertex 73.0423 16.8579 10
    endloop
  endfacet
  facet normal 0 0 -1
    outer loop
      vertex 63.8024 16.2787 10
      vertex 63.6746 16.8298 10
      vertex 64.1018 16.3251 10
    endloop
  endfacet
  facet normal 0 0 -1
    outer loop
      vertex 63.8024 16.2787 10
      vertex 63.0603 16.5977 10
      vertex 63.6746 16.8298 10
    endloop
  endfacet
  facet normal 0 0 -1
    outer loop
      vertex 71.6122 18.1989 10
      vertex 71.3736 18.2328 10
      vertex 71.5608 18.8414 10
    endloop
  endfacet
  facet normal -0 0 -1
    outer loop
      vertex 63.8024 16.2787 10
      vertex 63.3052 16.0308 10
      vertex 63.0603 16.5977 10
    endloop
  endfacet
  facet normal -0 0 -1
    outer loop
      vertex 63.3052 16.0308 10
      vertex 63.2164 15.6551 10
      vertex 62.6517 16.2775 10
    endloop
  endfacet
  facet normal 0 0 -1
    outer loop
      vertex 62.5383 15.2317 10
      vertex 63.2164 15.6551 10
      vertex 63.2694 15.5291 10
    endloop
  endfacet
  facet normal 0 0 -1
    outer loop
      vertex 62.6193 15.0788 10
      vertex 63.2694 15.5291 10
      vertex 62.7177 14.9529 10
    endloop
  endfacet
  facet normal 0 0 -1
    outer loop
      vertex 62.7177 14.9529 10
      vertex 63.3527 15.439 10
      vertex 62.8312 14.8519 10
    endloop
  endfacet
  facet normal 0 0 -1
    outer loop
      vertex 62.8312 14.8519 10
      vertex 63.3527 15.439 10
      vertex 62.96 14.7741 10
    endloop
  endfacet
  facet normal 0 0 -1
    outer loop
      vertex 65.3243 13.2832 10
      vertex 64.5289 13.6161 10
      vertex 65.1032 13.8982 10
    endloop
  endfacet
  facet normal 0 0 -1
    outer loop
      vertex 64.0106 12.9291 10
      vertex 63.4815 12.9917 10
      vertex 63.8845 13.5883 10
    endloop
  endfacet
  facet normal 0 -0 -1
    outer loop
      vertex 63.3527 15.439 10
      vertex 63.4676 15.3786 10
      vertex 63.1042 14.7179 10
    endloop
  endfacet
  facet normal 0 0 -1
    outer loop
      vertex 63.1042 14.7179 10
      vertex 63.4676 15.3786 10
      vertex 63.2624 14.6797 10
    endloop
  endfacet
  facet normal 0 0 -1
    outer loop
      vertex 63.2624 14.6797 10
      vertex 63.4676 15.3786 10
      vertex 63.4337 14.6561 10
    endloop
  endfacet
  facet normal 0 -0 -1
    outer loop
      vertex 64.5289 13.6161 10
      vertex 64.6597 13.0322 10
      vertex 64.1728 13.558 10
    endloop
  endfacet
  facet normal 0 0 -1
    outer loop
      vertex 63.4337 14.6561 10
      vertex 63.6147 15.3413 10
      vertex 63.6767 14.6468 10
    endloop
  endfacet
  facet normal 0 0 -1
    outer loop
      vertex 63.6767 14.6468 10
      vertex 63.6147 15.3413 10
      vertex 63.8555 15.3272 10
    endloop
  endfacet
  facet normal -0 0 -1
    outer loop
      vertex 64.0503 14.6515 10
      vertex 63.6767 14.6468 10
      vertex 63.8555 15.3272 10
    endloop
  endfacet
  facet normal 0 0 -1
    outer loop
      vertex 64.0503 14.6515 10
      vertex 64.2511 15.3363 10
      vertex 64.4752 14.6671 10
    endloop
  endfacet
  facet normal 0 0 -1
    outer loop
      vertex 64.7413 14.6565 10
      vertex 64.7352 15.3475 10
      vertex 65.0659 15.3277 10
    endloop
  endfacet
  facet normal -0 0 -1
    outer loop
      vertex 65.3243 13.2832 10
      vertex 64.6597 13.0322 10
      vertex 64.5289 13.6161 10
    endloop
  endfacet
  facet normal 0 -0 -1
    outer loop
      vertex 65.4868 15.2003 10
      vertex 65.6411 15.0918 10
      vertex 65.0477 14.555 10
    endloop
  endfacet
  facet normal -0 0 -1
    outer loop
      vertex 65.8734 14.7741 10
      vertex 65.1477 14.4575 10
      vertex 65.7706 14.9502 10
    endloop
  endfacet
  facet normal 0 0 -1
    outer loop
      vertex 65.8734 14.7741 10
      vertex 65.2086 14.3203 10
      vertex 65.1477 14.4575 10
    endloop
  endfacet
  facet normal 0 -0 -1
    outer loop
      vertex 65.948 14.5618 10
      vertex 65.9729 14.0575 10
      vertex 65.2086 14.3203 10
    endloop
  endfacet
  facet normal 0 0 -1
    outer loop
      vertex 65.1032 13.8982 10
      vertex 65.9729 14.0575 10
      vertex 65.7635 13.6281 10
    endloop
  endfacet
  facet normal 0 -0 -1
    outer loop
      vertex 65.2086 14.3203 10
      vertex 65.9729 14.0575 10
      vertex 65.1032 13.8982 10
    endloop
  endfacet
  facet normal 0 0 -1
    outer loop
      vertex 65.3243 13.2832 10
      vertex 65.1032 13.8982 10
      vertex 65.7635 13.6281 10
    endloop
  endfacet
  facet normal 0 0 -1
    outer loop
      vertex 63.0676 13.2208 10
      vertex 63.4772 13.936 10
      vertex 63.6554 13.7124 10
    endloop
  endfacet
  facet normal 0 0 -1
    outer loop
      vertex 63.4815 12.9917 10
      vertex 63.0676 13.2208 10
      vertex 63.6554 13.7124 10
    endloop
  endfacet
  facet normal 0 0 -1
    outer loop
      vertex 63.4772 13.936 10
      vertex 63.0676 13.2208 10
      vertex 62.7635 13.6173 10
    endloop
  endfacet
  facet normal -0 0 -1
    outer loop
      vertex 63.8845 13.5883 10
      vertex 63.4815 12.9917 10
      vertex 63.6554 13.7124 10
    endloop
  endfacet
  facet normal -0 0 -1
    outer loop
      vertex 64.1728 13.558 10
      vertex 64.0106 12.9291 10
      vertex 63.8845 13.5883 10
    endloop
  endfacet
  facet normal 0 -0 -1
    outer loop
      vertex 64.1728 13.558 10
      vertex 64.6597 13.0322 10
      vertex 64.0106 12.9291 10
    endloop
  endfacet
  facet normal 0 0 -1
    outer loop
      vertex 69.9894 16.8606 10
      vertex 70.6245 17.3468 10
      vertex 70.103 16.7596 10
    endloop
  endfacet
  facet normal 0 -0 -1
    outer loop
      vertex 72.5699 17.1858 10
      vertex 72.7585 17.108 10
      vertex 72.3194 16.4627 10
    endloop
  endfacet
  facet normal 0 -0 -1
    outer loop
      vertex 72.3377 17.2354 10
      vertex 72.5699 17.1858 10
      vertex 72.183 16.5269 10
    endloop
  endfacet
  facet normal 0 0 -1
    outer loop
      vertex 72.5699 17.1858 10
      vertex 72.3194 16.4627 10
      vertex 72.183 16.5269 10
    endloop
  endfacet
  facet normal 0 0 -1
    outer loop
      vertex 71.747 16.5748 10
      vertex 72.007 17.2552 10
      vertex 72.0131 16.5642 10
    endloop
  endfacet
  facet normal 0 0 -1
    outer loop
      vertex 73.2447 15.9653 10
      vertex 72.4803 16.228 10
      vertex 73.2197 16.4696 10
    endloop
  endfacet
  facet normal 0 0 -1
    outer loop
      vertex 72.007 17.2552 10
      vertex 71.747 16.5748 10
      vertex 71.5228 17.244 10
    endloop
  endfacet
  facet normal 0 -0 -1
    outer loop
      vertex 71.5228 17.244 10
      vertex 71.747 16.5748 10
      vertex 71.3221 16.5592 10
    endloop
  endfacet
  facet normal 0 0 -1
    outer loop
      vertex 70.6245 17.3468 10
      vertex 70.3759 16.6256 10
      vertex 70.2318 16.6818 10
    endloop
  endfacet
  facet normal 0 0 -1
    outer loop
      vertex 70.5411 17.4368 10
      vertex 69.891 16.9865 10
      vertex 69.81 17.1394 10
    endloop
  endfacet
  facet normal 0 0 -1
    outer loop
      vertex 70.5411 17.4368 10
      vertex 69.9894 16.8606 10
      vertex 69.891 16.9865 10
    endloop
  endfacet
  facet normal 0 0 -1
    outer loop
      vertex 69.7487 17.3212 10
      vertex 70.4881 17.5628 10
      vertex 69.81 17.1394 10
    endloop
  endfacet
  facet normal 0 -0 -1
    outer loop
      vertex 70.7489 15.8437 10
      vertex 70.9271 15.6202 10
      vertex 70.3393 15.1285 10
    endloop
  endfacet
  facet normal -0 0 -1
    outer loop
      vertex 70.4881 17.5628 10
      vertex 69.7487 17.3212 10
      vertex 69.7268 17.7872 10
    endloop
  endfacet
  facet normal -0 0 -1
    outer loop
      vertex 67.3266 14.4256 10
      vertex 66.7111 13.6263 10
      vertex 66.6723 16.9197 10
    endloop
  endfacet
  facet normal 0 0 -1
    outer loop
      vertex 69.7268 17.7872 10
      vertex 69.9234 18.1852 10
      vertex 70.4881 17.5628 10
    endloop
  endfacet
  facet normal 0 0 -1
    outer loop
      vertex 69.5916 15.8111 10
      vertex 69.5448 15.3054 10
      vertex 68.7951 15.6095 10
    endloop
  endfacet
  facet normal 0 0 -1
    outer loop
      vertex 70.577 17.9385 10
      vertex 69.9234 18.1852 10
      vertex 70.3321 18.5054 10
    endloop
  endfacet
  facet normal -0 0 -1
    outer loop
      vertex 71.0742 18.1864 10
      vertex 70.577 17.9385 10
      vertex 70.3321 18.5054 10
    endloop
  endfacet
  facet normal -0 0 -1
    outer loop
      vertex 71.3736 18.2328 10
      vertex 71.0742 18.1864 10
      vertex 70.9464 18.7375 10
    endloop
  endfacet
  facet normal 0 0 -1
    outer loop
      vertex 71.5608 18.8414 10
      vertex 71.3736 18.2328 10
      vertex 70.9464 18.7375 10
    endloop
  endfacet
  facet normal 0 0 -1
    outer loop
      vertex 71.0742 18.1864 10
      vertex 70.3321 18.5054 10
      vertex 70.9464 18.7375 10
    endloop
  endfacet
  facet normal 0 0 -1
    outer loop
      vertex 71.5608 18.8414 10
      vertex 72.0325 18.7931 10
      vertex 71.6122 18.1989 10
    endloop
  endfacet
  facet normal 0 -0 -1
    outer loop
      vertex 72.0325 18.7931 10
      vertex 72.3902 18.5827 10
      vertex 71.7984 18.0876 10
    endloop
  endfacet
  facet normal 0 0 -1
    outer loop
      vertex 71.9405 17.9018 10
      vertex 72.3902 18.5827 10
      vertex 72.6622 18.2002 10
    endloop
  endfacet
  facet normal 0 0 -1
    outer loop
      vertex 71.7984 18.0876 10
      vertex 72.3902 18.5827 10
      vertex 71.9405 17.9018 10
    endloop
  endfacet
  facet normal 0 0 -1
    outer loop
      vertex 71.6122 18.1989 10
      vertex 72.0325 18.7931 10
      vertex 71.7984 18.0876 10
    endloop
  endfacet
  facet normal 0 0 -1
    outer loop
      vertex 66.7111 13.6263 10
      vertex 65.7437 17.3139 10
      vertex 66.6723 16.9197 10
    endloop
  endfacet
  facet normal 0 0 -1
    outer loop
      vertex 68.2029 14.0177 10
      vertex 67.9809 14.5972 10
      vertex 68.687 14.2048 10
    endloop
  endfacet
  facet normal -0 0 -1
    outer loop
      vertex 69.1764 17.1015 10
      vertex 68.5154 16.6595 10
      vertex 68.6437 17.5726 10
    endloop
  endfacet
  facet normal 0 0 -1
    outer loop
      vertex 70.4881 17.5628 10
      vertex 69.9234 18.1852 10
      vertex 70.577 17.9385 10
    endloop
  endfacet
  facet normal 0 0 -1
    outer loop
      vertex 69.81 17.1394 10
      vertex 70.4881 17.5628 10
      vertex 70.5411 17.4368 10
    endloop
  endfacet
  facet normal 0 0 -1
    outer loop
      vertex 70.103 16.7596 10
      vertex 70.6245 17.3468 10
      vertex 70.2318 16.6818 10
    endloop
  endfacet
  facet normal 0 0 -1
    outer loop
      vertex 69.373 14.8593 10
      vertex 68.6814 15.1474 10
      vertex 69.5448 15.3054 10
    endloop
  endfacet
  facet normal 0 0 -1
    outer loop
      vertex 72.5961 15.1909 10
      vertex 71.8007 15.5238 10
      vertex 72.3749 15.8059 10
    endloop
  endfacet
  facet normal 0 0 -1
    outer loop
      vertex 68.7301 16.156 10
      vertex 69.5073 16.36 10
      vertex 69.5916 15.8111 10
    endloop
  endfacet
  facet normal 0 0 -1
    outer loop
      vertex 71.2823 14.8368 10
      vertex 70.7533 14.8994 10
      vertex 71.1562 15.496 10
    endloop
  endfacet
  facet normal 0 -0 -1
    outer loop
      vertex 70.6245 17.3468 10
      vertex 70.7393 17.2863 10
      vertex 70.3759 16.6256 10
    endloop
  endfacet
  facet normal 0 0 -1
    outer loop
      vertex 70.3759 16.6256 10
      vertex 70.7393 17.2863 10
      vertex 70.5342 16.5874 10
    endloop
  endfacet
  facet normal 0 0 -1
    outer loop
      vertex 70.5342 16.5874 10
      vertex 70.7393 17.2863 10
      vertex 70.7054 16.5638 10
    endloop
  endfacet
  facet normal 0 -0 -1
    outer loop
      vertex 71.8007 15.5238 10
      vertex 71.9315 14.9399 10
      vertex 71.4446 15.4657 10
    endloop
  endfacet
  facet normal 0 0 -1
    outer loop
      vertex 70.7054 16.5638 10
      vertex 70.8865 17.249 10
      vertex 70.9484 16.5545 10
    endloop
  endfacet
  facet normal 0 0 -1
    outer loop
      vertex 70.9484 16.5545 10
      vertex 70.8865 17.249 10
      vertex 71.1273 17.2349 10
    endloop
  endfacet
  facet normal -0 0 -1
    outer loop
      vertex 71.3221 16.5592 10
      vertex 70.9484 16.5545 10
      vertex 71.1273 17.2349 10
    endloop
  endfacet
  facet normal -0 0 -1
    outer loop
      vertex 73.2447 15.9653 10
      vertex 72.3749 15.8059 10
      vertex 72.4803 16.228 10
    endloop
  endfacet
  facet normal 0 0 -1
    outer loop
      vertex 72.007 17.2552 10
      vertex 72.3377 17.2354 10
      vertex 72.0131 16.5642 10
    endloop
  endfacet
  facet normal 0 0 -1
    outer loop
      vertex 72.9129 16.9995 10
      vertex 72.4195 16.3652 10
      vertex 72.3194 16.4627 10
    endloop
  endfacet
  facet normal -0 0 -1
    outer loop
      vertex 72.9129 16.9995 10
      vertex 72.3194 16.4627 10
      vertex 72.7585 17.108 10
    endloop
  endfacet
  facet normal -0 0 -1
    outer loop
      vertex 73.1452 16.6818 10
      vertex 72.4195 16.3652 10
      vertex 73.0423 16.8579 10
    endloop
  endfacet
  facet normal 0 0 -1
    outer loop
      vertex 73.1452 16.6818 10
      vertex 72.4803 16.228 10
      vertex 72.4195 16.3652 10
    endloop
  endfacet
  facet normal 0 0 -1
    outer loop
      vertex 72.4803 16.228 10
      vertex 73.1452 16.6818 10
      vertex 73.2197 16.4696 10
    endloop
  endfacet
  facet normal 0 0 -1
    outer loop
      vertex 73.2447 15.9653 10
      vertex 73.0353 15.5358 10
      vertex 72.3749 15.8059 10
    endloop
  endfacet
  facet normal 0 0 -1
    outer loop
      vertex 72.5961 15.1909 10
      vertex 72.3749 15.8059 10
      vertex 73.0353 15.5358 10
    endloop
  endfacet
  facet normal 0 0 -1
    outer loop
      vertex 71.9315 14.9399 10
      vertex 71.8007 15.5238 10
      vertex 72.5961 15.1909 10
    endloop
  endfacet
  facet normal 0 0 -1
    outer loop
      vertex 69.0821 14.4889 10
      vertex 68.4047 14.8 10
      vertex 68.6814 15.1474 10
    endloop
  endfacet
  facet normal 0 0 -1
    outer loop
      vertex 70.0353 15.525 10
      vertex 70.7489 15.8437 10
      vertex 70.3393 15.1285 10
    endloop
  endfacet
  facet normal 0 0 -1
    outer loop
      vertex 68.5154 16.6595 10
      vertex 69.1764 17.1015 10
      vertex 69.5073 16.36 10
    endloop
  endfacet
  facet normal 0 -0 -1
    outer loop
      vertex 70.9271 15.6202 10
      vertex 71.1562 15.496 10
      vertex 70.7533 14.8994 10
    endloop
  endfacet
  facet normal 0 0 -1
    outer loop
      vertex 71.1562 15.496 10
      vertex 71.4446 15.4657 10
      vertex 71.2823 14.8368 10
    endloop
  endfacet
  facet normal -0 0 -1
    outer loop
      vertex 68.6437 17.5726 10
      vertex 68.1833 16.9819 10
      vertex 67.9356 17.7634 10
    endloop
  endfacet
  facet normal -0 0 -1
    outer loop
      vertex 67.7469 17.1181 10
      vertex 67.2193 17.0632 10
      vertex 67.0785 17.6641 10
    endloop
  endfacet
  facet normal 0 -0 -1
    outer loop
      vertex 67.0785 17.6641 10
      vertex 67.2193 17.0632 10
      vertex 66.6723 16.9197 10
    endloop
  endfacet
  facet normal 0 0 -1
    outer loop
      vertex 66.6723 16.9197 10
      vertex 65.7437 17.3139 10
      vertex 67.0785 17.6641 10
    endloop
  endfacet
  facet normal -0 0 -1
    outer loop
      vertex 68.2029 14.0177 10
      vertex 66.7111 13.6263 10
      vertex 67.3266 14.4256 10
    endloop
  endfacet
  facet normal 0 0 -1
    outer loop
      vertex 68.2029 14.0177 10
      vertex 67.3266 14.4256 10
      vertex 67.9809 14.5972 10
    endloop
  endfacet
  facet normal 0 0 -1
    outer loop
      vertex 67.7469 17.1181 10
      vertex 67.0785 17.6641 10
      vertex 67.9356 17.7634 10
    endloop
  endfacet
  facet normal 0 0 -1
    outer loop
      vertex 68.1833 16.9819 10
      vertex 67.7469 17.1181 10
      vertex 67.9356 17.7634 10
    endloop
  endfacet
  facet normal 0 0 -1
    outer loop
      vertex 68.5154 16.6595 10
      vertex 68.1833 16.9819 10
      vertex 68.6437 17.5726 10
    endloop
  endfacet
  facet normal 0 0 -1
    outer loop
      vertex 68.5154 16.6595 10
      vertex 69.5073 16.36 10
      vertex 68.7301 16.156 10
    endloop
  endfacet
  facet normal 0 0 -1
    outer loop
      vertex 68.7301 16.156 10
      vertex 69.5916 15.8111 10
      vertex 68.7951 15.6095 10
    endloop
  endfacet
  facet normal 0 -0 -1
    outer loop
      vertex 68.7951 15.6095 10
      vertex 69.5448 15.3054 10
      vertex 68.6814 15.1474 10
    endloop
  endfacet
  facet normal 0 0 -1
    outer loop
      vertex 68.6814 15.1474 10
      vertex 69.373 14.8593 10
      vertex 69.0821 14.4889 10
    endloop
  endfacet
  facet normal 0 0 -1
    outer loop
      vertex 67.9809 14.5972 10
      vertex 68.4047 14.8 10
      vertex 68.687 14.2048 10
    endloop
  endfacet
  facet normal 0 0 -1
    outer loop
      vertex 68.4047 14.8 10
      vertex 69.0821 14.4889 10
      vertex 68.687 14.2048 10
    endloop
  endfacet
  facet normal 0 0 1
    outer loop
      vertex 65.7706 14.9502 10.8
      vertex 65.6411 15.0918 10.8
      vertex 65.1477 14.4575 10.8
    endloop
  endfacet
  facet normal -0 0 1
    outer loop
      vertex 64.7413 14.6565 10.8
      vertex 64.9112 14.6192 10.8
      vertex 65.0659 15.3277 10.8
    endloop
  endfacet
  facet normal 0 0 1
    outer loop
      vertex 65.2982 15.2781 10.8
      vertex 65.0477 14.555 10.8
      vertex 65.4868 15.2003 10.8
    endloop
  endfacet
  facet normal 0 0 1
    outer loop
      vertex 71.2823 14.8368 10.8
      vertex 71.9315 14.9399 10.8
      vertex 71.4446 15.4657 10.8
    endloop
  endfacet
  facet normal 0 0 1
    outer loop
      vertex 70.9271 15.6202 10.8
      vertex 70.3393 15.1285 10.8
      vertex 70.7533 14.8994 10.8
    endloop
  endfacet
  facet normal 0 0 1
    outer loop
      vertex 64.9112 14.6192 10.8
      vertex 65.2982 15.2781 10.8
      vertex 65.0659 15.3277 10.8
    endloop
  endfacet
  facet normal -0 0 1
    outer loop
      vertex 71.1273 17.2349 10.8
      vertex 71.3221 16.5592 10.8
      vertex 71.5228 17.244 10.8
    endloop
  endfacet
  facet normal -0 0 1
    outer loop
      vertex 64.9112 14.6192 10.8
      vertex 65.0477 14.555 10.8
      vertex 65.2982 15.2781 10.8
    endloop
  endfacet
  facet normal 0 0 1
    outer loop
      vertex 70.7054 16.5638 10.8
      vertex 70.8865 17.249 10.8
      vertex 70.7393 17.2863 10.8
    endloop
  endfacet
  facet normal 0 0 1
    outer loop
      vertex 64.7413 14.6565 10.8
      vertex 64.7352 15.3475 10.8
      vertex 64.4752 14.6671 10.8
    endloop
  endfacet
  facet normal 0 0 1
    outer loop
      vertex 70.5411 17.4368 10.8
      vertex 69.9894 16.8606 10.8
      vertex 70.6245 17.3468 10.8
    endloop
  endfacet
  facet normal 0 -0 1
    outer loop
      vertex 65.1477 14.4575 10.8
      vertex 65.6411 15.0918 10.8
      vertex 65.0477 14.555 10.8
    endloop
  endfacet
  facet normal 0 0 1
    outer loop
      vertex 65.8734 14.7741 10.8
      vertex 65.2086 14.3203 10.8
      vertex 65.948 14.5618 10.8
    endloop
  endfacet
  facet normal 0 -0 1
    outer loop
      vertex 64.4752 14.6671 10.8
      vertex 64.7352 15.3475 10.8
      vertex 64.2511 15.3363 10.8
    endloop
  endfacet
  facet normal 0 0 1
    outer loop
      vertex 64.2511 15.3363 10.8
      vertex 63.8555 15.3272 10.8
      vertex 64.0503 14.6515 10.8
    endloop
  endfacet
  facet normal 0 0 1
    outer loop
      vertex 63.4337 14.6561 10.8
      vertex 63.6147 15.3413 10.8
      vertex 63.4676 15.3786 10.8
    endloop
  endfacet
  facet normal -0 0 1
    outer loop
      vertex 62.96 14.7741 10.8
      vertex 63.1042 14.7179 10.8
      vertex 63.3527 15.439 10.8
    endloop
  endfacet
  facet normal 0 0 1
    outer loop
      vertex 62.7177 14.9529 10.8
      vertex 63.3527 15.439 10.8
      vertex 63.2694 15.5291 10.8
    endloop
  endfacet
  facet normal 0 -0 1
    outer loop
      vertex 62.6193 15.0788 10.8
      vertex 63.2694 15.5291 10.8
      vertex 62.5383 15.2317 10.8
    endloop
  endfacet
  facet normal 0 -0 1
    outer loop
      vertex 62.5383 15.2317 10.8
      vertex 63.2164 15.6551 10.8
      vertex 62.4769 15.4135 10.8
    endloop
  endfacet
  facet normal 0 0 1
    outer loop
      vertex 63.2164 15.6551 10.8
      vertex 62.4551 15.8795 10.8
      vertex 62.4769 15.4135 10.8
    endloop
  endfacet
  facet normal 0 0 1
    outer loop
      vertex 62.6517 16.2775 10.8
      vertex 62.4551 15.8795 10.8
      vertex 63.2164 15.6551 10.8
    endloop
  endfacet
  facet normal 0 0 1
    outer loop
      vertex 63.0603 16.5977 10.8
      vertex 62.6517 16.2775 10.8
      vertex 63.3052 16.0308 10.8
    endloop
  endfacet
  facet normal 0 -0 1
    outer loop
      vertex 64.1018 16.3251 10.8
      vertex 64.289 16.9337 10.8
      vertex 63.6746 16.8298 10.8
    endloop
  endfacet
  facet normal 0 -0 1
    outer loop
      vertex 64.3404 16.2912 10.8
      vertex 64.7608 16.8854 10.8
      vertex 64.289 16.9337 10.8
    endloop
  endfacet
  facet normal 0 0 1
    outer loop
      vertex 64.5266 16.1799 10.8
      vertex 65.1184 16.675 10.8
      vertex 64.7608 16.8854 10.8
    endloop
  endfacet
  facet normal 0 0 1
    outer loop
      vertex 65.3905 16.2925 10.8
      vertex 65.1184 16.675 10.8
      vertex 64.6687 15.9941 10.8
    endloop
  endfacet
  facet normal 0 -0 1
    outer loop
      vertex 64.6687 15.9941 10.8
      vertex 65.1184 16.675 10.8
      vertex 64.5266 16.1799 10.8
    endloop
  endfacet
  facet normal 0 -0 1
    outer loop
      vertex 64.5266 16.1799 10.8
      vertex 64.7608 16.8854 10.8
      vertex 64.3404 16.2912 10.8
    endloop
  endfacet
  facet normal 0 -0 1
    outer loop
      vertex 72.183 16.5269 10.8
      vertex 72.3377 17.2354 10.8
      vertex 72.0131 16.5642 10.8
    endloop
  endfacet
  facet normal 0 0 1
    outer loop
      vertex 64.3404 16.2912 10.8
      vertex 64.289 16.9337 10.8
      vertex 64.1018 16.3251 10.8
    endloop
  endfacet
  facet normal 0 0 1
    outer loop
      vertex 73.0423 16.8579 10.8
      vertex 72.9129 16.9995 10.8
      vertex 72.4195 16.3652 10.8
    endloop
  endfacet
  facet normal 0 0 1
    outer loop
      vertex 64.1018 16.3251 10.8
      vertex 63.6746 16.8298 10.8
      vertex 63.8024 16.2787 10.8
    endloop
  endfacet
  facet normal 0 0 1
    outer loop
      vertex 63.6746 16.8298 10.8
      vertex 63.0603 16.5977 10.8
      vertex 63.8024 16.2787 10.8
    endloop
  endfacet
  facet normal 0 0 1
    outer loop
      vertex 71.5608 18.8414 10.8
      vertex 71.3736 18.2328 10.8
      vertex 71.6122 18.1989 10.8
    endloop
  endfacet
  facet normal 0 0 1
    outer loop
      vertex 63.0603 16.5977 10.8
      vertex 63.3052 16.0308 10.8
      vertex 63.8024 16.2787 10.8
    endloop
  endfacet
  facet normal 0 0 1
    outer loop
      vertex 62.6517 16.2775 10.8
      vertex 63.2164 15.6551 10.8
      vertex 63.3052 16.0308 10.8
    endloop
  endfacet
  facet normal 0 0 1
    outer loop
      vertex 63.2694 15.5291 10.8
      vertex 63.2164 15.6551 10.8
      vertex 62.5383 15.2317 10.8
    endloop
  endfacet
  facet normal 0 -0 1
    outer loop
      vertex 62.7177 14.9529 10.8
      vertex 63.2694 15.5291 10.8
      vertex 62.6193 15.0788 10.8
    endloop
  endfacet
  facet normal 0 -0 1
    outer loop
      vertex 62.8312 14.8519 10.8
      vertex 63.3527 15.439 10.8
      vertex 62.7177 14.9529 10.8
    endloop
  endfacet
  facet normal 0 -0 1
    outer loop
      vertex 62.96 14.7741 10.8
      vertex 63.3527 15.439 10.8
      vertex 62.8312 14.8519 10.8
    endloop
  endfacet
  facet normal 0 0 1
    outer loop
      vertex 65.1032 13.8982 10.8
      vertex 64.5289 13.6161 10.8
      vertex 65.3243 13.2832 10.8
    endloop
  endfacet
  facet normal 0 0 1
    outer loop
      vertex 63.8845 13.5883 10.8
      vertex 63.4815 12.9917 10.8
      vertex 64.0106 12.9291 10.8
    endloop
  endfacet
  facet normal 0 0 1
    outer loop
      vertex 63.1042 14.7179 10.8
      vertex 63.4676 15.3786 10.8
      vertex 63.3527 15.439 10.8
    endloop
  endfacet
  facet normal 0 -0 1
    outer loop
      vertex 63.2624 14.6797 10.8
      vertex 63.4676 15.3786 10.8
      vertex 63.1042 14.7179 10.8
    endloop
  endfacet
  facet normal 0 -0 1
    outer loop
      vertex 63.4337 14.6561 10.8
      vertex 63.4676 15.3786 10.8
      vertex 63.2624 14.6797 10.8
    endloop
  endfacet
  facet normal -0 0 1
    outer loop
      vertex 64.1728 13.558 10.8
      vertex 64.6597 13.0322 10.8
      vertex 64.5289 13.6161 10.8
    endloop
  endfacet
  facet normal 0 0 1
    outer loop
      vertex 63.6767 14.6468 10.8
      vertex 63.6147 15.3413 10.8
      vertex 63.4337 14.6561 10.8
    endloop
  endfacet
  facet normal 0 0 1
    outer loop
      vertex 63.8555 15.3272 10.8
      vertex 63.6147 15.3413 10.8
      vertex 63.6767 14.6468 10.8
    endloop
  endfacet
  facet normal 0 0 1
    outer loop
      vertex 63.8555 15.3272 10.8
      vertex 63.6767 14.6468 10.8
      vertex 64.0503 14.6515 10.8
    endloop
  endfacet
  facet normal 0 0 1
    outer loop
      vertex 64.4752 14.6671 10.8
      vertex 64.2511 15.3363 10.8
      vertex 64.0503 14.6515 10.8
    endloop
  endfacet
  facet normal 0 0 1
    outer loop
      vertex 65.0659 15.3277 10.8
      vertex 64.7352 15.3475 10.8
      vertex 64.7413 14.6565 10.8
    endloop
  endfacet
  facet normal 0 0 1
    outer loop
      vertex 64.5289 13.6161 10.8
      vertex 64.6597 13.0322 10.8
      vertex 65.3243 13.2832 10.8
    endloop
  endfacet
  facet normal 0 0 1
    outer loop
      vertex 65.0477 14.555 10.8
      vertex 65.6411 15.0918 10.8
      vertex 65.4868 15.2003 10.8
    endloop
  endfacet
  facet normal 0 0 1
    outer loop
      vertex 65.7706 14.9502 10.8
      vertex 65.1477 14.4575 10.8
      vertex 65.8734 14.7741 10.8
    endloop
  endfacet
  facet normal -0 0 1
    outer loop
      vertex 65.1477 14.4575 10.8
      vertex 65.2086 14.3203 10.8
      vertex 65.8734 14.7741 10.8
    endloop
  endfacet
  facet normal -0 0 1
    outer loop
      vertex 65.2086 14.3203 10.8
      vertex 65.9729 14.0575 10.8
      vertex 65.948 14.5618 10.8
    endloop
  endfacet
  facet normal 0 -0 1
    outer loop
      vertex 65.7635 13.6281 10.8
      vertex 65.9729 14.0575 10.8
      vertex 65.1032 13.8982 10.8
    endloop
  endfacet
  facet normal 0 0 1
    outer loop
      vertex 65.1032 13.8982 10.8
      vertex 65.9729 14.0575 10.8
      vertex 65.2086 14.3203 10.8
    endloop
  endfacet
  facet normal 0 0 1
    outer loop
      vertex 65.7635 13.6281 10.8
      vertex 65.1032 13.8982 10.8
      vertex 65.3243 13.2832 10.8
    endloop
  endfacet
  facet normal 0 0 1
    outer loop
      vertex 63.6554 13.7124 10.8
      vertex 63.4772 13.936 10.8
      vertex 63.0676 13.2208 10.8
    endloop
  endfacet
  facet normal 0 0 1
    outer loop
      vertex 63.6554 13.7124 10.8
      vertex 63.0676 13.2208 10.8
      vertex 63.4815 12.9917 10.8
    endloop
  endfacet
  facet normal -0 0 1
    outer loop
      vertex 62.7635 13.6173 10.8
      vertex 63.0676 13.2208 10.8
      vertex 63.4772 13.936 10.8
    endloop
  endfacet
  facet normal 0 0 1
    outer loop
      vertex 63.6554 13.7124 10.8
      vertex 63.4815 12.9917 10.8
      vertex 63.8845 13.5883 10.8
    endloop
  endfacet
  facet normal 0 0 1
    outer loop
      vertex 63.8845 13.5883 10.8
      vertex 64.0106 12.9291 10.8
      vertex 64.1728 13.558 10.8
    endloop
  endfacet
  facet normal 0 0 1
    outer loop
      vertex 64.0106 12.9291 10.8
      vertex 64.6597 13.0322 10.8
      vertex 64.1728 13.558 10.8
    endloop
  endfacet
  facet normal 0 -0 1
    outer loop
      vertex 70.103 16.7596 10.8
      vertex 70.6245 17.3468 10.8
      vertex 69.9894 16.8606 10.8
    endloop
  endfacet
  facet normal 0 0 1
    outer loop
      vertex 72.3194 16.4627 10.8
      vertex 72.7585 17.108 10.8
      vertex 72.5699 17.1858 10.8
    endloop
  endfacet
  facet normal 0 0 1
    outer loop
      vertex 72.183 16.5269 10.8
      vertex 72.5699 17.1858 10.8
      vertex 72.3377 17.2354 10.8
    endloop
  endfacet
  facet normal -0 0 1
    outer loop
      vertex 72.183 16.5269 10.8
      vertex 72.3194 16.4627 10.8
      vertex 72.5699 17.1858 10.8
    endloop
  endfacet
  facet normal 0 0 1
    outer loop
      vertex 72.0131 16.5642 10.8
      vertex 72.007 17.2552 10.8
      vertex 71.747 16.5748 10.8
    endloop
  endfacet
  facet normal 0 0 1
    outer loop
      vertex 73.2197 16.4696 10.8
      vertex 72.4803 16.228 10.8
      vertex 73.2447 15.9653 10.8
    endloop
  endfacet
  facet normal -0 0 1
    outer loop
      vertex 71.5228 17.244 10.8
      vertex 71.747 16.5748 10.8
      vertex 72.007 17.2552 10.8
    endloop
  endfacet
  facet normal 0 0 1
    outer loop
      vertex 71.3221 16.5592 10.8
      vertex 71.747 16.5748 10.8
      vertex 71.5228 17.244 10.8
    endloop
  endfacet
  facet normal -0 0 1
    outer loop
      vertex 70.2318 16.6818 10.8
      vertex 70.3759 16.6256 10.8
      vertex 70.6245 17.3468 10.8
    endloop
  endfacet
  facet normal -0 0 1
    outer loop
      vertex 69.81 17.1394 10.8
      vertex 69.891 16.9865 10.8
      vertex 70.5411 17.4368 10.8
    endloop
  endfacet
  facet normal -0 0 1
    outer loop
      vertex 69.891 16.9865 10.8
      vertex 69.9894 16.8606 10.8
      vertex 70.5411 17.4368 10.8
    endloop
  endfacet
  facet normal 0 -0 1
    outer loop
      vertex 69.81 17.1394 10.8
      vertex 70.4881 17.5628 10.8
      vertex 69.7487 17.3212 10.8
    endloop
  endfacet
  facet normal 0 0 1
    outer loop
      vertex 70.3393 15.1285 10.8
      vertex 70.9271 15.6202 10.8
      vertex 70.7489 15.8437 10.8
    endloop
  endfacet
  facet normal 0 0 1
    outer loop
      vertex 69.7268 17.7872 10.8
      vertex 69.7487 17.3212 10.8
      vertex 70.4881 17.5628 10.8
    endloop
  endfacet
  facet normal 0 0 1
    outer loop
      vertex 66.6723 16.9197 10.8
      vertex 66.7111 13.6263 10.8
      vertex 67.3266 14.4256 10.8
    endloop
  endfacet
  facet normal 0 0 1
    outer loop
      vertex 70.4881 17.5628 10.8
      vertex 69.9234 18.1852 10.8
      vertex 69.7268 17.7872 10.8
    endloop
  endfacet
  facet normal -0 0 1
    outer loop
      vertex 68.7951 15.6095 10.8
      vertex 69.5448 15.3054 10.8
      vertex 69.5916 15.8111 10.8
    endloop
  endfacet
  facet normal 0 0 1
    outer loop
      vertex 70.3321 18.5054 10.8
      vertex 69.9234 18.1852 10.8
      vertex 70.577 17.9385 10.8
    endloop
  endfacet
  facet normal 0 0 1
    outer loop
      vertex 70.3321 18.5054 10.8
      vertex 70.577 17.9385 10.8
      vertex 71.0742 18.1864 10.8
    endloop
  endfacet
  facet normal 0 0 1
    outer loop
      vertex 70.9464 18.7375 10.8
      vertex 71.0742 18.1864 10.8
      vertex 71.3736 18.2328 10.8
    endloop
  endfacet
  facet normal -0 0 1
    outer loop
      vertex 70.9464 18.7375 10.8
      vertex 71.3736 18.2328 10.8
      vertex 71.5608 18.8414 10.8
    endloop
  endfacet
  facet normal 0 0 1
    outer loop
      vertex 70.9464 18.7375 10.8
      vertex 70.3321 18.5054 10.8
      vertex 71.0742 18.1864 10.8
    endloop
  endfacet
  facet normal 0 -0 1
    outer loop
      vertex 71.6122 18.1989 10.8
      vertex 72.0325 18.7931 10.8
      vertex 71.5608 18.8414 10.8
    endloop
  endfacet
  facet normal 0 0 1
    outer loop
      vertex 71.7984 18.0876 10.8
      vertex 72.3902 18.5827 10.8
      vertex 72.0325 18.7931 10.8
    endloop
  endfacet
  facet normal 0 0 1
    outer loop
      vertex 72.6622 18.2002 10.8
      vertex 72.3902 18.5827 10.8
      vertex 71.9405 17.9018 10.8
    endloop
  endfacet
  facet normal 0 -0 1
    outer loop
      vertex 71.9405 17.9018 10.8
      vertex 72.3902 18.5827 10.8
      vertex 71.7984 18.0876 10.8
    endloop
  endfacet
  facet normal 0 -0 1
    outer loop
      vertex 71.7984 18.0876 10.8
      vertex 72.0325 18.7931 10.8
      vertex 71.6122 18.1989 10.8
    endloop
  endfacet
  facet normal 0 0 1
    outer loop
      vertex 66.6723 16.9197 10.8
      vertex 65.7437 17.3139 10.8
      vertex 66.7111 13.6263 10.8
    endloop
  endfacet
  facet normal 0 0 1
    outer loop
      vertex 68.687 14.2048 10.8
      vertex 67.9809 14.5972 10.8
      vertex 68.2029 14.0177 10.8
    endloop
  endfacet
  facet normal 0 0 1
    outer loop
      vertex 68.6437 17.5726 10.8
      vertex 68.5154 16.6595 10.8
      vertex 69.1764 17.1015 10.8
    endloop
  endfacet
  facet normal 0 0 1
    outer loop
      vertex 70.577 17.9385 10.8
      vertex 69.9234 18.1852 10.8
      vertex 70.4881 17.5628 10.8
    endloop
  endfacet
  facet normal 0 0 1
    outer loop
      vertex 70.5411 17.4368 10.8
      vertex 70.4881 17.5628 10.8
      vertex 69.81 17.1394 10.8
    endloop
  endfacet
  facet normal 0 -0 1
    outer loop
      vertex 70.2318 16.6818 10.8
      vertex 70.6245 17.3468 10.8
      vertex 70.103 16.7596 10.8
    endloop
  endfacet
  facet normal 0 0 1
    outer loop
      vertex 69.5448 15.3054 10.8
      vertex 68.6814 15.1474 10.8
      vertex 69.373 14.8593 10.8
    endloop
  endfacet
  facet normal 0 0 1
    outer loop
      vertex 72.3749 15.8059 10.8
      vertex 71.8007 15.5238 10.8
      vertex 72.5961 15.1909 10.8
    endloop
  endfacet
  facet normal 0 0 1
    outer loop
      vertex 69.5916 15.8111 10.8
      vertex 69.5073 16.36 10.8
      vertex 68.7301 16.156 10.8
    endloop
  endfacet
  facet normal 0 0 1
    outer loop
      vertex 71.1562 15.496 10.8
      vertex 70.7533 14.8994 10.8
      vertex 71.2823 14.8368 10.8
    endloop
  endfacet
  facet normal 0 0 1
    outer loop
      vertex 70.3759 16.6256 10.8
      vertex 70.7393 17.2863 10.8
      vertex 70.6245 17.3468 10.8
    endloop
  endfacet
  facet normal 0 -0 1
    outer loop
      vertex 70.5342 16.5874 10.8
      vertex 70.7393 17.2863 10.8
      vertex 70.3759 16.6256 10.8
    endloop
  endfacet
  facet normal 0 -0 1
    outer loop
      vertex 70.7054 16.5638 10.8
      vertex 70.7393 17.2863 10.8
      vertex 70.5342 16.5874 10.8
    endloop
  endfacet
  facet normal -0 0 1
    outer loop
      vertex 71.4446 15.4657 10.8
      vertex 71.9315 14.9399 10.8
      vertex 71.8007 15.5238 10.8
    endloop
  endfacet
  facet normal 0 0 1
    outer loop
      vertex 70.9484 16.5545 10.8
      vertex 70.8865 17.249 10.8
      vertex 70.7054 16.5638 10.8
    endloop
  endfacet
  facet normal 0 0 1
    outer loop
      vertex 71.1273 17.2349 10.8
      vertex 70.8865 17.249 10.8
      vertex 70.9484 16.5545 10.8
    endloop
  endfacet
  facet normal 0 0 1
    outer loop
      vertex 71.1273 17.2349 10.8
      vertex 70.9484 16.5545 10.8
      vertex 71.3221 16.5592 10.8
    endloop
  endfacet
  facet normal 0 0 1
    outer loop
      vertex 72.4803 16.228 10.8
      vertex 72.3749 15.8059 10.8
      vertex 73.2447 15.9653 10.8
    endloop
  endfacet
  facet normal 0 -0 1
    outer loop
      vertex 72.0131 16.5642 10.8
      vertex 72.3377 17.2354 10.8
      vertex 72.007 17.2552 10.8
    endloop
  endfacet
  facet normal -0 0 1
    outer loop
      vertex 72.3194 16.4627 10.8
      vertex 72.4195 16.3652 10.8
      vertex 72.9129 16.9995 10.8
    endloop
  endfacet
  facet normal 0 0 1
    outer loop
      vertex 72.7585 17.108 10.8
      vertex 72.3194 16.4627 10.8
      vertex 72.9129 16.9995 10.8
    endloop
  endfacet
  facet normal 0 0 1
    outer loop
      vertex 73.0423 16.8579 10.8
      vertex 72.4195 16.3652 10.8
      vertex 73.1452 16.6818 10.8
    endloop
  endfacet
  facet normal -0 0 1
    outer loop
      vertex 72.4195 16.3652 10.8
      vertex 72.4803 16.228 10.8
      vertex 73.1452 16.6818 10.8
    endloop
  endfacet
  facet normal 0 0 1
    outer loop
      vertex 73.2197 16.4696 10.8
      vertex 73.1452 16.6818 10.8
      vertex 72.4803 16.228 10.8
    endloop
  endfacet
  facet normal -0 0 1
    outer loop
      vertex 72.3749 15.8059 10.8
      vertex 73.0353 15.5358 10.8
      vertex 73.2447 15.9653 10.8
    endloop
  endfacet
  facet normal 0 0 1
    outer loop
      vertex 73.0353 15.5358 10.8
      vertex 72.3749 15.8059 10.8
      vertex 72.5961 15.1909 10.8
    endloop
  endfacet
  facet normal 0 0 1
    outer loop
      vertex 72.5961 15.1909 10.8
      vertex 71.8007 15.5238 10.8
      vertex 71.9315 14.9399 10.8
    endloop
  endfacet
  facet normal 0 0 1
    outer loop
      vertex 68.6814 15.1474 10.8
      vertex 68.4047 14.8 10.8
      vertex 69.0821 14.4889 10.8
    endloop
  endfacet
  facet normal 0 -0 1
    outer loop
      vertex 70.3393 15.1285 10.8
      vertex 70.7489 15.8437 10.8
      vertex 70.0353 15.525 10.8
    endloop
  endfacet
  facet normal 0 0 1
    outer loop
      vertex 69.5073 16.36 10.8
      vertex 69.1764 17.1015 10.8
      vertex 68.5154 16.6595 10.8
    endloop
  endfacet
  facet normal 0 0 1
    outer loop
      vertex 70.7533 14.8994 10.8
      vertex 71.1562 15.496 10.8
      vertex 70.9271 15.6202 10.8
    endloop
  endfacet
  facet normal 0 -0 1
    outer loop
      vertex 71.2823 14.8368 10.8
      vertex 71.4446 15.4657 10.8
      vertex 71.1562 15.496 10.8
    endloop
  endfacet
  facet normal 0 0 1
    outer loop
      vertex 67.9356 17.7634 10.8
      vertex 68.1833 16.9819 10.8
      vertex 68.6437 17.5726 10.8
    endloop
  endfacet
  facet normal 0 0 1
    outer loop
      vertex 67.0785 17.6641 10.8
      vertex 67.2193 17.0632 10.8
      vertex 67.7469 17.1181 10.8
    endloop
  endfacet
  facet normal 0 0 1
    outer loop
      vertex 66.6723 16.9197 10.8
      vertex 67.2193 17.0632 10.8
      vertex 67.0785 17.6641 10.8
    endloop
  endfacet
  facet normal 0 0 1
    outer loop
      vertex 67.0785 17.6641 10.8
      vertex 65.7437 17.3139 10.8
      vertex 66.6723 16.9197 10.8
    endloop
  endfacet
  facet normal 0 0 1
    outer loop
      vertex 67.3266 14.4256 10.8
      vertex 66.7111 13.6263 10.8
      vertex 68.2029 14.0177 10.8
    endloop
  endfacet
  facet normal 0 0 1
    outer loop
      vertex 67.9809 14.5972 10.8
      vertex 67.3266 14.4256 10.8
      vertex 68.2029 14.0177 10.8
    endloop
  endfacet
  facet normal 0 0 1
    outer loop
      vertex 67.9356 17.7634 10.8
      vertex 67.0785 17.6641 10.8
      vertex 67.7469 17.1181 10.8
    endloop
  endfacet
  facet normal 0 0 1
    outer loop
      vertex 67.9356 17.7634 10.8
      vertex 67.7469 17.1181 10.8
      vertex 68.1833 16.9819 10.8
    endloop
  endfacet
  facet normal 0 0 1
    outer loop
      vertex 68.6437 17.5726 10.8
      vertex 68.1833 16.9819 10.8
      vertex 68.5154 16.6595 10.8
    endloop
  endfacet
  facet normal 0 -0 1
    outer loop
      vertex 68.7301 16.156 10.8
      vertex 69.5073 16.36 10.8
      vertex 68.5154 16.6595 10.8
    endloop
  endfacet
  facet normal 0 -0 1
    outer loop
      vertex 68.7951 15.6095 10.8
      vertex 69.5916 15.8111 10.8
      vertex 68.7301 16.156 10.8
    endloop
  endfacet
  facet normal 0 0 1
    outer loop
      vertex 68.6814 15.1474 10.8
      vertex 69.5448 15.3054 10.8
      vertex 68.7951 15.6095 10.8
    endloop
  endfacet
  facet normal 0 -0 1
    outer loop
      vertex 69.0821 14.4889 10.8
      vertex 69.373 14.8593 10.8
      vertex 68.6814 15.1474 10.8
    endloop
  endfacet
  facet normal 0 0 1
    outer loop
      vertex 68.687 14.2048 10.8
      vertex 68.4047 14.8 10.8
      vertex 67.9809 14.5972 10.8
    endloop
  endfacet
  facet normal 0 -0 1
    outer loop
      vertex 68.687 14.2048 10.8
      vertex 69.0821 14.4889 10.8
      vertex 68.4047 14.8 10.8
    endloop
  endfacet
  facet normal 0.617616 -0.78648 0
    outer loop
      vertex 65.7635 13.6281 10
      vertex 65.3243 13.2832 10.8
      vertex 65.3243 13.2832 10
    endloop
  endfacet
  facet normal 0.617616 -0.78648 0
    outer loop
      vertex 65.7635 13.6281 10
      vertex 65.7635 13.6281 10.8
      vertex 65.3243 13.2832 10.8
    endloop
  endfacet
  facet normal 0.898821 -0.438316 0
    outer loop
      vertex 65.9729 14.0575 10
      vertex 65.7635 13.6281 10.8
      vertex 65.7635 13.6281 10
    endloop
  endfacet
  facet normal 0.898821 -0.438316 0
    outer loop
      vertex 65.9729 14.0575 10
      vertex 65.9729 14.0575 10.8
      vertex 65.7635 13.6281 10.8
    endloop
  endfacet
  facet normal 0.998783 0.0493153 0
    outer loop
      vertex 65.948 14.5618 10
      vertex 65.9729 14.0575 10.8
      vertex 65.9729 14.0575 10
    endloop
  endfacet
  facet normal 0.998783 0.0493153 -0
    outer loop
      vertex 65.948 14.5618 10
      vertex 65.948 14.5618 10.8
      vertex 65.9729 14.0575 10.8
    endloop
  endfacet
  facet normal 0.943449 0.331518 0
    outer loop
      vertex 65.8734 14.7741 10
      vertex 65.948 14.5618 10.8
      vertex 65.948 14.5618 10
    endloop
  endfacet
  facet normal 0.943449 0.331518 -0
    outer loop
      vertex 65.8734 14.7741 10
      vertex 65.8734 14.7741 10.8
      vertex 65.948 14.5618 10.8
    endloop
  endfacet
  facet normal 0.863619 0.504145 0
    outer loop
      vertex 65.7706 14.9502 10
      vertex 65.8734 14.7741 10.8
      vertex 65.8734 14.7741 10
    endloop
  endfacet
  facet normal 0.863619 0.504145 -0
    outer loop
      vertex 65.7706 14.9502 10
      vertex 65.7706 14.9502 10.8
      vertex 65.8734 14.7741 10.8
    endloop
  endfacet
  facet normal 0.737932 0.674875 0
    outer loop
      vertex 65.6411 15.0918 10
      vertex 65.7706 14.9502 10.8
      vertex 65.7706 14.9502 10
    endloop
  endfacet
  facet normal 0.737932 0.674875 -0
    outer loop
      vertex 65.6411 15.0918 10
      vertex 65.6411 15.0918 10.8
      vertex 65.7706 14.9502 10.8
    endloop
  endfacet
  facet normal 0.575204 0.81801 0
    outer loop
      vertex 65.4868 15.2003 10
      vertex 65.6411 15.0918 10.8
      vertex 65.6411 15.0918 10
    endloop
  endfacet
  facet normal 0.575204 0.81801 -0
    outer loop
      vertex 65.4868 15.2003 10
      vertex 65.4868 15.2003 10.8
      vertex 65.6411 15.0918 10.8
    endloop
  endfacet
  facet normal 0.381341 0.924434 0
    outer loop
      vertex 65.2982 15.2781 10
      vertex 65.4868 15.2003 10.8
      vertex 65.4868 15.2003 10
    endloop
  endfacet
  facet normal 0.381341 0.924434 -0
    outer loop
      vertex 65.2982 15.2781 10
      vertex 65.2982 15.2781 10.8
      vertex 65.4868 15.2003 10.8
    endloop
  endfacet
  facet normal 0.20881 0.977956 0
    outer loop
      vertex 65.0659 15.3277 10
      vertex 65.2982 15.2781 10.8
      vertex 65.2982 15.2781 10
    endloop
  endfacet
  facet normal 0.20881 0.977956 -0
    outer loop
      vertex 65.0659 15.3277 10
      vertex 65.0659 15.3277 10.8
      vertex 65.2982 15.2781 10.8
    endloop
  endfacet
  facet normal 0.059766 0.998212 0
    outer loop
      vertex 64.7352 15.3475 10
      vertex 65.0659 15.3277 10.8
      vertex 65.0659 15.3277 10
    endloop
  endfacet
  facet normal 0.059766 0.998212 -0
    outer loop
      vertex 64.7352 15.3475 10
      vertex 64.7352 15.3475 10.8
      vertex 65.0659 15.3277 10.8
    endloop
  endfacet
  facet normal -0.0231295 0.999732 0
    outer loop
      vertex 64.2511 15.3363 10
      vertex 64.7352 15.3475 10.8
      vertex 64.7352 15.3475 10
    endloop
  endfacet
  facet normal -0.0231295 0.999732 0
    outer loop
      vertex 64.2511 15.3363 10
      vertex 64.2511 15.3363 10.8
      vertex 64.7352 15.3475 10.8
    endloop
  endfacet
  facet normal -0.0229969 0.999736 0
    outer loop
      vertex 63.8555 15.3272 10
      vertex 64.2511 15.3363 10.8
      vertex 64.2511 15.3363 10
    endloop
  endfacet
  facet normal -0.0229969 0.999736 0
    outer loop
      vertex 63.8555 15.3272 10
      vertex 63.8555 15.3272 10.8
      vertex 64.2511 15.3363 10.8
    endloop
  endfacet
  facet normal 0.0584547 0.99829 0
    outer loop
      vertex 63.6147 15.3413 10
      vertex 63.8555 15.3272 10.8
      vertex 63.8555 15.3272 10
    endloop
  endfacet
  facet normal 0.0584547 0.99829 -0
    outer loop
      vertex 63.6147 15.3413 10
      vertex 63.6147 15.3413 10.8
      vertex 63.8555 15.3272 10.8
    endloop
  endfacet
  facet normal 0.24579 0.969323 0
    outer loop
      vertex 63.4676 15.3786 10
      vertex 63.6147 15.3413 10.8
      vertex 63.6147 15.3413 10
    endloop
  endfacet
  facet normal 0.24579 0.969323 -0
    outer loop
      vertex 63.4676 15.3786 10
      vertex 63.4676 15.3786 10.8
      vertex 63.6147 15.3413 10.8
    endloop
  endfacet
  facet normal 0.465302 0.885152 0
    outer loop
      vertex 63.3527 15.439 10
      vertex 63.4676 15.3786 10.8
      vertex 63.4676 15.3786 10
    endloop
  endfacet
  facet normal 0.465302 0.885152 -0
    outer loop
      vertex 63.3527 15.439 10
      vertex 63.3527 15.439 10.8
      vertex 63.4676 15.3786 10.8
    endloop
  endfacet
  facet normal 0.734272 0.678855 0
    outer loop
      vertex 63.2694 15.5291 10
      vertex 63.3527 15.439 10.8
      vertex 63.3527 15.439 10
    endloop
  endfacet
  facet normal 0.734272 0.678855 -0
    outer loop
      vertex 63.2694 15.5291 10
      vertex 63.2694 15.5291 10.8
      vertex 63.3527 15.439 10.8
    endloop
  endfacet
  facet normal 0.921773 0.38773 0
    outer loop
      vertex 63.2164 15.6551 10
      vertex 63.2694 15.5291 10.8
      vertex 63.2694 15.5291 10
    endloop
  endfacet
  facet normal 0.921773 0.38773 -0
    outer loop
      vertex 63.2164 15.6551 10
      vertex 63.2164 15.6551 10.8
      vertex 63.2694 15.5291 10.8
    endloop
  endfacet
  facet normal 0.973186 -0.230021 0
    outer loop
      vertex 63.3052 16.0308 10
      vertex 63.2164 15.6551 10.8
      vertex 63.2164 15.6551 10
    endloop
  endfacet
  facet normal 0.973186 -0.230021 0
    outer loop
      vertex 63.3052 16.0308 10
      vertex 63.3052 16.0308 10.8
      vertex 63.2164 15.6551 10.8
    endloop
  endfacet
  facet normal 0.446205 -0.894931 0
    outer loop
      vertex 63.8024 16.2787 10
      vertex 63.3052 16.0308 10.8
      vertex 63.3052 16.0308 10
    endloop
  endfacet
  facet normal 0.446205 -0.894931 0
    outer loop
      vertex 63.8024 16.2787 10
      vertex 63.8024 16.2787 10.8
      vertex 63.3052 16.0308 10.8
    endloop
  endfacet
  facet normal 0.153148 -0.988203 0
    outer loop
      vertex 64.1018 16.3251 10
      vertex 63.8024 16.2787 10.8
      vertex 63.8024 16.2787 10
    endloop
  endfacet
  facet normal 0.153148 -0.988203 0
    outer loop
      vertex 64.1018 16.3251 10
      vertex 64.1018 16.3251 10.8
      vertex 63.8024 16.2787 10.8
    endloop
  endfacet
  facet normal -0.140666 -0.990057 0
    outer loop
      vertex 64.3404 16.2912 10
      vertex 64.1018 16.3251 10.8
      vertex 64.1018 16.3251 10
    endloop
  endfacet
  facet normal -0.140666 -0.990057 0
    outer loop
      vertex 64.3404 16.2912 10
      vertex 64.3404 16.2912 10.8
      vertex 64.1018 16.3251 10.8
    endloop
  endfacet
  facet normal -0.513071 -0.858346 0
    outer loop
      vertex 64.5266 16.1799 10
      vertex 64.3404 16.2912 10.8
      vertex 64.3404 16.2912 10
    endloop
  endfacet
  facet normal -0.513071 -0.858346 0
    outer loop
      vertex 64.5266 16.1799 10
      vertex 64.5266 16.1799 10.8
      vertex 64.3404 16.2912 10.8
    endloop
  endfacet
  facet normal -0.794321 -0.607498 0
    outer loop
      vertex 64.6687 15.9941 10
      vertex 64.5266 16.1799 10.8
      vertex 64.5266 16.1799 10
    endloop
  endfacet
  facet normal -0.794321 -0.607498 0
    outer loop
      vertex 64.6687 15.9941 10
      vertex 64.6687 15.9941 10.8
      vertex 64.5266 16.1799 10.8
    endloop
  endfacet
  facet normal 0.38205 -0.924142 0
    outer loop
      vertex 65.3905 16.2925 10
      vertex 64.6687 15.9941 10.8
      vertex 64.6687 15.9941 10
    endloop
  endfacet
  facet normal 0.38205 -0.924142 0
    outer loop
      vertex 65.3905 16.2925 10
      vertex 65.3905 16.2925 10.8
      vertex 64.6687 15.9941 10.8
    endloop
  endfacet
  facet normal 0.814855 0.579665 0
    outer loop
      vertex 65.1184 16.675 10
      vertex 65.3905 16.2925 10.8
      vertex 65.3905 16.2925 10
    endloop
  endfacet
  facet normal 0.814855 0.579665 -0
    outer loop
      vertex 65.1184 16.675 10
      vertex 65.1184 16.675 10.8
      vertex 65.3905 16.2925 10.8
    endloop
  endfacet
  facet normal 0.507104 0.861885 0
    outer loop
      vertex 64.7608 16.8854 10
      vertex 65.1184 16.675 10.8
      vertex 65.1184 16.675 10
    endloop
  endfacet
  facet normal 0.507104 0.861885 -0
    outer loop
      vertex 64.7608 16.8854 10
      vertex 64.7608 16.8854 10.8
      vertex 65.1184 16.675 10.8
    endloop
  endfacet
  facet normal 0.101842 0.994801 0
    outer loop
      vertex 64.289 16.9337 10
      vertex 64.7608 16.8854 10.8
      vertex 64.7608 16.8854 10
    endloop
  endfacet
  facet normal 0.101842 0.994801 -0
    outer loop
      vertex 64.289 16.9337 10
      vertex 64.289 16.9337 10.8
      vertex 64.7608 16.8854 10.8
    endloop
  endfacet
  facet normal -0.166741 0.986001 0
    outer loop
      vertex 63.6746 16.8298 10
      vertex 64.289 16.9337 10.8
      vertex 64.289 16.9337 10
    endloop
  endfacet
  facet normal -0.166741 0.986001 0
    outer loop
      vertex 63.6746 16.8298 10
      vertex 63.6746 16.8298 10.8
      vertex 64.289 16.9337 10.8
    endloop
  endfacet
  facet normal -0.353442 0.935456 0
    outer loop
      vertex 63.0603 16.5977 10
      vertex 63.6746 16.8298 10.8
      vertex 63.6746 16.8298 10
    endloop
  endfacet
  facet normal -0.353442 0.935456 0
    outer loop
      vertex 63.0603 16.5977 10
      vertex 63.0603 16.5977 10.8
      vertex 63.6746 16.8298 10.8
    endloop
  endfacet
  facet normal -0.616817 0.787106 0
    outer loop
      vertex 62.6517 16.2775 10
      vertex 63.0603 16.5977 10.8
      vertex 63.0603 16.5977 10
    endloop
  endfacet
  facet normal -0.616817 0.787106 0
    outer loop
      vertex 62.6517 16.2775 10
      vertex 62.6517 16.2775 10.8
      vertex 63.0603 16.5977 10.8
    endloop
  endfacet
  facet normal -0.896579 0.442883 0
    outer loop
      vertex 62.4551 15.8795 10
      vertex 62.6517 16.2775 10.8
      vertex 62.6517 16.2775 10
    endloop
  endfacet
  facet normal -0.896579 0.442883 0
    outer loop
      vertex 62.4551 15.8795 10
      vertex 62.4551 15.8795 10.8
      vertex 62.6517 16.2775 10.8
    endloop
  endfacet
  facet normal -0.998908 -0.04673 0
    outer loop
      vertex 62.4769 15.4135 10
      vertex 62.4551 15.8795 10.8
      vertex 62.4551 15.8795 10
    endloop
  endfacet
  facet normal -0.998908 -0.04673 0
    outer loop
      vertex 62.4769 15.4135 10
      vertex 62.4769 15.4135 10.8
      vertex 62.4551 15.8795 10.8
    endloop
  endfacet
  facet normal -0.947425 -0.319977 0
    outer loop
      vertex 62.5383 15.2317 10
      vertex 62.4769 15.4135 10.8
      vertex 62.4769 15.4135 10
    endloop
  endfacet
  facet normal -0.947425 -0.319977 0
    outer loop
      vertex 62.5383 15.2317 10
      vertex 62.5383 15.2317 10.8
      vertex 62.4769 15.4135 10.8
    endloop
  endfacet
  facet normal -0.883661 -0.468127 0
    outer loop
      vertex 62.6193 15.0788 10
      vertex 62.5383 15.2317 10.8
      vertex 62.5383 15.2317 10
    endloop
  endfacet
  facet normal -0.883661 -0.468127 0
    outer loop
      vertex 62.6193 15.0788 10
      vertex 62.6193 15.0788 10.8
      vertex 62.5383 15.2317 10.8
    endloop
  endfacet
  facet normal -0.787901 -0.615802 0
    outer loop
      vertex 62.7177 14.9529 10
      vertex 62.6193 15.0788 10.8
      vertex 62.6193 15.0788 10
    endloop
  endfacet
  facet normal -0.787901 -0.615802 0
    outer loop
      vertex 62.7177 14.9529 10
      vertex 62.7177 14.9529 10.8
      vertex 62.6193 15.0788 10.8
    endloop
  endfacet
  facet normal -0.664772 -0.747046 0
    outer loop
      vertex 62.8312 14.8519 10
      vertex 62.7177 14.9529 10.8
      vertex 62.7177 14.9529 10
    endloop
  endfacet
  facet normal -0.664772 -0.747046 0
    outer loop
      vertex 62.8312 14.8519 10
      vertex 62.8312 14.8519 10.8
      vertex 62.7177 14.9529 10.8
    endloop
  endfacet
  facet normal -0.517034 -0.855965 0
    outer loop
      vertex 62.96 14.7741 10
      vertex 62.8312 14.8519 10.8
      vertex 62.8312 14.8519 10
    endloop
  endfacet
  facet normal -0.517034 -0.855965 0
    outer loop
      vertex 62.96 14.7741 10
      vertex 62.96 14.7741 10.8
      vertex 62.8312 14.8519 10.8
    endloop
  endfacet
  facet normal -0.363132 -0.931738 0
    outer loop
      vertex 63.1042 14.7179 10
      vertex 62.96 14.7741 10.8
      vertex 62.96 14.7741 10
    endloop
  endfacet
  facet normal -0.363132 -0.931738 0
    outer loop
      vertex 63.1042 14.7179 10
      vertex 63.1042 14.7179 10.8
      vertex 62.96 14.7741 10.8
    endloop
  endfacet
  facet normal -0.234721 -0.972063 0
    outer loop
      vertex 63.2624 14.6797 10
      vertex 63.1042 14.7179 10.8
      vertex 63.1042 14.7179 10
    endloop
  endfacet
  facet normal -0.234721 -0.972063 0
    outer loop
      vertex 63.2624 14.6797 10
      vertex 63.2624 14.6797 10.8
      vertex 63.1042 14.7179 10.8
    endloop
  endfacet
  facet normal -0.136481 -0.990643 0
    outer loop
      vertex 63.4337 14.6561 10
      vertex 63.2624 14.6797 10.8
      vertex 63.2624 14.6797 10
    endloop
  endfacet
  facet normal -0.136481 -0.990643 0
    outer loop
      vertex 63.4337 14.6561 10
      vertex 63.4337 14.6561 10.8
      vertex 63.2624 14.6797 10.8
    endloop
  endfacet
  facet normal -0.0382436 -0.999268 0
    outer loop
      vertex 63.6767 14.6468 10
      vertex 63.4337 14.6561 10.8
      vertex 63.4337 14.6561 10
    endloop
  endfacet
  facet normal -0.0382436 -0.999268 0
    outer loop
      vertex 63.6767 14.6468 10
      vertex 63.6767 14.6468 10.8
      vertex 63.4337 14.6561 10.8
    endloop
  endfacet
  facet normal 0.0125793 -0.999921 0
    outer loop
      vertex 64.0503 14.6515 10
      vertex 63.6767 14.6468 10.8
      vertex 63.6767 14.6468 10
    endloop
  endfacet
  facet normal 0.0125793 -0.999921 0
    outer loop
      vertex 64.0503 14.6515 10
      vertex 64.0503 14.6515 10.8
      vertex 63.6767 14.6468 10.8
    endloop
  endfacet
  facet normal 0.0366898 -0.999327 0
    outer loop
      vertex 64.4752 14.6671 10
      vertex 64.0503 14.6515 10.8
      vertex 64.0503 14.6515 10
    endloop
  endfacet
  facet normal 0.0366898 -0.999327 0
    outer loop
      vertex 64.4752 14.6671 10
      vertex 64.4752 14.6671 10.8
      vertex 64.0503 14.6515 10.8
    endloop
  endfacet
  facet normal -0.0398031 -0.999208 0
    outer loop
      vertex 64.7413 14.6565 10
      vertex 64.4752 14.6671 10.8
      vertex 64.4752 14.6671 10
    endloop
  endfacet
  facet normal -0.0398031 -0.999208 0
    outer loop
      vertex 64.7413 14.6565 10
      vertex 64.7413 14.6565 10.8
      vertex 64.4752 14.6671 10.8
    endloop
  endfacet
  facet normal -0.214434 -0.976738 0
    outer loop
      vertex 64.9112 14.6192 10
      vertex 64.7413 14.6565 10.8
      vertex 64.7413 14.6565 10
    endloop
  endfacet
  facet normal -0.214434 -0.976738 0
    outer loop
      vertex 64.9112 14.6192 10
      vertex 64.9112 14.6192 10.8
      vertex 64.7413 14.6565 10.8
    endloop
  endfacet
  facet normal -0.425605 -0.904909 0
    outer loop
      vertex 65.0477 14.555 10
      vertex 64.9112 14.6192 10.8
      vertex 64.9112 14.6192 10
    endloop
  endfacet
  facet normal -0.425605 -0.904909 0
    outer loop
      vertex 65.0477 14.555 10
      vertex 65.0477 14.555 10.8
      vertex 64.9112 14.6192 10.8
    endloop
  endfacet
  facet normal -0.6981 -0.716 0
    outer loop
      vertex 65.1477 14.4575 10
      vertex 65.0477 14.555 10.8
      vertex 65.0477 14.555 10
    endloop
  endfacet
  facet normal -0.6981 -0.716 0
    outer loop
      vertex 65.1477 14.4575 10
      vertex 65.1477 14.4575 10.8
      vertex 65.0477 14.555 10.8
    endloop
  endfacet
  facet normal -0.914004 -0.405706 0
    outer loop
      vertex 65.2086 14.3203 10
      vertex 65.1477 14.4575 10.8
      vertex 65.1477 14.4575 10
    endloop
  endfacet
  facet normal -0.914004 -0.405706 0
    outer loop
      vertex 65.2086 14.3203 10
      vertex 65.2086 14.3203 10.8
      vertex 65.1477 14.4575 10.8
    endloop
  endfacet
  facet normal -0.97021 0.242265 0
    outer loop
      vertex 65.1032 13.8982 10
      vertex 65.2086 14.3203 10.8
      vertex 65.2086 14.3203 10
    endloop
  endfacet
  facet normal -0.97021 0.242265 0
    outer loop
      vertex 65.1032 13.8982 10
      vertex 65.1032 13.8982 10.8
      vertex 65.2086 14.3203 10.8
    endloop
  endfacet
  facet normal -0.440888 0.897562 0
    outer loop
      vertex 64.5289 13.6161 10
      vertex 65.1032 13.8982 10.8
      vertex 65.1032 13.8982 10
    endloop
  endfacet
  facet normal -0.440888 0.897562 0
    outer loop
      vertex 64.5289 13.6161 10
      vertex 64.5289 13.6161 10.8
      vertex 65.1032 13.8982 10.8
    endloop
  endfacet
  facet normal -0.161027 0.98695 0
    outer loop
      vertex 64.1728 13.558 10
      vertex 64.5289 13.6161 10.8
      vertex 64.5289 13.6161 10
    endloop
  endfacet
  facet normal -0.161027 0.98695 0
    outer loop
      vertex 64.1728 13.558 10
      vertex 64.1728 13.558 10.8
      vertex 64.5289 13.6161 10.8
    endloop
  endfacet
  facet normal 0.104523 0.994522 0
    outer loop
      vertex 63.8845 13.5883 10
      vertex 64.1728 13.558 10.8
      vertex 64.1728 13.558 10
    endloop
  endfacet
  facet normal 0.104523 0.994522 -0
    outer loop
      vertex 63.8845 13.5883 10
      vertex 63.8845 13.5883 10.8
      vertex 64.1728 13.558 10.8
    endloop
  endfacet
  facet normal 0.476296 0.879285 0
    outer loop
      vertex 63.6554 13.7124 10
      vertex 63.8845 13.5883 10.8
      vertex 63.8845 13.5883 10
    endloop
  endfacet
  facet normal 0.476296 0.879285 -0
    outer loop
      vertex 63.6554 13.7124 10
      vertex 63.6554 13.7124 10.8
      vertex 63.8845 13.5883 10.8
    endloop
  endfacet
  facet normal 0.782028 0.623244 0
    outer loop
      vertex 63.4772 13.936 10
      vertex 63.6554 13.7124 10.8
      vertex 63.6554 13.7124 10
    endloop
  endfacet
  facet normal 0.782028 0.623244 -0
    outer loop
      vertex 63.4772 13.936 10
      vertex 63.4772 13.936 10.8
      vertex 63.6554 13.7124 10.8
    endloop
  endfacet
  facet normal -0.40774 0.913098 0
    outer loop
      vertex 62.7635 13.6173 10
      vertex 63.4772 13.936 10.8
      vertex 63.4772 13.936 10
    endloop
  endfacet
  facet normal -0.40774 0.913098 0
    outer loop
      vertex 62.7635 13.6173 10
      vertex 62.7635 13.6173 10.8
      vertex 63.4772 13.936 10.8
    endloop
  endfacet
  facet normal -0.793494 -0.608579 0
    outer loop
      vertex 63.0676 13.2208 10
      vertex 62.7635 13.6173 10.8
      vertex 62.7635 13.6173 10
    endloop
  endfacet
  facet normal -0.793494 -0.608579 0
    outer loop
      vertex 63.0676 13.2208 10
      vertex 63.0676 13.2208 10.8
      vertex 62.7635 13.6173 10.8
    endloop
  endfacet
  facet normal -0.484278 -0.874914 0
    outer loop
      vertex 63.4815 12.9917 10
      vertex 63.0676 13.2208 10.8
      vertex 63.0676 13.2208 10
    endloop
  endfacet
  facet normal -0.484278 -0.874914 0
    outer loop
      vertex 63.4815 12.9917 10
      vertex 63.4815 12.9917 10.8
      vertex 63.0676 13.2208 10.8
    endloop
  endfacet
  facet normal -0.117495 -0.993074 0
    outer loop
      vertex 64.0106 12.9291 10
      vertex 63.4815 12.9917 10.8
      vertex 63.4815 12.9917 10
    endloop
  endfacet
  facet normal -0.117495 -0.993074 0
    outer loop
      vertex 64.0106 12.9291 10
      vertex 64.0106 12.9291 10.8
      vertex 63.4815 12.9917 10.8
    endloop
  endfacet
  facet normal 0.156869 -0.987619 0
    outer loop
      vertex 64.6597 13.0322 10
      vertex 64.0106 12.9291 10.8
      vertex 64.0106 12.9291 10
    endloop
  endfacet
  facet normal 0.156869 -0.987619 0
    outer loop
      vertex 64.6597 13.0322 10
      vertex 64.6597 13.0322 10.8
      vertex 64.0106 12.9291 10.8
    endloop
  endfacet
  facet normal 0.353313 -0.935505 0
    outer loop
      vertex 65.3243 13.2832 10
      vertex 64.6597 13.0322 10.8
      vertex 64.6597 13.0322 10
    endloop
  endfacet
  facet normal 0.353313 -0.935505 0
    outer loop
      vertex 65.3243 13.2832 10
      vertex 65.3243 13.2832 10.8
      vertex 64.6597 13.0322 10.8
    endloop
  endfacet
  facet normal 0.617616 -0.78648 0
    outer loop
      vertex 73.0353 15.5358 10
      vertex 72.5961 15.1909 10.8
      vertex 72.5961 15.1909 10
    endloop
  endfacet
  facet normal 0.617616 -0.78648 0
    outer loop
      vertex 73.0353 15.5358 10
      vertex 73.0353 15.5358 10.8
      vertex 72.5961 15.1909 10.8
    endloop
  endfacet
  facet normal 0.898861 -0.438234 0
    outer loop
      vertex 73.2447 15.9653 10
      vertex 73.0353 15.5358 10.8
      vertex 73.0353 15.5358 10
    endloop
  endfacet
  facet normal 0.898861 -0.438234 0
    outer loop
      vertex 73.2447 15.9653 10
      vertex 73.2447 15.9653 10.8
      vertex 73.0353 15.5358 10.8
    endloop
  endfacet
  facet normal 0.998773 0.0495129 0
    outer loop
      vertex 73.2197 16.4696 10
      vertex 73.2447 15.9653 10.8
      vertex 73.2447 15.9653 10
    endloop
  endfacet
  facet normal 0.998773 0.0495129 -0
    outer loop
      vertex 73.2197 16.4696 10
      vertex 73.2197 16.4696 10.8
      vertex 73.2447 15.9653 10.8
    endloop
  endfacet
  facet normal 0.943539 0.331261 0
    outer loop
      vertex 73.1452 16.6818 10
      vertex 73.2197 16.4696 10.8
      vertex 73.2197 16.4696 10
    endloop
  endfacet
  facet normal 0.943539 0.331261 -0
    outer loop
      vertex 73.1452 16.6818 10
      vertex 73.1452 16.6818 10.8
      vertex 73.2197 16.4696 10.8
    endloop
  endfacet
  facet normal 0.863405 0.504511 0
    outer loop
      vertex 73.0423 16.8579 10
      vertex 73.1452 16.6818 10.8
      vertex 73.1452 16.6818 10
    endloop
  endfacet
  facet normal 0.863405 0.504511 -0
    outer loop
      vertex 73.0423 16.8579 10
      vertex 73.0423 16.8579 10.8
      vertex 73.1452 16.6818 10.8
    endloop
  endfacet
  facet normal 0.738192 0.674591 0
    outer loop
      vertex 72.9129 16.9995 10
      vertex 73.0423 16.8579 10.8
      vertex 73.0423 16.8579 10
    endloop
  endfacet
  facet normal 0.738192 0.674591 -0
    outer loop
      vertex 72.9129 16.9995 10
      vertex 72.9129 16.9995 10.8
      vertex 73.0423 16.8579 10.8
    endloop
  endfacet
  facet normal 0.574955 0.818185 0
    outer loop
      vertex 72.7585 17.108 10
      vertex 72.9129 16.9995 10.8
      vertex 72.9129 16.9995 10
    endloop
  endfacet
  facet normal 0.574955 0.818185 -0
    outer loop
      vertex 72.7585 17.108 10
      vertex 72.7585 17.108 10.8
      vertex 72.9129 16.9995 10.8
    endloop
  endfacet
  facet normal 0.381341 0.924434 0
    outer loop
      vertex 72.5699 17.1858 10
      vertex 72.7585 17.108 10.8
      vertex 72.7585 17.108 10
    endloop
  endfacet
  facet normal 0.381341 0.924434 -0
    outer loop
      vertex 72.5699 17.1858 10
      vertex 72.5699 17.1858 10.8
      vertex 72.7585 17.108 10.8
    endloop
  endfacet
  facet normal 0.208896 0.977938 0
    outer loop
      vertex 72.3377 17.2354 10
      vertex 72.5699 17.1858 10.8
      vertex 72.5699 17.1858 10
    endloop
  endfacet
  facet normal 0.208896 0.977938 -0
    outer loop
      vertex 72.3377 17.2354 10
      vertex 72.3377 17.2354 10.8
      vertex 72.5699 17.1858 10.8
    endloop
  endfacet
  facet normal 0.059766 0.998212 0
    outer loop
      vertex 72.007 17.2552 10
      vertex 72.3377 17.2354 10.8
      vertex 72.3377 17.2354 10
    endloop
  endfacet
  facet normal 0.059766 0.998212 -0
    outer loop
      vertex 72.007 17.2552 10
      vertex 72.007 17.2552 10.8
      vertex 72.3377 17.2354 10.8
    endloop
  endfacet
  facet normal -0.0231248 0.999733 0
    outer loop
      vertex 71.5228 17.244 10
      vertex 72.007 17.2552 10.8
      vertex 72.007 17.2552 10
    endloop
  endfacet
  facet normal -0.0231248 0.999733 0
    outer loop
      vertex 71.5228 17.244 10
      vertex 71.5228 17.244 10.8
      vertex 72.007 17.2552 10.8
    endloop
  endfacet
  facet normal -0.0230028 0.999735 0
    outer loop
      vertex 71.1273 17.2349 10
      vertex 71.5228 17.244 10.8
      vertex 71.5228 17.244 10
    endloop
  endfacet
  facet normal -0.0230028 0.999735 0
    outer loop
      vertex 71.1273 17.2349 10
      vertex 71.1273 17.2349 10.8
      vertex 71.5228 17.244 10.8
    endloop
  endfacet
  facet normal 0.0584547 0.99829 0
    outer loop
      vertex 70.8865 17.249 10
      vertex 71.1273 17.2349 10.8
      vertex 71.1273 17.2349 10
    endloop
  endfacet
  facet normal 0.0584547 0.99829 -0
    outer loop
      vertex 70.8865 17.249 10
      vertex 70.8865 17.249 10.8
      vertex 71.1273 17.2349 10.8
    endloop
  endfacet
  facet normal 0.245633 0.969363 0
    outer loop
      vertex 70.7393 17.2863 10
      vertex 70.8865 17.249 10.8
      vertex 70.8865 17.249 10
    endloop
  endfacet
  facet normal 0.245633 0.969363 -0
    outer loop
      vertex 70.7393 17.2863 10
      vertex 70.7393 17.2863 10.8
      vertex 70.8865 17.249 10.8
    endloop
  endfacet
  facet normal 0.466223 0.884667 0
    outer loop
      vertex 70.6245 17.3468 10
      vertex 70.7393 17.2863 10.8
      vertex 70.7393 17.2863 10
    endloop
  endfacet
  facet normal 0.466223 0.884667 -0
    outer loop
      vertex 70.6245 17.3468 10
      vertex 70.6245 17.3468 10.8
      vertex 70.7393 17.2863 10.8
    endloop
  endfacet
  facet normal 0.73349 0.679701 0
    outer loop
      vertex 70.5411 17.4368 10
      vertex 70.6245 17.3468 10.8
      vertex 70.6245 17.3468 10
    endloop
  endfacet
  facet normal 0.73349 0.679701 -0
    outer loop
      vertex 70.5411 17.4368 10
      vertex 70.5411 17.4368 10.8
      vertex 70.6245 17.3468 10.8
    endloop
  endfacet
  facet normal 0.921773 0.38773 0
    outer loop
      vertex 70.4881 17.5628 10
      vertex 70.5411 17.4368 10.8
      vertex 70.5411 17.4368 10
    endloop
  endfacet
  facet normal 0.921773 0.38773 -0
    outer loop
      vertex 70.4881 17.5628 10
      vertex 70.4881 17.5628 10.8
      vertex 70.5411 17.4368 10.8
    endloop
  endfacet
  facet normal 0.973128 -0.230266 0
    outer loop
      vertex 70.577 17.9385 10
      vertex 70.4881 17.5628 10.8
      vertex 70.4881 17.5628 10
    endloop
  endfacet
  facet normal 0.973128 -0.230266 0
    outer loop
      vertex 70.577 17.9385 10
      vertex 70.577 17.9385 10.8
      vertex 70.4881 17.5628 10.8
    endloop
  endfacet
  facet normal 0.446205 -0.894931 0
    outer loop
      vertex 71.0742 18.1864 10
      vertex 70.577 17.9385 10.8
      vertex 70.577 17.9385 10
    endloop
  endfacet
  facet normal 0.446205 -0.894931 0
    outer loop
      vertex 71.0742 18.1864 10
      vertex 71.0742 18.1864 10.8
      vertex 70.577 17.9385 10.8
    endloop
  endfacet
  facet normal 0.153148 -0.988203 0
    outer loop
      vertex 71.3736 18.2328 10
      vertex 71.0742 18.1864 10.8
      vertex 71.0742 18.1864 10
    endloop
  endfacet
  facet normal 0.153148 -0.988203 0
    outer loop
      vertex 71.3736 18.2328 10
      vertex 71.3736 18.2328 10.8
      vertex 71.0742 18.1864 10.8
    endloop
  endfacet
  facet normal -0.140666 -0.990057 0
    outer loop
      vertex 71.6122 18.1989 10
      vertex 71.3736 18.2328 10.8
      vertex 71.3736 18.2328 10
    endloop
  endfacet
  facet normal -0.140666 -0.990057 0
    outer loop
      vertex 71.6122 18.1989 10
      vertex 71.6122 18.1989 10.8
      vertex 71.3736 18.2328 10.8
    endloop
  endfacet
  facet normal -0.513071 -0.858346 0
    outer loop
      vertex 71.7984 18.0876 10
      vertex 71.6122 18.1989 10.8
      vertex 71.6122 18.1989 10
    endloop
  endfacet
  facet normal -0.513071 -0.858346 0
    outer loop
      vertex 71.7984 18.0876 10
      vertex 71.7984 18.0876 10.8
      vertex 71.6122 18.1989 10.8
    endloop
  endfacet
  facet normal -0.794321 -0.607498 0
    outer loop
      vertex 71.9405 17.9018 10
      vertex 71.7984 18.0876 10.8
      vertex 71.7984 18.0876 10
    endloop
  endfacet
  facet normal -0.794321 -0.607498 0
    outer loop
      vertex 71.9405 17.9018 10
      vertex 71.9405 17.9018 10.8
      vertex 71.7984 18.0876 10.8
    endloop
  endfacet
  facet normal 0.382095 -0.924123 0
    outer loop
      vertex 72.6622 18.2002 10
      vertex 71.9405 17.9018 10.8
      vertex 71.9405 17.9018 10
    endloop
  endfacet
  facet normal 0.382095 -0.924123 0
    outer loop
      vertex 72.6622 18.2002 10
      vertex 72.6622 18.2002 10.8
      vertex 71.9405 17.9018 10.8
    endloop
  endfacet
  facet normal 0.814955 0.579524 0
    outer loop
      vertex 72.3902 18.5827 10
      vertex 72.6622 18.2002 10.8
      vertex 72.6622 18.2002 10
    endloop
  endfacet
  facet normal 0.814955 0.579524 -0
    outer loop
      vertex 72.3902 18.5827 10
      vertex 72.3902 18.5827 10.8
      vertex 72.6622 18.2002 10.8
    endloop
  endfacet
  facet normal 0.506999 0.861947 0
    outer loop
      vertex 72.0325 18.7931 10
      vertex 72.3902 18.5827 10.8
      vertex 72.3902 18.5827 10
    endloop
  endfacet
  facet normal 0.506999 0.861947 -0
    outer loop
      vertex 72.0325 18.7931 10
      vertex 72.0325 18.7931 10.8
      vertex 72.3902 18.5827 10.8
    endloop
  endfacet
  facet normal 0.101863 0.994798 0
    outer loop
      vertex 71.5608 18.8414 10
      vertex 72.0325 18.7931 10.8
      vertex 72.0325 18.7931 10
    endloop
  endfacet
  facet normal 0.101863 0.994798 -0
    outer loop
      vertex 71.5608 18.8414 10
      vertex 71.5608 18.8414 10.8
      vertex 72.0325 18.7931 10.8
    endloop
  endfacet
  facet normal -0.166741 0.986001 0
    outer loop
      vertex 70.9464 18.7375 10
      vertex 71.5608 18.8414 10.8
      vertex 71.5608 18.8414 10
    endloop
  endfacet
  facet normal -0.166741 0.986001 0
    outer loop
      vertex 70.9464 18.7375 10
      vertex 70.9464 18.7375 10.8
      vertex 71.5608 18.8414 10.8
    endloop
  endfacet
  facet normal -0.353442 0.935456 0
    outer loop
      vertex 70.3321 18.5054 10
      vertex 70.9464 18.7375 10.8
      vertex 70.9464 18.7375 10
    endloop
  endfacet
  facet normal -0.353442 0.935456 0
    outer loop
      vertex 70.3321 18.5054 10
      vertex 70.3321 18.5054 10.8
      vertex 70.9464 18.7375 10.8
    endloop
  endfacet
  facet normal -0.616724 0.78718 0
    outer loop
      vertex 69.9234 18.1852 10
      vertex 70.3321 18.5054 10.8
      vertex 70.3321 18.5054 10
    endloop
  endfacet
  facet normal -0.616724 0.78718 0
    outer loop
      vertex 69.9234 18.1852 10
      vertex 69.9234 18.1852 10.8
      vertex 70.3321 18.5054 10.8
    endloop
  endfacet
  facet normal -0.896579 0.442883 0
    outer loop
      vertex 69.7268 17.7872 10
      vertex 69.9234 18.1852 10.8
      vertex 69.9234 18.1852 10
    endloop
  endfacet
  facet normal -0.896579 0.442883 0
    outer loop
      vertex 69.7268 17.7872 10
      vertex 69.7268 17.7872 10.8
      vertex 69.9234 18.1852 10.8
    endloop
  endfacet
  facet normal -0.998898 -0.0469439 0
    outer loop
      vertex 69.7487 17.3212 10
      vertex 69.7268 17.7872 10.8
      vertex 69.7268 17.7872 10
    endloop
  endfacet
  facet normal -0.998898 -0.0469439 0
    outer loop
      vertex 69.7487 17.3212 10
      vertex 69.7487 17.3212 10.8
      vertex 69.7268 17.7872 10.8
    endloop
  endfacet
  facet normal -0.947583 -0.31951 0
    outer loop
      vertex 69.81 17.1394 10
      vertex 69.7487 17.3212 10.8
      vertex 69.7487 17.3212 10
    endloop
  endfacet
  facet normal -0.947583 -0.31951 0
    outer loop
      vertex 69.81 17.1394 10
      vertex 69.81 17.1394 10.8
      vertex 69.7487 17.3212 10.8
    endloop
  endfacet
  facet normal -0.883661 -0.468127 0
    outer loop
      vertex 69.891 16.9865 10
      vertex 69.81 17.1394 10.8
      vertex 69.81 17.1394 10
    endloop
  endfacet
  facet normal -0.883661 -0.468127 0
    outer loop
      vertex 69.891 16.9865 10
      vertex 69.891 16.9865 10.8
      vertex 69.81 17.1394 10.8
    endloop
  endfacet
  facet normal -0.787901 -0.615802 0
    outer loop
      vertex 69.9894 16.8606 10
      vertex 69.891 16.9865 10.8
      vertex 69.891 16.9865 10
    endloop
  endfacet
  facet normal -0.787901 -0.615802 0
    outer loop
      vertex 69.9894 16.8606 10
      vertex 69.9894 16.8606 10.8
      vertex 69.891 16.9865 10.8
    endloop
  endfacet
  facet normal -0.664446 -0.747337 0
    outer loop
      vertex 70.103 16.7596 10
      vertex 69.9894 16.8606 10.8
      vertex 69.9894 16.8606 10
    endloop
  endfacet
  facet normal -0.664446 -0.747337 0
    outer loop
      vertex 70.103 16.7596 10
      vertex 70.103 16.7596 10.8
      vertex 69.9894 16.8606 10.8
    endloop
  endfacet
  facet normal -0.517034 -0.855965 0
    outer loop
      vertex 70.2318 16.6818 10
      vertex 70.103 16.7596 10.8
      vertex 70.103 16.7596 10
    endloop
  endfacet
  facet normal -0.517034 -0.855965 0
    outer loop
      vertex 70.2318 16.6818 10
      vertex 70.2318 16.6818 10.8
      vertex 70.103 16.7596 10.8
    endloop
  endfacet
  facet normal -0.363351 -0.931652 0
    outer loop
      vertex 70.3759 16.6256 10
      vertex 70.2318 16.6818 10.8
      vertex 70.2318 16.6818 10
    endloop
  endfacet
  facet normal -0.363351 -0.931652 0
    outer loop
      vertex 70.3759 16.6256 10
      vertex 70.3759 16.6256 10.8
      vertex 70.2318 16.6818 10.8
    endloop
  endfacet
  facet normal -0.234581 -0.972097 0
    outer loop
      vertex 70.5342 16.5874 10
      vertex 70.3759 16.6256 10.8
      vertex 70.3759 16.6256 10
    endloop
  endfacet
  facet normal -0.234581 -0.972097 0
    outer loop
      vertex 70.5342 16.5874 10
      vertex 70.5342 16.5874 10.8
      vertex 70.3759 16.6256 10.8
    endloop
  endfacet
  facet normal -0.136559 -0.990632 0
    outer loop
      vertex 70.7054 16.5638 10
      vertex 70.5342 16.5874 10.8
      vertex 70.5342 16.5874 10
    endloop
  endfacet
  facet normal -0.136559 -0.990632 0
    outer loop
      vertex 70.7054 16.5638 10
      vertex 70.7054 16.5638 10.8
      vertex 70.5342 16.5874 10.8
    endloop
  endfacet
  facet normal -0.0382436 -0.999268 0
    outer loop
      vertex 70.9484 16.5545 10
      vertex 70.7054 16.5638 10.8
      vertex 70.7054 16.5638 10
    endloop
  endfacet
  facet normal -0.0382436 -0.999268 0
    outer loop
      vertex 70.9484 16.5545 10
      vertex 70.9484 16.5545 10.8
      vertex 70.7054 16.5638 10.8
    endloop
  endfacet
  facet normal 0.0125759 -0.999921 0
    outer loop
      vertex 71.3221 16.5592 10
      vertex 70.9484 16.5545 10.8
      vertex 70.9484 16.5545 10
    endloop
  endfacet
  facet normal 0.0125759 -0.999921 0
    outer loop
      vertex 71.3221 16.5592 10
      vertex 71.3221 16.5592 10.8
      vertex 70.9484 16.5545 10.8
    endloop
  endfacet
  facet normal 0.0366898 -0.999327 0
    outer loop
      vertex 71.747 16.5748 10
      vertex 71.3221 16.5592 10.8
      vertex 71.3221 16.5592 10
    endloop
  endfacet
  facet normal 0.0366898 -0.999327 0
    outer loop
      vertex 71.747 16.5748 10
      vertex 71.747 16.5748 10.8
      vertex 71.3221 16.5592 10.8
    endloop
  endfacet
  facet normal -0.0398031 -0.999208 0
    outer loop
      vertex 72.0131 16.5642 10
      vertex 71.747 16.5748 10.8
      vertex 71.747 16.5748 10
    endloop
  endfacet
  facet normal -0.0398031 -0.999208 0
    outer loop
      vertex 72.0131 16.5642 10
      vertex 72.0131 16.5642 10.8
      vertex 71.747 16.5748 10.8
    endloop
  endfacet
  facet normal -0.214434 -0.976738 0
    outer loop
      vertex 72.183 16.5269 10
      vertex 72.0131 16.5642 10.8
      vertex 72.0131 16.5642 10
    endloop
  endfacet
  facet normal -0.214434 -0.976738 0
    outer loop
      vertex 72.183 16.5269 10
      vertex 72.183 16.5269 10.8
      vertex 72.0131 16.5642 10.8
    endloop
  endfacet
  facet normal -0.425861 -0.904789 0
    outer loop
      vertex 72.3194 16.4627 10
      vertex 72.183 16.5269 10.8
      vertex 72.183 16.5269 10
    endloop
  endfacet
  facet normal -0.425861 -0.904789 0
    outer loop
      vertex 72.3194 16.4627 10
      vertex 72.3194 16.4627 10.8
      vertex 72.183 16.5269 10.8
    endloop
  endfacet
  facet normal -0.697742 -0.716349 0
    outer loop
      vertex 72.4195 16.3652 10
      vertex 72.3194 16.4627 10.8
      vertex 72.3194 16.4627 10
    endloop
  endfacet
  facet normal -0.697742 -0.716349 0
    outer loop
      vertex 72.4195 16.3652 10
      vertex 72.4195 16.3652 10.8
      vertex 72.3194 16.4627 10.8
    endloop
  endfacet
  facet normal -0.914251 -0.405149 0
    outer loop
      vertex 72.4803 16.228 10
      vertex 72.4195 16.3652 10.8
      vertex 72.4195 16.3652 10
    endloop
  endfacet
  facet normal -0.914251 -0.405149 0
    outer loop
      vertex 72.4803 16.228 10
      vertex 72.4803 16.228 10.8
      vertex 72.4195 16.3652 10.8
    endloop
  endfacet
  facet normal -0.97021 0.242265 0
    outer loop
      vertex 72.3749 15.8059 10
      vertex 72.4803 16.228 10.8
      vertex 72.4803 16.228 10
    endloop
  endfacet
  facet normal -0.97021 0.242265 0
    outer loop
      vertex 72.3749 15.8059 10
      vertex 72.3749 15.8059 10.8
      vertex 72.4803 16.228 10.8
    endloop
  endfacet
  facet normal -0.44095 0.897532 0
    outer loop
      vertex 71.8007 15.5238 10
      vertex 72.3749 15.8059 10.8
      vertex 72.3749 15.8059 10
    endloop
  endfacet
  facet normal -0.44095 0.897532 0
    outer loop
      vertex 71.8007 15.5238 10
      vertex 71.8007 15.5238 10.8
      vertex 72.3749 15.8059 10.8
    endloop
  endfacet
  facet normal -0.161027 0.98695 0
    outer loop
      vertex 71.4446 15.4657 10
      vertex 71.8007 15.5238 10.8
      vertex 71.8007 15.5238 10
    endloop
  endfacet
  facet normal -0.161027 0.98695 0
    outer loop
      vertex 71.4446 15.4657 10
      vertex 71.4446 15.4657 10.8
      vertex 71.8007 15.5238 10.8
    endloop
  endfacet
  facet normal 0.104487 0.994526 0
    outer loop
      vertex 71.1562 15.496 10
      vertex 71.4446 15.4657 10.8
      vertex 71.4446 15.4657 10
    endloop
  endfacet
  facet normal 0.104487 0.994526 -0
    outer loop
      vertex 71.1562 15.496 10
      vertex 71.1562 15.496 10.8
      vertex 71.4446 15.4657 10.8
    endloop
  endfacet
  facet normal 0.476592 0.879125 0
    outer loop
      vertex 70.9271 15.6202 10
      vertex 71.1562 15.496 10.8
      vertex 71.1562 15.496 10
    endloop
  endfacet
  facet normal 0.476592 0.879125 -0
    outer loop
      vertex 70.9271 15.6202 10
      vertex 70.9271 15.6202 10.8
      vertex 71.1562 15.496 10.8
    endloop
  endfacet
  facet normal 0.781892 0.623414 0
    outer loop
      vertex 70.7489 15.8437 10
      vertex 70.9271 15.6202 10.8
      vertex 70.9271 15.6202 10
    endloop
  endfacet
  facet normal 0.781892 0.623414 -0
    outer loop
      vertex 70.7489 15.8437 10
      vertex 70.7489 15.8437 10.8
      vertex 70.9271 15.6202 10.8
    endloop
  endfacet
  facet normal -0.407788 0.913077 0
    outer loop
      vertex 70.0353 15.525 10
      vertex 70.7489 15.8437 10.8
      vertex 70.7489 15.8437 10
    endloop
  endfacet
  facet normal -0.407788 0.913077 0
    outer loop
      vertex 70.0353 15.525 10
      vertex 70.0353 15.525 10.8
      vertex 70.7489 15.8437 10.8
    endloop
  endfacet
  facet normal -0.79359 -0.608453 0
    outer loop
      vertex 70.3393 15.1285 10
      vertex 70.0353 15.525 10.8
      vertex 70.0353 15.525 10
    endloop
  endfacet
  facet normal -0.79359 -0.608453 0
    outer loop
      vertex 70.3393 15.1285 10
      vertex 70.3393 15.1285 10.8
      vertex 70.0353 15.525 10.8
    endloop
  endfacet
  facet normal -0.484189 -0.874964 0
    outer loop
      vertex 70.7533 14.8994 10
      vertex 70.3393 15.1285 10.8
      vertex 70.3393 15.1285 10
    endloop
  endfacet
  facet normal -0.484189 -0.874964 0
    outer loop
      vertex 70.7533 14.8994 10
      vertex 70.7533 14.8994 10.8
      vertex 70.3393 15.1285 10.8
    endloop
  endfacet
  facet normal -0.117517 -0.993071 0
    outer loop
      vertex 71.2823 14.8368 10
      vertex 70.7533 14.8994 10.8
      vertex 70.7533 14.8994 10
    endloop
  endfacet
  facet normal -0.117517 -0.993071 0
    outer loop
      vertex 71.2823 14.8368 10
      vertex 71.2823 14.8368 10.8
      vertex 70.7533 14.8994 10.8
    endloop
  endfacet
  facet normal 0.156845 -0.987623 0
    outer loop
      vertex 71.9315 14.9399 10
      vertex 71.2823 14.8368 10.8
      vertex 71.2823 14.8368 10
    endloop
  endfacet
  facet normal 0.156845 -0.987623 0
    outer loop
      vertex 71.9315 14.9399 10
      vertex 71.9315 14.9399 10.8
      vertex 71.2823 14.8368 10.8
    endloop
  endfacet
  facet normal 0.353313 -0.935505 0
    outer loop
      vertex 72.5961 15.1909 10
      vertex 71.9315 14.9399 10.8
      vertex 71.9315 14.9399 10
    endloop
  endfacet
  facet normal 0.353313 -0.935505 0
    outer loop
      vertex 72.5961 15.1909 10
      vertex 72.5961 15.1909 10.8
      vertex 71.9315 14.9399 10.8
    endloop
  endfacet
  facet normal 0.583801 -0.811897 0
    outer loop
      vertex 69.0821 14.4889 10
      vertex 68.687 14.2048 10.8
      vertex 68.687 14.2048 10
    endloop
  endfacet
  facet normal 0.583801 -0.811897 0
    outer loop
      vertex 69.0821 14.4889 10
      vertex 69.0821 14.4889 10.8
      vertex 68.687 14.2048 10.8
    endloop
  endfacet
  facet normal 0.786451 -0.617653 0
    outer loop
      vertex 69.373 14.8593 10
      vertex 69.0821 14.4889 10.8
      vertex 69.0821 14.4889 10
    endloop
  endfacet
  facet normal 0.786451 -0.617653 0
    outer loop
      vertex 69.373 14.8593 10
      vertex 69.373 14.8593 10.8
      vertex 69.0821 14.4889 10.8
    endloop
  endfacet
  facet normal 0.933189 -0.359386 0
    outer loop
      vertex 69.5448 15.3054 10
      vertex 69.373 14.8593 10.8
      vertex 69.373 14.8593 10
    endloop
  endfacet
  facet normal 0.933189 -0.359386 0
    outer loop
      vertex 69.5448 15.3054 10
      vertex 69.5448 15.3054 10.8
      vertex 69.373 14.8593 10.8
    endloop
  endfacet
  facet normal 0.995745 -0.0921512 0
    outer loop
      vertex 69.5916 15.8111 10
      vertex 69.5448 15.3054 10.8
      vertex 69.5448 15.3054 10
    endloop
  endfacet
  facet normal 0.995745 -0.0921512 0
    outer loop
      vertex 69.5916 15.8111 10
      vertex 69.5916 15.8111 10.8
      vertex 69.5448 15.3054 10.8
    endloop
  endfacet
  facet normal 0.988411 0.1518 0
    outer loop
      vertex 69.5073 16.36 10
      vertex 69.5916 15.8111 10.8
      vertex 69.5916 15.8111 10
    endloop
  endfacet
  facet normal 0.988411 0.1518 -0
    outer loop
      vertex 69.5073 16.36 10
      vertex 69.5073 16.36 10.8
      vertex 69.5916 15.8111 10.8
    endloop
  endfacet
  facet normal 0.913196 0.407521 0
    outer loop
      vertex 69.1764 17.1015 10
      vertex 69.5073 16.36 10.8
      vertex 69.5073 16.36 10
    endloop
  endfacet
  facet normal 0.913196 0.407521 -0
    outer loop
      vertex 69.1764 17.1015 10
      vertex 69.1764 17.1015 10.8
      vertex 69.5073 16.36 10.8
    endloop
  endfacet
  facet normal 0.662468 0.74909 0
    outer loop
      vertex 68.6437 17.5726 10
      vertex 69.1764 17.1015 10.8
      vertex 69.1764 17.1015 10
    endloop
  endfacet
  facet normal 0.662468 0.74909 -0
    outer loop
      vertex 68.6437 17.5726 10
      vertex 68.6437 17.5726 10.8
      vertex 69.1764 17.1015 10.8
    endloop
  endfacet
  facet normal 0.260174 0.965562 0
    outer loop
      vertex 67.9356 17.7634 10
      vertex 68.6437 17.5726 10.8
      vertex 68.6437 17.5726 10
    endloop
  endfacet
  facet normal 0.260174 0.965562 -0
    outer loop
      vertex 67.9356 17.7634 10
      vertex 67.9356 17.7634 10.8
      vertex 68.6437 17.5726 10.8
    endloop
  endfacet
  facet normal -0.115086 0.993356 0
    outer loop
      vertex 67.0785 17.6641 10
      vertex 67.9356 17.7634 10.8
      vertex 67.9356 17.7634 10
    endloop
  endfacet
  facet normal -0.115086 0.993356 0
    outer loop
      vertex 67.0785 17.6641 10
      vertex 67.0785 17.6641 10.8
      vertex 67.9356 17.7634 10.8
    endloop
  endfacet
  facet normal -0.253773 0.967264 0
    outer loop
      vertex 65.7437 17.3139 10
      vertex 67.0785 17.6641 10.8
      vertex 67.0785 17.6641 10
    endloop
  endfacet
  facet normal -0.253773 0.967264 0
    outer loop
      vertex 65.7437 17.3139 10
      vertex 65.7437 17.3139 10.8
      vertex 67.0785 17.6641 10.8
    endloop
  endfacet
  facet normal -0.967269 -0.253752 0
    outer loop
      vertex 66.7111 13.6263 10
      vertex 65.7437 17.3139 10.8
      vertex 65.7437 17.3139 10
    endloop
  endfacet
  facet normal -0.967269 -0.253752 0
    outer loop
      vertex 66.7111 13.6263 10
      vertex 66.7111 13.6263 10.8
      vertex 65.7437 17.3139 10.8
    endloop
  endfacet
  facet normal 0.253778 -0.967262 0
    outer loop
      vertex 68.2029 14.0177 10
      vertex 66.7111 13.6263 10.8
      vertex 66.7111 13.6263 10
    endloop
  endfacet
  facet normal 0.253778 -0.967262 0
    outer loop
      vertex 68.2029 14.0177 10
      vertex 68.2029 14.0177 10.8
      vertex 66.7111 13.6263 10.8
    endloop
  endfacet
  facet normal 0.360502 -0.932758 0
    outer loop
      vertex 68.687 14.2048 10
      vertex 68.2029 14.0177 10.8
      vertex 68.2029 14.0177 10
    endloop
  endfacet
  facet normal 0.360502 -0.932758 0
    outer loop
      vertex 68.687 14.2048 10
      vertex 68.687 14.2048 10.8
      vertex 68.2029 14.0177 10.8
    endloop
  endfacet
  facet normal 0.967269 0.253753 -0
    outer loop
      vertex 66.6723 16.9197 10
      vertex 66.6723 16.9197 10.8
      vertex 67.3266 14.4256 10
    endloop
  endfacet
  facet normal 0.967269 0.253753 0
    outer loop
      vertex 67.3266 14.4256 10.8
      vertex 67.3266 14.4256 10
      vertex 66.6723 16.9197 10.8
    endloop
  endfacet
  facet normal 0.253753 -0.967269 0
    outer loop
      vertex 67.2193 17.0632 10
      vertex 67.2193 17.0632 10.8
      vertex 66.6723 16.9197 10
    endloop
  endfacet
  facet normal 0.253753 -0.967269 0
    outer loop
      vertex 66.6723 16.9197 10.8
      vertex 66.6723 16.9197 10
      vertex 67.2193 17.0632 10.8
    endloop
  endfacet
  facet normal 0.103497 -0.99463 0
    outer loop
      vertex 67.7469 17.1181 10
      vertex 67.7469 17.1181 10.8
      vertex 67.2193 17.0632 10
    endloop
  endfacet
  facet normal 0.103497 -0.99463 0
    outer loop
      vertex 67.2193 17.0632 10.8
      vertex 67.2193 17.0632 10
      vertex 67.7469 17.1181 10.8
    endloop
  endfacet
  facet normal -0.297926 -0.954589 0
    outer loop
      vertex 68.1833 16.9819 10
      vertex 68.1833 16.9819 10.8
      vertex 67.7469 17.1181 10
    endloop
  endfacet
  facet normal -0.297926 -0.954589 -0
    outer loop
      vertex 67.7469 17.1181 10.8
      vertex 67.7469 17.1181 10
      vertex 68.1833 16.9819 10.8
    endloop
  endfacet
  facet normal -0.696551 -0.717508 0
    outer loop
      vertex 68.5154 16.6595 10
      vertex 68.5154 16.6595 10.8
      vertex 68.1833 16.9819 10
    endloop
  endfacet
  facet normal -0.696551 -0.717508 -0
    outer loop
      vertex 68.1833 16.9819 10.8
      vertex 68.1833 16.9819 10
      vertex 68.5154 16.6595 10.8
    endloop
  endfacet
  facet normal -0.919862 -0.392243 0
    outer loop
      vertex 68.7301 16.156 10
      vertex 68.7301 16.156 10.8
      vertex 68.5154 16.6595 10
    endloop
  endfacet
  facet normal -0.919862 -0.392243 -0
    outer loop
      vertex 68.5154 16.6595 10.8
      vertex 68.5154 16.6595 10
      vertex 68.7301 16.156 10.8
    endloop
  endfacet
  facet normal -0.993001 -0.118106 0
    outer loop
      vertex 68.7951 15.6095 10
      vertex 68.7951 15.6095 10.8
      vertex 68.7301 16.156 10
    endloop
  endfacet
  facet normal -0.993001 -0.118106 -0
    outer loop
      vertex 68.7301 16.156 10.8
      vertex 68.7301 16.156 10
      vertex 68.7951 15.6095 10.8
    endloop
  endfacet
  facet normal -0.971038 0.238925 0
    outer loop
      vertex 68.6814 15.1474 10
      vertex 68.6814 15.1474 10.8
      vertex 68.7951 15.6095 10
    endloop
  endfacet
  facet normal -0.971038 0.238925 0
    outer loop
      vertex 68.7951 15.6095 10.8
      vertex 68.7951 15.6095 10
      vertex 68.6814 15.1474 10.8
    endloop
  endfacet
  facet normal -0.782207 0.623019 0
    outer loop
      vertex 68.4047 14.8 10
      vertex 68.4047 14.8 10.8
      vertex 68.6814 15.1474 10
    endloop
  endfacet
  facet normal -0.782207 0.623019 0
    outer loop
      vertex 68.6814 15.1474 10.8
      vertex 68.6814 15.1474 10
      vertex 68.4047 14.8 10.8
    endloop
  endfacet
  facet normal -0.431651 0.902041 0
    outer loop
      vertex 67.9809 14.5972 10
      vertex 67.9809 14.5972 10.8
      vertex 68.4047 14.8 10
    endloop
  endfacet
  facet normal -0.431651 0.902041 0
    outer loop
      vertex 68.4047 14.8 10.8
      vertex 68.4047 14.8 10
      vertex 67.9809 14.5972 10.8
    endloop
  endfacet
  facet normal -0.253685 0.967287 0
    outer loop
      vertex 67.3266 14.4256 10
      vertex 67.3266 14.4256 10.8
      vertex 67.9809 14.5972 10
    endloop
  endfacet
  facet normal -0.253685 0.967287 0
    outer loop
      vertex 67.9809 14.5972 10.8
      vertex 67.9809 14.5972 10
      vertex 67.3266 14.4256 10.8
    endloop
  endfacet
endsolid OpenSCAD_Model
