solid OpenSCAD_Model
  facet normal 0 0 -1
    outer loop
      vertex 43.3301 196.769 10
      vertex 43.5966 197.819 10
      vertex 43.797 197.753 10
    endloop
  endfacet
  facet normal 0 0 -1
    outer loop
      vertex 43.4666 196.731 10
      vertex 43.797 197.753 10
      vertex 44.2165 197.521 10
    endloop
  endfacet
  facet normal 0 0 -1
    outer loop
      vertex 45.0522 199.666 10
      vertex 46.2461 199.859 10
      vertex 45.771 198.64 10
    endloop
  endfacet
  facet normal -0 0 -1
    outer loop
      vertex 43.0738 196.742 10
      vertex 42.9518 196.682 10
      vertex 42.3885 197.544 10
    endloop
  endfacet
  facet normal -0 0 -1
    outer loop
      vertex 42.9518 196.682 10
      vertex 42.8312 196.595 10
      vertex 42.2254 197.389 10
    endloop
  endfacet
  facet normal -0 0 -1
    outer loop
      vertex 47.3596 208.876 10
      vertex 46.339 206.258 10
      vertex 46.5659 209.186 10
    endloop
  endfacet
  facet normal 0 -0 -1
    outer loop
      vertex 42.2254 197.389 10
      vertex 42.8312 196.595 10
      vertex 42.0416 197.176 10
    endloop
  endfacet
  facet normal 0 -0 -1
    outer loop
      vertex 44.7311 200.897 10
      vertex 44.7595 199.855 10
      vertex 44.4761 200.038 10
    endloop
  endfacet
  facet normal 0 -0 -1
    outer loop
      vertex 42.3885 197.544 10
      vertex 42.9518 196.682 10
      vertex 42.2254 197.389 10
    endloop
  endfacet
  facet normal 0 -0 -1
    outer loop
      vertex 43.7639 201.559 10
      vertex 44.7311 200.897 10
      vertex 43.7179 200.541 10
    endloop
  endfacet
  facet normal 0 0 -1
    outer loop
      vertex 42.7118 196.482 10
      vertex 42.0416 197.176 10
      vertex 42.8312 196.595 10
    endloop
  endfacet
  facet normal 0 -0 -1
    outer loop
      vertex 42.5497 197.666 10
      vertex 43.0738 196.742 10
      vertex 42.3885 197.544 10
    endloop
  endfacet
  facet normal 0 0 -1
    outer loop
      vertex 41.8179 196.875 10
      vertex 42.7118 196.482 10
      vertex 42.571 196.312 10
    endloop
  endfacet
  facet normal 0 -0 -1
    outer loop
      vertex 43.0417 197.857 10
      vertex 43.1992 196.772 10
      vertex 42.8717 197.819 10
    endloop
  endfacet
  facet normal -0 0 -1
    outer loop
      vertex 42.571 196.312 10
      vertex 42.3859 196.053 10
      vertex 41.8179 196.875 10
    endloop
  endfacet
  facet normal 0 -0 -1
    outer loop
      vertex 41.8179 196.875 10
      vertex 42.3859 196.053 10
      vertex 41.5544 196.486 10
    endloop
  endfacet
  facet normal 0 0 -1
    outer loop
      vertex 41.5544 196.486 10
      vertex 42.3859 196.053 10
      vertex 42.1565 195.706 10
    endloop
  endfacet
  facet normal 0 0 -1
    outer loop
      vertex 41.1619 195.93 10
      vertex 41.336 196.165 10
      vertex 41.9478 195.408 10
    endloop
  endfacet
  facet normal 0 -0 -1
    outer loop
      vertex 41.0322 195.779 10
      vertex 41.6508 195.021 10
      vertex 40.9248 195.684 10
    endloop
  endfacet
  facet normal -0 0 -1
    outer loop
      vertex 41.5412 194.903 10
      vertex 41.4291 194.797 10
      vertex 40.8175 195.613 10
    endloop
  endfacet
  facet normal -0 0 -1
    outer loop
      vertex 41.1957 194.622 10
      vertex 41.0719 194.557 10
      vertex 40.7104 195.566 10
    endloop
  endfacet
  facet normal -0 0 -1
    outer loop
      vertex 40.943 194.507 10
      vertex 40.8081 194.473 10
      vertex 40.5999 195.545 10
    endloop
  endfacet
  facet normal -0 0 -1
    outer loop
      vertex 40.5999 195.545 10
      vertex 40.5175 194.454 10
      vertex 40.4826 195.553 10
    endloop
  endfacet
  facet normal 0 0 -1
    outer loop
      vertex 40.4826 195.553 10
      vertex 40.3616 194.471 10
      vertex 40.1984 194.509 10
    endloop
  endfacet
  facet normal 0 -0 -1
    outer loop
      vertex 40.3584 195.589 10
      vertex 40.4826 195.553 10
      vertex 40.028 194.567 10
    endloop
  endfacet
  facet normal 0 0 -1
    outer loop
      vertex 39.3665 195.08 10
      vertex 40.3584 195.589 10
      vertex 39.641 194.782 10
    endloop
  endfacet
  facet normal 0 0 -1
    outer loop
      vertex 39.641 194.782 10
      vertex 40.3584 195.589 10
      vertex 40.028 194.567 10
    endloop
  endfacet
  facet normal 0 0 -1
    outer loop
      vertex 39.3665 195.08 10
      vertex 39.2045 195.463 10
      vertex 40.0739 195.819 10
    endloop
  endfacet
  facet normal 0 0 -1
    outer loop
      vertex 40.0739 195.819 10
      vertex 39.1577 195.923 10
      vertex 40.0002 196.206 10
    endloop
  endfacet
  facet normal 0 0 -1
    outer loop
      vertex 39.2288 196.454 10
      vertex 39.4178 197.054 10
      vertex 40.1373 196.75 10
    endloop
  endfacet
  facet normal 0 -0 -1
    outer loop
      vertex 39.9401 198.019 10
      vertex 40.4012 197.216 10
      vertex 39.6669 197.6 10
    endloop
  endfacet
  facet normal 0 -0 -1
    outer loop
      vertex 40.2374 198.313 10
      vertex 40.5601 197.361 10
      vertex 39.9401 198.019 10
    endloop
  endfacet
  facet normal 0 0 -1
    outer loop
      vertex 40.2374 198.313 10
      vertex 40.7384 197.452 10
      vertex 40.5601 197.361 10
    endloop
  endfacet
  facet normal 0 0 -1
    outer loop
      vertex 40.574 198.492 10
      vertex 40.9379 197.494 10
      vertex 40.7384 197.452 10
    endloop
  endfacet
  facet normal 0 0 -1
    outer loop
      vertex 40.574 198.492 10
      vertex 40.9651 198.566 10
      vertex 40.9379 197.494 10
    endloop
  endfacet
  facet normal 0 0 -1
    outer loop
      vertex 41.1585 197.487 10
      vertex 40.9651 198.566 10
      vertex 41.4109 198.535 10
    endloop
  endfacet
  facet normal 0 0 -1
    outer loop
      vertex 40.9379 197.494 10
      vertex 40.9651 198.566 10
      vertex 41.1585 197.487 10
    endloop
  endfacet
  facet normal 0 0 -1
    outer loop
      vertex 43.7639 201.559 10
      vertex 43.7179 200.541 10
      vertex 42.805 201.164 10
    endloop
  endfacet
  facet normal 0 0 -1
    outer loop
      vertex 40.2374 198.313 10
      vertex 40.574 198.492 10
      vertex 40.7384 197.452 10
    endloop
  endfacet
  facet normal 0 0 -1
    outer loop
      vertex 39.9401 198.019 10
      vertex 40.5601 197.361 10
      vertex 40.4012 197.216 10
    endloop
  endfacet
  facet normal 0 0 -1
    outer loop
      vertex 48.0238 204.418 10
      vertex 46.339 206.258 10
      vertex 47.6305 205.755 10
    endloop
  endfacet
  facet normal 0 0 -1
    outer loop
      vertex 39.6669 197.6 10
      vertex 40.4012 197.216 10
      vertex 40.2603 197.013 10
    endloop
  endfacet
  facet normal 0 0 -1
    outer loop
      vertex 39.4178 197.054 10
      vertex 39.6669 197.6 10
      vertex 40.2603 197.013 10
    endloop
  endfacet
  facet normal 0 0 -1
    outer loop
      vertex 40.1373 196.75 10
      vertex 39.4178 197.054 10
      vertex 40.2603 197.013 10
    endloop
  endfacet
  facet normal 0 0 -1
    outer loop
      vertex 40.0002 196.206 10
      vertex 39.2288 196.454 10
      vertex 40.1373 196.75 10
    endloop
  endfacet
  facet normal -0 0 -1
    outer loop
      vertex 40.0002 196.206 10
      vertex 39.1577 195.923 10
      vertex 39.2288 196.454 10
    endloop
  endfacet
  facet normal -0 0 -1
    outer loop
      vertex 40.0739 195.819 10
      vertex 39.2045 195.463 10
      vertex 39.1577 195.923 10
    endloop
  endfacet
  facet normal -0 0 -1
    outer loop
      vertex 40.3584 195.589 10
      vertex 39.3665 195.08 10
      vertex 40.0739 195.819 10
    endloop
  endfacet
  facet normal 0 0 -1
    outer loop
      vertex 40.028 194.567 10
      vertex 40.4826 195.553 10
      vertex 40.1984 194.509 10
    endloop
  endfacet
  facet normal 0 -0 -1
    outer loop
      vertex 40.4826 195.553 10
      vertex 40.5175 194.454 10
      vertex 40.3616 194.471 10
    endloop
  endfacet
  facet normal 0 -0 -1
    outer loop
      vertex 40.5999 195.545 10
      vertex 40.6663 194.455 10
      vertex 40.5175 194.454 10
    endloop
  endfacet
  facet normal 0 0 -1
    outer loop
      vertex 40.5999 195.545 10
      vertex 40.8081 194.473 10
      vertex 40.6663 194.455 10
    endloop
  endfacet
  facet normal 0 -0 -1
    outer loop
      vertex 40.7104 195.566 10
      vertex 40.943 194.507 10
      vertex 40.5999 195.545 10
    endloop
  endfacet
  facet normal 0 0 -1
    outer loop
      vertex 40.7104 195.566 10
      vertex 41.0719 194.557 10
      vertex 40.943 194.507 10
    endloop
  endfacet
  facet normal -0 0 -1
    outer loop
      vertex 41.3143 194.703 10
      vertex 41.1957 194.622 10
      vertex 40.7104 195.566 10
    endloop
  endfacet
  facet normal 0 0 -1
    outer loop
      vertex 44.6649 195.723 10
      vertex 43.862 196.026 10
      vertex 44.7417 196.295 10
    endloop
  endfacet
  facet normal -0 0 -1
    outer loop
      vertex 44.1955 194.503 10
      vertex 43.8918 194.053 10
      vertex 43.3932 194.84 10
    endloop
  endfacet
  facet normal 0 -0 -1
    outer loop
      vertex 40.8175 195.613 10
      vertex 41.3143 194.703 10
      vertex 40.7104 195.566 10
    endloop
  endfacet
  facet normal 0 0 -1
    outer loop
      vertex 40.8175 195.613 10
      vertex 41.4291 194.797 10
      vertex 41.3143 194.703 10
    endloop
  endfacet
  facet normal 0 -0 -1
    outer loop
      vertex 40.9248 195.684 10
      vertex 41.5412 194.903 10
      vertex 40.8175 195.613 10
    endloop
  endfacet
  facet normal 0 0 -1
    outer loop
      vertex 40.9248 195.684 10
      vertex 41.6508 195.021 10
      vertex 41.5412 194.903 10
    endloop
  endfacet
  facet normal 0 0 -1
    outer loop
      vertex 41.0322 195.779 10
      vertex 41.7792 195.179 10
      vertex 41.6508 195.021 10
    endloop
  endfacet
  facet normal 0 0 -1
    outer loop
      vertex 41.0322 195.779 10
      vertex 41.1619 195.93 10
      vertex 41.7792 195.179 10
    endloop
  endfacet
  facet normal 0 -0 -1
    outer loop
      vertex 43.7017 195.4 10
      vertex 44.4602 195.072 10
      vertex 43.5572 195.087 10
    endloop
  endfacet
  facet normal 0 0 -1
    outer loop
      vertex 41.7792 195.179 10
      vertex 41.1619 195.93 10
      vertex 41.9478 195.408 10
    endloop
  endfacet
  facet normal 0 0 -1
    outer loop
      vertex 41.9478 195.408 10
      vertex 41.336 196.165 10
      vertex 42.1565 195.706 10
    endloop
  endfacet
  facet normal 0 0 -1
    outer loop
      vertex 41.336 196.165 10
      vertex 41.5544 196.486 10
      vertex 42.1565 195.706 10
    endloop
  endfacet
  facet normal 0 0 -1
    outer loop
      vertex 43.7836 196.47 10
      vertex 43.4666 196.731 10
      vertex 44.2165 197.521 10
    endloop
  endfacet
  facet normal 0 0 -1
    outer loop
      vertex 42.5497 197.666 10
      vertex 42.7093 197.756 10
      vertex 43.0738 196.742 10
    endloop
  endfacet
  facet normal 0 -0 -1
    outer loop
      vertex 42.0416 197.176 10
      vertex 42.7118 196.482 10
      vertex 41.8179 196.875 10
    endloop
  endfacet
  facet normal 0 0 -1
    outer loop
      vertex 43.0738 196.742 10
      vertex 42.7093 197.756 10
      vertex 42.8717 197.819 10
    endloop
  endfacet
  facet normal -0 0 -1
    outer loop
      vertex 44.6649 195.723 10
      vertex 43.7017 195.4 10
      vertex 43.862 196.026 10
    endloop
  endfacet
  facet normal -0 0 -1
    outer loop
      vertex 43.1992 196.772 10
      vertex 43.0738 196.742 10
      vertex 42.8717 197.819 10
    endloop
  endfacet
  facet normal 0 0 -1
    outer loop
      vertex 43.1992 196.772 10
      vertex 43.0417 197.857 10
      vertex 43.219 197.87 10
    endloop
  endfacet
  facet normal 0 0 -1
    outer loop
      vertex 43.404 197.858 10
      vertex 43.3301 196.769 10
      vertex 43.1992 196.772 10
    endloop
  endfacet
  facet normal -0 0 -1
    outer loop
      vertex 43.404 197.858 10
      vertex 43.1992 196.772 10
      vertex 43.219 197.87 10
    endloop
  endfacet
  facet normal 0 -0 -1
    outer loop
      vertex 43.404 197.858 10
      vertex 43.5966 197.819 10
      vertex 43.3301 196.769 10
    endloop
  endfacet
  facet normal 0 0 -1
    outer loop
      vertex 43.3301 196.769 10
      vertex 43.797 197.753 10
      vertex 43.4666 196.731 10
    endloop
  endfacet
  facet normal -0 0 -1
    outer loop
      vertex 44.5143 197.2 10
      vertex 43.7836 196.47 10
      vertex 44.2165 197.521 10
    endloop
  endfacet
  facet normal 0 -0 -1
    outer loop
      vertex 44.5143 197.2 10
      vertex 44.6904 196.789 10
      vertex 43.7836 196.47 10
    endloop
  endfacet
  facet normal 0 0 -1
    outer loop
      vertex 43.862 196.026 10
      vertex 43.7836 196.47 10
      vertex 44.7417 196.295 10
    endloop
  endfacet
  facet normal 0 0 -1
    outer loop
      vertex 43.7836 196.47 10
      vertex 44.6904 196.789 10
      vertex 44.7417 196.295 10
    endloop
  endfacet
  facet normal 0 0 -1
    outer loop
      vertex 44.4602 195.072 10
      vertex 43.7017 195.4 10
      vertex 44.6649 195.723 10
    endloop
  endfacet
  facet normal 0 0 -1
    outer loop
      vertex 43.5491 193.723 10
      vertex 43.001 194.539 10
      vertex 43.2097 194.658 10
    endloop
  endfacet
  facet normal 0 0 -1
    outer loop
      vertex 42.738 193.412 10
      vertex 42.7613 194.481 10
      vertex 43.1653 193.51 10
    endloop
  endfacet
  facet normal 0 0 -1
    outer loop
      vertex 43.1653 193.51 10
      vertex 42.7613 194.481 10
      vertex 43.001 194.539 10
    endloop
  endfacet
  facet normal 0 -0 -1
    outer loop
      vertex 42.4906 194.485 10
      vertex 42.738 193.412 10
      vertex 42.2674 193.429 10
    endloop
  endfacet
  facet normal -0 0 -1
    outer loop
      vertex 42.7613 194.481 10
      vertex 42.738 193.412 10
      vertex 42.4906 194.485 10
    endloop
  endfacet
  facet normal -0 0 -1
    outer loop
      vertex 43.5491 193.723 10
      vertex 43.1653 193.51 10
      vertex 43.001 194.539 10
    endloop
  endfacet
  facet normal -0 0 -1
    outer loop
      vertex 43.8918 194.053 10
      vertex 43.5491 193.723 10
      vertex 43.2097 194.658 10
    endloop
  endfacet
  facet normal 0 -0 -1
    outer loop
      vertex 43.3932 194.84 10
      vertex 43.8918 194.053 10
      vertex 43.2097 194.658 10
    endloop
  endfacet
  facet normal 0 -0 -1
    outer loop
      vertex 43.5572 195.087 10
      vertex 44.1955 194.503 10
      vertex 43.3932 194.84 10
    endloop
  endfacet
  facet normal 0 0 -1
    outer loop
      vertex 43.5572 195.087 10
      vertex 44.4602 195.072 10
      vertex 44.1955 194.503 10
    endloop
  endfacet
  facet normal 0 0 -1
    outer loop
      vertex 44.7311 200.897 10
      vertex 44.2019 200.216 10
      vertex 43.7179 200.541 10
    endloop
  endfacet
  facet normal 0 -0 -1
    outer loop
      vertex 43.3446 201.844 10
      vertex 43.7639 201.559 10
      vertex 42.805 201.164 10
    endloop
  endfacet
  facet normal 0 0 -1
    outer loop
      vertex 42.805 201.164 10
      vertex 42.703 202.251 10
      vertex 42.9625 202.089 10
    endloop
  endfacet
  facet normal 0 0 -1
    outer loop
      vertex 42.805 201.164 10
      vertex 41.4632 202.084 10
      vertex 42.703 202.251 10
    endloop
  endfacet
  facet normal -0 0 -1
    outer loop
      vertex 42.703 202.251 10
      vertex 41.4632 202.084 10
      vertex 41.9111 203.233 10
    endloop
  endfacet
  facet normal 0 0 -1
    outer loop
      vertex 41.9111 203.233 10
      vertex 43.0858 202.171 10
      vertex 42.703 202.251 10
    endloop
  endfacet
  facet normal 0 0 -1
    outer loop
      vertex 45.0842 203.307 10
      vertex 42.5856 204.963 10
      vertex 42.9915 206.004 10
    endloop
  endfacet
  facet normal 0 0 -1
    outer loop
      vertex 46.9274 201.606 10
      vertex 45.537 202.697 10
      vertex 46.1828 202.566 10
    endloop
  endfacet
  facet normal 0 0 -1
    outer loop
      vertex 45.0842 203.307 10
      vertex 47.4025 202.825 10
      vertex 45.8129 202.811 10
    endloop
  endfacet
  facet normal 0 0 -1
    outer loop
      vertex 44.7636 202.835 10
      vertex 43.831 202.048 10
      vertex 43.4618 202.103 10
    endloop
  endfacet
  facet normal 0 0 -1
    outer loop
      vertex 44.7636 202.835 10
      vertex 43.4618 202.103 10
      vertex 43.0858 202.171 10
    endloop
  endfacet
  facet normal 0 0 -1
    outer loop
      vertex 47.4025 202.825 10
      vertex 45.0842 203.307 10
      vertex 42.9915 206.004 10
    endloop
  endfacet
  facet normal 0 0 -1
    outer loop
      vertex 45.8129 202.811 10
      vertex 47.4025 202.825 10
      vertex 46.1828 202.566 10
    endloop
  endfacet
  facet normal 0 0 -1
    outer loop
      vertex 46.1828 202.566 10
      vertex 47.4025 202.825 10
      vertex 46.9274 201.606 10
    endloop
  endfacet
  facet normal 0 -0 -1
    outer loop
      vertex 45.537 202.697 10
      vertex 46.9274 201.606 10
      vertex 43.831 202.048 10
    endloop
  endfacet
  facet normal 0 -0 -1
    outer loop
      vertex 45.0639 202.787 10
      vertex 45.537 202.697 10
      vertex 43.831 202.048 10
    endloop
  endfacet
  facet normal 0 -0 -1
    outer loop
      vertex 44.7636 202.835 10
      vertex 45.0639 202.787 10
      vertex 43.831 202.048 10
    endloop
  endfacet
  facet normal 0 0 -1
    outer loop
      vertex 43.0858 202.171 10
      vertex 41.9111 203.233 10
      vertex 44.7636 202.835 10
    endloop
  endfacet
  facet normal -0 0 -1
    outer loop
      vertex 43.3446 201.844 10
      vertex 42.805 201.164 10
      vertex 43.1764 201.954 10
    endloop
  endfacet
  facet normal 0 0 -1
    outer loop
      vertex 42.805 201.164 10
      vertex 42.9625 202.089 10
      vertex 43.1764 201.954 10
    endloop
  endfacet
  facet normal 0 0 -1
    outer loop
      vertex 44.4761 200.038 10
      vertex 44.2019 200.216 10
      vertex 44.7311 200.897 10
    endloop
  endfacet
  facet normal 0 0 -1
    outer loop
      vertex 44.7311 200.897 10
      vertex 45.0522 199.666 10
      vertex 44.7595 199.855 10
    endloop
  endfacet
  facet normal 0 0 -1
    outer loop
      vertex 44.7311 200.897 10
      vertex 46.2461 199.859 10
      vertex 45.0522 199.666 10
    endloop
  endfacet
  facet normal -0 0 -1
    outer loop
      vertex 49.5834 208.418 10
      vertex 47.6305 205.755 10
      vertex 48.7896 208.728 10
    endloop
  endfacet
  facet normal 0 -0 -1
    outer loop
      vertex 40.7791 200.33 10
      vertex 44.2239 199.805 10
      vertex 40.3733 199.289 10
    endloop
  endfacet
  facet normal 0 -0 -1
    outer loop
      vertex 44.2239 199.805 10
      vertex 45.771 198.64 10
      vertex 40.3733 199.289 10
    endloop
  endfacet
  facet normal -0 -0 -1
    outer loop
      vertex 45.0522 199.666 10
      vertex 45.771 198.64 10
      vertex 44.2239 199.805 10
    endloop
  endfacet
  facet normal -0 0 -1
    outer loop
      vertex 45.4164 209.879 10
      vertex 44.3129 207.048 10
      vertex 44.6227 210.188 10
    endloop
  endfacet
  facet normal 0 0 -1
    outer loop
      vertex 46.5659 209.186 10
      vertex 46.339 206.258 10
      vertex 45.5453 206.568 10
    endloop
  endfacet
  facet normal 0 0 -1
    outer loop
      vertex 44.6227 210.188 10
      vertex 44.3129 207.048 10
      vertex 43.1188 206.331 10
    endloop
  endfacet
  facet normal 0 0 -1
    outer loop
      vertex 48.0238 204.418 10
      vertex 47.6305 205.755 10
      vertex 49.5834 208.418 10
    endloop
  endfacet
  facet normal 0 -0 -1
    outer loop
      vertex 44.3129 207.048 10
      vertex 45.5453 206.568 10
      vertex 43.1188 206.331 10
    endloop
  endfacet
  facet normal 0 -0 -1
    outer loop
      vertex 45.5453 206.568 10
      vertex 46.339 206.258 10
      vertex 43.1188 206.331 10
    endloop
  endfacet
  facet normal -0 -0 -1
    outer loop
      vertex 46.339 206.258 10
      vertex 48.0238 204.418 10
      vertex 43.1188 206.331 10
    endloop
  endfacet
  facet normal 0 0 1
    outer loop
      vertex 43.797 197.753 10.8
      vertex 43.5966 197.819 10.8
      vertex 43.3301 196.769 10.8
    endloop
  endfacet
  facet normal 0 0 1
    outer loop
      vertex 44.2165 197.521 10.8
      vertex 43.797 197.753 10.8
      vertex 43.4666 196.731 10.8
    endloop
  endfacet
  facet normal 0 -0 1
    outer loop
      vertex 45.771 198.64 10.8
      vertex 46.2461 199.859 10.8
      vertex 45.0522 199.666 10.8
    endloop
  endfacet
  facet normal 0 0 1
    outer loop
      vertex 42.3885 197.544 10.8
      vertex 42.9518 196.682 10.8
      vertex 43.0738 196.742 10.8
    endloop
  endfacet
  facet normal 0 0 1
    outer loop
      vertex 42.2254 197.389 10.8
      vertex 42.8312 196.595 10.8
      vertex 42.9518 196.682 10.8
    endloop
  endfacet
  facet normal 0 0 1
    outer loop
      vertex 46.5659 209.186 10.8
      vertex 46.339 206.258 10.8
      vertex 47.3596 208.876 10.8
    endloop
  endfacet
  facet normal -0 0 1
    outer loop
      vertex 42.0416 197.176 10.8
      vertex 42.8312 196.595 10.8
      vertex 42.2254 197.389 10.8
    endloop
  endfacet
  facet normal -0 0 1
    outer loop
      vertex 44.4761 200.038 10.8
      vertex 44.7595 199.855 10.8
      vertex 44.7311 200.897 10.8
    endloop
  endfacet
  facet normal -0 0 1
    outer loop
      vertex 42.2254 197.389 10.8
      vertex 42.9518 196.682 10.8
      vertex 42.3885 197.544 10.8
    endloop
  endfacet
  facet normal 0 0 1
    outer loop
      vertex 43.7179 200.541 10.8
      vertex 44.7311 200.897 10.8
      vertex 43.7639 201.559 10.8
    endloop
  endfacet
  facet normal 0 0 1
    outer loop
      vertex 42.8312 196.595 10.8
      vertex 42.0416 197.176 10.8
      vertex 42.7118 196.482 10.8
    endloop
  endfacet
  facet normal -0 0 1
    outer loop
      vertex 42.3885 197.544 10.8
      vertex 43.0738 196.742 10.8
      vertex 42.5497 197.666 10.8
    endloop
  endfacet
  facet normal 0 -0 1
    outer loop
      vertex 42.571 196.312 10.8
      vertex 42.7118 196.482 10.8
      vertex 41.8179 196.875 10.8
    endloop
  endfacet
  facet normal -0 0 1
    outer loop
      vertex 42.8717 197.819 10.8
      vertex 43.1992 196.772 10.8
      vertex 43.0417 197.857 10.8
    endloop
  endfacet
  facet normal 0 0 1
    outer loop
      vertex 41.8179 196.875 10.8
      vertex 42.3859 196.053 10.8
      vertex 42.571 196.312 10.8
    endloop
  endfacet
  facet normal -0 0 1
    outer loop
      vertex 41.5544 196.486 10.8
      vertex 42.3859 196.053 10.8
      vertex 41.8179 196.875 10.8
    endloop
  endfacet
  facet normal 0 -0 1
    outer loop
      vertex 42.1565 195.706 10.8
      vertex 42.3859 196.053 10.8
      vertex 41.5544 196.486 10.8
    endloop
  endfacet
  facet normal 0 0 1
    outer loop
      vertex 41.9478 195.408 10.8
      vertex 41.336 196.165 10.8
      vertex 41.1619 195.93 10.8
    endloop
  endfacet
  facet normal -0 0 1
    outer loop
      vertex 40.9248 195.684 10.8
      vertex 41.6508 195.021 10.8
      vertex 41.0322 195.779 10.8
    endloop
  endfacet
  facet normal 0 0 1
    outer loop
      vertex 40.8175 195.613 10.8
      vertex 41.4291 194.797 10.8
      vertex 41.5412 194.903 10.8
    endloop
  endfacet
  facet normal 0 0 1
    outer loop
      vertex 40.7104 195.566 10.8
      vertex 41.0719 194.557 10.8
      vertex 41.1957 194.622 10.8
    endloop
  endfacet
  facet normal 0 0 1
    outer loop
      vertex 40.5999 195.545 10.8
      vertex 40.8081 194.473 10.8
      vertex 40.943 194.507 10.8
    endloop
  endfacet
  facet normal 0 0 1
    outer loop
      vertex 40.4826 195.553 10.8
      vertex 40.5175 194.454 10.8
      vertex 40.5999 195.545 10.8
    endloop
  endfacet
  facet normal -0 0 1
    outer loop
      vertex 40.1984 194.509 10.8
      vertex 40.3616 194.471 10.8
      vertex 40.4826 195.553 10.8
    endloop
  endfacet
  facet normal 0 0 1
    outer loop
      vertex 40.028 194.567 10.8
      vertex 40.4826 195.553 10.8
      vertex 40.3584 195.589 10.8
    endloop
  endfacet
  facet normal 0 -0 1
    outer loop
      vertex 39.641 194.782 10.8
      vertex 40.3584 195.589 10.8
      vertex 39.3665 195.08 10.8
    endloop
  endfacet
  facet normal 0 -0 1
    outer loop
      vertex 40.028 194.567 10.8
      vertex 40.3584 195.589 10.8
      vertex 39.641 194.782 10.8
    endloop
  endfacet
  facet normal 0 0 1
    outer loop
      vertex 40.0739 195.819 10.8
      vertex 39.2045 195.463 10.8
      vertex 39.3665 195.08 10.8
    endloop
  endfacet
  facet normal 0 0 1
    outer loop
      vertex 40.0002 196.206 10.8
      vertex 39.1577 195.923 10.8
      vertex 40.0739 195.819 10.8
    endloop
  endfacet
  facet normal 0 0 1
    outer loop
      vertex 40.1373 196.75 10.8
      vertex 39.4178 197.054 10.8
      vertex 39.2288 196.454 10.8
    endloop
  endfacet
  facet normal -0 0 1
    outer loop
      vertex 39.6669 197.6 10.8
      vertex 40.4012 197.216 10.8
      vertex 39.9401 198.019 10.8
    endloop
  endfacet
  facet normal -0 0 1
    outer loop
      vertex 39.9401 198.019 10.8
      vertex 40.5601 197.361 10.8
      vertex 40.2374 198.313 10.8
    endloop
  endfacet
  facet normal 0 -0 1
    outer loop
      vertex 40.5601 197.361 10.8
      vertex 40.7384 197.452 10.8
      vertex 40.2374 198.313 10.8
    endloop
  endfacet
  facet normal 0 -0 1
    outer loop
      vertex 40.7384 197.452 10.8
      vertex 40.9379 197.494 10.8
      vertex 40.574 198.492 10.8
    endloop
  endfacet
  facet normal 0 -0 1
    outer loop
      vertex 40.9379 197.494 10.8
      vertex 40.9651 198.566 10.8
      vertex 40.574 198.492 10.8
    endloop
  endfacet
  facet normal 0 0 1
    outer loop
      vertex 41.4109 198.535 10.8
      vertex 40.9651 198.566 10.8
      vertex 41.1585 197.487 10.8
    endloop
  endfacet
  facet normal 0 0 1
    outer loop
      vertex 41.1585 197.487 10.8
      vertex 40.9651 198.566 10.8
      vertex 40.9379 197.494 10.8
    endloop
  endfacet
  facet normal -0 0 1
    outer loop
      vertex 42.805 201.164 10.8
      vertex 43.7179 200.541 10.8
      vertex 43.7639 201.559 10.8
    endloop
  endfacet
  facet normal 0 0 1
    outer loop
      vertex 40.7384 197.452 10.8
      vertex 40.574 198.492 10.8
      vertex 40.2374 198.313 10.8
    endloop
  endfacet
  facet normal 0 -0 1
    outer loop
      vertex 40.4012 197.216 10.8
      vertex 40.5601 197.361 10.8
      vertex 39.9401 198.019 10.8
    endloop
  endfacet
  facet normal 0 0 1
    outer loop
      vertex 47.6305 205.755 10.8
      vertex 46.339 206.258 10.8
      vertex 48.0238 204.418 10.8
    endloop
  endfacet
  facet normal 0 -0 1
    outer loop
      vertex 40.2603 197.013 10.8
      vertex 40.4012 197.216 10.8
      vertex 39.6669 197.6 10.8
    endloop
  endfacet
  facet normal 0 0 1
    outer loop
      vertex 40.2603 197.013 10.8
      vertex 39.6669 197.6 10.8
      vertex 39.4178 197.054 10.8
    endloop
  endfacet
  facet normal 0 0 1
    outer loop
      vertex 40.2603 197.013 10.8
      vertex 39.4178 197.054 10.8
      vertex 40.1373 196.75 10.8
    endloop
  endfacet
  facet normal 0 0 1
    outer loop
      vertex 40.1373 196.75 10.8
      vertex 39.2288 196.454 10.8
      vertex 40.0002 196.206 10.8
    endloop
  endfacet
  facet normal 0 0 1
    outer loop
      vertex 39.2288 196.454 10.8
      vertex 39.1577 195.923 10.8
      vertex 40.0002 196.206 10.8
    endloop
  endfacet
  facet normal 0 0 1
    outer loop
      vertex 39.1577 195.923 10.8
      vertex 39.2045 195.463 10.8
      vertex 40.0739 195.819 10.8
    endloop
  endfacet
  facet normal 0 0 1
    outer loop
      vertex 40.0739 195.819 10.8
      vertex 39.3665 195.08 10.8
      vertex 40.3584 195.589 10.8
    endloop
  endfacet
  facet normal 0 -0 1
    outer loop
      vertex 40.1984 194.509 10.8
      vertex 40.4826 195.553 10.8
      vertex 40.028 194.567 10.8
    endloop
  endfacet
  facet normal -0 0 1
    outer loop
      vertex 40.3616 194.471 10.8
      vertex 40.5175 194.454 10.8
      vertex 40.4826 195.553 10.8
    endloop
  endfacet
  facet normal 0 0 1
    outer loop
      vertex 40.5175 194.454 10.8
      vertex 40.6663 194.455 10.8
      vertex 40.5999 195.545 10.8
    endloop
  endfacet
  facet normal 0 -0 1
    outer loop
      vertex 40.6663 194.455 10.8
      vertex 40.8081 194.473 10.8
      vertex 40.5999 195.545 10.8
    endloop
  endfacet
  facet normal -0 0 1
    outer loop
      vertex 40.5999 195.545 10.8
      vertex 40.943 194.507 10.8
      vertex 40.7104 195.566 10.8
    endloop
  endfacet
  facet normal 0 -0 1
    outer loop
      vertex 40.943 194.507 10.8
      vertex 41.0719 194.557 10.8
      vertex 40.7104 195.566 10.8
    endloop
  endfacet
  facet normal 0 0 1
    outer loop
      vertex 40.7104 195.566 10.8
      vertex 41.1957 194.622 10.8
      vertex 41.3143 194.703 10.8
    endloop
  endfacet
  facet normal 0 0 1
    outer loop
      vertex 44.7417 196.295 10.8
      vertex 43.862 196.026 10.8
      vertex 44.6649 195.723 10.8
    endloop
  endfacet
  facet normal 0 0 1
    outer loop
      vertex 43.3932 194.84 10.8
      vertex 43.8918 194.053 10.8
      vertex 44.1955 194.503 10.8
    endloop
  endfacet
  facet normal -0 0 1
    outer loop
      vertex 40.7104 195.566 10.8
      vertex 41.3143 194.703 10.8
      vertex 40.8175 195.613 10.8
    endloop
  endfacet
  facet normal 0 -0 1
    outer loop
      vertex 41.3143 194.703 10.8
      vertex 41.4291 194.797 10.8
      vertex 40.8175 195.613 10.8
    endloop
  endfacet
  facet normal -0 0 1
    outer loop
      vertex 40.8175 195.613 10.8
      vertex 41.5412 194.903 10.8
      vertex 40.9248 195.684 10.8
    endloop
  endfacet
  facet normal 0 -0 1
    outer loop
      vertex 41.5412 194.903 10.8
      vertex 41.6508 195.021 10.8
      vertex 40.9248 195.684 10.8
    endloop
  endfacet
  facet normal 0 -0 1
    outer loop
      vertex 41.6508 195.021 10.8
      vertex 41.7792 195.179 10.8
      vertex 41.0322 195.779 10.8
    endloop
  endfacet
  facet normal 0 0 1
    outer loop
      vertex 41.7792 195.179 10.8
      vertex 41.1619 195.93 10.8
      vertex 41.0322 195.779 10.8
    endloop
  endfacet
  facet normal -0 0 1
    outer loop
      vertex 43.5572 195.087 10.8
      vertex 44.4602 195.072 10.8
      vertex 43.7017 195.4 10.8
    endloop
  endfacet
  facet normal 0 0 1
    outer loop
      vertex 41.9478 195.408 10.8
      vertex 41.1619 195.93 10.8
      vertex 41.7792 195.179 10.8
    endloop
  endfacet
  facet normal 0 0 1
    outer loop
      vertex 42.1565 195.706 10.8
      vertex 41.336 196.165 10.8
      vertex 41.9478 195.408 10.8
    endloop
  endfacet
  facet normal 0 0 1
    outer loop
      vertex 42.1565 195.706 10.8
      vertex 41.5544 196.486 10.8
      vertex 41.336 196.165 10.8
    endloop
  endfacet
  facet normal 0 0 1
    outer loop
      vertex 44.2165 197.521 10.8
      vertex 43.4666 196.731 10.8
      vertex 43.7836 196.47 10.8
    endloop
  endfacet
  facet normal 0 0 1
    outer loop
      vertex 43.0738 196.742 10.8
      vertex 42.7093 197.756 10.8
      vertex 42.5497 197.666 10.8
    endloop
  endfacet
  facet normal -0 0 1
    outer loop
      vertex 41.8179 196.875 10.8
      vertex 42.7118 196.482 10.8
      vertex 42.0416 197.176 10.8
    endloop
  endfacet
  facet normal 0 0 1
    outer loop
      vertex 42.8717 197.819 10.8
      vertex 42.7093 197.756 10.8
      vertex 43.0738 196.742 10.8
    endloop
  endfacet
  facet normal 0 0 1
    outer loop
      vertex 43.862 196.026 10.8
      vertex 43.7017 195.4 10.8
      vertex 44.6649 195.723 10.8
    endloop
  endfacet
  facet normal 0 0 1
    outer loop
      vertex 42.8717 197.819 10.8
      vertex 43.0738 196.742 10.8
      vertex 43.1992 196.772 10.8
    endloop
  endfacet
  facet normal 0 0 1
    outer loop
      vertex 43.219 197.87 10.8
      vertex 43.0417 197.857 10.8
      vertex 43.1992 196.772 10.8
    endloop
  endfacet
  facet normal -0 0 1
    outer loop
      vertex 43.1992 196.772 10.8
      vertex 43.3301 196.769 10.8
      vertex 43.404 197.858 10.8
    endloop
  endfacet
  facet normal 0 0 1
    outer loop
      vertex 43.219 197.87 10.8
      vertex 43.1992 196.772 10.8
      vertex 43.404 197.858 10.8
    endloop
  endfacet
  facet normal 0 0 1
    outer loop
      vertex 43.3301 196.769 10.8
      vertex 43.5966 197.819 10.8
      vertex 43.404 197.858 10.8
    endloop
  endfacet
  facet normal 0 -0 1
    outer loop
      vertex 43.4666 196.731 10.8
      vertex 43.797 197.753 10.8
      vertex 43.3301 196.769 10.8
    endloop
  endfacet
  facet normal 0 0 1
    outer loop
      vertex 44.2165 197.521 10.8
      vertex 43.7836 196.47 10.8
      vertex 44.5143 197.2 10.8
    endloop
  endfacet
  facet normal 0 0 1
    outer loop
      vertex 43.7836 196.47 10.8
      vertex 44.6904 196.789 10.8
      vertex 44.5143 197.2 10.8
    endloop
  endfacet
  facet normal 0 0 1
    outer loop
      vertex 44.7417 196.295 10.8
      vertex 43.7836 196.47 10.8
      vertex 43.862 196.026 10.8
    endloop
  endfacet
  facet normal 0 0 1
    outer loop
      vertex 44.7417 196.295 10.8
      vertex 44.6904 196.789 10.8
      vertex 43.7836 196.47 10.8
    endloop
  endfacet
  facet normal 0 0 1
    outer loop
      vertex 44.6649 195.723 10.8
      vertex 43.7017 195.4 10.8
      vertex 44.4602 195.072 10.8
    endloop
  endfacet
  facet normal 0 0 1
    outer loop
      vertex 43.2097 194.658 10.8
      vertex 43.001 194.539 10.8
      vertex 43.5491 193.723 10.8
    endloop
  endfacet
  facet normal 0 0 1
    outer loop
      vertex 43.1653 193.51 10.8
      vertex 42.7613 194.481 10.8
      vertex 42.738 193.412 10.8
    endloop
  endfacet
  facet normal 0 0 1
    outer loop
      vertex 43.001 194.539 10.8
      vertex 42.7613 194.481 10.8
      vertex 43.1653 193.51 10.8
    endloop
  endfacet
  facet normal -0 0 1
    outer loop
      vertex 42.2674 193.429 10.8
      vertex 42.738 193.412 10.8
      vertex 42.4906 194.485 10.8
    endloop
  endfacet
  facet normal 0 0 1
    outer loop
      vertex 42.4906 194.485 10.8
      vertex 42.738 193.412 10.8
      vertex 42.7613 194.481 10.8
    endloop
  endfacet
  facet normal 0 0 1
    outer loop
      vertex 43.001 194.539 10.8
      vertex 43.1653 193.51 10.8
      vertex 43.5491 193.723 10.8
    endloop
  endfacet
  facet normal 0 0 1
    outer loop
      vertex 43.2097 194.658 10.8
      vertex 43.5491 193.723 10.8
      vertex 43.8918 194.053 10.8
    endloop
  endfacet
  facet normal -0 0 1
    outer loop
      vertex 43.2097 194.658 10.8
      vertex 43.8918 194.053 10.8
      vertex 43.3932 194.84 10.8
    endloop
  endfacet
  facet normal -0 0 1
    outer loop
      vertex 43.3932 194.84 10.8
      vertex 44.1955 194.503 10.8
      vertex 43.5572 195.087 10.8
    endloop
  endfacet
  facet normal 0 -0 1
    outer loop
      vertex 44.1955 194.503 10.8
      vertex 44.4602 195.072 10.8
      vertex 43.5572 195.087 10.8
    endloop
  endfacet
  facet normal -0 0 1
    outer loop
      vertex 43.7179 200.541 10.8
      vertex 44.2019 200.216 10.8
      vertex 44.7311 200.897 10.8
    endloop
  endfacet
  facet normal 0 0 1
    outer loop
      vertex 42.805 201.164 10.8
      vertex 43.7639 201.559 10.8
      vertex 43.3446 201.844 10.8
    endloop
  endfacet
  facet normal 0 0 1
    outer loop
      vertex 42.9625 202.089 10.8
      vertex 42.703 202.251 10.8
      vertex 42.805 201.164 10.8
    endloop
  endfacet
  facet normal 0 0 1
    outer loop
      vertex 42.703 202.251 10.8
      vertex 41.4632 202.084 10.8
      vertex 42.805 201.164 10.8
    endloop
  endfacet
  facet normal 0 0 1
    outer loop
      vertex 41.9111 203.233 10.8
      vertex 41.4632 202.084 10.8
      vertex 42.703 202.251 10.8
    endloop
  endfacet
  facet normal -0 -0 1
    outer loop
      vertex 42.703 202.251 10.8
      vertex 43.0858 202.171 10.8
      vertex 41.9111 203.233 10.8
    endloop
  endfacet
  facet normal 0 0 1
    outer loop
      vertex 42.9915 206.004 10.8
      vertex 42.5856 204.963 10.8
      vertex 45.0842 203.307 10.8
    endloop
  endfacet
  facet normal 0 0 1
    outer loop
      vertex 46.1828 202.566 10.8
      vertex 45.537 202.697 10.8
      vertex 46.9274 201.606 10.8
    endloop
  endfacet
  facet normal 0 -0 1
    outer loop
      vertex 45.8129 202.811 10.8
      vertex 47.4025 202.825 10.8
      vertex 45.0842 203.307 10.8
    endloop
  endfacet
  facet normal -0 0 1
    outer loop
      vertex 43.4618 202.103 10.8
      vertex 43.831 202.048 10.8
      vertex 44.7636 202.835 10.8
    endloop
  endfacet
  facet normal -0 0 1
    outer loop
      vertex 43.0858 202.171 10.8
      vertex 43.4618 202.103 10.8
      vertex 44.7636 202.835 10.8
    endloop
  endfacet
  facet normal 0 0 1
    outer loop
      vertex 42.9915 206.004 10.8
      vertex 45.0842 203.307 10.8
      vertex 47.4025 202.825 10.8
    endloop
  endfacet
  facet normal 0 -0 1
    outer loop
      vertex 46.1828 202.566 10.8
      vertex 47.4025 202.825 10.8
      vertex 45.8129 202.811 10.8
    endloop
  endfacet
  facet normal 0 -0 1
    outer loop
      vertex 46.9274 201.606 10.8
      vertex 47.4025 202.825 10.8
      vertex 46.1828 202.566 10.8
    endloop
  endfacet
  facet normal -0 0 1
    outer loop
      vertex 43.831 202.048 10.8
      vertex 46.9274 201.606 10.8
      vertex 45.537 202.697 10.8
    endloop
  endfacet
  facet normal 0 0 1
    outer loop
      vertex 43.831 202.048 10.8
      vertex 45.537 202.697 10.8
      vertex 45.0639 202.787 10.8
    endloop
  endfacet
  facet normal 0 0 1
    outer loop
      vertex 43.831 202.048 10.8
      vertex 45.0639 202.787 10.8
      vertex 44.7636 202.835 10.8
    endloop
  endfacet
  facet normal 0 0 1
    outer loop
      vertex 44.7636 202.835 10.8
      vertex 41.9111 203.233 10.8
      vertex 43.0858 202.171 10.8
    endloop
  endfacet
  facet normal 0 0 1
    outer loop
      vertex 43.1764 201.954 10.8
      vertex 42.805 201.164 10.8
      vertex 43.3446 201.844 10.8
    endloop
  endfacet
  facet normal 0 0 1
    outer loop
      vertex 43.1764 201.954 10.8
      vertex 42.9625 202.089 10.8
      vertex 42.805 201.164 10.8
    endloop
  endfacet
  facet normal 0 0 1
    outer loop
      vertex 44.7311 200.897 10.8
      vertex 44.2019 200.216 10.8
      vertex 44.4761 200.038 10.8
    endloop
  endfacet
  facet normal -0 -0 1
    outer loop
      vertex 44.7595 199.855 10.8
      vertex 45.0522 199.666 10.8
      vertex 44.7311 200.897 10.8
    endloop
  endfacet
  facet normal 0 -0 1
    outer loop
      vertex 45.0522 199.666 10.8
      vertex 46.2461 199.859 10.8
      vertex 44.7311 200.897 10.8
    endloop
  endfacet
  facet normal 0 0 1
    outer loop
      vertex 48.7896 208.728 10.8
      vertex 47.6305 205.755 10.8
      vertex 49.5834 208.418 10.8
    endloop
  endfacet
  facet normal 0 0 1
    outer loop
      vertex 40.3733 199.289 10.8
      vertex 44.2239 199.805 10.8
      vertex 40.7791 200.33 10.8
    endloop
  endfacet
  facet normal -0 0 1
    outer loop
      vertex 40.3733 199.289 10.8
      vertex 45.771 198.64 10.8
      vertex 44.2239 199.805 10.8
    endloop
  endfacet
  facet normal 0 0 1
    outer loop
      vertex 44.2239 199.805 10.8
      vertex 45.771 198.64 10.8
      vertex 45.0522 199.666 10.8
    endloop
  endfacet
  facet normal 0 0 1
    outer loop
      vertex 44.6227 210.188 10.8
      vertex 44.3129 207.048 10.8
      vertex 45.4164 209.879 10.8
    endloop
  endfacet
  facet normal -0 0 1
    outer loop
      vertex 45.5453 206.568 10.8
      vertex 46.339 206.258 10.8
      vertex 46.5659 209.186 10.8
    endloop
  endfacet
  facet normal 0 0 1
    outer loop
      vertex 43.1188 206.331 10.8
      vertex 44.3129 207.048 10.8
      vertex 44.6227 210.188 10.8
    endloop
  endfacet
  facet normal 0 0 1
    outer loop
      vertex 49.5834 208.418 10.8
      vertex 47.6305 205.755 10.8
      vertex 48.0238 204.418 10.8
    endloop
  endfacet
  facet normal 0 0 1
    outer loop
      vertex 43.1188 206.331 10.8
      vertex 45.5453 206.568 10.8
      vertex 44.3129 207.048 10.8
    endloop
  endfacet
  facet normal -0 0 1
    outer loop
      vertex 43.1188 206.331 10.8
      vertex 46.339 206.258 10.8
      vertex 45.5453 206.568 10.8
    endloop
  endfacet
  facet normal 0 0 1
    outer loop
      vertex 43.1188 206.331 10.8
      vertex 48.0238 204.418 10.8
      vertex 46.339 206.258 10.8
    endloop
  endfacet
  facet normal 0.991106 -0.133072 0
    outer loop
      vertex 44.7417 196.295 10
      vertex 44.6649 195.723 10.8
      vertex 44.6649 195.723 10
    endloop
  endfacet
  facet normal 0.991106 -0.133072 0
    outer loop
      vertex 44.7417 196.295 10
      vertex 44.7417 196.295 10.8
      vertex 44.6649 195.723 10.8
    endloop
  endfacet
  facet normal 0.994651 0.103291 0
    outer loop
      vertex 44.6904 196.789 10
      vertex 44.7417 196.295 10.8
      vertex 44.7417 196.295 10
    endloop
  endfacet
  facet normal 0.994651 0.103291 -0
    outer loop
      vertex 44.6904 196.789 10
      vertex 44.6904 196.789 10.8
      vertex 44.7417 196.295 10.8
    endloop
  endfacet
  facet normal 0.91918 0.393838 0
    outer loop
      vertex 44.5143 197.2 10
      vertex 44.6904 196.789 10.8
      vertex 44.6904 196.789 10
    endloop
  endfacet
  facet normal 0.91918 0.393838 -0
    outer loop
      vertex 44.5143 197.2 10
      vertex 44.5143 197.2 10.8
      vertex 44.6904 196.789 10.8
    endloop
  endfacet
  facet normal 0.733103 0.680118 0
    outer loop
      vertex 44.2165 197.521 10
      vertex 44.5143 197.2 10.8
      vertex 44.5143 197.2 10
    endloop
  endfacet
  facet normal 0.733103 0.680118 -0
    outer loop
      vertex 44.2165 197.521 10
      vertex 44.2165 197.521 10.8
      vertex 44.5143 197.2 10.8
    endloop
  endfacet
  facet normal 0.483959 0.87509 0
    outer loop
      vertex 43.797 197.753 10
      vertex 44.2165 197.521 10.8
      vertex 44.2165 197.521 10
    endloop
  endfacet
  facet normal 0.483959 0.87509 -0
    outer loop
      vertex 43.797 197.753 10
      vertex 43.797 197.753 10.8
      vertex 44.2165 197.521 10.8
    endloop
  endfacet
  facet normal 0.312813 0.949815 0
    outer loop
      vertex 43.5966 197.819 10
      vertex 43.797 197.753 10.8
      vertex 43.797 197.753 10
    endloop
  endfacet
  facet normal 0.312813 0.949815 -0
    outer loop
      vertex 43.5966 197.819 10
      vertex 43.5966 197.819 10.8
      vertex 43.797 197.753 10.8
    endloop
  endfacet
  facet normal 0.198464 0.980108 0
    outer loop
      vertex 43.404 197.858 10
      vertex 43.5966 197.819 10.8
      vertex 43.5966 197.819 10
    endloop
  endfacet
  facet normal 0.198464 0.980108 -0
    outer loop
      vertex 43.404 197.858 10
      vertex 43.404 197.858 10.8
      vertex 43.5966 197.819 10.8
    endloop
  endfacet
  facet normal 0.0647288 0.997903 0
    outer loop
      vertex 43.219 197.87 10
      vertex 43.404 197.858 10.8
      vertex 43.404 197.858 10
    endloop
  endfacet
  facet normal 0.0647288 0.997903 -0
    outer loop
      vertex 43.219 197.87 10
      vertex 43.219 197.87 10.8
      vertex 43.404 197.858 10.8
    endloop
  endfacet
  facet normal -0.0731257 0.997323 0
    outer loop
      vertex 43.0417 197.857 10
      vertex 43.219 197.87 10.8
      vertex 43.219 197.87 10
    endloop
  endfacet
  facet normal -0.0731257 0.997323 0
    outer loop
      vertex 43.0417 197.857 10
      vertex 43.0417 197.857 10.8
      vertex 43.219 197.87 10.8
    endloop
  endfacet
  facet normal -0.218146 0.975916 0
    outer loop
      vertex 42.8717 197.819 10
      vertex 43.0417 197.857 10.8
      vertex 43.0417 197.857 10
    endloop
  endfacet
  facet normal -0.218146 0.975916 0
    outer loop
      vertex 42.8717 197.819 10
      vertex 42.8717 197.819 10.8
      vertex 43.0417 197.857 10.8
    endloop
  endfacet
  facet normal -0.36167 0.932306 0
    outer loop
      vertex 42.7093 197.756 10
      vertex 42.8717 197.819 10.8
      vertex 42.8717 197.819 10
    endloop
  endfacet
  facet normal -0.36167 0.932306 0
    outer loop
      vertex 42.7093 197.756 10
      vertex 42.7093 197.756 10.8
      vertex 42.8717 197.819 10.8
    endloop
  endfacet
  facet normal -0.491194 0.87105 0
    outer loop
      vertex 42.5497 197.666 10
      vertex 42.7093 197.756 10.8
      vertex 42.7093 197.756 10
    endloop
  endfacet
  facet normal -0.491194 0.87105 0
    outer loop
      vertex 42.5497 197.666 10
      vertex 42.5497 197.666 10.8
      vertex 42.7093 197.756 10.8
    endloop
  endfacet
  facet normal -0.603477 0.797381 0
    outer loop
      vertex 42.3885 197.544 10
      vertex 42.5497 197.666 10.8
      vertex 42.5497 197.666 10
    endloop
  endfacet
  facet normal -0.603477 0.797381 0
    outer loop
      vertex 42.3885 197.544 10
      vertex 42.3885 197.544 10.8
      vertex 42.5497 197.666 10.8
    endloop
  endfacet
  facet normal -0.688878 0.724877 0
    outer loop
      vertex 42.2254 197.389 10
      vertex 42.3885 197.544 10.8
      vertex 42.3885 197.544 10
    endloop
  endfacet
  facet normal -0.688878 0.724877 0
    outer loop
      vertex 42.2254 197.389 10
      vertex 42.2254 197.389 10.8
      vertex 42.3885 197.544 10.8
    endloop
  endfacet
  facet normal -0.757095 0.653305 0
    outer loop
      vertex 42.0416 197.176 10
      vertex 42.2254 197.389 10.8
      vertex 42.2254 197.389 10
    endloop
  endfacet
  facet normal -0.757095 0.653305 0
    outer loop
      vertex 42.0416 197.176 10
      vertex 42.0416 197.176 10.8
      vertex 42.2254 197.389 10.8
    endloop
  endfacet
  facet normal -0.802616 0.596496 0
    outer loop
      vertex 41.8179 196.875 10
      vertex 42.0416 197.176 10.8
      vertex 42.0416 197.176 10
    endloop
  endfacet
  facet normal -0.802616 0.596496 0
    outer loop
      vertex 41.8179 196.875 10
      vertex 41.8179 196.875 10.8
      vertex 42.0416 197.176 10.8
    endloop
  endfacet
  facet normal -0.827935 0.560825 0
    outer loop
      vertex 41.5544 196.486 10
      vertex 41.8179 196.875 10.8
      vertex 41.8179 196.875 10
    endloop
  endfacet
  facet normal -0.827935 0.560825 0
    outer loop
      vertex 41.5544 196.486 10
      vertex 41.5544 196.486 10.8
      vertex 41.8179 196.875 10.8
    endloop
  endfacet
  facet normal -0.826783 0.562521 0
    outer loop
      vertex 41.336 196.165 10
      vertex 41.5544 196.486 10.8
      vertex 41.5544 196.486 10
    endloop
  endfacet
  facet normal -0.826783 0.562521 0
    outer loop
      vertex 41.336 196.165 10
      vertex 41.336 196.165 10.8
      vertex 41.5544 196.486 10.8
    endloop
  endfacet
  facet normal -0.803515 0.595285 0
    outer loop
      vertex 41.1619 195.93 10
      vertex 41.336 196.165 10.8
      vertex 41.336 196.165 10
    endloop
  endfacet
  facet normal -0.803515 0.595285 0
    outer loop
      vertex 41.1619 195.93 10
      vertex 41.1619 195.93 10.8
      vertex 41.336 196.165 10.8
    endloop
  endfacet
  facet normal -0.758582 0.651577 0
    outer loop
      vertex 41.0322 195.779 10
      vertex 41.1619 195.93 10.8
      vertex 41.1619 195.93 10
    endloop
  endfacet
  facet normal -0.758582 0.651577 0
    outer loop
      vertex 41.0322 195.779 10
      vertex 41.0322 195.779 10.8
      vertex 41.1619 195.93 10.8
    endloop
  endfacet
  facet normal -0.662544 0.749023 0
    outer loop
      vertex 40.9248 195.684 10
      vertex 41.0322 195.779 10.8
      vertex 41.0322 195.779 10
    endloop
  endfacet
  facet normal -0.662544 0.749023 0
    outer loop
      vertex 40.9248 195.684 10
      vertex 40.9248 195.684 10.8
      vertex 41.0322 195.779 10.8
    endloop
  endfacet
  facet normal -0.551827 0.833959 0
    outer loop
      vertex 40.8175 195.613 10
      vertex 40.9248 195.684 10.8
      vertex 40.9248 195.684 10
    endloop
  endfacet
  facet normal -0.551827 0.833959 0
    outer loop
      vertex 40.8175 195.613 10
      vertex 40.8175 195.613 10.8
      vertex 40.9248 195.684 10.8
    endloop
  endfacet
  facet normal -0.40185 0.915705 0
    outer loop
      vertex 40.7104 195.566 10
      vertex 40.8175 195.613 10.8
      vertex 40.8175 195.613 10
    endloop
  endfacet
  facet normal -0.40185 0.915705 0
    outer loop
      vertex 40.7104 195.566 10
      vertex 40.7104 195.566 10.8
      vertex 40.8175 195.613 10.8
    endloop
  endfacet
  facet normal -0.186704 0.982416 0
    outer loop
      vertex 40.5999 195.545 10
      vertex 40.7104 195.566 10.8
      vertex 40.7104 195.566 10
    endloop
  endfacet
  facet normal -0.186704 0.982416 0
    outer loop
      vertex 40.5999 195.545 10
      vertex 40.5999 195.545 10.8
      vertex 40.7104 195.566 10.8
    endloop
  endfacet
  facet normal 0.0680431 0.997682 0
    outer loop
      vertex 40.4826 195.553 10
      vertex 40.5999 195.545 10.8
      vertex 40.5999 195.545 10
    endloop
  endfacet
  facet normal 0.0680431 0.997682 -0
    outer loop
      vertex 40.4826 195.553 10
      vertex 40.4826 195.553 10.8
      vertex 40.5999 195.545 10.8
    endloop
  endfacet
  facet normal 0.278396 0.960466 0
    outer loop
      vertex 40.3584 195.589 10
      vertex 40.4826 195.553 10.8
      vertex 40.4826 195.553 10
    endloop
  endfacet
  facet normal 0.278396 0.960466 -0
    outer loop
      vertex 40.3584 195.589 10
      vertex 40.3584 195.589 10.8
      vertex 40.4826 195.553 10.8
    endloop
  endfacet
  facet normal 0.628687 0.777658 0
    outer loop
      vertex 40.0739 195.819 10
      vertex 40.3584 195.589 10.8
      vertex 40.3584 195.589 10
    endloop
  endfacet
  facet normal 0.628687 0.777658 -0
    outer loop
      vertex 40.0739 195.819 10
      vertex 40.0739 195.819 10.8
      vertex 40.3584 195.589 10.8
    endloop
  endfacet
  facet normal 0.982345 0.187077 0
    outer loop
      vertex 40.0002 196.206 10
      vertex 40.0739 195.819 10.8
      vertex 40.0739 195.819 10
    endloop
  endfacet
  facet normal 0.982345 0.187077 -0
    outer loop
      vertex 40.0002 196.206 10
      vertex 40.0002 196.206 10.8
      vertex 40.0739 195.819 10.8
    endloop
  endfacet
  facet normal 0.969679 -0.244381 0
    outer loop
      vertex 40.1373 196.75 10
      vertex 40.0002 196.206 10.8
      vertex 40.0002 196.206 10
    endloop
  endfacet
  facet normal 0.969679 -0.244381 0
    outer loop
      vertex 40.1373 196.75 10
      vertex 40.1373 196.75 10.8
      vertex 40.0002 196.206 10.8
    endloop
  endfacet
  facet normal 0.905831 -0.42364 0
    outer loop
      vertex 40.2603 197.013 10
      vertex 40.1373 196.75 10.8
      vertex 40.1373 196.75 10
    endloop
  endfacet
  facet normal 0.905831 -0.42364 0
    outer loop
      vertex 40.2603 197.013 10
      vertex 40.2603 197.013 10.8
      vertex 40.1373 196.75 10.8
    endloop
  endfacet
  facet normal 0.821507 -0.570199 0
    outer loop
      vertex 40.4012 197.216 10
      vertex 40.2603 197.013 10.8
      vertex 40.2603 197.013 10
    endloop
  endfacet
  facet normal 0.821507 -0.570199 0
    outer loop
      vertex 40.4012 197.216 10
      vertex 40.4012 197.216 10.8
      vertex 40.2603 197.013 10.8
    endloop
  endfacet
  facet normal 0.67406 -0.738677 0
    outer loop
      vertex 40.5601 197.361 10
      vertex 40.4012 197.216 10.8
      vertex 40.4012 197.216 10
    endloop
  endfacet
  facet normal 0.67406 -0.738677 0
    outer loop
      vertex 40.5601 197.361 10
      vertex 40.5601 197.361 10.8
      vertex 40.4012 197.216 10.8
    endloop
  endfacet
  facet normal 0.454592 -0.8907 0
    outer loop
      vertex 40.7384 197.452 10
      vertex 40.5601 197.361 10.8
      vertex 40.5601 197.361 10
    endloop
  endfacet
  facet normal 0.454592 -0.8907 0
    outer loop
      vertex 40.7384 197.452 10
      vertex 40.7384 197.452 10.8
      vertex 40.5601 197.361 10.8
    endloop
  endfacet
  facet normal 0.20601 -0.97855 0
    outer loop
      vertex 40.9379 197.494 10
      vertex 40.7384 197.452 10.8
      vertex 40.7384 197.452 10
    endloop
  endfacet
  facet normal 0.20601 -0.97855 0
    outer loop
      vertex 40.9379 197.494 10
      vertex 40.9379 197.494 10.8
      vertex 40.7384 197.452 10.8
    endloop
  endfacet
  facet normal -0.0317157 -0.999497 0
    outer loop
      vertex 41.1585 197.487 10
      vertex 40.9379 197.494 10.8
      vertex 40.9379 197.494 10
    endloop
  endfacet
  facet normal -0.0317157 -0.999497 0
    outer loop
      vertex 41.1585 197.487 10
      vertex 41.1585 197.487 10.8
      vertex 40.9379 197.494 10.8
    endloop
  endfacet
  facet normal 0.972202 -0.234145 0
    outer loop
      vertex 41.4109 198.535 10
      vertex 41.1585 197.487 10.8
      vertex 41.1585 197.487 10
    endloop
  endfacet
  facet normal 0.972202 -0.234145 0
    outer loop
      vertex 41.4109 198.535 10
      vertex 41.4109 198.535 10.8
      vertex 41.1585 197.487 10.8
    endloop
  endfacet
  facet normal 0.0693704 0.997591 0
    outer loop
      vertex 40.9651 198.566 10
      vertex 41.4109 198.535 10.8
      vertex 41.4109 198.535 10
    endloop
  endfacet
  facet normal 0.0693704 0.997591 -0
    outer loop
      vertex 40.9651 198.566 10
      vertex 40.9651 198.566 10.8
      vertex 41.4109 198.535 10.8
    endloop
  endfacet
  facet normal -0.185911 0.982567 0
    outer loop
      vertex 40.574 198.492 10
      vertex 40.9651 198.566 10.8
      vertex 40.9651 198.566 10
    endloop
  endfacet
  facet normal -0.185911 0.982567 0
    outer loop
      vertex 40.574 198.492 10
      vertex 40.574 198.492 10.8
      vertex 40.9651 198.566 10.8
    endloop
  endfacet
  facet normal -0.469526 0.882919 0
    outer loop
      vertex 40.2374 198.313 10
      vertex 40.574 198.492 10.8
      vertex 40.574 198.492 10
    endloop
  endfacet
  facet normal -0.469526 0.882919 0
    outer loop
      vertex 40.2374 198.313 10
      vertex 40.2374 198.313 10.8
      vertex 40.574 198.492 10.8
    endloop
  endfacet
  facet normal -0.70315 0.711042 0
    outer loop
      vertex 39.9401 198.019 10
      vertex 40.2374 198.313 10.8
      vertex 40.2374 198.313 10
    endloop
  endfacet
  facet normal -0.70315 0.711042 0
    outer loop
      vertex 39.9401 198.019 10
      vertex 39.9401 198.019 10.8
      vertex 40.2374 198.313 10.8
    endloop
  endfacet
  facet normal -0.837666 0.546182 0
    outer loop
      vertex 39.6669 197.6 10
      vertex 39.9401 198.019 10.8
      vertex 39.9401 198.019 10
    endloop
  endfacet
  facet normal -0.837666 0.546182 0
    outer loop
      vertex 39.6669 197.6 10
      vertex 39.6669 197.6 10.8
      vertex 39.9401 198.019 10.8
    endloop
  endfacet
  facet normal -0.909789 0.415071 0
    outer loop
      vertex 39.4178 197.054 10
      vertex 39.6669 197.6 10.8
      vertex 39.6669 197.6 10
    endloop
  endfacet
  facet normal -0.909789 0.415071 0
    outer loop
      vertex 39.4178 197.054 10
      vertex 39.4178 197.054 10.8
      vertex 39.6669 197.6 10.8
    endloop
  endfacet
  facet normal -0.953799 0.300447 0
    outer loop
      vertex 39.2288 196.454 10
      vertex 39.4178 197.054 10.8
      vertex 39.4178 197.054 10
    endloop
  endfacet
  facet normal -0.953799 0.300447 0
    outer loop
      vertex 39.2288 196.454 10
      vertex 39.2288 196.454 10.8
      vertex 39.4178 197.054 10.8
    endloop
  endfacet
  facet normal -0.991154 0.132714 0
    outer loop
      vertex 39.1577 195.923 10
      vertex 39.2288 196.454 10.8
      vertex 39.2288 196.454 10
    endloop
  endfacet
  facet normal -0.991154 0.132714 0
    outer loop
      vertex 39.1577 195.923 10
      vertex 39.1577 195.923 10.8
      vertex 39.2288 196.454 10.8
    endloop
  endfacet
  facet normal -0.994864 -0.101217 0
    outer loop
      vertex 39.2045 195.463 10
      vertex 39.1577 195.923 10.8
      vertex 39.1577 195.923 10
    endloop
  endfacet
  facet normal -0.994864 -0.101217 0
    outer loop
      vertex 39.2045 195.463 10
      vertex 39.2045 195.463 10.8
      vertex 39.1577 195.923 10.8
    endloop
  endfacet
  facet normal -0.921 -0.389562 0
    outer loop
      vertex 39.3665 195.08 10
      vertex 39.2045 195.463 10.8
      vertex 39.2045 195.463 10
    endloop
  endfacet
  facet normal -0.921 -0.389562 0
    outer loop
      vertex 39.3665 195.08 10
      vertex 39.3665 195.08 10.8
      vertex 39.2045 195.463 10.8
    endloop
  endfacet
  facet normal -0.735513 -0.677511 0
    outer loop
      vertex 39.641 194.782 10
      vertex 39.3665 195.08 10.8
      vertex 39.3665 195.08 10
    endloop
  endfacet
  facet normal -0.735513 -0.677511 0
    outer loop
      vertex 39.641 194.782 10
      vertex 39.641 194.782 10.8
      vertex 39.3665 195.08 10.8
    endloop
  endfacet
  facet normal -0.485643 -0.874157 0
    outer loop
      vertex 40.028 194.567 10
      vertex 39.641 194.782 10.8
      vertex 39.641 194.782 10
    endloop
  endfacet
  facet normal -0.485643 -0.874157 0
    outer loop
      vertex 40.028 194.567 10
      vertex 40.028 194.567 10.8
      vertex 39.641 194.782 10.8
    endloop
  endfacet
  facet normal -0.322221 -0.946664 0
    outer loop
      vertex 40.1984 194.509 10
      vertex 40.028 194.567 10.8
      vertex 40.028 194.567 10
    endloop
  endfacet
  facet normal -0.322221 -0.946664 0
    outer loop
      vertex 40.1984 194.509 10
      vertex 40.1984 194.509 10.8
      vertex 40.028 194.567 10.8
    endloop
  endfacet
  facet normal -0.226777 -0.973947 0
    outer loop
      vertex 40.3616 194.471 10
      vertex 40.1984 194.509 10.8
      vertex 40.1984 194.509 10
    endloop
  endfacet
  facet normal -0.226777 -0.973947 0
    outer loop
      vertex 40.3616 194.471 10
      vertex 40.3616 194.471 10.8
      vertex 40.1984 194.509 10.8
    endloop
  endfacet
  facet normal -0.108402 -0.994107 0
    outer loop
      vertex 40.5175 194.454 10
      vertex 40.3616 194.471 10.8
      vertex 40.3616 194.471 10
    endloop
  endfacet
  facet normal -0.108402 -0.994107 0
    outer loop
      vertex 40.5175 194.454 10
      vertex 40.5175 194.454 10.8
      vertex 40.3616 194.471 10.8
    endloop
  endfacet
  facet normal 0.00672028 -0.999977 0
    outer loop
      vertex 40.6663 194.455 10
      vertex 40.5175 194.454 10.8
      vertex 40.5175 194.454 10
    endloop
  endfacet
  facet normal 0.00672028 -0.999977 0
    outer loop
      vertex 40.6663 194.455 10
      vertex 40.6663 194.455 10.8
      vertex 40.5175 194.454 10.8
    endloop
  endfacet
  facet normal 0.125929 -0.992039 0
    outer loop
      vertex 40.8081 194.473 10
      vertex 40.6663 194.455 10.8
      vertex 40.6663 194.455 10
    endloop
  endfacet
  facet normal 0.125929 -0.992039 0
    outer loop
      vertex 40.8081 194.473 10
      vertex 40.8081 194.473 10.8
      vertex 40.6663 194.455 10.8
    endloop
  endfacet
  facet normal 0.244396 -0.969676 0
    outer loop
      vertex 40.943 194.507 10
      vertex 40.8081 194.473 10.8
      vertex 40.8081 194.473 10
    endloop
  endfacet
  facet normal 0.244396 -0.969676 0
    outer loop
      vertex 40.943 194.507 10
      vertex 40.943 194.507 10.8
      vertex 40.8081 194.473 10.8
    endloop
  endfacet
  facet normal 0.361643 -0.932317 0
    outer loop
      vertex 41.0719 194.557 10
      vertex 40.943 194.507 10.8
      vertex 40.943 194.507 10
    endloop
  endfacet
  facet normal 0.361643 -0.932317 0
    outer loop
      vertex 41.0719 194.557 10
      vertex 41.0719 194.557 10.8
      vertex 40.943 194.507 10.8
    endloop
  endfacet
  facet normal 0.464862 -0.885383 0
    outer loop
      vertex 41.1957 194.622 10
      vertex 41.0719 194.557 10.8
      vertex 41.0719 194.557 10
    endloop
  endfacet
  facet normal 0.464862 -0.885383 0
    outer loop
      vertex 41.1957 194.622 10
      vertex 41.1957 194.622 10.8
      vertex 41.0719 194.557 10.8
    endloop
  endfacet
  facet normal 0.563985 -0.825785 0
    outer loop
      vertex 41.3143 194.703 10
      vertex 41.1957 194.622 10.8
      vertex 41.1957 194.622 10
    endloop
  endfacet
  facet normal 0.563985 -0.825785 0
    outer loop
      vertex 41.3143 194.703 10
      vertex 41.3143 194.703 10.8
      vertex 41.1957 194.622 10.8
    endloop
  endfacet
  facet normal 0.633531 -0.773717 0
    outer loop
      vertex 41.4291 194.797 10
      vertex 41.3143 194.703 10.8
      vertex 41.3143 194.703 10
    endloop
  endfacet
  facet normal 0.633531 -0.773717 0
    outer loop
      vertex 41.4291 194.797 10
      vertex 41.4291 194.797 10.8
      vertex 41.3143 194.703 10.8
    endloop
  endfacet
  facet normal 0.687061 -0.7266 0
    outer loop
      vertex 41.5412 194.903 10
      vertex 41.4291 194.797 10.8
      vertex 41.4291 194.797 10
    endloop
  endfacet
  facet normal 0.687061 -0.7266 0
    outer loop
      vertex 41.5412 194.903 10
      vertex 41.5412 194.903 10.8
      vertex 41.4291 194.797 10.8
    endloop
  endfacet
  facet normal 0.732705 -0.680546 0
    outer loop
      vertex 41.6508 195.021 10
      vertex 41.5412 194.903 10.8
      vertex 41.5412 194.903 10
    endloop
  endfacet
  facet normal 0.732705 -0.680546 0
    outer loop
      vertex 41.6508 195.021 10
      vertex 41.6508 195.021 10.8
      vertex 41.5412 194.903 10.8
    endloop
  endfacet
  facet normal 0.776054 -0.630667 0
    outer loop
      vertex 41.7792 195.179 10
      vertex 41.6508 195.021 10.8
      vertex 41.6508 195.021 10
    endloop
  endfacet
  facet normal 0.776054 -0.630667 0
    outer loop
      vertex 41.7792 195.179 10
      vertex 41.7792 195.179 10.8
      vertex 41.6508 195.021 10.8
    endloop
  endfacet
  facet normal 0.805286 -0.592887 0
    outer loop
      vertex 41.9478 195.408 10
      vertex 41.7792 195.179 10.8
      vertex 41.7792 195.179 10
    endloop
  endfacet
  facet normal 0.805286 -0.592887 0
    outer loop
      vertex 41.9478 195.408 10
      vertex 41.9478 195.408 10.8
      vertex 41.7792 195.179 10.8
    endloop
  endfacet
  facet normal 0.819103 -0.573647 0
    outer loop
      vertex 42.1565 195.706 10
      vertex 41.9478 195.408 10.8
      vertex 41.9478 195.408 10
    endloop
  endfacet
  facet normal 0.819103 -0.573647 0
    outer loop
      vertex 42.1565 195.706 10
      vertex 42.1565 195.706 10.8
      vertex 41.9478 195.408 10.8
    endloop
  endfacet
  facet normal 0.834189 -0.551478 0
    outer loop
      vertex 42.3859 196.053 10
      vertex 42.1565 195.706 10.8
      vertex 42.1565 195.706 10
    endloop
  endfacet
  facet normal 0.834189 -0.551478 0
    outer loop
      vertex 42.3859 196.053 10
      vertex 42.3859 196.053 10.8
      vertex 42.1565 195.706 10.8
    endloop
  endfacet
  facet normal 0.813585 -0.581446 0
    outer loop
      vertex 42.571 196.312 10
      vertex 42.3859 196.053 10.8
      vertex 42.3859 196.053 10
    endloop
  endfacet
  facet normal 0.813585 -0.581446 0
    outer loop
      vertex 42.571 196.312 10
      vertex 42.571 196.312 10.8
      vertex 42.3859 196.053 10.8
    endloop
  endfacet
  facet normal 0.770149 -0.637864 0
    outer loop
      vertex 42.7118 196.482 10
      vertex 42.571 196.312 10.8
      vertex 42.571 196.312 10
    endloop
  endfacet
  facet normal 0.770149 -0.637864 0
    outer loop
      vertex 42.7118 196.482 10
      vertex 42.7118 196.482 10.8
      vertex 42.571 196.312 10.8
    endloop
  endfacet
  facet normal 0.687373 -0.726304 0
    outer loop
      vertex 42.8312 196.595 10
      vertex 42.7118 196.482 10.8
      vertex 42.7118 196.482 10
    endloop
  endfacet
  facet normal 0.687373 -0.726304 0
    outer loop
      vertex 42.8312 196.595 10
      vertex 42.8312 196.595 10.8
      vertex 42.7118 196.482 10.8
    endloop
  endfacet
  facet normal 0.585049 -0.810998 0
    outer loop
      vertex 42.9518 196.682 10
      vertex 42.8312 196.595 10.8
      vertex 42.8312 196.595 10
    endloop
  endfacet
  facet normal 0.585049 -0.810998 0
    outer loop
      vertex 42.9518 196.682 10
      vertex 42.9518 196.682 10.8
      vertex 42.8312 196.595 10.8
    endloop
  endfacet
  facet normal 0.44132 -0.89735 0
    outer loop
      vertex 43.0738 196.742 10
      vertex 42.9518 196.682 10.8
      vertex 42.9518 196.682 10
    endloop
  endfacet
  facet normal 0.44132 -0.89735 0
    outer loop
      vertex 43.0738 196.742 10
      vertex 43.0738 196.742 10.8
      vertex 42.9518 196.682 10.8
    endloop
  endfacet
  facet normal 0.232669 -0.972556 0
    outer loop
      vertex 43.1992 196.772 10
      vertex 43.0738 196.742 10.8
      vertex 43.0738 196.742 10
    endloop
  endfacet
  facet normal 0.232669 -0.972556 0
    outer loop
      vertex 43.1992 196.772 10
      vertex 43.1992 196.772 10.8
      vertex 43.0738 196.742 10.8
    endloop
  endfacet
  facet normal -0.0229122 -0.999737 0
    outer loop
      vertex 43.3301 196.769 10
      vertex 43.1992 196.772 10.8
      vertex 43.1992 196.772 10
    endloop
  endfacet
  facet normal -0.0229122 -0.999737 0
    outer loop
      vertex 43.3301 196.769 10
      vertex 43.3301 196.769 10.8
      vertex 43.1992 196.772 10.8
    endloop
  endfacet
  facet normal -0.26819 -0.963366 0
    outer loop
      vertex 43.4666 196.731 10
      vertex 43.3301 196.769 10.8
      vertex 43.3301 196.769 10
    endloop
  endfacet
  facet normal -0.26819 -0.963366 0
    outer loop
      vertex 43.4666 196.731 10
      vertex 43.4666 196.731 10.8
      vertex 43.3301 196.769 10.8
    endloop
  endfacet
  facet normal -0.635622 -0.772001 0
    outer loop
      vertex 43.7836 196.47 10
      vertex 43.4666 196.731 10.8
      vertex 43.4666 196.731 10
    endloop
  endfacet
  facet normal -0.635622 -0.772001 0
    outer loop
      vertex 43.7836 196.47 10
      vertex 43.7836 196.47 10.8
      vertex 43.4666 196.731 10.8
    endloop
  endfacet
  facet normal -0.984766 -0.173887 0
    outer loop
      vertex 43.862 196.026 10
      vertex 43.7836 196.47 10.8
      vertex 43.7836 196.47 10
    endloop
  endfacet
  facet normal -0.984766 -0.173887 0
    outer loop
      vertex 43.862 196.026 10
      vertex 43.862 196.026 10.8
      vertex 43.7836 196.47 10.8
    endloop
  endfacet
  facet normal -0.968743 0.248066 0
    outer loop
      vertex 43.7017 195.4 10
      vertex 43.862 196.026 10.8
      vertex 43.862 196.026 10
    endloop
  endfacet
  facet normal -0.968743 0.248066 0
    outer loop
      vertex 43.7017 195.4 10
      vertex 43.7017 195.4 10.8
      vertex 43.862 196.026 10.8
    endloop
  endfacet
  facet normal -0.907917 0.41915 0
    outer loop
      vertex 43.5572 195.087 10
      vertex 43.7017 195.4 10.8
      vertex 43.7017 195.4 10
    endloop
  endfacet
  facet normal -0.907917 0.41915 0
    outer loop
      vertex 43.5572 195.087 10
      vertex 43.5572 195.087 10.8
      vertex 43.7017 195.4 10.8
    endloop
  endfacet
  facet normal -0.833087 0.553143 0
    outer loop
      vertex 43.3932 194.84 10
      vertex 43.5572 195.087 10.8
      vertex 43.5572 195.087 10
    endloop
  endfacet
  facet normal -0.833087 0.553143 0
    outer loop
      vertex 43.3932 194.84 10
      vertex 43.3932 194.84 10.8
      vertex 43.5572 195.087 10.8
    endloop
  endfacet
  facet normal -0.704199 0.710003 0
    outer loop
      vertex 43.2097 194.658 10
      vertex 43.3932 194.84 10.8
      vertex 43.3932 194.84 10
    endloop
  endfacet
  facet normal -0.704199 0.710003 0
    outer loop
      vertex 43.2097 194.658 10
      vertex 43.2097 194.658 10.8
      vertex 43.3932 194.84 10.8
    endloop
  endfacet
  facet normal -0.495332 0.868704 0
    outer loop
      vertex 43.001 194.539 10
      vertex 43.2097 194.658 10.8
      vertex 43.2097 194.658 10
    endloop
  endfacet
  facet normal -0.495332 0.868704 0
    outer loop
      vertex 43.001 194.539 10
      vertex 43.001 194.539 10.8
      vertex 43.2097 194.658 10.8
    endloop
  endfacet
  facet normal -0.235182 0.971951 0
    outer loop
      vertex 42.7613 194.481 10
      vertex 43.001 194.539 10.8
      vertex 43.001 194.539 10
    endloop
  endfacet
  facet normal -0.235182 0.971951 0
    outer loop
      vertex 42.7613 194.481 10
      vertex 42.7613 194.481 10.8
      vertex 43.001 194.539 10.8
    endloop
  endfacet
  facet normal 0.0147749 0.999891 0
    outer loop
      vertex 42.4906 194.485 10
      vertex 42.7613 194.481 10.8
      vertex 42.7613 194.481 10
    endloop
  endfacet
  facet normal 0.0147749 0.999891 -0
    outer loop
      vertex 42.4906 194.485 10
      vertex 42.4906 194.485 10.8
      vertex 42.7613 194.481 10.8
    endloop
  endfacet
  facet normal -0.978384 0.206795 0
    outer loop
      vertex 42.2674 193.429 10
      vertex 42.4906 194.485 10.8
      vertex 42.4906 194.485 10
    endloop
  endfacet
  facet normal -0.978384 0.206795 0
    outer loop
      vertex 42.2674 193.429 10
      vertex 42.2674 193.429 10.8
      vertex 42.4906 194.485 10.8
    endloop
  endfacet
  facet normal -0.0361005 -0.999348 0
    outer loop
      vertex 42.738 193.412 10
      vertex 42.2674 193.429 10.8
      vertex 42.2674 193.429 10
    endloop
  endfacet
  facet normal -0.0361005 -0.999348 0
    outer loop
      vertex 42.738 193.412 10
      vertex 42.738 193.412 10.8
      vertex 42.2674 193.429 10.8
    endloop
  endfacet
  facet normal 0.223543 -0.974694 0
    outer loop
      vertex 43.1653 193.51 10
      vertex 42.738 193.412 10.8
      vertex 42.738 193.412 10
    endloop
  endfacet
  facet normal 0.223543 -0.974694 0
    outer loop
      vertex 43.1653 193.51 10
      vertex 43.1653 193.51 10.8
      vertex 42.738 193.412 10.8
    endloop
  endfacet
  facet normal 0.485256 -0.874372 0
    outer loop
      vertex 43.5491 193.723 10
      vertex 43.1653 193.51 10.8
      vertex 43.1653 193.51 10
    endloop
  endfacet
  facet normal 0.485256 -0.874372 0
    outer loop
      vertex 43.5491 193.723 10
      vertex 43.5491 193.723 10.8
      vertex 43.1653 193.51 10.8
    endloop
  endfacet
  facet normal 0.693634 -0.720328 0
    outer loop
      vertex 43.8918 194.053 10
      vertex 43.5491 193.723 10.8
      vertex 43.5491 193.723 10
    endloop
  endfacet
  facet normal 0.693634 -0.720328 0
    outer loop
      vertex 43.8918 194.053 10
      vertex 43.8918 194.053 10.8
      vertex 43.5491 193.723 10.8
    endloop
  endfacet
  facet normal 0.828891 -0.55941 0
    outer loop
      vertex 44.1955 194.503 10
      vertex 43.8918 194.053 10.8
      vertex 43.8918 194.053 10
    endloop
  endfacet
  facet normal 0.828891 -0.55941 0
    outer loop
      vertex 44.1955 194.503 10
      vertex 44.1955 194.503 10.8
      vertex 43.8918 194.053 10.8
    endloop
  endfacet
  facet normal 0.906691 -0.421795 0
    outer loop
      vertex 44.4602 195.072 10
      vertex 44.1955 194.503 10.8
      vertex 44.1955 194.503 10
    endloop
  endfacet
  facet normal 0.906691 -0.421795 0
    outer loop
      vertex 44.4602 195.072 10
      vertex 44.4602 195.072 10.8
      vertex 44.1955 194.503 10.8
    endloop
  endfacet
  facet normal 0.953952 -0.29996 0
    outer loop
      vertex 44.6649 195.723 10
      vertex 44.4602 195.072 10.8
      vertex 44.4602 195.072 10
    endloop
  endfacet
  facet normal 0.953952 -0.29996 0
    outer loop
      vertex 44.6649 195.723 10
      vertex 44.6649 195.723 10.8
      vertex 44.4602 195.072 10.8
    endloop
  endfacet
  facet normal 0.564818 0.825215 0
    outer loop
      vertex 43.7639 201.559 10
      vertex 44.7311 200.897 10.8
      vertex 44.7311 200.897 10
    endloop
  endfacet
  facet normal 0.564818 0.825215 -0
    outer loop
      vertex 43.7639 201.559 10
      vertex 43.7639 201.559 10.8
      vertex 44.7311 200.897 10.8
    endloop
  endfacet
  facet normal 0.562143 0.82704 0
    outer loop
      vertex 43.3446 201.844 10
      vertex 43.7639 201.559 10.8
      vertex 43.7639 201.559 10
    endloop
  endfacet
  facet normal 0.562143 0.82704 -0
    outer loop
      vertex 43.3446 201.844 10
      vertex 43.3446 201.844 10.8
      vertex 43.7639 201.559 10.8
    endloop
  endfacet
  facet normal 0.54733 0.836917 0
    outer loop
      vertex 43.1764 201.954 10
      vertex 43.3446 201.844 10.8
      vertex 43.3446 201.844 10
    endloop
  endfacet
  facet normal 0.54733 0.836917 -0
    outer loop
      vertex 43.1764 201.954 10
      vertex 43.1764 201.954 10.8
      vertex 43.3446 201.844 10.8
    endloop
  endfacet
  facet normal 0.533725 0.845658 0
    outer loop
      vertex 42.9625 202.089 10
      vertex 43.1764 201.954 10.8
      vertex 43.1764 201.954 10
    endloop
  endfacet
  facet normal 0.533725 0.845658 -0
    outer loop
      vertex 42.9625 202.089 10
      vertex 42.9625 202.089 10.8
      vertex 43.1764 201.954 10.8
    endloop
  endfacet
  facet normal 0.529558 0.848274 0
    outer loop
      vertex 42.703 202.251 10
      vertex 42.9625 202.089 10.8
      vertex 42.9625 202.089 10
    endloop
  endfacet
  facet normal 0.529558 0.848274 -0
    outer loop
      vertex 42.703 202.251 10
      vertex 42.703 202.251 10.8
      vertex 42.9625 202.089 10.8
    endloop
  endfacet
  facet normal -0.204567 -0.978853 0
    outer loop
      vertex 43.0858 202.171 10
      vertex 42.703 202.251 10.8
      vertex 42.703 202.251 10
    endloop
  endfacet
  facet normal -0.204567 -0.978853 0
    outer loop
      vertex 43.0858 202.171 10
      vertex 43.0858 202.171 10.8
      vertex 42.703 202.251 10.8
    endloop
  endfacet
  facet normal -0.177964 -0.984037 0
    outer loop
      vertex 43.4618 202.103 10
      vertex 43.0858 202.171 10.8
      vertex 43.0858 202.171 10
    endloop
  endfacet
  facet normal -0.177964 -0.984037 0
    outer loop
      vertex 43.4618 202.103 10
      vertex 43.4618 202.103 10.8
      vertex 43.0858 202.171 10.8
    endloop
  endfacet
  facet normal -0.147345 -0.989085 0
    outer loop
      vertex 43.831 202.048 10
      vertex 43.4618 202.103 10.8
      vertex 43.4618 202.103 10
    endloop
  endfacet
  facet normal -0.147345 -0.989085 0
    outer loop
      vertex 43.831 202.048 10
      vertex 43.831 202.048 10.8
      vertex 43.4618 202.103 10.8
    endloop
  endfacet
  facet normal -0.141314 -0.989965 0
    outer loop
      vertex 46.9274 201.606 10
      vertex 43.831 202.048 10.8
      vertex 43.831 202.048 10
    endloop
  endfacet
  facet normal -0.141314 -0.989965 0
    outer loop
      vertex 46.9274 201.606 10
      vertex 46.9274 201.606 10.8
      vertex 43.831 202.048 10.8
    endloop
  endfacet
  facet normal 0.931735 -0.36314 0
    outer loop
      vertex 47.4025 202.825 10
      vertex 46.9274 201.606 10.8
      vertex 46.9274 201.606 10
    endloop
  endfacet
  facet normal 0.931735 -0.36314 0
    outer loop
      vertex 47.4025 202.825 10
      vertex 47.4025 202.825 10.8
      vertex 46.9274 201.606 10.8
    endloop
  endfacet
  facet normal 0.584678 0.811266 0
    outer loop
      vertex 42.9915 206.004 10
      vertex 47.4025 202.825 10.8
      vertex 47.4025 202.825 10
    endloop
  endfacet
  facet normal 0.584678 0.811266 -0
    outer loop
      vertex 42.9915 206.004 10
      vertex 42.9915 206.004 10.8
      vertex 47.4025 202.825 10.8
    endloop
  endfacet
  facet normal -0.931682 0.363275 0
    outer loop
      vertex 42.5856 204.963 10
      vertex 42.9915 206.004 10.8
      vertex 42.9915 206.004 10
    endloop
  endfacet
  facet normal -0.931682 0.363275 0
    outer loop
      vertex 42.5856 204.963 10
      vertex 42.5856 204.963 10.8
      vertex 42.9915 206.004 10.8
    endloop
  endfacet
  facet normal -0.55245 -0.833546 0
    outer loop
      vertex 45.0842 203.307 10
      vertex 42.5856 204.963 10.8
      vertex 42.5856 204.963 10
    endloop
  endfacet
  facet normal -0.55245 -0.833546 0
    outer loop
      vertex 45.0842 203.307 10
      vertex 45.0842 203.307 10.8
      vertex 42.5856 204.963 10.8
    endloop
  endfacet
  facet normal -0.562685 -0.826671 0
    outer loop
      vertex 45.8129 202.811 10
      vertex 45.0842 203.307 10.8
      vertex 45.0842 203.307 10
    endloop
  endfacet
  facet normal -0.562685 -0.826671 0
    outer loop
      vertex 45.8129 202.811 10
      vertex 45.8129 202.811 10.8
      vertex 45.0842 203.307 10.8
    endloop
  endfacet
  facet normal -0.552201 -0.833711 0
    outer loop
      vertex 46.1828 202.566 10
      vertex 45.8129 202.811 10.8
      vertex 45.8129 202.811 10
    endloop
  endfacet
  facet normal -0.552201 -0.833711 0
    outer loop
      vertex 46.1828 202.566 10
      vertex 46.1828 202.566 10.8
      vertex 45.8129 202.811 10.8
    endloop
  endfacet
  facet normal 0.1988 0.98004 0
    outer loop
      vertex 45.537 202.697 10
      vertex 46.1828 202.566 10.8
      vertex 46.1828 202.566 10
    endloop
  endfacet
  facet normal 0.1988 0.98004 -0
    outer loop
      vertex 45.537 202.697 10
      vertex 45.537 202.697 10.8
      vertex 46.1828 202.566 10.8
    endloop
  endfacet
  facet normal 0.186883 0.982382 0
    outer loop
      vertex 45.0639 202.787 10
      vertex 45.537 202.697 10.8
      vertex 45.537 202.697 10
    endloop
  endfacet
  facet normal 0.186883 0.982382 -0
    outer loop
      vertex 45.0639 202.787 10
      vertex 45.0639 202.787 10.8
      vertex 45.537 202.697 10.8
    endloop
  endfacet
  facet normal 0.157837 0.987465 0
    outer loop
      vertex 44.7636 202.835 10
      vertex 45.0639 202.787 10.8
      vertex 45.0639 202.787 10
    endloop
  endfacet
  facet normal 0.157837 0.987465 -0
    outer loop
      vertex 44.7636 202.835 10
      vertex 44.7636 202.835 10.8
      vertex 45.0639 202.787 10.8
    endloop
  endfacet
  facet normal 0.138188 0.990406 0
    outer loop
      vertex 41.9111 203.233 10
      vertex 44.7636 202.835 10.8
      vertex 44.7636 202.835 10
    endloop
  endfacet
  facet normal 0.138188 0.990406 -0
    outer loop
      vertex 41.9111 203.233 10
      vertex 41.9111 203.233 10.8
      vertex 44.7636 202.835 10.8
    endloop
  endfacet
  facet normal -0.931712 0.363197 0
    outer loop
      vertex 41.4632 202.084 10
      vertex 41.9111 203.233 10.8
      vertex 41.9111 203.233 10
    endloop
  endfacet
  facet normal -0.931712 0.363197 0
    outer loop
      vertex 41.4632 202.084 10
      vertex 41.4632 202.084 10.8
      vertex 41.9111 203.233 10.8
    endloop
  endfacet
  facet normal -0.56549 -0.824755 0
    outer loop
      vertex 42.805 201.164 10
      vertex 41.4632 202.084 10.8
      vertex 41.4632 202.084 10
    endloop
  endfacet
  facet normal -0.56549 -0.824755 0
    outer loop
      vertex 42.805 201.164 10
      vertex 42.805 201.164 10.8
      vertex 41.4632 202.084 10.8
    endloop
  endfacet
  facet normal -0.563688 -0.825988 0
    outer loop
      vertex 43.7179 200.541 10
      vertex 42.805 201.164 10.8
      vertex 42.805 201.164 10
    endloop
  endfacet
  facet normal -0.563688 -0.825988 0
    outer loop
      vertex 43.7179 200.541 10
      vertex 43.7179 200.541 10.8
      vertex 42.805 201.164 10.8
    endloop
  endfacet
  facet normal -0.557468 -0.830198 0
    outer loop
      vertex 44.2019 200.216 10
      vertex 43.7179 200.541 10.8
      vertex 43.7179 200.541 10
    endloop
  endfacet
  facet normal -0.557468 -0.830198 0
    outer loop
      vertex 44.2019 200.216 10
      vertex 44.2019 200.216 10.8
      vertex 43.7179 200.541 10.8
    endloop
  endfacet
  facet normal -0.544494 -0.838765 0
    outer loop
      vertex 44.4761 200.038 10
      vertex 44.2019 200.216 10.8
      vertex 44.2019 200.216 10
    endloop
  endfacet
  facet normal -0.544494 -0.838765 0
    outer loop
      vertex 44.4761 200.038 10
      vertex 44.4761 200.038 10.8
      vertex 44.2019 200.216 10.8
    endloop
  endfacet
  facet normal -0.542464 -0.840079 0
    outer loop
      vertex 44.7595 199.855 10
      vertex 44.4761 200.038 10.8
      vertex 44.4761 200.038 10
    endloop
  endfacet
  facet normal -0.542464 -0.840079 0
    outer loop
      vertex 44.7595 199.855 10
      vertex 44.7595 199.855 10.8
      vertex 44.4761 200.038 10.8
    endloop
  endfacet
  facet normal -0.542454 -0.840086 0
    outer loop
      vertex 45.0522 199.666 10
      vertex 44.7595 199.855 10.8
      vertex 44.7595 199.855 10
    endloop
  endfacet
  facet normal -0.542454 -0.840086 0
    outer loop
      vertex 45.0522 199.666 10
      vertex 45.0522 199.666 10.8
      vertex 44.7595 199.855 10.8
    endloop
  endfacet
  facet normal 0.165499 0.98621 0
    outer loop
      vertex 44.2239 199.805 10
      vertex 45.0522 199.666 10.8
      vertex 45.0522 199.666 10
    endloop
  endfacet
  facet normal 0.165499 0.98621 -0
    outer loop
      vertex 44.2239 199.805 10
      vertex 44.2239 199.805 10.8
      vertex 45.0522 199.666 10.8
    endloop
  endfacet
  facet normal 0.150664 0.988585 0
    outer loop
      vertex 40.7791 200.33 10
      vertex 44.2239 199.805 10.8
      vertex 44.2239 199.805 10
    endloop
  endfacet
  facet normal 0.150664 0.988585 -0
    outer loop
      vertex 40.7791 200.33 10
      vertex 40.7791 200.33 10.8
      vertex 44.2239 199.805 10.8
    endloop
  endfacet
  facet normal -0.931712 0.363198 0
    outer loop
      vertex 40.3733 199.289 10
      vertex 40.7791 200.33 10.8
      vertex 40.7791 200.33 10
    endloop
  endfacet
  facet normal -0.931712 0.363198 0
    outer loop
      vertex 40.3733 199.289 10
      vertex 40.3733 199.289 10.8
      vertex 40.7791 200.33 10.8
    endloop
  endfacet
  facet normal -0.119377 -0.992849 0
    outer loop
      vertex 45.771 198.64 10
      vertex 40.3733 199.289 10.8
      vertex 40.3733 199.289 10
    endloop
  endfacet
  facet normal -0.119377 -0.992849 0
    outer loop
      vertex 45.771 198.64 10
      vertex 45.771 198.64 10.8
      vertex 40.3733 199.289 10.8
    endloop
  endfacet
  facet normal 0.931735 -0.36314 0
    outer loop
      vertex 46.2461 199.859 10
      vertex 45.771 198.64 10.8
      vertex 45.771 198.64 10
    endloop
  endfacet
  facet normal 0.931735 -0.36314 0
    outer loop
      vertex 46.2461 199.859 10
      vertex 46.2461 199.859 10.8
      vertex 45.771 198.64 10.8
    endloop
  endfacet
  facet normal 0.565211 0.824946 0
    outer loop
      vertex 44.7311 200.897 10
      vertex 46.2461 199.859 10.8
      vertex 46.2461 199.859 10
    endloop
  endfacet
  facet normal 0.565211 0.824946 -0
    outer loop
      vertex 44.7311 200.897 10
      vertex 44.7311 200.897 10.8
      vertex 46.2461 199.859 10.8
    endloop
  endfacet
  facet normal -0.931694 0.363245 0
    outer loop
      vertex 47.6305 205.755 10
      vertex 48.7896 208.728 10.8
      vertex 48.7896 208.728 10
    endloop
  endfacet
  facet normal -0.931694 0.363245 0
    outer loop
      vertex 47.6305 205.755 10
      vertex 47.6305 205.755 10.8
      vertex 48.7896 208.728 10.8
    endloop
  endfacet
  facet normal 0.362916 0.931822 0
    outer loop
      vertex 46.339 206.258 10
      vertex 47.6305 205.755 10.8
      vertex 47.6305 205.755 10
    endloop
  endfacet
  facet normal 0.362916 0.931822 -0
    outer loop
      vertex 46.339 206.258 10
      vertex 46.339 206.258 10.8
      vertex 47.6305 205.755 10.8
    endloop
  endfacet
  facet normal 0.931705 -0.363216 0
    outer loop
      vertex 47.3596 208.876 10
      vertex 46.339 206.258 10.8
      vertex 46.339 206.258 10
    endloop
  endfacet
  facet normal 0.931705 -0.363216 0
    outer loop
      vertex 47.3596 208.876 10
      vertex 47.3596 208.876 10.8
      vertex 46.339 206.258 10.8
    endloop
  endfacet
  facet normal 0.363811 0.931473 0
    outer loop
      vertex 46.5659 209.186 10
      vertex 47.3596 208.876 10.8
      vertex 47.3596 208.876 10
    endloop
  endfacet
  facet normal 0.363811 0.931473 -0
    outer loop
      vertex 46.5659 209.186 10
      vertex 46.5659 209.186 10.8
      vertex 47.3596 208.876 10.8
    endloop
  endfacet
  facet normal -0.931705 0.363216 0
    outer loop
      vertex 45.5453 206.568 10
      vertex 46.5659 209.186 10.8
      vertex 46.5659 209.186 10
    endloop
  endfacet
  facet normal -0.931705 0.363216 0
    outer loop
      vertex 45.5453 206.568 10
      vertex 45.5453 206.568 10.8
      vertex 46.5659 209.186 10.8
    endloop
  endfacet
  facet normal 0.362928 0.931817 0
    outer loop
      vertex 44.3129 207.048 10
      vertex 45.5453 206.568 10.8
      vertex 45.5453 206.568 10
    endloop
  endfacet
  facet normal 0.362928 0.931817 -0
    outer loop
      vertex 44.3129 207.048 10
      vertex 44.3129 207.048 10.8
      vertex 45.5453 206.568 10.8
    endloop
  endfacet
  facet normal 0.93172 -0.363177 0
    outer loop
      vertex 45.4164 209.879 10
      vertex 44.3129 207.048 10.8
      vertex 44.3129 207.048 10
    endloop
  endfacet
  facet normal 0.93172 -0.363177 0
    outer loop
      vertex 45.4164 209.879 10
      vertex 45.4164 209.879 10.8
      vertex 44.3129 207.048 10.8
    endloop
  endfacet
  facet normal 0.362792 0.93187 0
    outer loop
      vertex 44.6227 210.188 10
      vertex 45.4164 209.879 10.8
      vertex 45.4164 209.879 10
    endloop
  endfacet
  facet normal 0.362792 0.93187 -0
    outer loop
      vertex 44.6227 210.188 10
      vertex 44.6227 210.188 10.8
      vertex 45.4164 209.879 10.8
    endloop
  endfacet
  facet normal -0.931682 0.363276 0
    outer loop
      vertex 43.1188 206.331 10
      vertex 44.6227 210.188 10.8
      vertex 44.6227 210.188 10
    endloop
  endfacet
  facet normal -0.931682 0.363276 0
    outer loop
      vertex 43.1188 206.331 10
      vertex 43.1188 206.331 10.8
      vertex 44.6227 210.188 10.8
    endloop
  endfacet
  facet normal -0.363354 -0.931651 0
    outer loop
      vertex 48.0238 204.418 10
      vertex 43.1188 206.331 10.8
      vertex 43.1188 206.331 10
    endloop
  endfacet
  facet normal -0.363354 -0.931651 0
    outer loop
      vertex 48.0238 204.418 10
      vertex 48.0238 204.418 10.8
      vertex 43.1188 206.331 10.8
    endloop
  endfacet
  facet normal 0.931686 -0.363264 0
    outer loop
      vertex 49.5834 208.418 10
      vertex 48.0238 204.418 10.8
      vertex 48.0238 204.418 10
    endloop
  endfacet
  facet normal 0.931686 -0.363264 0
    outer loop
      vertex 49.5834 208.418 10
      vertex 49.5834 208.418 10.8
      vertex 48.0238 204.418 10.8
    endloop
  endfacet
  facet normal 0.363771 0.931488 0
    outer loop
      vertex 48.7896 208.728 10
      vertex 49.5834 208.418 10.8
      vertex 49.5834 208.418 10
    endloop
  endfacet
  facet normal 0.363771 0.931488 -0
    outer loop
      vertex 48.7896 208.728 10
      vertex 48.7896 208.728 10.8
      vertex 49.5834 208.418 10.8
    endloop
  endfacet
endsolid OpenSCAD_Model
