solid OpenSCAD_Model
  facet normal -0 0 -1
    outer loop
      vertex 140.224 84.984 0
      vertex 140.013 84.4421 0
      vertex 140.143 85.4012 0
    endloop
  endfacet
  facet normal 0 0 -1
    outer loop
      vertex 138.755 96.9543 0
      vertex 133.547 88.6386 0
      vertex 131.916 90.104 0
    endloop
  endfacet
  facet normal 0 0 -1
    outer loop
      vertex 137.848 84.4346 0
      vertex 137.734 84.4799 0
      vertex 140.143 85.4012 0
    endloop
  endfacet
  facet normal -0 0 -1
    outer loop
      vertex 144.573 89.4142 0
      vertex 143.973 89.1142 0
      vertex 142.611 93.9733 0
    endloop
  endfacet
  facet normal 0 0 -1
    outer loop
      vertex 142.172 86.0183 0
      vertex 143.897 89.0245 0
      vertex 143.23 86.8778 0
    endloop
  endfacet
  facet normal -0 0 -1
    outer loop
      vertex 142.172 86.0183 0
      vertex 140.256 85.5762 0
      vertex 143.897 89.0245 0
    endloop
  endfacet
  facet normal 0 0 -1
    outer loop
      vertex 145.722 91.9685 0
      vertex 142.611 93.9733 0
      vertex 142.876 94.0294 0
    endloop
  endfacet
  facet normal 0 0 -1
    outer loop
      vertex 145.722 91.9685 0
      vertex 144.634 89.4299 0
      vertex 144.573 89.4142 0
    endloop
  endfacet
  facet normal -0 -0 -1
    outer loop
      vertex 145.814 91.94 0
      vertex 146.007 90.2789 0
      vertex 145.722 91.9685 0
    endloop
  endfacet
  facet normal 0 0 -1
    outer loop
      vertex 145.814 91.94 0
      vertex 146.192 90.3508 0
      vertex 146.007 90.2789 0
    endloop
  endfacet
  facet normal -0 0 -1
    outer loop
      vertex 145.587 89.4665 0
      vertex 144.634 89.4299 0
      vertex 146.007 90.2789 0
    endloop
  endfacet
  facet normal 0 0 -1
    outer loop
      vertex 145.814 91.94 0
      vertex 146.567 91.9591 0
      vertex 146.192 90.3508 0
    endloop
  endfacet
  facet normal 0 0 -1
    outer loop
      vertex 146.192 90.3508 0
      vertex 146.567 91.9591 0
      vertex 147.784 91.3594 0
    endloop
  endfacet
  facet normal 0 0 -1
    outer loop
      vertex 146.192 90.3508 0
      vertex 147.784 91.3594 0
      vertex 147.692 89.8003 0
    endloop
  endfacet
  facet normal 0 -0 -1
    outer loop
      vertex 145.722 91.9685 0
      vertex 146.007 90.2789 0
      vertex 144.634 89.4299 0
    endloop
  endfacet
  facet normal -0 0 -1
    outer loop
      vertex 145.722 91.9685 0
      vertex 144.573 89.4142 0
      vertex 142.611 93.9733 0
    endloop
  endfacet
  facet normal -0 -0 -1
    outer loop
      vertex 142.611 93.9733 0
      vertex 143.973 89.1142 0
      vertex 142.495 93.9961 0
    endloop
  endfacet
  facet normal 0 0 -1
    outer loop
      vertex 142.495 93.9961 0
      vertex 143.973 89.1142 0
      vertex 143.897 89.0245 0
    endloop
  endfacet
  facet normal -0 0 -1
    outer loop
      vertex 141.615 94.5961 0
      vertex 135.969 87.637 0
      vertex 141.605 94.6042 0
    endloop
  endfacet
  facet normal 0 -0 -1
    outer loop
      vertex 141.615 94.5961 0
      vertex 142.495 93.9961 0
      vertex 135.969 87.637 0
    endloop
  endfacet
  facet normal 0 -0 -1
    outer loop
      vertex 138.755 96.9543 0
      vertex 141.605 94.6042 0
      vertex 135.819 87.77 0
    endloop
  endfacet
  facet normal 0 0 -1
    outer loop
      vertex 131.842 90.1766 0
      vertex 130.762 90.6666 0
      vertex 134.332 100.56 0
    endloop
  endfacet
  facet normal 0 0 -1
    outer loop
      vertex 127.108 92.1798 0
      vertex 126.823 100.741 0
      vertex 127.234 92.0979 0
    endloop
  endfacet
  facet normal 0 -0 -1
    outer loop
      vertex 136.65 100.702 0
      vertex 137.444 100.234 0
      vertex 136.15 100.483 0
    endloop
  endfacet
  facet normal 0 -0 -1
    outer loop
      vertex 136.15 100.483 0
      vertex 137.444 100.234 0
      vertex 136.082 100.47 0
    endloop
  endfacet
  facet normal 0 0 -1
    outer loop
      vertex 136.082 100.47 0
      vertex 137.444 100.234 0
      vertex 138.467 98.0506 0
    endloop
  endfacet
  facet normal 0 0 -1
    outer loop
      vertex 134.332 100.56 0
      vertex 136.082 100.47 0
      vertex 138.467 98.0506 0
    endloop
  endfacet
  facet normal 0 0 -1
    outer loop
      vertex 138.704 97.0359 0
      vertex 134.332 100.56 0
      vertex 138.467 98.0506 0
    endloop
  endfacet
  facet normal 0 0 -1
    outer loop
      vertex 121.542 99.5416 0
      vertex 121.67 99.6797 0
      vertex 125.428 92.2698 0
    endloop
  endfacet
  facet normal 0 0 -1
    outer loop
      vertex 127.108 92.1798 0
      vertex 125.428 92.2698 0
      vertex 126.706 100.69 0
    endloop
  endfacet
  facet normal 0 0 -1
    outer loop
      vertex 129.865 103.79 0
      vertex 127.043 100.991 0
      vertex 127.051 101.179 0
    endloop
  endfacet
  facet normal 0 0 -1
    outer loop
      vertex 130.062 104.007 0
      vertex 129.973 104.872 0
      vertex 130.732 104.606 0
    endloop
  endfacet
  facet normal 0 -0 -1
    outer loop
      vertex 131.383 104.426 0
      vertex 131.781 103.909 0
      vertex 130.061 103.831 0
    endloop
  endfacet
  facet normal -0 -0 -1
    outer loop
      vertex 133.35 102.306 0
      vertex 133.38 101.236 0
      vertex 133.101 102.837 0
    endloop
  endfacet
  facet normal -0 0 -1
    outer loop
      vertex 133.437 102.446 0
      vertex 133.35 102.306 0
      vertex 133.101 102.837 0
    endloop
  endfacet
  facet normal -0 0 -1
    outer loop
      vertex 133.508 102.479 0
      vertex 133.437 102.446 0
      vertex 133.101 102.837 0
    endloop
  endfacet
  facet normal 0 0 -1
    outer loop
      vertex 133.101 102.837 0
      vertex 131.888 103.85 0
      vertex 133.051 102.971 0
    endloop
  endfacet
  facet normal -0 -0 -1
    outer loop
      vertex 133.101 102.837 0
      vertex 133.38 101.236 0
      vertex 131.888 103.85 0
    endloop
  endfacet
  facet normal -0 0 -1
    outer loop
      vertex 133.14 103.602 0
      vertex 133.051 102.971 0
      vertex 132.958 103.765 0
    endloop
  endfacet
  facet normal -0 -0 -1
    outer loop
      vertex 132.958 103.765 0
      vertex 133.051 102.971 0
      vertex 131.888 103.85 0
    endloop
  endfacet
  facet normal 0 0 -1
    outer loop
      vertex 130.805 104.564 0
      vertex 130.061 103.831 0
      vertex 130.062 104.007 0
    endloop
  endfacet
  facet normal 0 0 -1
    outer loop
      vertex 130.062 104.007 0
      vertex 129.494 104.799 0
      vertex 129.973 104.872 0
    endloop
  endfacet
  facet normal 0 -0 -1
    outer loop
      vertex 130.072 104.933 0
      vertex 130.732 104.606 0
      vertex 129.973 104.872 0
    endloop
  endfacet
  facet normal 0 0 -1
    outer loop
      vertex 130.072 104.933 0
      vertex 130.218 105.136 0
      vertex 130.732 104.606 0
    endloop
  endfacet
  facet normal -0 0 -1
    outer loop
      vertex 130.805 104.564 0
      vertex 130.062 104.007 0
      vertex 130.732 104.606 0
    endloop
  endfacet
  facet normal -0 0 -1
    outer loop
      vertex 131.383 104.426 0
      vertex 130.061 103.831 0
      vertex 130.805 104.564 0
    endloop
  endfacet
  facet normal 0 -0 -1
    outer loop
      vertex 131.781 103.909 0
      vertex 131.888 103.85 0
      vertex 130.061 103.831 0
    endloop
  endfacet
  facet normal 0 0 -1
    outer loop
      vertex 129.865 103.79 0
      vertex 130.061 103.831 0
      vertex 133.38 101.236 0
    endloop
  endfacet
  facet normal 0 0 -1
    outer loop
      vertex 128.504 103.442 0
      vertex 127.051 101.179 0
      vertex 127.386 103.26 0
    endloop
  endfacet
  facet normal 0 0 -1
    outer loop
      vertex 130.061 103.831 0
      vertex 131.888 103.85 0
      vertex 133.38 101.236 0
    endloop
  endfacet
  facet normal 0 -0 -1
    outer loop
      vertex 128.613 103.521 0
      vertex 129.865 103.79 0
      vertex 128.504 103.442 0
    endloop
  endfacet
  facet normal -0 0 -1
    outer loop
      vertex 129.865 103.79 0
      vertex 128.613 103.521 0
      vertex 129.011 104.282 0
    endloop
  endfacet
  facet normal 0 0 -1
    outer loop
      vertex 127.386 103.26 0
      vertex 127.051 101.179 0
      vertex 126.855 101.446 0
    endloop
  endfacet
  facet normal 0 0 -1
    outer loop
      vertex 126.746 102.549 0
      vertex 127.386 103.26 0
      vertex 126.855 101.446 0
    endloop
  endfacet
  facet normal 0 -0 -1
    outer loop
      vertex 128.504 103.442 0
      vertex 129.865 103.79 0
      vertex 127.051 101.179 0
    endloop
  endfacet
  facet normal 0 -0 -1
    outer loop
      vertex 129.865 103.79 0
      vertex 133.38 101.236 0
      vertex 127.043 100.991 0
    endloop
  endfacet
  facet normal 0 0 -1
    outer loop
      vertex 126.823 100.741 0
      vertex 127.043 100.991 0
      vertex 133.448 101.114 0
    endloop
  endfacet
  facet normal 0 0 -1
    outer loop
      vertex 122.982 91.6817 0
      vertex 119.86 94.1048 0
      vertex 123.064 91.7099 0
    endloop
  endfacet
  facet normal 0 0 -1
    outer loop
      vertex 127.043 100.991 0
      vertex 133.38 101.236 0
      vertex 133.448 101.114 0
    endloop
  endfacet
  facet normal -0 0 -1
    outer loop
      vertex 121.912 90.9117 0
      vertex 121.867 90.8595 0
      vertex 119.76 91.2165 0
    endloop
  endfacet
  facet normal 0 0 -1
    outer loop
      vertex 119.944 89.7137 0
      vertex 119.76 91.2165 0
      vertex 120.408 89.6912 0
    endloop
  endfacet
  facet normal 0 0 -1
    outer loop
      vertex 121.71 100.26 0
      vertex 123.064 100.848 0
      vertex 123.186 100.78 0
    endloop
  endfacet
  facet normal 0 0 -1
    outer loop
      vertex 121.665 100.377 0
      vertex 121.791 102.813 0
      vertex 123.064 100.848 0
    endloop
  endfacet
  facet normal 0 0 -1
    outer loop
      vertex 121.665 100.377 0
      vertex 120.34 101.673 0
      vertex 121.791 102.813 0
    endloop
  endfacet
  facet normal 0 0 -1
    outer loop
      vertex 121.67 99.6797 0
      vertex 121.71 100.26 0
      vertex 123.186 100.78 0
    endloop
  endfacet
  facet normal 0 0 -1
    outer loop
      vertex 119.711 103.43 0
      vertex 119.563 103.53 0
      vertex 120.24 103.869 0
    endloop
  endfacet
  facet normal -0 0 -1
    outer loop
      vertex 119.563 103.53 0
      vertex 118.608 103.483 0
      vertex 120.24 103.869 0
    endloop
  endfacet
  facet normal 0 0 -1
    outer loop
      vertex 120.34 101.673 0
      vertex 119.711 103.43 0
      vertex 121.791 102.813 0
    endloop
  endfacet
  facet normal 0 0 -1
    outer loop
      vertex 119.711 103.43 0
      vertex 120.24 103.869 0
      vertex 121.791 102.813 0
    endloop
  endfacet
  facet normal -0 0 -1
    outer loop
      vertex 126.706 100.69 0
      vertex 121.67 99.6797 0
      vertex 123.186 100.78 0
    endloop
  endfacet
  facet normal 0 0 -1
    outer loop
      vertex 121.71 100.26 0
      vertex 121.665 100.377 0
      vertex 123.064 100.848 0
    endloop
  endfacet
  facet normal 0 0 -1
    outer loop
      vertex 120.857 99.011 0
      vertex 121.542 99.5416 0
      vertex 125.428 92.2698 0
    endloop
  endfacet
  facet normal 0 0 -1
    outer loop
      vertex 120.857 99.011 0
      vertex 120.983 99.2053 0
      vertex 121.542 99.5416 0
    endloop
  endfacet
  facet normal 0 0 -1
    outer loop
      vertex 121.542 99.5416 0
      vertex 120.983 99.2053 0
      vertex 120.906 99.4474 0
    endloop
  endfacet
  facet normal 0 0 -1
    outer loop
      vertex 119.01 96.8635 0
      vertex 120.857 99.011 0
      vertex 119.236 95.9257 0
    endloop
  endfacet
  facet normal 0 0 -1
    outer loop
      vertex 119.01 96.8635 0
      vertex 119.727 98.881 0
      vertex 120.857 99.011 0
    endloop
  endfacet
  facet normal 0 0 -1
    outer loop
      vertex 117.343 98.2928 0
      vertex 117.78 97.2469 0
      vertex 117.484 97.3439 0
    endloop
  endfacet
  facet normal 0 0 -1
    outer loop
      vertex 117.484 97.3439 0
      vertex 117.78 97.2469 0
      vertex 117.679 97.2324 0
    endloop
  endfacet
  facet normal -0 0 -1
    outer loop
      vertex 119.611 98.9172 0
      vertex 117.343 98.2928 0
      vertex 118.099 99.39 0
    endloop
  endfacet
  facet normal -0 -0 -1
    outer loop
      vertex 119.083 99.3805 0
      vertex 119.611 98.9172 0
      vertex 118.099 99.39 0
    endloop
  endfacet
  facet normal -0 0 -1
    outer loop
      vertex 118.099 99.39 0
      vertex 117.343 98.2928 0
      vertex 117.978 99.4528 0
    endloop
  endfacet
  facet normal 0 0 -1
    outer loop
      vertex 117.343 98.2928 0
      vertex 118.89 97.0169 0
      vertex 117.78 97.2469 0
    endloop
  endfacet
  facet normal 0 -0 -1
    outer loop
      vertex 117.718 99.8172 0
      vertex 117.978 99.4528 0
      vertex 117.343 98.2928 0
    endloop
  endfacet
  facet normal 0 0 -1
    outer loop
      vertex 118.982 96.2312 0
      vertex 119.01 96.8635 0
      vertex 119.236 95.9257 0
    endloop
  endfacet
  facet normal 0 0 -1
    outer loop
      vertex 119.236 95.9257 0
      vertex 119.475 94.9263 0
      vertex 119.247 95.7497 0
    endloop
  endfacet
  facet normal 0 0 -1
    outer loop
      vertex 117.484 97.3439 0
      vertex 117.679 97.2324 0
      vertex 117.626 97.1223 0
    endloop
  endfacet
  facet normal 0 0 -1
    outer loop
      vertex 118.89 97.0169 0
      vertex 119.611 98.9172 0
      vertex 119.727 98.881 0
    endloop
  endfacet
  facet normal 0 0 -1
    outer loop
      vertex 117.343 98.2928 0
      vertex 119.611 98.9172 0
      vertex 118.89 97.0169 0
    endloop
  endfacet
  facet normal 0 0 -1
    outer loop
      vertex 119.01 96.8635 0
      vertex 118.89 97.0169 0
      vertex 119.727 98.881 0
    endloop
  endfacet
  facet normal 0 0 -1
    outer loop
      vertex 119.475 94.9263 0
      vertex 119.402 94.9964 0
      vertex 119.247 95.7497 0
    endloop
  endfacet
  facet normal 0 0 -1
    outer loop
      vertex 119.236 95.9257 0
      vertex 120.857 99.011 0
      vertex 119.475 94.9263 0
    endloop
  endfacet
  facet normal 0 0 -1
    outer loop
      vertex 119.475 94.9263 0
      vertex 120.857 99.011 0
      vertex 119.845 94.1763 0
    endloop
  endfacet
  facet normal 0 0 -1
    outer loop
      vertex 118.592 95.3664 0
      vertex 118.384 95.8293 0
      vertex 119.09 95.6831 0
    endloop
  endfacet
  facet normal 0 0 -1
    outer loop
      vertex 118.46 95.3628 0
      vertex 118.215 95.4764 0
      vertex 118.384 95.8293 0
    endloop
  endfacet
  facet normal 0 0 -1
    outer loop
      vertex 119.845 94.1763 0
      vertex 123.064 91.7099 0
      vertex 119.86 94.1048 0
    endloop
  endfacet
  facet normal 0 0 -1
    outer loop
      vertex 121.912 90.9117 0
      vertex 119.86 94.1048 0
      vertex 122.982 91.6817 0
    endloop
  endfacet
  facet normal -0 0 -1
    outer loop
      vertex 118.592 95.3664 0
      vertex 118.46 95.3628 0
      vertex 118.384 95.8293 0
    endloop
  endfacet
  facet normal -0 0 -1
    outer loop
      vertex 118.46 95.3628 0
      vertex 118.248 95.2513 0
      vertex 118.215 95.4764 0
    endloop
  endfacet
  facet normal 0 0 -1
    outer loop
      vertex 119.402 94.9964 0
      vertex 118.592 95.3664 0
      vertex 119.09 95.6831 0
    endloop
  endfacet
  facet normal 0 -0 -1
    outer loop
      vertex 119.247 95.7497 0
      vertex 119.402 94.9964 0
      vertex 119.09 95.6831 0
    endloop
  endfacet
  facet normal -0 0 -1
    outer loop
      vertex 125.301 92.2116 0
      vertex 123.064 91.7099 0
      vertex 119.845 94.1763 0
    endloop
  endfacet
  facet normal 0 0 -1
    outer loop
      vertex 120.408 89.6912 0
      vertex 119.76 91.2165 0
      vertex 121.445 90.0521 0
    endloop
  endfacet
  facet normal 0 0 -1
    outer loop
      vertex 119.76 91.2165 0
      vertex 121.867 90.8595 0
      vertex 121.445 90.0521 0
    endloop
  endfacet
  facet normal 0 -0 -1
    outer loop
      vertex 119.86 94.1048 0
      vertex 121.912 90.9117 0
      vertex 119.76 91.2165 0
    endloop
  endfacet
  facet normal 0 0 -1
    outer loop
      vertex 140.013 84.4421 0
      vertex 138.495 83.7694 0
      vertex 137.848 84.4346 0
    endloop
  endfacet
  facet normal 0 0 -1
    outer loop
      vertex 137.734 84.4799 0
      vertex 136.281 84.898 0
      vertex 135.969 87.637 0
    endloop
  endfacet
  facet normal 0 0 -1
    outer loop
      vertex 119.845 94.1763 0
      vertex 120.857 99.011 0
      vertex 125.301 92.2116 0
    endloop
  endfacet
  facet normal -0 0 -1
    outer loop
      vertex 124.974 91.787 0
      vertex 123.064 91.7099 0
      vertex 125.301 92.2116 0
    endloop
  endfacet
  facet normal 0 0 -1
    outer loop
      vertex 127.234 92.0979 0
      vertex 126.823 100.741 0
      vertex 133.448 101.114 0
    endloop
  endfacet
  facet normal 0 0 -1
    outer loop
      vertex 125.301 92.2116 0
      vertex 120.857 99.011 0
      vertex 125.428 92.2698 0
    endloop
  endfacet
  facet normal 0 0 -1
    outer loop
      vertex 127.108 92.1798 0
      vertex 126.706 100.69 0
      vertex 126.823 100.741 0
    endloop
  endfacet
  facet normal 0 0 -1
    outer loop
      vertex 134.258 100.584 0
      vertex 128.891 91.0842 0
      vertex 127.234 92.0979 0
    endloop
  endfacet
  facet normal 0 0 -1
    outer loop
      vertex 125.428 92.2698 0
      vertex 121.67 99.6797 0
      vertex 126.706 100.69 0
    endloop
  endfacet
  facet normal -0 0 -1
    outer loop
      vertex 134.258 100.584 0
      vertex 127.234 92.0979 0
      vertex 133.448 101.114 0
    endloop
  endfacet
  facet normal 0 0 -1
    outer loop
      vertex 128.939 91.0605 0
      vertex 128.891 91.0842 0
      vertex 130.694 90.6799 0
    endloop
  endfacet
  facet normal 0 0 -1
    outer loop
      vertex 128.891 91.0842 0
      vertex 127.554 91.4662 0
      vertex 127.234 92.0979 0
    endloop
  endfacet
  facet normal 0 0 -1
    outer loop
      vertex 129.517 90.632 0
      vertex 128.939 91.0605 0
      vertex 130.694 90.6799 0
    endloop
  endfacet
  facet normal 0 -0 -1
    outer loop
      vertex 134.258 100.584 0
      vertex 134.332 100.56 0
      vertex 130.762 90.6666 0
    endloop
  endfacet
  facet normal 0 0 -1
    outer loop
      vertex 130.762 90.6666 0
      vertex 130.694 90.6799 0
      vertex 134.258 100.584 0
    endloop
  endfacet
  facet normal 0 0 -1
    outer loop
      vertex 130.694 90.6799 0
      vertex 128.891 91.0842 0
      vertex 134.258 100.584 0
    endloop
  endfacet
  facet normal 0 0 -1
    outer loop
      vertex 132.236 89.4252 0
      vertex 131.916 90.104 0
      vertex 133.547 88.6386 0
    endloop
  endfacet
  facet normal 0 0 -1
    outer loop
      vertex 133.547 88.6386 0
      vertex 135.819 87.77 0
      vertex 133.594 88.5951 0
    endloop
  endfacet
  facet normal 0 -0 -1
    outer loop
      vertex 134.332 100.56 0
      vertex 138.704 97.0359 0
      vertex 131.842 90.1766 0
    endloop
  endfacet
  facet normal 0 0 -1
    outer loop
      vertex 138.755 96.9543 0
      vertex 135.819 87.77 0
      vertex 133.547 88.6386 0
    endloop
  endfacet
  facet normal 0 0 -1
    outer loop
      vertex 131.842 90.1766 0
      vertex 138.704 97.0359 0
      vertex 138.755 96.9543 0
    endloop
  endfacet
  facet normal 0 0 -1
    outer loop
      vertex 131.916 90.104 0
      vertex 131.842 90.1766 0
      vertex 138.755 96.9543 0
    endloop
  endfacet
  facet normal 0 0 -1
    outer loop
      vertex 135.969 87.637 0
      vertex 143.897 89.0245 0
      vertex 140.256 85.5762 0
    endloop
  endfacet
  facet normal 0 0 -1
    outer loop
      vertex 133.594 88.5951 0
      vertex 135.819 87.77 0
      vertex 134.168 87.7604 0
    endloop
  endfacet
  facet normal 0 0 -1
    outer loop
      vertex 141.605 94.6042 0
      vertex 135.969 87.637 0
      vertex 135.819 87.77 0
    endloop
  endfacet
  facet normal -0 0 -1
    outer loop
      vertex 140.256 85.5762 0
      vertex 137.734 84.4799 0
      vertex 135.969 87.637 0
    endloop
  endfacet
  facet normal 0 -0 -1
    outer loop
      vertex 142.495 93.9961 0
      vertex 143.897 89.0245 0
      vertex 135.969 87.637 0
    endloop
  endfacet
  facet normal -0 0 -1
    outer loop
      vertex 137.734 84.4799 0
      vertex 136.981 84.4516 0
      vertex 136.281 84.898 0
    endloop
  endfacet
  facet normal -0 0 -1
    outer loop
      vertex 140.143 85.4012 0
      vertex 137.734 84.4799 0
      vertex 140.256 85.5762 0
    endloop
  endfacet
  facet normal -0 0 -1
    outer loop
      vertex 140.013 84.4421 0
      vertex 137.848 84.4346 0
      vertex 140.143 85.4012 0
    endloop
  endfacet
  facet normal 0 0 -1
    outer loop
      vertex 117.26 101.415 0
      vertex 116.833 102.332 0
      vertex 117.22 102.162 0
    endloop
  endfacet
  facet normal -0 0 -1
    outer loop
      vertex 117.232 102.229 0
      vertex 117.22 102.162 0
      vertex 116.833 102.332 0
    endloop
  endfacet
  facet normal 0 0 -1
    outer loop
      vertex 117.546 102.959 0
      vertex 117.232 102.229 0
      vertex 116.833 102.332 0
    endloop
  endfacet
  facet normal 0 0 1
    outer loop
      vertex 140.143 85.4012 10
      vertex 140.013 84.4421 10
      vertex 140.224 84.984 10
    endloop
  endfacet
  facet normal -0 0 1
    outer loop
      vertex 131.916 90.104 10
      vertex 133.547 88.6386 10
      vertex 138.755 96.9543 10
    endloop
  endfacet
  facet normal 0 0 1
    outer loop
      vertex 140.143 85.4012 10
      vertex 137.734 84.4799 10
      vertex 137.848 84.4346 10
    endloop
  endfacet
  facet normal 0 0 1
    outer loop
      vertex 142.611 93.9733 10
      vertex 143.973 89.1142 10
      vertex 144.573 89.4142 10
    endloop
  endfacet
  facet normal 0 -0 1
    outer loop
      vertex 143.23 86.8778 10
      vertex 143.897 89.0245 10
      vertex 142.172 86.0183 10
    endloop
  endfacet
  facet normal 0 0 1
    outer loop
      vertex 143.897 89.0245 10
      vertex 140.256 85.5762 10
      vertex 142.172 86.0183 10
    endloop
  endfacet
  facet normal 0 0 1
    outer loop
      vertex 142.876 94.0294 10
      vertex 142.611 93.9733 10
      vertex 145.722 91.9685 10
    endloop
  endfacet
  facet normal 0 0 1
    outer loop
      vertex 144.573 89.4142 10
      vertex 144.634 89.4299 10
      vertex 145.722 91.9685 10
    endloop
  endfacet
  facet normal 0 0 1
    outer loop
      vertex 145.722 91.9685 10
      vertex 146.007 90.2789 10
      vertex 145.814 91.94 10
    endloop
  endfacet
  facet normal 0 -0 1
    outer loop
      vertex 146.007 90.2789 10
      vertex 146.192 90.3508 10
      vertex 145.814 91.94 10
    endloop
  endfacet
  facet normal 0 0 1
    outer loop
      vertex 146.007 90.2789 10
      vertex 144.634 89.4299 10
      vertex 145.587 89.4665 10
    endloop
  endfacet
  facet normal 0 -0 1
    outer loop
      vertex 146.192 90.3508 10
      vertex 146.567 91.9591 10
      vertex 145.814 91.94 10
    endloop
  endfacet
  facet normal 0 0 1
    outer loop
      vertex 147.784 91.3594 10
      vertex 146.567 91.9591 10
      vertex 146.192 90.3508 10
    endloop
  endfacet
  facet normal 0 -0 1
    outer loop
      vertex 147.692 89.8003 10
      vertex 147.784 91.3594 10
      vertex 146.192 90.3508 10
    endloop
  endfacet
  facet normal 0 0 1
    outer loop
      vertex 144.634 89.4299 10
      vertex 146.007 90.2789 10
      vertex 145.722 91.9685 10
    endloop
  endfacet
  facet normal 0 0 1
    outer loop
      vertex 142.611 93.9733 10
      vertex 144.573 89.4142 10
      vertex 145.722 91.9685 10
    endloop
  endfacet
  facet normal 0 0 1
    outer loop
      vertex 142.495 93.9961 10
      vertex 143.973 89.1142 10
      vertex 142.611 93.9733 10
    endloop
  endfacet
  facet normal 0 -0 1
    outer loop
      vertex 143.897 89.0245 10
      vertex 143.973 89.1142 10
      vertex 142.495 93.9961 10
    endloop
  endfacet
  facet normal 0 0 1
    outer loop
      vertex 141.605 94.6042 10
      vertex 135.969 87.637 10
      vertex 141.615 94.5961 10
    endloop
  endfacet
  facet normal 0 0 1
    outer loop
      vertex 135.969 87.637 10
      vertex 142.495 93.9961 10
      vertex 141.615 94.5961 10
    endloop
  endfacet
  facet normal 0 0 1
    outer loop
      vertex 135.819 87.77 10
      vertex 141.605 94.6042 10
      vertex 138.755 96.9543 10
    endloop
  endfacet
  facet normal 0 0 1
    outer loop
      vertex 134.332 100.56 10
      vertex 130.762 90.6666 10
      vertex 131.842 90.1766 10
    endloop
  endfacet
  facet normal 0 0 1
    outer loop
      vertex 127.234 92.0979 10
      vertex 126.823 100.741 10
      vertex 127.108 92.1798 10
    endloop
  endfacet
  facet normal -0 0 1
    outer loop
      vertex 136.15 100.483 10
      vertex 137.444 100.234 10
      vertex 136.65 100.702 10
    endloop
  endfacet
  facet normal -0 0 1
    outer loop
      vertex 136.082 100.47 10
      vertex 137.444 100.234 10
      vertex 136.15 100.483 10
    endloop
  endfacet
  facet normal 0 0 1
    outer loop
      vertex 138.467 98.0506 10
      vertex 137.444 100.234 10
      vertex 136.082 100.47 10
    endloop
  endfacet
  facet normal 0 0 1
    outer loop
      vertex 138.467 98.0506 10
      vertex 136.082 100.47 10
      vertex 134.332 100.56 10
    endloop
  endfacet
  facet normal 0 0 1
    outer loop
      vertex 138.467 98.0506 10
      vertex 134.332 100.56 10
      vertex 138.704 97.0359 10
    endloop
  endfacet
  facet normal 0 0 1
    outer loop
      vertex 125.428 92.2698 10
      vertex 121.67 99.6797 10
      vertex 121.542 99.5416 10
    endloop
  endfacet
  facet normal 0 0 1
    outer loop
      vertex 126.706 100.69 10
      vertex 125.428 92.2698 10
      vertex 127.108 92.1798 10
    endloop
  endfacet
  facet normal -0 0 1
    outer loop
      vertex 127.051 101.179 10
      vertex 127.043 100.991 10
      vertex 129.865 103.79 10
    endloop
  endfacet
  facet normal 0 0 1
    outer loop
      vertex 130.732 104.606 10
      vertex 129.973 104.872 10
      vertex 130.062 104.007 10
    endloop
  endfacet
  facet normal 0 0 1
    outer loop
      vertex 130.061 103.831 10
      vertex 131.781 103.909 10
      vertex 131.383 104.426 10
    endloop
  endfacet
  facet normal 0 0 1
    outer loop
      vertex 133.101 102.837 10
      vertex 133.38 101.236 10
      vertex 133.35 102.306 10
    endloop
  endfacet
  facet normal 0 0 1
    outer loop
      vertex 133.101 102.837 10
      vertex 133.35 102.306 10
      vertex 133.437 102.446 10
    endloop
  endfacet
  facet normal 0 0 1
    outer loop
      vertex 133.101 102.837 10
      vertex 133.437 102.446 10
      vertex 133.508 102.479 10
    endloop
  endfacet
  facet normal 0 0 1
    outer loop
      vertex 133.051 102.971 10
      vertex 131.888 103.85 10
      vertex 133.101 102.837 10
    endloop
  endfacet
  facet normal 0 0 1
    outer loop
      vertex 131.888 103.85 10
      vertex 133.38 101.236 10
      vertex 133.101 102.837 10
    endloop
  endfacet
  facet normal 0 0 1
    outer loop
      vertex 132.958 103.765 10
      vertex 133.051 102.971 10
      vertex 133.14 103.602 10
    endloop
  endfacet
  facet normal 0 0 1
    outer loop
      vertex 131.888 103.85 10
      vertex 133.051 102.971 10
      vertex 132.958 103.765 10
    endloop
  endfacet
  facet normal -0 0 1
    outer loop
      vertex 130.062 104.007 10
      vertex 130.061 103.831 10
      vertex 130.805 104.564 10
    endloop
  endfacet
  facet normal 0 0 1
    outer loop
      vertex 129.973 104.872 10
      vertex 129.494 104.799 10
      vertex 130.062 104.007 10
    endloop
  endfacet
  facet normal -0 0 1
    outer loop
      vertex 129.973 104.872 10
      vertex 130.732 104.606 10
      vertex 130.072 104.933 10
    endloop
  endfacet
  facet normal 0 0 1
    outer loop
      vertex 130.732 104.606 10
      vertex 130.218 105.136 10
      vertex 130.072 104.933 10
    endloop
  endfacet
  facet normal 0 0 1
    outer loop
      vertex 130.732 104.606 10
      vertex 130.062 104.007 10
      vertex 130.805 104.564 10
    endloop
  endfacet
  facet normal 0 0 1
    outer loop
      vertex 130.805 104.564 10
      vertex 130.061 103.831 10
      vertex 131.383 104.426 10
    endloop
  endfacet
  facet normal 0 0 1
    outer loop
      vertex 130.061 103.831 10
      vertex 131.888 103.85 10
      vertex 131.781 103.909 10
    endloop
  endfacet
  facet normal 0 0 1
    outer loop
      vertex 133.38 101.236 10
      vertex 130.061 103.831 10
      vertex 129.865 103.79 10
    endloop
  endfacet
  facet normal -0 0 1
    outer loop
      vertex 127.386 103.26 10
      vertex 127.051 101.179 10
      vertex 128.504 103.442 10
    endloop
  endfacet
  facet normal 0 0 1
    outer loop
      vertex 133.38 101.236 10
      vertex 131.888 103.85 10
      vertex 130.061 103.831 10
    endloop
  endfacet
  facet normal 0 0 1
    outer loop
      vertex 128.504 103.442 10
      vertex 129.865 103.79 10
      vertex 128.613 103.521 10
    endloop
  endfacet
  facet normal 0 0 1
    outer loop
      vertex 129.011 104.282 10
      vertex 128.613 103.521 10
      vertex 129.865 103.79 10
    endloop
  endfacet
  facet normal -0 0 1
    outer loop
      vertex 126.855 101.446 10
      vertex 127.051 101.179 10
      vertex 127.386 103.26 10
    endloop
  endfacet
  facet normal 0 -0 1
    outer loop
      vertex 126.855 101.446 10
      vertex 127.386 103.26 10
      vertex 126.746 102.549 10
    endloop
  endfacet
  facet normal 0 0 1
    outer loop
      vertex 127.051 101.179 10
      vertex 129.865 103.79 10
      vertex 128.504 103.442 10
    endloop
  endfacet
  facet normal 0 0 1
    outer loop
      vertex 127.043 100.991 10
      vertex 133.38 101.236 10
      vertex 129.865 103.79 10
    endloop
  endfacet
  facet normal 0 0 1
    outer loop
      vertex 133.448 101.114 10
      vertex 127.043 100.991 10
      vertex 126.823 100.741 10
    endloop
  endfacet
  facet normal 0 0 1
    outer loop
      vertex 123.064 91.7099 10
      vertex 119.86 94.1048 10
      vertex 122.982 91.6817 10
    endloop
  endfacet
  facet normal 0 0 1
    outer loop
      vertex 133.448 101.114 10
      vertex 133.38 101.236 10
      vertex 127.043 100.991 10
    endloop
  endfacet
  facet normal 0 0 1
    outer loop
      vertex 119.76 91.2165 10
      vertex 121.867 90.8595 10
      vertex 121.912 90.9117 10
    endloop
  endfacet
  facet normal 0 0 1
    outer loop
      vertex 120.408 89.6912 10
      vertex 119.76 91.2165 10
      vertex 119.944 89.7137 10
    endloop
  endfacet
  facet normal 0 0 1
    outer loop
      vertex 123.186 100.78 10
      vertex 123.064 100.848 10
      vertex 121.71 100.26 10
    endloop
  endfacet
  facet normal 0 0 1
    outer loop
      vertex 123.064 100.848 10
      vertex 121.791 102.813 10
      vertex 121.665 100.377 10
    endloop
  endfacet
  facet normal 0 0 1
    outer loop
      vertex 121.791 102.813 10
      vertex 120.34 101.673 10
      vertex 121.665 100.377 10
    endloop
  endfacet
  facet normal 0 0 1
    outer loop
      vertex 123.186 100.78 10
      vertex 121.71 100.26 10
      vertex 121.67 99.6797 10
    endloop
  endfacet
  facet normal 0 0 1
    outer loop
      vertex 120.24 103.869 10
      vertex 119.563 103.53 10
      vertex 119.711 103.43 10
    endloop
  endfacet
  facet normal 0 0 1
    outer loop
      vertex 120.24 103.869 10
      vertex 118.608 103.483 10
      vertex 119.563 103.53 10
    endloop
  endfacet
  facet normal 0 0 1
    outer loop
      vertex 121.791 102.813 10
      vertex 119.711 103.43 10
      vertex 120.34 101.673 10
    endloop
  endfacet
  facet normal 0 0 1
    outer loop
      vertex 121.791 102.813 10
      vertex 120.24 103.869 10
      vertex 119.711 103.43 10
    endloop
  endfacet
  facet normal 0 0 1
    outer loop
      vertex 123.186 100.78 10
      vertex 121.67 99.6797 10
      vertex 126.706 100.69 10
    endloop
  endfacet
  facet normal 0 0 1
    outer loop
      vertex 123.064 100.848 10
      vertex 121.665 100.377 10
      vertex 121.71 100.26 10
    endloop
  endfacet
  facet normal 0 0 1
    outer loop
      vertex 125.428 92.2698 10
      vertex 121.542 99.5416 10
      vertex 120.857 99.011 10
    endloop
  endfacet
  facet normal 0 0 1
    outer loop
      vertex 121.542 99.5416 10
      vertex 120.983 99.2053 10
      vertex 120.857 99.011 10
    endloop
  endfacet
  facet normal -0 0 1
    outer loop
      vertex 120.906 99.4474 10
      vertex 120.983 99.2053 10
      vertex 121.542 99.5416 10
    endloop
  endfacet
  facet normal 0 -0 1
    outer loop
      vertex 119.236 95.9257 10
      vertex 120.857 99.011 10
      vertex 119.01 96.8635 10
    endloop
  endfacet
  facet normal 0 0 1
    outer loop
      vertex 120.857 99.011 10
      vertex 119.727 98.881 10
      vertex 119.01 96.8635 10
    endloop
  endfacet
  facet normal -0 -0 1
    outer loop
      vertex 117.484 97.3439 10
      vertex 117.78 97.2469 10
      vertex 117.343 98.2928 10
    endloop
  endfacet
  facet normal 0 -0 1
    outer loop
      vertex 117.679 97.2324 10
      vertex 117.78 97.2469 10
      vertex 117.484 97.3439 10
    endloop
  endfacet
  facet normal 0 0 1
    outer loop
      vertex 118.099 99.39 10
      vertex 117.343 98.2928 10
      vertex 119.611 98.9172 10
    endloop
  endfacet
  facet normal 0 0 1
    outer loop
      vertex 118.099 99.39 10
      vertex 119.611 98.9172 10
      vertex 119.083 99.3805 10
    endloop
  endfacet
  facet normal 0 0 1
    outer loop
      vertex 117.978 99.4528 10
      vertex 117.343 98.2928 10
      vertex 118.099 99.39 10
    endloop
  endfacet
  facet normal -0 -0 1
    outer loop
      vertex 117.78 97.2469 10
      vertex 118.89 97.0169 10
      vertex 117.343 98.2928 10
    endloop
  endfacet
  facet normal 0 0 1
    outer loop
      vertex 117.343 98.2928 10
      vertex 117.978 99.4528 10
      vertex 117.718 99.8172 10
    endloop
  endfacet
  facet normal 0 0 1
    outer loop
      vertex 119.236 95.9257 10
      vertex 119.01 96.8635 10
      vertex 118.982 96.2312 10
    endloop
  endfacet
  facet normal -0 -0 1
    outer loop
      vertex 119.247 95.7497 10
      vertex 119.475 94.9263 10
      vertex 119.236 95.9257 10
    endloop
  endfacet
  facet normal 0 -0 1
    outer loop
      vertex 117.626 97.1223 10
      vertex 117.679 97.2324 10
      vertex 117.484 97.3439 10
    endloop
  endfacet
  facet normal 0 0 1
    outer loop
      vertex 119.727 98.881 10
      vertex 119.611 98.9172 10
      vertex 118.89 97.0169 10
    endloop
  endfacet
  facet normal 0 -0 1
    outer loop
      vertex 118.89 97.0169 10
      vertex 119.611 98.9172 10
      vertex 117.343 98.2928 10
    endloop
  endfacet
  facet normal 0 0 1
    outer loop
      vertex 119.727 98.881 10
      vertex 118.89 97.0169 10
      vertex 119.01 96.8635 10
    endloop
  endfacet
  facet normal 0 0 1
    outer loop
      vertex 119.247 95.7497 10
      vertex 119.402 94.9964 10
      vertex 119.475 94.9263 10
    endloop
  endfacet
  facet normal 0 -0 1
    outer loop
      vertex 119.475 94.9263 10
      vertex 120.857 99.011 10
      vertex 119.236 95.9257 10
    endloop
  endfacet
  facet normal 0 -0 1
    outer loop
      vertex 119.845 94.1763 10
      vertex 120.857 99.011 10
      vertex 119.475 94.9263 10
    endloop
  endfacet
  facet normal 0 0 1
    outer loop
      vertex 119.09 95.6831 10
      vertex 118.384 95.8293 10
      vertex 118.592 95.3664 10
    endloop
  endfacet
  facet normal 0 0 1
    outer loop
      vertex 118.384 95.8293 10
      vertex 118.215 95.4764 10
      vertex 118.46 95.3628 10
    endloop
  endfacet
  facet normal -0 -0 1
    outer loop
      vertex 119.86 94.1048 10
      vertex 123.064 91.7099 10
      vertex 119.845 94.1763 10
    endloop
  endfacet
  facet normal 0 0 1
    outer loop
      vertex 122.982 91.6817 10
      vertex 119.86 94.1048 10
      vertex 121.912 90.9117 10
    endloop
  endfacet
  facet normal 0 0 1
    outer loop
      vertex 118.384 95.8293 10
      vertex 118.46 95.3628 10
      vertex 118.592 95.3664 10
    endloop
  endfacet
  facet normal 0 0 1
    outer loop
      vertex 118.215 95.4764 10
      vertex 118.248 95.2513 10
      vertex 118.46 95.3628 10
    endloop
  endfacet
  facet normal 0 0 1
    outer loop
      vertex 119.09 95.6831 10
      vertex 118.592 95.3664 10
      vertex 119.402 94.9964 10
    endloop
  endfacet
  facet normal -0 0 1
    outer loop
      vertex 119.09 95.6831 10
      vertex 119.402 94.9964 10
      vertex 119.247 95.7497 10
    endloop
  endfacet
  facet normal 0 0 1
    outer loop
      vertex 119.845 94.1763 10
      vertex 123.064 91.7099 10
      vertex 125.301 92.2116 10
    endloop
  endfacet
  facet normal 0 0 1
    outer loop
      vertex 121.445 90.0521 10
      vertex 119.76 91.2165 10
      vertex 120.408 89.6912 10
    endloop
  endfacet
  facet normal 0 -0 1
    outer loop
      vertex 121.445 90.0521 10
      vertex 121.867 90.8595 10
      vertex 119.76 91.2165 10
    endloop
  endfacet
  facet normal -0 0 1
    outer loop
      vertex 119.76 91.2165 10
      vertex 121.912 90.9117 10
      vertex 119.86 94.1048 10
    endloop
  endfacet
  facet normal -0 0 1
    outer loop
      vertex 137.848 84.4346 10
      vertex 138.495 83.7694 10
      vertex 140.013 84.4421 10
    endloop
  endfacet
  facet normal 0 0 1
    outer loop
      vertex 135.969 87.637 10
      vertex 136.281 84.898 10
      vertex 137.734 84.4799 10
    endloop
  endfacet
  facet normal 0 0 1
    outer loop
      vertex 125.301 92.2116 10
      vertex 120.857 99.011 10
      vertex 119.845 94.1763 10
    endloop
  endfacet
  facet normal 0 0 1
    outer loop
      vertex 125.301 92.2116 10
      vertex 123.064 91.7099 10
      vertex 124.974 91.787 10
    endloop
  endfacet
  facet normal 0 0 1
    outer loop
      vertex 133.448 101.114 10
      vertex 126.823 100.741 10
      vertex 127.234 92.0979 10
    endloop
  endfacet
  facet normal 0 0 1
    outer loop
      vertex 125.428 92.2698 10
      vertex 120.857 99.011 10
      vertex 125.301 92.2116 10
    endloop
  endfacet
  facet normal 0 0 1
    outer loop
      vertex 126.823 100.741 10
      vertex 126.706 100.69 10
      vertex 127.108 92.1798 10
    endloop
  endfacet
  facet normal -0 0 1
    outer loop
      vertex 127.234 92.0979 10
      vertex 128.891 91.0842 10
      vertex 134.258 100.584 10
    endloop
  endfacet
  facet normal 0 0 1
    outer loop
      vertex 126.706 100.69 10
      vertex 121.67 99.6797 10
      vertex 125.428 92.2698 10
    endloop
  endfacet
  facet normal 0 0 1
    outer loop
      vertex 133.448 101.114 10
      vertex 127.234 92.0979 10
      vertex 134.258 100.584 10
    endloop
  endfacet
  facet normal 0 0 1
    outer loop
      vertex 130.694 90.6799 10
      vertex 128.891 91.0842 10
      vertex 128.939 91.0605 10
    endloop
  endfacet
  facet normal 0 0 1
    outer loop
      vertex 127.234 92.0979 10
      vertex 127.554 91.4662 10
      vertex 128.891 91.0842 10
    endloop
  endfacet
  facet normal 0 0 1
    outer loop
      vertex 130.694 90.6799 10
      vertex 128.939 91.0605 10
      vertex 129.517 90.632 10
    endloop
  endfacet
  facet normal 0 0 1
    outer loop
      vertex 130.762 90.6666 10
      vertex 134.332 100.56 10
      vertex 134.258 100.584 10
    endloop
  endfacet
  facet normal 0 0 1
    outer loop
      vertex 134.258 100.584 10
      vertex 130.694 90.6799 10
      vertex 130.762 90.6666 10
    endloop
  endfacet
  facet normal 0 0 1
    outer loop
      vertex 134.258 100.584 10
      vertex 128.891 91.0842 10
      vertex 130.694 90.6799 10
    endloop
  endfacet
  facet normal 0 0 1
    outer loop
      vertex 133.547 88.6386 10
      vertex 131.916 90.104 10
      vertex 132.236 89.4252 10
    endloop
  endfacet
  facet normal -0 -0 1
    outer loop
      vertex 133.594 88.5951 10
      vertex 135.819 87.77 10
      vertex 133.547 88.6386 10
    endloop
  endfacet
  facet normal 0 0 1
    outer loop
      vertex 131.842 90.1766 10
      vertex 138.704 97.0359 10
      vertex 134.332 100.56 10
    endloop
  endfacet
  facet normal -0 0 1
    outer loop
      vertex 133.547 88.6386 10
      vertex 135.819 87.77 10
      vertex 138.755 96.9543 10
    endloop
  endfacet
  facet normal 0 0 1
    outer loop
      vertex 138.755 96.9543 10
      vertex 138.704 97.0359 10
      vertex 131.842 90.1766 10
    endloop
  endfacet
  facet normal 0 0 1
    outer loop
      vertex 138.755 96.9543 10
      vertex 131.842 90.1766 10
      vertex 131.916 90.104 10
    endloop
  endfacet
  facet normal 0 -0 1
    outer loop
      vertex 140.256 85.5762 10
      vertex 143.897 89.0245 10
      vertex 135.969 87.637 10
    endloop
  endfacet
  facet normal 0 -0 1
    outer loop
      vertex 134.168 87.7604 10
      vertex 135.819 87.77 10
      vertex 133.594 88.5951 10
    endloop
  endfacet
  facet normal -0 0 1
    outer loop
      vertex 135.819 87.77 10
      vertex 135.969 87.637 10
      vertex 141.605 94.6042 10
    endloop
  endfacet
  facet normal 0 0 1
    outer loop
      vertex 135.969 87.637 10
      vertex 137.734 84.4799 10
      vertex 140.256 85.5762 10
    endloop
  endfacet
  facet normal 0 0 1
    outer loop
      vertex 135.969 87.637 10
      vertex 143.897 89.0245 10
      vertex 142.495 93.9961 10
    endloop
  endfacet
  facet normal 0 0 1
    outer loop
      vertex 136.281 84.898 10
      vertex 136.981 84.4516 10
      vertex 137.734 84.4799 10
    endloop
  endfacet
  facet normal 0 0 1
    outer loop
      vertex 140.256 85.5762 10
      vertex 137.734 84.4799 10
      vertex 140.143 85.4012 10
    endloop
  endfacet
  facet normal 0 0 1
    outer loop
      vertex 140.143 85.4012 10
      vertex 137.848 84.4346 10
      vertex 140.013 84.4421 10
    endloop
  endfacet
  facet normal 0 0 1
    outer loop
      vertex 117.22 102.162 10
      vertex 116.833 102.332 10
      vertex 117.26 101.415 10
    endloop
  endfacet
  facet normal 0 0 1
    outer loop
      vertex 116.833 102.332 10
      vertex 117.22 102.162 10
      vertex 117.232 102.229 10
    endloop
  endfacet
  facet normal -0 0 1
    outer loop
      vertex 116.833 102.332 10
      vertex 117.232 102.229 10
      vertex 117.546 102.959 10
    endloop
  endfacet
  facet normal 0.931853 -0.362836 0
    outer loop
      vertex 140.224 84.984 0
      vertex 140.013 84.4421 10
      vertex 140.013 84.4421 0
    endloop
  endfacet
  facet normal 0.931853 -0.362836 0
    outer loop
      vertex 140.224 84.984 0
      vertex 140.224 84.984 10
      vertex 140.013 84.4421 10
    endloop
  endfacet
  facet normal 0.981669 0.190593 0
    outer loop
      vertex 140.143 85.4012 0
      vertex 140.224 84.984 10
      vertex 140.224 84.984 0
    endloop
  endfacet
  facet normal 0.981669 0.190593 -0
    outer loop
      vertex 140.143 85.4012 0
      vertex 140.143 85.4012 10
      vertex 140.224 84.984 10
    endloop
  endfacet
  facet normal 0.840085 -0.542455 0
    outer loop
      vertex 140.256 85.5762 0
      vertex 140.143 85.4012 10
      vertex 140.143 85.4012 0
    endloop
  endfacet
  facet normal 0.840085 -0.542455 0
    outer loop
      vertex 140.256 85.5762 0
      vertex 140.256 85.5762 10
      vertex 140.143 85.4012 10
    endloop
  endfacet
  facet normal 0.224834 -0.974397 0
    outer loop
      vertex 142.172 86.0183 0
      vertex 140.256 85.5762 10
      vertex 140.256 85.5762 0
    endloop
  endfacet
  facet normal 0.224834 -0.974397 0
    outer loop
      vertex 142.172 86.0183 0
      vertex 142.172 86.0183 10
      vertex 140.256 85.5762 10
    endloop
  endfacet
  facet normal 0.630537 -0.776159 0
    outer loop
      vertex 143.23 86.8778 0
      vertex 142.172 86.0183 10
      vertex 142.172 86.0183 0
    endloop
  endfacet
  facet normal 0.630537 -0.776159 0
    outer loop
      vertex 143.23 86.8778 0
      vertex 143.23 86.8778 10
      vertex 142.172 86.0183 10
    endloop
  endfacet
  facet normal 0.954966 -0.296717 0
    outer loop
      vertex 143.897 89.0245 0
      vertex 143.23 86.8778 10
      vertex 143.23 86.8778 0
    endloop
  endfacet
  facet normal 0.954966 -0.296717 0
    outer loop
      vertex 143.897 89.0245 0
      vertex 143.897 89.0245 10
      vertex 143.23 86.8778 10
    endloop
  endfacet
  facet normal 0.762967 -0.646438 0
    outer loop
      vertex 143.973 89.1142 0
      vertex 143.897 89.0245 10
      vertex 143.897 89.0245 0
    endloop
  endfacet
  facet normal 0.762967 -0.646438 0
    outer loop
      vertex 143.973 89.1142 0
      vertex 143.973 89.1142 10
      vertex 143.897 89.0245 10
    endloop
  endfacet
  facet normal 0.447214 -0.894427 0
    outer loop
      vertex 144.573 89.4142 0
      vertex 143.973 89.1142 10
      vertex 143.973 89.1142 0
    endloop
  endfacet
  facet normal 0.447214 -0.894427 0
    outer loop
      vertex 144.573 89.4142 0
      vertex 144.573 89.4142 10
      vertex 143.973 89.1142 10
    endloop
  endfacet
  facet normal 0.249254 -0.968438 0
    outer loop
      vertex 144.634 89.4299 0
      vertex 144.573 89.4142 10
      vertex 144.573 89.4142 0
    endloop
  endfacet
  facet normal 0.249254 -0.968438 0
    outer loop
      vertex 144.634 89.4299 0
      vertex 144.634 89.4299 10
      vertex 144.573 89.4142 10
    endloop
  endfacet
  facet normal 0.0383767 -0.999263 0
    outer loop
      vertex 145.587 89.4665 0
      vertex 144.634 89.4299 10
      vertex 144.634 89.4299 0
    endloop
  endfacet
  facet normal 0.0383767 -0.999263 0
    outer loop
      vertex 145.587 89.4665 0
      vertex 145.587 89.4665 10
      vertex 144.634 89.4299 10
    endloop
  endfacet
  facet normal 0.88831 -0.459244 0
    outer loop
      vertex 146.007 90.2789 0
      vertex 145.587 89.4665 10
      vertex 145.587 89.4665 0
    endloop
  endfacet
  facet normal 0.88831 -0.459244 0
    outer loop
      vertex 146.007 90.2789 0
      vertex 146.007 90.2789 10
      vertex 145.587 89.4665 10
    endloop
  endfacet
  facet normal 0.362252 -0.93208 0
    outer loop
      vertex 146.192 90.3508 0
      vertex 146.007 90.2789 10
      vertex 146.007 90.2789 0
    endloop
  endfacet
  facet normal 0.362252 -0.93208 0
    outer loop
      vertex 146.192 90.3508 0
      vertex 146.192 90.3508 10
      vertex 146.007 90.2789 10
    endloop
  endfacet
  facet normal -0.34453 -0.938775 0
    outer loop
      vertex 147.692 89.8003 0
      vertex 146.192 90.3508 10
      vertex 146.192 90.3508 0
    endloop
  endfacet
  facet normal -0.34453 -0.938775 0
    outer loop
      vertex 147.692 89.8003 0
      vertex 147.692 89.8003 10
      vertex 146.192 90.3508 10
    endloop
  endfacet
  facet normal 0.998264 -0.0589059 0
    outer loop
      vertex 147.784 91.3594 0
      vertex 147.692 89.8003 10
      vertex 147.692 89.8003 0
    endloop
  endfacet
  facet normal 0.998264 -0.0589059 0
    outer loop
      vertex 147.784 91.3594 0
      vertex 147.784 91.3594 10
      vertex 147.692 89.8003 10
    endloop
  endfacet
  facet normal 0.442017 0.897007 0
    outer loop
      vertex 146.567 91.9591 0
      vertex 147.784 91.3594 10
      vertex 147.784 91.3594 0
    endloop
  endfacet
  facet normal 0.442017 0.897007 -0
    outer loop
      vertex 146.567 91.9591 0
      vertex 146.567 91.9591 10
      vertex 147.784 91.3594 10
    endloop
  endfacet
  facet normal -0.025357 0.999678 0
    outer loop
      vertex 145.814 91.94 0
      vertex 146.567 91.9591 10
      vertex 146.567 91.9591 0
    endloop
  endfacet
  facet normal -0.025357 0.999678 0
    outer loop
      vertex 145.814 91.94 0
      vertex 145.814 91.94 10
      vertex 146.567 91.9591 10
    endloop
  endfacet
  facet normal 0.295909 0.955216 0
    outer loop
      vertex 145.722 91.9685 0
      vertex 145.814 91.94 10
      vertex 145.814 91.94 0
    endloop
  endfacet
  facet normal 0.295909 0.955216 -0
    outer loop
      vertex 145.722 91.9685 0
      vertex 145.722 91.9685 10
      vertex 145.814 91.94 10
    endloop
  endfacet
  facet normal 0.58651 0.809942 0
    outer loop
      vertex 142.876 94.0294 0
      vertex 145.722 91.9685 10
      vertex 145.722 91.9685 0
    endloop
  endfacet
  facet normal 0.58651 0.809942 -0
    outer loop
      vertex 142.876 94.0294 0
      vertex 142.876 94.0294 10
      vertex 145.722 91.9685 10
    endloop
  endfacet
  facet normal -0.207108 0.978318 0
    outer loop
      vertex 142.611 93.9733 0
      vertex 142.876 94.0294 10
      vertex 142.876 94.0294 0
    endloop
  endfacet
  facet normal -0.207108 0.978318 0
    outer loop
      vertex 142.611 93.9733 0
      vertex 142.611 93.9733 10
      vertex 142.876 94.0294 10
    endloop
  endfacet
  facet normal 0.192862 0.981226 0
    outer loop
      vertex 142.495 93.9961 0
      vertex 142.611 93.9733 10
      vertex 142.611 93.9733 0
    endloop
  endfacet
  facet normal 0.192862 0.981226 -0
    outer loop
      vertex 142.495 93.9961 0
      vertex 142.495 93.9961 10
      vertex 142.611 93.9733 10
    endloop
  endfacet
  facet normal 0.563337 0.826227 0
    outer loop
      vertex 141.615 94.5961 0
      vertex 142.495 93.9961 10
      vertex 142.495 93.9961 0
    endloop
  endfacet
  facet normal 0.563337 0.826227 -0
    outer loop
      vertex 141.615 94.5961 0
      vertex 141.615 94.5961 10
      vertex 142.495 93.9961 10
    endloop
  endfacet
  facet normal 0.629422 0.777064 0
    outer loop
      vertex 141.605 94.6042 0
      vertex 141.615 94.5961 10
      vertex 141.615 94.5961 0
    endloop
  endfacet
  facet normal 0.629422 0.777064 -0
    outer loop
      vertex 141.605 94.6042 0
      vertex 141.605 94.6042 10
      vertex 141.615 94.5961 10
    endloop
  endfacet
  facet normal 0.636198 0.771526 0
    outer loop
      vertex 138.755 96.9543 0
      vertex 141.605 94.6042 10
      vertex 141.605 94.6042 0
    endloop
  endfacet
  facet normal 0.636198 0.771526 -0
    outer loop
      vertex 138.755 96.9543 0
      vertex 138.755 96.9543 10
      vertex 141.605 94.6042 10
    endloop
  endfacet
  facet normal 0.847998 0.529999 0
    outer loop
      vertex 138.704 97.0359 0
      vertex 138.755 96.9543 10
      vertex 138.755 96.9543 0
    endloop
  endfacet
  facet normal 0.847998 0.529999 -0
    outer loop
      vertex 138.704 97.0359 0
      vertex 138.704 97.0359 10
      vertex 138.755 96.9543 10
    endloop
  endfacet
  facet normal 0.973791 0.227445 0
    outer loop
      vertex 138.467 98.0506 0
      vertex 138.704 97.0359 10
      vertex 138.704 97.0359 0
    endloop
  endfacet
  facet normal 0.973791 0.227445 -0
    outer loop
      vertex 138.467 98.0506 0
      vertex 138.467 98.0506 10
      vertex 138.704 97.0359 10
    endloop
  endfacet
  facet normal 0.905534 0.424274 0
    outer loop
      vertex 137.444 100.234 0
      vertex 138.467 98.0506 10
      vertex 138.467 98.0506 0
    endloop
  endfacet
  facet normal 0.905534 0.424274 -0
    outer loop
      vertex 137.444 100.234 0
      vertex 137.444 100.234 10
      vertex 138.467 98.0506 10
    endloop
  endfacet
  facet normal 0.507779 0.861488 0
    outer loop
      vertex 136.65 100.702 0
      vertex 137.444 100.234 10
      vertex 137.444 100.234 0
    endloop
  endfacet
  facet normal 0.507779 0.861488 -0
    outer loop
      vertex 136.65 100.702 0
      vertex 136.65 100.702 10
      vertex 137.444 100.234 10
    endloop
  endfacet
  facet normal -0.401203 0.915989 0
    outer loop
      vertex 136.15 100.483 0
      vertex 136.65 100.702 10
      vertex 136.65 100.702 0
    endloop
  endfacet
  facet normal -0.401203 0.915989 0
    outer loop
      vertex 136.15 100.483 0
      vertex 136.15 100.483 10
      vertex 136.65 100.702 10
    endloop
  endfacet
  facet normal -0.187776 0.982212 0
    outer loop
      vertex 136.082 100.47 0
      vertex 136.15 100.483 10
      vertex 136.15 100.483 0
    endloop
  endfacet
  facet normal -0.187776 0.982212 0
    outer loop
      vertex 136.082 100.47 0
      vertex 136.082 100.47 10
      vertex 136.15 100.483 10
    endloop
  endfacet
  facet normal 0.0513607 0.99868 0
    outer loop
      vertex 134.332 100.56 0
      vertex 136.082 100.47 10
      vertex 136.082 100.47 0
    endloop
  endfacet
  facet normal 0.0513607 0.99868 -0
    outer loop
      vertex 134.332 100.56 0
      vertex 134.332 100.56 10
      vertex 136.082 100.47 10
    endloop
  endfacet
  facet normal 0.308505 0.951223 0
    outer loop
      vertex 134.258 100.584 0
      vertex 134.332 100.56 10
      vertex 134.332 100.56 0
    endloop
  endfacet
  facet normal 0.308505 0.951223 -0
    outer loop
      vertex 134.258 100.584 0
      vertex 134.258 100.584 10
      vertex 134.332 100.56 10
    endloop
  endfacet
  facet normal 0.547528 0.836788 0
    outer loop
      vertex 133.448 101.114 0
      vertex 134.258 100.584 10
      vertex 134.258 100.584 0
    endloop
  endfacet
  facet normal 0.547528 0.836788 -0
    outer loop
      vertex 133.448 101.114 0
      vertex 133.448 101.114 10
      vertex 134.258 100.584 10
    endloop
  endfacet
  facet normal 0.873481 0.486858 0
    outer loop
      vertex 133.38 101.236 0
      vertex 133.448 101.114 10
      vertex 133.448 101.114 0
    endloop
  endfacet
  facet normal 0.873481 0.486858 -0
    outer loop
      vertex 133.38 101.236 0
      vertex 133.38 101.236 10
      vertex 133.448 101.114 10
    endloop
  endfacet
  facet normal 0.999607 0.0280264 0
    outer loop
      vertex 133.35 102.306 0
      vertex 133.38 101.236 10
      vertex 133.38 101.236 0
    endloop
  endfacet
  facet normal 0.999607 0.0280264 -0
    outer loop
      vertex 133.35 102.306 0
      vertex 133.35 102.306 10
      vertex 133.38 101.236 10
    endloop
  endfacet
  facet normal 0.849359 -0.527816 0
    outer loop
      vertex 133.437 102.446 0
      vertex 133.35 102.306 10
      vertex 133.35 102.306 0
    endloop
  endfacet
  facet normal 0.849359 -0.527816 0
    outer loop
      vertex 133.437 102.446 0
      vertex 133.437 102.446 10
      vertex 133.35 102.306 10
    endloop
  endfacet
  facet normal 0.421487 -0.906835 0
    outer loop
      vertex 133.508 102.479 0
      vertex 133.437 102.446 10
      vertex 133.437 102.446 0
    endloop
  endfacet
  facet normal 0.421487 -0.906835 0
    outer loop
      vertex 133.508 102.479 0
      vertex 133.508 102.479 10
      vertex 133.437 102.446 10
    endloop
  endfacet
  facet normal 0.660462 0.75086 0
    outer loop
      vertex 133.101 102.837 0
      vertex 133.508 102.479 10
      vertex 133.508 102.479 0
    endloop
  endfacet
  facet normal 0.660462 0.75086 -0
    outer loop
      vertex 133.101 102.837 0
      vertex 133.101 102.837 10
      vertex 133.508 102.479 10
    endloop
  endfacet
  facet normal 0.936903 0.349591 0
    outer loop
      vertex 133.051 102.971 0
      vertex 133.101 102.837 10
      vertex 133.101 102.837 0
    endloop
  endfacet
  facet normal 0.936903 0.349591 -0
    outer loop
      vertex 133.051 102.971 0
      vertex 133.051 102.971 10
      vertex 133.101 102.837 10
    endloop
  endfacet
  facet normal 0.990199 -0.139664 0
    outer loop
      vertex 133.14 103.602 0
      vertex 133.051 102.971 10
      vertex 133.051 102.971 0
    endloop
  endfacet
  facet normal 0.990199 -0.139664 0
    outer loop
      vertex 133.14 103.602 0
      vertex 133.14 103.602 10
      vertex 133.051 102.971 10
    endloop
  endfacet
  facet normal 0.667154 0.74492 0
    outer loop
      vertex 132.958 103.765 0
      vertex 133.14 103.602 10
      vertex 133.14 103.602 0
    endloop
  endfacet
  facet normal 0.667154 0.74492 -0
    outer loop
      vertex 132.958 103.765 0
      vertex 132.958 103.765 10
      vertex 133.14 103.602 10
    endloop
  endfacet
  facet normal 0.0791898 0.99686 0
    outer loop
      vertex 131.888 103.85 0
      vertex 132.958 103.765 10
      vertex 132.958 103.765 0
    endloop
  endfacet
  facet normal 0.0791898 0.99686 -0
    outer loop
      vertex 131.888 103.85 0
      vertex 131.888 103.85 10
      vertex 132.958 103.765 10
    endloop
  endfacet
  facet normal 0.482861 0.875697 0
    outer loop
      vertex 131.781 103.909 0
      vertex 131.888 103.85 10
      vertex 131.888 103.85 0
    endloop
  endfacet
  facet normal 0.482861 0.875697 -0
    outer loop
      vertex 131.781 103.909 0
      vertex 131.781 103.909 10
      vertex 131.888 103.85 10
    endloop
  endfacet
  facet normal 0.792396 0.610007 0
    outer loop
      vertex 131.383 104.426 0
      vertex 131.781 103.909 10
      vertex 131.781 103.909 0
    endloop
  endfacet
  facet normal 0.792396 0.610007 -0
    outer loop
      vertex 131.383 104.426 0
      vertex 131.383 104.426 10
      vertex 131.781 103.909 10
    endloop
  endfacet
  facet normal 0.232227 0.972662 0
    outer loop
      vertex 130.805 104.564 0
      vertex 131.383 104.426 10
      vertex 131.383 104.426 0
    endloop
  endfacet
  facet normal 0.232227 0.972662 -0
    outer loop
      vertex 130.805 104.564 0
      vertex 130.805 104.564 10
      vertex 131.383 104.426 10
    endloop
  endfacet
  facet normal 0.498694 0.866778 0
    outer loop
      vertex 130.732 104.606 0
      vertex 130.805 104.564 10
      vertex 130.805 104.564 0
    endloop
  endfacet
  facet normal 0.498694 0.866778 -0
    outer loop
      vertex 130.732 104.606 0
      vertex 130.732 104.606 10
      vertex 130.805 104.564 10
    endloop
  endfacet
  facet normal 0.717859 0.696188 0
    outer loop
      vertex 130.218 105.136 0
      vertex 130.732 104.606 10
      vertex 130.732 104.606 0
    endloop
  endfacet
  facet normal 0.717859 0.696188 -0
    outer loop
      vertex 130.218 105.136 0
      vertex 130.218 105.136 10
      vertex 130.732 104.606 10
    endloop
  endfacet
  facet normal -0.811838 0.583883 0
    outer loop
      vertex 130.072 104.933 0
      vertex 130.218 105.136 10
      vertex 130.218 105.136 0
    endloop
  endfacet
  facet normal -0.811838 0.583883 0
    outer loop
      vertex 130.072 104.933 0
      vertex 130.072 104.933 10
      vertex 130.218 105.136 10
    endloop
  endfacet
  facet normal -0.524577 0.851363 0
    outer loop
      vertex 129.973 104.872 0
      vertex 130.072 104.933 10
      vertex 130.072 104.933 0
    endloop
  endfacet
  facet normal -0.524577 0.851363 0
    outer loop
      vertex 129.973 104.872 0
      vertex 129.973 104.872 10
      vertex 130.072 104.933 10
    endloop
  endfacet
  facet normal -0.150661 0.988585 0
    outer loop
      vertex 129.494 104.799 0
      vertex 129.973 104.872 10
      vertex 129.973 104.872 0
    endloop
  endfacet
  facet normal -0.150661 0.988585 0
    outer loop
      vertex 129.494 104.799 0
      vertex 129.494 104.799 10
      vertex 129.973 104.872 10
    endloop
  endfacet
  facet normal -0.812623 -0.58279 0
    outer loop
      vertex 130.062 104.007 0
      vertex 129.494 104.799 10
      vertex 129.494 104.799 0
    endloop
  endfacet
  facet normal -0.812623 -0.58279 0
    outer loop
      vertex 130.062 104.007 0
      vertex 130.062 104.007 10
      vertex 129.494 104.799 10
    endloop
  endfacet
  facet normal -0.999984 0.00568173 0
    outer loop
      vertex 130.061 103.831 0
      vertex 130.062 104.007 10
      vertex 130.062 104.007 0
    endloop
  endfacet
  facet normal -0.999984 0.00568173 0
    outer loop
      vertex 130.061 103.831 0
      vertex 130.061 103.831 10
      vertex 130.062 104.007 10
    endloop
  endfacet
  facet normal -0.204752 0.978814 0
    outer loop
      vertex 129.865 103.79 0
      vertex 130.061 103.831 10
      vertex 130.061 103.831 0
    endloop
  endfacet
  facet normal -0.204752 0.978814 0
    outer loop
      vertex 129.865 103.79 0
      vertex 129.865 103.79 10
      vertex 130.061 103.831 10
    endloop
  endfacet
  facet normal 0.499195 0.866489 0
    outer loop
      vertex 129.011 104.282 0
      vertex 129.865 103.79 10
      vertex 129.865 103.79 0
    endloop
  endfacet
  facet normal 0.499195 0.866489 -0
    outer loop
      vertex 129.011 104.282 0
      vertex 129.011 104.282 10
      vertex 129.865 103.79 10
    endloop
  endfacet
  facet normal -0.886128 0.463441 0
    outer loop
      vertex 128.613 103.521 0
      vertex 129.011 104.282 10
      vertex 129.011 104.282 0
    endloop
  endfacet
  facet normal -0.886128 0.463441 0
    outer loop
      vertex 128.613 103.521 0
      vertex 128.613 103.521 10
      vertex 129.011 104.282 10
    endloop
  endfacet
  facet normal -0.586846 0.809699 0
    outer loop
      vertex 128.504 103.442 0
      vertex 128.613 103.521 10
      vertex 128.613 103.521 0
    endloop
  endfacet
  facet normal -0.586846 0.809699 0
    outer loop
      vertex 128.504 103.442 0
      vertex 128.504 103.442 10
      vertex 128.613 103.521 10
    endloop
  endfacet
  facet normal -0.160676 0.987007 0
    outer loop
      vertex 127.386 103.26 0
      vertex 128.504 103.442 10
      vertex 128.504 103.442 0
    endloop
  endfacet
  facet normal -0.160676 0.987007 0
    outer loop
      vertex 127.386 103.26 0
      vertex 127.386 103.26 10
      vertex 128.504 103.442 10
    endloop
  endfacet
  facet normal -0.743242 0.669022 0
    outer loop
      vertex 126.746 102.549 0
      vertex 127.386 103.26 10
      vertex 127.386 103.26 0
    endloop
  endfacet
  facet normal -0.743242 0.669022 0
    outer loop
      vertex 126.746 102.549 0
      vertex 126.746 102.549 10
      vertex 127.386 103.26 10
    endloop
  endfacet
  facet normal -0.995153 -0.0983424 0
    outer loop
      vertex 126.855 101.446 0
      vertex 126.746 102.549 10
      vertex 126.746 102.549 0
    endloop
  endfacet
  facet normal -0.995153 -0.0983424 0
    outer loop
      vertex 126.855 101.446 0
      vertex 126.855 101.446 10
      vertex 126.746 102.549 10
    endloop
  endfacet
  facet normal -0.806117 -0.591756 0
    outer loop
      vertex 127.051 101.179 0
      vertex 126.855 101.446 10
      vertex 126.855 101.446 0
    endloop
  endfacet
  facet normal -0.806117 -0.591756 0
    outer loop
      vertex 127.051 101.179 0
      vertex 127.051 101.179 10
      vertex 126.855 101.446 10
    endloop
  endfacet
  facet normal -0.999096 0.0425147 0
    outer loop
      vertex 127.043 100.991 0
      vertex 127.051 101.179 10
      vertex 127.051 101.179 0
    endloop
  endfacet
  facet normal -0.999096 0.0425147 0
    outer loop
      vertex 127.043 100.991 0
      vertex 127.043 100.991 10
      vertex 127.051 101.179 10
    endloop
  endfacet
  facet normal -0.750714 0.660628 0
    outer loop
      vertex 126.823 100.741 0
      vertex 127.043 100.991 10
      vertex 127.043 100.991 0
    endloop
  endfacet
  facet normal -0.750714 0.660628 0
    outer loop
      vertex 126.823 100.741 0
      vertex 126.823 100.741 10
      vertex 127.043 100.991 10
    endloop
  endfacet
  facet normal -0.399585 0.916696 0
    outer loop
      vertex 126.706 100.69 0
      vertex 126.823 100.741 10
      vertex 126.823 100.741 0
    endloop
  endfacet
  facet normal -0.399585 0.916696 0
    outer loop
      vertex 126.706 100.69 0
      vertex 126.706 100.69 10
      vertex 126.823 100.741 10
    endloop
  endfacet
  facet normal 0.0255598 0.999673 0
    outer loop
      vertex 123.186 100.78 0
      vertex 126.706 100.69 10
      vertex 126.706 100.69 0
    endloop
  endfacet
  facet normal 0.0255598 0.999673 -0
    outer loop
      vertex 123.186 100.78 0
      vertex 123.186 100.78 10
      vertex 126.706 100.69 10
    endloop
  endfacet
  facet normal 0.486858 0.873481 0
    outer loop
      vertex 123.064 100.848 0
      vertex 123.186 100.78 10
      vertex 123.186 100.78 0
    endloop
  endfacet
  facet normal 0.486858 0.873481 -0
    outer loop
      vertex 123.064 100.848 0
      vertex 123.064 100.848 10
      vertex 123.186 100.78 10
    endloop
  endfacet
  facet normal 0.839272 0.543712 0
    outer loop
      vertex 121.791 102.813 0
      vertex 123.064 100.848 10
      vertex 123.064 100.848 0
    endloop
  endfacet
  facet normal 0.839272 0.543712 -0
    outer loop
      vertex 121.791 102.813 0
      vertex 121.791 102.813 10
      vertex 123.064 100.848 10
    endloop
  endfacet
  facet normal 0.562791 0.826599 0
    outer loop
      vertex 120.24 103.869 0
      vertex 121.791 102.813 10
      vertex 121.791 102.813 0
    endloop
  endfacet
  facet normal 0.562791 0.826599 -0
    outer loop
      vertex 120.24 103.869 0
      vertex 120.24 103.869 10
      vertex 121.791 102.813 10
    endloop
  endfacet
  facet normal -0.230169 0.973151 0
    outer loop
      vertex 118.608 103.483 0
      vertex 120.24 103.869 10
      vertex 120.24 103.869 0
    endloop
  endfacet
  facet normal -0.230169 0.973151 0
    outer loop
      vertex 118.608 103.483 0
      vertex 118.608 103.483 10
      vertex 120.24 103.869 10
    endloop
  endfacet
  facet normal 0.0491552 -0.998791 0
    outer loop
      vertex 119.563 103.53 0
      vertex 118.608 103.483 10
      vertex 118.608 103.483 0
    endloop
  endfacet
  facet normal 0.0491552 -0.998791 0
    outer loop
      vertex 119.563 103.53 0
      vertex 119.563 103.53 10
      vertex 118.608 103.483 10
    endloop
  endfacet
  facet normal -0.559857 -0.828589 0
    outer loop
      vertex 119.711 103.43 0
      vertex 119.563 103.53 10
      vertex 119.563 103.53 0
    endloop
  endfacet
  facet normal -0.559857 -0.828589 0
    outer loop
      vertex 119.711 103.43 0
      vertex 119.711 103.43 10
      vertex 119.563 103.53 10
    endloop
  endfacet
  facet normal -0.941487 -0.337049 0
    outer loop
      vertex 120.34 101.673 0
      vertex 119.711 103.43 10
      vertex 119.711 103.43 0
    endloop
  endfacet
  facet normal -0.941487 -0.337049 0
    outer loop
      vertex 120.34 101.673 0
      vertex 120.34 101.673 10
      vertex 119.711 103.43 10
    endloop
  endfacet
  facet normal -0.69924 -0.714887 0
    outer loop
      vertex 121.665 100.377 0
      vertex 120.34 101.673 10
      vertex 120.34 101.673 0
    endloop
  endfacet
  facet normal -0.69924 -0.714887 0
    outer loop
      vertex 121.665 100.377 0
      vertex 121.665 100.377 10
      vertex 120.34 101.673 10
    endloop
  endfacet
  facet normal -0.933346 -0.358979 0
    outer loop
      vertex 121.71 100.26 0
      vertex 121.665 100.377 10
      vertex 121.665 100.377 0
    endloop
  endfacet
  facet normal -0.933346 -0.358979 0
    outer loop
      vertex 121.71 100.26 0
      vertex 121.71 100.26 10
      vertex 121.665 100.377 10
    endloop
  endfacet
  facet normal -0.997633 0.0687667 0
    outer loop
      vertex 121.67 99.6797 0
      vertex 121.71 100.26 10
      vertex 121.71 100.26 0
    endloop
  endfacet
  facet normal -0.997633 0.0687667 0
    outer loop
      vertex 121.67 99.6797 0
      vertex 121.67 99.6797 10
      vertex 121.71 100.26 10
    endloop
  endfacet
  facet normal -0.733417 0.679779 0
    outer loop
      vertex 121.542 99.5416 0
      vertex 121.67 99.6797 10
      vertex 121.67 99.6797 0
    endloop
  endfacet
  facet normal -0.733417 0.679779 0
    outer loop
      vertex 121.542 99.5416 0
      vertex 121.542 99.5416 10
      vertex 121.67 99.6797 10
    endloop
  endfacet
  facet normal -0.146515 0.989208 0
    outer loop
      vertex 120.906 99.4474 0
      vertex 121.542 99.5416 10
      vertex 121.542 99.5416 0
    endloop
  endfacet
  facet normal -0.146515 0.989208 0
    outer loop
      vertex 120.906 99.4474 0
      vertex 120.906 99.4474 10
      vertex 121.542 99.5416 10
    endloop
  endfacet
  facet normal -0.952962 -0.30309 0
    outer loop
      vertex 120.983 99.2053 0
      vertex 120.906 99.4474 10
      vertex 120.906 99.4474 0
    endloop
  endfacet
  facet normal -0.952962 -0.30309 0
    outer loop
      vertex 120.983 99.2053 0
      vertex 120.983 99.2053 10
      vertex 120.906 99.4474 10
    endloop
  endfacet
  facet normal -0.839025 0.544093 0
    outer loop
      vertex 120.857 99.011 0
      vertex 120.983 99.2053 10
      vertex 120.983 99.2053 0
    endloop
  endfacet
  facet normal -0.839025 0.544093 0
    outer loop
      vertex 120.857 99.011 0
      vertex 120.857 99.011 10
      vertex 120.983 99.2053 10
    endloop
  endfacet
  facet normal -0.11429 0.993447 0
    outer loop
      vertex 119.727 98.881 0
      vertex 120.857 99.011 10
      vertex 120.857 99.011 0
    endloop
  endfacet
  facet normal -0.11429 0.993447 0
    outer loop
      vertex 119.727 98.881 0
      vertex 119.727 98.881 10
      vertex 120.857 99.011 10
    endloop
  endfacet
  facet normal 0.2979 0.954597 0
    outer loop
      vertex 119.611 98.9172 0
      vertex 119.727 98.881 10
      vertex 119.727 98.881 0
    endloop
  endfacet
  facet normal 0.2979 0.954597 -0
    outer loop
      vertex 119.611 98.9172 0
      vertex 119.611 98.9172 10
      vertex 119.727 98.881 10
    endloop
  endfacet
  facet normal 0.659552 0.751659 0
    outer loop
      vertex 119.083 99.3805 0
      vertex 119.611 98.9172 10
      vertex 119.611 98.9172 0
    endloop
  endfacet
  facet normal 0.659552 0.751659 -0
    outer loop
      vertex 119.083 99.3805 0
      vertex 119.083 99.3805 10
      vertex 119.611 98.9172 10
    endloop
  endfacet
  facet normal 0.00965402 0.999953 0
    outer loop
      vertex 118.099 99.39 0
      vertex 119.083 99.3805 10
      vertex 119.083 99.3805 0
    endloop
  endfacet
  facet normal 0.00965402 0.999953 -0
    outer loop
      vertex 118.099 99.39 0
      vertex 118.099 99.39 10
      vertex 119.083 99.3805 10
    endloop
  endfacet
  facet normal 0.46066 0.887577 0
    outer loop
      vertex 117.978 99.4528 0
      vertex 118.099 99.39 10
      vertex 118.099 99.39 0
    endloop
  endfacet
  facet normal 0.46066 0.887577 -0
    outer loop
      vertex 117.978 99.4528 0
      vertex 117.978 99.4528 10
      vertex 118.099 99.39 10
    endloop
  endfacet
  facet normal 0.814035 0.580815 0
    outer loop
      vertex 117.718 99.8172 0
      vertex 117.978 99.4528 10
      vertex 117.978 99.4528 0
    endloop
  endfacet
  facet normal 0.814035 0.580815 -0
    outer loop
      vertex 117.718 99.8172 0
      vertex 117.718 99.8172 10
      vertex 117.978 99.4528 10
    endloop
  endfacet
  facet normal -0.97105 0.238877 0
    outer loop
      vertex 117.343 98.2928 0
      vertex 117.718 99.8172 10
      vertex 117.718 99.8172 0
    endloop
  endfacet
  facet normal -0.97105 0.238877 0
    outer loop
      vertex 117.343 98.2928 0
      vertex 117.343 98.2928 10
      vertex 117.718 99.8172 10
    endloop
  endfacet
  facet normal -0.98914 -0.146979 0
    outer loop
      vertex 117.484 97.3439 0
      vertex 117.343 98.2928 10
      vertex 117.343 98.2928 0
    endloop
  endfacet
  facet normal -0.98914 -0.146979 0
    outer loop
      vertex 117.484 97.3439 0
      vertex 117.484 97.3439 10
      vertex 117.343 98.2928 10
    endloop
  endfacet
  facet normal -0.841968 -0.539528 0
    outer loop
      vertex 117.626 97.1223 0
      vertex 117.484 97.3439 10
      vertex 117.484 97.3439 0
    endloop
  endfacet
  facet normal -0.841968 -0.539528 0
    outer loop
      vertex 117.626 97.1223 0
      vertex 117.626 97.1223 10
      vertex 117.484 97.3439 10
    endloop
  endfacet
  facet normal 0.901037 -0.433742 0
    outer loop
      vertex 117.679 97.2324 0
      vertex 117.626 97.1223 10
      vertex 117.626 97.1223 0
    endloop
  endfacet
  facet normal 0.901037 -0.433742 0
    outer loop
      vertex 117.679 97.2324 0
      vertex 117.679 97.2324 10
      vertex 117.626 97.1223 10
    endloop
  endfacet
  facet normal 0.142107 -0.989851 0
    outer loop
      vertex 117.78 97.2469 0
      vertex 117.679 97.2324 10
      vertex 117.679 97.2324 0
    endloop
  endfacet
  facet normal 0.142107 -0.989851 0
    outer loop
      vertex 117.78 97.2469 0
      vertex 117.78 97.2469 10
      vertex 117.679 97.2324 10
    endloop
  endfacet
  facet normal -0.202897 -0.9792 0
    outer loop
      vertex 118.89 97.0169 0
      vertex 117.78 97.2469 10
      vertex 117.78 97.2469 0
    endloop
  endfacet
  facet normal -0.202897 -0.9792 0
    outer loop
      vertex 118.89 97.0169 0
      vertex 118.89 97.0169 10
      vertex 117.78 97.2469 10
    endloop
  endfacet
  facet normal -0.787635 -0.616142 0
    outer loop
      vertex 119.01 96.8635 0
      vertex 118.89 97.0169 10
      vertex 118.89 97.0169 0
    endloop
  endfacet
  facet normal -0.787635 -0.616142 0
    outer loop
      vertex 119.01 96.8635 0
      vertex 119.01 96.8635 10
      vertex 118.89 97.0169 10
    endloop
  endfacet
  facet normal -0.999021 0.0442394 0
    outer loop
      vertex 118.982 96.2312 0
      vertex 119.01 96.8635 10
      vertex 119.01 96.8635 0
    endloop
  endfacet
  facet normal -0.999021 0.0442394 0
    outer loop
      vertex 118.982 96.2312 0
      vertex 118.982 96.2312 10
      vertex 119.01 96.8635 10
    endloop
  endfacet
  facet normal -0.768943 -0.639317 0
    outer loop
      vertex 119.236 95.9257 0
      vertex 118.982 96.2312 10
      vertex 118.982 96.2312 0
    endloop
  endfacet
  facet normal -0.768943 -0.639317 0
    outer loop
      vertex 119.236 95.9257 0
      vertex 119.236 95.9257 10
      vertex 118.982 96.2312 10
    endloop
  endfacet
  facet normal -0.998053 -0.0623783 0
    outer loop
      vertex 119.247 95.7497 0
      vertex 119.236 95.9257 10
      vertex 119.236 95.9257 0
    endloop
  endfacet
  facet normal -0.998053 -0.0623783 0
    outer loop
      vertex 119.247 95.7497 0
      vertex 119.247 95.7497 10
      vertex 119.236 95.9257 10
    endloop
  endfacet
  facet normal -0.39052 0.920595 0
    outer loop
      vertex 119.09 95.6831 0
      vertex 119.247 95.7497 10
      vertex 119.247 95.7497 0
    endloop
  endfacet
  facet normal -0.39052 0.920595 0
    outer loop
      vertex 119.09 95.6831 0
      vertex 119.09 95.6831 10
      vertex 119.247 95.7497 10
    endloop
  endfacet
  facet normal 0.20278 0.979224 0
    outer loop
      vertex 118.384 95.8293 0
      vertex 119.09 95.6831 10
      vertex 119.09 95.6831 0
    endloop
  endfacet
  facet normal 0.20278 0.979224 -0
    outer loop
      vertex 118.384 95.8293 0
      vertex 118.384 95.8293 10
      vertex 119.09 95.6831 10
    endloop
  endfacet
  facet normal -0.901914 0.431917 0
    outer loop
      vertex 118.215 95.4764 0
      vertex 118.384 95.8293 10
      vertex 118.384 95.8293 0
    endloop
  endfacet
  facet normal -0.901914 0.431917 0
    outer loop
      vertex 118.215 95.4764 0
      vertex 118.215 95.4764 10
      vertex 118.384 95.8293 10
    endloop
  endfacet
  facet normal -0.989424 -0.145051 0
    outer loop
      vertex 118.248 95.2513 0
      vertex 118.215 95.4764 10
      vertex 118.215 95.4764 0
    endloop
  endfacet
  facet normal -0.989424 -0.145051 0
    outer loop
      vertex 118.248 95.2513 0
      vertex 118.248 95.2513 10
      vertex 118.215 95.4764 10
    endloop
  endfacet
  facet normal 0.465488 -0.885054 0
    outer loop
      vertex 118.46 95.3628 0
      vertex 118.248 95.2513 10
      vertex 118.248 95.2513 0
    endloop
  endfacet
  facet normal 0.465488 -0.885054 0
    outer loop
      vertex 118.46 95.3628 0
      vertex 118.46 95.3628 10
      vertex 118.248 95.2513 10
    endloop
  endfacet
  facet normal 0.0272626 -0.999628 0
    outer loop
      vertex 118.592 95.3664 0
      vertex 118.46 95.3628 10
      vertex 118.46 95.3628 0
    endloop
  endfacet
  facet normal 0.0272626 -0.999628 0
    outer loop
      vertex 118.592 95.3664 0
      vertex 118.592 95.3664 10
      vertex 118.46 95.3628 10
    endloop
  endfacet
  facet normal -0.415494 -0.909596 0
    outer loop
      vertex 119.402 94.9964 0
      vertex 118.592 95.3664 10
      vertex 118.592 95.3664 0
    endloop
  endfacet
  facet normal -0.415494 -0.909596 0
    outer loop
      vertex 119.402 94.9964 0
      vertex 119.402 94.9964 10
      vertex 118.592 95.3664 10
    endloop
  endfacet
  facet normal -0.692635 -0.721289 0
    outer loop
      vertex 119.475 94.9263 0
      vertex 119.402 94.9964 10
      vertex 119.402 94.9964 0
    endloop
  endfacet
  facet normal -0.692635 -0.721289 0
    outer loop
      vertex 119.475 94.9263 0
      vertex 119.475 94.9263 10
      vertex 119.402 94.9964 10
    endloop
  endfacet
  facet normal -0.896806 -0.442424 0
    outer loop
      vertex 119.845 94.1763 0
      vertex 119.475 94.9263 10
      vertex 119.475 94.9263 0
    endloop
  endfacet
  facet normal -0.896806 -0.442424 0
    outer loop
      vertex 119.845 94.1763 0
      vertex 119.845 94.1763 10
      vertex 119.475 94.9263 10
    endloop
  endfacet
  facet normal -0.978695 -0.205321 0
    outer loop
      vertex 119.86 94.1048 0
      vertex 119.845 94.1763 10
      vertex 119.845 94.1763 0
    endloop
  endfacet
  facet normal -0.978695 -0.205321 0
    outer loop
      vertex 119.86 94.1048 0
      vertex 119.86 94.1048 10
      vertex 119.845 94.1763 10
    endloop
  endfacet
  facet normal -0.999401 0.0346017 0
    outer loop
      vertex 119.76 91.2165 0
      vertex 119.86 94.1048 10
      vertex 119.86 94.1048 0
    endloop
  endfacet
  facet normal -0.999401 0.0346017 0
    outer loop
      vertex 119.76 91.2165 0
      vertex 119.76 91.2165 10
      vertex 119.86 94.1048 10
    endloop
  endfacet
  facet normal -0.992588 -0.121531 0
    outer loop
      vertex 119.944 89.7137 0
      vertex 119.76 91.2165 10
      vertex 119.76 91.2165 0
    endloop
  endfacet
  facet normal -0.992588 -0.121531 0
    outer loop
      vertex 119.944 89.7137 0
      vertex 119.944 89.7137 10
      vertex 119.76 91.2165 10
    endloop
  endfacet
  facet normal -0.0484345 -0.998826 0
    outer loop
      vertex 120.408 89.6912 0
      vertex 119.944 89.7137 10
      vertex 119.944 89.7137 0
    endloop
  endfacet
  facet normal -0.0484345 -0.998826 0
    outer loop
      vertex 120.408 89.6912 0
      vertex 120.408 89.6912 10
      vertex 119.944 89.7137 10
    endloop
  endfacet
  facet normal 0.328687 -0.944439 0
    outer loop
      vertex 121.445 90.0521 0
      vertex 120.408 89.6912 10
      vertex 120.408 89.6912 0
    endloop
  endfacet
  facet normal 0.328687 -0.944439 0
    outer loop
      vertex 121.445 90.0521 0
      vertex 121.445 90.0521 10
      vertex 120.408 89.6912 10
    endloop
  endfacet
  facet normal 0.886248 -0.463211 0
    outer loop
      vertex 121.867 90.8595 0
      vertex 121.445 90.0521 10
      vertex 121.445 90.0521 0
    endloop
  endfacet
  facet normal 0.886248 -0.463211 0
    outer loop
      vertex 121.867 90.8595 0
      vertex 121.867 90.8595 10
      vertex 121.445 90.0521 10
    endloop
  endfacet
  facet normal 0.75741 -0.65294 0
    outer loop
      vertex 121.912 90.9117 0
      vertex 121.867 90.8595 10
      vertex 121.867 90.8595 0
    endloop
  endfacet
  facet normal 0.75741 -0.65294 0
    outer loop
      vertex 121.912 90.9117 0
      vertex 121.912 90.9117 10
      vertex 121.867 90.8595 10
    endloop
  endfacet
  facet normal 0.584105 -0.811678 0
    outer loop
      vertex 122.982 91.6817 0
      vertex 121.912 90.9117 10
      vertex 121.912 90.9117 0
    endloop
  endfacet
  facet normal 0.584105 -0.811678 0
    outer loop
      vertex 122.982 91.6817 0
      vertex 122.982 91.6817 10
      vertex 121.912 90.9117 10
    endloop
  endfacet
  facet normal 0.325209 -0.945642 0
    outer loop
      vertex 123.064 91.7099 0
      vertex 122.982 91.6817 10
      vertex 122.982 91.6817 0
    endloop
  endfacet
  facet normal 0.325209 -0.945642 0
    outer loop
      vertex 123.064 91.7099 0
      vertex 123.064 91.7099 10
      vertex 122.982 91.6817 10
    endloop
  endfacet
  facet normal 0.0403336 -0.999186 0
    outer loop
      vertex 124.974 91.787 0
      vertex 123.064 91.7099 10
      vertex 123.064 91.7099 0
    endloop
  endfacet
  facet normal 0.0403336 -0.999186 0
    outer loop
      vertex 124.974 91.787 0
      vertex 124.974 91.787 10
      vertex 123.064 91.7099 10
    endloop
  endfacet
  facet normal 0.792277 -0.610162 0
    outer loop
      vertex 125.301 92.2116 0
      vertex 124.974 91.787 10
      vertex 124.974 91.787 0
    endloop
  endfacet
  facet normal 0.792277 -0.610162 0
    outer loop
      vertex 125.301 92.2116 0
      vertex 125.301 92.2116 10
      vertex 124.974 91.787 10
    endloop
  endfacet
  facet normal 0.416605 -0.909087 0
    outer loop
      vertex 125.428 92.2698 0
      vertex 125.301 92.2116 10
      vertex 125.301 92.2116 0
    endloop
  endfacet
  facet normal 0.416605 -0.909087 0
    outer loop
      vertex 125.428 92.2698 0
      vertex 125.428 92.2698 10
      vertex 125.301 92.2116 10
    endloop
  endfacet
  facet normal -0.0534947 -0.998568 0
    outer loop
      vertex 127.108 92.1798 0
      vertex 125.428 92.2698 10
      vertex 125.428 92.2698 0
    endloop
  endfacet
  facet normal -0.0534947 -0.998568 0
    outer loop
      vertex 127.108 92.1798 0
      vertex 127.108 92.1798 10
      vertex 125.428 92.2698 10
    endloop
  endfacet
  facet normal -0.544988 -0.838444 0
    outer loop
      vertex 127.234 92.0979 0
      vertex 127.108 92.1798 10
      vertex 127.108 92.1798 0
    endloop
  endfacet
  facet normal -0.544988 -0.838444 0
    outer loop
      vertex 127.234 92.0979 0
      vertex 127.234 92.0979 10
      vertex 127.108 92.1798 10
    endloop
  endfacet
  facet normal -0.892071 -0.451896 0
    outer loop
      vertex 127.554 91.4662 0
      vertex 127.234 92.0979 10
      vertex 127.234 92.0979 0
    endloop
  endfacet
  facet normal -0.892071 -0.451896 0
    outer loop
      vertex 127.554 91.4662 0
      vertex 127.554 91.4662 10
      vertex 127.234 92.0979 10
    endloop
  endfacet
  facet normal -0.274721 -0.961524 0
    outer loop
      vertex 128.891 91.0842 0
      vertex 127.554 91.4662 10
      vertex 127.554 91.4662 0
    endloop
  endfacet
  facet normal -0.274721 -0.961524 0
    outer loop
      vertex 128.891 91.0842 0
      vertex 128.891 91.0842 10
      vertex 127.554 91.4662 10
    endloop
  endfacet
  facet normal -0.442725 -0.896658 0
    outer loop
      vertex 128.939 91.0605 0
      vertex 128.891 91.0842 10
      vertex 128.891 91.0842 0
    endloop
  endfacet
  facet normal -0.442725 -0.896658 0
    outer loop
      vertex 128.939 91.0605 0
      vertex 128.939 91.0605 10
      vertex 128.891 91.0842 10
    endloop
  endfacet
  facet normal -0.595543 -0.803323 0
    outer loop
      vertex 129.517 90.632 0
      vertex 128.939 91.0605 10
      vertex 128.939 91.0605 0
    endloop
  endfacet
  facet normal -0.595543 -0.803323 0
    outer loop
      vertex 129.517 90.632 0
      vertex 129.517 90.632 10
      vertex 128.939 91.0605 10
    endloop
  endfacet
  facet normal 0.040663 -0.999173 0
    outer loop
      vertex 130.694 90.6799 0
      vertex 129.517 90.632 10
      vertex 129.517 90.632 0
    endloop
  endfacet
  facet normal 0.040663 -0.999173 0
    outer loop
      vertex 130.694 90.6799 0
      vertex 130.694 90.6799 10
      vertex 129.517 90.632 10
    endloop
  endfacet
  facet normal -0.191951 -0.981404 0
    outer loop
      vertex 130.762 90.6666 0
      vertex 130.694 90.6799 10
      vertex 130.694 90.6799 0
    endloop
  endfacet
  facet normal -0.191951 -0.981404 0
    outer loop
      vertex 130.762 90.6666 0
      vertex 130.762 90.6666 10
      vertex 130.694 90.6799 10
    endloop
  endfacet
  facet normal -0.413168 -0.910655 0
    outer loop
      vertex 131.842 90.1766 0
      vertex 130.762 90.6666 10
      vertex 130.762 90.6666 0
    endloop
  endfacet
  facet normal -0.413168 -0.910655 0
    outer loop
      vertex 131.842 90.1766 0
      vertex 131.842 90.1766 10
      vertex 130.762 90.6666 10
    endloop
  endfacet
  facet normal -0.700322 -0.713827 0
    outer loop
      vertex 131.916 90.104 0
      vertex 131.842 90.1766 10
      vertex 131.842 90.1766 0
    endloop
  endfacet
  facet normal -0.700322 -0.713827 0
    outer loop
      vertex 131.916 90.104 0
      vertex 131.916 90.104 10
      vertex 131.842 90.1766 10
    endloop
  endfacet
  facet normal -0.904529 -0.426413 0
    outer loop
      vertex 132.236 89.4252 0
      vertex 131.916 90.104 10
      vertex 131.916 90.104 0
    endloop
  endfacet
  facet normal -0.904529 -0.426413 0
    outer loop
      vertex 132.236 89.4252 0
      vertex 132.236 89.4252 10
      vertex 131.916 90.104 10
    endloop
  endfacet
  facet normal -0.514496 -0.857493 0
    outer loop
      vertex 133.547 88.6386 0
      vertex 132.236 89.4252 10
      vertex 132.236 89.4252 0
    endloop
  endfacet
  facet normal -0.514496 -0.857493 0
    outer loop
      vertex 133.547 88.6386 0
      vertex 133.547 88.6386 10
      vertex 132.236 89.4252 10
    endloop
  endfacet
  facet normal -0.679252 -0.733905 0
    outer loop
      vertex 133.594 88.5951 0
      vertex 133.547 88.6386 10
      vertex 133.547 88.6386 0
    endloop
  endfacet
  facet normal -0.679252 -0.733905 0
    outer loop
      vertex 133.594 88.5951 0
      vertex 133.594 88.5951 10
      vertex 133.547 88.6386 10
    endloop
  endfacet
  facet normal -0.823976 -0.566625 0
    outer loop
      vertex 134.168 87.7604 0
      vertex 133.594 88.5951 10
      vertex 133.594 88.5951 0
    endloop
  endfacet
  facet normal -0.823976 -0.566625 0
    outer loop
      vertex 134.168 87.7604 0
      vertex 134.168 87.7604 10
      vertex 133.594 88.5951 10
    endloop
  endfacet
  facet normal 0.00581456 -0.999983 0
    outer loop
      vertex 135.819 87.77 0
      vertex 134.168 87.7604 10
      vertex 134.168 87.7604 0
    endloop
  endfacet
  facet normal 0.00581456 -0.999983 0
    outer loop
      vertex 135.819 87.77 0
      vertex 135.819 87.77 10
      vertex 134.168 87.7604 10
    endloop
  endfacet
  facet normal -0.663434 -0.748234 0
    outer loop
      vertex 135.969 87.637 0
      vertex 135.819 87.77 10
      vertex 135.819 87.77 0
    endloop
  endfacet
  facet normal -0.663434 -0.748234 0
    outer loop
      vertex 135.969 87.637 0
      vertex 135.969 87.637 10
      vertex 135.819 87.77 10
    endloop
  endfacet
  facet normal -0.993575 -0.113178 0
    outer loop
      vertex 136.281 84.898 0
      vertex 135.969 87.637 10
      vertex 135.969 87.637 0
    endloop
  endfacet
  facet normal -0.993575 -0.113178 0
    outer loop
      vertex 136.281 84.898 0
      vertex 136.281 84.898 10
      vertex 135.969 87.637 10
    endloop
  endfacet
  facet normal -0.537686 -0.843145 0
    outer loop
      vertex 136.981 84.4516 0
      vertex 136.281 84.898 10
      vertex 136.281 84.898 0
    endloop
  endfacet
  facet normal -0.537686 -0.843145 0
    outer loop
      vertex 136.981 84.4516 0
      vertex 136.981 84.4516 10
      vertex 136.281 84.898 10
    endloop
  endfacet
  facet normal 0.0375565 -0.999295 0
    outer loop
      vertex 137.734 84.4799 0
      vertex 136.981 84.4516 10
      vertex 136.981 84.4516 0
    endloop
  endfacet
  facet normal 0.0375565 -0.999295 0
    outer loop
      vertex 137.734 84.4799 0
      vertex 137.734 84.4799 10
      vertex 136.981 84.4516 10
    endloop
  endfacet
  facet normal -0.369281 -0.929318 0
    outer loop
      vertex 137.848 84.4346 0
      vertex 137.734 84.4799 10
      vertex 137.734 84.4799 0
    endloop
  endfacet
  facet normal -0.369281 -0.929318 0
    outer loop
      vertex 137.848 84.4346 0
      vertex 137.848 84.4346 10
      vertex 137.734 84.4799 10
    endloop
  endfacet
  facet normal -0.716845 -0.697232 0
    outer loop
      vertex 138.495 83.7694 0
      vertex 137.848 84.4346 10
      vertex 137.848 84.4346 0
    endloop
  endfacet
  facet normal -0.716845 -0.697232 0
    outer loop
      vertex 138.495 83.7694 0
      vertex 138.495 83.7694 10
      vertex 137.848 84.4346 10
    endloop
  endfacet
  facet normal 0.405149 -0.914251 0
    outer loop
      vertex 140.013 84.4421 0
      vertex 138.495 83.7694 10
      vertex 138.495 83.7694 0
    endloop
  endfacet
  facet normal 0.405149 -0.914251 0
    outer loop
      vertex 140.013 84.4421 0
      vertex 140.013 84.4421 10
      vertex 138.495 83.7694 10
    endloop
  endfacet
  facet normal 0.984337 -0.176299 0
    outer loop
      vertex 117.232 102.229 0
      vertex 117.22 102.162 10
      vertex 117.22 102.162 0
    endloop
  endfacet
  facet normal 0.984337 -0.176299 0
    outer loop
      vertex 117.232 102.229 0
      vertex 117.232 102.229 10
      vertex 117.22 102.162 10
    endloop
  endfacet
  facet normal 0.918624 -0.395134 0
    outer loop
      vertex 117.546 102.959 0
      vertex 117.232 102.229 10
      vertex 117.232 102.229 0
    endloop
  endfacet
  facet normal 0.918624 -0.395134 0
    outer loop
      vertex 117.546 102.959 0
      vertex 117.546 102.959 10
      vertex 117.232 102.229 10
    endloop
  endfacet
  facet normal -0.660367 0.750943 0
    outer loop
      vertex 116.833 102.332 0
      vertex 117.546 102.959 10
      vertex 117.546 102.959 0
    endloop
  endfacet
  facet normal -0.660367 0.750943 0
    outer loop
      vertex 116.833 102.332 0
      vertex 116.833 102.332 10
      vertex 117.546 102.959 10
    endloop
  endfacet
  facet normal -0.906536 -0.422128 0
    outer loop
      vertex 117.26 101.415 0
      vertex 116.833 102.332 10
      vertex 116.833 102.332 0
    endloop
  endfacet
  facet normal -0.906536 -0.422128 0
    outer loop
      vertex 117.26 101.415 0
      vertex 117.26 101.415 10
      vertex 116.833 102.332 10
    endloop
  endfacet
  facet normal 0.998569 0.0534709 0
    outer loop
      vertex 117.22 102.162 0
      vertex 117.26 101.415 10
      vertex 117.26 101.415 0
    endloop
  endfacet
  facet normal 0.998569 0.0534709 -0
    outer loop
      vertex 117.22 102.162 0
      vertex 117.22 102.162 10
      vertex 117.26 101.415 10
    endloop
  endfacet
endsolid OpenSCAD_Model
