solid OpenSCAD_Model
  facet normal 0 0 -1
    outer loop
      vertex 43.1209 -70.6585 10
      vertex 47.4017 -69.3497 10
      vertex 46.3152 -70.7483 10
    endloop
  endfacet
  facet normal 0 0 -1
    outer loop
      vertex 45.7052 -75.3064 10
      vertex 49.0953 -74.2699 10
      vertex 49.3935 -75.2452 10
    endloop
  endfacet
  facet normal 0 0 -1
    outer loop
      vertex 45.7052 -75.3064 10
      vertex 44.6187 -76.7049 10
      vertex 44.349 -75.8226 10
    endloop
  endfacet
  facet normal 0 0 -1
    outer loop
      vertex 51.0428 -73.079 10
      vertex 51.0349 -72.0566 10
      vertex 52.7447 -71.5339 10
    endloop
  endfacet
  facet normal 0 0 -1
    outer loop
      vertex 52.7447 -71.5339 10
      vertex 55.535 -73.3675 10
      vertex 53.3099 -72.3859 10
    endloop
  endfacet
  facet normal 0 0 -1
    outer loop
      vertex 43.4191 -71.6337 10
      vertex 43.1209 -70.6585 10
      vertex 46.3152 -70.7483 10
    endloop
  endfacet
  facet normal 0 0 -1
    outer loop
      vertex 49.3935 -75.2452 10
      vertex 44.6187 -76.7049 10
      vertex 45.7052 -75.3064 10
    endloop
  endfacet
  facet normal 0 0 -1
    outer loop
      vertex 45.7052 -75.3064 10
      vertex 46.3152 -70.7483 10
      vertex 47.6663 -70.2152 10
    endloop
  endfacet
  facet normal 0 0 -1
    outer loop
      vertex 46.3152 -70.7483 10
      vertex 47.4017 -69.3497 10
      vertex 47.6663 -70.2152 10
    endloop
  endfacet
  facet normal -0 0 -1
    outer loop
      vertex 45.7052 -75.3064 10
      vertex 44.349 -75.8226 10
      vertex 46.3152 -70.7483 10
    endloop
  endfacet
  facet normal 0 0 -1
    outer loop
      vertex 51.1003 -69.2207 10
      vertex 51.5549 -68.08 10
      vertex 51.2781 -69.4849 10
    endloop
  endfacet
  facet normal 0 0 -1
    outer loop
      vertex 49.7343 -75.1409 10
      vertex 50.0857 -68.5291 10
      vertex 51.0349 -72.0566 10
    endloop
  endfacet
  facet normal 0 0 -1
    outer loop
      vertex 50.0857 -68.5291 10
      vertex 51.5549 -68.08 10
      vertex 51.1003 -69.2207 10
    endloop
  endfacet
  facet normal 0 0 -1
    outer loop
      vertex 55.535 -73.3675 10
      vertex 52.7447 -71.5339 10
      vertex 51.5549 -68.08 10
    endloop
  endfacet
  facet normal -0 0 -1
    outer loop
      vertex 55.535 -73.3675 10
      vertex 54.3023 -73.7444 10
      vertex 53.3099 -72.3859 10
    endloop
  endfacet
  facet normal 0 0 -1
    outer loop
      vertex 51.0428 -73.079 10
      vertex 52.7447 -71.5339 10
      vertex 53.3099 -72.3859 10
    endloop
  endfacet
  facet normal -0 0 -1
    outer loop
      vertex 51.0428 -73.079 10
      vertex 49.7343 -75.1409 10
      vertex 51.0349 -72.0566 10
    endloop
  endfacet
  facet normal -0 0 -1
    outer loop
      vertex 50.9798 -74.7602 10
      vertex 49.7343 -75.1409 10
      vertex 51.0428 -73.079 10
    endloop
  endfacet
  facet normal 0 0 -1
    outer loop
      vertex 50.0857 -68.5291 10
      vertex 51.0756 -70.8409 10
      vertex 51.0349 -72.0566 10
    endloop
  endfacet
  facet normal 0 0 -1
    outer loop
      vertex 50.0857 -68.5291 10
      vertex 51.1 -70.0548 10
      vertex 51.0756 -70.8409 10
    endloop
  endfacet
  facet normal 0 0 -1
    outer loop
      vertex 50.0857 -68.5291 10
      vertex 51.108 -69.6985 10
      vertex 51.1 -70.0548 10
    endloop
  endfacet
  facet normal 0 0 -1
    outer loop
      vertex 51.5549 -68.08 10
      vertex 52.7447 -71.5339 10
      vertex 51.6351 -70.0035 10
    endloop
  endfacet
  facet normal 0 0 -1
    outer loop
      vertex 50.0857 -68.5291 10
      vertex 51.1073 -69.5622 10
      vertex 51.108 -69.6985 10
    endloop
  endfacet
  facet normal 0 0 -1
    outer loop
      vertex 50.0857 -68.5291 10
      vertex 51.1058 -69.4365 10
      vertex 51.1073 -69.5622 10
    endloop
  endfacet
  facet normal 0 0 -1
    outer loop
      vertex 50.0857 -68.5291 10
      vertex 51.1035 -69.3213 10
      vertex 51.1058 -69.4365 10
    endloop
  endfacet
  facet normal 0 0 -1
    outer loop
      vertex 50.0857 -68.5291 10
      vertex 51.1003 -69.2207 10
      vertex 51.1035 -69.3213 10
    endloop
  endfacet
  facet normal 0 0 -1
    outer loop
      vertex 51.2781 -69.4849 10
      vertex 51.5549 -68.08 10
      vertex 51.6351 -70.0035 10
    endloop
  endfacet
  facet normal 0 0 -1
    outer loop
      vertex 59.8173 -69.6716 10
      vertex 56.4792 -69.6397 10
      vertex 59.523 -68.7091 10
    endloop
  endfacet
  facet normal -0 0 -1
    outer loop
      vertex 59.8173 -69.6716 10
      vertex 56.7735 -70.6022 10
      vertex 56.4792 -69.6397 10
    endloop
  endfacet
  facet normal -0 0 -1
    outer loop
      vertex 59.0574 -66.8387 10
      vertex 55.9164 -67.799 10
      vertex 58.7631 -65.8762 10
    endloop
  endfacet
  facet normal -0 -0 -1
    outer loop
      vertex 55.9164 -67.799 10
      vertex 56.4792 -69.6397 10
      vertex 54.3767 -67.2172 10
    endloop
  endfacet
  facet normal 0 0 -1
    outer loop
      vertex 58.7631 -65.8762 10
      vertex 55.9164 -67.799 10
      vertex 54.3767 -67.2172 10
    endloop
  endfacet
  facet normal -0 0 -1
    outer loop
      vertex 57.4408 -72.7848 10
      vertex 56.1953 -73.1656 10
      vertex 56.7735 -70.6022 10
    endloop
  endfacet
  facet normal -0 0 -1
    outer loop
      vertex 56.4792 -69.6397 10
      vertex 56.1953 -73.1656 10
      vertex 54.3767 -67.2172 10
    endloop
  endfacet
  facet normal -0 0 -1
    outer loop
      vertex 56.7735 -70.6022 10
      vertex 56.1953 -73.1656 10
      vertex 56.4792 -69.6397 10
    endloop
  endfacet
  facet normal 0 -0 1
    outer loop
      vertex 46.3152 -70.7483 10.8
      vertex 47.4017 -69.3497 10.8
      vertex 43.1209 -70.6585 10.8
    endloop
  endfacet
  facet normal 0 0 1
    outer loop
      vertex 49.3935 -75.2452 10.8
      vertex 49.0953 -74.2699 10.8
      vertex 45.7052 -75.3064 10.8
    endloop
  endfacet
  facet normal -0 0 1
    outer loop
      vertex 44.349 -75.8226 10.8
      vertex 44.6187 -76.7049 10.8
      vertex 45.7052 -75.3064 10.8
    endloop
  endfacet
  facet normal 0 0 1
    outer loop
      vertex 52.7447 -71.5339 10.8
      vertex 51.0349 -72.0566 10.8
      vertex 51.0428 -73.079 10.8
    endloop
  endfacet
  facet normal -0 -0 1
    outer loop
      vertex 53.3099 -72.3859 10.8
      vertex 55.535 -73.3675 10.8
      vertex 52.7447 -71.5339 10.8
    endloop
  endfacet
  facet normal 0 0 1
    outer loop
      vertex 46.3152 -70.7483 10.8
      vertex 43.1209 -70.6585 10.8
      vertex 43.4191 -71.6337 10.8
    endloop
  endfacet
  facet normal -0 0 1
    outer loop
      vertex 45.7052 -75.3064 10.8
      vertex 44.6187 -76.7049 10.8
      vertex 49.3935 -75.2452 10.8
    endloop
  endfacet
  facet normal 0 0 1
    outer loop
      vertex 47.6663 -70.2152 10.8
      vertex 46.3152 -70.7483 10.8
      vertex 45.7052 -75.3064 10.8
    endloop
  endfacet
  facet normal 0 0 1
    outer loop
      vertex 47.6663 -70.2152 10.8
      vertex 47.4017 -69.3497 10.8
      vertex 46.3152 -70.7483 10.8
    endloop
  endfacet
  facet normal 0 0 1
    outer loop
      vertex 46.3152 -70.7483 10.8
      vertex 44.349 -75.8226 10.8
      vertex 45.7052 -75.3064 10.8
    endloop
  endfacet
  facet normal 0 -0 1
    outer loop
      vertex 51.2781 -69.4849 10.8
      vertex 51.5549 -68.08 10.8
      vertex 51.1003 -69.2207 10.8
    endloop
  endfacet
  facet normal 0 0 1
    outer loop
      vertex 51.0349 -72.0566 10.8
      vertex 50.0857 -68.5291 10.8
      vertex 49.7343 -75.1409 10.8
    endloop
  endfacet
  facet normal 0 -0 1
    outer loop
      vertex 51.1003 -69.2207 10.8
      vertex 51.5549 -68.08 10.8
      vertex 50.0857 -68.5291 10.8
    endloop
  endfacet
  facet normal 0 0 1
    outer loop
      vertex 51.5549 -68.08 10.8
      vertex 52.7447 -71.5339 10.8
      vertex 55.535 -73.3675 10.8
    endloop
  endfacet
  facet normal 0 0 1
    outer loop
      vertex 53.3099 -72.3859 10.8
      vertex 54.3023 -73.7444 10.8
      vertex 55.535 -73.3675 10.8
    endloop
  endfacet
  facet normal 0 0 1
    outer loop
      vertex 53.3099 -72.3859 10.8
      vertex 52.7447 -71.5339 10.8
      vertex 51.0428 -73.079 10.8
    endloop
  endfacet
  facet normal 0 0 1
    outer loop
      vertex 51.0349 -72.0566 10.8
      vertex 49.7343 -75.1409 10.8
      vertex 51.0428 -73.079 10.8
    endloop
  endfacet
  facet normal 0 0 1
    outer loop
      vertex 51.0428 -73.079 10.8
      vertex 49.7343 -75.1409 10.8
      vertex 50.9798 -74.7602 10.8
    endloop
  endfacet
  facet normal 0 -0 1
    outer loop
      vertex 51.0349 -72.0566 10.8
      vertex 51.0756 -70.8409 10.8
      vertex 50.0857 -68.5291 10.8
    endloop
  endfacet
  facet normal 0 -0 1
    outer loop
      vertex 51.0756 -70.8409 10.8
      vertex 51.1 -70.0548 10.8
      vertex 50.0857 -68.5291 10.8
    endloop
  endfacet
  facet normal 0 -0 1
    outer loop
      vertex 51.1 -70.0548 10.8
      vertex 51.108 -69.6985 10.8
      vertex 50.0857 -68.5291 10.8
    endloop
  endfacet
  facet normal -0 -0 1
    outer loop
      vertex 51.6351 -70.0035 10.8
      vertex 52.7447 -71.5339 10.8
      vertex 51.5549 -68.08 10.8
    endloop
  endfacet
  facet normal 0 0 1
    outer loop
      vertex 51.108 -69.6985 10.8
      vertex 51.1073 -69.5622 10.8
      vertex 50.0857 -68.5291 10.8
    endloop
  endfacet
  facet normal 0 0 1
    outer loop
      vertex 51.1073 -69.5622 10.8
      vertex 51.1058 -69.4365 10.8
      vertex 50.0857 -68.5291 10.8
    endloop
  endfacet
  facet normal 0 0 1
    outer loop
      vertex 51.1058 -69.4365 10.8
      vertex 51.1035 -69.3213 10.8
      vertex 50.0857 -68.5291 10.8
    endloop
  endfacet
  facet normal 0 0 1
    outer loop
      vertex 51.1035 -69.3213 10.8
      vertex 51.1003 -69.2207 10.8
      vertex 50.0857 -68.5291 10.8
    endloop
  endfacet
  facet normal 0 0 1
    outer loop
      vertex 51.6351 -70.0035 10.8
      vertex 51.5549 -68.08 10.8
      vertex 51.2781 -69.4849 10.8
    endloop
  endfacet
  facet normal 0 0 1
    outer loop
      vertex 59.523 -68.7091 10.8
      vertex 56.4792 -69.6397 10.8
      vertex 59.8173 -69.6716 10.8
    endloop
  endfacet
  facet normal 0 0 1
    outer loop
      vertex 56.4792 -69.6397 10.8
      vertex 56.7735 -70.6022 10.8
      vertex 59.8173 -69.6716 10.8
    endloop
  endfacet
  facet normal 0 0 1
    outer loop
      vertex 58.7631 -65.8762 10.8
      vertex 55.9164 -67.799 10.8
      vertex 59.0574 -66.8387 10.8
    endloop
  endfacet
  facet normal 0 0 1
    outer loop
      vertex 54.3767 -67.2172 10.8
      vertex 56.4792 -69.6397 10.8
      vertex 55.9164 -67.799 10.8
    endloop
  endfacet
  facet normal -0 0 1
    outer loop
      vertex 54.3767 -67.2172 10.8
      vertex 55.9164 -67.799 10.8
      vertex 58.7631 -65.8762 10.8
    endloop
  endfacet
  facet normal 0 0 1
    outer loop
      vertex 56.7735 -70.6022 10.8
      vertex 56.1953 -73.1656 10.8
      vertex 57.4408 -72.7848 10.8
    endloop
  endfacet
  facet normal 0 0 1
    outer loop
      vertex 54.3767 -67.2172 10.8
      vertex 56.1953 -73.1656 10.8
      vertex 56.4792 -69.6397 10.8
    endloop
  endfacet
  facet normal 0 0 1
    outer loop
      vertex 56.4792 -69.6397 10.8
      vertex 56.1953 -73.1656 10.8
      vertex 56.7735 -70.6022 10.8
    endloop
  endfacet
  facet normal -0.292383 0.956301 0
    outer loop
      vertex 45.7052 -75.3064 10
      vertex 49.0953 -74.2699 10.8
      vertex 49.0953 -74.2699 10
    endloop
  endfacet
  facet normal -0.292383 0.956301 0
    outer loop
      vertex 45.7052 -75.3064 10
      vertex 45.7052 -75.3064 10.8
      vertex 49.0953 -74.2699 10.8
    endloop
  endfacet
  facet normal 0.933165 -0.359449 0
    outer loop
      vertex 47.6663 -70.2152 10
      vertex 45.7052 -75.3064 10.8
      vertex 45.7052 -75.3064 10
    endloop
  endfacet
  facet normal 0.933165 -0.359449 0
    outer loop
      vertex 47.6663 -70.2152 10
      vertex 47.6663 -70.2152 10.8
      vertex 45.7052 -75.3064 10.8
    endloop
  endfacet
  facet normal 0.956308 0.292362 0
    outer loop
      vertex 47.4017 -69.3497 10
      vertex 47.6663 -70.2152 10.8
      vertex 47.6663 -70.2152 10
    endloop
  endfacet
  facet normal 0.956308 0.292362 -0
    outer loop
      vertex 47.4017 -69.3497 10
      vertex 47.4017 -69.3497 10.8
      vertex 47.6663 -70.2152 10.8
    endloop
  endfacet
  facet normal -0.292377 0.956303 0
    outer loop
      vertex 43.1209 -70.6585 10
      vertex 47.4017 -69.3497 10.8
      vertex 47.4017 -69.3497 10
    endloop
  endfacet
  facet normal -0.292377 0.956303 0
    outer loop
      vertex 43.1209 -70.6585 10
      vertex 43.1209 -70.6585 10.8
      vertex 47.4017 -69.3497 10.8
    endloop
  endfacet
  facet normal -0.956291 -0.292418 0
    outer loop
      vertex 43.4191 -71.6337 10
      vertex 43.1209 -70.6585 10.8
      vertex 43.1209 -70.6585 10
    endloop
  endfacet
  facet normal -0.956291 -0.292418 0
    outer loop
      vertex 43.4191 -71.6337 10
      vertex 43.4191 -71.6337 10.8
      vertex 43.1209 -70.6585 10.8
    endloop
  endfacet
  facet normal 0.292364 -0.956307 0
    outer loop
      vertex 46.3152 -70.7483 10
      vertex 43.4191 -71.6337 10.8
      vertex 43.4191 -71.6337 10
    endloop
  endfacet
  facet normal 0.292364 -0.956307 0
    outer loop
      vertex 46.3152 -70.7483 10
      vertex 46.3152 -70.7483 10.8
      vertex 43.4191 -71.6337 10.8
    endloop
  endfacet
  facet normal -0.932447 0.361306 0
    outer loop
      vertex 44.349 -75.8226 10
      vertex 46.3152 -70.7483 10.8
      vertex 46.3152 -70.7483 10
    endloop
  endfacet
  facet normal -0.932447 0.361306 0
    outer loop
      vertex 44.349 -75.8226 10
      vertex 44.349 -75.8226 10.8
      vertex 46.3152 -70.7483 10.8
    endloop
  endfacet
  facet normal -0.956319 -0.292326 0
    outer loop
      vertex 44.6187 -76.7049 10
      vertex 44.349 -75.8226 10.8
      vertex 44.349 -75.8226 10
    endloop
  endfacet
  facet normal -0.956319 -0.292326 0
    outer loop
      vertex 44.6187 -76.7049 10
      vertex 44.6187 -76.7049 10.8
      vertex 44.349 -75.8226 10.8
    endloop
  endfacet
  facet normal 0.292353 -0.956311 0
    outer loop
      vertex 49.3935 -75.2452 10
      vertex 44.6187 -76.7049 10.8
      vertex 44.6187 -76.7049 10
    endloop
  endfacet
  facet normal 0.292353 -0.956311 0
    outer loop
      vertex 49.3935 -75.2452 10
      vertex 49.3935 -75.2452 10.8
      vertex 44.6187 -76.7049 10.8
    endloop
  endfacet
  facet normal 0.956299 0.29239 0
    outer loop
      vertex 49.0953 -74.2699 10
      vertex 49.3935 -75.2452 10.8
      vertex 49.3935 -75.2452 10
    endloop
  endfacet
  facet normal 0.956299 0.29239 -0
    outer loop
      vertex 49.0953 -74.2699 10
      vertex 49.0953 -74.2699 10.8
      vertex 49.3935 -75.2452 10.8
    endloop
  endfacet
  facet normal 0.292363 -0.956307 0
    outer loop
      vertex 53.3099 -72.3859 10
      vertex 51.0428 -73.079 10.8
      vertex 51.0428 -73.079 10
    endloop
  endfacet
  facet normal 0.292363 -0.956307 0
    outer loop
      vertex 53.3099 -72.3859 10
      vertex 53.3099 -72.3859 10.8
      vertex 51.0428 -73.079 10.8
    endloop
  endfacet
  facet normal -0.80749 -0.589881 0
    outer loop
      vertex 54.3023 -73.7444 10
      vertex 53.3099 -72.3859 10.8
      vertex 53.3099 -72.3859 10
    endloop
  endfacet
  facet normal -0.80749 -0.589881 0
    outer loop
      vertex 54.3023 -73.7444 10
      vertex 54.3023 -73.7444 10.8
      vertex 53.3099 -72.3859 10.8
    endloop
  endfacet
  facet normal 0.29239 -0.956299 0
    outer loop
      vertex 55.535 -73.3675 10
      vertex 54.3023 -73.7444 10.8
      vertex 54.3023 -73.7444 10
    endloop
  endfacet
  facet normal 0.29239 -0.956299 0
    outer loop
      vertex 55.535 -73.3675 10
      vertex 55.535 -73.3675 10.8
      vertex 54.3023 -73.7444 10.8
    endloop
  endfacet
  facet normal 0.798949 0.601399 0
    outer loop
      vertex 51.5549 -68.08 10
      vertex 55.535 -73.3675 10.8
      vertex 55.535 -73.3675 10
    endloop
  endfacet
  facet normal 0.798949 0.601399 -0
    outer loop
      vertex 51.5549 -68.08 10
      vertex 51.5549 -68.08 10.8
      vertex 55.535 -73.3675 10.8
    endloop
  endfacet
  facet normal -0.292324 0.956319 0
    outer loop
      vertex 50.0857 -68.5291 10
      vertex 51.5549 -68.08 10.8
      vertex 51.5549 -68.08 10
    endloop
  endfacet
  facet normal -0.292324 0.956319 0
    outer loop
      vertex 50.0857 -68.5291 10
      vertex 50.0857 -68.5291 10.8
      vertex 51.5549 -68.08 10.8
    endloop
  endfacet
  facet normal -0.998591 0.0530725 0
    outer loop
      vertex 49.7343 -75.1409 10
      vertex 50.0857 -68.5291 10.8
      vertex 50.0857 -68.5291 10
    endloop
  endfacet
  facet normal -0.998591 0.0530725 0
    outer loop
      vertex 49.7343 -75.1409 10
      vertex 49.7343 -75.1409 10.8
      vertex 50.0857 -68.5291 10.8
    endloop
  endfacet
  facet normal 0.29231 -0.956324 0
    outer loop
      vertex 50.9798 -74.7602 10
      vertex 49.7343 -75.1409 10.8
      vertex 49.7343 -75.1409 10
    endloop
  endfacet
  facet normal 0.29231 -0.956324 0
    outer loop
      vertex 50.9798 -74.7602 10
      vertex 50.9798 -74.7602 10.8
      vertex 49.7343 -75.1409 10.8
    endloop
  endfacet
  facet normal 0.999299 -0.037447 0
    outer loop
      vertex 51.0428 -73.079 10
      vertex 50.9798 -74.7602 10.8
      vertex 50.9798 -74.7602 10
    endloop
  endfacet
  facet normal 0.999299 -0.037447 0
    outer loop
      vertex 51.0428 -73.079 10
      vertex 51.0428 -73.079 10.8
      vertex 50.9798 -74.7602 10.8
    endloop
  endfacet
  facet normal 0.99944 -0.0334599 0
    outer loop
      vertex 51.0756 -70.8409 10
      vertex 51.0756 -70.8409 10.8
      vertex 51.0349 -72.0566 10
    endloop
  endfacet
  facet normal 0.99944 -0.0334599 0
    outer loop
      vertex 51.0349 -72.0566 10.8
      vertex 51.0349 -72.0566 10
      vertex 51.0756 -70.8409 10.8
    endloop
  endfacet
  facet normal 0.999519 -0.0310244 0
    outer loop
      vertex 51.1 -70.0548 10
      vertex 51.1 -70.0548 10.8
      vertex 51.0756 -70.8409 10
    endloop
  endfacet
  facet normal 0.999519 -0.0310244 0
    outer loop
      vertex 51.0756 -70.8409 10.8
      vertex 51.0756 -70.8409 10
      vertex 51.1 -70.0548 10.8
    endloop
  endfacet
  facet normal 0.999748 -0.0224473 0
    outer loop
      vertex 51.108 -69.6985 10
      vertex 51.108 -69.6985 10.8
      vertex 51.1 -70.0548 10
    endloop
  endfacet
  facet normal 0.999748 -0.0224473 0
    outer loop
      vertex 51.1 -70.0548 10.8
      vertex 51.1 -70.0548 10
      vertex 51.108 -69.6985 10.8
    endloop
  endfacet
  facet normal 0.999987 0.00513566 -0
    outer loop
      vertex 51.1073 -69.5622 10
      vertex 51.1073 -69.5622 10.8
      vertex 51.108 -69.6985 10
    endloop
  endfacet
  facet normal 0.999987 0.00513566 0
    outer loop
      vertex 51.108 -69.6985 10.8
      vertex 51.108 -69.6985 10
      vertex 51.1073 -69.5622 10.8
    endloop
  endfacet
  facet normal 0.999929 0.0119323 -0
    outer loop
      vertex 51.1058 -69.4365 10
      vertex 51.1058 -69.4365 10.8
      vertex 51.1073 -69.5622 10
    endloop
  endfacet
  facet normal 0.999929 0.0119323 0
    outer loop
      vertex 51.1073 -69.5622 10.8
      vertex 51.1073 -69.5622 10
      vertex 51.1058 -69.4365 10.8
    endloop
  endfacet
  facet normal 0.999801 0.0199613 -0
    outer loop
      vertex 51.1035 -69.3213 10
      vertex 51.1035 -69.3213 10.8
      vertex 51.1058 -69.4365 10
    endloop
  endfacet
  facet normal 0.999801 0.0199613 0
    outer loop
      vertex 51.1058 -69.4365 10.8
      vertex 51.1058 -69.4365 10
      vertex 51.1035 -69.3213 10.8
    endloop
  endfacet
  facet normal 0.999494 0.0317931 -0
    outer loop
      vertex 51.1003 -69.2207 10
      vertex 51.1003 -69.2207 10.8
      vertex 51.1035 -69.3213 10
    endloop
  endfacet
  facet normal 0.999494 0.0317931 0
    outer loop
      vertex 51.1035 -69.3213 10.8
      vertex 51.1035 -69.3213 10
      vertex 51.1003 -69.2207 10.8
    endloop
  endfacet
  facet normal -0.829627 -0.558318 0
    outer loop
      vertex 51.2781 -69.4849 10
      vertex 51.2781 -69.4849 10.8
      vertex 51.1003 -69.2207 10
    endloop
  endfacet
  facet normal -0.829627 -0.558318 -0
    outer loop
      vertex 51.1003 -69.2207 10.8
      vertex 51.1003 -69.2207 10
      vertex 51.2781 -69.4849 10.8
    endloop
  endfacet
  facet normal -0.823699 -0.567028 0
    outer loop
      vertex 51.6351 -70.0035 10
      vertex 51.6351 -70.0035 10.8
      vertex 51.2781 -69.4849 10
    endloop
  endfacet
  facet normal -0.823699 -0.567028 -0
    outer loop
      vertex 51.2781 -69.4849 10.8
      vertex 51.2781 -69.4849 10
      vertex 51.6351 -70.0035 10.8
    endloop
  endfacet
  facet normal -0.809595 -0.586988 0
    outer loop
      vertex 52.7447 -71.5339 10
      vertex 52.7447 -71.5339 10.8
      vertex 51.6351 -70.0035 10
    endloop
  endfacet
  facet normal -0.809595 -0.586988 -0
    outer loop
      vertex 51.6351 -70.0035 10.8
      vertex 51.6351 -70.0035 10
      vertex 52.7447 -71.5339 10.8
    endloop
  endfacet
  facet normal -0.292352 0.956311 0
    outer loop
      vertex 51.0349 -72.0566 10
      vertex 51.0349 -72.0566 10.8
      vertex 52.7447 -71.5339 10
    endloop
  endfacet
  facet normal -0.292352 0.956311 0
    outer loop
      vertex 52.7447 -71.5339 10.8
      vertex 52.7447 -71.5339 10
      vertex 51.0349 -72.0566 10.8
    endloop
  endfacet
  facet normal 0.292377 -0.956303 0
    outer loop
      vertex 59.8173 -69.6716 10
      vertex 56.7735 -70.6022 10.8
      vertex 56.7735 -70.6022 10
    endloop
  endfacet
  facet normal 0.292377 -0.956303 0
    outer loop
      vertex 59.8173 -69.6716 10
      vertex 59.8173 -69.6716 10.8
      vertex 56.7735 -70.6022 10.8
    endloop
  endfacet
  facet normal 0.956295 0.292403 0
    outer loop
      vertex 59.523 -68.7091 10
      vertex 59.8173 -69.6716 10.8
      vertex 59.8173 -69.6716 10
    endloop
  endfacet
  facet normal 0.956295 0.292403 -0
    outer loop
      vertex 59.523 -68.7091 10
      vertex 59.523 -68.7091 10.8
      vertex 59.8173 -69.6716 10.8
    endloop
  endfacet
  facet normal -0.292377 0.956303 0
    outer loop
      vertex 56.4792 -69.6397 10
      vertex 59.523 -68.7091 10.8
      vertex 59.523 -68.7091 10
    endloop
  endfacet
  facet normal -0.292377 0.956303 0
    outer loop
      vertex 56.4792 -69.6397 10
      vertex 56.4792 -69.6397 10.8
      vertex 59.523 -68.7091 10.8
    endloop
  endfacet
  facet normal 0.956299 0.292391 0
    outer loop
      vertex 55.9164 -67.799 10
      vertex 56.4792 -69.6397 10.8
      vertex 56.4792 -69.6397 10
    endloop
  endfacet
  facet normal 0.956299 0.292391 -0
    outer loop
      vertex 55.9164 -67.799 10
      vertex 55.9164 -67.799 10.8
      vertex 56.4792 -69.6397 10.8
    endloop
  endfacet
  facet normal 0.292372 -0.956305 0
    outer loop
      vertex 59.0574 -66.8387 10
      vertex 55.9164 -67.799 10.8
      vertex 55.9164 -67.799 10
    endloop
  endfacet
  facet normal 0.292372 -0.956305 0
    outer loop
      vertex 59.0574 -66.8387 10
      vertex 59.0574 -66.8387 10.8
      vertex 55.9164 -67.799 10.8
    endloop
  endfacet
  facet normal 0.956295 0.292403 0
    outer loop
      vertex 58.7631 -65.8762 10
      vertex 59.0574 -66.8387 10.8
      vertex 59.0574 -66.8387 10
    endloop
  endfacet
  facet normal 0.956295 0.292403 -0
    outer loop
      vertex 58.7631 -65.8762 10
      vertex 58.7631 -65.8762 10.8
      vertex 59.0574 -66.8387 10.8
    endloop
  endfacet
  facet normal -0.29236 0.956308 0
    outer loop
      vertex 54.3767 -67.2172 10
      vertex 58.7631 -65.8762 10.8
      vertex 58.7631 -65.8762 10
    endloop
  endfacet
  facet normal -0.29236 0.956308 0
    outer loop
      vertex 54.3767 -67.2172 10
      vertex 54.3767 -67.2172 10.8
      vertex 58.7631 -65.8762 10.8
    endloop
  endfacet
  facet normal -0.956305 -0.29237 0
    outer loop
      vertex 56.1953 -73.1656 10
      vertex 54.3767 -67.2172 10.8
      vertex 54.3767 -67.2172 10
    endloop
  endfacet
  facet normal -0.956305 -0.29237 0
    outer loop
      vertex 56.1953 -73.1656 10
      vertex 56.1953 -73.1656 10.8
      vertex 54.3767 -67.2172 10.8
    endloop
  endfacet
  facet normal 0.29238 -0.956302 0
    outer loop
      vertex 57.4408 -72.7848 10
      vertex 56.1953 -73.1656 10.8
      vertex 56.1953 -73.1656 10
    endloop
  endfacet
  facet normal 0.29238 -0.956302 0
    outer loop
      vertex 57.4408 -72.7848 10
      vertex 57.4408 -72.7848 10.8
      vertex 56.1953 -73.1656 10.8
    endloop
  endfacet
  facet normal 0.956303 0.292377 0
    outer loop
      vertex 56.7735 -70.6022 10
      vertex 57.4408 -72.7848 10.8
      vertex 57.4408 -72.7848 10
    endloop
  endfacet
  facet normal 0.956303 0.292377 -0
    outer loop
      vertex 56.7735 -70.6022 10
      vertex 56.7735 -70.6022 10.8
      vertex 57.4408 -72.7848 10.8
    endloop
  endfacet
endsolid OpenSCAD_Model
