solid OpenSCAD_Model
  facet normal 0 0 -1
    outer loop
      vertex 51.8816 -30.9357 10
      vertex 55.024 -30.9357 10
      vertex 54.0075 -31.6516 10
    endloop
  endfacet
  facet normal 0 0 -1
    outer loop
      vertex 52.6625 -34.5863 10
      vertex 55.1511 -34.5863 10
      vertex 55.1511 -35.3022 10
    endloop
  endfacet
  facet normal 0 0 -1
    outer loop
      vertex 52.6625 -34.5863 10
      vertex 51.6461 -35.3022 10
      vertex 51.6461 -34.6545 10
    endloop
  endfacet
  facet normal 0 0 -1
    outer loop
      vertex 64.7019 -34.0564 10
      vertex 63.7846 -33.9851 10
      vertex 64.6326 -33.6539 10
    endloop
  endfacet
  facet normal 0 0 -1
    outer loop
      vertex 51.8816 -31.6516 10
      vertex 51.8816 -30.9357 10
      vertex 54.0075 -31.6516 10
    endloop
  endfacet
  facet normal 0 0 -1
    outer loop
      vertex 55.1511 -35.3022 10
      vertex 51.6461 -35.3022 10
      vertex 52.6625 -34.5863 10
    endloop
  endfacet
  facet normal 0 0 -1
    outer loop
      vertex 52.6625 -34.5863 10
      vertex 54.0075 -31.6516 10
      vertex 55.024 -31.571 10
    endloop
  endfacet
  facet normal 0 0 -1
    outer loop
      vertex 54.0075 -31.6516 10
      vertex 55.024 -30.9357 10
      vertex 55.024 -31.571 10
    endloop
  endfacet
  facet normal -0 0 -1
    outer loop
      vertex 52.6625 -34.5863 10
      vertex 51.6461 -34.6545 10
      vertex 54.0075 -31.6516 10
    endloop
  endfacet
  facet normal -0 0 -1
    outer loop
      vertex 64.5903 -34.584 10
      vertex 64.2556 -34.9768 10
      vertex 63.7339 -34.2644 10
    endloop
  endfacet
  facet normal 0 0 -1
    outer loop
      vertex 57.8899 -34.1989 10
      vertex 58.9993 -32.8663 10
      vertex 58.2121 -35.3022 10
    endloop
  endfacet
  facet normal 0 0 -1
    outer loop
      vertex 57.5614 -35.3022 10
      vertex 56.7742 -32.8663 10
      vertex 57.8899 -34.1989 10
    endloop
  endfacet
  facet normal 0 0 -1
    outer loop
      vertex 56.7742 -32.8663 10
      vertex 57.7411 -33.6132 10
      vertex 57.8899 -34.1989 10
    endloop
  endfacet
  facet normal 0 0 -1
    outer loop
      vertex 59.1333 -32.4116 10
      vertex 58.8878 -30.9357 10
      vertex 59.3247 -31.7042 10
    endloop
  endfacet
  facet normal 0 0 -1
    outer loop
      vertex 57.5614 -35.3022 10
      vertex 57.8899 -34.1989 10
      vertex 58.2121 -35.3022 10
    endloop
  endfacet
  facet normal 0 0 -1
    outer loop
      vertex 59.3247 -31.7042 10
      vertex 58.8878 -30.9357 10
      vertex 60.1057 -30.9357 10
    endloop
  endfacet
  facet normal 0 0 -1
    outer loop
      vertex 60.1057 -30.9357 10
      vertex 59.2937 -32.6556 10
      vertex 59.2941 -32.5658 10
    endloop
  endfacet
  facet normal 0 -0 -1
    outer loop
      vertex 60.1057 -30.9357 10
      vertex 60.1057 -35.3022 10
      vertex 59.2937 -32.6556 10
    endloop
  endfacet
  facet normal 0 -0 -1
    outer loop
      vertex 59.2953 -32.4759 10
      vertex 60.1057 -30.9357 10
      vertex 59.2941 -32.5658 10
    endloop
  endfacet
  facet normal 0 0 -1
    outer loop
      vertex 59.2937 -35.3022 10
      vertex 59.2937 -32.6556 10
      vertex 60.1057 -35.3022 10
    endloop
  endfacet
  facet normal 0 0 -1
    outer loop
      vertex 59.2953 -32.4759 10
      vertex 59.3034 -32.238 10
      vertex 60.1057 -30.9357 10
    endloop
  endfacet
  facet normal 0 0 -1
    outer loop
      vertex 60.1057 -30.9357 10
      vertex 59.3034 -32.238 10
      vertex 59.3247 -31.7042 10
    endloop
  endfacet
  facet normal 0 0 -1
    outer loop
      vertex 56.7742 -32.8663 10
      vertex 56.4426 -31.7042 10
      vertex 56.892 -30.9357 10
    endloop
  endfacet
  facet normal 0 0 -1
    outer loop
      vertex 57.8899 -34.1989 10
      vertex 58.0851 -33.4985 10
      vertex 58.9993 -32.8663 10
    endloop
  endfacet
  facet normal 0 0 -1
    outer loop
      vertex 58.0851 -33.4985 10
      vertex 59.1333 -32.4116 10
      vertex 58.9993 -32.8663 10
    endloop
  endfacet
  facet normal -0 0 -1
    outer loop
      vertex 59.1333 -32.4116 10
      vertex 58.0851 -33.4985 10
      vertex 58.8878 -30.9357 10
    endloop
  endfacet
  facet normal 0 -0 -1
    outer loop
      vertex 56.892 -30.9357 10
      vertex 57.6729 -33.3777 10
      vertex 56.7742 -32.8663 10
    endloop
  endfacet
  facet normal 0 0 -1
    outer loop
      vertex 56.7742 -32.8663 10
      vertex 57.6729 -33.3777 10
      vertex 57.7411 -33.6132 10
    endloop
  endfacet
  facet normal -0 0 -1
    outer loop
      vertex 56.892 -30.9357 10
      vertex 56.4426 -31.7042 10
      vertex 55.6678 -30.9357 10
    endloop
  endfacet
  facet normal 0 0 -1
    outer loop
      vertex 63.5646 -33.5249 10
      vertex 64.0841 -33.1201 10
      vertex 64.4246 -33.339 10
    endloop
  endfacet
  facet normal -0 -0 -1
    outer loop
      vertex 56.4426 -31.7042 10
      vertex 56.4705 -32.3016 10
      vertex 55.6678 -30.9357 10
    endloop
  endfacet
  facet normal -0 -0 -1
    outer loop
      vertex 56.4705 -32.3016 10
      vertex 56.4798 -32.6556 10
      vertex 55.6678 -30.9357 10
    endloop
  endfacet
  facet normal -0 0 -1
    outer loop
      vertex 56.4798 -32.6556 10
      vertex 55.6678 -35.3022 10
      vertex 55.6678 -30.9357 10
    endloop
  endfacet
  facet normal 0 0 -1
    outer loop
      vertex 56.4798 -35.3022 10
      vertex 55.6678 -35.3022 10
      vertex 56.4798 -32.6556 10
    endloop
  endfacet
  facet normal 0 0 -1
    outer loop
      vertex 63.7846 -33.9851 10
      vertex 63.5646 -33.5249 10
      vertex 64.4246 -33.339 10
    endloop
  endfacet
  facet normal -0 0 -1
    outer loop
      vertex 64.6326 -33.6539 10
      vertex 63.7846 -33.9851 10
      vertex 64.4246 -33.339 10
    endloop
  endfacet
  facet normal 0 0 -1
    outer loop
      vertex 63.6173 -33.0058 10
      vertex 63.5646 -33.5249 10
      vertex 62.9045 -33.3715 10
    endloop
  endfacet
  facet normal -0 0 -1
    outer loop
      vertex 64.7019 -34.0564 10
      vertex 63.7339 -34.2644 10
      vertex 63.7846 -33.9851 10
    endloop
  endfacet
  facet normal -0 0 -1
    outer loop
      vertex 64.4509 -32.0327 10
      vertex 63.5305 -32.1567 10
      vertex 63.4836 -31.9049 10
    endloop
  endfacet
  facet normal -0 0 -1
    outer loop
      vertex 64.3482 -31.5566 10
      vertex 63.4836 -31.9049 10
      vertex 64.0403 -31.2131 10
    endloop
  endfacet
  facet normal 0 0 -1
    outer loop
      vertex 63.5324 -31.005 10
      vertex 63.343 -31.7383 10
      vertex 63.1102 -31.6453 10
    endloop
  endfacet
  facet normal 0 0 -1
    outer loop
      vertex 63.1102 -31.6453 10
      vertex 62.8301 -30.9357 10
      vertex 63.5324 -31.005 10
    endloop
  endfacet
  facet normal 0 0 -1
    outer loop
      vertex 63.1102 -31.6453 10
      vertex 62.7867 -31.6144 10
      vertex 62.8301 -30.9357 10
    endloop
  endfacet
  facet normal 0 0 -1
    outer loop
      vertex 61.7454 -33.3715 10
      vertex 62.7929 -32.6959 10
      vertex 62.9045 -33.3715 10
    endloop
  endfacet
  facet normal 0 0 -1
    outer loop
      vertex 60.8312 -35.3022 10
      vertex 60.8312 -30.9357 10
      vertex 61.7454 -33.3715 10
    endloop
  endfacet
  facet normal 0 0 -1
    outer loop
      vertex 61.7454 -32.6959 10
      vertex 62.7929 -32.6959 10
      vertex 61.7454 -33.3715 10
    endloop
  endfacet
  facet normal 0 0 -1
    outer loop
      vertex 64.2448 -32.6603 10
      vertex 63.4867 -32.3926 10
      vertex 63.5305 -32.1567 10
    endloop
  endfacet
  facet normal 0 0 -1
    outer loop
      vertex 61.7454 -34.6235 10
      vertex 62.9386 -34.6235 10
      vertex 63.016 -35.3022 10
    endloop
  endfacet
  facet normal 0 0 -1
    outer loop
      vertex 61.7454 -31.6144 10
      vertex 62.8301 -30.9357 10
      vertex 62.7867 -31.6144 10
    endloop
  endfacet
  facet normal -0 0 -1
    outer loop
      vertex 62.8301 -30.9357 10
      vertex 61.7454 -31.6144 10
      vertex 60.8312 -30.9357 10
    endloop
  endfacet
  facet normal -0 -0 -1
    outer loop
      vertex 61.7454 -31.6144 10
      vertex 61.7454 -32.6959 10
      vertex 60.8312 -30.9357 10
    endloop
  endfacet
  facet normal -0 0 -1
    outer loop
      vertex 63.9849 -32.8745 10
      vertex 63.6173 -33.0058 10
      vertex 63.4867 -32.3926 10
    endloop
  endfacet
  facet normal 0 0 -1
    outer loop
      vertex 63.343 -31.7383 10
      vertex 64.0403 -31.2131 10
      vertex 63.4836 -31.9049 10
    endloop
  endfacet
  facet normal 0 -0 -1
    outer loop
      vertex 63.5324 -31.005 10
      vertex 64.0403 -31.2131 10
      vertex 63.343 -31.7383 10
    endloop
  endfacet
  facet normal 0 -0 -1
    outer loop
      vertex 64.3482 -31.5566 10
      vertex 64.4509 -32.0327 10
      vertex 63.4836 -31.9049 10
    endloop
  endfacet
  facet normal 0 0 -1
    outer loop
      vertex 63.5305 -32.1567 10
      vertex 64.3994 -32.3755 10
      vertex 64.2448 -32.6603 10
    endloop
  endfacet
  facet normal 0 0 -1
    outer loop
      vertex 64.4509 -32.0327 10
      vertex 64.3994 -32.3755 10
      vertex 63.5305 -32.1567 10
    endloop
  endfacet
  facet normal -0 0 -1
    outer loop
      vertex 64.2448 -32.6603 10
      vertex 63.9849 -32.8745 10
      vertex 63.4867 -32.3926 10
    endloop
  endfacet
  facet normal 0 -0 -1
    outer loop
      vertex 63.4867 -32.3926 10
      vertex 63.6173 -33.0058 10
      vertex 63.3554 -32.5611 10
    endloop
  endfacet
  facet normal 0 -0 -1
    outer loop
      vertex 63.3554 -32.5611 10
      vertex 63.6173 -33.0058 10
      vertex 63.1272 -32.6622 10
    endloop
  endfacet
  facet normal 0 0 -1
    outer loop
      vertex 63.1272 -32.6622 10
      vertex 62.9045 -33.3715 10
      vertex 62.7929 -32.6959 10
    endloop
  endfacet
  facet normal 0 -0 -1
    outer loop
      vertex 63.3194 -34.5836 10
      vertex 63.7226 -35.2208 10
      vertex 63.016 -35.3022 10
    endloop
  endfacet
  facet normal 0 -0 -1
    outer loop
      vertex 61.7454 -33.3715 10
      vertex 61.7454 -34.6235 10
      vertex 60.8312 -35.3022 10
    endloop
  endfacet
  facet normal 0 -0 -1
    outer loop
      vertex 61.7454 -34.6235 10
      vertex 63.016 -35.3022 10
      vertex 60.8312 -35.3022 10
    endloop
  endfacet
  facet normal -0 -0 -1
    outer loop
      vertex 61.7454 -32.6959 10
      vertex 61.7454 -33.3715 10
      vertex 60.8312 -30.9357 10
    endloop
  endfacet
  facet normal 0 0 -1
    outer loop
      vertex 62.9045 -33.3715 10
      vertex 63.1272 -32.6622 10
      vertex 63.6173 -33.0058 10
    endloop
  endfacet
  facet normal 0 0 -1
    outer loop
      vertex 63.5646 -33.5249 10
      vertex 63.6173 -33.0058 10
      vertex 64.0841 -33.1201 10
    endloop
  endfacet
  facet normal 0 0 -1
    outer loop
      vertex 64.7019 -34.0564 10
      vertex 64.5903 -34.584 10
      vertex 63.7339 -34.2644 10
    endloop
  endfacet
  facet normal 0 -0 -1
    outer loop
      vertex 63.7339 -34.2644 10
      vertex 64.2556 -34.9768 10
      vertex 63.5816 -34.4639 10
    endloop
  endfacet
  facet normal 0 0 -1
    outer loop
      vertex 63.5816 -34.4639 10
      vertex 64.2556 -34.9768 10
      vertex 63.7226 -35.2208 10
    endloop
  endfacet
  facet normal 0 0 -1
    outer loop
      vertex 62.9386 -34.6235 10
      vertex 63.3194 -34.5836 10
      vertex 63.016 -35.3022 10
    endloop
  endfacet
  facet normal 0 0 -1
    outer loop
      vertex 63.3194 -34.5836 10
      vertex 63.5816 -34.4639 10
      vertex 63.7226 -35.2208 10
    endloop
  endfacet
  facet normal 0 -0 1
    outer loop
      vertex 54.0075 -31.6516 10.8
      vertex 55.024 -30.9357 10.8
      vertex 51.8816 -30.9357 10.8
    endloop
  endfacet
  facet normal 0 -0 1
    outer loop
      vertex 55.1511 -35.3022 10.8
      vertex 55.1511 -34.5863 10.8
      vertex 52.6625 -34.5863 10.8
    endloop
  endfacet
  facet normal -0 0 1
    outer loop
      vertex 51.6461 -34.6545 10.8
      vertex 51.6461 -35.3022 10.8
      vertex 52.6625 -34.5863 10.8
    endloop
  endfacet
  facet normal 0 0 1
    outer loop
      vertex 64.6326 -33.6539 10.8
      vertex 63.7846 -33.9851 10.8
      vertex 64.7019 -34.0564 10.8
    endloop
  endfacet
  facet normal 0 0 1
    outer loop
      vertex 54.0075 -31.6516 10.8
      vertex 51.8816 -30.9357 10.8
      vertex 51.8816 -31.6516 10.8
    endloop
  endfacet
  facet normal 0 0 1
    outer loop
      vertex 52.6625 -34.5863 10.8
      vertex 51.6461 -35.3022 10.8
      vertex 55.1511 -35.3022 10.8
    endloop
  endfacet
  facet normal 0 0 1
    outer loop
      vertex 55.024 -31.571 10.8
      vertex 54.0075 -31.6516 10.8
      vertex 52.6625 -34.5863 10.8
    endloop
  endfacet
  facet normal 0 -0 1
    outer loop
      vertex 55.024 -31.571 10.8
      vertex 55.024 -30.9357 10.8
      vertex 54.0075 -31.6516 10.8
    endloop
  endfacet
  facet normal 0 0 1
    outer loop
      vertex 54.0075 -31.6516 10.8
      vertex 51.6461 -34.6545 10.8
      vertex 52.6625 -34.5863 10.8
    endloop
  endfacet
  facet normal 0 0 1
    outer loop
      vertex 63.7339 -34.2644 10.8
      vertex 64.2556 -34.9768 10.8
      vertex 64.5903 -34.584 10.8
    endloop
  endfacet
  facet normal 0 -0 1
    outer loop
      vertex 58.2121 -35.3022 10.8
      vertex 58.9993 -32.8663 10.8
      vertex 57.8899 -34.1989 10.8
    endloop
  endfacet
  facet normal 0 0 1
    outer loop
      vertex 57.8899 -34.1989 10.8
      vertex 56.7742 -32.8663 10.8
      vertex 57.5614 -35.3022 10.8
    endloop
  endfacet
  facet normal 0 0 1
    outer loop
      vertex 57.8899 -34.1989 10.8
      vertex 57.7411 -33.6132 10.8
      vertex 56.7742 -32.8663 10.8
    endloop
  endfacet
  facet normal 0 0 1
    outer loop
      vertex 59.3247 -31.7042 10.8
      vertex 58.8878 -30.9357 10.8
      vertex 59.1333 -32.4116 10.8
    endloop
  endfacet
  facet normal 0 0 1
    outer loop
      vertex 58.2121 -35.3022 10.8
      vertex 57.8899 -34.1989 10.8
      vertex 57.5614 -35.3022 10.8
    endloop
  endfacet
  facet normal 0 0 1
    outer loop
      vertex 60.1057 -30.9357 10.8
      vertex 58.8878 -30.9357 10.8
      vertex 59.3247 -31.7042 10.8
    endloop
  endfacet
  facet normal -0 0 1
    outer loop
      vertex 59.2941 -32.5658 10.8
      vertex 59.2937 -32.6556 10.8
      vertex 60.1057 -30.9357 10.8
    endloop
  endfacet
  facet normal -0 0 1
    outer loop
      vertex 59.2937 -32.6556 10.8
      vertex 60.1057 -35.3022 10.8
      vertex 60.1057 -30.9357 10.8
    endloop
  endfacet
  facet normal 0 0 1
    outer loop
      vertex 59.2941 -32.5658 10.8
      vertex 60.1057 -30.9357 10.8
      vertex 59.2953 -32.4759 10.8
    endloop
  endfacet
  facet normal 0 0 1
    outer loop
      vertex 60.1057 -35.3022 10.8
      vertex 59.2937 -32.6556 10.8
      vertex 59.2937 -35.3022 10.8
    endloop
  endfacet
  facet normal 0 0 1
    outer loop
      vertex 60.1057 -30.9357 10.8
      vertex 59.3034 -32.238 10.8
      vertex 59.2953 -32.4759 10.8
    endloop
  endfacet
  facet normal -0 0 1
    outer loop
      vertex 59.3247 -31.7042 10.8
      vertex 59.3034 -32.238 10.8
      vertex 60.1057 -30.9357 10.8
    endloop
  endfacet
  facet normal 0 0 1
    outer loop
      vertex 56.892 -30.9357 10.8
      vertex 56.4426 -31.7042 10.8
      vertex 56.7742 -32.8663 10.8
    endloop
  endfacet
  facet normal 0 0 1
    outer loop
      vertex 58.9993 -32.8663 10.8
      vertex 58.0851 -33.4985 10.8
      vertex 57.8899 -34.1989 10.8
    endloop
  endfacet
  facet normal 0 -0 1
    outer loop
      vertex 58.9993 -32.8663 10.8
      vertex 59.1333 -32.4116 10.8
      vertex 58.0851 -33.4985 10.8
    endloop
  endfacet
  facet normal 0 0 1
    outer loop
      vertex 58.8878 -30.9357 10.8
      vertex 58.0851 -33.4985 10.8
      vertex 59.1333 -32.4116 10.8
    endloop
  endfacet
  facet normal -0 0 1
    outer loop
      vertex 56.7742 -32.8663 10.8
      vertex 57.6729 -33.3777 10.8
      vertex 56.892 -30.9357 10.8
    endloop
  endfacet
  facet normal 0 0 1
    outer loop
      vertex 57.7411 -33.6132 10.8
      vertex 57.6729 -33.3777 10.8
      vertex 56.7742 -32.8663 10.8
    endloop
  endfacet
  facet normal -0 0 1
    outer loop
      vertex 55.6678 -30.9357 10.8
      vertex 56.4426 -31.7042 10.8
      vertex 56.892 -30.9357 10.8
    endloop
  endfacet
  facet normal 0 0 1
    outer loop
      vertex 64.4246 -33.339 10.8
      vertex 64.0841 -33.1201 10.8
      vertex 63.5646 -33.5249 10.8
    endloop
  endfacet
  facet normal 0 0 1
    outer loop
      vertex 55.6678 -30.9357 10.8
      vertex 56.4705 -32.3016 10.8
      vertex 56.4426 -31.7042 10.8
    endloop
  endfacet
  facet normal 0 0 1
    outer loop
      vertex 55.6678 -30.9357 10.8
      vertex 56.4798 -32.6556 10.8
      vertex 56.4705 -32.3016 10.8
    endloop
  endfacet
  facet normal 0 0 1
    outer loop
      vertex 55.6678 -30.9357 10.8
      vertex 55.6678 -35.3022 10.8
      vertex 56.4798 -32.6556 10.8
    endloop
  endfacet
  facet normal 0 0 1
    outer loop
      vertex 56.4798 -32.6556 10.8
      vertex 55.6678 -35.3022 10.8
      vertex 56.4798 -35.3022 10.8
    endloop
  endfacet
  facet normal 0 0 1
    outer loop
      vertex 64.4246 -33.339 10.8
      vertex 63.5646 -33.5249 10.8
      vertex 63.7846 -33.9851 10.8
    endloop
  endfacet
  facet normal 0 0 1
    outer loop
      vertex 64.4246 -33.339 10.8
      vertex 63.7846 -33.9851 10.8
      vertex 64.6326 -33.6539 10.8
    endloop
  endfacet
  facet normal -0 0 1
    outer loop
      vertex 62.9045 -33.3715 10.8
      vertex 63.5646 -33.5249 10.8
      vertex 63.6173 -33.0058 10.8
    endloop
  endfacet
  facet normal 0 0 1
    outer loop
      vertex 63.7846 -33.9851 10.8
      vertex 63.7339 -34.2644 10.8
      vertex 64.7019 -34.0564 10.8
    endloop
  endfacet
  facet normal 0 0 1
    outer loop
      vertex 63.4836 -31.9049 10.8
      vertex 63.5305 -32.1567 10.8
      vertex 64.4509 -32.0327 10.8
    endloop
  endfacet
  facet normal 0 0 1
    outer loop
      vertex 64.0403 -31.2131 10.8
      vertex 63.4836 -31.9049 10.8
      vertex 64.3482 -31.5566 10.8
    endloop
  endfacet
  facet normal -0 0 1
    outer loop
      vertex 63.1102 -31.6453 10.8
      vertex 63.343 -31.7383 10.8
      vertex 63.5324 -31.005 10.8
    endloop
  endfacet
  facet normal 0 0 1
    outer loop
      vertex 63.5324 -31.005 10.8
      vertex 62.8301 -30.9357 10.8
      vertex 63.1102 -31.6453 10.8
    endloop
  endfacet
  facet normal 0 0 1
    outer loop
      vertex 62.8301 -30.9357 10.8
      vertex 62.7867 -31.6144 10.8
      vertex 63.1102 -31.6453 10.8
    endloop
  endfacet
  facet normal 0 0 1
    outer loop
      vertex 62.9045 -33.3715 10.8
      vertex 62.7929 -32.6959 10.8
      vertex 61.7454 -33.3715 10.8
    endloop
  endfacet
  facet normal 0 0 1
    outer loop
      vertex 61.7454 -33.3715 10.8
      vertex 60.8312 -30.9357 10.8
      vertex 60.8312 -35.3022 10.8
    endloop
  endfacet
  facet normal 0 0 1
    outer loop
      vertex 61.7454 -33.3715 10.8
      vertex 62.7929 -32.6959 10.8
      vertex 61.7454 -32.6959 10.8
    endloop
  endfacet
  facet normal 0 0 1
    outer loop
      vertex 63.5305 -32.1567 10.8
      vertex 63.4867 -32.3926 10.8
      vertex 64.2448 -32.6603 10.8
    endloop
  endfacet
  facet normal 0 0 1
    outer loop
      vertex 63.016 -35.3022 10.8
      vertex 62.9386 -34.6235 10.8
      vertex 61.7454 -34.6235 10.8
    endloop
  endfacet
  facet normal 0 -0 1
    outer loop
      vertex 62.7867 -31.6144 10.8
      vertex 62.8301 -30.9357 10.8
      vertex 61.7454 -31.6144 10.8
    endloop
  endfacet
  facet normal -0 0 1
    outer loop
      vertex 60.8312 -30.9357 10.8
      vertex 61.7454 -31.6144 10.8
      vertex 62.8301 -30.9357 10.8
    endloop
  endfacet
  facet normal 0 0 1
    outer loop
      vertex 60.8312 -30.9357 10.8
      vertex 61.7454 -32.6959 10.8
      vertex 61.7454 -31.6144 10.8
    endloop
  endfacet
  facet normal 0 0 1
    outer loop
      vertex 63.4867 -32.3926 10.8
      vertex 63.6173 -33.0058 10.8
      vertex 63.9849 -32.8745 10.8
    endloop
  endfacet
  facet normal 0 -0 1
    outer loop
      vertex 63.4836 -31.9049 10.8
      vertex 64.0403 -31.2131 10.8
      vertex 63.343 -31.7383 10.8
    endloop
  endfacet
  facet normal 0 0 1
    outer loop
      vertex 63.343 -31.7383 10.8
      vertex 64.0403 -31.2131 10.8
      vertex 63.5324 -31.005 10.8
    endloop
  endfacet
  facet normal -0 0 1
    outer loop
      vertex 63.4836 -31.9049 10.8
      vertex 64.4509 -32.0327 10.8
      vertex 64.3482 -31.5566 10.8
    endloop
  endfacet
  facet normal 0 -0 1
    outer loop
      vertex 64.2448 -32.6603 10.8
      vertex 64.3994 -32.3755 10.8
      vertex 63.5305 -32.1567 10.8
    endloop
  endfacet
  facet normal -0 0 1
    outer loop
      vertex 63.5305 -32.1567 10.8
      vertex 64.3994 -32.3755 10.8
      vertex 64.4509 -32.0327 10.8
    endloop
  endfacet
  facet normal 0 0 1
    outer loop
      vertex 63.4867 -32.3926 10.8
      vertex 63.9849 -32.8745 10.8
      vertex 64.2448 -32.6603 10.8
    endloop
  endfacet
  facet normal -0 0 1
    outer loop
      vertex 63.3554 -32.5611 10.8
      vertex 63.6173 -33.0058 10.8
      vertex 63.4867 -32.3926 10.8
    endloop
  endfacet
  facet normal -0 0 1
    outer loop
      vertex 63.1272 -32.6622 10.8
      vertex 63.6173 -33.0058 10.8
      vertex 63.3554 -32.5611 10.8
    endloop
  endfacet
  facet normal -0 0 1
    outer loop
      vertex 62.7929 -32.6959 10.8
      vertex 62.9045 -33.3715 10.8
      vertex 63.1272 -32.6622 10.8
    endloop
  endfacet
  facet normal 0 0 1
    outer loop
      vertex 63.016 -35.3022 10.8
      vertex 63.7226 -35.2208 10.8
      vertex 63.3194 -34.5836 10.8
    endloop
  endfacet
  facet normal 0 0 1
    outer loop
      vertex 60.8312 -35.3022 10.8
      vertex 61.7454 -34.6235 10.8
      vertex 61.7454 -33.3715 10.8
    endloop
  endfacet
  facet normal 0 0 1
    outer loop
      vertex 60.8312 -35.3022 10.8
      vertex 63.016 -35.3022 10.8
      vertex 61.7454 -34.6235 10.8
    endloop
  endfacet
  facet normal 0 0 1
    outer loop
      vertex 60.8312 -30.9357 10.8
      vertex 61.7454 -33.3715 10.8
      vertex 61.7454 -32.6959 10.8
    endloop
  endfacet
  facet normal 0 0 1
    outer loop
      vertex 63.6173 -33.0058 10.8
      vertex 63.1272 -32.6622 10.8
      vertex 62.9045 -33.3715 10.8
    endloop
  endfacet
  facet normal 0 0 1
    outer loop
      vertex 64.0841 -33.1201 10.8
      vertex 63.6173 -33.0058 10.8
      vertex 63.5646 -33.5249 10.8
    endloop
  endfacet
  facet normal -0 0 1
    outer loop
      vertex 63.7339 -34.2644 10.8
      vertex 64.5903 -34.584 10.8
      vertex 64.7019 -34.0564 10.8
    endloop
  endfacet
  facet normal -0 0 1
    outer loop
      vertex 63.5816 -34.4639 10.8
      vertex 64.2556 -34.9768 10.8
      vertex 63.7339 -34.2644 10.8
    endloop
  endfacet
  facet normal 0 -0 1
    outer loop
      vertex 63.7226 -35.2208 10.8
      vertex 64.2556 -34.9768 10.8
      vertex 63.5816 -34.4639 10.8
    endloop
  endfacet
  facet normal 0 -0 1
    outer loop
      vertex 63.016 -35.3022 10.8
      vertex 63.3194 -34.5836 10.8
      vertex 62.9386 -34.6235 10.8
    endloop
  endfacet
  facet normal 0 0 1
    outer loop
      vertex 63.7226 -35.2208 10.8
      vertex 63.5816 -34.4639 10.8
      vertex 63.3194 -34.5836 10.8
    endloop
  endfacet
  facet normal 0 1 0
    outer loop
      vertex 52.6625 -34.5863 10
      vertex 55.1511 -34.5863 10.8
      vertex 55.1511 -34.5863 10
    endloop
  endfacet
  facet normal 0 1 0
    outer loop
      vertex 52.6625 -34.5863 10
      vertex 52.6625 -34.5863 10.8
      vertex 55.1511 -34.5863 10.8
    endloop
  endfacet
  facet normal 0.78729 -0.616583 0
    outer loop
      vertex 55.024 -31.571 10
      vertex 52.6625 -34.5863 10.8
      vertex 52.6625 -34.5863 10
    endloop
  endfacet
  facet normal 0.78729 -0.616583 0
    outer loop
      vertex 55.024 -31.571 10
      vertex 55.024 -31.571 10.8
      vertex 52.6625 -34.5863 10.8
    endloop
  endfacet
  facet normal 1 0 0
    outer loop
      vertex 55.024 -30.9357 10
      vertex 55.024 -31.571 10.8
      vertex 55.024 -31.571 10
    endloop
  endfacet
  facet normal 1 0 -0
    outer loop
      vertex 55.024 -30.9357 10
      vertex 55.024 -30.9357 10.8
      vertex 55.024 -31.571 10.8
    endloop
  endfacet
  facet normal 0 1 0
    outer loop
      vertex 51.8816 -30.9357 10
      vertex 55.024 -30.9357 10.8
      vertex 55.024 -30.9357 10
    endloop
  endfacet
  facet normal 0 1 0
    outer loop
      vertex 51.8816 -30.9357 10
      vertex 51.8816 -30.9357 10.8
      vertex 55.024 -30.9357 10.8
    endloop
  endfacet
  facet normal -1 0 0
    outer loop
      vertex 51.8816 -31.6516 10
      vertex 51.8816 -30.9357 10.8
      vertex 51.8816 -30.9357 10
    endloop
  endfacet
  facet normal -1 0 0
    outer loop
      vertex 51.8816 -31.6516 10
      vertex 51.8816 -31.6516 10.8
      vertex 51.8816 -30.9357 10.8
    endloop
  endfacet
  facet normal 0 -1 0
    outer loop
      vertex 54.0075 -31.6516 10
      vertex 51.8816 -31.6516 10.8
      vertex 51.8816 -31.6516 10
    endloop
  endfacet
  facet normal 0 -1 0
    outer loop
      vertex 54.0075 -31.6516 10
      vertex 54.0075 -31.6516 10.8
      vertex 51.8816 -31.6516 10.8
    endloop
  endfacet
  facet normal -0.786067 0.618142 0
    outer loop
      vertex 51.6461 -34.6545 10
      vertex 54.0075 -31.6516 10.8
      vertex 54.0075 -31.6516 10
    endloop
  endfacet
  facet normal -0.786067 0.618142 0
    outer loop
      vertex 51.6461 -34.6545 10
      vertex 51.6461 -34.6545 10.8
      vertex 54.0075 -31.6516 10.8
    endloop
  endfacet
  facet normal -1 0 0
    outer loop
      vertex 51.6461 -35.3022 10
      vertex 51.6461 -34.6545 10.8
      vertex 51.6461 -34.6545 10
    endloop
  endfacet
  facet normal -1 0 0
    outer loop
      vertex 51.6461 -35.3022 10
      vertex 51.6461 -35.3022 10.8
      vertex 51.6461 -34.6545 10.8
    endloop
  endfacet
  facet normal 0 -1 0
    outer loop
      vertex 55.1511 -35.3022 10
      vertex 51.6461 -35.3022 10.8
      vertex 51.6461 -35.3022 10
    endloop
  endfacet
  facet normal 0 -1 0
    outer loop
      vertex 55.1511 -35.3022 10
      vertex 55.1511 -35.3022 10.8
      vertex 51.6461 -35.3022 10.8
    endloop
  endfacet
  facet normal 1 0 0
    outer loop
      vertex 55.1511 -34.5863 10
      vertex 55.1511 -35.3022 10.8
      vertex 55.1511 -35.3022 10
    endloop
  endfacet
  facet normal 1 0 -0
    outer loop
      vertex 55.1511 -34.5863 10
      vertex 55.1511 -34.5863 10.8
      vertex 55.1511 -35.3022 10.8
    endloop
  endfacet
  facet normal 0.999655 0.0262621 0
    outer loop
      vertex 56.4705 -32.3016 10
      vertex 56.4798 -32.6556 10.8
      vertex 56.4798 -32.6556 10
    endloop
  endfacet
  facet normal 0.999655 0.0262621 -0
    outer loop
      vertex 56.4705 -32.3016 10
      vertex 56.4705 -32.3016 10.8
      vertex 56.4798 -32.6556 10.8
    endloop
  endfacet
  facet normal 0.998911 0.0466515 0
    outer loop
      vertex 56.4426 -31.7042 10
      vertex 56.4705 -32.3016 10.8
      vertex 56.4705 -32.3016 10
    endloop
  endfacet
  facet normal 0.998911 0.0466515 -0
    outer loop
      vertex 56.4426 -31.7042 10
      vertex 56.4426 -31.7042 10.8
      vertex 56.4705 -32.3016 10.8
    endloop
  endfacet
  facet normal -0.961618 -0.274393 0
    outer loop
      vertex 56.7742 -32.8663 10
      vertex 56.4426 -31.7042 10.8
      vertex 56.4426 -31.7042 10
    endloop
  endfacet
  facet normal -0.961618 -0.274393 0
    outer loop
      vertex 56.7742 -32.8663 10
      vertex 56.7742 -32.8663 10.8
      vertex 56.4426 -31.7042 10.8
    endloop
  endfacet
  facet normal -0.951546 -0.307507 0
    outer loop
      vertex 57.5614 -35.3022 10
      vertex 56.7742 -32.8663 10.8
      vertex 56.7742 -32.8663 10
    endloop
  endfacet
  facet normal -0.951546 -0.307507 0
    outer loop
      vertex 57.5614 -35.3022 10
      vertex 57.5614 -35.3022 10.8
      vertex 56.7742 -32.8663 10.8
    endloop
  endfacet
  facet normal 0 -1 0
    outer loop
      vertex 58.2121 -35.3022 10
      vertex 57.5614 -35.3022 10.8
      vertex 57.5614 -35.3022 10
    endloop
  endfacet
  facet normal 0 -1 0
    outer loop
      vertex 58.2121 -35.3022 10
      vertex 58.2121 -35.3022 10.8
      vertex 57.5614 -35.3022 10.8
    endloop
  endfacet
  facet normal 0.951546 -0.307507 0
    outer loop
      vertex 58.9993 -32.8663 10
      vertex 58.2121 -35.3022 10.8
      vertex 58.2121 -35.3022 10
    endloop
  endfacet
  facet normal 0.951546 -0.307507 0
    outer loop
      vertex 58.9993 -32.8663 10
      vertex 58.9993 -32.8663 10.8
      vertex 58.2121 -35.3022 10.8
    endloop
  endfacet
  facet normal 0.959214 -0.28268 0
    outer loop
      vertex 59.1333 -32.4116 10
      vertex 58.9993 -32.8663 10.8
      vertex 58.9993 -32.8663 10
    endloop
  endfacet
  facet normal 0.959214 -0.28268 0
    outer loop
      vertex 59.1333 -32.4116 10
      vertex 59.1333 -32.4116 10.8
      vertex 58.9993 -32.8663 10.8
    endloop
  endfacet
  facet normal 0.965291 -0.261177 0
    outer loop
      vertex 59.3247 -31.7042 10
      vertex 59.1333 -32.4116 10.8
      vertex 59.1333 -32.4116 10
    endloop
  endfacet
  facet normal 0.965291 -0.261177 0
    outer loop
      vertex 59.3247 -31.7042 10
      vertex 59.3247 -31.7042 10.8
      vertex 59.1333 -32.4116 10.8
    endloop
  endfacet
  facet normal -0.999205 0.0398709 0
    outer loop
      vertex 59.3034 -32.238 10
      vertex 59.3247 -31.7042 10.8
      vertex 59.3247 -31.7042 10
    endloop
  endfacet
  facet normal -0.999205 0.0398709 0
    outer loop
      vertex 59.3034 -32.238 10
      vertex 59.3034 -32.238 10.8
      vertex 59.3247 -31.7042 10.8
    endloop
  endfacet
  facet normal -0.999421 0.0340282 0
    outer loop
      vertex 59.2953 -32.4759 10
      vertex 59.3034 -32.238 10.8
      vertex 59.3034 -32.238 10
    endloop
  endfacet
  facet normal -0.999421 0.0340282 0
    outer loop
      vertex 59.2953 -32.4759 10
      vertex 59.2953 -32.4759 10.8
      vertex 59.3034 -32.238 10.8
    endloop
  endfacet
  facet normal -0.999911 0.013347 0
    outer loop
      vertex 59.2941 -32.5658 10
      vertex 59.2953 -32.4759 10.8
      vertex 59.2953 -32.4759 10
    endloop
  endfacet
  facet normal -0.999911 0.013347 0
    outer loop
      vertex 59.2941 -32.5658 10
      vertex 59.2941 -32.5658 10.8
      vertex 59.2953 -32.4759 10.8
    endloop
  endfacet
  facet normal -0.99999 0.0044543 0
    outer loop
      vertex 59.2937 -32.6556 10
      vertex 59.2941 -32.5658 10.8
      vertex 59.2941 -32.5658 10
    endloop
  endfacet
  facet normal -0.99999 0.0044543 0
    outer loop
      vertex 59.2937 -32.6556 10
      vertex 59.2937 -32.6556 10.8
      vertex 59.2941 -32.5658 10.8
    endloop
  endfacet
  facet normal -1 0 0
    outer loop
      vertex 59.2937 -35.3022 10
      vertex 59.2937 -32.6556 10.8
      vertex 59.2937 -32.6556 10
    endloop
  endfacet
  facet normal -1 0 0
    outer loop
      vertex 59.2937 -35.3022 10
      vertex 59.2937 -35.3022 10.8
      vertex 59.2937 -32.6556 10.8
    endloop
  endfacet
  facet normal 0 -1 0
    outer loop
      vertex 60.1057 -35.3022 10
      vertex 59.2937 -35.3022 10.8
      vertex 59.2937 -35.3022 10
    endloop
  endfacet
  facet normal 0 -1 0
    outer loop
      vertex 60.1057 -35.3022 10
      vertex 60.1057 -35.3022 10.8
      vertex 59.2937 -35.3022 10.8
    endloop
  endfacet
  facet normal 1 0 0
    outer loop
      vertex 60.1057 -30.9357 10
      vertex 60.1057 -35.3022 10.8
      vertex 60.1057 -35.3022 10
    endloop
  endfacet
  facet normal 1 0 -0
    outer loop
      vertex 60.1057 -30.9357 10
      vertex 60.1057 -30.9357 10.8
      vertex 60.1057 -35.3022 10.8
    endloop
  endfacet
  facet normal 0 1 0
    outer loop
      vertex 58.8878 -30.9357 10
      vertex 60.1057 -30.9357 10.8
      vertex 60.1057 -30.9357 10
    endloop
  endfacet
  facet normal 0 1 0
    outer loop
      vertex 58.8878 -30.9357 10
      vertex 58.8878 -30.9357 10.8
      vertex 60.1057 -30.9357 10.8
    endloop
  endfacet
  facet normal -0.954286 0.298894 0
    outer loop
      vertex 58.0851 -33.4985 10
      vertex 58.8878 -30.9357 10.8
      vertex 58.8878 -30.9357 10
    endloop
  endfacet
  facet normal -0.954286 0.298894 0
    outer loop
      vertex 58.0851 -33.4985 10
      vertex 58.0851 -33.4985 10.8
      vertex 58.8878 -30.9357 10.8
    endloop
  endfacet
  facet normal -0.963289 0.268467 0
    outer loop
      vertex 57.8899 -34.1989 10
      vertex 58.0851 -33.4985 10.8
      vertex 58.0851 -33.4985 10
    endloop
  endfacet
  facet normal -0.963289 0.268467 0
    outer loop
      vertex 57.8899 -34.1989 10
      vertex 57.8899 -34.1989 10.8
      vertex 58.0851 -33.4985 10.8
    endloop
  endfacet
  facet normal 0.969211 0.246233 0
    outer loop
      vertex 57.7411 -33.6132 10
      vertex 57.8899 -34.1989 10.8
      vertex 57.8899 -34.1989 10
    endloop
  endfacet
  facet normal 0.969211 0.246233 -0
    outer loop
      vertex 57.7411 -33.6132 10
      vertex 57.7411 -33.6132 10.8
      vertex 57.8899 -34.1989 10.8
    endloop
  endfacet
  facet normal 0.960533 0.278167 0
    outer loop
      vertex 57.6729 -33.3777 10
      vertex 57.7411 -33.6132 10.8
      vertex 57.7411 -33.6132 10
    endloop
  endfacet
  facet normal 0.960533 0.278167 -0
    outer loop
      vertex 57.6729 -33.3777 10
      vertex 57.6729 -33.3777 10.8
      vertex 57.7411 -33.6132 10.8
    endloop
  endfacet
  facet normal 0.952485 0.304585 0
    outer loop
      vertex 56.892 -30.9357 10
      vertex 57.6729 -33.3777 10.8
      vertex 57.6729 -33.3777 10
    endloop
  endfacet
  facet normal 0.952485 0.304585 -0
    outer loop
      vertex 56.892 -30.9357 10
      vertex 56.892 -30.9357 10.8
      vertex 57.6729 -33.3777 10.8
    endloop
  endfacet
  facet normal 0 1 0
    outer loop
      vertex 55.6678 -30.9357 10
      vertex 56.892 -30.9357 10.8
      vertex 56.892 -30.9357 10
    endloop
  endfacet
  facet normal 0 1 0
    outer loop
      vertex 55.6678 -30.9357 10
      vertex 55.6678 -30.9357 10.8
      vertex 56.892 -30.9357 10.8
    endloop
  endfacet
  facet normal -1 0 0
    outer loop
      vertex 55.6678 -35.3022 10
      vertex 55.6678 -30.9357 10.8
      vertex 55.6678 -30.9357 10
    endloop
  endfacet
  facet normal -1 0 0
    outer loop
      vertex 55.6678 -35.3022 10
      vertex 55.6678 -35.3022 10.8
      vertex 55.6678 -30.9357 10.8
    endloop
  endfacet
  facet normal 0 -1 0
    outer loop
      vertex 56.4798 -35.3022 10
      vertex 55.6678 -35.3022 10.8
      vertex 55.6678 -35.3022 10
    endloop
  endfacet
  facet normal 0 -1 0
    outer loop
      vertex 56.4798 -35.3022 10
      vertex 56.4798 -35.3022 10.8
      vertex 55.6678 -35.3022 10.8
    endloop
  endfacet
  facet normal 1 0 0
    outer loop
      vertex 56.4798 -32.6556 10
      vertex 56.4798 -35.3022 10.8
      vertex 56.4798 -35.3022 10
    endloop
  endfacet
  facet normal 1 0 -0
    outer loop
      vertex 56.4798 -32.6556 10
      vertex 56.4798 -32.6556 10.8
      vertex 56.4798 -35.3022 10.8
    endloop
  endfacet
  facet normal 0.416243 -0.909253 0
    outer loop
      vertex 64.2556 -34.9768 10
      vertex 63.7226 -35.2208 10.8
      vertex 63.7226 -35.2208 10
    endloop
  endfacet
  facet normal 0.416243 -0.909253 0
    outer loop
      vertex 64.2556 -34.9768 10
      vertex 64.2556 -34.9768 10.8
      vertex 63.7226 -35.2208 10.8
    endloop
  endfacet
  facet normal 0.761155 -0.64857 0
    outer loop
      vertex 64.5903 -34.584 10
      vertex 64.2556 -34.9768 10.8
      vertex 64.2556 -34.9768 10
    endloop
  endfacet
  facet normal 0.761155 -0.64857 0
    outer loop
      vertex 64.5903 -34.584 10
      vertex 64.5903 -34.584 10.8
      vertex 64.2556 -34.9768 10.8
    endloop
  endfacet
  facet normal 0.978353 -0.206945 0
    outer loop
      vertex 64.7019 -34.0564 10
      vertex 64.5903 -34.584 10.8
      vertex 64.5903 -34.584 10
    endloop
  endfacet
  facet normal 0.978353 -0.206945 0
    outer loop
      vertex 64.7019 -34.0564 10
      vertex 64.7019 -34.0564 10.8
      vertex 64.5903 -34.584 10.8
    endloop
  endfacet
  facet normal 0.9855 0.169677 0
    outer loop
      vertex 64.6326 -33.6539 10
      vertex 64.7019 -34.0564 10.8
      vertex 64.7019 -34.0564 10
    endloop
  endfacet
  facet normal 0.9855 0.169677 -0
    outer loop
      vertex 64.6326 -33.6539 10
      vertex 64.6326 -33.6539 10.8
      vertex 64.7019 -34.0564 10.8
    endloop
  endfacet
  facet normal 0.834407 0.551149 0
    outer loop
      vertex 64.4246 -33.339 10
      vertex 64.6326 -33.6539 10.8
      vertex 64.6326 -33.6539 10
    endloop
  endfacet
  facet normal 0.834407 0.551149 -0
    outer loop
      vertex 64.4246 -33.339 10
      vertex 64.4246 -33.339 10.8
      vertex 64.6326 -33.6539 10.8
    endloop
  endfacet
  facet normal 0.54077 0.84117 0
    outer loop
      vertex 64.0841 -33.1201 10
      vertex 64.4246 -33.339 10.8
      vertex 64.4246 -33.339 10
    endloop
  endfacet
  facet normal 0.54077 0.84117 -0
    outer loop
      vertex 64.0841 -33.1201 10
      vertex 64.0841 -33.1201 10.8
      vertex 64.4246 -33.339 10.8
    endloop
  endfacet
  facet normal 0.237833 0.971306 0
    outer loop
      vertex 63.6173 -33.0058 10
      vertex 64.0841 -33.1201 10.8
      vertex 64.0841 -33.1201 10
    endloop
  endfacet
  facet normal 0.237833 0.971306 -0
    outer loop
      vertex 63.6173 -33.0058 10
      vertex 63.6173 -33.0058 10.8
      vertex 64.0841 -33.1201 10.8
    endloop
  endfacet
  facet normal 0.336369 -0.94173 0
    outer loop
      vertex 63.9849 -32.8745 10
      vertex 63.6173 -33.0058 10.8
      vertex 63.6173 -33.0058 10
    endloop
  endfacet
  facet normal 0.336369 -0.94173 0
    outer loop
      vertex 63.9849 -32.8745 10
      vertex 63.9849 -32.8745 10.8
      vertex 63.6173 -33.0058 10.8
    endloop
  endfacet
  facet normal 0.635999 -0.77169 0
    outer loop
      vertex 64.2448 -32.6603 10
      vertex 63.9849 -32.8745 10.8
      vertex 63.9849 -32.8745 10
    endloop
  endfacet
  facet normal 0.635999 -0.77169 0
    outer loop
      vertex 64.2448 -32.6603 10
      vertex 64.2448 -32.6603 10.8
      vertex 63.9849 -32.8745 10.8
    endloop
  endfacet
  facet normal 0.878861 -0.477078 0
    outer loop
      vertex 64.3994 -32.3755 10
      vertex 64.2448 -32.6603 10.8
      vertex 64.2448 -32.6603 10
    endloop
  endfacet
  facet normal 0.878861 -0.477078 0
    outer loop
      vertex 64.3994 -32.3755 10
      vertex 64.3994 -32.3755 10.8
      vertex 64.2448 -32.6603 10.8
    endloop
  endfacet
  facet normal 0.988902 -0.148566 0
    outer loop
      vertex 64.4509 -32.0327 10
      vertex 64.3994 -32.3755 10.8
      vertex 64.3994 -32.3755 10
    endloop
  endfacet
  facet normal 0.988902 -0.148566 0
    outer loop
      vertex 64.4509 -32.0327 10
      vertex 64.4509 -32.0327 10.8
      vertex 64.3994 -32.3755 10.8
    endloop
  endfacet
  facet normal 0.977516 0.210861 0
    outer loop
      vertex 64.3482 -31.5566 10
      vertex 64.4509 -32.0327 10.8
      vertex 64.4509 -32.0327 10
    endloop
  endfacet
  facet normal 0.977516 0.210861 -0
    outer loop
      vertex 64.3482 -31.5566 10
      vertex 64.3482 -31.5566 10.8
      vertex 64.4509 -32.0327 10.8
    endloop
  endfacet
  facet normal 0.74464 0.667466 0
    outer loop
      vertex 64.0403 -31.2131 10
      vertex 64.3482 -31.5566 10.8
      vertex 64.3482 -31.5566 10
    endloop
  endfacet
  facet normal 0.74464 0.667466 -0
    outer loop
      vertex 64.0403 -31.2131 10
      vertex 64.0403 -31.2131 10.8
      vertex 64.3482 -31.5566 10.8
    endloop
  endfacet
  facet normal 0.379136 0.925341 0
    outer loop
      vertex 63.5324 -31.005 10
      vertex 64.0403 -31.2131 10.8
      vertex 64.0403 -31.2131 10
    endloop
  endfacet
  facet normal 0.379136 0.925341 -0
    outer loop
      vertex 63.5324 -31.005 10
      vertex 63.5324 -31.005 10.8
      vertex 64.0403 -31.2131 10.8
    endloop
  endfacet
  facet normal 0.0981989 0.995167 0
    outer loop
      vertex 62.8301 -30.9357 10
      vertex 63.5324 -31.005 10.8
      vertex 63.5324 -31.005 10
    endloop
  endfacet
  facet normal 0.0981989 0.995167 -0
    outer loop
      vertex 62.8301 -30.9357 10
      vertex 62.8301 -30.9357 10.8
      vertex 63.5324 -31.005 10.8
    endloop
  endfacet
  facet normal 0 1 0
    outer loop
      vertex 60.8312 -30.9357 10
      vertex 62.8301 -30.9357 10.8
      vertex 62.8301 -30.9357 10
    endloop
  endfacet
  facet normal 0 1 0
    outer loop
      vertex 60.8312 -30.9357 10
      vertex 60.8312 -30.9357 10.8
      vertex 62.8301 -30.9357 10.8
    endloop
  endfacet
  facet normal -1 0 0
    outer loop
      vertex 60.8312 -35.3022 10
      vertex 60.8312 -30.9357 10.8
      vertex 60.8312 -30.9357 10
    endloop
  endfacet
  facet normal -1 0 0
    outer loop
      vertex 60.8312 -35.3022 10
      vertex 60.8312 -35.3022 10.8
      vertex 60.8312 -30.9357 10.8
    endloop
  endfacet
  facet normal 0 -1 0
    outer loop
      vertex 63.016 -35.3022 10
      vertex 60.8312 -35.3022 10.8
      vertex 60.8312 -35.3022 10
    endloop
  endfacet
  facet normal 0 -1 0
    outer loop
      vertex 63.016 -35.3022 10
      vertex 63.016 -35.3022 10.8
      vertex 60.8312 -35.3022 10.8
    endloop
  endfacet
  facet normal 0.114443 -0.99343 0
    outer loop
      vertex 63.7226 -35.2208 10
      vertex 63.016 -35.3022 10.8
      vertex 63.016 -35.3022 10
    endloop
  endfacet
  facet normal 0.114443 -0.99343 0
    outer loop
      vertex 63.7226 -35.2208 10
      vertex 63.7226 -35.2208 10.8
      vertex 63.016 -35.3022 10.8
    endloop
  endfacet
  facet normal 1 0 -0
    outer loop
      vertex 61.7454 -31.6144 10
      vertex 61.7454 -31.6144 10.8
      vertex 61.7454 -32.6959 10
    endloop
  endfacet
  facet normal 1 -0 0
    outer loop
      vertex 61.7454 -32.6959 10.8
      vertex 61.7454 -32.6959 10
      vertex 61.7454 -31.6144 10.8
    endloop
  endfacet
  facet normal 0 -1 0
    outer loop
      vertex 62.7867 -31.6144 10
      vertex 62.7867 -31.6144 10.8
      vertex 61.7454 -31.6144 10
    endloop
  endfacet
  facet normal 0 -1 0
    outer loop
      vertex 61.7454 -31.6144 10.8
      vertex 61.7454 -31.6144 10
      vertex 62.7867 -31.6144 10.8
    endloop
  endfacet
  facet normal -0.095085 -0.995469 0
    outer loop
      vertex 63.1102 -31.6453 10
      vertex 63.1102 -31.6453 10.8
      vertex 62.7867 -31.6144 10
    endloop
  endfacet
  facet normal -0.095085 -0.995469 -0
    outer loop
      vertex 62.7867 -31.6144 10.8
      vertex 62.7867 -31.6144 10
      vertex 63.1102 -31.6453 10.8
    endloop
  endfacet
  facet normal -0.370978 -0.928642 0
    outer loop
      vertex 63.343 -31.7383 10
      vertex 63.343 -31.7383 10.8
      vertex 63.1102 -31.6453 10
    endloop
  endfacet
  facet normal -0.370978 -0.928642 -0
    outer loop
      vertex 63.1102 -31.6453 10.8
      vertex 63.1102 -31.6453 10
      vertex 63.343 -31.7383 10.8
    endloop
  endfacet
  facet normal -0.764221 -0.644955 0
    outer loop
      vertex 63.4836 -31.9049 10
      vertex 63.4836 -31.9049 10.8
      vertex 63.343 -31.7383 10
    endloop
  endfacet
  facet normal -0.764221 -0.644955 -0
    outer loop
      vertex 63.343 -31.7383 10.8
      vertex 63.343 -31.7383 10
      vertex 63.4836 -31.9049 10.8
    endloop
  endfacet
  facet normal -0.983092 -0.18311 0
    outer loop
      vertex 63.5305 -32.1567 10
      vertex 63.5305 -32.1567 10.8
      vertex 63.4836 -31.9049 10
    endloop
  endfacet
  facet normal -0.983092 -0.18311 -0
    outer loop
      vertex 63.4836 -31.9049 10.8
      vertex 63.4836 -31.9049 10
      vertex 63.5305 -32.1567 10.8
    endloop
  endfacet
  facet normal -0.983196 0.182552 0
    outer loop
      vertex 63.4867 -32.3926 10
      vertex 63.4867 -32.3926 10.8
      vertex 63.5305 -32.1567 10
    endloop
  endfacet
  facet normal -0.983196 0.182552 0
    outer loop
      vertex 63.5305 -32.1567 10.8
      vertex 63.5305 -32.1567 10
      vertex 63.4867 -32.3926 10.8
    endloop
  endfacet
  facet normal -0.788797 0.614653 0
    outer loop
      vertex 63.3554 -32.5611 10
      vertex 63.3554 -32.5611 10.8
      vertex 63.4867 -32.3926 10
    endloop
  endfacet
  facet normal -0.788797 0.614653 0
    outer loop
      vertex 63.4867 -32.3926 10.8
      vertex 63.4867 -32.3926 10
      vertex 63.3554 -32.5611 10.8
    endloop
  endfacet
  facet normal -0.40506 0.91429 0
    outer loop
      vertex 63.1272 -32.6622 10
      vertex 63.1272 -32.6622 10.8
      vertex 63.3554 -32.5611 10
    endloop
  endfacet
  facet normal -0.40506 0.91429 0
    outer loop
      vertex 63.3554 -32.5611 10.8
      vertex 63.3554 -32.5611 10
      vertex 63.1272 -32.6622 10.8
    endloop
  endfacet
  facet normal -0.100299 0.994957 0
    outer loop
      vertex 62.7929 -32.6959 10
      vertex 62.7929 -32.6959 10.8
      vertex 63.1272 -32.6622 10
    endloop
  endfacet
  facet normal -0.100299 0.994957 0
    outer loop
      vertex 63.1272 -32.6622 10.8
      vertex 63.1272 -32.6622 10
      vertex 62.7929 -32.6959 10.8
    endloop
  endfacet
  facet normal 0 1 0
    outer loop
      vertex 61.7454 -32.6959 10
      vertex 61.7454 -32.6959 10.8
      vertex 62.7929 -32.6959 10
    endloop
  endfacet
  facet normal 0 1 0
    outer loop
      vertex 62.7929 -32.6959 10.8
      vertex 62.7929 -32.6959 10
      vertex 61.7454 -32.6959 10.8
    endloop
  endfacet
  facet normal 1 0 -0
    outer loop
      vertex 61.7454 -33.3715 10
      vertex 61.7454 -33.3715 10.8
      vertex 61.7454 -34.6235 10
    endloop
  endfacet
  facet normal 1 -0 0
    outer loop
      vertex 61.7454 -34.6235 10.8
      vertex 61.7454 -34.6235 10
      vertex 61.7454 -33.3715 10.8
    endloop
  endfacet
  facet normal 0 -1 0
    outer loop
      vertex 62.9045 -33.3715 10
      vertex 62.9045 -33.3715 10.8
      vertex 61.7454 -33.3715 10
    endloop
  endfacet
  facet normal 0 -1 0
    outer loop
      vertex 61.7454 -33.3715 10.8
      vertex 61.7454 -33.3715 10
      vertex 62.9045 -33.3715 10.8
    endloop
  endfacet
  facet normal -0.226357 -0.974044 0
    outer loop
      vertex 63.5646 -33.5249 10
      vertex 63.5646 -33.5249 10.8
      vertex 62.9045 -33.3715 10
    endloop
  endfacet
  facet normal -0.226357 -0.974044 -0
    outer loop
      vertex 62.9045 -33.3715 10.8
      vertex 62.9045 -33.3715 10
      vertex 63.5646 -33.5249 10.8
    endloop
  endfacet
  facet normal -0.902207 -0.431303 0
    outer loop
      vertex 63.7846 -33.9851 10
      vertex 63.7846 -33.9851 10.8
      vertex 63.5646 -33.5249 10
    endloop
  endfacet
  facet normal -0.902207 -0.431303 -0
    outer loop
      vertex 63.5646 -33.5249 10.8
      vertex 63.5646 -33.5249 10
      vertex 63.7846 -33.9851 10.8
    endloop
  endfacet
  facet normal -0.983921 0.178606 0
    outer loop
      vertex 63.7339 -34.2644 10
      vertex 63.7339 -34.2644 10.8
      vertex 63.7846 -33.9851 10
    endloop
  endfacet
  facet normal -0.983921 0.178606 0
    outer loop
      vertex 63.7846 -33.9851 10.8
      vertex 63.7846 -33.9851 10
      vertex 63.7339 -34.2644 10.8
    endloop
  endfacet
  facet normal -0.794855 0.606799 0
    outer loop
      vertex 63.5816 -34.4639 10
      vertex 63.5816 -34.4639 10.8
      vertex 63.7339 -34.2644 10
    endloop
  endfacet
  facet normal -0.794855 0.606799 0
    outer loop
      vertex 63.7339 -34.2644 10.8
      vertex 63.7339 -34.2644 10
      vertex 63.5816 -34.4639 10.8
    endloop
  endfacet
  facet normal -0.415292 0.909688 0
    outer loop
      vertex 63.3194 -34.5836 10
      vertex 63.3194 -34.5836 10.8
      vertex 63.5816 -34.4639 10
    endloop
  endfacet
  facet normal -0.415292 0.909688 0
    outer loop
      vertex 63.5816 -34.4639 10.8
      vertex 63.5816 -34.4639 10
      vertex 63.3194 -34.5836 10.8
    endloop
  endfacet
  facet normal -0.104209 0.994555 0
    outer loop
      vertex 62.9386 -34.6235 10
      vertex 62.9386 -34.6235 10.8
      vertex 63.3194 -34.5836 10
    endloop
  endfacet
  facet normal -0.104209 0.994555 0
    outer loop
      vertex 63.3194 -34.5836 10.8
      vertex 63.3194 -34.5836 10
      vertex 62.9386 -34.6235 10.8
    endloop
  endfacet
  facet normal 0 1 0
    outer loop
      vertex 61.7454 -34.6235 10
      vertex 61.7454 -34.6235 10.8
      vertex 62.9386 -34.6235 10
    endloop
  endfacet
  facet normal 0 1 0
    outer loop
      vertex 62.9386 -34.6235 10.8
      vertex 62.9386 -34.6235 10
      vertex 61.7454 -34.6235 10.8
    endloop
  endfacet
endsolid OpenSCAD_Model
